<svg width="577" height="577" viewBox="0 0 577 577" fill="none" xmlns="http://www.w3.org/2000/svg">
<g clip-path="url(#clip0_751_180)">
<rect width="577" height="577" rx="247" fill="white"/>
<path d="M492.994 130.747C522.564 179.708 538.024 232.716 538.427 286.345C538.831 339.974 524.169 393.106 495.341 442.308" stroke="black" stroke-width="5.43337"/>
<path d="M81.6042 442.214C52.8037 393.024 38.1617 339.91 38.5733 286.301C38.9849 232.691 54.4417 179.704 83.9979 130.761" stroke="black" stroke-width="5.43337"/>
<rect x="103.796" y="103.795" width="369.409" height="369.409" rx="184.704" stroke="black" stroke-width="12.7382"/>
<path fill-rule="evenodd" clip-rule="evenodd" d="M323.714 168.826V168.76H323.779H324.696H325.414H325.609H325.805H326.326H326.587L327.961 168.826H328.157H328.548H328.678H329.4H329.53H329.661H331.095H331.356H331.491L331.817 169.282L332.078 169.673L332.143 169.804L332.599 170.395L332.665 170.46L333.056 171.047L333.186 171.243L333.251 171.308L333.447 171.438V171.634L333.382 171.829L333.512 172.09L333.643 172.155L333.708 172.421L333.773 172.682H333.708L333.577 172.812V172.943V173.138L333.643 173.269L333.708 173.399V173.464L333.773 173.79L333.708 173.986H333.643L333.512 174.312L333.447 174.638V174.838L333.512 174.968L333.643 175.034H333.843L333.973 175.099L334.038 175.425L334.169 175.686H334.299L334.43 175.62L334.821 175.229L334.886 175.164L334.951 175.229V175.425L334.886 175.686V175.881L335.016 175.816H335.212L335.538 176.142L335.734 176.207L335.929 176.272L336.325 176.207L336.521 176.142H336.651L336.781 176.207L336.847 176.272L337.042 176.533L336.977 176.729L336.716 176.924L336.651 177.055V177.255L336.781 177.451L336.912 177.516H337.042L337.173 177.385L337.303 177.055L337.433 176.924H337.499L337.629 176.99L337.694 177.19L337.759 177.32L337.825 177.451V177.907L337.89 177.972L338.02 178.103H338.411H338.542L338.938 178.037H339.003L339.264 178.103L339.329 178.298V178.494L339.394 178.755L339.459 179.015L339.59 179.211L339.655 179.472L339.785 179.802L339.72 179.868V180.194L339.785 180.52L339.72 180.78L339.85 181.172L339.655 181.367L339.59 181.628L339.655 181.693L339.785 181.893H339.916L340.046 181.693L340.111 181.563H340.242L340.307 181.693V182.024L340.372 182.35L340.568 182.611L340.763 182.937L340.828 183.132L340.894 183.328V183.589L340.828 184.11L340.894 184.376L340.828 184.571L340.698 184.767V184.962L340.894 185.549L340.828 185.81L340.763 186.266L340.828 186.527V186.727L340.698 186.988V187.053L340.894 187.445L340.828 187.51V187.575L340.568 187.771L340.502 187.901L340.568 188.097H340.763L341.42 188.879H341.485L341.681 189.009L341.746 189.144L341.876 189.21L342.072 189.34H342.398L342.528 189.275L342.593 189.144L342.659 189.009L342.789 188.944L342.985 188.879V188.944H343.115L343.311 189.079L343.576 189.275V189.34L343.511 189.601V189.796L343.837 189.927L343.902 189.992L344.032 190.383L343.967 190.514L343.902 190.644V190.709L343.706 190.644L343.641 190.709V190.774V190.84L343.772 190.905L343.837 190.97L343.902 191.1L343.967 191.166H344.228L344.424 191.231L344.489 191.296L344.554 191.361V191.496L344.489 191.692L344.424 191.822L344.358 191.887H344.228L344.098 191.822H343.967L343.902 191.887L343.837 191.953L343.902 192.083L344.098 192.409V192.605V192.735L344.032 192.865L343.967 192.931L343.772 193.061L343.706 193.126L343.641 193.257V193.387L343.706 193.517L343.772 193.778L343.837 193.848V194.174L343.902 194.37L344.098 194.5L344.163 194.565H344.293L344.358 194.5V194.304V194.174H344.424L344.619 194.37L344.75 194.435V194.565V194.761V194.956L344.88 195.152L345.01 195.348L345.206 195.478L345.271 195.543L345.206 195.674L345.141 195.804L345.076 195.869L344.945 195.934L344.75 196H344.619L344.489 196.13L344.424 196.265L344.489 196.33L344.554 196.395L344.75 196.461L344.815 196.526L344.945 196.852L344.88 196.917L344.815 196.982L344.75 196.917L344.489 196.852H344.424H344.293L344.228 196.982L344.163 197.178V197.308V197.439V197.504L344.228 197.634H344.293L344.358 197.895L344.424 198.025L344.358 198.156L344.424 198.221L344.554 198.417L344.489 198.547L344.424 198.682L344.489 198.812L344.619 198.943L344.684 199.204V199.269L344.815 199.334L344.88 199.399V199.53V199.66L344.815 199.856L344.88 199.986L344.945 200.051L345.467 200.247L345.597 200.312L345.728 200.508V200.768V200.899L345.662 201.034L345.532 201.36V201.49L345.467 201.555L345.01 201.816L344.945 202.012L344.815 202.077V202.338L344.619 202.403L344.489 202.729L344.424 202.794L344.358 202.925V203.055L344.228 203.12V203.316L344.032 203.581L343.967 203.842L344.032 203.972L344.163 204.233L344.228 204.429V204.494L344.032 204.69L343.902 204.82L343.837 204.95V205.016V205.146L343.772 205.342L343.837 205.537V205.602L343.772 205.668L343.576 205.738L343.511 205.803L343.446 205.868L343.511 206.064V206.129L343.38 206.194L343.311 206.259V206.324L343.446 206.455V206.52V206.65L343.38 206.976L343.446 207.041V207.107L343.641 207.237V207.302V207.367L343.38 207.498L343.311 207.563L343.446 207.628L343.511 207.693V207.759L343.446 207.889L343.38 208.019V208.085L343.446 208.22L343.511 208.285L343.446 208.415L343.511 208.481L343.576 208.546V208.676L343.446 208.741L343.511 208.807V208.872L343.576 209.002L343.511 209.067L343.311 209.263V209.328V209.393L343.511 209.459L343.576 209.784V209.915L343.511 210.045L343.446 210.176V210.241L343.511 210.306L343.641 210.371L343.706 210.436V210.506L343.511 210.637L343.576 210.702L343.641 210.767L343.706 210.832L343.641 210.963L343.772 211.028L343.837 211.289V211.354V211.55V211.615V211.745L343.772 211.876L343.837 211.941V212.006V212.136V212.202V212.267L343.902 212.332V212.397L343.967 212.462L344.032 212.593L344.098 212.854L344.293 212.989L344.489 213.249L344.554 213.51V213.967L344.684 214.423L344.75 214.945L344.619 215.075L344.489 215.205V215.275L344.358 215.34L344.228 215.536L344.163 215.666V216.123L344.228 216.188L344.358 216.318L344.424 216.514V216.644L344.489 216.84L344.75 217.101L344.88 217.492L344.945 217.622L345.206 217.888L345.402 218.214L345.467 218.409L345.532 218.475L345.662 218.801L345.797 219.061L345.863 219.387L345.993 219.518L346.058 220.044L345.993 220.37L345.863 220.631L345.797 220.761V221.218V221.544V221.804L345.928 222L346.123 222.13L346.319 222.261L346.58 222.391L346.971 222.526H347.101L347.362 222.722L347.819 223.178L347.884 223.309L347.949 223.7L348.014 223.895L348.28 224.091L348.345 224.221L348.671 224.547V224.613V225.008V225.4L348.736 225.53L348.866 225.595L348.997 225.791L348.932 225.921V225.986L349.192 226.182L349.258 226.378L349.192 226.508L349.258 226.573L349.649 226.704L349.844 226.769L349.975 226.899L350.17 226.964L350.301 227.095L350.366 227.16L350.431 227.36L350.697 227.621L350.958 227.751L351.284 228.208L351.479 228.534L351.544 228.664H351.609L351.87 228.925L352.196 229.121L352.261 229.251L352.392 229.712L352.587 229.908L352.783 230.103L352.918 230.56H353.049L353.309 230.755L353.44 230.951L353.505 231.146H353.57L353.635 231.081H353.831H353.896L354.287 231.407L354.548 231.603L354.678 231.798H354.874L355.07 231.864L355.4 232.194L355.661 232.129L355.857 232.325L356.183 232.455H356.313L356.835 232.846L356.965 232.977L357.03 233.303L356.9 233.368L356.509 233.498L356.183 233.563L355.857 233.629H355.792L355.335 233.824L355.07 233.889L354.744 233.955L354.222 234.02H353.635L353.244 234.15L353.049 234.215L352.983 234.281L352.587 234.35H352.131L351.87 234.416L351.74 234.35L351.544 234.281L351.284 234.215L350.496 233.889L350.105 233.694H349.975L349.844 233.629L349.649 233.563H349.388H349.258L349.127 233.498L348.671 233.368L348.28 233.303L348.014 233.172L347.688 233.042L347.232 233.759L347.036 233.694L346.71 233.629L346.645 233.498L346.123 233.237L345.728 233.107H345.532L345.206 233.303L345.076 233.368L345.01 233.498V233.694L344.88 233.759H344.489L344.228 233.694H344.163L343.967 233.629L343.837 233.563L343.511 233.433L343.38 233.237L343.18 233.107L342.919 232.977H342.854H342.789H342.659H342.463H342.398L341.746 233.303L341.42 233.368H341.289L341.094 233.433L340.763 233.629L340.502 233.759L340.176 234.02L340.046 234.215H339.981L339.916 234.35L339.59 234.481L339.459 234.546L339.329 234.611H338.938L338.542 234.481L338.411 234.416L338.216 234.35L338.02 234.215L337.825 234.15L337.694 234.085L337.499 234.02H337.107H336.912H336.781H336.651L335.994 233.824L335.342 233.694L335.082 233.563L334.821 233.498L334.625 233.433L334.495 233.368H334.299L333.843 233.237L333.251 233.042L333.186 232.977L332.665 232.911L332.339 232.846L332.143 232.781H332.013L331.752 232.846L331.556 232.911H330.965L330.639 232.977L330.378 232.911H329.856L329.4 232.977H329.335L329.27 233.042H329.139H328.874L328.743 232.977L328.352 232.911H328.222L328.157 232.977H327.896H327.7L327.57 233.042H327.113H326.853H326.787L326.652 233.107L326.261 233.237L326.066 233.368L325.935 233.694L325.87 234.02V234.215L325.74 234.35L325.674 234.807L325.609 235.068L325.414 235.394L325.283 235.524L325.153 235.72L324.501 236.567L324.37 236.767L324.105 237.028V237.159L323.649 237.55L323.518 237.811L323.453 237.876L323.323 237.941L322.931 238.202L322.736 238.463L322.41 239.119V239.51L322.279 239.902L322.345 240.228V240.358L322.736 240.684L322.866 240.814L323.062 241.271L323.192 241.536L323.453 241.862H323.518L323.583 241.993L323.714 242.123L323.975 242.384L324.17 242.645L324.762 243.231L325.022 243.492L325.153 243.557L325.414 243.753L325.609 243.818H325.805L325.87 243.888L326 244.214V244.475L326.131 244.54L326.326 244.605L326.587 244.801L326.853 245.127L326.983 245.518L327.113 245.714L327.439 245.844L327.7 246.04L327.961 246.17L328.157 246.235H328.548L328.743 246.566L328.809 246.696L328.874 246.827L328.939 247.022L329.074 247.218L329.27 247.479L329.791 247.674L329.987 247.87L330.052 248.131L330.117 248.261L330.052 248.522V248.722L329.856 249.113L329.791 249.179V249.244L329.726 249.57L329.856 249.765L330.052 250.026L330.313 250.157L330.508 250.417H330.639V250.548L330.9 250.743L331.03 250.874V250.939L331.226 251.204L331.291 251.335H331.421L331.556 251.465L331.752 251.53L331.817 251.596L332.078 251.791L332.208 251.922V252.052L332.013 252.313V252.378L332.404 253.03L332.534 253.226H332.599L332.925 253.291L333.121 253.356L333.317 253.491L333.577 253.621L333.973 254.013L334.234 254.208L334.886 254.86L334.951 254.925L335.147 255.186L335.342 255.382H335.408L335.538 255.512L335.668 255.708L336.125 256.169L336.455 256.495L336.847 256.756L337.107 257.016L337.303 257.212L337.629 257.603L337.89 257.799L338.02 257.734L338.411 257.799H338.612H338.807L339.068 257.994H339.198L339.329 257.929L339.655 257.994L339.785 257.864H339.85V257.799H339.916L340.046 257.864L340.111 257.734L340.242 257.864L340.307 257.799H340.372L340.502 257.864H340.633L340.698 257.929L340.828 258.195V258.325V258.39L340.894 258.455L341.029 258.521L341.224 258.716L341.029 258.847L340.894 258.977L341.224 259.173H341.42L341.615 259.107L341.746 259.173L341.876 259.303L342.202 259.433H342.267L342.528 259.629V259.759L342.463 259.955L342.398 260.411L342.463 260.542L342.528 260.612H342.724H342.789H342.919L343.511 260.742H343.706L343.902 260.677H344.032H344.228L344.424 260.742H344.554L344.815 260.677H345.01L345.271 260.807L345.467 260.938L345.863 261.133L346.058 261.264L346.449 261.524L346.71 261.916L347.101 261.981L347.167 262.046V262.176V262.502L347.232 262.763L347.297 262.963L347.362 263.159V263.42L347.493 263.55L347.623 263.811V263.941L347.688 264.267L347.819 264.659L347.884 264.919L347.949 265.115L348.014 265.311L348.079 265.511L348.215 265.967L348.28 266.163L348.345 266.619L348.41 266.88L348.736 268.319L348.866 268.515L349.062 268.841L349.127 269.101L349.323 269.427L349.453 269.623L349.584 269.949L350.17 271.192L350.301 271.323L350.566 271.91L350.697 272.17L350.827 272.431L351.088 272.892V273.023L350.958 273.609V273.87L351.023 274.131L351.088 274.392L351.479 274.718L351.544 274.918L351.609 274.983V275.179L352.261 276.939L352.457 277.4L352.587 277.596L352.653 277.726L352.983 278.248L353.049 278.313L353.244 278.639L353.309 278.835L353.44 278.965L353.635 279.095L354.157 279.226L354.809 279.356L355.135 279.421L355.265 279.617V279.687L355.2 279.817L355.135 279.948V280.078L355.2 280.208L355.135 280.404L355.2 280.6V280.73V281.121L355.265 281.186L355.2 281.512L355.07 281.708L354.939 281.838V281.969L355.004 282.039V282.234L354.939 282.56L354.678 282.886L354.613 283.017L354.678 283.082L354.744 283.212V283.277L354.678 283.408H354.613L354.418 283.603L354.287 283.734L354.157 283.864L354.027 283.995L353.831 284.19L353.701 284.255L353.57 284.521L353.375 284.586L353.244 284.651L353.114 284.912L353.179 285.043L353.114 285.108H352.983L352.848 285.238V285.303V285.369L352.718 285.499L352.522 285.629H352.457L352.522 285.76L352.327 286.151L352.131 286.216L352.066 286.281L352.001 286.477V286.542L351.805 286.607L351.74 286.738V286.873V286.938L351.544 287.068L351.284 287.329L351.153 287.394L351.023 287.46L350.762 287.786L350.496 287.916L350.301 288.112L350.04 288.307L349.844 288.503L349.779 288.568H349.649L349.323 288.829L349.127 288.959L348.997 289.09L348.671 289.485L348.475 289.616L348.41 289.681L348.28 289.811L348.014 289.877L347.949 289.942V290.072L347.753 290.463L347.558 290.529L347.427 290.594V290.724V290.789L347.297 290.92L347.427 290.985H347.558L347.623 291.115H347.688L347.753 291.181L347.623 291.311L347.558 291.507L347.362 291.707L347.232 291.968L347.297 292.62L347.362 292.685L347.493 292.75L347.167 293.402L346.906 293.924V293.993V294.059V294.124L346.775 294.189L346.645 294.124L346.319 294.189L346.254 294.319L346.189 294.58V294.711L346.058 294.776L345.993 294.906L345.863 295.037V295.167V295.297V295.363L345.662 296.275L345.797 296.671V296.736L345.728 296.867L345.532 296.932L345.402 297.258L345.271 297.454L345.141 297.845L345.076 298.04L344.88 298.301L344.815 298.562L344.684 298.827V298.958V299.023L344.554 299.153L344.358 299.479L344.293 299.61L344.228 300.066L344.163 300.327L343.837 300.588L343.772 300.653L343.706 300.588L343.446 300.523H343.18H343.115L342.854 300.718H342.789H342.659L342.398 300.849H342.333H342.137L342.072 300.979L341.941 301.375L341.876 301.57H341.811L341.55 302.157L341.355 302.548V302.744L341.159 303.07L340.633 304.248L340.111 305.487L339.981 305.748L339.916 305.883L339.85 306.078L339.59 306.6L339.394 306.861V306.991L338.938 307.839L338.872 307.969V308.034L338.807 308.23V308.495L338.938 308.887V308.952L338.742 309.278L338.677 309.408L338.612 309.539L338.542 309.604L338.151 310.191L337.629 310.912L337.564 311.043L337.368 311.238L337.042 311.369L335.473 311.956L335.277 312.021H335.147L334.951 312.151L333.973 312.477L333.908 312.412L333.773 312.477L333.643 312.542L333.186 312.868L333.056 312.999L332.991 313.069L332.86 313.264L332.665 313.46L332.534 313.721L332.469 313.851L332.339 313.916L331.817 314.307L331.752 314.438L331.687 314.503L331.421 314.568L331.16 314.699H331.095H330.769V314.764L330.9 314.959L330.769 315.22V315.285L330.704 315.616V315.681V315.812L330.9 316.072L331.03 316.464L331.291 316.724L331.621 316.985L331.752 317.181L331.882 317.572L331.947 317.702L332.013 317.768L332.143 317.837V318.098L332.208 318.294L332.339 318.424L332.469 318.489L332.534 318.555L332.665 318.62H332.925L333.512 318.489L333.708 318.62L333.843 318.555L333.908 318.489L334.234 318.163H334.43L334.625 318.229L334.886 318.685V318.881V319.011V319.402L334.821 319.728L335.016 320.32V321.558V321.624V322.145V322.802L334.821 323.193L334.69 323.65V323.91L334.56 324.106L334.495 324.367V324.497L334.364 324.693V324.823L334.299 325.089L334.364 325.349L334.56 325.61L334.625 325.806L334.69 326.132L334.821 326.393L335.082 326.719V326.784L334.821 327.044V327.24L334.756 327.44L334.625 327.506L334.56 327.571L334.495 327.636L334.56 327.766V327.897L334.495 328.288V328.418L334.56 328.875L334.495 329.005L334.364 329.136H334.169L334.104 329.266H334.038H333.973L333.908 329.331L333.973 329.396V329.657L333.843 329.857L333.512 330.379L333.447 330.575V330.77L333.317 330.835V330.966L333.447 331.031L333.382 331.096L333.186 331.161L333.121 331.357H333.056L332.991 331.487L332.925 331.553L332.991 331.813L333.447 332.209L333.643 332.34H333.708L333.843 332.535L333.973 332.666H334.234L334.43 332.796H334.625L334.756 332.861L334.886 332.796H335.016L335.082 332.861L335.277 332.926H335.538L335.603 333.057L335.668 333.187L335.929 333.318L335.994 333.513V333.578L336.325 334.887L336.39 335.343V335.409L336.325 335.539L336.06 335.604V335.865V335.995L336.19 336.061V336.191V336.387L336.325 336.913L336.125 336.978V337.043L336.19 337.108V337.174H336.06V337.239L336.19 337.369L336.125 337.434L336.06 337.565V337.63L336.19 337.695L336.26 337.826L336.39 338.021L336.455 338.152L336.325 338.543L336.39 338.608L336.26 338.738V338.869V338.934L336.39 338.999L336.521 339.395L336.651 339.721V339.851L336.847 340.112V340.177L336.781 340.308L336.651 340.373L336.716 340.569V340.634L336.781 340.829L336.977 341.481L336.912 341.612L336.977 341.812L336.912 341.877L336.847 342.008V342.138L336.716 342.203L336.586 342.268L336.651 342.334L336.781 342.529L336.847 342.66L336.977 342.79V343.051V343.442L337.042 343.638V343.964L336.977 344.164L337.042 344.49V344.816V344.946L337.173 345.077L337.238 345.337L337.173 345.468L337.303 345.533H337.368L337.433 345.663L337.499 345.729L337.759 346.055L338.02 346.12L338.085 346.25L338.216 346.381V346.516L338.346 346.581L338.411 346.711L338.612 346.907L338.742 346.972L338.938 347.233L339.068 347.298L339.264 347.428L339.329 347.559H339.394H339.59V347.624H339.785L339.85 347.82L339.916 347.885H340.046L340.176 347.95L340.372 348.211L340.437 348.406L340.502 348.472L340.633 348.537H340.828L341.094 348.667L341.224 348.732L341.355 348.867H341.42L341.615 348.933L341.681 348.998V349.128L341.941 349.193L342.007 349.128H342.137H342.202L342.398 349.193L342.463 349.259L342.528 349.389L342.789 349.454H342.854H343.05L343.115 349.519V349.585L343.18 349.715L343.245 349.976V350.041V350.171L343.446 350.367V350.563V350.628L343.576 350.693L343.641 350.563H343.706L343.772 350.628L343.837 350.758V350.823L343.772 350.889L343.967 351.019L344.098 351.219L344.163 351.48L344.358 351.676L344.424 351.806H344.489H344.554L344.75 352.132V352.393V352.458L344.815 352.588L344.75 352.719L344.88 352.784V352.849V352.914L344.815 353.11L344.88 353.24L344.815 353.306V353.371L344.88 353.501L344.945 353.636L345.01 353.701V353.767L344.88 353.897V354.027L345.01 354.288V354.484V354.549H345.076L345.141 354.614L345.076 354.745L345.141 354.875L345.076 355.005L345.141 355.071L345.01 355.266V355.397L345.141 355.723L345.206 355.788L345.402 355.853L345.467 355.988H345.532L345.662 356.118V356.379L345.797 356.575L345.863 356.836H345.928L346.123 356.77H346.384L346.515 356.836V356.966L346.58 357.096L346.515 357.162L346.384 357.227H346.189L346.123 357.292H345.993L345.797 357.488L345.271 357.618L345.076 357.683H344.945L344.815 357.748L344.489 357.814L344.358 357.944H344.228H344.163L344.032 358.074L343.967 358.27H344.098H344.684L344.75 358.47L344.815 358.601L344.88 358.862L345.01 359.383L345.597 360.296L345.797 360.757L345.928 360.822V360.887L346.058 361.148L346.254 361.409L346.319 361.539L347.167 362.908L347.427 363.239V363.37L347.623 363.696L347.949 364.152L348.28 364.478V364.543L348.671 364.934L348.997 365.325H349.062L349.127 365.391L349.518 365.917L349.779 366.178L350.892 367.351L351.023 367.482L351.153 367.612L351.544 368.073L351.87 368.399L352.457 369.051H352.587L352.718 369.182L353.049 369.573L353.179 369.768L353.375 369.899L353.961 370.621L354.092 370.816L354.418 371.207L355.4 372.251L355.661 372.577L356.118 373.103V373.233L356.248 373.364L356.378 373.494L356.444 373.559L357.161 374.342L357.422 374.668H357.487L357.617 374.863L357.752 374.928L357.883 375.129L358.404 375.781L358.469 375.846L358.991 376.498L359.056 376.563L359.121 376.693L359.317 376.824L359.447 377.019L359.578 377.15L359.708 376.954L360.034 377.019L360.234 376.889L360.3 376.824H360.43H360.756L360.886 376.889V377.019H360.952H361.278L361.343 377.085L361.538 377.28L361.604 377.415V377.48L361.864 377.937L362.125 378.328L362.256 378.393L362.456 378.654L362.782 379.11L362.977 379.306L363.043 379.371L363.108 379.306L363.173 379.176L363.238 379.045H363.369L363.434 379.11L363.564 379.045H363.76L363.825 379.176L363.955 379.241V379.371L364.021 379.502H364.151L364.281 379.632H364.412V379.832V379.963L364.542 380.093L364.738 380.419L364.873 380.615V380.875L365.199 381.071V381.332L365.46 382.049V382.184L365.525 382.51V382.836L365.46 382.901L365.264 383.032L365.199 383.227L364.738 383.358V383.423V383.488V383.553L364.803 383.749V383.879L364.873 384.075V384.14L365.003 384.205V384.27L364.938 384.401L365.003 384.666L364.938 384.731L364.873 384.797L365.003 384.862V384.927L364.873 384.992L364.938 385.123L365.134 385.188H365.394L365.525 385.318L365.394 385.514L365.264 385.709L365.199 385.84L365.134 386.166L365.068 386.492V386.622L365.134 386.883L365.394 387.474V387.931L365.329 388.061V388.257L365.134 388.583L365.068 388.974V389.17L365.199 389.3L365.329 389.435L365.394 389.565V389.696V389.957L365.329 390.152L365.199 390.217L365.264 390.413L365.394 390.543V390.674L365.46 390.804L365.786 391L365.916 391.261L365.981 391.456V391.521L366.046 391.787L366.372 392.178L366.633 392.504L366.698 392.569L366.764 392.634V393.026L366.894 393.482L366.959 393.612L367.09 393.808L367.225 394.269V394.334V394.399L367.024 394.66L367.09 394.856L367.616 395.312V395.377L367.681 395.443L367.551 395.638H367.616L367.42 395.834L367.155 395.899L367.024 395.964L366.959 396.029L366.829 396.225L366.698 396.29H366.633L366.568 396.225L366.503 395.899L366.372 395.834H366.242L366.046 395.769L365.72 395.834H365.655L365.46 395.964L365.394 396.16V396.751L365.329 397.012V397.403V397.468L365.394 397.599L365.46 397.664L365.525 397.86V398.12V398.186L365.46 398.251L365.394 398.381L365.134 398.512L365.003 398.577V398.707L365.134 398.772L365.264 398.838L365.394 398.973V399.168L365.264 399.429L365.199 399.494L364.938 399.69L364.803 399.951V400.146L364.873 400.342L364.803 400.537V400.603L364.938 400.668L365.134 400.929L365.329 401.059V401.259L365.394 401.455L365.46 401.651V401.781L365.525 402.172V402.237L365.655 402.303L365.916 402.237H365.981L366.046 402.303V402.433L365.981 402.563V402.759L366.046 403.02L366.242 403.606L366.307 403.807L366.438 403.937L366.568 404.198L366.633 404.524L366.698 404.915L366.633 405.176L366.568 405.306V405.502V405.698L366.698 405.828L366.829 406.093V406.224L366.764 406.419L366.633 406.615L366.503 406.55L366.307 406.289H366.177H366.046L365.851 406.354L365.72 406.419H365.59L365.394 406.55L365.264 406.745L365.134 407.006L365.003 407.202H364.938H364.873L364.738 407.137H364.607L364.281 407.071L364.216 407.006L364.086 406.615L364.151 406.485L364.216 406.159L364.151 406.093L364.021 405.958V405.828L364.086 405.632L364.281 405.306L364.347 405.176L364.412 405.046L364.347 404.915L364.216 404.85H364.086L363.564 404.915H363.434H362.782L362.321 404.654H361.995H361.93L361.864 404.524L361.799 404.394V404.328H361.538L361.278 404.524H361.147L361.212 404.394L361.017 403.742L360.886 403.606H360.495L360.365 403.541L360.234 403.28L360.104 403.215L359.643 403.085L359.382 402.759L359.317 402.563L359.252 402.433L358.926 402.172L358.861 401.977L358.73 401.846L358.469 401.716H358.274L358.078 401.781H357.948L357.883 401.651L357.096 401.39L356.77 401.455L356.444 401.39L355.857 401.259L355.466 401.124L355.135 400.994H354.939L354.678 401.059H354.548L354.287 400.863L354.157 400.798H354.027L353.831 400.929H353.766L353.505 400.798L353.049 400.472H352.918L352.783 400.603L352.196 400.733L351.805 400.863L351.609 400.994L351.284 401.259L351.023 401.325H350.892L350.236 401.716L350.04 401.781L349.975 401.846L349.844 401.651L349.779 401.455V401.39V401.259L349.584 401.39H349.453H349.323L349.192 401.325L349.127 401.259L349.192 400.994V400.863L349.127 400.668L348.866 400.342L348.671 400.146H348.41L348.345 400.081L348.28 399.951L348.215 399.82H347.884L348.014 399.56V399.429L347.819 399.364L347.427 399.299L347.232 399.234H347.036H346.906L346.71 399.429L346.515 399.69L346.384 399.625L346.319 399.56L346.189 399.168H345.928V399.234L345.863 399.56V399.69L345.728 399.82H345.597L345.467 399.755H345.336L345.141 400.016V400.211L345.01 400.407H344.619H344.489H344.358V400.277V400.081V400.016L344.293 399.951H344.163L343.837 400.407L343.772 400.472H343.641L343.511 400.277V400.016L343.311 399.82L342.985 399.69L342.789 399.56L342.528 399.299L342.333 399.429L342.202 399.82L342.137 399.886L341.811 399.951H341.55L341.355 400.016H341.159L341.029 399.951L340.698 399.69L340.633 399.625V399.56L340.894 399.364L340.959 399.234L341.029 398.973V398.838V398.707L340.502 398.577L340.307 398.512V398.251V397.86L340.242 397.729H340.111L339.916 397.794V397.86L340.046 398.186V398.251L339.981 398.316L339.655 398.251L339.459 398.316L339.329 398.446V398.512L339.198 398.642L338.938 398.772H338.807L338.542 398.512L338.477 398.446L338.151 398.707H338.085L338.02 398.577H337.955L338.085 398.316L338.151 398.186L338.085 398.055L338.02 397.99H337.825L337.564 398.186L337.433 398.12L337.368 398.055L337.433 397.99H337.694V397.86V397.794L337.107 397.403H337.042L336.977 397.468V397.599L337.107 397.729L337.042 397.794H336.977L336.847 397.729H336.586L336.455 397.468L336.325 397.273H336.26H336.06L335.603 397.338L335.473 397.273L335.408 397.077L335.473 396.882L335.408 396.817L335.342 396.751H335.082L334.821 396.355L334.756 396.225L334.69 395.964L334.56 395.834H334.43L334.234 395.769L334.169 395.573H334.038L333.973 395.638L333.843 395.769L333.708 395.703L333.512 395.573L333.317 395.834L333.121 395.899L332.925 396.029H332.86L332.143 396.29L331.16 396.686H331.095L330.965 396.751H330.834L330.704 396.621L330.574 396.421L330.508 396.355L330.182 396.16L329.922 396.095V396.16L329.465 396.095L329.27 396.16L328.874 396.095L328.352 396.029H328.157H328.091H327.831L327.635 396.095H327.505L327.309 396.225L327.244 396.355L327.048 396.421L325.74 396.355L325.609 396.421H325.544L324.631 396.355L323.844 396.421H322.997H322.41H322.084H321.753H321.688H321.558H320.384H319.336L319.01 396.355L318.684 396.421H317.771H315.68H315.094H314.768L314.241 396.355L314.176 396.42H312.481H312.02H311.368H311.042H309.864L309.473 396.49L309.407 396.42H308.364H307.908H307.251L307.316 396.16L307.056 396.029V395.964L307.186 395.899L307.316 395.768L307.382 395.703L307.447 395.638V395.573L307.251 395.377L307.316 395.182L307.121 395.116L306.99 394.725H306.925L306.795 394.856H306.73V394.725H306.599L306.534 394.66V394.53L306.404 394.399L306.273 394.269H306.208L306.078 394.399L305.947 394.334L305.882 394.464L305.752 394.53H305.686H305.621L305.556 394.464L305.491 394.53H305.426H305.36L305.295 394.464V394.399H305.23L305.16 394.464H305.095L305.03 394.334L304.965 394.269V394.204H305.03L305.095 394.269H305.16V394.138L305.095 394.069H304.965L304.769 394.204V394.138L304.443 394.069L303.661 394.269L303.4 394.399L303.465 394.53L303.4 394.595L303.465 394.725L303.269 394.66V394.725H303.139L303.074 394.856L302.943 394.921L302.878 394.986V395.051L302.808 394.921L302.743 394.856L302.678 394.79H302.613L302.482 394.856L302.417 394.79L302.287 394.986H302.156L302.091 395.051L301.961 394.986L301.896 395.051L301.83 394.986L301.765 394.79H301.7V394.856H301.57L301.504 394.79H301.374H301.178H301.048H300.983H300.918H300.722L300.461 394.921L300.261 394.856L300 394.921L299.87 394.856L299.674 394.66L299.348 394.725H299.283V394.79L299.413 394.856L298.957 395.051H298.761L298.696 394.921L298.566 394.856H298.501L298.435 394.921V395.182H298.37H298.305H298.175H298.109L298.039 395.051H297.909L297.779 394.986H297.453L297.387 394.921V394.725L297.257 394.595V394.725L297.192 394.79L296.996 394.856L296.866 394.79H296.736V394.856V394.921L296.67 394.986L296.344 395.182L295.823 395.312H295.622H295.557L295.492 395.182H295.231L295.166 395.116L295.101 395.182H294.97L294.514 394.921L294.253 394.856L294.188 394.986H293.927L293.205 394.856L293.01 394.725L292.945 394.66H292.879H292.684H292.423L292.358 394.595V394.464V394.399L292.162 394.334L291.51 394.66H291.184L290.658 394.53H290.397L290.071 394.66H289.876L289.615 394.725L289.028 394.66L288.306 394.464L288.111 394.399L287.524 394.334L287.067 394.204H286.937H286.741H286.415H286.22L286.085 394.464L286.02 394.53V394.595L285.759 394.66L285.563 394.595H285.498L285.433 394.725H285.172L284.846 394.595L284.781 394.53L284.716 394.334L284.585 394.204L284.455 394.138L284.39 394.204L283.998 394.138L283.803 394.069H283.733H283.668L283.537 394.269H283.342H283.277L283.081 394.069L282.755 393.873L282.69 393.938L282.429 394.138H282.168L281.973 394.069L281.907 394.138H281.777L281.712 394.003H281.516H281.251H281.186L281.12 394.069H281.055H280.99L280.794 394.003L280.599 393.938L280.468 393.873L280.403 394.003V394.069H280.208L280.142 394.003H280.012H279.882L279.751 393.873L279.556 394.003L279.49 393.938L279.425 394.003H279.164L279.099 393.938H279.034L278.964 394.003L278.769 394.069H278.703L278.508 393.938H278.443L278.377 394.069H278.312L278.247 394.138L278.117 394.069L277.986 394.003H277.921L277.791 394.138L277.595 394.069H277.399H277.334L277.269 394.269H277.139H277.073V394.138H276.943L276.813 394.204L276.682 394.069L276.547 394.003H276.482L276.417 394.069V394.204L276.221 394.138H275.96L275.83 394.069H275.765L275.7 394.138H275.634L275.569 394.269L275.439 394.204H275.178L274.982 394.269H274.917V394.069L274.787 393.938L274.852 393.808V393.743H274.722L274.591 393.808H274.526L274.33 393.612L274.13 393.547L274 393.482L273.869 393.221H273.804L273.674 393.286L273.348 393.351H273.217L273.152 393.286L272.891 393.417L272.761 393.547H272.696L272.631 393.612L272.37 393.547L272.044 393.743L271.979 393.677L271.848 393.612L271.583 393.482H271.322L271.126 393.547L270.931 393.482L270.8 393.677L270.735 393.743H270.67L270.54 393.677L270.474 393.743H270.344L270.279 393.677L270.148 393.612L270.018 393.677L269.822 393.612L269.692 393.677L269.627 393.743L269.427 393.808L269.166 393.612H268.84H268.709L268.775 393.743L268.84 393.808L268.709 393.873H268.579L268.449 393.743L268.318 393.677V393.743L268.123 393.808L267.927 393.743L267.471 393.612L267.275 393.743H267.145L267.01 393.873L266.879 393.938V394.003L267.079 394.069V394.204H267.145V394.269L267.079 394.399V394.464H267.145V394.53L267.01 394.725L266.879 394.79L266.814 394.921L266.749 395.116L266.553 395.247L266.618 395.312L266.749 395.377L266.684 395.442V395.573V395.638L266.618 395.703L266.684 395.768L266.749 395.834L266.618 396.029L266.553 396.094L266.618 396.225L266.749 396.355H266.292H264.462H264.006L263.549 396.225L263.289 396.094H263.093L262.767 396.355H261.98L260.48 396.355H260.089H259.367H258.52H257.211H256.755H254.142H252.377H251.79H251.66H251.529H250.877H249.308H248.852H246.891H246.565H246.239H246.174L245.322 396.421L244.735 396.355H244.474H243.626H242.513L242.448 396.421H242.383L241.992 396.686L241.861 396.556L241.796 396.355H241.731H241.601H241.47H241.405L241.144 396.621L241.014 396.686L240.949 396.621L240.813 396.556H240.748H240.683L240.487 396.621H239.901L239.705 396.556L239.575 396.355L239.51 396.225L239.444 396.29L239.379 396.556L239.249 396.621L239.053 396.556L238.923 396.49L238.396 396.29H238.331L238.201 396.355L238.07 396.29L237.679 396.029L237.288 395.964H237.158L237.092 395.899L236.897 395.834H236.766L236.571 396.029L236.506 395.964L236.441 395.899L236.375 395.573L236.31 395.508L236.245 395.377H236.115L235.979 395.182H235.914L235.719 395.117L235.653 394.986L235.327 394.856H235.262L235.132 394.595L234.871 393.938V393.743L234.936 393.482V393.156L234.806 392.96L234.675 392.765L234.741 392.634V392.504L234.806 392.243V391.852L234.675 391.195V391.065L234.871 390.869V390.739V390.674L234.806 390.283L234.871 390.087L234.675 389.435L234.806 389.169L234.741 388.713L234.806 388.126L234.936 387.931L235.001 387.67L235.067 387.409V387.148L235.132 387.083L235.197 386.492V386.426L235.262 386.361L235.327 385.774L235.523 385.449L235.588 385.318L235.523 385.122V384.992L235.849 384.666L235.914 384.27L235.849 383.944L235.914 383.814L236.045 383.553L236.115 383.357L236.18 383.292L236.245 383.227L236.115 382.836L235.979 382.445L236.045 381.984L236.18 381.592H236.245H236.31V381.462L236.375 381.201L236.31 380.81L236.375 380.614V380.484L236.441 380.419V380.288L236.506 380.158L236.571 379.832L236.636 379.632L236.897 379.306L236.962 379.241L237.418 378.849L237.484 378.654L237.549 378.589L237.614 378.393L237.549 378.263L237.614 378.067L237.679 377.937L237.744 377.871L237.679 377.545L237.81 377.48H237.875V377.345L237.81 377.019L237.614 376.693L237.223 375.911L236.897 375.128L236.832 374.928V374.863L237.092 374.993L236.962 374.798L236.832 374.733L236.766 374.537L236.571 374.211L236.441 374.015L236.31 373.689L236.375 373.559L236.31 373.494L236.245 373.168L236.115 372.777L235.979 372.646L235.784 372.381L235.588 372.185L235.458 372.055L235.262 371.664L234.871 371.338V371.272L234.61 370.946L234.219 370.555L233.828 370.094L233.106 369.377H233.041L232.845 369.181L232.584 368.921H232.519L232.389 368.855L232.193 368.66L231.867 368.464L231.276 367.943H231.145L231.015 367.808L230.885 367.612L230.819 367.677L230.754 367.612L230.689 367.547V367.482L230.754 367.416L230.819 367.547L230.95 367.221L231.015 367.025L231.08 366.96L231.015 366.895L230.95 366.764H230.819V366.634V366.438L230.885 366.047H230.95V366.308L231.015 366.178L231.145 366.243H231.346V366.178V366.112H231.08V366.047L231.211 365.982L231.015 365.721V365.591L230.95 365.721V365.656L230.885 365.195L230.363 364.282L229.907 363.5L229.581 362.974L228.929 362.191V362.126H228.994H229.059L229.32 362.387V362.452L229.385 362.387L229.45 362.452L229.646 362.582L229.776 362.517V362.452L229.907 362.322L230.037 362.191V361.93V361.67L230.167 361.344L230.298 361.083H230.363L230.493 361.018H230.559L230.754 361.148L231.015 361.278V361.409L231.211 361.474L231.276 361.539V361.604V361.735L231.476 361.67L231.672 361.996L231.737 362.061L231.932 361.93V361.8L231.867 361.735L231.932 361.539V361.409L232.063 361.344L232.193 361.278L232.454 361.344L232.519 361.083L232.389 361.018L232.128 360.757V360.687V360.622L231.998 360.557L231.932 360.491L231.867 360.426L231.737 360.296L231.672 360.165L231.737 360.1L231.802 360.035L231.998 360.1L232.063 360.035L232.128 359.839L232.063 359.709L231.932 359.644L231.867 359.579H231.346L231.211 359.513L231.08 359.579H230.95H230.885H230.819L230.754 359.513L230.689 359.383L230.624 359.057V358.927H230.754V358.992L230.819 358.927V358.796L230.95 358.405L231.276 357.944H231.346L231.541 358.009L231.606 357.944V357.683V357.553L231.672 357.488H231.802L231.932 357.162L232.258 356.836L232.389 356.77V356.64L232.519 356.444V356.379L232.193 356.51H232.128L232.258 356.314H232.193H232.063V356.249L232.193 355.918L232.128 355.788L231.998 356.184L231.867 356.379V356.51V356.64L231.998 356.836V356.901L231.672 356.966L231.476 357.031H231.211V357.096V357.162L231.015 357.357L230.95 357.422L230.819 357.683L230.559 357.618L230.493 357.683L230.624 357.814H230.559L230.363 357.879L230.167 358.009L229.907 358.14H229.776L229.515 358.074L229.385 357.944L229.32 358.009L229.124 357.944L228.794 357.814V357.748L228.663 357.683L228.533 357.748L228.402 357.944L228.468 358.009L228.598 358.27V358.47L228.728 358.927L228.663 359.122L228.533 359.253L228.468 359.187H228.337L228.011 359.253H227.946L227.62 358.992V358.927L227.49 358.796L227.359 358.666L227.294 358.601L227.229 358.535H227.164H227.033L226.968 358.601L227.098 358.796V358.861L227.164 358.927L227.229 359.057L227.164 359.318V359.448L227.098 359.513H227.033L227.098 359.644H227.229L227.164 359.709L227.229 359.97L227.49 360.231L226.968 360.491L226.507 360.687L226.311 360.757H226.051L225.659 360.622L225.464 360.557L225.073 360.426L224.355 359.905L224.16 359.709L223.634 358.992L223.568 358.927V358.992H223.503L223.373 358.927H223.242H223.177L223.308 359.057L223.242 359.187L223.112 359.122L222.916 359.318V359.383V359.448V359.513H222.851L222.786 359.579H222.525V359.383L222.46 359.253H222.33H222.264H222.199L222.134 359.383V359.448H222.069V359.383L222.004 359.318V359.187V359.122V358.992L222.069 358.796V358.731L221.873 358.535L221.938 358.47L222.004 358.535L222.069 358.47V358.405L221.938 358.27L222.004 358.14V358.074L221.738 358.009H221.412H221.282H221.151L221.086 358.074H221.021H220.76L220.695 357.944H220.565H220.434L220.304 358.074H220.173L220.108 358.009V357.944L219.978 358.009L219.782 357.879L219.652 357.683L219.06 357.292L218.93 357.227L218.8 357.162L218.278 356.966L218.148 356.836H218.082L217.952 356.901L217.822 356.836V356.705L217.626 356.575L217.43 356.379L217.3 356.249H217.104V356.184L217.17 356.118L217.235 356.053L217.3 355.853L217.365 355.788L217.3 355.592L217.365 355.005L217.43 354.81L217.496 354.679L217.561 354.484V354.419L217.496 354.288V354.223V354.093L217.3 353.897L217.235 353.636L217.104 353.501L216.904 353.305L216.839 353.24L216.643 353.11L216.383 353.045L216.187 352.914H216.122L215.991 352.719L215.796 352.393L215.665 352.328L215.6 352.262V352.197L215.665 351.936L215.731 351.676L215.665 351.545L215.47 351.284L215.405 351.019L215.339 350.758L215.274 350.628L215.339 350.367L215.274 350.041L215.079 349.78V349.585L215.144 349.454L215.079 349.389V349.259V349.063L215.209 348.867L215.339 348.802H215.47V348.667L215.339 348.602L215.274 348.406V348.341H215.339L215.665 347.95L215.47 347.754H215.405L215.209 347.689L215.079 347.428L214.818 347.233L214.687 347.363H214.622L214.487 347.233L214.226 347.102L214.161 346.907V346.842H214.226V346.776H214.096L214.031 346.842V346.776L213.9 346.646H213.64L213.379 346.776V346.907L213.314 346.972L213.248 347.037L213.118 347.167H212.988L212.922 347.233L212.727 347.298L212.336 346.842L212.27 346.776L212.201 346.646L212.07 346.581H211.94L211.679 346.45L211.418 346.25L211.288 346.185L211.418 346.12V346.054L211.288 345.859L211.223 345.402V345.337L211.418 345.402L211.157 345.207L211.092 345.011L210.831 344.685L210.897 344.62L210.766 344.424V344.294L210.505 344.229V344.164V344.033H210.375L210.245 343.963L210.179 343.703L210.114 343.311L209.984 343.246L209.919 343.442V343.637V343.963V344.033L210.245 344.359L210.375 344.62L210.505 345.337V345.859V346.054L210.571 346.38V346.45L210.701 346.581L210.766 346.646V346.907H210.831L210.962 346.972H211.092L211.353 347.298V347.363L211.418 347.559L211.353 347.624H211.483L211.549 347.689V347.754L211.288 348.08L211.092 348.145L210.897 348.211H210.766L210.701 348.276L210.375 348.145H209.853L209.588 348.08L209.197 348.145L209.066 348.08L208.675 348.211H208.48L208.284 348.145L208.219 348.08L208.023 347.95H207.697L207.632 347.885H207.432H207.367L207.236 347.754L207.171 347.624L207.041 346.776L206.975 346.646V346.581H207.106H207.367L207.502 346.646V346.581H207.632V346.45V346.315V346.25V346.185L207.502 345.989L207.432 345.924L207.367 345.794L207.106 345.468L207.171 345.142L207.301 344.946L207.367 344.816L207.432 344.555V344.359L207.567 344.424H207.893L208.023 344.359L208.088 344.294V344.229L208.219 344.033V343.963L208.284 344.033L208.349 343.898L208.284 343.833H208.414H208.48V343.703L208.284 343.507L208.219 343.311L208.154 343.181L208.219 343.051V342.92H208.088L208.023 342.985L207.958 343.051H207.697L207.632 342.529L207.762 342.203L207.958 341.681L208.023 341.416H208.088L208.284 341.22L208.414 341.155L208.545 341.22L208.61 341.416L208.806 341.481H209.001L209.132 341.416L209.523 341.155L209.784 340.96V340.634L209.718 340.503L209.392 340.242L209.327 340.112L209.262 339.916L209.327 339.786L209.392 339.656L209.458 339.59L209.653 339.33L209.784 339.264L210.245 339.195L210.31 339.064L210.375 338.934L210.245 338.673V338.608V338.477H210.44L210.636 338.347L210.701 338.282L210.571 338.151L210.701 338.086L210.897 337.891V337.76L210.962 337.695H211.092L211.157 337.63H211.223L211.288 337.565L211.157 337.434H210.962L210.897 337.369V337.304L211.223 336.978L211.288 336.913H211.353V336.843L211.288 336.712L211.483 336.647L211.549 336.582L211.483 336.386L211.549 336.256L211.614 336.126L211.744 335.8L211.94 335.669L212.07 335.539L212.201 335.474V335.343V335.213L212.662 335.082L212.857 334.952L213.053 334.626L213.183 334.426V334.295L213.248 334.23L213.379 334.035L213.509 333.774L213.705 333.513V333.317L213.77 332.796L213.705 332.47V332.274V331.878L213.64 331.292L213.835 330.705L213.966 330.314L214.161 329.396L214.292 329.266L214.226 329.07V328.875L214.292 328.679V328.549L214.161 328.223L214.226 327.962L214.292 327.831L214.552 327.505L214.622 327.44L214.687 327.11L214.753 326.849L214.818 326.718L214.948 326.458L215.274 326.066L215.339 325.74L215.535 325.48L215.6 325.349V325.023L215.47 324.758L215.339 324.562L215.144 324.367L214.948 324.236L214.687 323.975L214.622 323.78L214.422 323.454L214.096 323.323L214.031 323.128L213.835 322.997L213.77 322.867V322.606L213.705 322.471L213.77 322.341L213.9 322.536H213.966L214.422 321.884L214.622 321.689V321.558L214.422 321.428L214.487 321.298V321.232L214.753 321.102L214.818 320.972V320.776V320.711L214.753 320.646L214.487 320.58L214.357 320.45L214.226 320.189L214.292 320.119L214.422 320.054L214.687 319.663L215.274 319.337L215.6 318.75L215.796 318.62L216.187 318.489L216.904 317.903L217.104 317.768L217.235 317.637L217.43 317.572L217.561 317.442L218.343 316.724L218.474 316.659L218.93 316.203L219.06 316.072L219.717 315.486H219.782L220.369 314.959L220.695 314.633L220.891 314.177L221.021 313.786L221.282 313.525L221.412 313.395L222.004 312.933L222.33 312.803H222.59L222.721 312.738L222.851 312.673H223.112L223.503 312.021L223.568 311.76L223.699 311.63L224.025 310.978L224.225 310.782H224.355L224.421 310.717V310.652L224.29 310.582L224.355 310.516H224.486L224.616 310.451L224.681 310.256L224.616 310.19L224.681 309.995L224.616 309.864V309.734L224.747 309.669V309.278L224.877 309.147H224.942L225.203 309.278L225.464 309.408H225.594L225.725 309.538L226.377 309.864L226.577 309.93L226.903 308.952V308.821V308.626V308.561L226.968 308.495L227.033 308.23L227.164 307.969V307.839L227.098 307.708L227.229 307.513L227.164 307.447L227.229 307.382L227.294 307.121L227.424 307.056L228.011 307.187L228.272 307.252H228.533L228.859 307.187L229.385 306.861L229.776 306.665V306.6L229.841 306.535L229.776 306.339V306.209V306.078V305.883L229.907 305.748L230.037 305.487V305.422H230.167L230.233 305.487H230.363L230.559 305.552L230.754 305.682L230.885 305.552H230.95H231.145V305.422L231.276 305.617L231.346 305.682L231.476 305.813V305.883L231.672 305.748H231.737L231.867 305.813L231.932 305.748H231.998L232.063 305.813H232.193L232.258 305.748H232.324V305.682L232.389 305.552L232.519 304.835V304.77L232.65 304.574L232.78 303.922L233.041 303.531V303.331L233.106 303.135L233.171 302.939V302.874H233.302L233.367 302.809V302.613L233.302 302.548L233.432 302.483L233.302 302.092L233.432 302.027L233.302 301.766L233.432 301.57V301.179L233.497 301.044L233.698 300.848L233.763 300.783L233.698 300.718L233.628 300.588L233.698 300.392L233.763 300.131L233.828 300.066L233.893 299.87L234.023 300.001H234.154V300.066H234.284H234.349H234.415V300.001H234.48L234.61 300.131H234.741H235.458L235.653 300.327H235.719L235.914 300.392L236.18 300.131L236.375 299.87L236.701 299.479L236.832 299.414L237.288 298.958L237.484 298.827V298.762L237.875 298.236L238.396 297.714L238.466 297.649H238.662L238.923 297.258L239.314 296.932L239.575 296.736L239.966 296.345H240.031L240.096 296.275L240.292 296.08L240.883 295.623L241.014 295.428L241.209 295.232L241.275 295.167L241.666 294.776H241.796L241.927 294.906V295.036V295.167H241.992H242.122V295.232L242.187 295.297L242.057 295.428L241.992 295.558L242.057 295.623V295.754L242.122 295.819H242.187V296.145L242.253 296.21L242.187 296.541V296.736L242.057 296.671V296.867L242.839 297.779L242.97 297.845L244.083 297.779L245.582 297.649L245.783 297.584H245.978H246.109H246.174L246.565 297.519H246.695L247.413 297.453H247.478L248.265 297.388L248.591 297.714H248.721L248.786 297.649V297.453L248.917 297.388L248.982 297.323L249.178 297.258L249.438 297.193L249.569 296.997L249.764 296.867V296.41L249.83 296.21L249.96 296.08V295.949L250.025 295.754V295.623L250.221 294.776L250.156 294.515L250.221 294.254V293.793H250.286V293.728L250.221 293.597L250.286 293.141V292.75L250.351 292.293L250.421 292.228L250.617 292.293L250.682 292.489L250.877 292.554L251.008 292.685V293.076L251.138 293.402V293.597L250.943 294.058L251.595 294.58H251.725L252.051 294.71H252.181L252.247 294.58L252.638 294.776L252.703 294.841V295.102L252.773 295.297H253.034L253.099 295.428L253.294 295.623L253.49 295.819H253.751H253.881L254.012 296.145L254.077 296.275L254.338 296.41L254.468 296.606L254.533 296.541V296.41L254.664 296.345H254.794H254.859L254.924 296.475H254.99L255.12 296.41H255.19L255.32 296.606L255.451 296.736H255.581L255.972 296.932L256.037 296.997L256.103 297.127L255.581 298.236L255.646 298.431L255.516 298.497V298.627L255.581 298.762L255.516 298.827V298.892L255.711 299.153V299.284L255.842 299.414L255.972 299.61H256.103L256.168 299.675H256.233L256.363 299.61L256.755 299.87L257.015 300.457L257.146 300.588V300.653H257.276V300.457H257.341H257.407L257.542 300.653V300.783L257.472 301.044L257.607 301.701L257.672 301.766L258.259 302.222V302.092H258.324L258.715 302.222L258.78 302.157V302.092H258.911V302.157H259.106H259.172H259.237L259.432 302.027L259.432 302.027L259.824 301.701L259.824 301.701L260.024 301.44H260.089H260.154L260.22 301.505L260.48 301.57H260.611L260.741 301.505H260.806L260.872 301.57L261.132 301.896L261.263 302.092L261.458 302.222V302.353L261.393 302.939V303.596V304.378L261.328 305.03L261.393 305.161L261.589 305.226H261.849H261.98H262.11L262.175 305.161L262.311 304.9L262.506 304.77L262.702 304.704L262.897 304.835L263.093 305.03L263.158 305.096V305.161L263.354 305.226H263.419L263.615 305.291H263.875L264.201 305.356L264.332 305.552L264.397 305.617L264.527 305.487H264.728L264.988 305.291H265.184L265.38 305.356L265.771 305.617L265.966 305.813H266.032L266.162 305.948L266.684 306.013V305.883V305.748L266.749 305.552L266.879 305.487H267.145H267.405L267.666 305.422H268.253L268.123 305.226L268.253 305.096L268.318 304.509L268.188 304.183L268.253 304.118L268.318 303.987H268.449H268.514L268.775 303.922L268.97 303.726L269.231 303.987L269.361 304.052L269.562 303.987L269.692 303.857L269.822 303.922L269.953 303.792L270.148 303.726L270.279 303.596L270.214 303.396L270.344 303.135L270.54 302.939V302.874L270.67 302.744H270.735L270.866 302.613V302.548V302.353L270.931 302.222L270.8 301.961L270.931 301.701V301.57L271.061 301.375L271.257 301.309L271.518 301.179H271.583V301.044V300.783L271.387 300.522L271.322 300.392L271.257 300.327L271.322 300.196L271.452 299.936L271.848 299.805L271.778 299.675V299.479L271.452 299.414V299.284L271.518 299.088L271.452 298.827L271.387 298.762L271.257 298.692H270.931V298.562L270.996 298.366L271.126 298.236L271.192 297.91L271.387 297.649L271.583 297.519L271.848 297.453L272.109 297.388L272.239 297.193L272.305 296.736L272.37 296.606V296.21L272.5 295.949L272.631 295.884L272.826 295.819H273.152V295.688L273.348 295.623L273.543 295.428L273.674 295.167L273.869 295.036L274.065 294.971L274.195 294.906V294.45L274.265 294.384H274.591L274.656 294.319L274.852 294.384H274.917H274.982L275.178 294.189H275.374L276.091 294.384L276.547 294.319L276.617 294.254L276.813 294.189L276.878 294.058L276.943 293.993L277.008 293.793L276.943 293.662V293.597L276.878 293.532L276.547 292.945L276.352 292.359L276.221 291.837L276.156 291.18V291.115L276.091 290.985L276.026 290.659V290.267L276.091 289.811L276.221 289.355L276.352 288.828L276.482 288.763V288.633L276.617 288.437L276.747 288.176L277.008 287.85L277.856 286.938L277.921 286.872L277.986 286.737L278.051 286.672L278.117 286.607L278.573 286.151L278.834 285.825L279.164 285.433L279.36 285.303L279.556 285.238L280.012 285.173L280.142 285.107L280.273 285.042H280.403L280.99 284.716L280.86 284.386L280.794 284.125L280.729 283.603L280.664 283.016L280.599 282.299L280.534 282.038L280.599 281.903L280.729 281.773L280.794 281.708L280.925 281.512V281.251V280.925L280.99 280.534L281.055 280.339L281.12 280.143L281.316 280.013L281.451 279.817V279.552L281.581 279.421V279.16L281.712 278.965L281.907 278.769L282.103 278.313L282.168 278.182L282.559 277.791L282.951 277.53L283.081 277.335L283.342 277.135L283.537 276.743L283.603 276.678L283.733 276.352L283.868 276.222L283.933 276.157L284.064 276.026L284.129 275.961L284.259 275.896L284.324 275.57L284.585 275.374L284.716 274.983L284.781 274.718L284.716 274.652H284.781L284.716 274.392L284.65 274.196V274V273.74V273.348L284.52 273.153L284.455 272.892L284.52 272.762L284.585 272.501L284.781 272.17L284.976 271.975L285.172 271.714L285.302 271.388L285.498 271.192H285.563V270.866L285.498 270.079L285.368 268.906L285.172 268.123L285.107 267.928L284.976 267.467L284.911 267.271L284.846 267.141V266.945L284.976 266.228L285.107 265.771L285.237 265.641L285.368 265.511H285.563H285.759L286.02 265.38L286.155 265.31L286.481 265.05L286.611 264.984H286.807L287.198 265.115H287.459L287.524 265.05L287.589 264.919L287.85 264.789H287.915H288.176H288.437L288.637 264.724L288.767 264.658L288.898 264.398L289.224 263.941L289.289 263.746L289.354 263.485V263.159H289.419L289.484 262.963L289.615 262.763L289.745 262.698L289.81 262.633L289.876 262.567L289.941 262.437V262.176V262.046V261.981L290.071 261.85L290.202 261.785L290.267 261.72L290.528 261.785L291.054 261.915L291.315 261.981L291.771 262.111L291.967 262.176L292.162 262.307H292.358L292.423 262.241L292.684 262.046L293.271 261.655L293.601 261.329H293.797L294.058 261.394H294.188L294.318 261.263L294.384 261.198L294.514 261.068L294.579 260.742L294.644 260.677L294.97 260.411L295.036 260.216V259.89V259.498L295.101 259.303L295.231 259.107L295.362 259.042L295.492 258.977H295.622L295.758 258.912H295.953L296.214 258.977L296.279 259.042L296.54 258.977L296.67 258.912L296.866 258.651L297.061 258.26V258.194L296.996 257.864L296.801 257.407L296.736 257.277L296.605 257.081V256.951L296.67 256.755L296.801 256.429L296.866 256.234V256.169L296.801 256.103L296.67 255.908V255.577L296.801 255.381H296.931L297.257 254.99L297.518 254.795L297.779 254.404L297.844 254.273L297.974 254.078L298.109 253.817L298.435 253.356L298.501 253.225V253.095V252.964L298.37 252.769L298.435 252.508L298.566 252.312L298.696 252.117V251.856L298.631 251.66L298.696 251.53L298.761 251.465V251.269L298.696 251.139V251.074L298.631 250.873L298.501 250.808V250.743V250.547L298.631 250.221L298.566 250.091L298.631 249.961L298.696 249.7L298.761 249.569H298.696L298.761 249.439V249.243L299.022 249.048V248.657V248.326L298.957 248.196V247.87L299.022 247.413L298.957 247.087L299.022 246.826V246.5L298.957 246.435L298.827 246.37H298.175L298.039 246.305V246.17V245.974L297.974 245.844L298.175 245.713V245.648H298.37L298.501 245.518L298.957 245.257L299.283 245.192L299.544 244.996L299.609 244.801L299.805 244.605L300.13 244.409L300.461 244.149L300.526 244.018H300.657L300.852 243.953H300.983H301.113L301.439 243.622L301.961 243.296L302.026 243.231H302.091H302.287L302.482 243.166H302.548H302.943L303.204 243.036L303.465 243.101H303.791V243.036H303.921H304.052L304.117 242.97L304.378 242.905L304.639 242.97L304.704 242.905H304.769L304.965 242.84L305.16 242.644L305.23 242.579L305.295 242.514L305.491 242.579L305.621 242.514L305.752 242.318L305.817 242.123L305.947 241.992V241.732L306.012 241.601L306.143 241.466L306.208 241.271L306.143 241.205L306.078 241.075V240.945V240.879L306.012 240.749L306.078 240.684L306.143 240.553V240.488L306.012 240.293L306.078 240.227V240.097L306.208 239.967L306.338 239.901L306.404 239.836L306.273 239.445L306.338 239.249L306.404 239.184L306.469 239.049V238.788L306.534 238.462V238.267L306.599 238.136L306.73 237.941L306.925 237.81L307.056 237.484L307.251 237.224L307.186 237.158V237.093L307.121 236.832L306.925 236.697L306.73 236.567L306.599 236.437H306.404L306.143 236.306L306.012 236.241L305.947 236.176L305.882 235.85L305.817 235.785L305.752 235.719L305.817 235.654L305.752 235.459V235.328V235.133L305.817 235.067L305.947 234.937L306.273 234.741L306.404 234.676L306.599 234.28L306.73 233.954L306.795 233.759V233.628V233.563L306.73 233.498L306.534 233.368L306.404 233.302L306.273 232.976L306.208 232.846V232.65L306.273 232.455L306.795 231.929L306.99 231.537L307.186 231.342L307.512 230.82L307.577 230.69H307.647L307.777 230.625L307.908 230.559H308.038L308.429 230.625L308.625 230.559L309.016 230.364L309.342 230.299H309.603L309.733 230.233L309.864 229.842L309.999 229.581L310.064 229.446L310.26 229.381L310.52 229.186L310.651 229.12L310.716 228.86V228.664V228.403L310.651 228.208L310.716 228.077L310.912 227.816L311.172 227.556L311.238 227.425L311.368 227.23L311.564 226.964L311.694 226.573V226.182L311.629 225.725V225.465L311.694 225.204L311.955 224.878V224.482L311.89 224.091V223.7L312.02 223.504V223.374L312.15 223.178L312.346 223.048L312.546 222.787L312.611 222.461L312.546 222.195L312.481 222L312.346 221.869L312.216 221.478V221.283V221.087L312.085 220.761V220.631V220.5L312.15 220.305L312.281 219.648L312.416 219.257H312.481L312.546 219.192L312.742 219.061L313.068 218.8L313.198 218.605H313.263L313.329 218.474L313.459 218.214L313.524 218.018L313.589 217.622L313.72 217.035L313.785 216.84L313.981 216.644L314.176 216.253V216.253V216.188L314.176 216.188V216.188L314.306 216.123V215.992L314.307 215.992L314.372 215.862L314.372 215.862L314.567 215.666L314.567 215.666H314.633L314.768 215.601L314.898 215.406L314.898 215.405L315.094 215.075L315.094 215.075L315.224 214.684L315.224 214.683L315.354 214.488L315.354 214.488L315.42 214.227V213.901V213.641L315.42 213.64L315.485 213.315L315.485 213.314L315.55 212.788L315.55 212.788H315.615L315.811 212.593L315.811 212.592L315.876 212.527V212.583L316.267 212.528L316.593 212.397L317.049 212.071H317.185L317.315 212.006L317.38 212.071L317.511 212.006L317.576 211.941L317.706 211.876V211.745V211.55L317.771 211.419H317.837L317.967 211.289L318.032 211.158V211.028L318.097 210.898L318.358 210.572L318.489 210.506L318.554 210.436L318.684 210.306H318.815L318.88 210.176L318.945 210.045L319.075 209.784L319.271 209.654L319.467 209.589V209.459L319.401 209.263V209.067L319.467 209.002L319.602 208.937L319.862 208.741L320.058 208.546V208.481L320.123 208.415V208.22L320.188 208.155L320.319 208.085V208.019V207.693L320.384 207.498L320.645 207.237L320.71 207.172L320.906 206.976L321.101 206.715L321.166 206.52L321.297 205.933L321.362 205.803L321.492 205.738L321.558 205.668L321.688 205.602L321.818 205.668L322.214 205.933H322.475L322.671 205.998L323.062 206.064L323.192 206.129L323.388 206.324L323.518 206.52L323.714 206.715L323.975 206.846L324.17 206.911H324.37H324.566L324.762 206.846L324.827 206.781L325.153 206.715L325.74 206.455L326 206.39L326.066 206.324L326.261 206.194L326.522 205.868L326.722 205.668L326.918 205.342L327.048 205.211L327.505 204.95L328.026 204.624L328.417 204.494L328.678 204.298L329.004 204.168L329.4 204.103L329.596 204.038L329.791 203.972L330.117 203.777L330.574 203.647L330.704 203.581H330.769L330.965 203.386L331.16 203.055L331.226 202.664L331.291 202.533H331.356L331.621 202.403L332.078 202.338H332.404L332.599 202.273L332.991 202.077L333.908 201.686L334.104 201.621L334.56 201.49L334.756 201.425L335.016 201.229L335.212 201.099L335.277 200.834L335.212 200.508L335.277 200.051L335.408 199.53L335.342 199.464V199.269L335.277 199.008V198.812L335.147 198.682L335.082 198.547L334.951 198.417L334.756 198.351L334.625 198.156L334.56 198.091L334.299 197.895L333.843 197.699L333.643 197.504L333.512 197.243L333.447 197.178V196.982L333.512 196.917L333.773 196.787L333.908 196.591L334.104 196.461L334.299 196.395L334.364 196.265L334.43 196.2L334.56 196L334.625 195.869L334.56 195.543V195.282L334.625 195.022L334.56 194.761V194.63V194.565L334.69 194.304H334.625L334.56 194.174V194.109V193.978L334.886 193.648L334.951 193.452L335.016 193.517L335.082 193.387L335.147 193.257H335.277L335.342 193.191V193.126L335.277 192.996L335.212 192.8V192.735L335.408 192.409L335.473 192.344L335.603 192.213L335.668 192.148L335.603 192.018L335.408 191.887V191.822V191.757L335.212 191.431L335.082 191.166L335.016 191.035L334.886 190.84V190.644L334.951 190.514V190.383L335.147 190.122L335.408 190.057L335.473 189.992V189.862L335.277 189.601V189.405V189.34L335.342 189.275L335.538 189.009L335.603 188.814V188.553L335.668 188.423L336.06 188.097L336.125 187.966L336.06 187.771L335.994 187.575L335.734 187.51L335.799 187.379L335.668 187.184L335.473 187.314L335.342 187.249V187.379H335.277V187.314L335.147 187.379L335.082 187.445V187.51H335.016H334.886L334.821 187.379H334.756L334.495 187.314V187.249L334.625 187.184L334.495 186.923L334.364 186.793V186.727V186.662L334.169 186.592H333.908L333.843 186.527L333.512 186.462L333.382 186.397L333.447 186.266L333.577 186.201V186.136L333.643 185.94H333.577L333.447 186.071L333.382 185.875L333.317 185.745L333.382 185.549V185.484L333.317 185.419L333.186 185.288H332.991L332.925 185.158H332.86H332.665L332.599 185.093L332.665 184.962V184.897L332.599 184.832V184.767H332.86V184.702L332.73 184.506L332.469 184.441L332.339 184.376L332.208 184.241L332.078 184.175V184.045V183.98L331.947 184.045L331.882 184.11L331.752 183.915L331.687 183.849H331.491L331.421 183.915L331.356 184.045H331.291L331.226 183.784L331.095 183.719H330.965H330.834L330.704 183.784L330.443 183.719H330.378L329.922 183.849H329.791L329.596 183.719H329.4L329.27 183.784L329.139 183.719L328.809 183.523L328.678 183.589L328.483 183.719L328.352 183.849H328.222V183.784L328.091 183.589H328.026L327.961 183.654L328.091 183.849L327.961 183.98L327.831 183.654L327.765 183.589H327.635H327.439L327.179 183.654H327.113L326.722 183.719L326.587 183.784L326.522 183.719L326.457 183.523L326.392 183.458L326.261 183.393L326.066 183.263L325.805 182.871H325.74L325.479 182.806V182.741L325.609 182.611L325.544 182.48V182.415H325.674H325.805V182.285L325.935 182.35L326 182.285L325.935 182.219V182.154L326 182.089L326.066 182.024L325.935 181.959H325.87V181.893L325.674 181.959L325.609 181.893V181.628L325.544 181.432L325.609 181.302L325.805 181.172L325.87 180.846L326.066 180.78L325.935 180.585L326 180.52L325.935 180.454L325.87 180.389L325.74 180.194L325.609 179.672V179.341L325.479 178.755V178.559L325.414 178.233L325.218 177.055L325.153 176.859V176.729L325.088 176.664V176.403L325.022 176.207L324.957 175.816L324.892 175.555L324.696 174.377L324.631 173.986L324.566 173.595L324.501 173.138V173.073L324.436 172.877L324.37 172.747V172.421L324.105 171.308V171.047V170.852L324.04 170.526L323.975 170.46L323.909 170.134L323.844 169.804V169.543L323.714 168.826ZM231.015 365.526L230.95 365.391L231.015 365.325V365.391V365.526Z" fill="black"/>
</g>
<defs>
<clipPath id="clip0_751_180">
<rect width="577" height="577" rx="247" fill="white"/>
</clipPath>
</defs>
</svg>
