<svg width="635" height="675" viewBox="0 0 635 675" fill="none" xmlns="http://www.w3.org/2000/svg">
<g filter="url(#filter0_d_314_445)">
<mask id="path-1-outside-1_314_445" maskUnits="userSpaceOnUse" x="20.7148" y="-8.84205" width="620.018" height="673.316" fill="black">
<rect fill="white" x="20.7148" y="-8.84205" width="620.018" height="673.316"/>
<path fill-rule="evenodd" clip-rule="evenodd" d="M377.334 113.596C352.541 114.714 315.505 141.793 297.308 172.11C287.888 187.805 287.59 189.884 294.504 191.665C297.92 192.545 299.359 193.126 297.882 193.033C297.517 193.01 295.452 192.556 293.291 192.028C274.913 187.522 251.517 191.387 235.839 201.52C204.004 222.091 192.044 261.008 206.285 297.689L207.924 301.911L203.674 307.381C191.749 322.719 190.902 325.803 196.934 331.929C201.601 336.666 201.77 335.879 193.231 349.069C181.837 366.67 180.417 369.897 180.328 378.413C180.281 382.958 180.142 384.151 179.666 384.121C175.322 383.847 170.939 388.041 172.57 390.906C174.52 394.336 174.07 396.185 171.028 397.267C166.402 398.914 165.764 400.427 166.063 409.052C166.383 418.404 165.797 419.474 158.048 423.677C147.915 429.17 147.113 430.084 148.364 434.735C149.478 438.872 149.365 439.848 147.74 440.13C143.715 440.832 142.886 442.028 143.748 445.891C144.524 449.362 144.134 450.262 141.645 450.725C138.518 451.307 137.68 451.707 136.227 453.309C134.999 454.666 130.003 462.314 127.761 466.272C124.534 471.973 129.908 500.203 134.275 500.478C134.679 500.504 134.858 501.127 134.788 502.271C134.429 508.228 140.293 514.038 144.828 512.216C146.47 511.557 146.54 511.566 147.163 512.589C148.024 514 149.764 513.837 156.382 511.72C163.338 509.495 161.89 511.305 176.369 486.706C227.327 400.129 250.205 359.951 251.834 354.174C253.893 346.869 256.317 340.632 255.121 345.717C254.852 346.85 254.399 351.386 254.11 355.792C253.502 365.129 253.702 365.792 257.203 366.013C260.287 366.207 260.761 367.169 260.6 372.913C259.81 401.625 260.076 407.384 262.378 411.284C264.721 415.253 264.352 417.466 260.804 420.688C257.543 423.652 257.498 425.034 260.583 427.357C264.477 430.29 264.391 431.604 260.102 434.757C256.108 437.695 256.374 439.244 262.532 448.875C265.755 453.915 265.781 455.921 262.686 460.938C261.462 462.926 259.789 465.648 258.972 466.988C256.653 470.787 256.697 473.174 259.145 476.598C261.612 480.051 261.545 480.737 258.508 482.97C255.048 485.513 255.163 486.922 259.107 490.212C261.214 491.974 261.186 492.188 258.524 494.698L256.331 496.763L255.634 502.295C253.855 516.408 254.806 520.448 261.38 526.723C262.963 528.233 266.203 531.449 268.58 533.868C270.964 536.295 273.635 538.561 274.542 538.926C275.556 539.333 277.247 540.866 278.97 542.942C283.204 548.036 286.916 549.465 290 547.186C290.781 546.609 291.806 546.199 292.283 546.274C292.875 546.365 295.106 544.377 299.29 540.032L305.43 533.656L306.603 521.249C308.132 505.037 311.514 451.629 314.327 399.187C317.372 342.4 316.431 345.56 333.202 335.848C349.454 326.437 355.756 320.174 363.058 306.176C368.294 296.138 368.119 294.334 361.926 294.502C357.048 294.633 357.153 294.543 352.701 302.237C342.746 319.447 334.748 326.488 321.449 329.749C317.678 330.673 317.863 330.778 318.049 327.842L318.211 325.271L287.589 323.339C263.421 321.814 256.952 321.531 256.895 321.99C256.856 322.311 256.757 324.1 256.674 325.965C256.502 329.93 256.473 329.94 252.915 327.225C244.724 320.975 235.151 308.146 229.7 296.113C216.119 266.129 227.035 228.282 254.458 210.284C276.781 195.633 311.188 195.384 335.298 209.7C340.503 212.788 341.248 213.07 341.318 211.969C341.555 208.201 321.201 198.013 307.988 195.288C306.779 195.038 305.791 194.776 305.795 194.708C305.976 191.84 317.695 172.781 324.272 164.658C342.129 142.6 375.047 124.36 386.37 130.244C394.93 134.692 394.71 150.463 385.9 163.85C380.06 172.719 379.827 175.628 384.278 184.057C386.129 187.561 385.579 188.216 383.253 185.276C380.325 181.574 378.931 177.444 379.208 173.287L379.44 169.781L383.226 164.491C389.476 155.756 392.418 146.735 389.934 143.917C386.529 140.05 371.084 139.003 368.989 142.497C367.066 145.701 360.856 164.525 356.212 181.224C352.121 195.929 351.709 197.358 349.092 205.886C347.629 210.654 346.386 213.922 345.91 214.244C325.872 227.897 309.401 231.082 301.828 222.768C299.298 219.992 290.261 220.82 285.033 224.311C275.605 230.605 273.843 245.18 281.503 253.511C291.735 264.64 307.262 262.966 313.198 250.09C316.099 243.795 314.849 241.52 308.248 241.096C303.052 240.764 295.133 236.819 291.405 232.709C288.801 229.836 288.962 228.95 291.61 231.593C301.915 241.887 318.771 242.917 338.654 234.472C340.207 233.812 341.537 233.342 341.611 233.429C341.686 233.515 340.245 239.193 338.412 246.048C326.91 289.007 326.594 287.243 346.43 290.888C366.517 294.58 371.419 294.033 372.509 287.978C373.084 284.785 373.046 284.759 376.468 290.819C403.215 338.172 403.971 339.252 410.706 339.698C414.649 339.961 415.629 339.448 444.684 321.917C459.579 312.932 474.932 303.675 478.803 301.352C482.672 299.026 486.764 296.548 487.895 295.845C490.579 294.174 497.117 290.28 507.376 284.239C531.56 270 532.429 268.321 523.089 253.944C517.94 246.015 498.836 211.956 497.947 209.119C497.785 208.602 498.359 208.497 500.587 208.638C505.732 208.962 506.052 208.475 509.017 195.764C516.078 165.505 518.602 168.305 476.508 159.719C465.421 157.458 455.935 155.482 455.429 155.328C454.858 155.156 451.681 150.372 447.07 142.741C435.395 123.417 434.382 122.588 427.793 126.971C426.092 128.103 423.337 129.856 421.668 130.866C415.973 134.318 415.96 134.477 420.788 142.66C425.435 150.535 425.6 150.309 416.331 148.867C410.063 147.892 409.618 147.878 408.684 148.624C407.817 149.314 407.532 149.225 407.671 148.312C407.936 146.568 407.301 136.915 406.741 134.188C403.864 120.195 393.406 112.873 377.334 113.596ZM390.325 116.893C401.58 120.732 406.69 130.946 405.629 147.495C404.748 161.279 397.994 177.8 389.556 186.808C386.262 190.322 386.27 190.28 388.94 191.812C395.97 195.844 407.291 191.796 410 184.281C411.999 178.735 411.081 171.869 407.782 167.723L406.232 165.771L407.049 163.307C407.501 161.95 408.154 158.593 408.503 155.846C409.352 149.155 408.843 149.526 415.681 150.591C427.656 152.459 428.223 151.737 422.428 141.953C417.921 134.34 417.442 135.652 426.961 129.59C434.377 124.866 433.864 124.482 445.513 143.581C449.792 150.598 453.468 156.463 453.679 156.612C453.89 156.762 463.727 158.872 475.54 161.303C513.987 169.215 512.011 168.323 510.92 177.28C509.892 185.737 505.293 204.696 503.97 205.948C502.835 207.017 498.767 206.917 495.782 205.748C493.547 204.87 493.929 205.732 504.378 225.07C511.992 239.16 516.598 247.209 520.536 253.313C530.31 268.457 530.218 268.66 507.244 282.28C502.719 284.963 497.427 288.115 495.483 289.283C493.539 290.451 486.889 294.446 480.706 298.16C456.747 312.551 446.947 318.448 431.648 327.673C414.177 338.209 412.899 338.757 408.768 337.499C404.478 336.193 401.409 331.496 380.514 294.233C372.188 279.385 372.693 279.823 371.179 286.146C370.166 290.372 369.371 291.186 365.967 291.492C363.116 291.746 350.249 290.022 341.902 288.263C329.12 285.572 329.103 288.101 342.22 238.543C350.497 207.272 350.087 208.786 352.95 198.854C354.302 194.163 356.617 186.081 358.096 180.892C364.744 157.582 369.73 143.649 371.858 142.438C374.324 141.035 387.286 143.106 388.601 145.114C390.395 147.851 386.843 156.758 380.525 165.355L378.078 168.684L377.781 173.396C377.423 179.074 378.451 182.185 382.107 186.469C386.439 191.544 389.094 188.515 385.549 182.546C381.802 176.236 382.006 172.271 386.388 166.232C391.994 158.508 393.532 154.371 394.055 145.592C395.459 122.028 375.835 121.21 344.228 143.516C328.771 154.423 314.492 171.915 305.603 190.833C303.128 196.103 303.052 195.927 308.337 197.194C310.818 197.787 313.774 198.626 314.908 199.059L316.971 199.846L315.118 199.455C267.358 189.387 227.734 215.714 222.454 261.028C219.773 284.029 230.945 310.946 249.812 326.936C257.359 333.333 258.253 333.382 258.396 327.423L258.5 323.147L287.353 324.845L316.206 326.546L316.177 329.245C316.15 331.633 316.267 331.971 317.18 332.16C319.849 332.713 333.747 327.612 332.804 326.426C332.625 326.204 332.73 326.185 333.034 326.387C333.721 326.843 336.601 325.047 336.246 324.384C336.095 324.099 336.219 324.065 336.547 324.297C338.336 325.564 349.543 311.819 355.432 301.137L358.005 296.467L360.214 296.304C365.909 295.886 365.951 295.992 362.802 302.639C355.801 317.415 348.555 324.993 332.861 333.954C313.921 344.768 315.8 335.443 309.618 449.348C307.881 481.386 306.584 501.382 305.414 514.234L303.721 532.811L298.88 537.899C293.182 543.888 293.252 543.894 294.787 537.495C296.137 531.873 298.157 503.575 299.316 474.044C299.638 465.804 300.513 444.42 301.26 426.525C304.125 357.741 304.393 348.253 303.559 344.882C302.594 340.989 300.368 350.151 299.098 363.258C298.256 371.914 296.154 415.422 295.06 446.787C294.76 455.416 294.332 467.323 294.111 473.247C293.89 479.17 293.296 496.875 292.791 512.591L291.873 541.165L290.711 543.18C287.854 548.14 283.892 547.249 279.284 540.61C278.071 538.862 278.038 538.673 278.743 537.499C280.196 535.084 280.878 529.924 282.855 506.331C291.199 406.846 293.24 346.78 288.255 347.418C287.325 347.535 283.866 400.021 278.995 487.9C275.981 542.295 276.37 538.772 273.623 536.409C272.918 535.801 271.052 533.935 269.48 532.263C267.907 530.592 265.068 527.758 263.172 525.967C257.065 520.198 256.287 517.953 256.956 508.025C257.569 498.897 257.947 497.518 260.482 495.094C263.442 492.262 263.366 491.234 259.992 488.473C257.535 486.461 257.348 485.691 259.079 484.707C263.069 482.438 263.759 480.201 261.466 476.974C258.12 472.264 258.2 471.34 262.513 464.759C268.029 456.339 268.143 454.119 263.441 446.923C258.688 439.646 258.297 437.767 261.214 436.207C266.429 433.422 266.421 429.894 261.189 425.37L259.685 424.069L261.964 421.899C266.204 417.867 266.623 415.608 264.065 410.595C263.173 408.844 262.361 406.458 262.261 405.29C261.894 400.911 261.715 389.365 261.943 384.852C262.869 366.645 262.385 364.462 257.354 364.145C254.897 363.99 254.902 361.653 257.405 341.501C258.739 330.768 254.707 337.39 250.184 353.366C248.39 359.709 227.826 395.802 172.496 489.735L161.706 508.055L156.04 509.931C148.158 512.542 146.578 512.144 150.022 508.411C154.476 503.585 162.6 490.754 171.237 474.908C172.182 473.175 179.043 461.251 186.48 448.411C218.242 393.59 231.733 369.424 238.509 355.211C243.402 344.952 244.469 341.271 242.588 341.153C241.966 341.113 241.141 341.869 240.072 343.458C238.536 345.741 176.401 452.678 176.376 453.082C176.369 453.192 172.83 459.472 168.511 467.034C154.116 492.244 148.746 502.482 147.397 507.279C146.199 511.538 140.908 511.927 138.385 507.94C135.858 503.948 135.726 501.1 137.984 499.194C141.527 496.2 145.425 489.757 186.665 418.73C232.697 339.454 234.626 335.957 232.417 335.817C230.271 335.682 228.662 337.979 213.495 362.814C179.88 417.852 135.224 494.84 135.045 498.062C134.992 499.012 134.149 498.677 133.435 497.423C131.927 494.77 128.292 477.503 128.318 473.113L128.342 468.89L131.953 462.915C136.982 454.589 138.336 452.99 140.58 452.73C144.734 452.243 145.896 450.937 145.582 447.101C145.236 442.873 145.255 442.799 146.785 442.241C151.34 440.578 151.539 440.161 150.258 434.953L149.406 431.489L150.867 430.14C151.669 429.397 154.841 427.448 157.913 425.806C167.463 420.708 168.135 419.58 167.844 409.12C167.627 401.223 167.981 400.18 171.299 398.998C175.445 397.522 176.383 395.336 174.615 391.258C173.38 388.404 173.694 387.966 177.996 386.522L181.83 385.233L181.926 382.522C181.98 381.03 182.072 378.229 182.133 376.297C182.308 370.659 185.34 364.338 194.59 350.328C203.158 337.353 203.613 335.544 199.245 331.821C192.649 326.195 193.751 322.484 206.868 306.193C210.366 301.852 210.268 302.439 208.269 297.751C188.951 252.42 216.355 200.567 263.658 192.942C273.379 191.375 287.545 191.977 295.261 194.288C297.723 195.025 301.41 195.248 301.809 194.684C302.886 193.166 300.465 191.3 296.212 190.37C290.617 189.148 290.499 188.927 292.797 184.097C302.424 163.85 315.645 148.359 336.192 133.251C356.885 118.034 376.386 112.142 390.325 116.893ZM406.085 160.284C405.675 162.018 405.012 163.943 404.611 164.563C403.675 166.009 403.699 165.595 404.753 162.087C405.226 160.514 405.776 158.633 405.977 157.905C406.718 155.241 406.806 157.227 406.085 160.284ZM407.274 170.052C409.484 173.74 409.856 180.71 408.042 184.39C405.213 190.138 396.216 193.4 390.706 190.677L389.079 189.873L390.62 188.325C394.285 184.646 398.785 177.387 401.719 170.412L403.577 165.998L404.812 167C405.491 167.55 406.599 168.925 407.274 170.052ZM345.476 217.744C345.285 218.314 344.264 221.618 343.205 225.09L341.282 231.399L336.219 233.419C316.625 241.228 302.069 239.859 291.756 229.234C288.633 226.019 287.416 225.63 287.279 227.802C286.899 233.828 298.95 242.35 308.764 242.997C313.471 243.308 313.954 244.944 310.98 250.501C302.318 266.683 277.605 258.396 278.784 239.704C279.255 232.229 282.549 226.893 288.064 224.671C294.392 222.123 298.751 222.074 301.213 224.525C308.783 232.057 321.897 230.542 339.396 220.116C345.633 216.4 345.97 216.269 345.476 217.744ZM192.92 404.33C173.085 438.505 153.859 471.662 150.198 478.014C142.132 492.006 137.826 498.501 137.138 497.721C136.381 496.858 168.381 441.116 195.191 396.6C196.987 393.615 200.716 387.408 203.475 382.806C219.938 355.359 228.691 341.201 228.854 341.751C228.927 341.995 212.757 370.156 192.92 404.33ZM239.025 349.963C232.979 363.328 224.435 378.827 192.583 434.22C180.763 454.772 167.761 477.397 163.687 484.497C157.298 495.632 150.776 505.68 150.294 505.133C149.6 504.346 157.446 489.724 174.96 459.158C193.275 427.192 239.832 347.081 240.082 347.096C240.21 347.105 239.737 348.394 239.025 349.963ZM301.557 376.539C301.222 384.53 300.534 400.863 300.03 412.836C299.526 424.808 298.798 442.927 298.412 453.1C296.997 490.563 295.487 521.334 294.847 525.863L294.188 530.515L294.192 525.118C294.197 520.138 295.663 477.294 297.347 432.85C298.472 403.193 300.651 362.776 301.369 358.238L302.032 354.056L302.1 358.033C302.136 360.22 301.892 368.548 301.557 376.539ZM288.987 363.559C289.092 366.663 289.248 371.954 289.332 375.315C289.552 383.991 284.227 469.359 281.422 502.106C278.838 532.276 278.364 536.189 279.12 521.116C279.416 515.197 279.653 509.72 279.648 508.945C279.643 508.171 281.078 482.492 282.837 451.883C284.597 421.273 286.488 387.281 287.04 376.344C288.053 356.26 288.618 352.557 288.987 363.559Z"/>
</mask>
<path fill-rule="evenodd" clip-rule="evenodd" d="M377.334 113.596C352.541 114.714 315.505 141.793 297.308 172.11C287.888 187.805 287.59 189.884 294.504 191.665C297.92 192.545 299.359 193.126 297.882 193.033C297.517 193.01 295.452 192.556 293.291 192.028C274.913 187.522 251.517 191.387 235.839 201.52C204.004 222.091 192.044 261.008 206.285 297.689L207.924 301.911L203.674 307.381C191.749 322.719 190.902 325.803 196.934 331.929C201.601 336.666 201.77 335.879 193.231 349.069C181.837 366.67 180.417 369.897 180.328 378.413C180.281 382.958 180.142 384.151 179.666 384.121C175.322 383.847 170.939 388.041 172.57 390.906C174.52 394.336 174.07 396.185 171.028 397.267C166.402 398.914 165.764 400.427 166.063 409.052C166.383 418.404 165.797 419.474 158.048 423.677C147.915 429.17 147.113 430.084 148.364 434.735C149.478 438.872 149.365 439.848 147.74 440.13C143.715 440.832 142.886 442.028 143.748 445.891C144.524 449.362 144.134 450.262 141.645 450.725C138.518 451.307 137.68 451.707 136.227 453.309C134.999 454.666 130.003 462.314 127.761 466.272C124.534 471.973 129.908 500.203 134.275 500.478C134.679 500.504 134.858 501.127 134.788 502.271C134.429 508.228 140.293 514.038 144.828 512.216C146.47 511.557 146.54 511.566 147.163 512.589C148.024 514 149.764 513.837 156.382 511.72C163.338 509.495 161.89 511.305 176.369 486.706C227.327 400.129 250.205 359.951 251.834 354.174C253.893 346.869 256.317 340.632 255.121 345.717C254.852 346.85 254.399 351.386 254.11 355.792C253.502 365.129 253.702 365.792 257.203 366.013C260.287 366.207 260.761 367.169 260.6 372.913C259.81 401.625 260.076 407.384 262.378 411.284C264.721 415.253 264.352 417.466 260.804 420.688C257.543 423.652 257.498 425.034 260.583 427.357C264.477 430.29 264.391 431.604 260.102 434.757C256.108 437.695 256.374 439.244 262.532 448.875C265.755 453.915 265.781 455.921 262.686 460.938C261.462 462.926 259.789 465.648 258.972 466.988C256.653 470.787 256.697 473.174 259.145 476.598C261.612 480.051 261.545 480.737 258.508 482.97C255.048 485.513 255.163 486.922 259.107 490.212C261.214 491.974 261.186 492.188 258.524 494.698L256.331 496.763L255.634 502.295C253.855 516.408 254.806 520.448 261.38 526.723C262.963 528.233 266.203 531.449 268.58 533.868C270.964 536.295 273.635 538.561 274.542 538.926C275.556 539.333 277.247 540.866 278.97 542.942C283.204 548.036 286.916 549.465 290 547.186C290.781 546.609 291.806 546.199 292.283 546.274C292.875 546.365 295.106 544.377 299.29 540.032L305.43 533.656L306.603 521.249C308.132 505.037 311.514 451.629 314.327 399.187C317.372 342.4 316.431 345.56 333.202 335.848C349.454 326.437 355.756 320.174 363.058 306.176C368.294 296.138 368.119 294.334 361.926 294.502C357.048 294.633 357.153 294.543 352.701 302.237C342.746 319.447 334.748 326.488 321.449 329.749C317.678 330.673 317.863 330.778 318.049 327.842L318.211 325.271L287.589 323.339C263.421 321.814 256.952 321.531 256.895 321.99C256.856 322.311 256.757 324.1 256.674 325.965C256.502 329.93 256.473 329.94 252.915 327.225C244.724 320.975 235.151 308.146 229.7 296.113C216.119 266.129 227.035 228.282 254.458 210.284C276.781 195.633 311.188 195.384 335.298 209.7C340.503 212.788 341.248 213.07 341.318 211.969C341.555 208.201 321.201 198.013 307.988 195.288C306.779 195.038 305.791 194.776 305.795 194.708C305.976 191.84 317.695 172.781 324.272 164.658C342.129 142.6 375.047 124.36 386.37 130.244C394.93 134.692 394.71 150.463 385.9 163.85C380.06 172.719 379.827 175.628 384.278 184.057C386.129 187.561 385.579 188.216 383.253 185.276C380.325 181.574 378.931 177.444 379.208 173.287L379.44 169.781L383.226 164.491C389.476 155.756 392.418 146.735 389.934 143.917C386.529 140.05 371.084 139.003 368.989 142.497C367.066 145.701 360.856 164.525 356.212 181.224C352.121 195.929 351.709 197.358 349.092 205.886C347.629 210.654 346.386 213.922 345.91 214.244C325.872 227.897 309.401 231.082 301.828 222.768C299.298 219.992 290.261 220.82 285.033 224.311C275.605 230.605 273.843 245.18 281.503 253.511C291.735 264.64 307.262 262.966 313.198 250.09C316.099 243.795 314.849 241.52 308.248 241.096C303.052 240.764 295.133 236.819 291.405 232.709C288.801 229.836 288.962 228.95 291.61 231.593C301.915 241.887 318.771 242.917 338.654 234.472C340.207 233.812 341.537 233.342 341.611 233.429C341.686 233.515 340.245 239.193 338.412 246.048C326.91 289.007 326.594 287.243 346.43 290.888C366.517 294.58 371.419 294.033 372.509 287.978C373.084 284.785 373.046 284.759 376.468 290.819C403.215 338.172 403.971 339.252 410.706 339.698C414.649 339.961 415.629 339.448 444.684 321.917C459.579 312.932 474.932 303.675 478.803 301.352C482.672 299.026 486.764 296.548 487.895 295.845C490.579 294.174 497.117 290.28 507.376 284.239C531.56 270 532.429 268.321 523.089 253.944C517.94 246.015 498.836 211.956 497.947 209.119C497.785 208.602 498.359 208.497 500.587 208.638C505.732 208.962 506.052 208.475 509.017 195.764C516.078 165.505 518.602 168.305 476.508 159.719C465.421 157.458 455.935 155.482 455.429 155.328C454.858 155.156 451.681 150.372 447.07 142.741C435.395 123.417 434.382 122.588 427.793 126.971C426.092 128.103 423.337 129.856 421.668 130.866C415.973 134.318 415.96 134.477 420.788 142.66C425.435 150.535 425.6 150.309 416.331 148.867C410.063 147.892 409.618 147.878 408.684 148.624C407.817 149.314 407.532 149.225 407.671 148.312C407.936 146.568 407.301 136.915 406.741 134.188C403.864 120.195 393.406 112.873 377.334 113.596ZM390.325 116.893C401.58 120.732 406.69 130.946 405.629 147.495C404.748 161.279 397.994 177.8 389.556 186.808C386.262 190.322 386.27 190.28 388.94 191.812C395.97 195.844 407.291 191.796 410 184.281C411.999 178.735 411.081 171.869 407.782 167.723L406.232 165.771L407.049 163.307C407.501 161.95 408.154 158.593 408.503 155.846C409.352 149.155 408.843 149.526 415.681 150.591C427.656 152.459 428.223 151.737 422.428 141.953C417.921 134.34 417.442 135.652 426.961 129.59C434.377 124.866 433.864 124.482 445.513 143.581C449.792 150.598 453.468 156.463 453.679 156.612C453.89 156.762 463.727 158.872 475.54 161.303C513.987 169.215 512.011 168.323 510.92 177.28C509.892 185.737 505.293 204.696 503.97 205.948C502.835 207.017 498.767 206.917 495.782 205.748C493.547 204.87 493.929 205.732 504.378 225.07C511.992 239.16 516.598 247.209 520.536 253.313C530.31 268.457 530.218 268.66 507.244 282.28C502.719 284.963 497.427 288.115 495.483 289.283C493.539 290.451 486.889 294.446 480.706 298.16C456.747 312.551 446.947 318.448 431.648 327.673C414.177 338.209 412.899 338.757 408.768 337.499C404.478 336.193 401.409 331.496 380.514 294.233C372.188 279.385 372.693 279.823 371.179 286.146C370.166 290.372 369.371 291.186 365.967 291.492C363.116 291.746 350.249 290.022 341.902 288.263C329.12 285.572 329.103 288.101 342.22 238.543C350.497 207.272 350.087 208.786 352.95 198.854C354.302 194.163 356.617 186.081 358.096 180.892C364.744 157.582 369.73 143.649 371.858 142.438C374.324 141.035 387.286 143.106 388.601 145.114C390.395 147.851 386.843 156.758 380.525 165.355L378.078 168.684L377.781 173.396C377.423 179.074 378.451 182.185 382.107 186.469C386.439 191.544 389.094 188.515 385.549 182.546C381.802 176.236 382.006 172.271 386.388 166.232C391.994 158.508 393.532 154.371 394.055 145.592C395.459 122.028 375.835 121.21 344.228 143.516C328.771 154.423 314.492 171.915 305.603 190.833C303.128 196.103 303.052 195.927 308.337 197.194C310.818 197.787 313.774 198.626 314.908 199.059L316.971 199.846L315.118 199.455C267.358 189.387 227.734 215.714 222.454 261.028C219.773 284.029 230.945 310.946 249.812 326.936C257.359 333.333 258.253 333.382 258.396 327.423L258.5 323.147L287.353 324.845L316.206 326.546L316.177 329.245C316.15 331.633 316.267 331.971 317.18 332.16C319.849 332.713 333.747 327.612 332.804 326.426C332.625 326.204 332.73 326.185 333.034 326.387C333.721 326.843 336.601 325.047 336.246 324.384C336.095 324.099 336.219 324.065 336.547 324.297C338.336 325.564 349.543 311.819 355.432 301.137L358.005 296.467L360.214 296.304C365.909 295.886 365.951 295.992 362.802 302.639C355.801 317.415 348.555 324.993 332.861 333.954C313.921 344.768 315.8 335.443 309.618 449.348C307.881 481.386 306.584 501.382 305.414 514.234L303.721 532.811L298.88 537.899C293.182 543.888 293.252 543.894 294.787 537.495C296.137 531.873 298.157 503.575 299.316 474.044C299.638 465.804 300.513 444.42 301.26 426.525C304.125 357.741 304.393 348.253 303.559 344.882C302.594 340.989 300.368 350.151 299.098 363.258C298.256 371.914 296.154 415.422 295.06 446.787C294.76 455.416 294.332 467.323 294.111 473.247C293.89 479.17 293.296 496.875 292.791 512.591L291.873 541.165L290.711 543.18C287.854 548.14 283.892 547.249 279.284 540.61C278.071 538.862 278.038 538.673 278.743 537.499C280.196 535.084 280.878 529.924 282.855 506.331C291.199 406.846 293.24 346.78 288.255 347.418C287.325 347.535 283.866 400.021 278.995 487.9C275.981 542.295 276.37 538.772 273.623 536.409C272.918 535.801 271.052 533.935 269.48 532.263C267.907 530.592 265.068 527.758 263.172 525.967C257.065 520.198 256.287 517.953 256.956 508.025C257.569 498.897 257.947 497.518 260.482 495.094C263.442 492.262 263.366 491.234 259.992 488.473C257.535 486.461 257.348 485.691 259.079 484.707C263.069 482.438 263.759 480.201 261.466 476.974C258.12 472.264 258.2 471.34 262.513 464.759C268.029 456.339 268.143 454.119 263.441 446.923C258.688 439.646 258.297 437.767 261.214 436.207C266.429 433.422 266.421 429.894 261.189 425.37L259.685 424.069L261.964 421.899C266.204 417.867 266.623 415.608 264.065 410.595C263.173 408.844 262.361 406.458 262.261 405.29C261.894 400.911 261.715 389.365 261.943 384.852C262.869 366.645 262.385 364.462 257.354 364.145C254.897 363.99 254.902 361.653 257.405 341.501C258.739 330.768 254.707 337.39 250.184 353.366C248.39 359.709 227.826 395.802 172.496 489.735L161.706 508.055L156.04 509.931C148.158 512.542 146.578 512.144 150.022 508.411C154.476 503.585 162.6 490.754 171.237 474.908C172.182 473.175 179.043 461.251 186.48 448.411C218.242 393.59 231.733 369.424 238.509 355.211C243.402 344.952 244.469 341.271 242.588 341.153C241.966 341.113 241.141 341.869 240.072 343.458C238.536 345.741 176.401 452.678 176.376 453.082C176.369 453.192 172.83 459.472 168.511 467.034C154.116 492.244 148.746 502.482 147.397 507.279C146.199 511.538 140.908 511.927 138.385 507.94C135.858 503.948 135.726 501.1 137.984 499.194C141.527 496.2 145.425 489.757 186.665 418.73C232.697 339.454 234.626 335.957 232.417 335.817C230.271 335.682 228.662 337.979 213.495 362.814C179.88 417.852 135.224 494.84 135.045 498.062C134.992 499.012 134.149 498.677 133.435 497.423C131.927 494.77 128.292 477.503 128.318 473.113L128.342 468.89L131.953 462.915C136.982 454.589 138.336 452.99 140.58 452.73C144.734 452.243 145.896 450.937 145.582 447.101C145.236 442.873 145.255 442.799 146.785 442.241C151.34 440.578 151.539 440.161 150.258 434.953L149.406 431.489L150.867 430.14C151.669 429.397 154.841 427.448 157.913 425.806C167.463 420.708 168.135 419.58 167.844 409.12C167.627 401.223 167.981 400.18 171.299 398.998C175.445 397.522 176.383 395.336 174.615 391.258C173.38 388.404 173.694 387.966 177.996 386.522L181.83 385.233L181.926 382.522C181.98 381.03 182.072 378.229 182.133 376.297C182.308 370.659 185.34 364.338 194.59 350.328C203.158 337.353 203.613 335.544 199.245 331.821C192.649 326.195 193.751 322.484 206.868 306.193C210.366 301.852 210.268 302.439 208.269 297.751C188.951 252.42 216.355 200.567 263.658 192.942C273.379 191.375 287.545 191.977 295.261 194.288C297.723 195.025 301.41 195.248 301.809 194.684C302.886 193.166 300.465 191.3 296.212 190.37C290.617 189.148 290.499 188.927 292.797 184.097C302.424 163.85 315.645 148.359 336.192 133.251C356.885 118.034 376.386 112.142 390.325 116.893ZM406.085 160.284C405.675 162.018 405.012 163.943 404.611 164.563C403.675 166.009 403.699 165.595 404.753 162.087C405.226 160.514 405.776 158.633 405.977 157.905C406.718 155.241 406.806 157.227 406.085 160.284ZM407.274 170.052C409.484 173.74 409.856 180.71 408.042 184.39C405.213 190.138 396.216 193.4 390.706 190.677L389.079 189.873L390.62 188.325C394.285 184.646 398.785 177.387 401.719 170.412L403.577 165.998L404.812 167C405.491 167.55 406.599 168.925 407.274 170.052ZM345.476 217.744C345.285 218.314 344.264 221.618 343.205 225.09L341.282 231.399L336.219 233.419C316.625 241.228 302.069 239.859 291.756 229.234C288.633 226.019 287.416 225.63 287.279 227.802C286.899 233.828 298.95 242.35 308.764 242.997C313.471 243.308 313.954 244.944 310.98 250.501C302.318 266.683 277.605 258.396 278.784 239.704C279.255 232.229 282.549 226.893 288.064 224.671C294.392 222.123 298.751 222.074 301.213 224.525C308.783 232.057 321.897 230.542 339.396 220.116C345.633 216.4 345.97 216.269 345.476 217.744ZM192.92 404.33C173.085 438.505 153.859 471.662 150.198 478.014C142.132 492.006 137.826 498.501 137.138 497.721C136.381 496.858 168.381 441.116 195.191 396.6C196.987 393.615 200.716 387.408 203.475 382.806C219.938 355.359 228.691 341.201 228.854 341.751C228.927 341.995 212.757 370.156 192.92 404.33ZM239.025 349.963C232.979 363.328 224.435 378.827 192.583 434.22C180.763 454.772 167.761 477.397 163.687 484.497C157.298 495.632 150.776 505.68 150.294 505.133C149.6 504.346 157.446 489.724 174.96 459.158C193.275 427.192 239.832 347.081 240.082 347.096C240.21 347.105 239.737 348.394 239.025 349.963ZM301.557 376.539C301.222 384.53 300.534 400.863 300.03 412.836C299.526 424.808 298.798 442.927 298.412 453.1C296.997 490.563 295.487 521.334 294.847 525.863L294.188 530.515L294.192 525.118C294.197 520.138 295.663 477.294 297.347 432.85C298.472 403.193 300.651 362.776 301.369 358.238L302.032 354.056L302.1 358.033C302.136 360.22 301.892 368.548 301.557 376.539ZM288.987 363.559C289.092 366.663 289.248 371.954 289.332 375.315C289.552 383.991 284.227 469.359 281.422 502.106C278.838 532.276 278.364 536.189 279.12 521.116C279.416 515.197 279.653 509.72 279.648 508.945C279.643 508.171 281.078 482.492 282.837 451.883C284.597 421.273 286.488 387.281 287.04 376.344C288.053 356.26 288.618 352.557 288.987 363.559Z" fill="#103E2E"/>
<path fill-rule="evenodd" clip-rule="evenodd" d="M377.334 113.596C352.541 114.714 315.505 141.793 297.308 172.11C287.888 187.805 287.59 189.884 294.504 191.665C297.92 192.545 299.359 193.126 297.882 193.033C297.517 193.01 295.452 192.556 293.291 192.028C274.913 187.522 251.517 191.387 235.839 201.52C204.004 222.091 192.044 261.008 206.285 297.689L207.924 301.911L203.674 307.381C191.749 322.719 190.902 325.803 196.934 331.929C201.601 336.666 201.77 335.879 193.231 349.069C181.837 366.67 180.417 369.897 180.328 378.413C180.281 382.958 180.142 384.151 179.666 384.121C175.322 383.847 170.939 388.041 172.57 390.906C174.52 394.336 174.07 396.185 171.028 397.267C166.402 398.914 165.764 400.427 166.063 409.052C166.383 418.404 165.797 419.474 158.048 423.677C147.915 429.17 147.113 430.084 148.364 434.735C149.478 438.872 149.365 439.848 147.74 440.13C143.715 440.832 142.886 442.028 143.748 445.891C144.524 449.362 144.134 450.262 141.645 450.725C138.518 451.307 137.68 451.707 136.227 453.309C134.999 454.666 130.003 462.314 127.761 466.272C124.534 471.973 129.908 500.203 134.275 500.478C134.679 500.504 134.858 501.127 134.788 502.271C134.429 508.228 140.293 514.038 144.828 512.216C146.47 511.557 146.54 511.566 147.163 512.589C148.024 514 149.764 513.837 156.382 511.72C163.338 509.495 161.89 511.305 176.369 486.706C227.327 400.129 250.205 359.951 251.834 354.174C253.893 346.869 256.317 340.632 255.121 345.717C254.852 346.85 254.399 351.386 254.11 355.792C253.502 365.129 253.702 365.792 257.203 366.013C260.287 366.207 260.761 367.169 260.6 372.913C259.81 401.625 260.076 407.384 262.378 411.284C264.721 415.253 264.352 417.466 260.804 420.688C257.543 423.652 257.498 425.034 260.583 427.357C264.477 430.29 264.391 431.604 260.102 434.757C256.108 437.695 256.374 439.244 262.532 448.875C265.755 453.915 265.781 455.921 262.686 460.938C261.462 462.926 259.789 465.648 258.972 466.988C256.653 470.787 256.697 473.174 259.145 476.598C261.612 480.051 261.545 480.737 258.508 482.97C255.048 485.513 255.163 486.922 259.107 490.212C261.214 491.974 261.186 492.188 258.524 494.698L256.331 496.763L255.634 502.295C253.855 516.408 254.806 520.448 261.38 526.723C262.963 528.233 266.203 531.449 268.58 533.868C270.964 536.295 273.635 538.561 274.542 538.926C275.556 539.333 277.247 540.866 278.97 542.942C283.204 548.036 286.916 549.465 290 547.186C290.781 546.609 291.806 546.199 292.283 546.274C292.875 546.365 295.106 544.377 299.29 540.032L305.43 533.656L306.603 521.249C308.132 505.037 311.514 451.629 314.327 399.187C317.372 342.4 316.431 345.56 333.202 335.848C349.454 326.437 355.756 320.174 363.058 306.176C368.294 296.138 368.119 294.334 361.926 294.502C357.048 294.633 357.153 294.543 352.701 302.237C342.746 319.447 334.748 326.488 321.449 329.749C317.678 330.673 317.863 330.778 318.049 327.842L318.211 325.271L287.589 323.339C263.421 321.814 256.952 321.531 256.895 321.99C256.856 322.311 256.757 324.1 256.674 325.965C256.502 329.93 256.473 329.94 252.915 327.225C244.724 320.975 235.151 308.146 229.7 296.113C216.119 266.129 227.035 228.282 254.458 210.284C276.781 195.633 311.188 195.384 335.298 209.7C340.503 212.788 341.248 213.07 341.318 211.969C341.555 208.201 321.201 198.013 307.988 195.288C306.779 195.038 305.791 194.776 305.795 194.708C305.976 191.84 317.695 172.781 324.272 164.658C342.129 142.6 375.047 124.36 386.37 130.244C394.93 134.692 394.71 150.463 385.9 163.85C380.06 172.719 379.827 175.628 384.278 184.057C386.129 187.561 385.579 188.216 383.253 185.276C380.325 181.574 378.931 177.444 379.208 173.287L379.44 169.781L383.226 164.491C389.476 155.756 392.418 146.735 389.934 143.917C386.529 140.05 371.084 139.003 368.989 142.497C367.066 145.701 360.856 164.525 356.212 181.224C352.121 195.929 351.709 197.358 349.092 205.886C347.629 210.654 346.386 213.922 345.91 214.244C325.872 227.897 309.401 231.082 301.828 222.768C299.298 219.992 290.261 220.82 285.033 224.311C275.605 230.605 273.843 245.18 281.503 253.511C291.735 264.64 307.262 262.966 313.198 250.09C316.099 243.795 314.849 241.52 308.248 241.096C303.052 240.764 295.133 236.819 291.405 232.709C288.801 229.836 288.962 228.95 291.61 231.593C301.915 241.887 318.771 242.917 338.654 234.472C340.207 233.812 341.537 233.342 341.611 233.429C341.686 233.515 340.245 239.193 338.412 246.048C326.91 289.007 326.594 287.243 346.43 290.888C366.517 294.58 371.419 294.033 372.509 287.978C373.084 284.785 373.046 284.759 376.468 290.819C403.215 338.172 403.971 339.252 410.706 339.698C414.649 339.961 415.629 339.448 444.684 321.917C459.579 312.932 474.932 303.675 478.803 301.352C482.672 299.026 486.764 296.548 487.895 295.845C490.579 294.174 497.117 290.28 507.376 284.239C531.56 270 532.429 268.321 523.089 253.944C517.94 246.015 498.836 211.956 497.947 209.119C497.785 208.602 498.359 208.497 500.587 208.638C505.732 208.962 506.052 208.475 509.017 195.764C516.078 165.505 518.602 168.305 476.508 159.719C465.421 157.458 455.935 155.482 455.429 155.328C454.858 155.156 451.681 150.372 447.07 142.741C435.395 123.417 434.382 122.588 427.793 126.971C426.092 128.103 423.337 129.856 421.668 130.866C415.973 134.318 415.96 134.477 420.788 142.66C425.435 150.535 425.6 150.309 416.331 148.867C410.063 147.892 409.618 147.878 408.684 148.624C407.817 149.314 407.532 149.225 407.671 148.312C407.936 146.568 407.301 136.915 406.741 134.188C403.864 120.195 393.406 112.873 377.334 113.596ZM390.325 116.893C401.58 120.732 406.69 130.946 405.629 147.495C404.748 161.279 397.994 177.8 389.556 186.808C386.262 190.322 386.27 190.28 388.94 191.812C395.97 195.844 407.291 191.796 410 184.281C411.999 178.735 411.081 171.869 407.782 167.723L406.232 165.771L407.049 163.307C407.501 161.95 408.154 158.593 408.503 155.846C409.352 149.155 408.843 149.526 415.681 150.591C427.656 152.459 428.223 151.737 422.428 141.953C417.921 134.34 417.442 135.652 426.961 129.59C434.377 124.866 433.864 124.482 445.513 143.581C449.792 150.598 453.468 156.463 453.679 156.612C453.89 156.762 463.727 158.872 475.54 161.303C513.987 169.215 512.011 168.323 510.92 177.28C509.892 185.737 505.293 204.696 503.97 205.948C502.835 207.017 498.767 206.917 495.782 205.748C493.547 204.87 493.929 205.732 504.378 225.07C511.992 239.16 516.598 247.209 520.536 253.313C530.31 268.457 530.218 268.66 507.244 282.28C502.719 284.963 497.427 288.115 495.483 289.283C493.539 290.451 486.889 294.446 480.706 298.16C456.747 312.551 446.947 318.448 431.648 327.673C414.177 338.209 412.899 338.757 408.768 337.499C404.478 336.193 401.409 331.496 380.514 294.233C372.188 279.385 372.693 279.823 371.179 286.146C370.166 290.372 369.371 291.186 365.967 291.492C363.116 291.746 350.249 290.022 341.902 288.263C329.12 285.572 329.103 288.101 342.22 238.543C350.497 207.272 350.087 208.786 352.95 198.854C354.302 194.163 356.617 186.081 358.096 180.892C364.744 157.582 369.73 143.649 371.858 142.438C374.324 141.035 387.286 143.106 388.601 145.114C390.395 147.851 386.843 156.758 380.525 165.355L378.078 168.684L377.781 173.396C377.423 179.074 378.451 182.185 382.107 186.469C386.439 191.544 389.094 188.515 385.549 182.546C381.802 176.236 382.006 172.271 386.388 166.232C391.994 158.508 393.532 154.371 394.055 145.592C395.459 122.028 375.835 121.21 344.228 143.516C328.771 154.423 314.492 171.915 305.603 190.833C303.128 196.103 303.052 195.927 308.337 197.194C310.818 197.787 313.774 198.626 314.908 199.059L316.971 199.846L315.118 199.455C267.358 189.387 227.734 215.714 222.454 261.028C219.773 284.029 230.945 310.946 249.812 326.936C257.359 333.333 258.253 333.382 258.396 327.423L258.5 323.147L287.353 324.845L316.206 326.546L316.177 329.245C316.15 331.633 316.267 331.971 317.18 332.16C319.849 332.713 333.747 327.612 332.804 326.426C332.625 326.204 332.73 326.185 333.034 326.387C333.721 326.843 336.601 325.047 336.246 324.384C336.095 324.099 336.219 324.065 336.547 324.297C338.336 325.564 349.543 311.819 355.432 301.137L358.005 296.467L360.214 296.304C365.909 295.886 365.951 295.992 362.802 302.639C355.801 317.415 348.555 324.993 332.861 333.954C313.921 344.768 315.8 335.443 309.618 449.348C307.881 481.386 306.584 501.382 305.414 514.234L303.721 532.811L298.88 537.899C293.182 543.888 293.252 543.894 294.787 537.495C296.137 531.873 298.157 503.575 299.316 474.044C299.638 465.804 300.513 444.42 301.26 426.525C304.125 357.741 304.393 348.253 303.559 344.882C302.594 340.989 300.368 350.151 299.098 363.258C298.256 371.914 296.154 415.422 295.06 446.787C294.76 455.416 294.332 467.323 294.111 473.247C293.89 479.17 293.296 496.875 292.791 512.591L291.873 541.165L290.711 543.18C287.854 548.14 283.892 547.249 279.284 540.61C278.071 538.862 278.038 538.673 278.743 537.499C280.196 535.084 280.878 529.924 282.855 506.331C291.199 406.846 293.24 346.78 288.255 347.418C287.325 347.535 283.866 400.021 278.995 487.9C275.981 542.295 276.37 538.772 273.623 536.409C272.918 535.801 271.052 533.935 269.48 532.263C267.907 530.592 265.068 527.758 263.172 525.967C257.065 520.198 256.287 517.953 256.956 508.025C257.569 498.897 257.947 497.518 260.482 495.094C263.442 492.262 263.366 491.234 259.992 488.473C257.535 486.461 257.348 485.691 259.079 484.707C263.069 482.438 263.759 480.201 261.466 476.974C258.12 472.264 258.2 471.34 262.513 464.759C268.029 456.339 268.143 454.119 263.441 446.923C258.688 439.646 258.297 437.767 261.214 436.207C266.429 433.422 266.421 429.894 261.189 425.37L259.685 424.069L261.964 421.899C266.204 417.867 266.623 415.608 264.065 410.595C263.173 408.844 262.361 406.458 262.261 405.29C261.894 400.911 261.715 389.365 261.943 384.852C262.869 366.645 262.385 364.462 257.354 364.145C254.897 363.99 254.902 361.653 257.405 341.501C258.739 330.768 254.707 337.39 250.184 353.366C248.39 359.709 227.826 395.802 172.496 489.735L161.706 508.055L156.04 509.931C148.158 512.542 146.578 512.144 150.022 508.411C154.476 503.585 162.6 490.754 171.237 474.908C172.182 473.175 179.043 461.251 186.48 448.411C218.242 393.59 231.733 369.424 238.509 355.211C243.402 344.952 244.469 341.271 242.588 341.153C241.966 341.113 241.141 341.869 240.072 343.458C238.536 345.741 176.401 452.678 176.376 453.082C176.369 453.192 172.83 459.472 168.511 467.034C154.116 492.244 148.746 502.482 147.397 507.279C146.199 511.538 140.908 511.927 138.385 507.94C135.858 503.948 135.726 501.1 137.984 499.194C141.527 496.2 145.425 489.757 186.665 418.73C232.697 339.454 234.626 335.957 232.417 335.817C230.271 335.682 228.662 337.979 213.495 362.814C179.88 417.852 135.224 494.84 135.045 498.062C134.992 499.012 134.149 498.677 133.435 497.423C131.927 494.77 128.292 477.503 128.318 473.113L128.342 468.89L131.953 462.915C136.982 454.589 138.336 452.99 140.58 452.73C144.734 452.243 145.896 450.937 145.582 447.101C145.236 442.873 145.255 442.799 146.785 442.241C151.34 440.578 151.539 440.161 150.258 434.953L149.406 431.489L150.867 430.14C151.669 429.397 154.841 427.448 157.913 425.806C167.463 420.708 168.135 419.58 167.844 409.12C167.627 401.223 167.981 400.18 171.299 398.998C175.445 397.522 176.383 395.336 174.615 391.258C173.38 388.404 173.694 387.966 177.996 386.522L181.83 385.233L181.926 382.522C181.98 381.03 182.072 378.229 182.133 376.297C182.308 370.659 185.34 364.338 194.59 350.328C203.158 337.353 203.613 335.544 199.245 331.821C192.649 326.195 193.751 322.484 206.868 306.193C210.366 301.852 210.268 302.439 208.269 297.751C188.951 252.42 216.355 200.567 263.658 192.942C273.379 191.375 287.545 191.977 295.261 194.288C297.723 195.025 301.41 195.248 301.809 194.684C302.886 193.166 300.465 191.3 296.212 190.37C290.617 189.148 290.499 188.927 292.797 184.097C302.424 163.85 315.645 148.359 336.192 133.251C356.885 118.034 376.386 112.142 390.325 116.893ZM406.085 160.284C405.675 162.018 405.012 163.943 404.611 164.563C403.675 166.009 403.699 165.595 404.753 162.087C405.226 160.514 405.776 158.633 405.977 157.905C406.718 155.241 406.806 157.227 406.085 160.284ZM407.274 170.052C409.484 173.74 409.856 180.71 408.042 184.39C405.213 190.138 396.216 193.4 390.706 190.677L389.079 189.873L390.62 188.325C394.285 184.646 398.785 177.387 401.719 170.412L403.577 165.998L404.812 167C405.491 167.55 406.599 168.925 407.274 170.052ZM345.476 217.744C345.285 218.314 344.264 221.618 343.205 225.09L341.282 231.399L336.219 233.419C316.625 241.228 302.069 239.859 291.756 229.234C288.633 226.019 287.416 225.63 287.279 227.802C286.899 233.828 298.95 242.35 308.764 242.997C313.471 243.308 313.954 244.944 310.98 250.501C302.318 266.683 277.605 258.396 278.784 239.704C279.255 232.229 282.549 226.893 288.064 224.671C294.392 222.123 298.751 222.074 301.213 224.525C308.783 232.057 321.897 230.542 339.396 220.116C345.633 216.4 345.97 216.269 345.476 217.744ZM192.92 404.33C173.085 438.505 153.859 471.662 150.198 478.014C142.132 492.006 137.826 498.501 137.138 497.721C136.381 496.858 168.381 441.116 195.191 396.6C196.987 393.615 200.716 387.408 203.475 382.806C219.938 355.359 228.691 341.201 228.854 341.751C228.927 341.995 212.757 370.156 192.92 404.33ZM239.025 349.963C232.979 363.328 224.435 378.827 192.583 434.22C180.763 454.772 167.761 477.397 163.687 484.497C157.298 495.632 150.776 505.68 150.294 505.133C149.6 504.346 157.446 489.724 174.96 459.158C193.275 427.192 239.832 347.081 240.082 347.096C240.21 347.105 239.737 348.394 239.025 349.963ZM301.557 376.539C301.222 384.53 300.534 400.863 300.03 412.836C299.526 424.808 298.798 442.927 298.412 453.1C296.997 490.563 295.487 521.334 294.847 525.863L294.188 530.515L294.192 525.118C294.197 520.138 295.663 477.294 297.347 432.85C298.472 403.193 300.651 362.776 301.369 358.238L302.032 354.056L302.1 358.033C302.136 360.22 301.892 368.548 301.557 376.539ZM288.987 363.559C289.092 366.663 289.248 371.954 289.332 375.315C289.552 383.991 284.227 469.359 281.422 502.106C278.838 532.276 278.364 536.189 279.12 521.116C279.416 515.197 279.653 509.72 279.648 508.945C279.643 508.171 281.078 482.492 282.837 451.883C284.597 421.273 286.488 387.281 287.04 376.344C288.053 356.26 288.618 352.557 288.987 363.559Z" stroke="#9AB0A6" stroke-width="192" mask="url(#path-1-outside-1_314_445)"/>
<mask id="path-2-outside-2_314_445" maskUnits="userSpaceOnUse" x="120.447" y="96.878" width="419.178" height="467.8" fill="black">
<rect fill="white" x="120.447" y="96.878" width="419.178" height="467.8"/>
<path fill-rule="evenodd" clip-rule="evenodd" d="M377.334 113.596C352.541 114.714 315.505 141.793 297.308 172.11C287.888 187.805 287.59 189.884 294.504 191.665C297.92 192.545 299.359 193.126 297.882 193.033C297.517 193.01 295.452 192.556 293.291 192.028C274.913 187.522 251.517 191.387 235.839 201.52C204.004 222.091 192.044 261.008 206.285 297.689L207.924 301.911L203.674 307.381C191.749 322.719 190.902 325.803 196.934 331.929C201.601 336.666 201.77 335.879 193.231 349.069C181.837 366.67 180.417 369.897 180.328 378.413C180.281 382.958 180.142 384.151 179.666 384.121C175.322 383.847 170.939 388.041 172.57 390.906C174.52 394.336 174.07 396.185 171.028 397.267C166.402 398.914 165.764 400.427 166.063 409.052C166.383 418.404 165.797 419.474 158.048 423.677C147.915 429.17 147.113 430.084 148.364 434.735C149.478 438.872 149.365 439.848 147.74 440.13C143.715 440.832 142.886 442.028 143.748 445.891C144.524 449.362 144.134 450.262 141.645 450.725C138.518 451.307 137.68 451.707 136.227 453.309C134.999 454.666 130.003 462.314 127.761 466.272C124.534 471.973 129.908 500.203 134.275 500.478C134.679 500.504 134.858 501.127 134.788 502.271C134.429 508.228 140.293 514.038 144.828 512.216C146.47 511.557 146.54 511.566 147.163 512.589C148.024 514 149.764 513.837 156.382 511.72C163.338 509.495 161.89 511.305 176.369 486.706C227.327 400.129 250.205 359.951 251.834 354.174C253.893 346.869 256.317 340.632 255.121 345.717C254.852 346.85 254.399 351.386 254.11 355.792C253.502 365.129 253.702 365.792 257.203 366.013C260.287 366.207 260.761 367.169 260.6 372.913C259.81 401.625 260.076 407.384 262.378 411.284C264.721 415.253 264.352 417.466 260.804 420.688C257.543 423.652 257.498 425.034 260.583 427.357C264.477 430.29 264.391 431.604 260.102 434.757C256.108 437.695 256.374 439.244 262.532 448.875C265.755 453.915 265.781 455.921 262.686 460.938C261.462 462.926 259.789 465.648 258.972 466.988C256.653 470.787 256.697 473.174 259.145 476.598C261.612 480.051 261.545 480.737 258.508 482.97C255.048 485.513 255.163 486.922 259.107 490.212C261.214 491.974 261.186 492.188 258.524 494.698L256.331 496.763L255.634 502.295C253.855 516.408 254.806 520.448 261.38 526.723C262.963 528.233 266.203 531.449 268.58 533.868C270.964 536.295 273.635 538.561 274.542 538.926C275.556 539.333 277.247 540.866 278.97 542.942C283.204 548.036 286.916 549.465 290 547.186C290.781 546.609 291.806 546.199 292.283 546.274C292.875 546.365 295.106 544.377 299.29 540.032L305.43 533.656L306.603 521.249C308.132 505.037 311.514 451.629 314.327 399.187C317.372 342.4 316.431 345.56 333.202 335.848C349.454 326.437 355.756 320.174 363.058 306.176C368.294 296.138 368.119 294.334 361.926 294.502C357.048 294.633 357.153 294.543 352.701 302.237C342.746 319.447 334.748 326.488 321.449 329.749C317.678 330.673 317.863 330.778 318.049 327.842L318.211 325.271L287.589 323.339C263.421 321.814 256.952 321.531 256.895 321.99C256.856 322.311 256.757 324.1 256.674 325.965C256.502 329.93 256.473 329.94 252.915 327.225C244.724 320.975 235.151 308.146 229.7 296.113C216.119 266.129 227.035 228.282 254.458 210.284C276.781 195.633 311.188 195.384 335.298 209.7C340.503 212.788 341.248 213.07 341.318 211.969C341.555 208.201 321.201 198.013 307.988 195.288C306.779 195.038 305.791 194.776 305.795 194.708C305.976 191.84 317.695 172.781 324.272 164.658C342.129 142.6 375.047 124.36 386.37 130.244C394.93 134.692 394.71 150.463 385.9 163.85C380.06 172.719 379.827 175.628 384.278 184.057C386.129 187.561 385.579 188.216 383.253 185.276C380.325 181.574 378.931 177.444 379.208 173.287L379.44 169.781L383.226 164.491C389.476 155.756 392.418 146.735 389.934 143.917C386.529 140.05 371.084 139.003 368.989 142.497C367.066 145.701 360.856 164.525 356.212 181.224C352.121 195.929 351.709 197.358 349.092 205.886C347.629 210.654 346.386 213.922 345.91 214.244C325.872 227.897 309.401 231.082 301.828 222.768C299.298 219.992 290.261 220.82 285.033 224.311C275.605 230.605 273.843 245.18 281.503 253.511C291.735 264.64 307.262 262.966 313.198 250.09C316.099 243.795 314.849 241.52 308.248 241.096C303.052 240.764 295.133 236.819 291.405 232.709C288.801 229.836 288.962 228.95 291.61 231.593C301.915 241.887 318.771 242.917 338.654 234.472C340.207 233.812 341.537 233.342 341.611 233.429C341.686 233.515 340.245 239.193 338.412 246.048C326.91 289.007 326.594 287.243 346.43 290.888C366.517 294.58 371.419 294.033 372.509 287.978C373.084 284.785 373.046 284.759 376.468 290.819C403.215 338.172 403.971 339.252 410.706 339.698C414.649 339.961 415.629 339.448 444.684 321.917C459.579 312.932 474.932 303.675 478.803 301.352C482.672 299.026 486.764 296.548 487.895 295.845C490.579 294.174 497.117 290.28 507.376 284.239C531.56 270 532.429 268.321 523.089 253.944C517.94 246.015 498.836 211.956 497.947 209.119C497.785 208.602 498.359 208.497 500.587 208.638C505.732 208.962 506.052 208.475 509.017 195.764C516.078 165.505 518.602 168.305 476.508 159.719C465.421 157.458 455.935 155.482 455.429 155.328C454.858 155.156 451.681 150.372 447.07 142.741C435.395 123.417 434.382 122.588 427.793 126.971C426.092 128.103 423.337 129.856 421.668 130.866C415.973 134.318 415.96 134.477 420.788 142.66C425.435 150.535 425.6 150.309 416.331 148.867C410.063 147.892 409.618 147.878 408.684 148.624C407.817 149.314 407.532 149.225 407.671 148.312C407.936 146.568 407.301 136.915 406.741 134.188C403.864 120.195 393.406 112.873 377.334 113.596ZM390.325 116.893C401.58 120.732 406.69 130.946 405.629 147.495C404.748 161.279 397.994 177.8 389.556 186.808C386.262 190.322 386.27 190.28 388.94 191.812C395.97 195.844 407.291 191.796 410 184.281C411.999 178.735 411.081 171.869 407.782 167.723L406.232 165.771L407.049 163.307C407.501 161.95 408.154 158.593 408.503 155.846C409.352 149.155 408.843 149.526 415.681 150.591C427.656 152.459 428.223 151.737 422.428 141.953C417.921 134.34 417.442 135.652 426.961 129.59C434.377 124.866 433.864 124.482 445.513 143.581C449.792 150.598 453.468 156.463 453.679 156.612C453.89 156.762 463.727 158.872 475.54 161.303C513.987 169.215 512.011 168.323 510.92 177.28C509.892 185.737 505.293 204.696 503.97 205.948C502.835 207.017 498.767 206.917 495.782 205.748C493.547 204.87 493.929 205.732 504.378 225.07C511.992 239.16 516.598 247.209 520.536 253.313C530.31 268.457 530.218 268.66 507.244 282.28C502.719 284.963 497.427 288.115 495.483 289.283C493.539 290.451 486.889 294.446 480.706 298.16C456.747 312.551 446.947 318.448 431.648 327.673C414.177 338.209 412.899 338.757 408.768 337.499C404.478 336.193 401.409 331.496 380.514 294.233C372.188 279.385 372.693 279.823 371.179 286.146C370.166 290.372 369.371 291.186 365.967 291.492C363.116 291.746 350.249 290.022 341.902 288.263C329.12 285.572 329.103 288.101 342.22 238.543C350.497 207.272 350.087 208.786 352.95 198.854C354.302 194.163 356.617 186.081 358.096 180.892C364.744 157.582 369.73 143.649 371.858 142.438C374.324 141.035 387.286 143.106 388.601 145.114C390.395 147.851 386.843 156.758 380.525 165.355L378.078 168.684L377.781 173.396C377.423 179.074 378.451 182.185 382.107 186.469C386.439 191.544 389.094 188.515 385.549 182.546C381.802 176.236 382.006 172.271 386.388 166.232C391.994 158.508 393.532 154.371 394.055 145.592C395.459 122.028 375.835 121.21 344.228 143.516C328.771 154.423 314.492 171.915 305.603 190.833C303.128 196.103 303.052 195.927 308.337 197.194C310.818 197.787 313.774 198.626 314.908 199.059L316.971 199.846L315.118 199.455C267.358 189.387 227.734 215.714 222.454 261.028C219.773 284.029 230.945 310.946 249.812 326.936C257.359 333.333 258.253 333.382 258.396 327.423L258.5 323.147L287.353 324.845L316.206 326.546L316.177 329.245C316.15 331.633 316.267 331.971 317.18 332.16C319.849 332.713 333.747 327.612 332.804 326.426C332.625 326.204 332.73 326.185 333.034 326.387C333.721 326.843 336.601 325.047 336.246 324.384C336.095 324.099 336.219 324.065 336.547 324.297C338.336 325.564 349.543 311.819 355.432 301.137L358.005 296.467L360.214 296.304C365.909 295.886 365.951 295.992 362.802 302.639C355.801 317.415 348.555 324.993 332.861 333.954C313.921 344.768 315.8 335.443 309.618 449.348C307.881 481.386 306.584 501.382 305.414 514.234L303.721 532.811L298.88 537.899C293.182 543.888 293.252 543.894 294.787 537.495C296.137 531.873 298.157 503.575 299.316 474.044C299.638 465.804 300.513 444.42 301.26 426.525C304.125 357.741 304.393 348.253 303.559 344.882C302.594 340.989 300.368 350.151 299.098 363.258C298.256 371.914 296.154 415.422 295.06 446.787C294.76 455.416 294.332 467.323 294.111 473.247C293.89 479.17 293.296 496.875 292.791 512.591L291.873 541.165L290.711 543.18C287.854 548.14 283.892 547.249 279.284 540.61C278.071 538.862 278.038 538.673 278.743 537.499C280.196 535.084 280.878 529.924 282.855 506.331C291.199 406.846 293.24 346.78 288.255 347.418C287.325 347.535 283.866 400.021 278.995 487.9C275.981 542.295 276.37 538.772 273.623 536.409C272.918 535.801 271.052 533.935 269.48 532.263C267.907 530.592 265.068 527.758 263.172 525.967C257.065 520.198 256.287 517.953 256.956 508.025C257.569 498.897 257.947 497.518 260.482 495.094C263.442 492.262 263.366 491.234 259.992 488.473C257.535 486.461 257.348 485.691 259.079 484.707C263.069 482.438 263.759 480.201 261.466 476.974C258.12 472.264 258.2 471.34 262.513 464.759C268.029 456.339 268.143 454.119 263.441 446.923C258.688 439.646 258.297 437.767 261.214 436.207C266.429 433.422 266.421 429.894 261.189 425.37L259.685 424.069L261.964 421.899C266.204 417.867 266.623 415.608 264.065 410.595C263.173 408.844 262.361 406.458 262.261 405.29C261.894 400.911 261.715 389.365 261.943 384.852C262.869 366.645 262.385 364.462 257.354 364.145C254.897 363.99 254.902 361.653 257.405 341.501C258.739 330.768 254.707 337.39 250.184 353.366C248.39 359.709 227.826 395.802 172.496 489.735L161.706 508.055L156.04 509.931C148.158 512.542 146.578 512.144 150.022 508.411C154.476 503.585 162.6 490.754 171.237 474.908C172.182 473.175 179.043 461.251 186.48 448.411C218.242 393.59 231.733 369.424 238.509 355.211C243.402 344.952 244.469 341.271 242.588 341.153C241.966 341.113 241.141 341.869 240.072 343.458C238.536 345.741 176.401 452.678 176.376 453.082C176.369 453.192 172.83 459.472 168.511 467.034C154.116 492.244 148.746 502.482 147.397 507.279C146.199 511.538 140.908 511.927 138.385 507.94C135.858 503.948 135.726 501.1 137.984 499.194C141.527 496.2 145.425 489.757 186.665 418.73C232.697 339.454 234.626 335.957 232.417 335.817C230.271 335.682 228.662 337.979 213.495 362.814C179.88 417.852 135.224 494.84 135.045 498.062C134.992 499.012 134.149 498.677 133.435 497.423C131.927 494.77 128.292 477.503 128.318 473.113L128.342 468.89L131.953 462.915C136.982 454.589 138.336 452.99 140.58 452.73C144.734 452.243 145.896 450.937 145.582 447.101C145.236 442.873 145.255 442.799 146.785 442.241C151.34 440.578 151.539 440.161 150.258 434.953L149.406 431.489L150.867 430.14C151.669 429.397 154.841 427.448 157.913 425.806C167.463 420.708 168.135 419.58 167.844 409.12C167.627 401.223 167.981 400.18 171.299 398.998C175.445 397.522 176.383 395.336 174.615 391.258C173.38 388.404 173.694 387.966 177.996 386.522L181.83 385.233L181.926 382.522C181.98 381.03 182.072 378.229 182.133 376.297C182.308 370.659 185.34 364.338 194.59 350.328C203.158 337.353 203.613 335.544 199.245 331.821C192.649 326.195 193.751 322.484 206.868 306.193C210.366 301.852 210.268 302.439 208.269 297.751C188.951 252.42 216.355 200.567 263.658 192.942C273.379 191.375 287.545 191.977 295.261 194.288C297.723 195.025 301.41 195.248 301.809 194.684C302.886 193.166 300.465 191.3 296.212 190.37C290.617 189.148 290.499 188.927 292.797 184.097C302.424 163.85 315.645 148.359 336.192 133.251C356.885 118.034 376.386 112.142 390.325 116.893ZM406.085 160.284C405.675 162.018 405.012 163.943 404.611 164.563C403.675 166.009 403.699 165.595 404.753 162.087C405.226 160.514 405.776 158.633 405.977 157.905C406.718 155.241 406.806 157.227 406.085 160.284ZM407.274 170.052C409.484 173.74 409.856 180.71 408.042 184.39C405.213 190.138 396.216 193.4 390.706 190.677L389.079 189.873L390.62 188.325C394.285 184.646 398.785 177.387 401.719 170.412L403.577 165.998L404.812 167C405.491 167.55 406.599 168.925 407.274 170.052ZM345.476 217.744C345.285 218.314 344.264 221.618 343.205 225.09L341.282 231.399L336.219 233.419C316.625 241.228 302.069 239.859 291.756 229.234C288.633 226.019 287.416 225.63 287.279 227.802C286.899 233.828 298.95 242.35 308.764 242.997C313.471 243.308 313.954 244.944 310.98 250.501C302.318 266.683 277.605 258.396 278.784 239.704C279.255 232.229 282.549 226.893 288.064 224.671C294.392 222.123 298.751 222.074 301.213 224.525C308.783 232.057 321.897 230.542 339.396 220.116C345.633 216.4 345.97 216.269 345.476 217.744ZM192.92 404.33C173.085 438.505 153.859 471.662 150.198 478.014C142.132 492.006 137.826 498.501 137.138 497.721C136.381 496.858 168.381 441.116 195.191 396.6C196.987 393.615 200.716 387.408 203.475 382.806C219.938 355.359 228.691 341.201 228.854 341.751C228.927 341.995 212.757 370.156 192.92 404.33ZM239.025 349.963C232.979 363.328 224.435 378.827 192.583 434.22C180.763 454.772 167.761 477.397 163.687 484.497C157.298 495.632 150.776 505.68 150.294 505.133C149.6 504.346 157.446 489.724 174.96 459.158C193.275 427.192 239.832 347.081 240.082 347.096C240.21 347.105 239.737 348.394 239.025 349.963ZM301.557 376.539C301.222 384.53 300.534 400.863 300.03 412.836C299.526 424.808 298.798 442.927 298.412 453.1C296.997 490.563 295.487 521.334 294.847 525.863L294.188 530.515L294.192 525.118C294.197 520.138 295.663 477.294 297.347 432.85C298.472 403.193 300.651 362.776 301.369 358.238L302.032 354.056L302.1 358.033C302.136 360.22 301.892 368.548 301.557 376.539ZM288.987 363.559C289.092 366.663 289.248 371.954 289.332 375.315C289.552 383.991 284.227 469.359 281.422 502.106C278.838 532.276 278.364 536.189 279.12 521.116C279.416 515.197 279.653 509.72 279.648 508.945C279.643 508.171 281.078 482.492 282.837 451.883C284.597 421.273 286.488 387.281 287.04 376.344C288.053 356.26 288.618 352.557 288.987 363.559Z"/>
</mask>
<path fill-rule="evenodd" clip-rule="evenodd" d="M377.334 113.596C352.541 114.714 315.505 141.793 297.308 172.11C287.888 187.805 287.59 189.884 294.504 191.665C297.92 192.545 299.359 193.126 297.882 193.033C297.517 193.01 295.452 192.556 293.291 192.028C274.913 187.522 251.517 191.387 235.839 201.52C204.004 222.091 192.044 261.008 206.285 297.689L207.924 301.911L203.674 307.381C191.749 322.719 190.902 325.803 196.934 331.929C201.601 336.666 201.77 335.879 193.231 349.069C181.837 366.67 180.417 369.897 180.328 378.413C180.281 382.958 180.142 384.151 179.666 384.121C175.322 383.847 170.939 388.041 172.57 390.906C174.52 394.336 174.07 396.185 171.028 397.267C166.402 398.914 165.764 400.427 166.063 409.052C166.383 418.404 165.797 419.474 158.048 423.677C147.915 429.17 147.113 430.084 148.364 434.735C149.478 438.872 149.365 439.848 147.74 440.13C143.715 440.832 142.886 442.028 143.748 445.891C144.524 449.362 144.134 450.262 141.645 450.725C138.518 451.307 137.68 451.707 136.227 453.309C134.999 454.666 130.003 462.314 127.761 466.272C124.534 471.973 129.908 500.203 134.275 500.478C134.679 500.504 134.858 501.127 134.788 502.271C134.429 508.228 140.293 514.038 144.828 512.216C146.47 511.557 146.54 511.566 147.163 512.589C148.024 514 149.764 513.837 156.382 511.72C163.338 509.495 161.89 511.305 176.369 486.706C227.327 400.129 250.205 359.951 251.834 354.174C253.893 346.869 256.317 340.632 255.121 345.717C254.852 346.85 254.399 351.386 254.11 355.792C253.502 365.129 253.702 365.792 257.203 366.013C260.287 366.207 260.761 367.169 260.6 372.913C259.81 401.625 260.076 407.384 262.378 411.284C264.721 415.253 264.352 417.466 260.804 420.688C257.543 423.652 257.498 425.034 260.583 427.357C264.477 430.29 264.391 431.604 260.102 434.757C256.108 437.695 256.374 439.244 262.532 448.875C265.755 453.915 265.781 455.921 262.686 460.938C261.462 462.926 259.789 465.648 258.972 466.988C256.653 470.787 256.697 473.174 259.145 476.598C261.612 480.051 261.545 480.737 258.508 482.97C255.048 485.513 255.163 486.922 259.107 490.212C261.214 491.974 261.186 492.188 258.524 494.698L256.331 496.763L255.634 502.295C253.855 516.408 254.806 520.448 261.38 526.723C262.963 528.233 266.203 531.449 268.58 533.868C270.964 536.295 273.635 538.561 274.542 538.926C275.556 539.333 277.247 540.866 278.97 542.942C283.204 548.036 286.916 549.465 290 547.186C290.781 546.609 291.806 546.199 292.283 546.274C292.875 546.365 295.106 544.377 299.29 540.032L305.43 533.656L306.603 521.249C308.132 505.037 311.514 451.629 314.327 399.187C317.372 342.4 316.431 345.56 333.202 335.848C349.454 326.437 355.756 320.174 363.058 306.176C368.294 296.138 368.119 294.334 361.926 294.502C357.048 294.633 357.153 294.543 352.701 302.237C342.746 319.447 334.748 326.488 321.449 329.749C317.678 330.673 317.863 330.778 318.049 327.842L318.211 325.271L287.589 323.339C263.421 321.814 256.952 321.531 256.895 321.99C256.856 322.311 256.757 324.1 256.674 325.965C256.502 329.93 256.473 329.94 252.915 327.225C244.724 320.975 235.151 308.146 229.7 296.113C216.119 266.129 227.035 228.282 254.458 210.284C276.781 195.633 311.188 195.384 335.298 209.7C340.503 212.788 341.248 213.07 341.318 211.969C341.555 208.201 321.201 198.013 307.988 195.288C306.779 195.038 305.791 194.776 305.795 194.708C305.976 191.84 317.695 172.781 324.272 164.658C342.129 142.6 375.047 124.36 386.37 130.244C394.93 134.692 394.71 150.463 385.9 163.85C380.06 172.719 379.827 175.628 384.278 184.057C386.129 187.561 385.579 188.216 383.253 185.276C380.325 181.574 378.931 177.444 379.208 173.287L379.44 169.781L383.226 164.491C389.476 155.756 392.418 146.735 389.934 143.917C386.529 140.05 371.084 139.003 368.989 142.497C367.066 145.701 360.856 164.525 356.212 181.224C352.121 195.929 351.709 197.358 349.092 205.886C347.629 210.654 346.386 213.922 345.91 214.244C325.872 227.897 309.401 231.082 301.828 222.768C299.298 219.992 290.261 220.82 285.033 224.311C275.605 230.605 273.843 245.18 281.503 253.511C291.735 264.64 307.262 262.966 313.198 250.09C316.099 243.795 314.849 241.52 308.248 241.096C303.052 240.764 295.133 236.819 291.405 232.709C288.801 229.836 288.962 228.95 291.61 231.593C301.915 241.887 318.771 242.917 338.654 234.472C340.207 233.812 341.537 233.342 341.611 233.429C341.686 233.515 340.245 239.193 338.412 246.048C326.91 289.007 326.594 287.243 346.43 290.888C366.517 294.58 371.419 294.033 372.509 287.978C373.084 284.785 373.046 284.759 376.468 290.819C403.215 338.172 403.971 339.252 410.706 339.698C414.649 339.961 415.629 339.448 444.684 321.917C459.579 312.932 474.932 303.675 478.803 301.352C482.672 299.026 486.764 296.548 487.895 295.845C490.579 294.174 497.117 290.28 507.376 284.239C531.56 270 532.429 268.321 523.089 253.944C517.94 246.015 498.836 211.956 497.947 209.119C497.785 208.602 498.359 208.497 500.587 208.638C505.732 208.962 506.052 208.475 509.017 195.764C516.078 165.505 518.602 168.305 476.508 159.719C465.421 157.458 455.935 155.482 455.429 155.328C454.858 155.156 451.681 150.372 447.07 142.741C435.395 123.417 434.382 122.588 427.793 126.971C426.092 128.103 423.337 129.856 421.668 130.866C415.973 134.318 415.96 134.477 420.788 142.66C425.435 150.535 425.6 150.309 416.331 148.867C410.063 147.892 409.618 147.878 408.684 148.624C407.817 149.314 407.532 149.225 407.671 148.312C407.936 146.568 407.301 136.915 406.741 134.188C403.864 120.195 393.406 112.873 377.334 113.596ZM390.325 116.893C401.58 120.732 406.69 130.946 405.629 147.495C404.748 161.279 397.994 177.8 389.556 186.808C386.262 190.322 386.27 190.28 388.94 191.812C395.97 195.844 407.291 191.796 410 184.281C411.999 178.735 411.081 171.869 407.782 167.723L406.232 165.771L407.049 163.307C407.501 161.95 408.154 158.593 408.503 155.846C409.352 149.155 408.843 149.526 415.681 150.591C427.656 152.459 428.223 151.737 422.428 141.953C417.921 134.34 417.442 135.652 426.961 129.59C434.377 124.866 433.864 124.482 445.513 143.581C449.792 150.598 453.468 156.463 453.679 156.612C453.89 156.762 463.727 158.872 475.54 161.303C513.987 169.215 512.011 168.323 510.92 177.28C509.892 185.737 505.293 204.696 503.97 205.948C502.835 207.017 498.767 206.917 495.782 205.748C493.547 204.87 493.929 205.732 504.378 225.07C511.992 239.16 516.598 247.209 520.536 253.313C530.31 268.457 530.218 268.66 507.244 282.28C502.719 284.963 497.427 288.115 495.483 289.283C493.539 290.451 486.889 294.446 480.706 298.16C456.747 312.551 446.947 318.448 431.648 327.673C414.177 338.209 412.899 338.757 408.768 337.499C404.478 336.193 401.409 331.496 380.514 294.233C372.188 279.385 372.693 279.823 371.179 286.146C370.166 290.372 369.371 291.186 365.967 291.492C363.116 291.746 350.249 290.022 341.902 288.263C329.12 285.572 329.103 288.101 342.22 238.543C350.497 207.272 350.087 208.786 352.95 198.854C354.302 194.163 356.617 186.081 358.096 180.892C364.744 157.582 369.73 143.649 371.858 142.438C374.324 141.035 387.286 143.106 388.601 145.114C390.395 147.851 386.843 156.758 380.525 165.355L378.078 168.684L377.781 173.396C377.423 179.074 378.451 182.185 382.107 186.469C386.439 191.544 389.094 188.515 385.549 182.546C381.802 176.236 382.006 172.271 386.388 166.232C391.994 158.508 393.532 154.371 394.055 145.592C395.459 122.028 375.835 121.21 344.228 143.516C328.771 154.423 314.492 171.915 305.603 190.833C303.128 196.103 303.052 195.927 308.337 197.194C310.818 197.787 313.774 198.626 314.908 199.059L316.971 199.846L315.118 199.455C267.358 189.387 227.734 215.714 222.454 261.028C219.773 284.029 230.945 310.946 249.812 326.936C257.359 333.333 258.253 333.382 258.396 327.423L258.5 323.147L287.353 324.845L316.206 326.546L316.177 329.245C316.15 331.633 316.267 331.971 317.18 332.16C319.849 332.713 333.747 327.612 332.804 326.426C332.625 326.204 332.73 326.185 333.034 326.387C333.721 326.843 336.601 325.047 336.246 324.384C336.095 324.099 336.219 324.065 336.547 324.297C338.336 325.564 349.543 311.819 355.432 301.137L358.005 296.467L360.214 296.304C365.909 295.886 365.951 295.992 362.802 302.639C355.801 317.415 348.555 324.993 332.861 333.954C313.921 344.768 315.8 335.443 309.618 449.348C307.881 481.386 306.584 501.382 305.414 514.234L303.721 532.811L298.88 537.899C293.182 543.888 293.252 543.894 294.787 537.495C296.137 531.873 298.157 503.575 299.316 474.044C299.638 465.804 300.513 444.42 301.26 426.525C304.125 357.741 304.393 348.253 303.559 344.882C302.594 340.989 300.368 350.151 299.098 363.258C298.256 371.914 296.154 415.422 295.06 446.787C294.76 455.416 294.332 467.323 294.111 473.247C293.89 479.17 293.296 496.875 292.791 512.591L291.873 541.165L290.711 543.18C287.854 548.14 283.892 547.249 279.284 540.61C278.071 538.862 278.038 538.673 278.743 537.499C280.196 535.084 280.878 529.924 282.855 506.331C291.199 406.846 293.24 346.78 288.255 347.418C287.325 347.535 283.866 400.021 278.995 487.9C275.981 542.295 276.37 538.772 273.623 536.409C272.918 535.801 271.052 533.935 269.48 532.263C267.907 530.592 265.068 527.758 263.172 525.967C257.065 520.198 256.287 517.953 256.956 508.025C257.569 498.897 257.947 497.518 260.482 495.094C263.442 492.262 263.366 491.234 259.992 488.473C257.535 486.461 257.348 485.691 259.079 484.707C263.069 482.438 263.759 480.201 261.466 476.974C258.12 472.264 258.2 471.34 262.513 464.759C268.029 456.339 268.143 454.119 263.441 446.923C258.688 439.646 258.297 437.767 261.214 436.207C266.429 433.422 266.421 429.894 261.189 425.37L259.685 424.069L261.964 421.899C266.204 417.867 266.623 415.608 264.065 410.595C263.173 408.844 262.361 406.458 262.261 405.29C261.894 400.911 261.715 389.365 261.943 384.852C262.869 366.645 262.385 364.462 257.354 364.145C254.897 363.99 254.902 361.653 257.405 341.501C258.739 330.768 254.707 337.39 250.184 353.366C248.39 359.709 227.826 395.802 172.496 489.735L161.706 508.055L156.04 509.931C148.158 512.542 146.578 512.144 150.022 508.411C154.476 503.585 162.6 490.754 171.237 474.908C172.182 473.175 179.043 461.251 186.48 448.411C218.242 393.59 231.733 369.424 238.509 355.211C243.402 344.952 244.469 341.271 242.588 341.153C241.966 341.113 241.141 341.869 240.072 343.458C238.536 345.741 176.401 452.678 176.376 453.082C176.369 453.192 172.83 459.472 168.511 467.034C154.116 492.244 148.746 502.482 147.397 507.279C146.199 511.538 140.908 511.927 138.385 507.94C135.858 503.948 135.726 501.1 137.984 499.194C141.527 496.2 145.425 489.757 186.665 418.73C232.697 339.454 234.626 335.957 232.417 335.817C230.271 335.682 228.662 337.979 213.495 362.814C179.88 417.852 135.224 494.84 135.045 498.062C134.992 499.012 134.149 498.677 133.435 497.423C131.927 494.77 128.292 477.503 128.318 473.113L128.342 468.89L131.953 462.915C136.982 454.589 138.336 452.99 140.58 452.73C144.734 452.243 145.896 450.937 145.582 447.101C145.236 442.873 145.255 442.799 146.785 442.241C151.34 440.578 151.539 440.161 150.258 434.953L149.406 431.489L150.867 430.14C151.669 429.397 154.841 427.448 157.913 425.806C167.463 420.708 168.135 419.58 167.844 409.12C167.627 401.223 167.981 400.18 171.299 398.998C175.445 397.522 176.383 395.336 174.615 391.258C173.38 388.404 173.694 387.966 177.996 386.522L181.83 385.233L181.926 382.522C181.98 381.03 182.072 378.229 182.133 376.297C182.308 370.659 185.34 364.338 194.59 350.328C203.158 337.353 203.613 335.544 199.245 331.821C192.649 326.195 193.751 322.484 206.868 306.193C210.366 301.852 210.268 302.439 208.269 297.751C188.951 252.42 216.355 200.567 263.658 192.942C273.379 191.375 287.545 191.977 295.261 194.288C297.723 195.025 301.41 195.248 301.809 194.684C302.886 193.166 300.465 191.3 296.212 190.37C290.617 189.148 290.499 188.927 292.797 184.097C302.424 163.85 315.645 148.359 336.192 133.251C356.885 118.034 376.386 112.142 390.325 116.893ZM406.085 160.284C405.675 162.018 405.012 163.943 404.611 164.563C403.675 166.009 403.699 165.595 404.753 162.087C405.226 160.514 405.776 158.633 405.977 157.905C406.718 155.241 406.806 157.227 406.085 160.284ZM407.274 170.052C409.484 173.74 409.856 180.71 408.042 184.39C405.213 190.138 396.216 193.4 390.706 190.677L389.079 189.873L390.62 188.325C394.285 184.646 398.785 177.387 401.719 170.412L403.577 165.998L404.812 167C405.491 167.55 406.599 168.925 407.274 170.052ZM345.476 217.744C345.285 218.314 344.264 221.618 343.205 225.09L341.282 231.399L336.219 233.419C316.625 241.228 302.069 239.859 291.756 229.234C288.633 226.019 287.416 225.63 287.279 227.802C286.899 233.828 298.95 242.35 308.764 242.997C313.471 243.308 313.954 244.944 310.98 250.501C302.318 266.683 277.605 258.396 278.784 239.704C279.255 232.229 282.549 226.893 288.064 224.671C294.392 222.123 298.751 222.074 301.213 224.525C308.783 232.057 321.897 230.542 339.396 220.116C345.633 216.4 345.97 216.269 345.476 217.744ZM192.92 404.33C173.085 438.505 153.859 471.662 150.198 478.014C142.132 492.006 137.826 498.501 137.138 497.721C136.381 496.858 168.381 441.116 195.191 396.6C196.987 393.615 200.716 387.408 203.475 382.806C219.938 355.359 228.691 341.201 228.854 341.751C228.927 341.995 212.757 370.156 192.92 404.33ZM239.025 349.963C232.979 363.328 224.435 378.827 192.583 434.22C180.763 454.772 167.761 477.397 163.687 484.497C157.298 495.632 150.776 505.68 150.294 505.133C149.6 504.346 157.446 489.724 174.96 459.158C193.275 427.192 239.832 347.081 240.082 347.096C240.21 347.105 239.737 348.394 239.025 349.963ZM301.557 376.539C301.222 384.53 300.534 400.863 300.03 412.836C299.526 424.808 298.798 442.927 298.412 453.1C296.997 490.563 295.487 521.334 294.847 525.863L294.188 530.515L294.192 525.118C294.197 520.138 295.663 477.294 297.347 432.85C298.472 403.193 300.651 362.776 301.369 358.238L302.032 354.056L302.1 358.033C302.136 360.22 301.892 368.548 301.557 376.539ZM288.987 363.559C289.092 366.663 289.248 371.954 289.332 375.315C289.552 383.991 284.227 469.359 281.422 502.106C278.838 532.276 278.364 536.189 279.12 521.116C279.416 515.197 279.653 509.72 279.648 508.945C279.643 508.171 281.078 482.492 282.837 451.883C284.597 421.273 286.488 387.281 287.04 376.344C288.053 356.26 288.618 352.557 288.987 363.559Z" fill="#103E2E"/>
<path fill-rule="evenodd" clip-rule="evenodd" d="M377.334 113.596C352.541 114.714 315.505 141.793 297.308 172.11C287.888 187.805 287.59 189.884 294.504 191.665C297.92 192.545 299.359 193.126 297.882 193.033C297.517 193.01 295.452 192.556 293.291 192.028C274.913 187.522 251.517 191.387 235.839 201.52C204.004 222.091 192.044 261.008 206.285 297.689L207.924 301.911L203.674 307.381C191.749 322.719 190.902 325.803 196.934 331.929C201.601 336.666 201.77 335.879 193.231 349.069C181.837 366.67 180.417 369.897 180.328 378.413C180.281 382.958 180.142 384.151 179.666 384.121C175.322 383.847 170.939 388.041 172.57 390.906C174.52 394.336 174.07 396.185 171.028 397.267C166.402 398.914 165.764 400.427 166.063 409.052C166.383 418.404 165.797 419.474 158.048 423.677C147.915 429.17 147.113 430.084 148.364 434.735C149.478 438.872 149.365 439.848 147.74 440.13C143.715 440.832 142.886 442.028 143.748 445.891C144.524 449.362 144.134 450.262 141.645 450.725C138.518 451.307 137.68 451.707 136.227 453.309C134.999 454.666 130.003 462.314 127.761 466.272C124.534 471.973 129.908 500.203 134.275 500.478C134.679 500.504 134.858 501.127 134.788 502.271C134.429 508.228 140.293 514.038 144.828 512.216C146.47 511.557 146.54 511.566 147.163 512.589C148.024 514 149.764 513.837 156.382 511.72C163.338 509.495 161.89 511.305 176.369 486.706C227.327 400.129 250.205 359.951 251.834 354.174C253.893 346.869 256.317 340.632 255.121 345.717C254.852 346.85 254.399 351.386 254.11 355.792C253.502 365.129 253.702 365.792 257.203 366.013C260.287 366.207 260.761 367.169 260.6 372.913C259.81 401.625 260.076 407.384 262.378 411.284C264.721 415.253 264.352 417.466 260.804 420.688C257.543 423.652 257.498 425.034 260.583 427.357C264.477 430.29 264.391 431.604 260.102 434.757C256.108 437.695 256.374 439.244 262.532 448.875C265.755 453.915 265.781 455.921 262.686 460.938C261.462 462.926 259.789 465.648 258.972 466.988C256.653 470.787 256.697 473.174 259.145 476.598C261.612 480.051 261.545 480.737 258.508 482.97C255.048 485.513 255.163 486.922 259.107 490.212C261.214 491.974 261.186 492.188 258.524 494.698L256.331 496.763L255.634 502.295C253.855 516.408 254.806 520.448 261.38 526.723C262.963 528.233 266.203 531.449 268.58 533.868C270.964 536.295 273.635 538.561 274.542 538.926C275.556 539.333 277.247 540.866 278.97 542.942C283.204 548.036 286.916 549.465 290 547.186C290.781 546.609 291.806 546.199 292.283 546.274C292.875 546.365 295.106 544.377 299.29 540.032L305.43 533.656L306.603 521.249C308.132 505.037 311.514 451.629 314.327 399.187C317.372 342.4 316.431 345.56 333.202 335.848C349.454 326.437 355.756 320.174 363.058 306.176C368.294 296.138 368.119 294.334 361.926 294.502C357.048 294.633 357.153 294.543 352.701 302.237C342.746 319.447 334.748 326.488 321.449 329.749C317.678 330.673 317.863 330.778 318.049 327.842L318.211 325.271L287.589 323.339C263.421 321.814 256.952 321.531 256.895 321.99C256.856 322.311 256.757 324.1 256.674 325.965C256.502 329.93 256.473 329.94 252.915 327.225C244.724 320.975 235.151 308.146 229.7 296.113C216.119 266.129 227.035 228.282 254.458 210.284C276.781 195.633 311.188 195.384 335.298 209.7C340.503 212.788 341.248 213.07 341.318 211.969C341.555 208.201 321.201 198.013 307.988 195.288C306.779 195.038 305.791 194.776 305.795 194.708C305.976 191.84 317.695 172.781 324.272 164.658C342.129 142.6 375.047 124.36 386.37 130.244C394.93 134.692 394.71 150.463 385.9 163.85C380.06 172.719 379.827 175.628 384.278 184.057C386.129 187.561 385.579 188.216 383.253 185.276C380.325 181.574 378.931 177.444 379.208 173.287L379.44 169.781L383.226 164.491C389.476 155.756 392.418 146.735 389.934 143.917C386.529 140.05 371.084 139.003 368.989 142.497C367.066 145.701 360.856 164.525 356.212 181.224C352.121 195.929 351.709 197.358 349.092 205.886C347.629 210.654 346.386 213.922 345.91 214.244C325.872 227.897 309.401 231.082 301.828 222.768C299.298 219.992 290.261 220.82 285.033 224.311C275.605 230.605 273.843 245.18 281.503 253.511C291.735 264.64 307.262 262.966 313.198 250.09C316.099 243.795 314.849 241.52 308.248 241.096C303.052 240.764 295.133 236.819 291.405 232.709C288.801 229.836 288.962 228.95 291.61 231.593C301.915 241.887 318.771 242.917 338.654 234.472C340.207 233.812 341.537 233.342 341.611 233.429C341.686 233.515 340.245 239.193 338.412 246.048C326.91 289.007 326.594 287.243 346.43 290.888C366.517 294.58 371.419 294.033 372.509 287.978C373.084 284.785 373.046 284.759 376.468 290.819C403.215 338.172 403.971 339.252 410.706 339.698C414.649 339.961 415.629 339.448 444.684 321.917C459.579 312.932 474.932 303.675 478.803 301.352C482.672 299.026 486.764 296.548 487.895 295.845C490.579 294.174 497.117 290.28 507.376 284.239C531.56 270 532.429 268.321 523.089 253.944C517.94 246.015 498.836 211.956 497.947 209.119C497.785 208.602 498.359 208.497 500.587 208.638C505.732 208.962 506.052 208.475 509.017 195.764C516.078 165.505 518.602 168.305 476.508 159.719C465.421 157.458 455.935 155.482 455.429 155.328C454.858 155.156 451.681 150.372 447.07 142.741C435.395 123.417 434.382 122.588 427.793 126.971C426.092 128.103 423.337 129.856 421.668 130.866C415.973 134.318 415.96 134.477 420.788 142.66C425.435 150.535 425.6 150.309 416.331 148.867C410.063 147.892 409.618 147.878 408.684 148.624C407.817 149.314 407.532 149.225 407.671 148.312C407.936 146.568 407.301 136.915 406.741 134.188C403.864 120.195 393.406 112.873 377.334 113.596ZM390.325 116.893C401.58 120.732 406.69 130.946 405.629 147.495C404.748 161.279 397.994 177.8 389.556 186.808C386.262 190.322 386.27 190.28 388.94 191.812C395.97 195.844 407.291 191.796 410 184.281C411.999 178.735 411.081 171.869 407.782 167.723L406.232 165.771L407.049 163.307C407.501 161.95 408.154 158.593 408.503 155.846C409.352 149.155 408.843 149.526 415.681 150.591C427.656 152.459 428.223 151.737 422.428 141.953C417.921 134.34 417.442 135.652 426.961 129.59C434.377 124.866 433.864 124.482 445.513 143.581C449.792 150.598 453.468 156.463 453.679 156.612C453.89 156.762 463.727 158.872 475.54 161.303C513.987 169.215 512.011 168.323 510.92 177.28C509.892 185.737 505.293 204.696 503.97 205.948C502.835 207.017 498.767 206.917 495.782 205.748C493.547 204.87 493.929 205.732 504.378 225.07C511.992 239.16 516.598 247.209 520.536 253.313C530.31 268.457 530.218 268.66 507.244 282.28C502.719 284.963 497.427 288.115 495.483 289.283C493.539 290.451 486.889 294.446 480.706 298.16C456.747 312.551 446.947 318.448 431.648 327.673C414.177 338.209 412.899 338.757 408.768 337.499C404.478 336.193 401.409 331.496 380.514 294.233C372.188 279.385 372.693 279.823 371.179 286.146C370.166 290.372 369.371 291.186 365.967 291.492C363.116 291.746 350.249 290.022 341.902 288.263C329.12 285.572 329.103 288.101 342.22 238.543C350.497 207.272 350.087 208.786 352.95 198.854C354.302 194.163 356.617 186.081 358.096 180.892C364.744 157.582 369.73 143.649 371.858 142.438C374.324 141.035 387.286 143.106 388.601 145.114C390.395 147.851 386.843 156.758 380.525 165.355L378.078 168.684L377.781 173.396C377.423 179.074 378.451 182.185 382.107 186.469C386.439 191.544 389.094 188.515 385.549 182.546C381.802 176.236 382.006 172.271 386.388 166.232C391.994 158.508 393.532 154.371 394.055 145.592C395.459 122.028 375.835 121.21 344.228 143.516C328.771 154.423 314.492 171.915 305.603 190.833C303.128 196.103 303.052 195.927 308.337 197.194C310.818 197.787 313.774 198.626 314.908 199.059L316.971 199.846L315.118 199.455C267.358 189.387 227.734 215.714 222.454 261.028C219.773 284.029 230.945 310.946 249.812 326.936C257.359 333.333 258.253 333.382 258.396 327.423L258.5 323.147L287.353 324.845L316.206 326.546L316.177 329.245C316.15 331.633 316.267 331.971 317.18 332.16C319.849 332.713 333.747 327.612 332.804 326.426C332.625 326.204 332.73 326.185 333.034 326.387C333.721 326.843 336.601 325.047 336.246 324.384C336.095 324.099 336.219 324.065 336.547 324.297C338.336 325.564 349.543 311.819 355.432 301.137L358.005 296.467L360.214 296.304C365.909 295.886 365.951 295.992 362.802 302.639C355.801 317.415 348.555 324.993 332.861 333.954C313.921 344.768 315.8 335.443 309.618 449.348C307.881 481.386 306.584 501.382 305.414 514.234L303.721 532.811L298.88 537.899C293.182 543.888 293.252 543.894 294.787 537.495C296.137 531.873 298.157 503.575 299.316 474.044C299.638 465.804 300.513 444.42 301.26 426.525C304.125 357.741 304.393 348.253 303.559 344.882C302.594 340.989 300.368 350.151 299.098 363.258C298.256 371.914 296.154 415.422 295.06 446.787C294.76 455.416 294.332 467.323 294.111 473.247C293.89 479.17 293.296 496.875 292.791 512.591L291.873 541.165L290.711 543.18C287.854 548.14 283.892 547.249 279.284 540.61C278.071 538.862 278.038 538.673 278.743 537.499C280.196 535.084 280.878 529.924 282.855 506.331C291.199 406.846 293.24 346.78 288.255 347.418C287.325 347.535 283.866 400.021 278.995 487.9C275.981 542.295 276.37 538.772 273.623 536.409C272.918 535.801 271.052 533.935 269.48 532.263C267.907 530.592 265.068 527.758 263.172 525.967C257.065 520.198 256.287 517.953 256.956 508.025C257.569 498.897 257.947 497.518 260.482 495.094C263.442 492.262 263.366 491.234 259.992 488.473C257.535 486.461 257.348 485.691 259.079 484.707C263.069 482.438 263.759 480.201 261.466 476.974C258.12 472.264 258.2 471.34 262.513 464.759C268.029 456.339 268.143 454.119 263.441 446.923C258.688 439.646 258.297 437.767 261.214 436.207C266.429 433.422 266.421 429.894 261.189 425.37L259.685 424.069L261.964 421.899C266.204 417.867 266.623 415.608 264.065 410.595C263.173 408.844 262.361 406.458 262.261 405.29C261.894 400.911 261.715 389.365 261.943 384.852C262.869 366.645 262.385 364.462 257.354 364.145C254.897 363.99 254.902 361.653 257.405 341.501C258.739 330.768 254.707 337.39 250.184 353.366C248.39 359.709 227.826 395.802 172.496 489.735L161.706 508.055L156.04 509.931C148.158 512.542 146.578 512.144 150.022 508.411C154.476 503.585 162.6 490.754 171.237 474.908C172.182 473.175 179.043 461.251 186.48 448.411C218.242 393.59 231.733 369.424 238.509 355.211C243.402 344.952 244.469 341.271 242.588 341.153C241.966 341.113 241.141 341.869 240.072 343.458C238.536 345.741 176.401 452.678 176.376 453.082C176.369 453.192 172.83 459.472 168.511 467.034C154.116 492.244 148.746 502.482 147.397 507.279C146.199 511.538 140.908 511.927 138.385 507.94C135.858 503.948 135.726 501.1 137.984 499.194C141.527 496.2 145.425 489.757 186.665 418.73C232.697 339.454 234.626 335.957 232.417 335.817C230.271 335.682 228.662 337.979 213.495 362.814C179.88 417.852 135.224 494.84 135.045 498.062C134.992 499.012 134.149 498.677 133.435 497.423C131.927 494.77 128.292 477.503 128.318 473.113L128.342 468.89L131.953 462.915C136.982 454.589 138.336 452.99 140.58 452.73C144.734 452.243 145.896 450.937 145.582 447.101C145.236 442.873 145.255 442.799 146.785 442.241C151.34 440.578 151.539 440.161 150.258 434.953L149.406 431.489L150.867 430.14C151.669 429.397 154.841 427.448 157.913 425.806C167.463 420.708 168.135 419.58 167.844 409.12C167.627 401.223 167.981 400.18 171.299 398.998C175.445 397.522 176.383 395.336 174.615 391.258C173.38 388.404 173.694 387.966 177.996 386.522L181.83 385.233L181.926 382.522C181.98 381.03 182.072 378.229 182.133 376.297C182.308 370.659 185.34 364.338 194.59 350.328C203.158 337.353 203.613 335.544 199.245 331.821C192.649 326.195 193.751 322.484 206.868 306.193C210.366 301.852 210.268 302.439 208.269 297.751C188.951 252.42 216.355 200.567 263.658 192.942C273.379 191.375 287.545 191.977 295.261 194.288C297.723 195.025 301.41 195.248 301.809 194.684C302.886 193.166 300.465 191.3 296.212 190.37C290.617 189.148 290.499 188.927 292.797 184.097C302.424 163.85 315.645 148.359 336.192 133.251C356.885 118.034 376.386 112.142 390.325 116.893ZM406.085 160.284C405.675 162.018 405.012 163.943 404.611 164.563C403.675 166.009 403.699 165.595 404.753 162.087C405.226 160.514 405.776 158.633 405.977 157.905C406.718 155.241 406.806 157.227 406.085 160.284ZM407.274 170.052C409.484 173.74 409.856 180.71 408.042 184.39C405.213 190.138 396.216 193.4 390.706 190.677L389.079 189.873L390.62 188.325C394.285 184.646 398.785 177.387 401.719 170.412L403.577 165.998L404.812 167C405.491 167.55 406.599 168.925 407.274 170.052ZM345.476 217.744C345.285 218.314 344.264 221.618 343.205 225.09L341.282 231.399L336.219 233.419C316.625 241.228 302.069 239.859 291.756 229.234C288.633 226.019 287.416 225.63 287.279 227.802C286.899 233.828 298.95 242.35 308.764 242.997C313.471 243.308 313.954 244.944 310.98 250.501C302.318 266.683 277.605 258.396 278.784 239.704C279.255 232.229 282.549 226.893 288.064 224.671C294.392 222.123 298.751 222.074 301.213 224.525C308.783 232.057 321.897 230.542 339.396 220.116C345.633 216.4 345.97 216.269 345.476 217.744ZM192.92 404.33C173.085 438.505 153.859 471.662 150.198 478.014C142.132 492.006 137.826 498.501 137.138 497.721C136.381 496.858 168.381 441.116 195.191 396.6C196.987 393.615 200.716 387.408 203.475 382.806C219.938 355.359 228.691 341.201 228.854 341.751C228.927 341.995 212.757 370.156 192.92 404.33ZM239.025 349.963C232.979 363.328 224.435 378.827 192.583 434.22C180.763 454.772 167.761 477.397 163.687 484.497C157.298 495.632 150.776 505.68 150.294 505.133C149.6 504.346 157.446 489.724 174.96 459.158C193.275 427.192 239.832 347.081 240.082 347.096C240.21 347.105 239.737 348.394 239.025 349.963ZM301.557 376.539C301.222 384.53 300.534 400.863 300.03 412.836C299.526 424.808 298.798 442.927 298.412 453.1C296.997 490.563 295.487 521.334 294.847 525.863L294.188 530.515L294.192 525.118C294.197 520.138 295.663 477.294 297.347 432.85C298.472 403.193 300.651 362.776 301.369 358.238L302.032 354.056L302.1 358.033C302.136 360.22 301.892 368.548 301.557 376.539ZM288.987 363.559C289.092 366.663 289.248 371.954 289.332 375.315C289.552 383.991 284.227 469.359 281.422 502.106C278.838 532.276 278.364 536.189 279.12 521.116C279.416 515.197 279.653 509.72 279.648 508.945C279.643 508.171 281.078 482.492 282.837 451.883C284.597 421.273 286.488 387.281 287.04 376.344C288.053 356.26 288.618 352.557 288.987 363.559Z" stroke="#103E2E" stroke-width="3" mask="url(#path-2-outside-2_314_445)"/>
</g>
<defs>
<filter id="filter0_d_314_445" x="0.776367" y="0.794434" width="633.818" height="673.434" filterUnits="userSpaceOnUse" color-interpolation-filters="sRGB">
<feFlood flood-opacity="0" result="BackgroundImageFix"/>
<feColorMatrix in="SourceAlpha" type="matrix" values="0 0 0 0 0 0 0 0 0 0 0 0 0 0 0 0 0 0 127 0" result="hardAlpha"/>
<feOffset dx="-10" dy="10"/>
<feGaussianBlur stdDeviation="10"/>
<feComposite in2="hardAlpha" operator="out"/>
<feColorMatrix type="matrix" values="0 0 0 0 0 0 0 0 0 0 0 0 0 0 0 0 0 0 0.2 0"/>
<feBlend mode="normal" in2="BackgroundImageFix" result="effect1_dropShadow_314_445"/>
<feBlend mode="normal" in="SourceGraphic" in2="effect1_dropShadow_314_445" result="shape"/>
</filter>
</defs>
</svg>
