<svg xmlns="http://www.w3.org/2000/svg" width="635" height="675" fill="none" viewBox="0 0 635 675"><g filter="url(#a)"><mask id="b" width="620.018" height="673.316" x="20.715" y="-8.842" fill="#000" maskUnits="userSpaceOnUse"><path fill="#fff" d="M20.715-8.842h620.018v673.316H20.715z"/><path fill-rule="evenodd" d="M377.334 113.596c-24.793 1.118-61.829 28.197-80.026 58.514-9.42 15.695-9.718 17.774-2.804 19.555 3.416.88 4.855 1.461 3.378 1.368-.365-.023-2.43-.477-4.591-1.005-18.378-4.506-41.774-.641-57.452 9.492-31.835 20.571-43.795 59.488-29.554 96.169l1.639 4.222-4.25 5.47c-11.925 15.338-12.772 18.422-6.74 24.548 4.667 4.737 4.836 3.95-3.703 17.14-11.394 17.601-12.814 20.828-12.903 29.344-.047 4.545-.186 5.738-.662 5.708-4.344-.274-8.727 3.92-7.096 6.785 1.95 3.43 1.5 5.279-1.542 6.361-4.626 1.647-5.264 3.16-4.965 11.785.32 9.352-.266 10.422-8.015 14.625-10.133 5.493-10.935 6.407-9.684 11.058 1.114 4.137 1.001 5.113-.624 5.395-4.025.702-4.854 1.898-3.992 5.761.776 3.471.386 4.371-2.103 4.834-3.127.582-3.965.982-5.418 2.584-1.228 1.357-6.224 9.005-8.466 12.963-3.227 5.701 2.147 33.931 6.514 34.206.404.026.583.649.513 1.793-.359 5.957 5.505 11.767 10.04 9.945 1.642-.659 1.712-.65 2.335.373.861 1.411 2.601 1.248 9.219-.869 6.956-2.225 5.508-.415 19.987-25.014 50.958-86.577 73.836-126.755 75.465-132.532 2.059-7.305 4.483-13.542 3.287-8.457-.269 1.133-.722 5.669-1.011 10.075-.608 9.337-.408 10 3.093 10.221 3.084.194 3.558 1.156 3.397 6.9-.79 28.712-.524 34.471 1.778 38.371 2.343 3.969 1.974 6.182-1.574 9.404-3.261 2.964-3.306 4.346-.221 6.669 3.894 2.933 3.808 4.247-.481 7.4-3.994 2.938-3.728 4.487 2.43 14.118 3.223 5.04 3.249 7.046.154 12.063-1.224 1.988-2.897 4.71-3.714 6.05-2.319 3.799-2.275 6.186.173 9.61 2.467 3.453 2.4 4.139-.637 6.372-3.46 2.543-3.345 3.952.599 7.242 2.107 1.762 2.079 1.976-.583 4.486l-2.193 2.065-.697 5.532c-1.779 14.113-.828 18.153 5.746 24.428 1.583 1.51 4.823 4.726 7.2 7.145 2.384 2.427 5.055 4.693 5.962 5.058 1.014.407 2.705 1.94 4.428 4.016 4.234 5.094 7.946 6.523 11.03 4.244.781-.577 1.806-.987 2.283-.912.592.091 2.823-1.897 7.007-6.242l6.14-6.376 1.173-12.407c1.529-16.212 4.911-69.62 7.724-122.062 3.045-56.787 2.104-53.627 18.875-63.339 16.252-9.411 22.554-15.674 29.856-29.672 5.236-10.038 5.061-11.842-1.132-11.674-4.878.131-4.773.041-9.225 7.735-9.955 17.21-17.953 24.251-31.252 27.512-3.771.924-3.586 1.029-3.4-1.907l.162-2.571-30.622-1.932c-24.168-1.525-30.637-1.808-30.694-1.349-.039.321-.138 2.11-.221 3.975-.172 3.965-.201 3.975-3.759 1.26-8.191-6.25-17.764-19.079-23.215-31.112-13.581-29.984-2.665-67.831 24.758-85.829 22.323-14.651 56.73-14.9 80.84-.584 5.205 3.088 5.95 3.37 6.02 2.269.237-3.768-20.117-13.956-33.33-16.681-1.209-.25-2.197-.512-2.193-.58.181-2.868 11.9-21.927 18.477-30.05 17.857-22.058 50.775-40.298 62.098-34.414 8.56 4.448 8.34 20.219-.47 33.606-5.84 8.869-6.073 11.778-1.622 20.207 1.851 3.504 1.301 4.159-1.025 1.219-2.928-3.702-4.322-7.832-4.045-11.989l.232-3.506 3.786-5.29c6.25-8.735 9.192-17.756 6.708-20.574-3.405-3.867-18.85-4.914-20.945-1.42-1.923 3.204-8.133 22.028-12.777 38.727-4.091 14.705-4.503 16.134-7.12 24.662-1.463 4.768-2.706 8.036-3.182 8.358-20.038 13.653-36.509 16.838-44.082 8.524-2.53-2.776-11.567-1.948-16.795 1.543-9.428 6.294-11.19 20.869-3.53 29.2 10.232 11.129 25.759 9.455 31.695-3.421 2.901-6.295 1.651-8.57-4.95-8.994-5.196-.332-13.115-4.277-16.843-8.387-2.604-2.873-2.443-3.759.205-1.116 10.305 10.294 27.161 11.324 47.044 2.879 1.553-.66 2.883-1.13 2.957-1.043.075.086-1.366 5.764-3.199 12.619-11.502 42.959-11.818 41.195 8.018 44.84 20.087 3.692 24.989 3.145 26.079-2.91.575-3.193.537-3.219 3.959 2.841 26.747 47.353 27.503 48.433 34.238 48.879 3.943.263 4.923-.25 33.978-17.781a33493 33493 0 0 1 34.119-20.565c3.869-2.326 7.961-4.804 9.092-5.507 2.684-1.671 9.222-5.565 19.481-11.606 24.184-14.239 25.053-15.918 15.713-30.295-5.149-7.929-24.253-41.988-25.142-44.825-.162-.517.412-.622 2.64-.481 5.145.324 5.465-.163 8.43-12.874 7.061-30.259 9.585-27.459-32.509-36.045-11.087-2.261-20.573-4.237-21.079-4.391-.571-.172-3.748-4.956-8.359-12.587-11.675-19.324-12.688-20.153-19.277-15.77a205 205 0 0 1-6.125 3.895c-5.695 3.452-5.708 3.611-.88 11.794 4.647 7.875 4.812 7.649-4.457 6.207-6.268-.975-6.713-.989-7.647-.243-.867.69-1.152.601-1.013-.312.265-1.744-.37-11.397-.93-14.124-2.877-13.993-13.335-21.315-29.407-20.592m12.991 3.297c11.255 3.839 16.365 14.053 15.304 30.602-.881 13.784-7.635 30.305-16.073 39.313-3.294 3.514-3.286 3.472-.616 5.004 7.03 4.032 18.351-.016 21.06-7.531 1.999-5.546 1.081-12.412-2.218-16.558l-1.55-1.952.817-2.464c.452-1.357 1.105-4.714 1.454-7.461.849-6.691.34-6.32 7.178-5.255 11.975 1.868 12.542 1.146 6.747-8.638-4.507-7.613-4.986-6.301 4.533-12.363 7.416-4.724 6.903-5.108 18.552 13.991 4.279 7.017 7.955 12.882 8.166 13.031s10.048 2.26 21.861 4.691c38.447 7.912 36.471 7.02 35.38 15.977-1.028 8.457-5.627 27.416-6.95 28.668-1.135 1.069-5.203.969-8.188-.2-2.235-.878-1.853-.016 8.596 19.322 7.614 14.09 12.22 22.139 16.158 28.243 9.774 15.144 9.682 15.347-13.292 28.967a3239 3239 0 0 0-11.761 7.003l-14.777 8.877a28600 28600 0 0 0-49.058 29.513c-17.471 10.536-18.749 11.084-22.88 9.826-4.29-1.306-7.359-6.003-28.254-43.266-8.326-14.848-7.821-14.41-9.335-8.087-1.013 4.226-1.808 5.04-5.212 5.346-2.851.254-15.718-1.47-24.065-3.229-12.782-2.691-12.799-.162.318-49.72 8.277-31.271 7.867-29.757 10.73-39.689a7720 7720 0 0 0 5.146-17.962c6.648-23.31 11.634-37.243 13.762-38.454 2.466-1.403 15.428.668 16.743 2.676 1.794 2.737-1.758 11.644-8.076 20.241l-2.447 3.329-.297 4.712c-.358 5.678.67 8.789 4.326 13.073 4.332 5.075 6.987 2.046 3.442-3.923-3.747-6.31-3.543-10.275.839-16.314 5.606-7.724 7.144-11.861 7.667-20.64 1.404-23.564-18.22-24.382-49.827-2.076-15.457 10.907-29.736 28.399-38.625 47.317-2.475 5.27-2.551 5.094 2.734 6.361 2.481.593 5.437 1.432 6.571 1.865l2.063.787-1.853-.391c-47.76-10.068-87.384 16.259-92.664 61.573-2.681 23.001 8.491 49.918 27.358 65.908 7.547 6.397 8.441 6.446 8.584.487l.104-4.276 28.853 1.698 28.853 1.701-.029 2.699c-.027 2.388.09 2.726 1.003 2.915 2.669.553 16.567-4.548 15.624-5.734-.179-.222-.074-.241.23-.039.687.456 3.567-1.34 3.212-2.003-.151-.285-.027-.319.301-.087 1.789 1.267 12.996-12.478 18.885-23.16l2.573-4.67 2.209-.163c5.695-.418 5.737-.312 2.588 6.335-7.001 14.776-14.247 22.354-29.941 31.315-18.94 10.814-17.061 1.489-23.243 115.394-1.737 32.038-3.034 52.034-4.204 64.886l-1.693 18.577-4.841 5.088c-5.698 5.989-5.628 5.995-4.093-.404 1.35-5.622 3.37-33.92 4.529-63.451.322-8.24 1.197-29.624 1.944-47.519 2.865-68.784 3.133-78.272 2.299-81.643-.965-3.893-3.191 5.269-4.461 18.376-.842 8.656-2.944 52.164-4.038 83.529-.3 8.629-.728 20.536-.949 26.46s-.815 23.628-1.32 39.344l-.918 28.574-1.162 2.015c-2.857 4.96-6.819 4.069-11.427-2.57-1.213-1.748-1.246-1.937-.541-3.111 1.453-2.415 2.135-7.575 4.112-31.168 8.344-99.485 10.385-159.551 5.4-158.913-.93.117-4.389 52.603-9.26 140.482-3.014 54.395-2.625 50.872-5.372 48.509-.705-.608-2.571-2.474-4.143-4.146-1.573-1.671-4.412-4.505-6.308-6.296-6.107-5.769-6.885-8.014-6.216-17.942.613-9.128.991-10.507 3.526-12.931 2.96-2.832 2.884-3.86-.49-6.621-2.457-2.012-2.644-2.782-.913-3.766 3.99-2.269 4.68-4.506 2.387-7.733-3.346-4.71-3.266-5.634 1.047-12.215 5.516-8.42 5.63-10.64.928-17.836-4.753-7.277-5.144-9.156-2.227-10.716 5.215-2.785 5.207-6.313-.025-10.837l-1.504-1.301 2.279-2.17c4.24-4.032 4.659-6.291 2.101-11.304-.892-1.751-1.704-4.137-1.804-5.305-.367-4.379-.546-15.925-.318-20.438.926-18.207.442-20.39-4.589-20.707-2.457-.155-2.452-2.492.051-22.644 1.334-10.733-2.698-4.111-7.221 11.865-1.794 6.343-22.358 42.436-77.688 136.369l-10.79 18.32-5.666 1.876c-7.882 2.611-9.462 2.213-6.018-1.52 4.454-4.826 12.578-17.657 21.215-33.503.945-1.733 7.806-13.657 15.243-26.497 31.762-54.821 45.253-78.987 52.029-93.2 4.893-10.259 5.96-13.94 4.079-14.058-.622-.04-1.447.716-2.516 2.305-1.536 2.283-63.671 109.22-63.696 109.624-.007.11-3.546 6.39-7.865 13.952-14.395 25.21-19.765 35.448-21.114 40.245-1.198 4.259-6.489 4.648-9.012.661-2.527-3.992-2.659-6.84-.401-8.746 3.543-2.994 7.441-9.437 48.681-80.464 46.032-79.276 47.961-82.773 45.752-82.913-2.146-.135-3.755 2.162-18.922 26.997-33.615 55.038-78.271 132.026-78.45 135.248-.053.95-.896.615-1.61-.639-1.508-2.653-5.143-19.92-5.117-24.31l.024-4.223 3.611-5.975c5.029-8.326 6.383-9.925 8.627-10.185 4.154-.487 5.316-1.793 5.002-5.629-.346-4.228-.327-4.302 1.203-4.86 4.555-1.663 4.754-2.08 3.473-7.288l-.852-3.464 1.461-1.349c.802-.743 3.974-2.692 7.046-4.334 9.55-5.098 10.222-6.226 9.931-16.686-.217-7.897.137-8.94 3.455-10.122 4.146-1.476 5.084-3.662 3.316-7.74-1.235-2.854-.921-3.292 3.381-4.736l3.834-1.289.096-2.711c.054-1.492.146-4.293.207-6.225.175-5.638 3.207-11.959 12.457-25.969 8.568-12.975 9.023-14.784 4.655-18.507-6.596-5.626-5.494-9.337 7.623-25.628 3.498-4.341 3.4-3.754 1.401-8.442-19.318-45.331 8.086-97.184 55.389-104.809 9.721-1.567 23.887-.965 31.603 1.346 2.462.737 6.149.96 6.548.396 1.077-1.518-1.344-3.384-5.597-4.314-5.595-1.222-5.713-1.443-3.415-6.273 9.627-20.247 22.848-35.738 43.395-50.846 20.693-15.217 40.194-21.109 54.133-16.358m15.76 43.391c-.41 1.734-1.073 3.659-1.474 4.279-.936 1.446-.912 1.032.142-2.476a261 261 0 0 0 1.224-4.182c.741-2.664.829-.678.108 2.379m1.189 9.768c2.21 3.688 2.582 10.658.768 14.338-2.829 5.748-11.826 9.01-17.336 6.287l-1.627-.804 1.541-1.548c3.665-3.679 8.165-10.938 11.099-17.913l1.858-4.414 1.235 1.002c.679.55 1.787 1.925 2.462 3.052m-61.798 47.692c-.191.57-1.212 3.874-2.271 7.346l-1.923 6.309-5.063 2.02c-19.594 7.809-34.15 6.44-44.463-4.185-3.123-3.215-4.34-3.604-4.477-1.432-.38 6.026 11.671 14.548 21.485 15.195 4.707.311 5.19 1.947 2.216 7.504-8.662 16.182-33.375 7.895-32.196-10.797.471-7.475 3.765-12.811 9.28-15.033 6.328-2.548 10.687-2.597 13.149-.146 7.57 7.532 20.684 6.017 38.183-4.409 6.237-3.716 6.574-3.847 6.08-2.372M192.92 404.33c-19.835 34.175-39.061 67.332-42.722 73.684-8.066 13.992-12.372 20.487-13.06 19.707-.757-.863 31.243-56.605 58.053-101.121 1.796-2.985 5.525-9.192 8.284-13.794 16.463-27.447 25.216-41.605 25.379-41.055.073.244-16.097 28.405-35.934 62.579m46.105-54.367c-6.046 13.365-14.59 28.864-46.442 84.257a84683 84683 0 0 0-28.896 50.277c-6.389 11.135-12.911 21.183-13.393 20.636-.694-.787 7.152-15.409 24.666-45.975 18.315-31.966 64.872-112.077 65.122-112.062.128.009-.345 1.298-1.057 2.867m62.532 26.576c-.335 7.991-1.023 24.324-1.527 36.297s-1.232 30.091-1.618 40.264c-1.415 37.463-2.925 68.234-3.565 72.763l-.659 4.652.004-5.397c.005-4.98 1.471-47.824 3.155-92.268 1.125-29.657 3.304-70.074 4.022-74.612l.663-4.182.068 3.977c.036 2.187-.208 10.515-.543 18.506m-12.57-12.98c.105 3.104.261 8.395.345 11.756.22 8.676-5.105 94.044-7.91 126.791-2.584 30.17-3.058 34.083-2.302 19.01.296-5.919.533-11.396.528-12.171s1.43-26.453 3.189-57.062c1.76-30.61 3.651-64.602 4.203-75.539 1.013-20.084 1.578-23.787 1.947-12.785" clip-rule="evenodd"/></mask><path fill="#103e2e" fill-rule="evenodd" d="M377.334 113.596c-24.793 1.118-61.829 28.197-80.026 58.514-9.42 15.695-9.718 17.774-2.804 19.555 3.416.88 4.855 1.461 3.378 1.368-.365-.023-2.43-.477-4.591-1.005-18.378-4.506-41.774-.641-57.452 9.492-31.835 20.571-43.795 59.488-29.554 96.169l1.639 4.222-4.25 5.47c-11.925 15.338-12.772 18.422-6.74 24.548 4.667 4.737 4.836 3.95-3.703 17.14-11.394 17.601-12.814 20.828-12.903 29.344-.047 4.545-.186 5.738-.662 5.708-4.344-.274-8.727 3.92-7.096 6.785 1.95 3.43 1.5 5.279-1.542 6.361-4.626 1.647-5.264 3.16-4.965 11.785.32 9.352-.266 10.422-8.015 14.625-10.133 5.493-10.935 6.407-9.684 11.058 1.114 4.137 1.001 5.113-.624 5.395-4.025.702-4.854 1.898-3.992 5.761.776 3.471.386 4.371-2.103 4.834-3.127.582-3.965.982-5.418 2.584-1.228 1.357-6.224 9.005-8.466 12.963-3.227 5.701 2.147 33.931 6.514 34.206.404.026.583.649.513 1.793-.359 5.957 5.505 11.767 10.04 9.945 1.642-.659 1.712-.65 2.335.373.861 1.411 2.601 1.248 9.219-.869 6.956-2.225 5.508-.415 19.987-25.014 50.958-86.577 73.836-126.755 75.465-132.532 2.059-7.305 4.483-13.542 3.287-8.457-.269 1.133-.722 5.669-1.011 10.075-.608 9.337-.408 10 3.093 10.221 3.084.194 3.558 1.156 3.397 6.9-.79 28.712-.524 34.471 1.778 38.371 2.343 3.969 1.974 6.182-1.574 9.404-3.261 2.964-3.306 4.346-.221 6.669 3.894 2.933 3.808 4.247-.481 7.4-3.994 2.938-3.728 4.487 2.43 14.118 3.223 5.04 3.249 7.046.154 12.063-1.224 1.988-2.897 4.71-3.714 6.05-2.319 3.799-2.275 6.186.173 9.61 2.467 3.453 2.4 4.139-.637 6.372-3.46 2.543-3.345 3.952.599 7.242 2.107 1.762 2.079 1.976-.583 4.486l-2.193 2.065-.697 5.532c-1.779 14.113-.828 18.153 5.746 24.428 1.583 1.51 4.823 4.726 7.2 7.145 2.384 2.427 5.055 4.693 5.962 5.058 1.014.407 2.705 1.94 4.428 4.016 4.234 5.094 7.946 6.523 11.03 4.244.781-.577 1.806-.987 2.283-.912.592.091 2.823-1.897 7.007-6.242l6.14-6.376 1.173-12.407c1.529-16.212 4.911-69.62 7.724-122.062 3.045-56.787 2.104-53.627 18.875-63.339 16.252-9.411 22.554-15.674 29.856-29.672 5.236-10.038 5.061-11.842-1.132-11.674-4.878.131-4.773.041-9.225 7.735-9.955 17.21-17.953 24.251-31.252 27.512-3.771.924-3.586 1.029-3.4-1.907l.162-2.571-30.622-1.932c-24.168-1.525-30.637-1.808-30.694-1.349-.039.321-.138 2.11-.221 3.975-.172 3.965-.201 3.975-3.759 1.26-8.191-6.25-17.764-19.079-23.215-31.112-13.581-29.984-2.665-67.831 24.758-85.829 22.323-14.651 56.73-14.9 80.84-.584 5.205 3.088 5.95 3.37 6.02 2.269.237-3.768-20.117-13.956-33.33-16.681-1.209-.25-2.197-.512-2.193-.58.181-2.868 11.9-21.927 18.477-30.05 17.857-22.058 50.775-40.298 62.098-34.414 8.56 4.448 8.34 20.219-.47 33.606-5.84 8.869-6.073 11.778-1.622 20.207 1.851 3.504 1.301 4.159-1.025 1.219-2.928-3.702-4.322-7.832-4.045-11.989l.232-3.506 3.786-5.29c6.25-8.735 9.192-17.756 6.708-20.574-3.405-3.867-18.85-4.914-20.945-1.42-1.923 3.204-8.133 22.028-12.777 38.727-4.091 14.705-4.503 16.134-7.12 24.662-1.463 4.768-2.706 8.036-3.182 8.358-20.038 13.653-36.509 16.838-44.082 8.524-2.53-2.776-11.567-1.948-16.795 1.543-9.428 6.294-11.19 20.869-3.53 29.2 10.232 11.129 25.759 9.455 31.695-3.421 2.901-6.295 1.651-8.57-4.95-8.994-5.196-.332-13.115-4.277-16.843-8.387-2.604-2.873-2.443-3.759.205-1.116 10.305 10.294 27.161 11.324 47.044 2.879 1.553-.66 2.883-1.13 2.957-1.043.075.086-1.366 5.764-3.199 12.619-11.502 42.959-11.818 41.195 8.018 44.84 20.087 3.692 24.989 3.145 26.079-2.91.575-3.193.537-3.219 3.959 2.841 26.747 47.353 27.503 48.433 34.238 48.879 3.943.263 4.923-.25 33.978-17.781a33493 33493 0 0 1 34.119-20.565c3.869-2.326 7.961-4.804 9.092-5.507 2.684-1.671 9.222-5.565 19.481-11.606 24.184-14.239 25.053-15.918 15.713-30.295-5.149-7.929-24.253-41.988-25.142-44.825-.162-.517.412-.622 2.64-.481 5.145.324 5.465-.163 8.43-12.874 7.061-30.259 9.585-27.459-32.509-36.045-11.087-2.261-20.573-4.237-21.079-4.391-.571-.172-3.748-4.956-8.359-12.587-11.675-19.324-12.688-20.153-19.277-15.77a205 205 0 0 1-6.125 3.895c-5.695 3.452-5.708 3.611-.88 11.794 4.647 7.875 4.812 7.649-4.457 6.207-6.268-.975-6.713-.989-7.647-.243-.867.69-1.152.601-1.013-.312.265-1.744-.37-11.397-.93-14.124-2.877-13.993-13.335-21.315-29.407-20.592m12.991 3.297c11.255 3.839 16.365 14.053 15.304 30.602-.881 13.784-7.635 30.305-16.073 39.313-3.294 3.514-3.286 3.472-.616 5.004 7.03 4.032 18.351-.016 21.06-7.531 1.999-5.546 1.081-12.412-2.218-16.558l-1.55-1.952.817-2.464c.452-1.357 1.105-4.714 1.454-7.461.849-6.691.34-6.32 7.178-5.255 11.975 1.868 12.542 1.146 6.747-8.638-4.507-7.613-4.986-6.301 4.533-12.363 7.416-4.724 6.903-5.108 18.552 13.991 4.279 7.017 7.955 12.882 8.166 13.031s10.048 2.26 21.861 4.691c38.447 7.912 36.471 7.02 35.38 15.977-1.028 8.457-5.627 27.416-6.95 28.668-1.135 1.069-5.203.969-8.188-.2-2.235-.878-1.853-.016 8.596 19.322 7.614 14.09 12.22 22.139 16.158 28.243 9.774 15.144 9.682 15.347-13.292 28.967a3239 3239 0 0 0-11.761 7.003l-14.777 8.877a28600 28600 0 0 0-49.058 29.513c-17.471 10.536-18.749 11.084-22.88 9.826-4.29-1.306-7.359-6.003-28.254-43.266-8.326-14.848-7.821-14.41-9.335-8.087-1.013 4.226-1.808 5.04-5.212 5.346-2.851.254-15.718-1.47-24.065-3.229-12.782-2.691-12.799-.162.318-49.72 8.277-31.271 7.867-29.757 10.73-39.689a7720 7720 0 0 0 5.146-17.962c6.648-23.31 11.634-37.243 13.762-38.454 2.466-1.403 15.428.668 16.743 2.676 1.794 2.737-1.758 11.644-8.076 20.241l-2.447 3.329-.297 4.712c-.358 5.678.67 8.789 4.326 13.073 4.332 5.075 6.987 2.046 3.442-3.923-3.747-6.31-3.543-10.275.839-16.314 5.606-7.724 7.144-11.861 7.667-20.64 1.404-23.564-18.22-24.382-49.827-2.076-15.457 10.907-29.736 28.399-38.625 47.317-2.475 5.27-2.551 5.094 2.734 6.361 2.481.593 5.437 1.432 6.571 1.865l2.063.787-1.853-.391c-47.76-10.068-87.384 16.259-92.664 61.573-2.681 23.001 8.491 49.918 27.358 65.908 7.547 6.397 8.441 6.446 8.584.487l.104-4.276 28.853 1.698 28.853 1.701-.029 2.699c-.027 2.388.09 2.726 1.003 2.915 2.669.553 16.567-4.548 15.624-5.734-.179-.222-.074-.241.23-.039.687.456 3.567-1.34 3.212-2.003-.151-.285-.027-.319.301-.087 1.789 1.267 12.996-12.478 18.885-23.16l2.573-4.67 2.209-.163c5.695-.418 5.737-.312 2.588 6.335-7.001 14.776-14.247 22.354-29.941 31.315-18.94 10.814-17.061 1.489-23.243 115.394-1.737 32.038-3.034 52.034-4.204 64.886l-1.693 18.577-4.841 5.088c-5.698 5.989-5.628 5.995-4.093-.404 1.35-5.622 3.37-33.92 4.529-63.451.322-8.24 1.197-29.624 1.944-47.519 2.865-68.784 3.133-78.272 2.299-81.643-.965-3.893-3.191 5.269-4.461 18.376-.842 8.656-2.944 52.164-4.038 83.529-.3 8.629-.728 20.536-.949 26.46s-.815 23.628-1.32 39.344l-.918 28.574-1.162 2.015c-2.857 4.96-6.819 4.069-11.427-2.57-1.213-1.748-1.246-1.937-.541-3.111 1.453-2.415 2.135-7.575 4.112-31.168 8.344-99.485 10.385-159.551 5.4-158.913-.93.117-4.389 52.603-9.26 140.482-3.014 54.395-2.625 50.872-5.372 48.509-.705-.608-2.571-2.474-4.143-4.146-1.573-1.671-4.412-4.505-6.308-6.296-6.107-5.769-6.885-8.014-6.216-17.942.613-9.128.991-10.507 3.526-12.931 2.96-2.832 2.884-3.86-.49-6.621-2.457-2.012-2.644-2.782-.913-3.766 3.99-2.269 4.68-4.506 2.387-7.733-3.346-4.71-3.266-5.634 1.047-12.215 5.516-8.42 5.63-10.64.928-17.836-4.753-7.277-5.144-9.156-2.227-10.716 5.215-2.785 5.207-6.313-.025-10.837l-1.504-1.301 2.279-2.17c4.24-4.032 4.659-6.291 2.101-11.304-.892-1.751-1.704-4.137-1.804-5.305-.367-4.379-.546-15.925-.318-20.438.926-18.207.442-20.39-4.589-20.707-2.457-.155-2.452-2.492.051-22.644 1.334-10.733-2.698-4.111-7.221 11.865-1.794 6.343-22.358 42.436-77.688 136.369l-10.79 18.32-5.666 1.876c-7.882 2.611-9.462 2.213-6.018-1.52 4.454-4.826 12.578-17.657 21.215-33.503.945-1.733 7.806-13.657 15.243-26.497 31.762-54.821 45.253-78.987 52.029-93.2 4.893-10.259 5.96-13.94 4.079-14.058-.622-.04-1.447.716-2.516 2.305-1.536 2.283-63.671 109.22-63.696 109.624-.007.11-3.546 6.39-7.865 13.952-14.395 25.21-19.765 35.448-21.114 40.245-1.198 4.259-6.489 4.648-9.012.661-2.527-3.992-2.659-6.84-.401-8.746 3.543-2.994 7.441-9.437 48.681-80.464 46.032-79.276 47.961-82.773 45.752-82.913-2.146-.135-3.755 2.162-18.922 26.997-33.615 55.038-78.271 132.026-78.45 135.248-.053.95-.896.615-1.61-.639-1.508-2.653-5.143-19.92-5.117-24.31l.024-4.223 3.611-5.975c5.029-8.326 6.383-9.925 8.627-10.185 4.154-.487 5.316-1.793 5.002-5.629-.346-4.228-.327-4.302 1.203-4.86 4.555-1.663 4.754-2.08 3.473-7.288l-.852-3.464 1.461-1.349c.802-.743 3.974-2.692 7.046-4.334 9.55-5.098 10.222-6.226 9.931-16.686-.217-7.897.137-8.94 3.455-10.122 4.146-1.476 5.084-3.662 3.316-7.74-1.235-2.854-.921-3.292 3.381-4.736l3.834-1.289.096-2.711c.054-1.492.146-4.293.207-6.225.175-5.638 3.207-11.959 12.457-25.969 8.568-12.975 9.023-14.784 4.655-18.507-6.596-5.626-5.494-9.337 7.623-25.628 3.498-4.341 3.4-3.754 1.401-8.442-19.318-45.331 8.086-97.184 55.389-104.809 9.721-1.567 23.887-.965 31.603 1.346 2.462.737 6.149.96 6.548.396 1.077-1.518-1.344-3.384-5.597-4.314-5.595-1.222-5.713-1.443-3.415-6.273 9.627-20.247 22.848-35.738 43.395-50.846 20.693-15.217 40.194-21.109 54.133-16.358m15.76 43.391c-.41 1.734-1.073 3.659-1.474 4.279-.936 1.446-.912 1.032.142-2.476a261 261 0 0 0 1.224-4.182c.741-2.664.829-.678.108 2.379m1.189 9.768c2.21 3.688 2.582 10.658.768 14.338-2.829 5.748-11.826 9.01-17.336 6.287l-1.627-.804 1.541-1.548c3.665-3.679 8.165-10.938 11.099-17.913l1.858-4.414 1.235 1.002c.679.55 1.787 1.925 2.462 3.052m-61.798 47.692c-.191.57-1.212 3.874-2.271 7.346l-1.923 6.309-5.063 2.02c-19.594 7.809-34.15 6.44-44.463-4.185-3.123-3.215-4.34-3.604-4.477-1.432-.38 6.026 11.671 14.548 21.485 15.195 4.707.311 5.19 1.947 2.216 7.504-8.662 16.182-33.375 7.895-32.196-10.797.471-7.475 3.765-12.811 9.28-15.033 6.328-2.548 10.687-2.597 13.149-.146 7.57 7.532 20.684 6.017 38.183-4.409 6.237-3.716 6.574-3.847 6.08-2.372M192.92 404.33c-19.835 34.175-39.061 67.332-42.722 73.684-8.066 13.992-12.372 20.487-13.06 19.707-.757-.863 31.243-56.605 58.053-101.121 1.796-2.985 5.525-9.192 8.284-13.794 16.463-27.447 25.216-41.605 25.379-41.055.073.244-16.097 28.405-35.934 62.579m46.105-54.367c-6.046 13.365-14.59 28.864-46.442 84.257a84683 84683 0 0 0-28.896 50.277c-6.389 11.135-12.911 21.183-13.393 20.636-.694-.787 7.152-15.409 24.666-45.975 18.315-31.966 64.872-112.077 65.122-112.062.128.009-.345 1.298-1.057 2.867m62.532 26.576c-.335 7.991-1.023 24.324-1.527 36.297s-1.232 30.091-1.618 40.264c-1.415 37.463-2.925 68.234-3.565 72.763l-.659 4.652.004-5.397c.005-4.98 1.471-47.824 3.155-92.268 1.125-29.657 3.304-70.074 4.022-74.612l.663-4.182.068 3.977c.036 2.187-.208 10.515-.543 18.506m-12.57-12.98c.105 3.104.261 8.395.345 11.756.22 8.676-5.105 94.044-7.91 126.791-2.584 30.17-3.058 34.083-2.302 19.01.296-5.919.533-11.396.528-12.171s1.43-26.453 3.189-57.062c1.76-30.61 3.651-64.602 4.203-75.539 1.013-20.084 1.578-23.787 1.947-12.785" clip-rule="evenodd"/><path stroke="#9ab0a6" stroke-width="192" d="M377.334 113.596c-24.793 1.118-61.829 28.197-80.026 58.514-9.42 15.695-9.718 17.774-2.804 19.555 3.416.88 4.855 1.461 3.378 1.368-.365-.023-2.43-.477-4.591-1.005-18.378-4.506-41.774-.641-57.452 9.492-31.835 20.571-43.795 59.488-29.554 96.169l1.639 4.222-4.25 5.47c-11.925 15.338-12.772 18.422-6.74 24.548 4.667 4.737 4.836 3.95-3.703 17.14-11.394 17.601-12.814 20.828-12.903 29.344-.047 4.545-.186 5.738-.662 5.708-4.344-.274-8.727 3.92-7.096 6.785 1.95 3.43 1.5 5.279-1.542 6.361-4.626 1.647-5.264 3.16-4.965 11.785.32 9.352-.266 10.422-8.015 14.625-10.133 5.493-10.935 6.407-9.684 11.058 1.114 4.137 1.001 5.113-.624 5.395-4.025.702-4.854 1.898-3.992 5.761.776 3.471.386 4.371-2.103 4.834-3.127.582-3.965.982-5.418 2.584-1.228 1.357-6.224 9.005-8.466 12.963-3.227 5.701 2.147 33.931 6.514 34.206.404.026.583.649.513 1.793-.359 5.957 5.505 11.767 10.04 9.945 1.642-.659 1.712-.65 2.335.373.861 1.411 2.601 1.248 9.219-.869 6.956-2.225 5.508-.415 19.987-25.014 50.958-86.577 73.836-126.755 75.465-132.532 2.059-7.305 4.483-13.542 3.287-8.457-.269 1.133-.722 5.669-1.011 10.075-.608 9.337-.408 10 3.093 10.221 3.084.194 3.558 1.156 3.397 6.9-.79 28.712-.524 34.471 1.778 38.371 2.343 3.969 1.974 6.182-1.574 9.404-3.261 2.964-3.306 4.346-.221 6.669 3.894 2.933 3.808 4.247-.481 7.4-3.994 2.938-3.728 4.487 2.43 14.118 3.223 5.04 3.249 7.046.154 12.063-1.224 1.988-2.897 4.71-3.714 6.05-2.319 3.799-2.275 6.186.173 9.61 2.467 3.453 2.4 4.139-.637 6.372-3.46 2.543-3.345 3.952.599 7.242 2.107 1.762 2.079 1.976-.583 4.486l-2.193 2.065-.697 5.532c-1.779 14.113-.828 18.153 5.746 24.428 1.583 1.51 4.823 4.726 7.2 7.145 2.384 2.427 5.055 4.693 5.962 5.058 1.014.407 2.705 1.94 4.428 4.016 4.234 5.094 7.946 6.523 11.03 4.244.781-.577 1.806-.987 2.283-.912.592.091 2.823-1.897 7.007-6.242l6.14-6.376 1.173-12.407c1.529-16.212 4.911-69.62 7.724-122.062 3.045-56.787 2.104-53.627 18.875-63.339 16.252-9.411 22.554-15.674 29.856-29.672 5.236-10.038 5.061-11.842-1.132-11.674-4.878.131-4.773.041-9.225 7.735-9.955 17.21-17.953 24.251-31.252 27.512-3.771.924-3.586 1.029-3.4-1.907l.162-2.571-30.622-1.932c-24.168-1.525-30.637-1.808-30.694-1.349-.039.321-.138 2.11-.221 3.975-.172 3.965-.201 3.975-3.759 1.26-8.191-6.25-17.764-19.079-23.215-31.112-13.581-29.984-2.665-67.831 24.758-85.829 22.323-14.651 56.73-14.9 80.84-.584 5.205 3.088 5.95 3.37 6.02 2.269.237-3.768-20.117-13.956-33.33-16.681-1.209-.25-2.197-.512-2.193-.58.181-2.868 11.9-21.927 18.477-30.05 17.857-22.058 50.775-40.298 62.098-34.414 8.56 4.448 8.34 20.219-.47 33.606-5.84 8.869-6.073 11.778-1.622 20.207 1.851 3.504 1.301 4.159-1.025 1.219-2.928-3.702-4.322-7.832-4.045-11.989l.232-3.506 3.786-5.29c6.25-8.735 9.192-17.756 6.708-20.574-3.405-3.867-18.85-4.914-20.945-1.42-1.923 3.204-8.133 22.028-12.777 38.727-4.091 14.705-4.503 16.134-7.12 24.662-1.463 4.768-2.706 8.036-3.182 8.358-20.038 13.653-36.509 16.838-44.082 8.524-2.53-2.776-11.567-1.948-16.795 1.543-9.428 6.294-11.19 20.869-3.53 29.2 10.232 11.129 25.759 9.455 31.695-3.421 2.901-6.295 1.651-8.57-4.95-8.994-5.196-.332-13.115-4.277-16.843-8.387-2.604-2.873-2.443-3.759.205-1.116 10.305 10.294 27.161 11.324 47.044 2.879 1.553-.66 2.883-1.13 2.957-1.043.075.086-1.366 5.764-3.199 12.619-11.502 42.959-11.818 41.195 8.018 44.84 20.087 3.692 24.989 3.145 26.079-2.91.575-3.193.537-3.219 3.959 2.841 26.747 47.353 27.503 48.433 34.238 48.879 3.943.263 4.923-.25 33.978-17.781a33493 33493 0 0 1 34.119-20.565c3.869-2.326 7.961-4.804 9.092-5.507 2.684-1.671 9.222-5.565 19.481-11.606 24.184-14.239 25.053-15.918 15.713-30.295-5.149-7.929-24.253-41.988-25.142-44.825-.162-.517.412-.622 2.64-.481 5.145.324 5.465-.163 8.43-12.874 7.061-30.259 9.585-27.459-32.509-36.045-11.087-2.261-20.573-4.237-21.079-4.391-.571-.172-3.748-4.956-8.359-12.587-11.675-19.324-12.688-20.153-19.277-15.77a205 205 0 0 1-6.125 3.895c-5.695 3.452-5.708 3.611-.88 11.794 4.647 7.875 4.812 7.649-4.457 6.207-6.268-.975-6.713-.989-7.647-.243-.867.69-1.152.601-1.013-.312.265-1.744-.37-11.397-.93-14.124-2.877-13.993-13.335-21.315-29.407-20.592Zm12.991 3.297c11.255 3.839 16.365 14.053 15.304 30.602-.881 13.784-7.635 30.305-16.073 39.313-3.294 3.514-3.286 3.472-.616 5.004 7.03 4.032 18.351-.016 21.06-7.531 1.999-5.546 1.081-12.412-2.218-16.558l-1.55-1.952.817-2.464c.452-1.357 1.105-4.714 1.454-7.461.849-6.691.34-6.32 7.178-5.255 11.975 1.868 12.542 1.146 6.747-8.638-4.507-7.613-4.986-6.301 4.533-12.363 7.416-4.724 6.903-5.108 18.552 13.991 4.279 7.017 7.955 12.882 8.166 13.031s10.048 2.26 21.861 4.691c38.447 7.912 36.471 7.02 35.38 15.977-1.028 8.457-5.627 27.416-6.95 28.668-1.135 1.069-5.203.969-8.188-.2-2.235-.878-1.853-.016 8.596 19.322 7.614 14.09 12.22 22.139 16.158 28.243 9.774 15.144 9.682 15.347-13.292 28.967a3239 3239 0 0 0-11.761 7.003l-14.777 8.877a28600 28600 0 0 0-49.058 29.513c-17.471 10.536-18.749 11.084-22.88 9.826-4.29-1.306-7.359-6.003-28.254-43.266-8.326-14.848-7.821-14.41-9.335-8.087-1.013 4.226-1.808 5.04-5.212 5.346-2.851.254-15.718-1.47-24.065-3.229-12.782-2.691-12.799-.162.318-49.72 8.277-31.271 7.867-29.757 10.73-39.689a7720 7720 0 0 0 5.146-17.962c6.648-23.31 11.634-37.243 13.762-38.454 2.466-1.403 15.428.668 16.743 2.676 1.794 2.737-1.758 11.644-8.076 20.241l-2.447 3.329-.297 4.712c-.358 5.678.67 8.789 4.326 13.073 4.332 5.075 6.987 2.046 3.442-3.923-3.747-6.31-3.543-10.275.839-16.314 5.606-7.724 7.144-11.861 7.667-20.64 1.404-23.564-18.22-24.382-49.827-2.076-15.457 10.907-29.736 28.399-38.625 47.317-2.475 5.27-2.551 5.094 2.734 6.361 2.481.593 5.437 1.432 6.571 1.865l2.063.787-1.853-.391c-47.76-10.068-87.384 16.259-92.664 61.573-2.681 23.001 8.491 49.918 27.358 65.908 7.547 6.397 8.441 6.446 8.584.487l.104-4.276 28.853 1.698 28.853 1.701-.029 2.699c-.027 2.388.09 2.726 1.003 2.915 2.669.553 16.567-4.548 15.624-5.734-.179-.222-.074-.241.23-.039.687.456 3.567-1.34 3.212-2.003-.151-.285-.027-.319.301-.087 1.789 1.267 12.996-12.478 18.885-23.16l2.573-4.67 2.209-.163c5.695-.418 5.737-.312 2.588 6.335-7.001 14.776-14.247 22.354-29.941 31.315-18.94 10.814-17.061 1.489-23.243 115.394-1.737 32.038-3.034 52.034-4.204 64.886l-1.693 18.577-4.841 5.088c-5.698 5.989-5.628 5.995-4.093-.404 1.35-5.622 3.37-33.92 4.529-63.451.322-8.24 1.197-29.624 1.944-47.519 2.865-68.784 3.133-78.272 2.299-81.643-.965-3.893-3.191 5.269-4.461 18.376-.842 8.656-2.944 52.164-4.038 83.529-.3 8.629-.728 20.536-.949 26.46s-.815 23.628-1.32 39.344l-.918 28.574-1.162 2.015c-2.857 4.96-6.819 4.069-11.427-2.57-1.213-1.748-1.246-1.937-.541-3.111 1.453-2.415 2.135-7.575 4.112-31.168 8.344-99.485 10.385-159.551 5.4-158.913-.93.117-4.389 52.603-9.26 140.482-3.014 54.395-2.625 50.872-5.372 48.509-.705-.608-2.571-2.474-4.143-4.146-1.573-1.671-4.412-4.505-6.308-6.296-6.107-5.769-6.885-8.014-6.216-17.942.613-9.128.991-10.507 3.526-12.931 2.96-2.832 2.884-3.86-.49-6.621-2.457-2.012-2.644-2.782-.913-3.766 3.99-2.269 4.68-4.506 2.387-7.733-3.346-4.71-3.266-5.634 1.047-12.215 5.516-8.42 5.63-10.64.928-17.836-4.753-7.277-5.144-9.156-2.227-10.716 5.215-2.785 5.207-6.313-.025-10.837l-1.504-1.301 2.279-2.17c4.24-4.032 4.659-6.291 2.101-11.304-.892-1.751-1.704-4.137-1.804-5.305-.367-4.379-.546-15.925-.318-20.438.926-18.207.442-20.39-4.589-20.707-2.457-.155-2.452-2.492.051-22.644 1.334-10.733-2.698-4.111-7.221 11.865-1.794 6.343-22.358 42.436-77.688 136.369l-10.79 18.32-5.666 1.876c-7.882 2.611-9.462 2.213-6.018-1.52 4.454-4.826 12.578-17.657 21.215-33.503.945-1.733 7.806-13.657 15.243-26.497 31.762-54.821 45.253-78.987 52.029-93.2 4.893-10.259 5.96-13.94 4.079-14.058-.622-.04-1.447.716-2.516 2.305-1.536 2.283-63.671 109.22-63.696 109.624-.007.11-3.546 6.39-7.865 13.952-14.395 25.21-19.765 35.448-21.114 40.245-1.198 4.259-6.489 4.648-9.012.661-2.527-3.992-2.659-6.84-.401-8.746 3.543-2.994 7.441-9.437 48.681-80.464 46.032-79.276 47.961-82.773 45.752-82.913-2.146-.135-3.755 2.162-18.922 26.997-33.615 55.038-78.271 132.026-78.45 135.248-.053.95-.896.615-1.61-.639-1.508-2.653-5.143-19.92-5.117-24.31l.024-4.223 3.611-5.975c5.029-8.326 6.383-9.925 8.627-10.185 4.154-.487 5.316-1.793 5.002-5.629-.346-4.228-.327-4.302 1.203-4.86 4.555-1.663 4.754-2.08 3.473-7.288l-.852-3.464 1.461-1.349c.802-.743 3.974-2.692 7.046-4.334 9.55-5.098 10.222-6.226 9.931-16.686-.217-7.897.137-8.94 3.455-10.122 4.146-1.476 5.084-3.662 3.316-7.74-1.235-2.854-.921-3.292 3.381-4.736l3.834-1.289.096-2.711c.054-1.492.146-4.293.207-6.225.175-5.638 3.207-11.959 12.457-25.969 8.568-12.975 9.023-14.784 4.655-18.507-6.596-5.626-5.494-9.337 7.623-25.628 3.498-4.341 3.4-3.754 1.401-8.442-19.318-45.331 8.086-97.184 55.389-104.809 9.721-1.567 23.887-.965 31.603 1.346 2.462.737 6.149.96 6.548.396 1.077-1.518-1.344-3.384-5.597-4.314-5.595-1.222-5.713-1.443-3.415-6.273 9.627-20.247 22.848-35.738 43.395-50.846 20.693-15.217 40.194-21.109 54.133-16.358Zm15.76 43.391c-.41 1.734-1.073 3.659-1.474 4.279-.936 1.446-.912 1.032.142-2.476a261 261 0 0 0 1.224-4.182c.741-2.664.829-.678.108 2.379Zm1.189 9.768c2.21 3.688 2.582 10.658.768 14.338-2.829 5.748-11.826 9.01-17.336 6.287l-1.627-.804 1.541-1.548c3.665-3.679 8.165-10.938 11.099-17.913l1.858-4.414 1.235 1.002c.679.55 1.787 1.925 2.462 3.052Zm-61.798 47.692c-.191.57-1.212 3.874-2.271 7.346l-1.923 6.309-5.063 2.02c-19.594 7.809-34.15 6.44-44.463-4.185-3.123-3.215-4.34-3.604-4.477-1.432-.38 6.026 11.671 14.548 21.485 15.195 4.707.311 5.19 1.947 2.216 7.504-8.662 16.182-33.375 7.895-32.196-10.797.471-7.475 3.765-12.811 9.28-15.033 6.328-2.548 10.687-2.597 13.149-.146 7.57 7.532 20.684 6.017 38.183-4.409 6.237-3.716 6.574-3.847 6.08-2.372ZM192.92 404.33c-19.835 34.175-39.061 67.332-42.722 73.684-8.066 13.992-12.372 20.487-13.06 19.707-.757-.863 31.243-56.605 58.053-101.121 1.796-2.985 5.525-9.192 8.284-13.794 16.463-27.447 25.216-41.605 25.379-41.055.073.244-16.097 28.405-35.934 62.579Zm46.105-54.367c-6.046 13.365-14.59 28.864-46.442 84.257a84683 84683 0 0 0-28.896 50.277c-6.389 11.135-12.911 21.183-13.393 20.636-.694-.787 7.152-15.409 24.666-45.975 18.315-31.966 64.872-112.077 65.122-112.062.128.009-.345 1.298-1.057 2.867Zm62.532 26.576c-.335 7.991-1.023 24.324-1.527 36.297s-1.232 30.091-1.618 40.264c-1.415 37.463-2.925 68.234-3.565 72.763l-.659 4.652.004-5.397c.005-4.98 1.471-47.824 3.155-92.268 1.125-29.657 3.304-70.074 4.022-74.612l.663-4.182.068 3.977c.036 2.187-.208 10.515-.543 18.506Zm-12.57-12.98c.105 3.104.261 8.395.345 11.756.22 8.676-5.105 94.044-7.91 126.791-2.584 30.17-3.058 34.083-2.302 19.01.296-5.919.533-11.396.528-12.171s1.43-26.453 3.189-57.062c1.76-30.61 3.651-64.602 4.203-75.539 1.013-20.084 1.578-23.787 1.947-12.785Z" clip-rule="evenodd" mask="url(#b)"/><mask id="c" width="419.178" height="467.8" x="120.447" y="96.878" fill="#000" maskUnits="userSpaceOnUse"><path fill="#fff" d="M120.447 96.878h419.178v467.8H120.447z"/><path fill-rule="evenodd" d="M377.334 113.596c-24.793 1.118-61.829 28.197-80.026 58.514-9.42 15.695-9.718 17.774-2.804 19.555 3.416.88 4.855 1.461 3.378 1.368-.365-.023-2.43-.477-4.591-1.005-18.378-4.506-41.774-.641-57.452 9.492-31.835 20.571-43.795 59.488-29.554 96.169l1.639 4.222-4.25 5.47c-11.925 15.338-12.772 18.422-6.74 24.548 4.667 4.737 4.836 3.95-3.703 17.14-11.394 17.601-12.814 20.828-12.903 29.344-.047 4.545-.186 5.738-.662 5.708-4.344-.274-8.727 3.92-7.096 6.785 1.95 3.43 1.5 5.279-1.542 6.361-4.626 1.647-5.264 3.16-4.965 11.785.32 9.352-.266 10.422-8.015 14.625-10.133 5.493-10.935 6.407-9.684 11.058 1.114 4.137 1.001 5.113-.624 5.395-4.025.702-4.854 1.898-3.992 5.761.776 3.471.386 4.371-2.103 4.834-3.127.582-3.965.982-5.418 2.584-1.228 1.357-6.224 9.005-8.466 12.963-3.227 5.701 2.147 33.931 6.514 34.206.404.026.583.649.513 1.793-.359 5.957 5.505 11.767 10.04 9.945 1.642-.659 1.712-.65 2.335.373.861 1.411 2.601 1.248 9.219-.869 6.956-2.225 5.508-.415 19.987-25.014 50.958-86.577 73.836-126.755 75.465-132.532 2.059-7.305 4.483-13.542 3.287-8.457-.269 1.133-.722 5.669-1.011 10.075-.608 9.337-.408 10 3.093 10.221 3.084.194 3.558 1.156 3.397 6.9-.79 28.712-.524 34.471 1.778 38.371 2.343 3.969 1.974 6.182-1.574 9.404-3.261 2.964-3.306 4.346-.221 6.669 3.894 2.933 3.808 4.247-.481 7.4-3.994 2.938-3.728 4.487 2.43 14.118 3.223 5.04 3.249 7.046.154 12.063-1.224 1.988-2.897 4.71-3.714 6.05-2.319 3.799-2.275 6.186.173 9.61 2.467 3.453 2.4 4.139-.637 6.372-3.46 2.543-3.345 3.952.599 7.242 2.107 1.762 2.079 1.976-.583 4.486l-2.193 2.065-.697 5.532c-1.779 14.113-.828 18.153 5.746 24.428 1.583 1.51 4.823 4.726 7.2 7.145 2.384 2.427 5.055 4.693 5.962 5.058 1.014.407 2.705 1.94 4.428 4.016 4.234 5.094 7.946 6.523 11.03 4.244.781-.577 1.806-.987 2.283-.912.592.091 2.823-1.897 7.007-6.242l6.14-6.376 1.173-12.407c1.529-16.212 4.911-69.62 7.724-122.062 3.045-56.787 2.104-53.627 18.875-63.339 16.252-9.411 22.554-15.674 29.856-29.672 5.236-10.038 5.061-11.842-1.132-11.674-4.878.131-4.773.041-9.225 7.735-9.955 17.21-17.953 24.251-31.252 27.512-3.771.924-3.586 1.029-3.4-1.907l.162-2.571-30.622-1.932c-24.168-1.525-30.637-1.808-30.694-1.349-.039.321-.138 2.11-.221 3.975-.172 3.965-.201 3.975-3.759 1.26-8.191-6.25-17.764-19.079-23.215-31.112-13.581-29.984-2.665-67.831 24.758-85.829 22.323-14.651 56.73-14.9 80.84-.584 5.205 3.088 5.95 3.37 6.02 2.269.237-3.768-20.117-13.956-33.33-16.681-1.209-.25-2.197-.512-2.193-.58.181-2.868 11.9-21.927 18.477-30.05 17.857-22.058 50.775-40.298 62.098-34.414 8.56 4.448 8.34 20.219-.47 33.606-5.84 8.869-6.073 11.778-1.622 20.207 1.851 3.504 1.301 4.159-1.025 1.219-2.928-3.702-4.322-7.832-4.045-11.989l.232-3.506 3.786-5.29c6.25-8.735 9.192-17.756 6.708-20.574-3.405-3.867-18.85-4.914-20.945-1.42-1.923 3.204-8.133 22.028-12.777 38.727-4.091 14.705-4.503 16.134-7.12 24.662-1.463 4.768-2.706 8.036-3.182 8.358-20.038 13.653-36.509 16.838-44.082 8.524-2.53-2.776-11.567-1.948-16.795 1.543-9.428 6.294-11.19 20.869-3.53 29.2 10.232 11.129 25.759 9.455 31.695-3.421 2.901-6.295 1.651-8.57-4.95-8.994-5.196-.332-13.115-4.277-16.843-8.387-2.604-2.873-2.443-3.759.205-1.116 10.305 10.294 27.161 11.324 47.044 2.879 1.553-.66 2.883-1.13 2.957-1.043.075.086-1.366 5.764-3.199 12.619-11.502 42.959-11.818 41.195 8.018 44.84 20.087 3.692 24.989 3.145 26.079-2.91.575-3.193.537-3.219 3.959 2.841 26.747 47.353 27.503 48.433 34.238 48.879 3.943.263 4.923-.25 33.978-17.781a33493 33493 0 0 1 34.119-20.565c3.869-2.326 7.961-4.804 9.092-5.507 2.684-1.671 9.222-5.565 19.481-11.606 24.184-14.239 25.053-15.918 15.713-30.295-5.149-7.929-24.253-41.988-25.142-44.825-.162-.517.412-.622 2.64-.481 5.145.324 5.465-.163 8.43-12.874 7.061-30.259 9.585-27.459-32.509-36.045-11.087-2.261-20.573-4.237-21.079-4.391-.571-.172-3.748-4.956-8.359-12.587-11.675-19.324-12.688-20.153-19.277-15.77a205 205 0 0 1-6.125 3.895c-5.695 3.452-5.708 3.611-.88 11.794 4.647 7.875 4.812 7.649-4.457 6.207-6.268-.975-6.713-.989-7.647-.243-.867.69-1.152.601-1.013-.312.265-1.744-.37-11.397-.93-14.124-2.877-13.993-13.335-21.315-29.407-20.592m12.991 3.297c11.255 3.839 16.365 14.053 15.304 30.602-.881 13.784-7.635 30.305-16.073 39.313-3.294 3.514-3.286 3.472-.616 5.004 7.03 4.032 18.351-.016 21.06-7.531 1.999-5.546 1.081-12.412-2.218-16.558l-1.55-1.952.817-2.464c.452-1.357 1.105-4.714 1.454-7.461.849-6.691.34-6.32 7.178-5.255 11.975 1.868 12.542 1.146 6.747-8.638-4.507-7.613-4.986-6.301 4.533-12.363 7.416-4.724 6.903-5.108 18.552 13.991 4.279 7.017 7.955 12.882 8.166 13.031s10.048 2.26 21.861 4.691c38.447 7.912 36.471 7.02 35.38 15.977-1.028 8.457-5.627 27.416-6.95 28.668-1.135 1.069-5.203.969-8.188-.2-2.235-.878-1.853-.016 8.596 19.322 7.614 14.09 12.22 22.139 16.158 28.243 9.774 15.144 9.682 15.347-13.292 28.967a3239 3239 0 0 0-11.761 7.003l-14.777 8.877a28600 28600 0 0 0-49.058 29.513c-17.471 10.536-18.749 11.084-22.88 9.826-4.29-1.306-7.359-6.003-28.254-43.266-8.326-14.848-7.821-14.41-9.335-8.087-1.013 4.226-1.808 5.04-5.212 5.346-2.851.254-15.718-1.47-24.065-3.229-12.782-2.691-12.799-.162.318-49.72 8.277-31.271 7.867-29.757 10.73-39.689a7720 7720 0 0 0 5.146-17.962c6.648-23.31 11.634-37.243 13.762-38.454 2.466-1.403 15.428.668 16.743 2.676 1.794 2.737-1.758 11.644-8.076 20.241l-2.447 3.329-.297 4.712c-.358 5.678.67 8.789 4.326 13.073 4.332 5.075 6.987 2.046 3.442-3.923-3.747-6.31-3.543-10.275.839-16.314 5.606-7.724 7.144-11.861 7.667-20.64 1.404-23.564-18.22-24.382-49.827-2.076-15.457 10.907-29.736 28.399-38.625 47.317-2.475 5.27-2.551 5.094 2.734 6.361 2.481.593 5.437 1.432 6.571 1.865l2.063.787-1.853-.391c-47.76-10.068-87.384 16.259-92.664 61.573-2.681 23.001 8.491 49.918 27.358 65.908 7.547 6.397 8.441 6.446 8.584.487l.104-4.276 28.853 1.698 28.853 1.701-.029 2.699c-.027 2.388.09 2.726 1.003 2.915 2.669.553 16.567-4.548 15.624-5.734-.179-.222-.074-.241.23-.039.687.456 3.567-1.34 3.212-2.003-.151-.285-.027-.319.301-.087 1.789 1.267 12.996-12.478 18.885-23.16l2.573-4.67 2.209-.163c5.695-.418 5.737-.312 2.588 6.335-7.001 14.776-14.247 22.354-29.941 31.315-18.94 10.814-17.061 1.489-23.243 115.394-1.737 32.038-3.034 52.034-4.204 64.886l-1.693 18.577-4.841 5.088c-5.698 5.989-5.628 5.995-4.093-.404 1.35-5.622 3.37-33.92 4.529-63.451.322-8.24 1.197-29.624 1.944-47.519 2.865-68.784 3.133-78.272 2.299-81.643-.965-3.893-3.191 5.269-4.461 18.376-.842 8.656-2.944 52.164-4.038 83.529-.3 8.629-.728 20.536-.949 26.46s-.815 23.628-1.32 39.344l-.918 28.574-1.162 2.015c-2.857 4.96-6.819 4.069-11.427-2.57-1.213-1.748-1.246-1.937-.541-3.111 1.453-2.415 2.135-7.575 4.112-31.168 8.344-99.485 10.385-159.551 5.4-158.913-.93.117-4.389 52.603-9.26 140.482-3.014 54.395-2.625 50.872-5.372 48.509-.705-.608-2.571-2.474-4.143-4.146-1.573-1.671-4.412-4.505-6.308-6.296-6.107-5.769-6.885-8.014-6.216-17.942.613-9.128.991-10.507 3.526-12.931 2.96-2.832 2.884-3.86-.49-6.621-2.457-2.012-2.644-2.782-.913-3.766 3.99-2.269 4.68-4.506 2.387-7.733-3.346-4.71-3.266-5.634 1.047-12.215 5.516-8.42 5.63-10.64.928-17.836-4.753-7.277-5.144-9.156-2.227-10.716 5.215-2.785 5.207-6.313-.025-10.837l-1.504-1.301 2.279-2.17c4.24-4.032 4.659-6.291 2.101-11.304-.892-1.751-1.704-4.137-1.804-5.305-.367-4.379-.546-15.925-.318-20.438.926-18.207.442-20.39-4.589-20.707-2.457-.155-2.452-2.492.051-22.644 1.334-10.733-2.698-4.111-7.221 11.865-1.794 6.343-22.358 42.436-77.688 136.369l-10.79 18.32-5.666 1.876c-7.882 2.611-9.462 2.213-6.018-1.52 4.454-4.826 12.578-17.657 21.215-33.503.945-1.733 7.806-13.657 15.243-26.497 31.762-54.821 45.253-78.987 52.029-93.2 4.893-10.259 5.96-13.94 4.079-14.058-.622-.04-1.447.716-2.516 2.305-1.536 2.283-63.671 109.22-63.696 109.624-.007.11-3.546 6.39-7.865 13.952-14.395 25.21-19.765 35.448-21.114 40.245-1.198 4.259-6.489 4.648-9.012.661-2.527-3.992-2.659-6.84-.401-8.746 3.543-2.994 7.441-9.437 48.681-80.464 46.032-79.276 47.961-82.773 45.752-82.913-2.146-.135-3.755 2.162-18.922 26.997-33.615 55.038-78.271 132.026-78.45 135.248-.053.95-.896.615-1.61-.639-1.508-2.653-5.143-19.92-5.117-24.31l.024-4.223 3.611-5.975c5.029-8.326 6.383-9.925 8.627-10.185 4.154-.487 5.316-1.793 5.002-5.629-.346-4.228-.327-4.302 1.203-4.86 4.555-1.663 4.754-2.08 3.473-7.288l-.852-3.464 1.461-1.349c.802-.743 3.974-2.692 7.046-4.334 9.55-5.098 10.222-6.226 9.931-16.686-.217-7.897.137-8.94 3.455-10.122 4.146-1.476 5.084-3.662 3.316-7.74-1.235-2.854-.921-3.292 3.381-4.736l3.834-1.289.096-2.711c.054-1.492.146-4.293.207-6.225.175-5.638 3.207-11.959 12.457-25.969 8.568-12.975 9.023-14.784 4.655-18.507-6.596-5.626-5.494-9.337 7.623-25.628 3.498-4.341 3.4-3.754 1.401-8.442-19.318-45.331 8.086-97.184 55.389-104.809 9.721-1.567 23.887-.965 31.603 1.346 2.462.737 6.149.96 6.548.396 1.077-1.518-1.344-3.384-5.597-4.314-5.595-1.222-5.713-1.443-3.415-6.273 9.627-20.247 22.848-35.738 43.395-50.846 20.693-15.217 40.194-21.109 54.133-16.358m15.76 43.391c-.41 1.734-1.073 3.659-1.474 4.279-.936 1.446-.912 1.032.142-2.476a261 261 0 0 0 1.224-4.182c.741-2.664.829-.678.108 2.379m1.189 9.768c2.21 3.688 2.582 10.658.768 14.338-2.829 5.748-11.826 9.01-17.336 6.287l-1.627-.804 1.541-1.548c3.665-3.679 8.165-10.938 11.099-17.913l1.858-4.414 1.235 1.002c.679.55 1.787 1.925 2.462 3.052m-61.798 47.692c-.191.57-1.212 3.874-2.271 7.346l-1.923 6.309-5.063 2.02c-19.594 7.809-34.15 6.44-44.463-4.185-3.123-3.215-4.34-3.604-4.477-1.432-.38 6.026 11.671 14.548 21.485 15.195 4.707.311 5.19 1.947 2.216 7.504-8.662 16.182-33.375 7.895-32.196-10.797.471-7.475 3.765-12.811 9.28-15.033 6.328-2.548 10.687-2.597 13.149-.146 7.57 7.532 20.684 6.017 38.183-4.409 6.237-3.716 6.574-3.847 6.08-2.372M192.92 404.33c-19.835 34.175-39.061 67.332-42.722 73.684-8.066 13.992-12.372 20.487-13.06 19.707-.757-.863 31.243-56.605 58.053-101.121 1.796-2.985 5.525-9.192 8.284-13.794 16.463-27.447 25.216-41.605 25.379-41.055.073.244-16.097 28.405-35.934 62.579m46.105-54.367c-6.046 13.365-14.59 28.864-46.442 84.257a84683 84683 0 0 0-28.896 50.277c-6.389 11.135-12.911 21.183-13.393 20.636-.694-.787 7.152-15.409 24.666-45.975 18.315-31.966 64.872-112.077 65.122-112.062.128.009-.345 1.298-1.057 2.867m62.532 26.576c-.335 7.991-1.023 24.324-1.527 36.297s-1.232 30.091-1.618 40.264c-1.415 37.463-2.925 68.234-3.565 72.763l-.659 4.652.004-5.397c.005-4.98 1.471-47.824 3.155-92.268 1.125-29.657 3.304-70.074 4.022-74.612l.663-4.182.068 3.977c.036 2.187-.208 10.515-.543 18.506m-12.57-12.98c.105 3.104.261 8.395.345 11.756.22 8.676-5.105 94.044-7.91 126.791-2.584 30.17-3.058 34.083-2.302 19.01.296-5.919.533-11.396.528-12.171s1.43-26.453 3.189-57.062c1.76-30.61 3.651-64.602 4.203-75.539 1.013-20.084 1.578-23.787 1.947-12.785" clip-rule="evenodd"/></mask><path fill="#103e2e" fill-rule="evenodd" d="M377.334 113.596c-24.793 1.118-61.829 28.197-80.026 58.514-9.42 15.695-9.718 17.774-2.804 19.555 3.416.88 4.855 1.461 3.378 1.368-.365-.023-2.43-.477-4.591-1.005-18.378-4.506-41.774-.641-57.452 9.492-31.835 20.571-43.795 59.488-29.554 96.169l1.639 4.222-4.25 5.47c-11.925 15.338-12.772 18.422-6.74 24.548 4.667 4.737 4.836 3.95-3.703 17.14-11.394 17.601-12.814 20.828-12.903 29.344-.047 4.545-.186 5.738-.662 5.708-4.344-.274-8.727 3.92-7.096 6.785 1.95 3.43 1.5 5.279-1.542 6.361-4.626 1.647-5.264 3.16-4.965 11.785.32 9.352-.266 10.422-8.015 14.625-10.133 5.493-10.935 6.407-9.684 11.058 1.114 4.137 1.001 5.113-.624 5.395-4.025.702-4.854 1.898-3.992 5.761.776 3.471.386 4.371-2.103 4.834-3.127.582-3.965.982-5.418 2.584-1.228 1.357-6.224 9.005-8.466 12.963-3.227 5.701 2.147 33.931 6.514 34.206.404.026.583.649.513 1.793-.359 5.957 5.505 11.767 10.04 9.945 1.642-.659 1.712-.65 2.335.373.861 1.411 2.601 1.248 9.219-.869 6.956-2.225 5.508-.415 19.987-25.014 50.958-86.577 73.836-126.755 75.465-132.532 2.059-7.305 4.483-13.542 3.287-8.457-.269 1.133-.722 5.669-1.011 10.075-.608 9.337-.408 10 3.093 10.221 3.084.194 3.558 1.156 3.397 6.9-.79 28.712-.524 34.471 1.778 38.371 2.343 3.969 1.974 6.182-1.574 9.404-3.261 2.964-3.306 4.346-.221 6.669 3.894 2.933 3.808 4.247-.481 7.4-3.994 2.938-3.728 4.487 2.43 14.118 3.223 5.04 3.249 7.046.154 12.063-1.224 1.988-2.897 4.71-3.714 6.05-2.319 3.799-2.275 6.186.173 9.61 2.467 3.453 2.4 4.139-.637 6.372-3.46 2.543-3.345 3.952.599 7.242 2.107 1.762 2.079 1.976-.583 4.486l-2.193 2.065-.697 5.532c-1.779 14.113-.828 18.153 5.746 24.428 1.583 1.51 4.823 4.726 7.2 7.145 2.384 2.427 5.055 4.693 5.962 5.058 1.014.407 2.705 1.94 4.428 4.016 4.234 5.094 7.946 6.523 11.03 4.244.781-.577 1.806-.987 2.283-.912.592.091 2.823-1.897 7.007-6.242l6.14-6.376 1.173-12.407c1.529-16.212 4.911-69.62 7.724-122.062 3.045-56.787 2.104-53.627 18.875-63.339 16.252-9.411 22.554-15.674 29.856-29.672 5.236-10.038 5.061-11.842-1.132-11.674-4.878.131-4.773.041-9.225 7.735-9.955 17.21-17.953 24.251-31.252 27.512-3.771.924-3.586 1.029-3.4-1.907l.162-2.571-30.622-1.932c-24.168-1.525-30.637-1.808-30.694-1.349-.039.321-.138 2.11-.221 3.975-.172 3.965-.201 3.975-3.759 1.26-8.191-6.25-17.764-19.079-23.215-31.112-13.581-29.984-2.665-67.831 24.758-85.829 22.323-14.651 56.73-14.9 80.84-.584 5.205 3.088 5.95 3.37 6.02 2.269.237-3.768-20.117-13.956-33.33-16.681-1.209-.25-2.197-.512-2.193-.58.181-2.868 11.9-21.927 18.477-30.05 17.857-22.058 50.775-40.298 62.098-34.414 8.56 4.448 8.34 20.219-.47 33.606-5.84 8.869-6.073 11.778-1.622 20.207 1.851 3.504 1.301 4.159-1.025 1.219-2.928-3.702-4.322-7.832-4.045-11.989l.232-3.506 3.786-5.29c6.25-8.735 9.192-17.756 6.708-20.574-3.405-3.867-18.85-4.914-20.945-1.42-1.923 3.204-8.133 22.028-12.777 38.727-4.091 14.705-4.503 16.134-7.12 24.662-1.463 4.768-2.706 8.036-3.182 8.358-20.038 13.653-36.509 16.838-44.082 8.524-2.53-2.776-11.567-1.948-16.795 1.543-9.428 6.294-11.19 20.869-3.53 29.2 10.232 11.129 25.759 9.455 31.695-3.421 2.901-6.295 1.651-8.57-4.95-8.994-5.196-.332-13.115-4.277-16.843-8.387-2.604-2.873-2.443-3.759.205-1.116 10.305 10.294 27.161 11.324 47.044 2.879 1.553-.66 2.883-1.13 2.957-1.043.075.086-1.366 5.764-3.199 12.619-11.502 42.959-11.818 41.195 8.018 44.84 20.087 3.692 24.989 3.145 26.079-2.91.575-3.193.537-3.219 3.959 2.841 26.747 47.353 27.503 48.433 34.238 48.879 3.943.263 4.923-.25 33.978-17.781a33493 33493 0 0 1 34.119-20.565c3.869-2.326 7.961-4.804 9.092-5.507 2.684-1.671 9.222-5.565 19.481-11.606 24.184-14.239 25.053-15.918 15.713-30.295-5.149-7.929-24.253-41.988-25.142-44.825-.162-.517.412-.622 2.64-.481 5.145.324 5.465-.163 8.43-12.874 7.061-30.259 9.585-27.459-32.509-36.045-11.087-2.261-20.573-4.237-21.079-4.391-.571-.172-3.748-4.956-8.359-12.587-11.675-19.324-12.688-20.153-19.277-15.77a205 205 0 0 1-6.125 3.895c-5.695 3.452-5.708 3.611-.88 11.794 4.647 7.875 4.812 7.649-4.457 6.207-6.268-.975-6.713-.989-7.647-.243-.867.69-1.152.601-1.013-.312.265-1.744-.37-11.397-.93-14.124-2.877-13.993-13.335-21.315-29.407-20.592m12.991 3.297c11.255 3.839 16.365 14.053 15.304 30.602-.881 13.784-7.635 30.305-16.073 39.313-3.294 3.514-3.286 3.472-.616 5.004 7.03 4.032 18.351-.016 21.06-7.531 1.999-5.546 1.081-12.412-2.218-16.558l-1.55-1.952.817-2.464c.452-1.357 1.105-4.714 1.454-7.461.849-6.691.34-6.32 7.178-5.255 11.975 1.868 12.542 1.146 6.747-8.638-4.507-7.613-4.986-6.301 4.533-12.363 7.416-4.724 6.903-5.108 18.552 13.991 4.279 7.017 7.955 12.882 8.166 13.031s10.048 2.26 21.861 4.691c38.447 7.912 36.471 7.02 35.38 15.977-1.028 8.457-5.627 27.416-6.95 28.668-1.135 1.069-5.203.969-8.188-.2-2.235-.878-1.853-.016 8.596 19.322 7.614 14.09 12.22 22.139 16.158 28.243 9.774 15.144 9.682 15.347-13.292 28.967a3239 3239 0 0 0-11.761 7.003l-14.777 8.877a28600 28600 0 0 0-49.058 29.513c-17.471 10.536-18.749 11.084-22.88 9.826-4.29-1.306-7.359-6.003-28.254-43.266-8.326-14.848-7.821-14.41-9.335-8.087-1.013 4.226-1.808 5.04-5.212 5.346-2.851.254-15.718-1.47-24.065-3.229-12.782-2.691-12.799-.162.318-49.72 8.277-31.271 7.867-29.757 10.73-39.689a7720 7720 0 0 0 5.146-17.962c6.648-23.31 11.634-37.243 13.762-38.454 2.466-1.403 15.428.668 16.743 2.676 1.794 2.737-1.758 11.644-8.076 20.241l-2.447 3.329-.297 4.712c-.358 5.678.67 8.789 4.326 13.073 4.332 5.075 6.987 2.046 3.442-3.923-3.747-6.31-3.543-10.275.839-16.314 5.606-7.724 7.144-11.861 7.667-20.64 1.404-23.564-18.22-24.382-49.827-2.076-15.457 10.907-29.736 28.399-38.625 47.317-2.475 5.27-2.551 5.094 2.734 6.361 2.481.593 5.437 1.432 6.571 1.865l2.063.787-1.853-.391c-47.76-10.068-87.384 16.259-92.664 61.573-2.681 23.001 8.491 49.918 27.358 65.908 7.547 6.397 8.441 6.446 8.584.487l.104-4.276 28.853 1.698 28.853 1.701-.029 2.699c-.027 2.388.09 2.726 1.003 2.915 2.669.553 16.567-4.548 15.624-5.734-.179-.222-.074-.241.23-.039.687.456 3.567-1.34 3.212-2.003-.151-.285-.027-.319.301-.087 1.789 1.267 12.996-12.478 18.885-23.16l2.573-4.67 2.209-.163c5.695-.418 5.737-.312 2.588 6.335-7.001 14.776-14.247 22.354-29.941 31.315-18.94 10.814-17.061 1.489-23.243 115.394-1.737 32.038-3.034 52.034-4.204 64.886l-1.693 18.577-4.841 5.088c-5.698 5.989-5.628 5.995-4.093-.404 1.35-5.622 3.37-33.92 4.529-63.451.322-8.24 1.197-29.624 1.944-47.519 2.865-68.784 3.133-78.272 2.299-81.643-.965-3.893-3.191 5.269-4.461 18.376-.842 8.656-2.944 52.164-4.038 83.529-.3 8.629-.728 20.536-.949 26.46s-.815 23.628-1.32 39.344l-.918 28.574-1.162 2.015c-2.857 4.96-6.819 4.069-11.427-2.57-1.213-1.748-1.246-1.937-.541-3.111 1.453-2.415 2.135-7.575 4.112-31.168 8.344-99.485 10.385-159.551 5.4-158.913-.93.117-4.389 52.603-9.26 140.482-3.014 54.395-2.625 50.872-5.372 48.509-.705-.608-2.571-2.474-4.143-4.146-1.573-1.671-4.412-4.505-6.308-6.296-6.107-5.769-6.885-8.014-6.216-17.942.613-9.128.991-10.507 3.526-12.931 2.96-2.832 2.884-3.86-.49-6.621-2.457-2.012-2.644-2.782-.913-3.766 3.99-2.269 4.68-4.506 2.387-7.733-3.346-4.71-3.266-5.634 1.047-12.215 5.516-8.42 5.63-10.64.928-17.836-4.753-7.277-5.144-9.156-2.227-10.716 5.215-2.785 5.207-6.313-.025-10.837l-1.504-1.301 2.279-2.17c4.24-4.032 4.659-6.291 2.101-11.304-.892-1.751-1.704-4.137-1.804-5.305-.367-4.379-.546-15.925-.318-20.438.926-18.207.442-20.39-4.589-20.707-2.457-.155-2.452-2.492.051-22.644 1.334-10.733-2.698-4.111-7.221 11.865-1.794 6.343-22.358 42.436-77.688 136.369l-10.79 18.32-5.666 1.876c-7.882 2.611-9.462 2.213-6.018-1.52 4.454-4.826 12.578-17.657 21.215-33.503.945-1.733 7.806-13.657 15.243-26.497 31.762-54.821 45.253-78.987 52.029-93.2 4.893-10.259 5.96-13.94 4.079-14.058-.622-.04-1.447.716-2.516 2.305-1.536 2.283-63.671 109.22-63.696 109.624-.007.11-3.546 6.39-7.865 13.952-14.395 25.21-19.765 35.448-21.114 40.245-1.198 4.259-6.489 4.648-9.012.661-2.527-3.992-2.659-6.84-.401-8.746 3.543-2.994 7.441-9.437 48.681-80.464 46.032-79.276 47.961-82.773 45.752-82.913-2.146-.135-3.755 2.162-18.922 26.997-33.615 55.038-78.271 132.026-78.45 135.248-.053.95-.896.615-1.61-.639-1.508-2.653-5.143-19.92-5.117-24.31l.024-4.223 3.611-5.975c5.029-8.326 6.383-9.925 8.627-10.185 4.154-.487 5.316-1.793 5.002-5.629-.346-4.228-.327-4.302 1.203-4.86 4.555-1.663 4.754-2.08 3.473-7.288l-.852-3.464 1.461-1.349c.802-.743 3.974-2.692 7.046-4.334 9.55-5.098 10.222-6.226 9.931-16.686-.217-7.897.137-8.94 3.455-10.122 4.146-1.476 5.084-3.662 3.316-7.74-1.235-2.854-.921-3.292 3.381-4.736l3.834-1.289.096-2.711c.054-1.492.146-4.293.207-6.225.175-5.638 3.207-11.959 12.457-25.969 8.568-12.975 9.023-14.784 4.655-18.507-6.596-5.626-5.494-9.337 7.623-25.628 3.498-4.341 3.4-3.754 1.401-8.442-19.318-45.331 8.086-97.184 55.389-104.809 9.721-1.567 23.887-.965 31.603 1.346 2.462.737 6.149.96 6.548.396 1.077-1.518-1.344-3.384-5.597-4.314-5.595-1.222-5.713-1.443-3.415-6.273 9.627-20.247 22.848-35.738 43.395-50.846 20.693-15.217 40.194-21.109 54.133-16.358m15.76 43.391c-.41 1.734-1.073 3.659-1.474 4.279-.936 1.446-.912 1.032.142-2.476a261 261 0 0 0 1.224-4.182c.741-2.664.829-.678.108 2.379m1.189 9.768c2.21 3.688 2.582 10.658.768 14.338-2.829 5.748-11.826 9.01-17.336 6.287l-1.627-.804 1.541-1.548c3.665-3.679 8.165-10.938 11.099-17.913l1.858-4.414 1.235 1.002c.679.55 1.787 1.925 2.462 3.052m-61.798 47.692c-.191.57-1.212 3.874-2.271 7.346l-1.923 6.309-5.063 2.02c-19.594 7.809-34.15 6.44-44.463-4.185-3.123-3.215-4.34-3.604-4.477-1.432-.38 6.026 11.671 14.548 21.485 15.195 4.707.311 5.19 1.947 2.216 7.504-8.662 16.182-33.375 7.895-32.196-10.797.471-7.475 3.765-12.811 9.28-15.033 6.328-2.548 10.687-2.597 13.149-.146 7.57 7.532 20.684 6.017 38.183-4.409 6.237-3.716 6.574-3.847 6.08-2.372M192.92 404.33c-19.835 34.175-39.061 67.332-42.722 73.684-8.066 13.992-12.372 20.487-13.06 19.707-.757-.863 31.243-56.605 58.053-101.121 1.796-2.985 5.525-9.192 8.284-13.794 16.463-27.447 25.216-41.605 25.379-41.055.073.244-16.097 28.405-35.934 62.579m46.105-54.367c-6.046 13.365-14.59 28.864-46.442 84.257a84683 84683 0 0 0-28.896 50.277c-6.389 11.135-12.911 21.183-13.393 20.636-.694-.787 7.152-15.409 24.666-45.975 18.315-31.966 64.872-112.077 65.122-112.062.128.009-.345 1.298-1.057 2.867m62.532 26.576c-.335 7.991-1.023 24.324-1.527 36.297s-1.232 30.091-1.618 40.264c-1.415 37.463-2.925 68.234-3.565 72.763l-.659 4.652.004-5.397c.005-4.98 1.471-47.824 3.155-92.268 1.125-29.657 3.304-70.074 4.022-74.612l.663-4.182.068 3.977c.036 2.187-.208 10.515-.543 18.506m-12.57-12.98c.105 3.104.261 8.395.345 11.756.22 8.676-5.105 94.044-7.91 126.791-2.584 30.17-3.058 34.083-2.302 19.01.296-5.919.533-11.396.528-12.171s1.43-26.453 3.189-57.062c1.76-30.61 3.651-64.602 4.203-75.539 1.013-20.084 1.578-23.787 1.947-12.785" clip-rule="evenodd"/><path stroke="#103e2e" stroke-width="3" d="M377.334 113.596c-24.793 1.118-61.829 28.197-80.026 58.514-9.42 15.695-9.718 17.774-2.804 19.555 3.416.88 4.855 1.461 3.378 1.368-.365-.023-2.43-.477-4.591-1.005-18.378-4.506-41.774-.641-57.452 9.492-31.835 20.571-43.795 59.488-29.554 96.169l1.639 4.222-4.25 5.47c-11.925 15.338-12.772 18.422-6.74 24.548 4.667 4.737 4.836 3.95-3.703 17.14-11.394 17.601-12.814 20.828-12.903 29.344-.047 4.545-.186 5.738-.662 5.708-4.344-.274-8.727 3.92-7.096 6.785 1.95 3.43 1.5 5.279-1.542 6.361-4.626 1.647-5.264 3.16-4.965 11.785.32 9.352-.266 10.422-8.015 14.625-10.133 5.493-10.935 6.407-9.684 11.058 1.114 4.137 1.001 5.113-.624 5.395-4.025.702-4.854 1.898-3.992 5.761.776 3.471.386 4.371-2.103 4.834-3.127.582-3.965.982-5.418 2.584-1.228 1.357-6.224 9.005-8.466 12.963-3.227 5.701 2.147 33.931 6.514 34.206.404.026.583.649.513 1.793-.359 5.957 5.505 11.767 10.04 9.945 1.642-.659 1.712-.65 2.335.373.861 1.411 2.601 1.248 9.219-.869 6.956-2.225 5.508-.415 19.987-25.014 50.958-86.577 73.836-126.755 75.465-132.532 2.059-7.305 4.483-13.542 3.287-8.457-.269 1.133-.722 5.669-1.011 10.075-.608 9.337-.408 10 3.093 10.221 3.084.194 3.558 1.156 3.397 6.9-.79 28.712-.524 34.471 1.778 38.371 2.343 3.969 1.974 6.182-1.574 9.404-3.261 2.964-3.306 4.346-.221 6.669 3.894 2.933 3.808 4.247-.481 7.4-3.994 2.938-3.728 4.487 2.43 14.118 3.223 5.04 3.249 7.046.154 12.063-1.224 1.988-2.897 4.71-3.714 6.05-2.319 3.799-2.275 6.186.173 9.61 2.467 3.453 2.4 4.139-.637 6.372-3.46 2.543-3.345 3.952.599 7.242 2.107 1.762 2.079 1.976-.583 4.486l-2.193 2.065-.697 5.532c-1.779 14.113-.828 18.153 5.746 24.428 1.583 1.51 4.823 4.726 7.2 7.145 2.384 2.427 5.055 4.693 5.962 5.058 1.014.407 2.705 1.94 4.428 4.016 4.234 5.094 7.946 6.523 11.03 4.244.781-.577 1.806-.987 2.283-.912.592.091 2.823-1.897 7.007-6.242l6.14-6.376 1.173-12.407c1.529-16.212 4.911-69.62 7.724-122.062 3.045-56.787 2.104-53.627 18.875-63.339 16.252-9.411 22.554-15.674 29.856-29.672 5.236-10.038 5.061-11.842-1.132-11.674-4.878.131-4.773.041-9.225 7.735-9.955 17.21-17.953 24.251-31.252 27.512-3.771.924-3.586 1.029-3.4-1.907l.162-2.571-30.622-1.932c-24.168-1.525-30.637-1.808-30.694-1.349-.039.321-.138 2.11-.221 3.975-.172 3.965-.201 3.975-3.759 1.26-8.191-6.25-17.764-19.079-23.215-31.112-13.581-29.984-2.665-67.831 24.758-85.829 22.323-14.651 56.73-14.9 80.84-.584 5.205 3.088 5.95 3.37 6.02 2.269.237-3.768-20.117-13.956-33.33-16.681-1.209-.25-2.197-.512-2.193-.58.181-2.868 11.9-21.927 18.477-30.05 17.857-22.058 50.775-40.298 62.098-34.414 8.56 4.448 8.34 20.219-.47 33.606-5.84 8.869-6.073 11.778-1.622 20.207 1.851 3.504 1.301 4.159-1.025 1.219-2.928-3.702-4.322-7.832-4.045-11.989l.232-3.506 3.786-5.29c6.25-8.735 9.192-17.756 6.708-20.574-3.405-3.867-18.85-4.914-20.945-1.42-1.923 3.204-8.133 22.028-12.777 38.727-4.091 14.705-4.503 16.134-7.12 24.662-1.463 4.768-2.706 8.036-3.182 8.358-20.038 13.653-36.509 16.838-44.082 8.524-2.53-2.776-11.567-1.948-16.795 1.543-9.428 6.294-11.19 20.869-3.53 29.2 10.232 11.129 25.759 9.455 31.695-3.421 2.901-6.295 1.651-8.57-4.95-8.994-5.196-.332-13.115-4.277-16.843-8.387-2.604-2.873-2.443-3.759.205-1.116 10.305 10.294 27.161 11.324 47.044 2.879 1.553-.66 2.883-1.13 2.957-1.043.075.086-1.366 5.764-3.199 12.619-11.502 42.959-11.818 41.195 8.018 44.84 20.087 3.692 24.989 3.145 26.079-2.91.575-3.193.537-3.219 3.959 2.841 26.747 47.353 27.503 48.433 34.238 48.879 3.943.263 4.923-.25 33.978-17.781a33493 33493 0 0 1 34.119-20.565c3.869-2.326 7.961-4.804 9.092-5.507 2.684-1.671 9.222-5.565 19.481-11.606 24.184-14.239 25.053-15.918 15.713-30.295-5.149-7.929-24.253-41.988-25.142-44.825-.162-.517.412-.622 2.64-.481 5.145.324 5.465-.163 8.43-12.874 7.061-30.259 9.585-27.459-32.509-36.045-11.087-2.261-20.573-4.237-21.079-4.391-.571-.172-3.748-4.956-8.359-12.587-11.675-19.324-12.688-20.153-19.277-15.77a205 205 0 0 1-6.125 3.895c-5.695 3.452-5.708 3.611-.88 11.794 4.647 7.875 4.812 7.649-4.457 6.207-6.268-.975-6.713-.989-7.647-.243-.867.69-1.152.601-1.013-.312.265-1.744-.37-11.397-.93-14.124-2.877-13.993-13.335-21.315-29.407-20.592Zm12.991 3.297c11.255 3.839 16.365 14.053 15.304 30.602-.881 13.784-7.635 30.305-16.073 39.313-3.294 3.514-3.286 3.472-.616 5.004 7.03 4.032 18.351-.016 21.06-7.531 1.999-5.546 1.081-12.412-2.218-16.558l-1.55-1.952.817-2.464c.452-1.357 1.105-4.714 1.454-7.461.849-6.691.34-6.32 7.178-5.255 11.975 1.868 12.542 1.146 6.747-8.638-4.507-7.613-4.986-6.301 4.533-12.363 7.416-4.724 6.903-5.108 18.552 13.991 4.279 7.017 7.955 12.882 8.166 13.031s10.048 2.26 21.861 4.691c38.447 7.912 36.471 7.02 35.38 15.977-1.028 8.457-5.627 27.416-6.95 28.668-1.135 1.069-5.203.969-8.188-.2-2.235-.878-1.853-.016 8.596 19.322 7.614 14.09 12.22 22.139 16.158 28.243 9.774 15.144 9.682 15.347-13.292 28.967a3239 3239 0 0 0-11.761 7.003l-14.777 8.877a28600 28600 0 0 0-49.058 29.513c-17.471 10.536-18.749 11.084-22.88 9.826-4.29-1.306-7.359-6.003-28.254-43.266-8.326-14.848-7.821-14.41-9.335-8.087-1.013 4.226-1.808 5.04-5.212 5.346-2.851.254-15.718-1.47-24.065-3.229-12.782-2.691-12.799-.162.318-49.72 8.277-31.271 7.867-29.757 10.73-39.689a7720 7720 0 0 0 5.146-17.962c6.648-23.31 11.634-37.243 13.762-38.454 2.466-1.403 15.428.668 16.743 2.676 1.794 2.737-1.758 11.644-8.076 20.241l-2.447 3.329-.297 4.712c-.358 5.678.67 8.789 4.326 13.073 4.332 5.075 6.987 2.046 3.442-3.923-3.747-6.31-3.543-10.275.839-16.314 5.606-7.724 7.144-11.861 7.667-20.64 1.404-23.564-18.22-24.382-49.827-2.076-15.457 10.907-29.736 28.399-38.625 47.317-2.475 5.27-2.551 5.094 2.734 6.361 2.481.593 5.437 1.432 6.571 1.865l2.063.787-1.853-.391c-47.76-10.068-87.384 16.259-92.664 61.573-2.681 23.001 8.491 49.918 27.358 65.908 7.547 6.397 8.441 6.446 8.584.487l.104-4.276 28.853 1.698 28.853 1.701-.029 2.699c-.027 2.388.09 2.726 1.003 2.915 2.669.553 16.567-4.548 15.624-5.734-.179-.222-.074-.241.23-.039.687.456 3.567-1.34 3.212-2.003-.151-.285-.027-.319.301-.087 1.789 1.267 12.996-12.478 18.885-23.16l2.573-4.67 2.209-.163c5.695-.418 5.737-.312 2.588 6.335-7.001 14.776-14.247 22.354-29.941 31.315-18.94 10.814-17.061 1.489-23.243 115.394-1.737 32.038-3.034 52.034-4.204 64.886l-1.693 18.577-4.841 5.088c-5.698 5.989-5.628 5.995-4.093-.404 1.35-5.622 3.37-33.92 4.529-63.451.322-8.24 1.197-29.624 1.944-47.519 2.865-68.784 3.133-78.272 2.299-81.643-.965-3.893-3.191 5.269-4.461 18.376-.842 8.656-2.944 52.164-4.038 83.529-.3 8.629-.728 20.536-.949 26.46s-.815 23.628-1.32 39.344l-.918 28.574-1.162 2.015c-2.857 4.96-6.819 4.069-11.427-2.57-1.213-1.748-1.246-1.937-.541-3.111 1.453-2.415 2.135-7.575 4.112-31.168 8.344-99.485 10.385-159.551 5.4-158.913-.93.117-4.389 52.603-9.26 140.482-3.014 54.395-2.625 50.872-5.372 48.509-.705-.608-2.571-2.474-4.143-4.146-1.573-1.671-4.412-4.505-6.308-6.296-6.107-5.769-6.885-8.014-6.216-17.942.613-9.128.991-10.507 3.526-12.931 2.96-2.832 2.884-3.86-.49-6.621-2.457-2.012-2.644-2.782-.913-3.766 3.99-2.269 4.68-4.506 2.387-7.733-3.346-4.71-3.266-5.634 1.047-12.215 5.516-8.42 5.63-10.64.928-17.836-4.753-7.277-5.144-9.156-2.227-10.716 5.215-2.785 5.207-6.313-.025-10.837l-1.504-1.301 2.279-2.17c4.24-4.032 4.659-6.291 2.101-11.304-.892-1.751-1.704-4.137-1.804-5.305-.367-4.379-.546-15.925-.318-20.438.926-18.207.442-20.39-4.589-20.707-2.457-.155-2.452-2.492.051-22.644 1.334-10.733-2.698-4.111-7.221 11.865-1.794 6.343-22.358 42.436-77.688 136.369l-10.79 18.32-5.666 1.876c-7.882 2.611-9.462 2.213-6.018-1.52 4.454-4.826 12.578-17.657 21.215-33.503.945-1.733 7.806-13.657 15.243-26.497 31.762-54.821 45.253-78.987 52.029-93.2 4.893-10.259 5.96-13.94 4.079-14.058-.622-.04-1.447.716-2.516 2.305-1.536 2.283-63.671 109.22-63.696 109.624-.007.11-3.546 6.39-7.865 13.952-14.395 25.21-19.765 35.448-21.114 40.245-1.198 4.259-6.489 4.648-9.012.661-2.527-3.992-2.659-6.84-.401-8.746 3.543-2.994 7.441-9.437 48.681-80.464 46.032-79.276 47.961-82.773 45.752-82.913-2.146-.135-3.755 2.162-18.922 26.997-33.615 55.038-78.271 132.026-78.45 135.248-.053.95-.896.615-1.61-.639-1.508-2.653-5.143-19.92-5.117-24.31l.024-4.223 3.611-5.975c5.029-8.326 6.383-9.925 8.627-10.185 4.154-.487 5.316-1.793 5.002-5.629-.346-4.228-.327-4.302 1.203-4.86 4.555-1.663 4.754-2.08 3.473-7.288l-.852-3.464 1.461-1.349c.802-.743 3.974-2.692 7.046-4.334 9.55-5.098 10.222-6.226 9.931-16.686-.217-7.897.137-8.94 3.455-10.122 4.146-1.476 5.084-3.662 3.316-7.74-1.235-2.854-.921-3.292 3.381-4.736l3.834-1.289.096-2.711c.054-1.492.146-4.293.207-6.225.175-5.638 3.207-11.959 12.457-25.969 8.568-12.975 9.023-14.784 4.655-18.507-6.596-5.626-5.494-9.337 7.623-25.628 3.498-4.341 3.4-3.754 1.401-8.442-19.318-45.331 8.086-97.184 55.389-104.809 9.721-1.567 23.887-.965 31.603 1.346 2.462.737 6.149.96 6.548.396 1.077-1.518-1.344-3.384-5.597-4.314-5.595-1.222-5.713-1.443-3.415-6.273 9.627-20.247 22.848-35.738 43.395-50.846 20.693-15.217 40.194-21.109 54.133-16.358Zm15.76 43.391c-.41 1.734-1.073 3.659-1.474 4.279-.936 1.446-.912 1.032.142-2.476a261 261 0 0 0 1.224-4.182c.741-2.664.829-.678.108 2.379Zm1.189 9.768c2.21 3.688 2.582 10.658.768 14.338-2.829 5.748-11.826 9.01-17.336 6.287l-1.627-.804 1.541-1.548c3.665-3.679 8.165-10.938 11.099-17.913l1.858-4.414 1.235 1.002c.679.55 1.787 1.925 2.462 3.052Zm-61.798 47.692c-.191.57-1.212 3.874-2.271 7.346l-1.923 6.309-5.063 2.02c-19.594 7.809-34.15 6.44-44.463-4.185-3.123-3.215-4.34-3.604-4.477-1.432-.38 6.026 11.671 14.548 21.485 15.195 4.707.311 5.19 1.947 2.216 7.504-8.662 16.182-33.375 7.895-32.196-10.797.471-7.475 3.765-12.811 9.28-15.033 6.328-2.548 10.687-2.597 13.149-.146 7.57 7.532 20.684 6.017 38.183-4.409 6.237-3.716 6.574-3.847 6.08-2.372ZM192.92 404.33c-19.835 34.175-39.061 67.332-42.722 73.684-8.066 13.992-12.372 20.487-13.06 19.707-.757-.863 31.243-56.605 58.053-101.121 1.796-2.985 5.525-9.192 8.284-13.794 16.463-27.447 25.216-41.605 25.379-41.055.073.244-16.097 28.405-35.934 62.579Zm46.105-54.367c-6.046 13.365-14.59 28.864-46.442 84.257a84683 84683 0 0 0-28.896 50.277c-6.389 11.135-12.911 21.183-13.393 20.636-.694-.787 7.152-15.409 24.666-45.975 18.315-31.966 64.872-112.077 65.122-112.062.128.009-.345 1.298-1.057 2.867Zm62.532 26.576c-.335 7.991-1.023 24.324-1.527 36.297s-1.232 30.091-1.618 40.264c-1.415 37.463-2.925 68.234-3.565 72.763l-.659 4.652.004-5.397c.005-4.98 1.471-47.824 3.155-92.268 1.125-29.657 3.304-70.074 4.022-74.612l.663-4.182.068 3.977c.036 2.187-.208 10.515-.543 18.506Zm-12.57-12.98c.105 3.104.261 8.395.345 11.756.22 8.676-5.105 94.044-7.91 126.791-2.584 30.17-3.058 34.083-2.302 19.01.296-5.919.533-11.396.528-12.171s1.43-26.453 3.189-57.062c1.76-30.61 3.651-64.602 4.203-75.539 1.013-20.084 1.578-23.787 1.947-12.785Z" clip-rule="evenodd" mask="url(#c)"/></g><defs><filter id="a" width="633.818" height="673.434" x=".776" y=".794" color-interpolation-filters="sRGB" filterUnits="userSpaceOnUse"><feFlood flood-opacity="0" result="BackgroundImageFix"/><feColorMatrix in="SourceAlpha" result="hardAlpha" values="0 0 0 0 0 0 0 0 0 0 0 0 0 0 0 0 0 0 127 0"/><feOffset dx="-10" dy="10"/><feGaussianBlur stdDeviation="10"/><feComposite in2="hardAlpha" operator="out"/><feColorMatrix values="0 0 0 0 0 0 0 0 0 0 0 0 0 0 0 0 0 0 0.2 0"/><feBlend in2="BackgroundImageFix" result="effect1_dropShadow_314_445"/><feBlend in="SourceGraphic" in2="effect1_dropShadow_314_445" result="shape"/></filter></defs></svg>