<svg xmlns="http://www.w3.org/2000/svg" width="644" height="654" fill="none" viewBox="0 0 644 654"><g filter="url(#a)"><mask id="b" width="667.103" height="633.507" x="-8.355" y="-9.455" fill="#000" maskUnits="userSpaceOnUse"><path fill="#fff" d="M-8.355-9.455h667.103v633.507H-8.355z"/><path fill-rule="evenodd" d="M298.225 87.226c-1.03.246-4.91 1.024-8.628 1.727-64.311 12.161-109.096 73.277-110.411 150.673l-.11 6.421 1.644-1.742c.905-.961 1.962-1.574 2.35-1.368 1.032.547-.75 2.69-1.808 2.172-.49-.239-.616-.17-.282.155s.09 1.247-.545 2.048c-2.192 2.763 1.413 28.226 5.599 39.537.38 1.03-.415 2.085-3.225 4.271-10.095 7.847-11.542 21.636-6.55 62.395.949 7.736 1.423 14.722 1.202 17.688-1.424 19.08 2.749 113.007 5.864 131.982 2.986 18.211 7.035 28.792 12.32 32.204 2.12 1.37 3.323 1.304 135.34-7.253 150.365-9.747 139.272-8.587 145.265-15.171 6.931-7.611 7.341-15.721 3.67-72.876l-2.822-43.912-2.26-2.602c-1.245-1.433-2.702-2.752-3.234-2.934-1.594-.541-.848 4.491.967 6.513 1.707 1.902 1.463 3.337-.343 2.026-.896-.648-.589 6.674 1.849 44.291 3.781 58.327 3.463 62.567-5.093 67.697l-3.638 2.179-132.943 8.818-132.942 8.818-2.058-2.15c-5.409-5.641-11.037-36.887-12.053-66.917-.092-2.733-.528-14.479-.972-26.105-.667-17.562-.611-32.501.102-26.619.516 4.25 4.886 22.103 5.404 22.07.33-.022 1.433-1.291 2.45-2.822l1.85-2.78-2.245-9.923c-10.957-48.41-10.023-65.142 4.25-76.072 5.986-4.583 21.728-9.781 31.555-10.418 1.483-.096-.49 2.762-10.445 15.117-8.188 10.162-9.293 12.425-7.283 14.934 3.09 3.852 10.298.673 46.863-20.67 21.767-12.705 23.442-13.549 27.477-13.81 5.761-.374 6.981-1.86-20.417 24.889-29.317 28.625-43.374 43.065-46.04 47.296-3.34 5.305-1.862 8.885 3.144 7.606 5.592-1.427 43.484-25.71 42.941-27.517-.144-.489.12-.686.589-.437 1.149.613 21.961-13.969 21.289-14.914-.308-.433-.135-.532.416-.24.844.447 4.768-2.136 22.313-14.697 35.236-25.233 39.483-28.011 40.901-26.765.564.493-9.556 11.664-33.82 37.329-13.34 14.11-22.709 23.962-26.978 28.364-2.548 2.624-14.273 14.912-26.056 27.301l-21.425 22.529.755 3.006c.414 1.655.89 3.128 1.057 3.276.168.144 6.705-6.488 14.531-14.738 16.162-17.041 15.886-16.752 34.155-35.864 23.69-24.779 39.658-41.726 56.426-59.879l11.61-12.572 9.051-1.915c18.38-3.891 38.274-12.374 44.394-18.926 1.098-1.175 2.296-2.153 2.665-2.176s2.313-2.166 4.313-4.761l3.639-4.72 5.438-.629c6.146-.712 10.143-3.117 11.428-6.882.606-1.772 1.066-2.075 2.749-1.81 8.75 1.372 12.49 2.732 15.614 5.673l1.968 1.851 1.833-1.833 1.836-1.834-1.524 1.999c-1.46 1.912-1.468 2.171-.176 6.067 1.097 3.315 1.921 12.932 4.451 51.96 2.361 36.425 3.319 47.881 4 47.837.494-.032 1.735.629 2.753 1.472 2.572 2.12 3.047 1.092 1.707-3.722-.733-2.628-.94-4.791-.573-5.982.776-2.522-4.375-81.979-5.785-89.293-2.273-11.758-8.953-17.587-22.575-19.701l-4.155-.643.11-3.795c.148-5.22-1.615-28.608-2.862-37.958l-1.027-7.685-2.86 2.17c-1.695 1.287-2.678 2.579-2.41 3.163.839 1.818 3.566 33.015 3.348 38.23l-.22 5.143-3.427.222c-3.303.214-3.413.151-3.065-1.756 1.15-6.27.973-14.81-.559-27.324-1.848-15.095-1.543-14.246-4.842-13.406l-2.464.631 1.5 12.635c1.404 11.816 1.533 23.837.295 27.812-.342 1.104-2.079 1.375-13.497 2.115l-13.103.849-1.654-5.401c-1.265-4.128-2.165-11.026-3.808-29.205-4.353-48.212-11.792-70.244-29.577-87.62-24.446-23.882-74.6-20.98-97.462 5.643-18.006 20.969-23.545 45.864-21.648 97.315.479 12.926.7 24.454.493 25.62l-.373 2.113-18.776 1.217-18.772 1.217-.934-2.408c-2.339-6.02-3.379-12.911-5.136-33.977-1.738-20.854-2.004-22.698-3.412-23.935-.842-.739-1.366-1.65-1.165-2.028.2-.375-.31-.46-1.131-.188-2.485.827-2.52 3.954-.066 6.203 1.166 1.07 2.135 2.184 2.154 2.471.066 1.021-1.704.625-2.782-.619-2.448-2.826 1.688 39.651 4.903 50.314.791 2.633 1.328 4.915 1.192 5.069-.337.387-7.548 2.207-7.813 1.972-2.16-1.897-6.65-28.312-6.743-39.679l-.052-6.615-2.493-1.835c-3.92-2.89-3.44-8.055.825-8.894 2.089-.409 2.124-.539 3.699-13.184 3.97-31.859 20.267-66.24 41.479-87.508 43.179-43.298 113.038-48.191 155.87-10.925 2.79 2.428 5.208 3.98 5.679 3.648.493-.354.629-.229.339.312-.271.51 1.765 3.312 4.72 6.498 10.344 11.152 18.63 24.642 25.681 41.82 2.856 6.959 2.915 7.037 5.684 7.304 3.356.324 3.4-.026.897-7.026-4.267-11.944-12.754-27.363-20.747-37.695-5.445-7.04-12.354-14.484-13.181-14.199-.368.13-.7-.204-.735-.74-.226-3.491-23.246-18.7-35.333-23.346-17.503-6.73-45.339-9.71-59.312-6.352m-7.561 12.328c-46.073 8.045-80.822 41.266-93.328 89.215-2.359 9.045-5.08 26.674-4.421 28.632.278.827.402.679.389-.466-.021-1.826 1.891-3.378 4.37-3.539 1.114-.072 1.534-.589 1.458-1.803-.991-16.312 13.122-50.959 28.41-69.762 2.554-3.138 4.381-5.962 4.063-6.273-.322-.314-.154-.358.37-.097.556.271 2.687-1.141 5.101-3.386 28.676-26.65 78.185-36.593 113.763-22.845 24.424 9.44 45.676 33.103 57.404 63.917 1.322 3.468 2.586 6.733 2.808 7.253.322.749.891.66 2.664-.406 2.733-1.646 2.621-2.247-2.663-14.25-23.699-53.831-64.068-76.027-120.388-66.19m37.799 40.378c11.051 1.548 18.828 4.805 27.067 11.323 3.701 2.928 4.805 3.458 5.579 2.679.801-.809.817-.749.095.349-.736 1.118-.448 1.814 1.845 4.444 13.483 15.493 20.024 38.544 23.886 84.201 1.39 16.429 2.076 21.003 4.149 27.751l.543 1.767-56.263 3.17c-30.943 1.744-62.866 3.391-70.935 3.662l-14.67.492.303-2.406c.167-1.321-.063-12.983-.515-25.91-1.961-56.421 6.377-84.947 29.523-101 12.038-8.35 33.02-12.82 49.393-10.522m98.129 45.818c1.313 4.73 8.05 6.953 6.865 2.269-.772-3.053-1.785-3.945-4.991-4.403l-2.572-.369zm-11.068 1c-1.846 1.162-1.888 1.366-.931 4.398 1.274 4.043 1.287 4.054 2.991 2.296.787-.808 1.457-1.164 1.488-.786.03.375.317.204.635-.379.598-1.094-.92-6.92-1.776-6.81-.259.035-1.344.61-2.407 1.281m14.189 12.441c.403 1.813 1.335 4.419 2.068 5.788 1.062 1.989 1.202 3.062.687 5.297-.657 2.86.159 8.41 1.225 8.341 3.935-.255 5-14.031 1.506-19.478-.517-.802-.9-1.644-.857-1.871s-.494-.4-1.192-.382c-.701.015-1.928-.201-2.724-.48-1.329-.47-1.387-.239-.713 2.785m-9.23.838c-2.178 3.169-1.809 8.028.795 10.495 1.066 1.01 1.782 2.018 1.589 2.238-.192.219.34.169 1.179-.11 1.187-.393 1.416-.946 1.027-2.487a1237 1237 0 0 1-1.767-7.19l-1.265-5.211zm-225.118 17.046c-.438 1.402 1.905 4.16 2.919 3.437.349-.244.566-1.447.487-2.673-.163-2.503-2.689-3.069-3.406-.764m-13.164 14.804c-.849 1.867.485 4.528 2.213 4.416.787-.051 1.052-.943.912-3.099-.218-3.366-1.875-4.067-3.125-1.317m238.669-13.635c.411 2.965.531 3.079 3.282 3.129 4.806.083 3.675-5.632-1.189-6.009l-2.52-.196zm-179.758 69.239c-1.551 5.901-24.995 7.874-30.465 2.565-1.428-1.388-1.295-1.409 14.631-2.441 12.085-.784 16.014-.813 15.834-.124m112.581-6.981 40.899-2.186 4.098 3.388c4.16 3.443 9.764 5.429 14.45 5.126 2.955-.192 2.74.707-.998 4.199-9.052 8.454-25.99 16.264-42.308 19.511l-3.992.794 2.474-3.718c2.845-4.273 2.945-5.164.779-6.884-2.215-1.759-3.54-1.154-15.508 7.07l-10.492 7.21-19.121 1.699c-20.448 1.811-20.659 1.786-17.026-2.147 3.909-4.229 4.932-7.947 2.721-9.889-1.97-1.73-5.301-.45-18.823 7.234l-12.737 7.233-17.691 1.147c-9.73.631-17.705.941-17.722.687-.016-.251.859-1.761 1.944-3.355 9.741-14.293 6.377-20.179-6.958-12.183-17.987 10.791-29.875 8.233-40.304-8.669-3.58-5.802-3.671-5.428 1.58-6.304l4.096-.685 2.477 3.041c4.409 5.405 8.443 6.539 20.492 5.758 13.69-.888 19.145-3.488 21.433-10.212l.825-2.424 32.258-1.629c17.741-.895 50.66-2.609 73.154-3.812m67.823-3.05c.238 3.669-11.796 4.778-16.621 1.531l-1.987-1.337 9.272-.616c7.376-.493 9.282-.407 9.336.422m12.092-1.054 1.894-.086-1.69 1.602c-2.718 2.581-7.016 2.534-6.029-.065.566-1.487 1.164-1.918 2.344-1.681.872.174 2.438.276 3.481.23m-242.416 21.59c9.991 19.301 29.217 25.135 46.878 14.225 1.873-1.158 3.547-1.984 3.717-1.833.233.203-4.638 8.067-7.147 11.535-.139.191-5.426 1.263-11.75 2.385-23.326 4.132-32.989 9.297-40.327 21.556-2.164 3.621-4.04-37.668-1.924-42.344 3.769-8.316 7.97-10.519 10.553-5.524m249.589-4.718c-8.347 3.393-16.565 9.282-27.848 19.948-28.511 26.953-110.267 90.858-167.882 131.224-1.785 1.253-4.342 8.192-3.348 9.085 1.195 1.075 80.041-57.58 118.988-88.519 20.096-15.965 41.347-33.777 52.837-44.289 21.14-19.337 31.348-25.346 38.466-22.643 3.625 1.373 3.633 1.446 7.143 55.61 3.264 50.35 3.355 51.335 4.929 52.583.881.7 1.621 1.561 1.644 1.912.066 1.02-2.205.885-2.457-.148-.125-.514.686 15.934 1.801 36.552l2.026 37.489-1.647 3.907c-2.772 6.57-9.754 9.916-14.577 6.982-2.456-1.494-2.331-3.311.525-7.604 4.565-6.859 4.467-10.537-.271-10.23-2.476.161-40.215 26.055-41.501 28.479-.396.743-.694.787-1.132.173-.93-1.307 8.782-15.529 26.371-38.618 16.666-21.88 18.577-25.557 13.887-26.719-3.13-.776-15.166 5.583-18.065 9.546-.768 1.05-2.238 2.106-3.268 2.349-2.251.532-10.984 6.419-10.922 7.363.083 1.29 2.436.496 4.902-1.652 3.503-3.048 4.217-1.739.925 1.694-2.668 2.784-6.221 3.498-7.121 1.428-.268-.612-2.525.501-5.261 2.6-.907.691-.772 1.093.872 2.631 2.589 2.422 2.097 2.612 12.537-4.798 11.465-8.14 16.1-11.243 16.129-10.798.012.187-2.697 3.883-6.016 8.212-18.067 23.533-29.864 40.632-29.128 42.226.252.555.142.836-.251.627-2.258-1.2-4.821 8.448-2.771 10.437 3.121 3.029 6.236 1.611 23.227-10.577 5.391-3.87 11.816-8.454 14.272-10.188l4.468-3.157.12 3.58c.341 10.244 14.231 13.52 22.873 5.4 7.095-6.671 7.479-11.715 4.298-56.659l-2.451-34.622-2.607-2.138c-3.348-2.744-3.87-6.523-1.14-8.22.984-.611 2.082-2.159 2.437-3.438.87-3.133-2.121-49.369-3.316-51.292-.621-1.005-.634-1.43-.037-1.469 1.51-.098-1.794-37.71-3.555-40.484-1.601-2.52-2.984-3.686-4.679-3.95-.633-.099-1.393-.472-1.69-.836-1.059-1.281-8.565-.685-12.736 1.011m-142.954 22.603c-1.782 1.952-5.822 3.685-5.897 2.529-.034-.515 6.041-4.168 7.297-4.389.198-.034-.431.803-1.4 1.86m146.361-4.562c-5.589 3.262-18.72 14.492-24.803 21.209-1.949 2.151-3.085 3.201-2.521 2.328 1.011-1.567 1.005-1.567-.557-.052-.869.844-1.404 1.782-1.19 2.081.214.302-.172 1.051-.859 1.664-1.155 1.032-1.169 1-.209-.403 2.375-3.468-1.776.306-23.773 21.614-95.766 92.769-136.604 126.284-157.583 129.325-6.897.998-13.494-4.105-20.791-16.08-2.245-3.688-2.793-4.124-5.494-4.381-4.166-.389-4.162-.332.42 7.141 16.511 26.935 30.425 25.525 73.161-7.408 22.833-17.598 81.793-71.167 98.51-89.505 1.266-1.393 2.32-2.294 2.339-2.003.019.287.979-.508 2.138-1.768 1.158-1.264 1.923-2.551 1.702-2.862-.22-.311-.017-.838.451-1.169.528-.378.666-.265.366.301-1.185 2.226 1.514-.183 18.466-16.488 25.809-24.819 40.356-37.901 41.265-37.103.571.504-3.237 7.521-8.588 15.815-17.403 26.977-52.215 67.398-121.31 140.858-28.321 30.107-32.748 35.958-28.953 38.265 3.487 2.121.474 4.408 84.304-63.948 40.876-33.333 70.479-55.854 70.617-53.729.157 2.419-30.817 37.794-60.849 69.497-24.555 25.92-34.779 38.059-34.585 41.062.154 2.371 2.525 3.773 5.302 3.137 4.469-1.025 35.83-22.274 35.347-23.948-.126-.448.243-.666.826-.485 2.06.642 12.993-8.108 11.63-9.308-.658-.578-1.228-1.535-1.266-2.132-.124-1.904-1.485-1.144-14.555 8.13-15.121 10.733-24.058 16.848-24.679 16.888-.871.057 3.199-4.451 25.355-28.085 26.037-27.774 58.279-64.362 61.233-69.488 1.125-1.954 2.208-3.733 2.403-3.955 1.683-1.903 2.316-3.488.808-2.026-2.19 2.13-2.118.524.085-1.832 5.638-6.029-1.814-7.921-10.611-2.696-9.338 5.548-20.316 13.793-19.637 14.749.308.43.148.544-.375.265-.519-.277-5.316 2.968-11.215 7.591-12.938 10.138-36.221 28.808-39.556 31.718-1.383 1.211-4.63 3.881-7.215 5.939s-12.814 10.398-22.739 18.532c-23.586 19.334-29.956 24.438-29.982 24.029-.021-.327 13.346-14.813 35.506-38.472 63.513-67.808 103.104-117.178 109.214-136.182 2.286-7.116-1.314-10.275-7.553-6.63m-180.405 16.388c-5.272 3.703-37.481 21.991-43.832 24.89-2.595 1.184-2.57 1.148 15.553-21.753l2.377-3.006 14.162-.915 14.159-.915zm68.244-5.09c-.152.287-4.447 3.444-9.544 7.015-5.095 3.571-12.461 8.867-16.368 11.768s-7.291 5.288-7.518 5.303c-.23.014-1.278.727-2.332 1.58-1.055.855-3.271 2.452-4.92 3.55-10.629 7.061-30.625 21.338-30.377 21.693.161.232-.141.453-.674.487-.533.035-4.876 2.727-9.65 5.985-11.578 7.904-21.747 14.418-22.087 14.151-.391-.309 8.065-9.29 17.159-18.224 4.379-4.3 7.521-7.975 7.277-8.507-.255-.558-.006-.802.617-.608.819.254 27.854-25.445 42.788-40.673 1.89-1.926 36.604-5.355 35.629-3.52m132.645 73.081c-.872.993-.401 2.671 1.273 4.535 1.314 1.469 1.696 1.587 1.995.625 1.004-3.227-1.496-7.178-3.268-5.16m-269.013 43.108c-1.923 7.204.713 15.688 6.306 20.318 3.944 3.264 3.954 2.999.267-7.086-1.774-4.849-3.799-10.491-4.497-12.537l-1.272-3.718zm39.409 3.68c-1.519 1.518-2.007 2.711-1.835 4.466.355 3.607-.75 8.135-2.703 11.071l-1.745 2.624 2.487-1.022c3.373-1.386 4.2-2.233 5.339-5.483.871-2.501 1.554-13.878.825-13.77-.166.023-1.229.976-2.368 2.114m-10.271 11.926c-.885 1.073-1.44 2.361-1.237 2.865.206.503 1.027-.38 1.83-1.964 1.708-3.379 1.594-3.554-.593-.901m180.179 10.987c-1.236 1.704 2.905 5.372 4.496 3.983a68 68 0 0 1 1.538-1.313c.533-.417-3.45-3.789-4.4-3.727-.5.032-1.235.508-1.634 1.057m-4.859 4.252c-2.062 3.645.989 6.165 4.275 3.532 1.954-1.565 1.958-2.86.016-4.4-2.003-1.591-3.014-1.385-4.291.868" clip-rule="evenodd"/></mask><path fill="#103e2e" fill-rule="evenodd" d="M298.225 87.226c-1.03.246-4.91 1.024-8.628 1.727-64.311 12.161-109.096 73.277-110.411 150.673l-.11 6.421 1.644-1.742c.905-.961 1.962-1.574 2.35-1.368 1.032.547-.75 2.69-1.808 2.172-.49-.239-.616-.17-.282.155s.09 1.247-.545 2.048c-2.192 2.763 1.413 28.226 5.599 39.537.38 1.03-.415 2.085-3.225 4.271-10.095 7.847-11.542 21.636-6.55 62.395.949 7.736 1.423 14.722 1.202 17.688-1.424 19.08 2.749 113.007 5.864 131.982 2.986 18.211 7.035 28.792 12.32 32.204 2.12 1.37 3.323 1.304 135.34-7.253 150.365-9.747 139.272-8.587 145.265-15.171 6.931-7.611 7.341-15.721 3.67-72.876l-2.822-43.912-2.26-2.602c-1.245-1.433-2.702-2.752-3.234-2.934-1.594-.541-.848 4.491.967 6.513 1.707 1.902 1.463 3.337-.343 2.026-.896-.648-.589 6.674 1.849 44.291 3.781 58.327 3.463 62.567-5.093 67.697l-3.638 2.179-132.943 8.818-132.942 8.818-2.058-2.15c-5.409-5.641-11.037-36.887-12.053-66.917-.092-2.733-.528-14.479-.972-26.105-.667-17.562-.611-32.501.102-26.619.516 4.25 4.886 22.103 5.404 22.07.33-.022 1.433-1.291 2.45-2.822l1.85-2.78-2.245-9.923c-10.957-48.41-10.023-65.142 4.25-76.072 5.986-4.583 21.728-9.781 31.555-10.418 1.483-.096-.49 2.762-10.445 15.117-8.188 10.162-9.293 12.425-7.283 14.934 3.09 3.852 10.298.673 46.863-20.67 21.767-12.705 23.442-13.549 27.477-13.81 5.761-.374 6.981-1.86-20.417 24.889-29.317 28.625-43.374 43.065-46.04 47.296-3.34 5.305-1.862 8.885 3.144 7.606 5.592-1.427 43.484-25.71 42.941-27.517-.144-.489.12-.686.589-.437 1.149.613 21.961-13.969 21.289-14.914-.308-.433-.135-.532.416-.24.844.447 4.768-2.136 22.313-14.697 35.236-25.233 39.483-28.011 40.901-26.765.564.493-9.556 11.664-33.82 37.329-13.34 14.11-22.709 23.962-26.978 28.364-2.548 2.624-14.273 14.912-26.056 27.301l-21.425 22.529.755 3.006c.414 1.655.89 3.128 1.057 3.276.168.144 6.705-6.488 14.531-14.738 16.162-17.041 15.886-16.752 34.155-35.864 23.69-24.779 39.658-41.726 56.426-59.879l11.61-12.572 9.051-1.915c18.38-3.891 38.274-12.374 44.394-18.926 1.098-1.175 2.296-2.153 2.665-2.176s2.313-2.166 4.313-4.761l3.639-4.72 5.438-.629c6.146-.712 10.143-3.117 11.428-6.882.606-1.772 1.066-2.075 2.749-1.81 8.75 1.372 12.49 2.732 15.614 5.673l1.968 1.851 1.833-1.833 1.836-1.834-1.524 1.999c-1.46 1.912-1.468 2.171-.176 6.067 1.097 3.315 1.921 12.932 4.451 51.96 2.361 36.425 3.319 47.881 4 47.837.494-.032 1.735.629 2.753 1.472 2.572 2.12 3.047 1.092 1.707-3.722-.733-2.628-.94-4.791-.573-5.982.776-2.522-4.375-81.979-5.785-89.293-2.273-11.758-8.953-17.587-22.575-19.701l-4.155-.643.11-3.795c.148-5.22-1.615-28.608-2.862-37.958l-1.027-7.685-2.86 2.17c-1.695 1.287-2.678 2.579-2.41 3.163.839 1.818 3.566 33.015 3.348 38.23l-.22 5.143-3.427.222c-3.303.214-3.413.151-3.065-1.756 1.15-6.27.973-14.81-.559-27.324-1.848-15.095-1.543-14.246-4.842-13.406l-2.464.631 1.5 12.635c1.404 11.816 1.533 23.837.295 27.812-.342 1.104-2.079 1.375-13.497 2.115l-13.103.849-1.654-5.401c-1.265-4.128-2.165-11.026-3.808-29.205-4.353-48.212-11.792-70.244-29.577-87.62-24.446-23.882-74.6-20.98-97.462 5.643-18.006 20.969-23.545 45.864-21.648 97.315.479 12.926.7 24.454.493 25.62l-.373 2.113-18.776 1.217-18.772 1.217-.934-2.408c-2.339-6.02-3.379-12.911-5.136-33.977-1.738-20.854-2.004-22.698-3.412-23.935-.842-.739-1.366-1.65-1.165-2.028.2-.375-.31-.46-1.131-.188-2.485.827-2.52 3.954-.066 6.203 1.166 1.07 2.135 2.184 2.154 2.471.066 1.021-1.704.625-2.782-.619-2.448-2.826 1.688 39.651 4.903 50.314.791 2.633 1.328 4.915 1.192 5.069-.337.387-7.548 2.207-7.813 1.972-2.16-1.897-6.65-28.312-6.743-39.679l-.052-6.615-2.493-1.835c-3.92-2.89-3.44-8.055.825-8.894 2.089-.409 2.124-.539 3.699-13.184 3.97-31.859 20.267-66.24 41.479-87.508 43.179-43.298 113.038-48.191 155.87-10.925 2.79 2.428 5.208 3.98 5.679 3.648.493-.354.629-.229.339.312-.271.51 1.765 3.312 4.72 6.498 10.344 11.152 18.63 24.642 25.681 41.82 2.856 6.959 2.915 7.037 5.684 7.304 3.356.324 3.4-.026.897-7.026-4.267-11.944-12.754-27.363-20.747-37.695-5.445-7.04-12.354-14.484-13.181-14.199-.368.13-.7-.204-.735-.74-.226-3.491-23.246-18.7-35.333-23.346-17.503-6.73-45.339-9.71-59.312-6.352m-7.561 12.328c-46.073 8.045-80.822 41.266-93.328 89.215-2.359 9.045-5.08 26.674-4.421 28.632.278.827.402.679.389-.466-.021-1.826 1.891-3.378 4.37-3.539 1.114-.072 1.534-.589 1.458-1.803-.991-16.312 13.122-50.959 28.41-69.762 2.554-3.138 4.381-5.962 4.063-6.273-.322-.314-.154-.358.37-.097.556.271 2.687-1.141 5.101-3.386 28.676-26.65 78.185-36.593 113.763-22.845 24.424 9.44 45.676 33.103 57.404 63.917 1.322 3.468 2.586 6.733 2.808 7.253.322.749.891.66 2.664-.406 2.733-1.646 2.621-2.247-2.663-14.25-23.699-53.831-64.068-76.027-120.388-66.19m37.799 40.378c11.051 1.548 18.828 4.805 27.067 11.323 3.701 2.928 4.805 3.458 5.579 2.679.801-.809.817-.749.095.349-.736 1.118-.448 1.814 1.845 4.444 13.483 15.493 20.024 38.544 23.886 84.201 1.39 16.429 2.076 21.003 4.149 27.751l.543 1.767-56.263 3.17c-30.943 1.744-62.866 3.391-70.935 3.662l-14.67.492.303-2.406c.167-1.321-.063-12.983-.515-25.91-1.961-56.421 6.377-84.947 29.523-101 12.038-8.35 33.02-12.82 49.393-10.522m98.129 45.818c1.313 4.73 8.05 6.953 6.865 2.269-.772-3.053-1.785-3.945-4.991-4.403l-2.572-.369zm-11.068 1c-1.846 1.162-1.888 1.366-.931 4.398 1.274 4.043 1.287 4.054 2.991 2.296.787-.808 1.457-1.164 1.488-.786.03.375.317.204.635-.379.598-1.094-.92-6.92-1.776-6.81-.259.035-1.344.61-2.407 1.281m14.189 12.441c.403 1.813 1.335 4.419 2.068 5.788 1.062 1.989 1.202 3.062.687 5.297-.657 2.86.159 8.41 1.225 8.341 3.935-.255 5-14.031 1.506-19.478-.517-.802-.9-1.644-.857-1.871s-.494-.4-1.192-.382c-.701.015-1.928-.201-2.724-.48-1.329-.47-1.387-.239-.713 2.785m-9.23.838c-2.178 3.169-1.809 8.028.795 10.495 1.066 1.01 1.782 2.018 1.589 2.238-.192.219.34.169 1.179-.11 1.187-.393 1.416-.946 1.027-2.487a1237 1237 0 0 1-1.767-7.19l-1.265-5.211zm-225.118 17.046c-.438 1.402 1.905 4.16 2.919 3.437.349-.244.566-1.447.487-2.673-.163-2.503-2.689-3.069-3.406-.764m-13.164 14.804c-.849 1.867.485 4.528 2.213 4.416.787-.051 1.052-.943.912-3.099-.218-3.366-1.875-4.067-3.125-1.317m238.669-13.635c.411 2.965.531 3.079 3.282 3.129 4.806.083 3.675-5.632-1.189-6.009l-2.52-.196zm-179.758 69.239c-1.551 5.901-24.995 7.874-30.465 2.565-1.428-1.388-1.295-1.409 14.631-2.441 12.085-.784 16.014-.813 15.834-.124m112.581-6.981 40.899-2.186 4.098 3.388c4.16 3.443 9.764 5.429 14.45 5.126 2.955-.192 2.74.707-.998 4.199-9.052 8.454-25.99 16.264-42.308 19.511l-3.992.794 2.474-3.718c2.845-4.273 2.945-5.164.779-6.884-2.215-1.759-3.54-1.154-15.508 7.07l-10.492 7.21-19.121 1.699c-20.448 1.811-20.659 1.786-17.026-2.147 3.909-4.229 4.932-7.947 2.721-9.889-1.97-1.73-5.301-.45-18.823 7.234l-12.737 7.233-17.691 1.147c-9.73.631-17.705.941-17.722.687-.016-.251.859-1.761 1.944-3.355 9.741-14.293 6.377-20.179-6.958-12.183-17.987 10.791-29.875 8.233-40.304-8.669-3.58-5.802-3.671-5.428 1.58-6.304l4.096-.685 2.477 3.041c4.409 5.405 8.443 6.539 20.492 5.758 13.69-.888 19.145-3.488 21.433-10.212l.825-2.424 32.258-1.629c17.741-.895 50.66-2.609 73.154-3.812m67.823-3.05c.238 3.669-11.796 4.778-16.621 1.531l-1.987-1.337 9.272-.616c7.376-.493 9.282-.407 9.336.422m12.092-1.054 1.894-.086-1.69 1.602c-2.718 2.581-7.016 2.534-6.029-.065.566-1.487 1.164-1.918 2.344-1.681.872.174 2.438.276 3.481.23m-242.416 21.59c9.991 19.301 29.217 25.135 46.878 14.225 1.873-1.158 3.547-1.984 3.717-1.833.233.203-4.638 8.067-7.147 11.535-.139.191-5.426 1.263-11.75 2.385-23.326 4.132-32.989 9.297-40.327 21.556-2.164 3.621-4.04-37.668-1.924-42.344 3.769-8.316 7.97-10.519 10.553-5.524m249.589-4.718c-8.347 3.393-16.565 9.282-27.848 19.948-28.511 26.953-110.267 90.858-167.882 131.224-1.785 1.253-4.342 8.192-3.348 9.085 1.195 1.075 80.041-57.58 118.988-88.519 20.096-15.965 41.347-33.777 52.837-44.289 21.14-19.337 31.348-25.346 38.466-22.643 3.625 1.373 3.633 1.446 7.143 55.61 3.264 50.35 3.355 51.335 4.929 52.583.881.7 1.621 1.561 1.644 1.912.066 1.02-2.205.885-2.457-.148-.125-.514.686 15.934 1.801 36.552l2.026 37.489-1.647 3.907c-2.772 6.57-9.754 9.916-14.577 6.982-2.456-1.494-2.331-3.311.525-7.604 4.565-6.859 4.467-10.537-.271-10.23-2.476.161-40.215 26.055-41.501 28.479-.396.743-.694.787-1.132.173-.93-1.307 8.782-15.529 26.371-38.618 16.666-21.88 18.577-25.557 13.887-26.719-3.13-.776-15.166 5.583-18.065 9.546-.768 1.05-2.238 2.106-3.268 2.349-2.251.532-10.984 6.419-10.922 7.363.083 1.29 2.436.496 4.902-1.652 3.503-3.048 4.217-1.739.925 1.694-2.668 2.784-6.221 3.498-7.121 1.428-.268-.612-2.525.501-5.261 2.6-.907.691-.772 1.093.872 2.631 2.589 2.422 2.097 2.612 12.537-4.798 11.465-8.14 16.1-11.243 16.129-10.798.012.187-2.697 3.883-6.016 8.212-18.067 23.533-29.864 40.632-29.128 42.226.252.555.142.836-.251.627-2.258-1.2-4.821 8.448-2.771 10.437 3.121 3.029 6.236 1.611 23.227-10.577 5.391-3.87 11.816-8.454 14.272-10.188l4.468-3.157.12 3.58c.341 10.244 14.231 13.52 22.873 5.4 7.095-6.671 7.479-11.715 4.298-56.659l-2.451-34.622-2.607-2.138c-3.348-2.744-3.87-6.523-1.14-8.22.984-.611 2.082-2.159 2.437-3.438.87-3.133-2.121-49.369-3.316-51.292-.621-1.005-.634-1.43-.037-1.469 1.51-.098-1.794-37.71-3.555-40.484-1.601-2.52-2.984-3.686-4.679-3.95-.633-.099-1.393-.472-1.69-.836-1.059-1.281-8.565-.685-12.736 1.011m-142.954 22.603c-1.782 1.952-5.822 3.685-5.897 2.529-.034-.515 6.041-4.168 7.297-4.389.198-.034-.431.803-1.4 1.86m146.361-4.562c-5.589 3.262-18.72 14.492-24.803 21.209-1.949 2.151-3.085 3.201-2.521 2.328 1.011-1.567 1.005-1.567-.557-.052-.869.844-1.404 1.782-1.19 2.081.214.302-.172 1.051-.859 1.664-1.155 1.032-1.169 1-.209-.403 2.375-3.468-1.776.306-23.773 21.614-95.766 92.769-136.604 126.284-157.583 129.325-6.897.998-13.494-4.105-20.791-16.08-2.245-3.688-2.793-4.124-5.494-4.381-4.166-.389-4.162-.332.42 7.141 16.511 26.935 30.425 25.525 73.161-7.408 22.833-17.598 81.793-71.167 98.51-89.505 1.266-1.393 2.32-2.294 2.339-2.003.019.287.979-.508 2.138-1.768 1.158-1.264 1.923-2.551 1.702-2.862-.22-.311-.017-.838.451-1.169.528-.378.666-.265.366.301-1.185 2.226 1.514-.183 18.466-16.488 25.809-24.819 40.356-37.901 41.265-37.103.571.504-3.237 7.521-8.588 15.815-17.403 26.977-52.215 67.398-121.31 140.858-28.321 30.107-32.748 35.958-28.953 38.265 3.487 2.121.474 4.408 84.304-63.948 40.876-33.333 70.479-55.854 70.617-53.729.157 2.419-30.817 37.794-60.849 69.497-24.555 25.92-34.779 38.059-34.585 41.062.154 2.371 2.525 3.773 5.302 3.137 4.469-1.025 35.83-22.274 35.347-23.948-.126-.448.243-.666.826-.485 2.06.642 12.993-8.108 11.63-9.308-.658-.578-1.228-1.535-1.266-2.132-.124-1.904-1.485-1.144-14.555 8.13-15.121 10.733-24.058 16.848-24.679 16.888-.871.057 3.199-4.451 25.355-28.085 26.037-27.774 58.279-64.362 61.233-69.488 1.125-1.954 2.208-3.733 2.403-3.955 1.683-1.903 2.316-3.488.808-2.026-2.19 2.13-2.118.524.085-1.832 5.638-6.029-1.814-7.921-10.611-2.696-9.338 5.548-20.316 13.793-19.637 14.749.308.43.148.544-.375.265-.519-.277-5.316 2.968-11.215 7.591-12.938 10.138-36.221 28.808-39.556 31.718-1.383 1.211-4.63 3.881-7.215 5.939s-12.814 10.398-22.739 18.532c-23.586 19.334-29.956 24.438-29.982 24.029-.021-.327 13.346-14.813 35.506-38.472 63.513-67.808 103.104-117.178 109.214-136.182 2.286-7.116-1.314-10.275-7.553-6.63m-180.405 16.388c-5.272 3.703-37.481 21.991-43.832 24.89-2.595 1.184-2.57 1.148 15.553-21.753l2.377-3.006 14.162-.915 14.159-.915zm68.244-5.09c-.152.287-4.447 3.444-9.544 7.015-5.095 3.571-12.461 8.867-16.368 11.768s-7.291 5.288-7.518 5.303c-.23.014-1.278.727-2.332 1.58-1.055.855-3.271 2.452-4.92 3.55-10.629 7.061-30.625 21.338-30.377 21.693.161.232-.141.453-.674.487-.533.035-4.876 2.727-9.65 5.985-11.578 7.904-21.747 14.418-22.087 14.151-.391-.309 8.065-9.29 17.159-18.224 4.379-4.3 7.521-7.975 7.277-8.507-.255-.558-.006-.802.617-.608.819.254 27.854-25.445 42.788-40.673 1.89-1.926 36.604-5.355 35.629-3.52m132.645 73.081c-.872.993-.401 2.671 1.273 4.535 1.314 1.469 1.696 1.587 1.995.625 1.004-3.227-1.496-7.178-3.268-5.16m-269.013 43.108c-1.923 7.204.713 15.688 6.306 20.318 3.944 3.264 3.954 2.999.267-7.086-1.774-4.849-3.799-10.491-4.497-12.537l-1.272-3.718zm39.409 3.68c-1.519 1.518-2.007 2.711-1.835 4.466.355 3.607-.75 8.135-2.703 11.071l-1.745 2.624 2.487-1.022c3.373-1.386 4.2-2.233 5.339-5.483.871-2.501 1.554-13.878.825-13.77-.166.023-1.229.976-2.368 2.114m-10.271 11.926c-.885 1.073-1.44 2.361-1.237 2.865.206.503 1.027-.38 1.83-1.964 1.708-3.379 1.594-3.554-.593-.901m180.179 10.987c-1.236 1.704 2.905 5.372 4.496 3.983a68 68 0 0 1 1.538-1.313c.533-.417-3.45-3.789-4.4-3.727-.5.032-1.235.508-1.634 1.057m-4.859 4.252c-2.062 3.645.989 6.165 4.275 3.532 1.954-1.565 1.958-2.86.016-4.4-2.003-1.591-3.014-1.385-4.291.868" clip-rule="evenodd"/><path stroke="#9ab0a6" stroke-width="150" d="M298.225 87.226c-1.03.246-4.91 1.024-8.628 1.727-64.311 12.161-109.096 73.277-110.411 150.673l-.11 6.421 1.644-1.742c.905-.961 1.962-1.574 2.35-1.368 1.032.547-.75 2.69-1.808 2.172-.49-.239-.616-.17-.282.155s.09 1.247-.545 2.048c-2.192 2.763 1.413 28.226 5.599 39.537.38 1.03-.415 2.085-3.225 4.271-10.095 7.847-11.542 21.636-6.55 62.395.949 7.736 1.423 14.722 1.202 17.688-1.424 19.08 2.749 113.007 5.864 131.982 2.986 18.211 7.035 28.792 12.32 32.204 2.12 1.37 3.323 1.304 135.34-7.253 150.365-9.747 139.272-8.587 145.265-15.171 6.931-7.611 7.341-15.721 3.67-72.876l-2.822-43.912-2.26-2.602c-1.245-1.433-2.702-2.752-3.234-2.934-1.594-.541-.848 4.491.967 6.513 1.707 1.902 1.463 3.337-.343 2.026-.896-.648-.589 6.674 1.849 44.291 3.781 58.327 3.463 62.567-5.093 67.697l-3.638 2.179-132.943 8.818-132.942 8.818-2.058-2.15c-5.409-5.641-11.037-36.887-12.053-66.917-.092-2.733-.528-14.479-.972-26.105-.667-17.562-.611-32.501.102-26.619.516 4.25 4.886 22.103 5.404 22.07.33-.022 1.433-1.291 2.45-2.822l1.85-2.78-2.245-9.923c-10.957-48.41-10.023-65.142 4.25-76.072 5.986-4.583 21.728-9.781 31.555-10.418 1.483-.096-.49 2.762-10.445 15.117-8.188 10.162-9.293 12.425-7.283 14.934 3.09 3.852 10.298.673 46.863-20.67 21.767-12.705 23.442-13.549 27.477-13.81 5.761-.374 6.981-1.86-20.417 24.889-29.317 28.625-43.374 43.065-46.04 47.296-3.34 5.305-1.862 8.885 3.144 7.606 5.592-1.427 43.484-25.71 42.941-27.517-.144-.489.12-.686.589-.437 1.149.613 21.961-13.969 21.289-14.914-.308-.433-.135-.532.416-.24.844.447 4.768-2.136 22.313-14.697 35.236-25.233 39.483-28.011 40.901-26.765.564.493-9.556 11.664-33.82 37.329-13.34 14.11-22.709 23.962-26.978 28.364-2.548 2.624-14.273 14.912-26.056 27.301l-21.425 22.529.755 3.006c.414 1.655.89 3.128 1.057 3.276.168.144 6.705-6.488 14.531-14.738 16.162-17.041 15.886-16.752 34.155-35.864 23.69-24.779 39.658-41.726 56.426-59.879l11.61-12.572 9.051-1.915c18.38-3.891 38.274-12.374 44.394-18.926 1.098-1.175 2.296-2.153 2.665-2.176s2.313-2.166 4.313-4.761l3.639-4.72 5.438-.629c6.146-.712 10.143-3.117 11.428-6.882.606-1.772 1.066-2.075 2.749-1.81 8.75 1.372 12.49 2.732 15.614 5.673l1.968 1.851 1.833-1.833 1.836-1.834-1.524 1.999c-1.46 1.912-1.468 2.171-.176 6.067 1.097 3.315 1.921 12.932 4.451 51.96 2.361 36.425 3.319 47.881 4 47.837.494-.032 1.735.629 2.753 1.472 2.572 2.12 3.047 1.092 1.707-3.722-.733-2.628-.94-4.791-.573-5.982.776-2.522-4.375-81.979-5.785-89.293-2.273-11.758-8.953-17.587-22.575-19.701l-4.155-.643.11-3.795c.148-5.22-1.615-28.608-2.862-37.958l-1.027-7.685-2.86 2.17c-1.695 1.287-2.678 2.579-2.41 3.163.839 1.818 3.566 33.015 3.348 38.23l-.22 5.143-3.427.222c-3.303.214-3.413.151-3.065-1.756 1.15-6.27.973-14.81-.559-27.324-1.848-15.095-1.543-14.246-4.842-13.406l-2.464.631 1.5 12.635c1.404 11.816 1.533 23.837.295 27.812-.342 1.104-2.079 1.375-13.497 2.115l-13.103.849-1.654-5.401c-1.265-4.128-2.165-11.026-3.808-29.205-4.353-48.212-11.792-70.244-29.577-87.62-24.446-23.882-74.6-20.98-97.462 5.643-18.006 20.969-23.545 45.864-21.648 97.315.479 12.926.7 24.454.493 25.62l-.373 2.113-18.776 1.217-18.772 1.217-.934-2.408c-2.339-6.02-3.379-12.911-5.136-33.977-1.738-20.854-2.004-22.698-3.412-23.935-.842-.739-1.366-1.65-1.165-2.028.2-.375-.31-.46-1.131-.188-2.485.827-2.52 3.954-.066 6.203 1.166 1.07 2.135 2.184 2.154 2.471.066 1.021-1.704.625-2.782-.619-2.448-2.826 1.688 39.651 4.903 50.314.791 2.633 1.328 4.915 1.192 5.069-.337.387-7.548 2.207-7.813 1.972-2.16-1.897-6.65-28.312-6.743-39.679l-.052-6.615-2.493-1.835c-3.92-2.89-3.44-8.055.825-8.894 2.089-.409 2.124-.539 3.699-13.184 3.97-31.859 20.267-66.24 41.479-87.508 43.179-43.298 113.038-48.191 155.87-10.925 2.79 2.428 5.208 3.98 5.679 3.648.493-.354.629-.229.339.312-.271.51 1.765 3.312 4.72 6.498 10.344 11.152 18.63 24.642 25.681 41.82 2.856 6.959 2.915 7.037 5.684 7.304 3.356.324 3.4-.026.897-7.026-4.267-11.944-12.754-27.363-20.747-37.695-5.445-7.04-12.354-14.484-13.181-14.199-.368.13-.7-.204-.735-.74-.226-3.491-23.246-18.7-35.333-23.346-17.503-6.73-45.339-9.71-59.312-6.352Zm-7.561 12.328c-46.073 8.045-80.822 41.266-93.328 89.215-2.359 9.045-5.08 26.674-4.421 28.632.278.827.402.679.389-.466-.021-1.826 1.891-3.378 4.37-3.539 1.114-.072 1.534-.589 1.458-1.803-.991-16.312 13.122-50.959 28.41-69.762 2.554-3.138 4.381-5.962 4.063-6.273-.322-.314-.154-.358.37-.097.556.271 2.687-1.141 5.101-3.386 28.676-26.65 78.185-36.593 113.763-22.845 24.424 9.44 45.676 33.103 57.404 63.917 1.322 3.468 2.586 6.733 2.808 7.253.322.749.891.66 2.664-.406 2.733-1.646 2.621-2.247-2.663-14.25-23.699-53.831-64.068-76.027-120.388-66.19Zm37.799 40.378c11.051 1.548 18.828 4.805 27.067 11.323 3.701 2.928 4.805 3.458 5.579 2.679.801-.809.817-.749.095.349-.736 1.118-.448 1.814 1.845 4.444 13.483 15.493 20.024 38.544 23.886 84.201 1.39 16.429 2.076 21.003 4.149 27.751l.543 1.767-56.263 3.17c-30.943 1.744-62.866 3.391-70.935 3.662l-14.67.492.303-2.406c.167-1.321-.063-12.983-.515-25.91-1.961-56.421 6.377-84.947 29.523-101 12.038-8.35 33.02-12.82 49.393-10.522Zm98.129 45.818c1.313 4.73 8.05 6.953 6.865 2.269-.772-3.053-1.785-3.945-4.991-4.403l-2.572-.369zm-11.068 1c-1.846 1.162-1.888 1.366-.931 4.398 1.274 4.043 1.287 4.054 2.991 2.296.787-.808 1.457-1.164 1.488-.786.03.375.317.204.635-.379.598-1.094-.92-6.92-1.776-6.81-.259.035-1.344.61-2.407 1.281Zm14.189 12.441c.403 1.813 1.335 4.419 2.068 5.788 1.062 1.989 1.202 3.062.687 5.297-.657 2.86.159 8.41 1.225 8.341 3.935-.255 5-14.031 1.506-19.478-.517-.802-.9-1.644-.857-1.871s-.494-.4-1.192-.382c-.701.015-1.928-.201-2.724-.48-1.329-.47-1.387-.239-.713 2.785Zm-9.23.838c-2.178 3.169-1.809 8.028.795 10.495 1.066 1.01 1.782 2.018 1.589 2.238-.192.219.34.169 1.179-.11 1.187-.393 1.416-.946 1.027-2.487a1237 1237 0 0 1-1.767-7.19l-1.265-5.211zm-225.118 17.046c-.438 1.402 1.905 4.16 2.919 3.437.349-.244.566-1.447.487-2.673-.163-2.503-2.689-3.069-3.406-.764Zm-13.164 14.804c-.849 1.867.485 4.528 2.213 4.416.787-.051 1.052-.943.912-3.099-.218-3.366-1.875-4.067-3.125-1.317Zm238.669-13.635c.411 2.965.531 3.079 3.282 3.129 4.806.083 3.675-5.632-1.189-6.009l-2.52-.196zm-179.758 69.239c-1.551 5.901-24.995 7.874-30.465 2.565-1.428-1.388-1.295-1.409 14.631-2.441 12.085-.784 16.014-.813 15.834-.124Zm112.581-6.981 40.899-2.186 4.098 3.388c4.16 3.443 9.764 5.429 14.45 5.126 2.955-.192 2.74.707-.998 4.199-9.052 8.454-25.99 16.264-42.308 19.511l-3.992.794 2.474-3.718c2.845-4.273 2.945-5.164.779-6.884-2.215-1.759-3.54-1.154-15.508 7.07l-10.492 7.21-19.121 1.699c-20.448 1.811-20.659 1.786-17.026-2.147 3.909-4.229 4.932-7.947 2.721-9.889-1.97-1.73-5.301-.45-18.823 7.234l-12.737 7.233-17.691 1.147c-9.73.631-17.705.941-17.722.687-.016-.251.859-1.761 1.944-3.355 9.741-14.293 6.377-20.179-6.958-12.183-17.987 10.791-29.875 8.233-40.304-8.669-3.58-5.802-3.671-5.428 1.58-6.304l4.096-.685 2.477 3.041c4.409 5.405 8.443 6.539 20.492 5.758 13.69-.888 19.145-3.488 21.433-10.212l.825-2.424 32.258-1.629c17.741-.895 50.66-2.609 73.154-3.812Zm67.823-3.05c.238 3.669-11.796 4.778-16.621 1.531l-1.987-1.337 9.272-.616c7.376-.493 9.282-.407 9.336.422Zm12.092-1.054 1.894-.086-1.69 1.602c-2.718 2.581-7.016 2.534-6.029-.065.566-1.487 1.164-1.918 2.344-1.681.872.174 2.438.276 3.481.23Zm-242.416 21.59c9.991 19.301 29.217 25.135 46.878 14.225 1.873-1.158 3.547-1.984 3.717-1.833.233.203-4.638 8.067-7.147 11.535-.139.191-5.426 1.263-11.75 2.385-23.326 4.132-32.989 9.297-40.327 21.556-2.164 3.621-4.04-37.668-1.924-42.344 3.769-8.316 7.97-10.519 10.553-5.524Zm249.589-4.718c-8.347 3.393-16.565 9.282-27.848 19.948-28.511 26.953-110.267 90.858-167.882 131.224-1.785 1.253-4.342 8.192-3.348 9.085 1.195 1.075 80.041-57.58 118.988-88.519 20.096-15.965 41.347-33.777 52.837-44.289 21.14-19.337 31.348-25.346 38.466-22.643 3.625 1.373 3.633 1.446 7.143 55.61 3.264 50.35 3.355 51.335 4.929 52.583.881.7 1.621 1.561 1.644 1.912.066 1.02-2.205.885-2.457-.148-.125-.514.686 15.934 1.801 36.552l2.026 37.489-1.647 3.907c-2.772 6.57-9.754 9.916-14.577 6.982-2.456-1.494-2.331-3.311.525-7.604 4.565-6.859 4.467-10.537-.271-10.23-2.476.161-40.215 26.055-41.501 28.479-.396.743-.694.787-1.132.173-.93-1.307 8.782-15.529 26.371-38.618 16.666-21.88 18.577-25.557 13.887-26.719-3.13-.776-15.166 5.583-18.065 9.546-.768 1.05-2.238 2.106-3.268 2.349-2.251.532-10.984 6.419-10.922 7.363.083 1.29 2.436.496 4.902-1.652 3.503-3.048 4.217-1.739.925 1.694-2.668 2.784-6.221 3.498-7.121 1.428-.268-.612-2.525.501-5.261 2.6-.907.691-.772 1.093.872 2.631 2.589 2.422 2.097 2.612 12.537-4.798 11.465-8.14 16.1-11.243 16.129-10.798.012.187-2.697 3.883-6.016 8.212-18.067 23.533-29.864 40.632-29.128 42.226.252.555.142.836-.251.627-2.258-1.2-4.821 8.448-2.771 10.437 3.121 3.029 6.236 1.611 23.227-10.577 5.391-3.87 11.816-8.454 14.272-10.188l4.468-3.157.12 3.58c.341 10.244 14.231 13.52 22.873 5.4 7.095-6.671 7.479-11.715 4.298-56.659l-2.451-34.622-2.607-2.138c-3.348-2.744-3.87-6.523-1.14-8.22.984-.611 2.082-2.159 2.437-3.438.87-3.133-2.121-49.369-3.316-51.292-.621-1.005-.634-1.43-.037-1.469 1.51-.098-1.794-37.71-3.555-40.484-1.601-2.52-2.984-3.686-4.679-3.95-.633-.099-1.393-.472-1.69-.836-1.059-1.281-8.565-.685-12.736 1.011Zm-142.954 22.603c-1.782 1.952-5.822 3.685-5.897 2.529-.034-.515 6.041-4.168 7.297-4.389.198-.034-.431.803-1.4 1.86Zm146.361-4.562c-5.589 3.262-18.72 14.492-24.803 21.209-1.949 2.151-3.085 3.201-2.521 2.328 1.011-1.567 1.005-1.567-.557-.052-.869.844-1.404 1.782-1.19 2.081.214.302-.172 1.051-.859 1.664-1.155 1.032-1.169 1-.209-.403 2.375-3.468-1.776.306-23.773 21.614-95.766 92.769-136.604 126.284-157.583 129.325-6.897.998-13.494-4.105-20.791-16.08-2.245-3.688-2.793-4.124-5.494-4.381-4.166-.389-4.162-.332.42 7.141 16.511 26.935 30.425 25.525 73.161-7.408 22.833-17.598 81.793-71.167 98.51-89.505 1.266-1.393 2.32-2.294 2.339-2.003.019.287.979-.508 2.138-1.768 1.158-1.264 1.923-2.551 1.702-2.862-.22-.311-.017-.838.451-1.169.528-.378.666-.265.366.301-1.185 2.226 1.514-.183 18.466-16.488 25.809-24.819 40.356-37.901 41.265-37.103.571.504-3.237 7.521-8.588 15.815-17.403 26.977-52.215 67.398-121.31 140.858-28.321 30.107-32.748 35.958-28.953 38.265 3.487 2.121.474 4.408 84.304-63.948 40.876-33.333 70.479-55.854 70.617-53.729.157 2.419-30.817 37.794-60.849 69.497-24.555 25.92-34.779 38.059-34.585 41.062.154 2.371 2.525 3.773 5.302 3.137 4.469-1.025 35.83-22.274 35.347-23.948-.126-.448.243-.666.826-.485 2.06.642 12.993-8.108 11.63-9.308-.658-.578-1.228-1.535-1.266-2.132-.124-1.904-1.485-1.144-14.555 8.13-15.121 10.733-24.058 16.848-24.679 16.888-.871.057 3.199-4.451 25.355-28.085 26.037-27.774 58.279-64.362 61.233-69.488 1.125-1.954 2.208-3.733 2.403-3.955 1.683-1.903 2.316-3.488.808-2.026-2.19 2.13-2.118.524.085-1.832 5.638-6.029-1.814-7.921-10.611-2.696-9.338 5.548-20.316 13.793-19.637 14.749.308.43.148.544-.375.265-.519-.277-5.316 2.968-11.215 7.591-12.938 10.138-36.221 28.808-39.556 31.718-1.383 1.211-4.63 3.881-7.215 5.939s-12.814 10.398-22.739 18.532c-23.586 19.334-29.956 24.438-29.982 24.029-.021-.327 13.346-14.813 35.506-38.472 63.513-67.808 103.104-117.178 109.214-136.182 2.286-7.116-1.314-10.275-7.553-6.63Zm-180.405 16.388c-5.272 3.703-37.481 21.991-43.832 24.89-2.595 1.184-2.57 1.148 15.553-21.753l2.377-3.006 14.162-.915 14.159-.915zm68.244-5.09c-.152.287-4.447 3.444-9.544 7.015-5.095 3.571-12.461 8.867-16.368 11.768s-7.291 5.288-7.518 5.303c-.23.014-1.278.727-2.332 1.58-1.055.855-3.271 2.452-4.92 3.55-10.629 7.061-30.625 21.338-30.377 21.693.161.232-.141.453-.674.487-.533.035-4.876 2.727-9.65 5.985-11.578 7.904-21.747 14.418-22.087 14.151-.391-.309 8.065-9.29 17.159-18.224 4.379-4.3 7.521-7.975 7.277-8.507-.255-.558-.006-.802.617-.608.819.254 27.854-25.445 42.788-40.673 1.89-1.926 36.604-5.355 35.629-3.52Zm132.645 73.081c-.872.993-.401 2.671 1.273 4.535 1.314 1.469 1.696 1.587 1.995.625 1.004-3.227-1.496-7.178-3.268-5.16Zm-269.013 43.108c-1.923 7.204.713 15.688 6.306 20.318 3.944 3.264 3.954 2.999.267-7.086-1.774-4.849-3.799-10.491-4.497-12.537l-1.272-3.718zm39.409 3.68c-1.519 1.518-2.007 2.711-1.835 4.466.355 3.607-.75 8.135-2.703 11.071l-1.745 2.624 2.487-1.022c3.373-1.386 4.2-2.233 5.339-5.483.871-2.501 1.554-13.878.825-13.77-.166.023-1.229.976-2.368 2.114Zm-10.271 11.926c-.885 1.073-1.44 2.361-1.237 2.865.206.503 1.027-.38 1.83-1.964 1.708-3.379 1.594-3.554-.593-.901Zm180.179 10.987c-1.236 1.704 2.905 5.372 4.496 3.983a68 68 0 0 1 1.538-1.313c.533-.417-3.45-3.789-4.4-3.727-.5.032-1.235.508-1.634 1.057Zm-4.859 4.252c-2.062 3.645.989 6.165 4.275 3.532 1.954-1.565 1.958-2.86.016-4.4-2.003-1.591-3.014-1.385-4.291.868Z" clip-rule="evenodd" mask="url(#b)"/></g><defs><filter id="a" width="642.496" height="652.233" x=".692" y=".837" color-interpolation-filters="sRGB" filterUnits="userSpaceOnUse"><feFlood flood-opacity="0" result="BackgroundImageFix"/><feColorMatrix in="SourceAlpha" result="hardAlpha" values="0 0 0 0 0 0 0 0 0 0 0 0 0 0 0 0 0 0 127 0"/><feOffset dx="-10" dy="10"/><feGaussianBlur stdDeviation="10"/><feComposite in2="hardAlpha" operator="out"/><feColorMatrix values="0 0 0 0 0 0 0 0 0 0 0 0 0 0 0 0 0 0 0.2 0"/><feBlend in2="BackgroundImageFix" result="effect1_dropShadow_312_318"/><feBlend in="SourceGraphic" in2="effect1_dropShadow_312_318" result="shape"/></filter></defs></svg>