<svg width="644" height="654" viewBox="0 0 644 654" fill="none" xmlns="http://www.w3.org/2000/svg">
<g filter="url(#filter0_d_312_318)">
<mask id="path-1-outside-1_312_318" maskUnits="userSpaceOnUse" x="-8.35514" y="-9.45537" width="667.103" height="633.507" fill="black">
<rect fill="white" x="-8.35514" y="-9.45537" width="667.103" height="633.507"/>
<path fill-rule="evenodd" clip-rule="evenodd" d="M298.225 87.2262C297.195 87.4724 293.315 88.2498 289.597 88.9529C225.286 101.114 180.501 162.23 179.186 239.626L179.076 246.047L180.72 244.305C181.625 243.344 182.682 242.731 183.07 242.937C184.102 243.484 182.32 245.627 181.262 245.109C180.772 244.87 180.646 244.939 180.98 245.264C181.314 245.589 181.07 246.511 180.435 247.312C178.243 250.075 181.848 275.538 186.034 286.849C186.414 287.879 185.619 288.934 182.809 291.12C172.714 298.967 171.267 312.756 176.259 353.515C177.208 361.251 177.682 368.237 177.461 371.203C176.037 390.283 180.21 484.21 183.325 503.185C186.311 521.396 190.36 531.977 195.645 535.389C197.765 536.759 198.968 536.693 330.985 528.136C481.35 518.389 470.257 519.549 476.25 512.965C483.181 505.354 483.591 497.244 479.92 440.089L477.098 396.177L474.838 393.575C473.593 392.142 472.136 390.823 471.604 390.641C470.01 390.1 470.756 395.132 472.571 397.154C474.278 399.056 474.034 400.491 472.228 399.18C471.332 398.532 471.639 405.854 474.077 443.471C477.858 501.798 477.54 506.038 468.984 511.168L465.346 513.347L332.403 522.165L199.461 530.983L197.403 528.833C191.994 523.192 186.366 491.946 185.35 461.916C185.258 459.183 184.822 447.437 184.378 435.811C183.711 418.249 183.767 403.31 184.48 409.192C184.996 413.442 189.366 431.295 189.884 431.262C190.214 431.24 191.317 429.971 192.334 428.44L194.184 425.66L191.939 415.737C180.982 367.327 181.916 350.595 196.189 339.665C202.175 335.082 217.917 329.884 227.744 329.247C229.227 329.151 227.254 332.009 217.299 344.364C209.111 354.526 208.006 356.789 210.016 359.298C213.106 363.15 220.314 359.971 256.879 338.628C278.646 325.923 280.321 325.079 284.356 324.818C290.117 324.444 291.337 322.958 263.939 349.707C234.622 378.332 220.565 392.772 217.899 397.003C214.559 402.308 216.037 405.888 221.043 404.609C226.635 403.182 264.527 378.899 263.984 377.092C263.84 376.603 264.104 376.406 264.573 376.655C265.722 377.268 286.534 362.686 285.862 361.741C285.554 361.308 285.727 361.209 286.278 361.501C287.122 361.948 291.046 359.365 308.591 346.804C343.827 321.571 348.074 318.793 349.492 320.039C350.056 320.532 339.936 331.703 315.672 357.368C302.332 371.478 292.963 381.33 288.694 385.732C286.146 388.356 274.421 400.644 262.638 413.033L241.213 435.562L241.968 438.568C242.382 440.223 242.858 441.696 243.025 441.844C243.193 441.988 249.73 435.356 257.556 427.106C273.718 410.065 273.442 410.354 291.711 391.242C315.401 366.463 331.369 349.516 348.137 331.363L359.747 318.791L368.798 316.876C387.178 312.985 407.072 304.502 413.192 297.95C414.29 296.775 415.488 295.797 415.857 295.774C416.227 295.75 418.17 293.608 420.17 291.013L423.809 286.293L429.247 285.664C435.393 284.952 439.39 282.547 440.675 278.782C441.281 277.01 441.741 276.707 443.424 276.972C452.174 278.344 455.914 279.704 459.038 282.645L461.006 284.496L462.839 282.663L464.675 280.829L463.151 282.828C461.691 284.74 461.683 284.999 462.975 288.895C464.072 292.21 464.896 301.827 467.426 340.855C469.787 377.28 470.745 388.736 471.426 388.692C471.92 388.66 473.161 389.321 474.179 390.164C476.751 392.284 477.226 391.256 475.886 386.442C475.153 383.814 474.946 381.651 475.313 380.46C476.089 377.938 470.938 298.481 469.528 291.167C467.255 279.409 460.575 273.58 446.953 271.466L442.798 270.823L442.908 267.028C443.056 261.808 441.293 238.42 440.046 229.07L439.019 221.385L436.159 223.555C434.464 224.842 433.481 226.134 433.749 226.718C434.588 228.536 437.315 259.733 437.097 264.948L436.877 270.091L433.45 270.313C430.147 270.527 430.037 270.464 430.385 268.557C431.535 262.287 431.358 253.747 429.826 241.233C427.978 226.138 428.283 226.987 424.984 227.827L422.52 228.458L424.02 241.093C425.424 252.909 425.553 264.93 424.315 268.905C423.973 270.009 422.236 270.28 410.818 271.02L397.715 271.869L396.061 266.468C394.796 262.34 393.896 255.442 392.253 237.263C387.9 189.051 380.461 167.019 362.676 149.643C338.23 125.761 288.076 128.663 265.214 155.286C247.208 176.255 241.669 201.15 243.566 252.601C244.045 265.527 244.266 277.055 244.059 278.221L243.686 280.334L224.91 281.551L206.138 282.768L205.204 280.36C202.865 274.34 201.825 267.449 200.068 246.383C198.33 225.529 198.064 223.685 196.656 222.448C195.814 221.709 195.29 220.798 195.491 220.42C195.691 220.045 195.181 219.96 194.36 220.232C191.875 221.059 191.84 224.186 194.294 226.435C195.46 227.505 196.429 228.619 196.448 228.906C196.514 229.927 194.744 229.531 193.666 228.287C191.218 225.461 195.354 267.938 198.569 278.601C199.36 281.234 199.897 283.516 199.761 283.67C199.424 284.057 192.213 285.877 191.948 285.642C189.788 283.745 185.298 257.33 185.205 245.963L185.153 239.348L182.66 237.513C178.74 234.623 179.22 229.458 183.485 228.619C185.574 228.21 185.609 228.08 187.184 215.435C191.154 183.576 207.451 149.195 228.663 127.927C271.842 84.6287 341.701 79.7356 384.533 117.002C387.323 119.43 389.741 120.982 390.212 120.65C390.705 120.296 390.841 120.421 390.551 120.962C390.28 121.472 392.316 124.274 395.271 127.46C405.615 138.612 413.901 152.102 420.952 169.28C423.808 176.239 423.867 176.317 426.636 176.584C429.992 176.908 430.036 176.558 427.533 169.558C423.266 157.614 414.779 142.195 406.786 131.863C401.341 124.823 394.432 117.379 393.605 117.664C393.237 117.794 392.905 117.46 392.87 116.924C392.644 113.433 369.624 98.2238 357.537 93.5778C340.034 86.8479 312.198 83.8672 298.225 87.2262ZM290.664 99.5542C244.591 107.599 209.842 140.82 197.336 188.769C194.977 197.814 192.256 215.443 192.915 217.401C193.193 218.228 193.317 218.08 193.304 216.935C193.283 215.109 195.195 213.557 197.674 213.396C198.788 213.324 199.208 212.807 199.132 211.593C198.141 195.281 212.254 160.634 227.542 141.831C230.096 138.693 231.923 135.869 231.605 135.558C231.283 135.244 231.451 135.2 231.975 135.461C232.531 135.732 234.662 134.32 237.076 132.075C265.752 105.425 315.261 95.4821 350.839 109.23C375.263 118.67 396.515 142.333 408.243 173.147C409.565 176.615 410.829 179.88 411.051 180.4C411.373 181.149 411.942 181.06 413.715 179.994C416.448 178.348 416.336 177.747 411.052 165.744C387.353 111.913 346.984 89.7171 290.664 99.5542ZM328.463 139.932C339.514 141.48 347.291 144.737 355.53 151.255C359.231 154.183 360.335 154.713 361.109 153.934C361.91 153.125 361.926 153.185 361.204 154.283C360.468 155.401 360.756 156.097 363.049 158.727C376.532 174.22 383.073 197.271 386.935 242.928C388.325 259.357 389.011 263.931 391.084 270.679L391.627 272.446L335.364 275.616C304.421 277.36 272.498 279.007 264.429 279.278L249.759 279.77L250.062 277.364C250.229 276.043 249.999 264.381 249.547 251.454C247.586 195.033 255.924 166.507 279.07 150.454C291.108 142.104 312.09 137.634 328.463 139.932ZM426.592 185.75C427.905 190.48 434.642 192.703 433.457 188.019C432.685 184.966 431.672 184.074 428.466 183.616L425.894 183.247L426.592 185.75ZM415.524 186.75C413.678 187.912 413.636 188.116 414.593 191.148C415.867 195.191 415.88 195.202 417.584 193.444C418.371 192.636 419.041 192.28 419.072 192.658C419.102 193.033 419.389 192.862 419.707 192.279C420.305 191.185 418.787 185.359 417.931 185.469C417.672 185.504 416.587 186.079 415.524 186.75ZM429.713 199.191C430.116 201.004 431.048 203.61 431.781 204.979C432.843 206.968 432.983 208.041 432.468 210.276C431.811 213.136 432.627 218.686 433.693 218.617C437.628 218.362 438.693 204.586 435.199 199.139C434.682 198.337 434.299 197.495 434.342 197.268C434.385 197.04 433.848 196.868 433.15 196.886C432.449 196.901 431.222 196.685 430.426 196.406C429.097 195.936 429.039 196.167 429.713 199.191ZM420.483 200.029C418.305 203.198 418.674 208.057 421.278 210.524C422.344 211.534 423.06 212.542 422.867 212.762C422.675 212.981 423.207 212.931 424.046 212.652C425.233 212.259 425.462 211.706 425.073 210.165C424.799 209.079 424.003 205.842 423.306 202.975L422.041 197.764L420.483 200.029ZM195.365 217.075C194.927 218.477 197.27 221.235 198.284 220.512C198.633 220.268 198.85 219.065 198.771 217.839C198.608 215.336 196.082 214.77 195.365 217.075ZM182.201 231.879C181.352 233.746 182.686 236.407 184.414 236.295C185.201 236.244 185.466 235.352 185.326 233.196C185.108 229.83 183.451 229.129 182.201 231.879ZM420.87 218.244C421.281 221.209 421.401 221.323 424.152 221.373C428.958 221.456 427.827 215.741 422.963 215.364L420.443 215.168L420.87 218.244ZM241.112 287.483C239.561 293.384 216.117 295.357 210.647 290.048C209.219 288.66 209.352 288.639 225.278 287.607C237.363 286.823 241.292 286.794 241.112 287.483ZM353.693 280.502L394.592 278.316L398.69 281.704C402.85 285.147 408.454 287.133 413.14 286.83C416.095 286.638 415.88 287.537 412.142 291.029C403.09 299.483 386.152 307.293 369.834 310.54L365.842 311.334L368.316 307.616C371.161 303.343 371.261 302.452 369.095 300.732C366.88 298.973 365.555 299.578 353.587 307.802L343.095 315.012L323.974 316.711C303.526 318.522 303.315 318.497 306.948 314.564C310.857 310.335 311.88 306.617 309.669 304.675C307.699 302.945 304.368 304.225 290.846 311.909L278.109 319.142L260.418 320.289C250.688 320.92 242.713 321.23 242.696 320.976C242.68 320.725 243.555 319.215 244.64 317.621C254.381 303.328 251.017 297.442 237.682 305.438C219.695 316.229 207.807 313.671 197.378 296.769C193.798 290.967 193.707 291.341 198.958 290.465L203.054 289.78L205.531 292.821C209.94 298.226 213.974 299.36 226.023 298.579C239.713 297.691 245.168 295.091 247.456 288.367L248.281 285.943L280.539 284.314C298.28 283.419 331.199 281.705 353.693 280.502ZM421.516 277.452C421.754 281.121 409.72 282.23 404.895 278.983L402.908 277.646L412.18 277.03C419.556 276.537 421.462 276.623 421.516 277.452ZM433.608 276.398L435.502 276.312L433.812 277.914C431.094 280.495 426.796 280.448 427.783 277.849C428.349 276.362 428.947 275.931 430.127 276.168C430.999 276.342 432.565 276.444 433.608 276.398ZM191.192 297.988C201.183 317.289 220.409 323.123 238.07 312.213C239.943 311.055 241.617 310.229 241.787 310.38C242.02 310.583 237.149 318.447 234.64 321.915C234.501 322.106 229.214 323.178 222.89 324.3C199.564 328.432 189.901 333.597 182.563 345.856C180.399 349.477 178.523 308.188 180.639 303.512C184.408 295.196 188.609 292.993 191.192 297.988ZM440.781 293.27C432.434 296.663 424.216 302.552 412.933 313.218C384.422 340.171 302.666 404.076 245.051 444.442C243.266 445.695 240.709 452.634 241.703 453.527C242.898 454.602 321.744 395.947 360.691 365.008C380.787 349.043 402.038 331.231 413.528 320.719C434.668 301.382 444.876 295.373 451.994 298.076C455.619 299.449 455.627 299.522 459.137 353.686C462.401 404.036 462.492 405.021 464.066 406.269C464.947 406.969 465.687 407.83 465.71 408.181C465.776 409.201 463.505 409.066 463.253 408.033C463.128 407.519 463.939 423.967 465.054 444.585L467.08 482.074L465.433 485.981C462.661 492.551 455.679 495.897 450.856 492.963C448.4 491.469 448.525 489.652 451.381 485.359C455.946 478.5 455.848 474.822 451.11 475.129C448.634 475.29 410.895 501.184 409.609 503.608C409.213 504.351 408.915 504.395 408.477 503.781C407.547 502.474 417.259 488.252 434.848 465.163C451.514 443.283 453.425 439.606 448.735 438.444C445.605 437.668 433.569 444.027 430.67 447.99C429.902 449.04 428.432 450.096 427.402 450.339C425.151 450.871 416.418 456.758 416.48 457.702C416.563 458.992 418.916 458.198 421.382 456.05C424.885 453.002 425.599 454.311 422.307 457.744C419.639 460.528 416.086 461.242 415.186 459.172C414.918 458.56 412.661 459.673 409.925 461.772C409.018 462.463 409.153 462.865 410.797 464.403C413.386 466.825 412.894 467.015 423.334 459.605C434.799 451.465 439.434 448.362 439.463 448.807C439.475 448.994 436.766 452.69 433.447 457.019C415.38 480.552 403.583 497.651 404.319 499.245C404.571 499.8 404.461 500.081 404.068 499.872C401.81 498.672 399.247 508.32 401.297 510.309C404.418 513.338 407.533 511.92 424.524 499.732C429.915 495.862 436.34 491.278 438.796 489.544L443.264 486.387L443.384 489.967C443.725 500.211 457.615 503.487 466.257 495.367C473.352 488.696 473.736 483.652 470.555 438.708L468.104 404.086L465.497 401.948C462.149 399.204 461.627 395.425 464.357 393.728C465.341 393.117 466.439 391.569 466.794 390.29C467.664 387.157 464.673 340.921 463.478 338.998C462.857 337.993 462.844 337.568 463.441 337.529C464.951 337.431 461.647 299.819 459.886 297.045C458.285 294.525 456.902 293.359 455.207 293.095C454.574 292.996 453.814 292.623 453.517 292.259C452.458 290.978 444.952 291.574 440.781 293.27ZM297.827 315.873C296.045 317.825 292.005 319.558 291.93 318.402C291.896 317.887 297.971 314.234 299.227 314.013C299.425 313.979 298.796 314.816 297.827 315.873ZM444.188 311.311C438.599 314.573 425.468 325.803 419.385 332.52C417.436 334.671 416.3 335.721 416.864 334.848C417.875 333.281 417.869 333.281 416.307 334.796C415.438 335.64 414.903 336.578 415.117 336.877C415.331 337.179 414.945 337.928 414.258 338.541C413.103 339.573 413.089 339.541 414.049 338.138C416.424 334.67 412.273 338.444 390.276 359.752C294.51 452.521 253.672 486.036 232.693 489.077C225.796 490.075 219.199 484.972 211.902 472.997C209.657 469.309 209.109 468.873 206.408 468.616C202.242 468.227 202.246 468.284 206.828 475.757C223.339 502.692 237.253 501.282 279.989 468.349C302.822 450.751 361.782 397.182 378.499 378.844C379.765 377.451 380.819 376.55 380.838 376.841C380.857 377.128 381.817 376.333 382.976 375.073C384.134 373.809 384.899 372.522 384.678 372.211C384.458 371.9 384.661 371.373 385.129 371.042C385.657 370.664 385.795 370.777 385.495 371.343C384.31 373.569 387.009 371.16 403.961 354.855C429.77 330.036 444.317 316.954 445.226 317.752C445.797 318.256 441.989 325.273 436.638 333.567C419.235 360.544 384.423 400.965 315.328 474.425C287.007 504.532 282.58 510.383 286.375 512.69C289.862 514.811 286.849 517.098 370.679 448.742C411.555 415.409 441.158 392.888 441.296 395.013C441.453 397.432 410.479 432.807 380.447 464.51C355.892 490.43 345.668 502.569 345.862 505.572C346.016 507.943 348.387 509.345 351.164 508.709C355.633 507.684 386.994 486.435 386.511 484.761C386.385 484.313 386.754 484.095 387.337 484.276C389.397 484.918 400.33 476.168 398.967 474.968C398.309 474.39 397.739 473.433 397.701 472.836C397.577 470.932 396.216 471.692 383.146 480.966C368.025 491.699 359.088 497.814 358.467 497.854C357.596 497.911 361.666 493.403 383.822 469.769C409.859 441.995 442.101 405.407 445.055 400.281C446.18 398.327 447.263 396.548 447.458 396.326C449.141 394.423 449.774 392.838 448.266 394.3C446.076 396.43 446.148 394.824 448.351 392.468C453.989 386.439 446.537 384.547 437.74 389.772C428.402 395.32 417.424 403.565 418.103 404.521C418.411 404.951 418.251 405.065 417.728 404.786C417.209 404.509 412.412 407.754 406.513 412.377C393.575 422.515 370.292 441.185 366.957 444.095C365.574 445.306 362.327 447.976 359.742 450.034C357.158 452.093 346.928 460.432 337.003 468.566C313.417 487.9 307.047 493.004 307.021 492.595C307 492.268 320.367 477.782 342.527 454.123C406.04 386.315 445.631 336.945 451.741 317.941C454.027 310.825 450.427 307.666 444.188 311.311ZM263.783 327.699C258.511 331.402 226.302 349.69 219.951 352.589C217.356 353.773 217.381 353.737 235.504 330.836L237.881 327.83L252.043 326.915L266.202 326L263.783 327.699ZM332.027 322.609C331.875 322.896 327.58 326.053 322.483 329.624C317.388 333.195 310.022 338.491 306.115 341.392C302.208 344.293 298.824 346.68 298.597 346.695C298.367 346.709 297.319 347.422 296.265 348.275C295.21 349.13 292.994 350.727 291.345 351.825C280.716 358.886 260.72 373.163 260.968 373.518C261.129 373.75 260.827 373.971 260.294 374.005C259.761 374.04 255.418 376.732 250.644 379.99C239.066 387.894 228.897 394.408 228.557 394.141C228.166 393.832 236.622 384.851 245.716 375.917C250.095 371.617 253.237 367.942 252.993 367.41C252.738 366.852 252.987 366.608 253.61 366.802C254.429 367.056 281.464 341.357 296.398 326.129C298.288 324.203 333.002 320.774 332.027 322.609ZM464.672 395.69C463.8 396.683 464.271 398.361 465.945 400.225C467.259 401.694 467.641 401.812 467.94 400.85C468.944 397.623 466.444 393.672 464.672 395.69ZM195.659 438.798C193.736 446.002 196.372 454.486 201.965 459.116C205.909 462.38 205.919 462.115 202.232 452.03C200.458 447.181 198.433 441.539 197.735 439.493L196.463 435.775L195.659 438.798ZM235.068 442.478C233.549 443.996 233.061 445.189 233.233 446.944C233.588 450.551 232.483 455.079 230.53 458.015L228.785 460.639L231.272 459.617C234.645 458.231 235.472 457.384 236.611 454.134C237.482 451.633 238.165 440.256 237.436 440.364C237.27 440.387 236.207 441.34 235.068 442.478ZM224.797 454.404C223.912 455.477 223.357 456.765 223.56 457.269C223.766 457.772 224.587 456.889 225.39 455.305C227.098 451.926 226.984 451.751 224.797 454.404ZM404.976 465.391C403.74 467.095 407.881 470.763 409.472 469.374C410.151 468.783 410.842 468.191 411.01 468.061C411.543 467.644 407.56 464.272 406.61 464.334C406.11 464.366 405.375 464.842 404.976 465.391ZM400.117 469.643C398.055 473.288 401.106 475.808 404.392 473.175C406.346 471.61 406.35 470.315 404.408 468.775C402.405 467.184 401.394 467.39 400.117 469.643Z"/>
</mask>
<path fill-rule="evenodd" clip-rule="evenodd" d="M298.225 87.2262C297.195 87.4724 293.315 88.2498 289.597 88.9529C225.286 101.114 180.501 162.23 179.186 239.626L179.076 246.047L180.72 244.305C181.625 243.344 182.682 242.731 183.07 242.937C184.102 243.484 182.32 245.627 181.262 245.109C180.772 244.87 180.646 244.939 180.98 245.264C181.314 245.589 181.07 246.511 180.435 247.312C178.243 250.075 181.848 275.538 186.034 286.849C186.414 287.879 185.619 288.934 182.809 291.12C172.714 298.967 171.267 312.756 176.259 353.515C177.208 361.251 177.682 368.237 177.461 371.203C176.037 390.283 180.21 484.21 183.325 503.185C186.311 521.396 190.36 531.977 195.645 535.389C197.765 536.759 198.968 536.693 330.985 528.136C481.35 518.389 470.257 519.549 476.25 512.965C483.181 505.354 483.591 497.244 479.92 440.089L477.098 396.177L474.838 393.575C473.593 392.142 472.136 390.823 471.604 390.641C470.01 390.1 470.756 395.132 472.571 397.154C474.278 399.056 474.034 400.491 472.228 399.18C471.332 398.532 471.639 405.854 474.077 443.471C477.858 501.798 477.54 506.038 468.984 511.168L465.346 513.347L332.403 522.165L199.461 530.983L197.403 528.833C191.994 523.192 186.366 491.946 185.35 461.916C185.258 459.183 184.822 447.437 184.378 435.811C183.711 418.249 183.767 403.31 184.48 409.192C184.996 413.442 189.366 431.295 189.884 431.262C190.214 431.24 191.317 429.971 192.334 428.44L194.184 425.66L191.939 415.737C180.982 367.327 181.916 350.595 196.189 339.665C202.175 335.082 217.917 329.884 227.744 329.247C229.227 329.151 227.254 332.009 217.299 344.364C209.111 354.526 208.006 356.789 210.016 359.298C213.106 363.15 220.314 359.971 256.879 338.628C278.646 325.923 280.321 325.079 284.356 324.818C290.117 324.444 291.337 322.958 263.939 349.707C234.622 378.332 220.565 392.772 217.899 397.003C214.559 402.308 216.037 405.888 221.043 404.609C226.635 403.182 264.527 378.899 263.984 377.092C263.84 376.603 264.104 376.406 264.573 376.655C265.722 377.268 286.534 362.686 285.862 361.741C285.554 361.308 285.727 361.209 286.278 361.501C287.122 361.948 291.046 359.365 308.591 346.804C343.827 321.571 348.074 318.793 349.492 320.039C350.056 320.532 339.936 331.703 315.672 357.368C302.332 371.478 292.963 381.33 288.694 385.732C286.146 388.356 274.421 400.644 262.638 413.033L241.213 435.562L241.968 438.568C242.382 440.223 242.858 441.696 243.025 441.844C243.193 441.988 249.73 435.356 257.556 427.106C273.718 410.065 273.442 410.354 291.711 391.242C315.401 366.463 331.369 349.516 348.137 331.363L359.747 318.791L368.798 316.876C387.178 312.985 407.072 304.502 413.192 297.95C414.29 296.775 415.488 295.797 415.857 295.774C416.227 295.75 418.17 293.608 420.17 291.013L423.809 286.293L429.247 285.664C435.393 284.952 439.39 282.547 440.675 278.782C441.281 277.01 441.741 276.707 443.424 276.972C452.174 278.344 455.914 279.704 459.038 282.645L461.006 284.496L462.839 282.663L464.675 280.829L463.151 282.828C461.691 284.74 461.683 284.999 462.975 288.895C464.072 292.21 464.896 301.827 467.426 340.855C469.787 377.28 470.745 388.736 471.426 388.692C471.92 388.66 473.161 389.321 474.179 390.164C476.751 392.284 477.226 391.256 475.886 386.442C475.153 383.814 474.946 381.651 475.313 380.46C476.089 377.938 470.938 298.481 469.528 291.167C467.255 279.409 460.575 273.58 446.953 271.466L442.798 270.823L442.908 267.028C443.056 261.808 441.293 238.42 440.046 229.07L439.019 221.385L436.159 223.555C434.464 224.842 433.481 226.134 433.749 226.718C434.588 228.536 437.315 259.733 437.097 264.948L436.877 270.091L433.45 270.313C430.147 270.527 430.037 270.464 430.385 268.557C431.535 262.287 431.358 253.747 429.826 241.233C427.978 226.138 428.283 226.987 424.984 227.827L422.52 228.458L424.02 241.093C425.424 252.909 425.553 264.93 424.315 268.905C423.973 270.009 422.236 270.28 410.818 271.02L397.715 271.869L396.061 266.468C394.796 262.34 393.896 255.442 392.253 237.263C387.9 189.051 380.461 167.019 362.676 149.643C338.23 125.761 288.076 128.663 265.214 155.286C247.208 176.255 241.669 201.15 243.566 252.601C244.045 265.527 244.266 277.055 244.059 278.221L243.686 280.334L224.91 281.551L206.138 282.768L205.204 280.36C202.865 274.34 201.825 267.449 200.068 246.383C198.33 225.529 198.064 223.685 196.656 222.448C195.814 221.709 195.29 220.798 195.491 220.42C195.691 220.045 195.181 219.96 194.36 220.232C191.875 221.059 191.84 224.186 194.294 226.435C195.46 227.505 196.429 228.619 196.448 228.906C196.514 229.927 194.744 229.531 193.666 228.287C191.218 225.461 195.354 267.938 198.569 278.601C199.36 281.234 199.897 283.516 199.761 283.67C199.424 284.057 192.213 285.877 191.948 285.642C189.788 283.745 185.298 257.33 185.205 245.963L185.153 239.348L182.66 237.513C178.74 234.623 179.22 229.458 183.485 228.619C185.574 228.21 185.609 228.08 187.184 215.435C191.154 183.576 207.451 149.195 228.663 127.927C271.842 84.6287 341.701 79.7356 384.533 117.002C387.323 119.43 389.741 120.982 390.212 120.65C390.705 120.296 390.841 120.421 390.551 120.962C390.28 121.472 392.316 124.274 395.271 127.46C405.615 138.612 413.901 152.102 420.952 169.28C423.808 176.239 423.867 176.317 426.636 176.584C429.992 176.908 430.036 176.558 427.533 169.558C423.266 157.614 414.779 142.195 406.786 131.863C401.341 124.823 394.432 117.379 393.605 117.664C393.237 117.794 392.905 117.46 392.87 116.924C392.644 113.433 369.624 98.2238 357.537 93.5778C340.034 86.8479 312.198 83.8672 298.225 87.2262ZM290.664 99.5542C244.591 107.599 209.842 140.82 197.336 188.769C194.977 197.814 192.256 215.443 192.915 217.401C193.193 218.228 193.317 218.08 193.304 216.935C193.283 215.109 195.195 213.557 197.674 213.396C198.788 213.324 199.208 212.807 199.132 211.593C198.141 195.281 212.254 160.634 227.542 141.831C230.096 138.693 231.923 135.869 231.605 135.558C231.283 135.244 231.451 135.2 231.975 135.461C232.531 135.732 234.662 134.32 237.076 132.075C265.752 105.425 315.261 95.4821 350.839 109.23C375.263 118.67 396.515 142.333 408.243 173.147C409.565 176.615 410.829 179.88 411.051 180.4C411.373 181.149 411.942 181.06 413.715 179.994C416.448 178.348 416.336 177.747 411.052 165.744C387.353 111.913 346.984 89.7171 290.664 99.5542ZM328.463 139.932C339.514 141.48 347.291 144.737 355.53 151.255C359.231 154.183 360.335 154.713 361.109 153.934C361.91 153.125 361.926 153.185 361.204 154.283C360.468 155.401 360.756 156.097 363.049 158.727C376.532 174.22 383.073 197.271 386.935 242.928C388.325 259.357 389.011 263.931 391.084 270.679L391.627 272.446L335.364 275.616C304.421 277.36 272.498 279.007 264.429 279.278L249.759 279.77L250.062 277.364C250.229 276.043 249.999 264.381 249.547 251.454C247.586 195.033 255.924 166.507 279.07 150.454C291.108 142.104 312.09 137.634 328.463 139.932ZM426.592 185.75C427.905 190.48 434.642 192.703 433.457 188.019C432.685 184.966 431.672 184.074 428.466 183.616L425.894 183.247L426.592 185.75ZM415.524 186.75C413.678 187.912 413.636 188.116 414.593 191.148C415.867 195.191 415.88 195.202 417.584 193.444C418.371 192.636 419.041 192.28 419.072 192.658C419.102 193.033 419.389 192.862 419.707 192.279C420.305 191.185 418.787 185.359 417.931 185.469C417.672 185.504 416.587 186.079 415.524 186.75ZM429.713 199.191C430.116 201.004 431.048 203.61 431.781 204.979C432.843 206.968 432.983 208.041 432.468 210.276C431.811 213.136 432.627 218.686 433.693 218.617C437.628 218.362 438.693 204.586 435.199 199.139C434.682 198.337 434.299 197.495 434.342 197.268C434.385 197.04 433.848 196.868 433.15 196.886C432.449 196.901 431.222 196.685 430.426 196.406C429.097 195.936 429.039 196.167 429.713 199.191ZM420.483 200.029C418.305 203.198 418.674 208.057 421.278 210.524C422.344 211.534 423.06 212.542 422.867 212.762C422.675 212.981 423.207 212.931 424.046 212.652C425.233 212.259 425.462 211.706 425.073 210.165C424.799 209.079 424.003 205.842 423.306 202.975L422.041 197.764L420.483 200.029ZM195.365 217.075C194.927 218.477 197.27 221.235 198.284 220.512C198.633 220.268 198.85 219.065 198.771 217.839C198.608 215.336 196.082 214.77 195.365 217.075ZM182.201 231.879C181.352 233.746 182.686 236.407 184.414 236.295C185.201 236.244 185.466 235.352 185.326 233.196C185.108 229.83 183.451 229.129 182.201 231.879ZM420.87 218.244C421.281 221.209 421.401 221.323 424.152 221.373C428.958 221.456 427.827 215.741 422.963 215.364L420.443 215.168L420.87 218.244ZM241.112 287.483C239.561 293.384 216.117 295.357 210.647 290.048C209.219 288.66 209.352 288.639 225.278 287.607C237.363 286.823 241.292 286.794 241.112 287.483ZM353.693 280.502L394.592 278.316L398.69 281.704C402.85 285.147 408.454 287.133 413.14 286.83C416.095 286.638 415.88 287.537 412.142 291.029C403.09 299.483 386.152 307.293 369.834 310.54L365.842 311.334L368.316 307.616C371.161 303.343 371.261 302.452 369.095 300.732C366.88 298.973 365.555 299.578 353.587 307.802L343.095 315.012L323.974 316.711C303.526 318.522 303.315 318.497 306.948 314.564C310.857 310.335 311.88 306.617 309.669 304.675C307.699 302.945 304.368 304.225 290.846 311.909L278.109 319.142L260.418 320.289C250.688 320.92 242.713 321.23 242.696 320.976C242.68 320.725 243.555 319.215 244.64 317.621C254.381 303.328 251.017 297.442 237.682 305.438C219.695 316.229 207.807 313.671 197.378 296.769C193.798 290.967 193.707 291.341 198.958 290.465L203.054 289.78L205.531 292.821C209.94 298.226 213.974 299.36 226.023 298.579C239.713 297.691 245.168 295.091 247.456 288.367L248.281 285.943L280.539 284.314C298.28 283.419 331.199 281.705 353.693 280.502ZM421.516 277.452C421.754 281.121 409.72 282.23 404.895 278.983L402.908 277.646L412.18 277.03C419.556 276.537 421.462 276.623 421.516 277.452ZM433.608 276.398L435.502 276.312L433.812 277.914C431.094 280.495 426.796 280.448 427.783 277.849C428.349 276.362 428.947 275.931 430.127 276.168C430.999 276.342 432.565 276.444 433.608 276.398ZM191.192 297.988C201.183 317.289 220.409 323.123 238.07 312.213C239.943 311.055 241.617 310.229 241.787 310.38C242.02 310.583 237.149 318.447 234.64 321.915C234.501 322.106 229.214 323.178 222.89 324.3C199.564 328.432 189.901 333.597 182.563 345.856C180.399 349.477 178.523 308.188 180.639 303.512C184.408 295.196 188.609 292.993 191.192 297.988ZM440.781 293.27C432.434 296.663 424.216 302.552 412.933 313.218C384.422 340.171 302.666 404.076 245.051 444.442C243.266 445.695 240.709 452.634 241.703 453.527C242.898 454.602 321.744 395.947 360.691 365.008C380.787 349.043 402.038 331.231 413.528 320.719C434.668 301.382 444.876 295.373 451.994 298.076C455.619 299.449 455.627 299.522 459.137 353.686C462.401 404.036 462.492 405.021 464.066 406.269C464.947 406.969 465.687 407.83 465.71 408.181C465.776 409.201 463.505 409.066 463.253 408.033C463.128 407.519 463.939 423.967 465.054 444.585L467.08 482.074L465.433 485.981C462.661 492.551 455.679 495.897 450.856 492.963C448.4 491.469 448.525 489.652 451.381 485.359C455.946 478.5 455.848 474.822 451.11 475.129C448.634 475.29 410.895 501.184 409.609 503.608C409.213 504.351 408.915 504.395 408.477 503.781C407.547 502.474 417.259 488.252 434.848 465.163C451.514 443.283 453.425 439.606 448.735 438.444C445.605 437.668 433.569 444.027 430.67 447.99C429.902 449.04 428.432 450.096 427.402 450.339C425.151 450.871 416.418 456.758 416.48 457.702C416.563 458.992 418.916 458.198 421.382 456.05C424.885 453.002 425.599 454.311 422.307 457.744C419.639 460.528 416.086 461.242 415.186 459.172C414.918 458.56 412.661 459.673 409.925 461.772C409.018 462.463 409.153 462.865 410.797 464.403C413.386 466.825 412.894 467.015 423.334 459.605C434.799 451.465 439.434 448.362 439.463 448.807C439.475 448.994 436.766 452.69 433.447 457.019C415.38 480.552 403.583 497.651 404.319 499.245C404.571 499.8 404.461 500.081 404.068 499.872C401.81 498.672 399.247 508.32 401.297 510.309C404.418 513.338 407.533 511.92 424.524 499.732C429.915 495.862 436.34 491.278 438.796 489.544L443.264 486.387L443.384 489.967C443.725 500.211 457.615 503.487 466.257 495.367C473.352 488.696 473.736 483.652 470.555 438.708L468.104 404.086L465.497 401.948C462.149 399.204 461.627 395.425 464.357 393.728C465.341 393.117 466.439 391.569 466.794 390.29C467.664 387.157 464.673 340.921 463.478 338.998C462.857 337.993 462.844 337.568 463.441 337.529C464.951 337.431 461.647 299.819 459.886 297.045C458.285 294.525 456.902 293.359 455.207 293.095C454.574 292.996 453.814 292.623 453.517 292.259C452.458 290.978 444.952 291.574 440.781 293.27ZM297.827 315.873C296.045 317.825 292.005 319.558 291.93 318.402C291.896 317.887 297.971 314.234 299.227 314.013C299.425 313.979 298.796 314.816 297.827 315.873ZM444.188 311.311C438.599 314.573 425.468 325.803 419.385 332.52C417.436 334.671 416.3 335.721 416.864 334.848C417.875 333.281 417.869 333.281 416.307 334.796C415.438 335.64 414.903 336.578 415.117 336.877C415.331 337.179 414.945 337.928 414.258 338.541C413.103 339.573 413.089 339.541 414.049 338.138C416.424 334.67 412.273 338.444 390.276 359.752C294.51 452.521 253.672 486.036 232.693 489.077C225.796 490.075 219.199 484.972 211.902 472.997C209.657 469.309 209.109 468.873 206.408 468.616C202.242 468.227 202.246 468.284 206.828 475.757C223.339 502.692 237.253 501.282 279.989 468.349C302.822 450.751 361.782 397.182 378.499 378.844C379.765 377.451 380.819 376.55 380.838 376.841C380.857 377.128 381.817 376.333 382.976 375.073C384.134 373.809 384.899 372.522 384.678 372.211C384.458 371.9 384.661 371.373 385.129 371.042C385.657 370.664 385.795 370.777 385.495 371.343C384.31 373.569 387.009 371.16 403.961 354.855C429.77 330.036 444.317 316.954 445.226 317.752C445.797 318.256 441.989 325.273 436.638 333.567C419.235 360.544 384.423 400.965 315.328 474.425C287.007 504.532 282.58 510.383 286.375 512.69C289.862 514.811 286.849 517.098 370.679 448.742C411.555 415.409 441.158 392.888 441.296 395.013C441.453 397.432 410.479 432.807 380.447 464.51C355.892 490.43 345.668 502.569 345.862 505.572C346.016 507.943 348.387 509.345 351.164 508.709C355.633 507.684 386.994 486.435 386.511 484.761C386.385 484.313 386.754 484.095 387.337 484.276C389.397 484.918 400.33 476.168 398.967 474.968C398.309 474.39 397.739 473.433 397.701 472.836C397.577 470.932 396.216 471.692 383.146 480.966C368.025 491.699 359.088 497.814 358.467 497.854C357.596 497.911 361.666 493.403 383.822 469.769C409.859 441.995 442.101 405.407 445.055 400.281C446.18 398.327 447.263 396.548 447.458 396.326C449.141 394.423 449.774 392.838 448.266 394.3C446.076 396.43 446.148 394.824 448.351 392.468C453.989 386.439 446.537 384.547 437.74 389.772C428.402 395.32 417.424 403.565 418.103 404.521C418.411 404.951 418.251 405.065 417.728 404.786C417.209 404.509 412.412 407.754 406.513 412.377C393.575 422.515 370.292 441.185 366.957 444.095C365.574 445.306 362.327 447.976 359.742 450.034C357.158 452.093 346.928 460.432 337.003 468.566C313.417 487.9 307.047 493.004 307.021 492.595C307 492.268 320.367 477.782 342.527 454.123C406.04 386.315 445.631 336.945 451.741 317.941C454.027 310.825 450.427 307.666 444.188 311.311ZM263.783 327.699C258.511 331.402 226.302 349.69 219.951 352.589C217.356 353.773 217.381 353.737 235.504 330.836L237.881 327.83L252.043 326.915L266.202 326L263.783 327.699ZM332.027 322.609C331.875 322.896 327.58 326.053 322.483 329.624C317.388 333.195 310.022 338.491 306.115 341.392C302.208 344.293 298.824 346.68 298.597 346.695C298.367 346.709 297.319 347.422 296.265 348.275C295.21 349.13 292.994 350.727 291.345 351.825C280.716 358.886 260.72 373.163 260.968 373.518C261.129 373.75 260.827 373.971 260.294 374.005C259.761 374.04 255.418 376.732 250.644 379.99C239.066 387.894 228.897 394.408 228.557 394.141C228.166 393.832 236.622 384.851 245.716 375.917C250.095 371.617 253.237 367.942 252.993 367.41C252.738 366.852 252.987 366.608 253.61 366.802C254.429 367.056 281.464 341.357 296.398 326.129C298.288 324.203 333.002 320.774 332.027 322.609ZM464.672 395.69C463.8 396.683 464.271 398.361 465.945 400.225C467.259 401.694 467.641 401.812 467.94 400.85C468.944 397.623 466.444 393.672 464.672 395.69ZM195.659 438.798C193.736 446.002 196.372 454.486 201.965 459.116C205.909 462.38 205.919 462.115 202.232 452.03C200.458 447.181 198.433 441.539 197.735 439.493L196.463 435.775L195.659 438.798ZM235.068 442.478C233.549 443.996 233.061 445.189 233.233 446.944C233.588 450.551 232.483 455.079 230.53 458.015L228.785 460.639L231.272 459.617C234.645 458.231 235.472 457.384 236.611 454.134C237.482 451.633 238.165 440.256 237.436 440.364C237.27 440.387 236.207 441.34 235.068 442.478ZM224.797 454.404C223.912 455.477 223.357 456.765 223.56 457.269C223.766 457.772 224.587 456.889 225.39 455.305C227.098 451.926 226.984 451.751 224.797 454.404ZM404.976 465.391C403.74 467.095 407.881 470.763 409.472 469.374C410.151 468.783 410.842 468.191 411.01 468.061C411.543 467.644 407.56 464.272 406.61 464.334C406.11 464.366 405.375 464.842 404.976 465.391ZM400.117 469.643C398.055 473.288 401.106 475.808 404.392 473.175C406.346 471.61 406.35 470.315 404.408 468.775C402.405 467.184 401.394 467.39 400.117 469.643Z" fill="#103E2E"/>
<path fill-rule="evenodd" clip-rule="evenodd" d="M298.225 87.2262C297.195 87.4724 293.315 88.2498 289.597 88.9529C225.286 101.114 180.501 162.23 179.186 239.626L179.076 246.047L180.72 244.305C181.625 243.344 182.682 242.731 183.07 242.937C184.102 243.484 182.32 245.627 181.262 245.109C180.772 244.87 180.646 244.939 180.98 245.264C181.314 245.589 181.07 246.511 180.435 247.312C178.243 250.075 181.848 275.538 186.034 286.849C186.414 287.879 185.619 288.934 182.809 291.12C172.714 298.967 171.267 312.756 176.259 353.515C177.208 361.251 177.682 368.237 177.461 371.203C176.037 390.283 180.21 484.21 183.325 503.185C186.311 521.396 190.36 531.977 195.645 535.389C197.765 536.759 198.968 536.693 330.985 528.136C481.35 518.389 470.257 519.549 476.25 512.965C483.181 505.354 483.591 497.244 479.92 440.089L477.098 396.177L474.838 393.575C473.593 392.142 472.136 390.823 471.604 390.641C470.01 390.1 470.756 395.132 472.571 397.154C474.278 399.056 474.034 400.491 472.228 399.18C471.332 398.532 471.639 405.854 474.077 443.471C477.858 501.798 477.54 506.038 468.984 511.168L465.346 513.347L332.403 522.165L199.461 530.983L197.403 528.833C191.994 523.192 186.366 491.946 185.35 461.916C185.258 459.183 184.822 447.437 184.378 435.811C183.711 418.249 183.767 403.31 184.48 409.192C184.996 413.442 189.366 431.295 189.884 431.262C190.214 431.24 191.317 429.971 192.334 428.44L194.184 425.66L191.939 415.737C180.982 367.327 181.916 350.595 196.189 339.665C202.175 335.082 217.917 329.884 227.744 329.247C229.227 329.151 227.254 332.009 217.299 344.364C209.111 354.526 208.006 356.789 210.016 359.298C213.106 363.15 220.314 359.971 256.879 338.628C278.646 325.923 280.321 325.079 284.356 324.818C290.117 324.444 291.337 322.958 263.939 349.707C234.622 378.332 220.565 392.772 217.899 397.003C214.559 402.308 216.037 405.888 221.043 404.609C226.635 403.182 264.527 378.899 263.984 377.092C263.84 376.603 264.104 376.406 264.573 376.655C265.722 377.268 286.534 362.686 285.862 361.741C285.554 361.308 285.727 361.209 286.278 361.501C287.122 361.948 291.046 359.365 308.591 346.804C343.827 321.571 348.074 318.793 349.492 320.039C350.056 320.532 339.936 331.703 315.672 357.368C302.332 371.478 292.963 381.33 288.694 385.732C286.146 388.356 274.421 400.644 262.638 413.033L241.213 435.562L241.968 438.568C242.382 440.223 242.858 441.696 243.025 441.844C243.193 441.988 249.73 435.356 257.556 427.106C273.718 410.065 273.442 410.354 291.711 391.242C315.401 366.463 331.369 349.516 348.137 331.363L359.747 318.791L368.798 316.876C387.178 312.985 407.072 304.502 413.192 297.95C414.29 296.775 415.488 295.797 415.857 295.774C416.227 295.75 418.17 293.608 420.17 291.013L423.809 286.293L429.247 285.664C435.393 284.952 439.39 282.547 440.675 278.782C441.281 277.01 441.741 276.707 443.424 276.972C452.174 278.344 455.914 279.704 459.038 282.645L461.006 284.496L462.839 282.663L464.675 280.829L463.151 282.828C461.691 284.74 461.683 284.999 462.975 288.895C464.072 292.21 464.896 301.827 467.426 340.855C469.787 377.28 470.745 388.736 471.426 388.692C471.92 388.66 473.161 389.321 474.179 390.164C476.751 392.284 477.226 391.256 475.886 386.442C475.153 383.814 474.946 381.651 475.313 380.46C476.089 377.938 470.938 298.481 469.528 291.167C467.255 279.409 460.575 273.58 446.953 271.466L442.798 270.823L442.908 267.028C443.056 261.808 441.293 238.42 440.046 229.07L439.019 221.385L436.159 223.555C434.464 224.842 433.481 226.134 433.749 226.718C434.588 228.536 437.315 259.733 437.097 264.948L436.877 270.091L433.45 270.313C430.147 270.527 430.037 270.464 430.385 268.557C431.535 262.287 431.358 253.747 429.826 241.233C427.978 226.138 428.283 226.987 424.984 227.827L422.52 228.458L424.02 241.093C425.424 252.909 425.553 264.93 424.315 268.905C423.973 270.009 422.236 270.28 410.818 271.02L397.715 271.869L396.061 266.468C394.796 262.34 393.896 255.442 392.253 237.263C387.9 189.051 380.461 167.019 362.676 149.643C338.23 125.761 288.076 128.663 265.214 155.286C247.208 176.255 241.669 201.15 243.566 252.601C244.045 265.527 244.266 277.055 244.059 278.221L243.686 280.334L224.91 281.551L206.138 282.768L205.204 280.36C202.865 274.34 201.825 267.449 200.068 246.383C198.33 225.529 198.064 223.685 196.656 222.448C195.814 221.709 195.29 220.798 195.491 220.42C195.691 220.045 195.181 219.96 194.36 220.232C191.875 221.059 191.84 224.186 194.294 226.435C195.46 227.505 196.429 228.619 196.448 228.906C196.514 229.927 194.744 229.531 193.666 228.287C191.218 225.461 195.354 267.938 198.569 278.601C199.36 281.234 199.897 283.516 199.761 283.67C199.424 284.057 192.213 285.877 191.948 285.642C189.788 283.745 185.298 257.33 185.205 245.963L185.153 239.348L182.66 237.513C178.74 234.623 179.22 229.458 183.485 228.619C185.574 228.21 185.609 228.08 187.184 215.435C191.154 183.576 207.451 149.195 228.663 127.927C271.842 84.6287 341.701 79.7356 384.533 117.002C387.323 119.43 389.741 120.982 390.212 120.65C390.705 120.296 390.841 120.421 390.551 120.962C390.28 121.472 392.316 124.274 395.271 127.46C405.615 138.612 413.901 152.102 420.952 169.28C423.808 176.239 423.867 176.317 426.636 176.584C429.992 176.908 430.036 176.558 427.533 169.558C423.266 157.614 414.779 142.195 406.786 131.863C401.341 124.823 394.432 117.379 393.605 117.664C393.237 117.794 392.905 117.46 392.87 116.924C392.644 113.433 369.624 98.2238 357.537 93.5778C340.034 86.8479 312.198 83.8672 298.225 87.2262ZM290.664 99.5542C244.591 107.599 209.842 140.82 197.336 188.769C194.977 197.814 192.256 215.443 192.915 217.401C193.193 218.228 193.317 218.08 193.304 216.935C193.283 215.109 195.195 213.557 197.674 213.396C198.788 213.324 199.208 212.807 199.132 211.593C198.141 195.281 212.254 160.634 227.542 141.831C230.096 138.693 231.923 135.869 231.605 135.558C231.283 135.244 231.451 135.2 231.975 135.461C232.531 135.732 234.662 134.32 237.076 132.075C265.752 105.425 315.261 95.4821 350.839 109.23C375.263 118.67 396.515 142.333 408.243 173.147C409.565 176.615 410.829 179.88 411.051 180.4C411.373 181.149 411.942 181.06 413.715 179.994C416.448 178.348 416.336 177.747 411.052 165.744C387.353 111.913 346.984 89.7171 290.664 99.5542ZM328.463 139.932C339.514 141.48 347.291 144.737 355.53 151.255C359.231 154.183 360.335 154.713 361.109 153.934C361.91 153.125 361.926 153.185 361.204 154.283C360.468 155.401 360.756 156.097 363.049 158.727C376.532 174.22 383.073 197.271 386.935 242.928C388.325 259.357 389.011 263.931 391.084 270.679L391.627 272.446L335.364 275.616C304.421 277.36 272.498 279.007 264.429 279.278L249.759 279.77L250.062 277.364C250.229 276.043 249.999 264.381 249.547 251.454C247.586 195.033 255.924 166.507 279.07 150.454C291.108 142.104 312.09 137.634 328.463 139.932ZM426.592 185.75C427.905 190.48 434.642 192.703 433.457 188.019C432.685 184.966 431.672 184.074 428.466 183.616L425.894 183.247L426.592 185.75ZM415.524 186.75C413.678 187.912 413.636 188.116 414.593 191.148C415.867 195.191 415.88 195.202 417.584 193.444C418.371 192.636 419.041 192.28 419.072 192.658C419.102 193.033 419.389 192.862 419.707 192.279C420.305 191.185 418.787 185.359 417.931 185.469C417.672 185.504 416.587 186.079 415.524 186.75ZM429.713 199.191C430.116 201.004 431.048 203.61 431.781 204.979C432.843 206.968 432.983 208.041 432.468 210.276C431.811 213.136 432.627 218.686 433.693 218.617C437.628 218.362 438.693 204.586 435.199 199.139C434.682 198.337 434.299 197.495 434.342 197.268C434.385 197.04 433.848 196.868 433.15 196.886C432.449 196.901 431.222 196.685 430.426 196.406C429.097 195.936 429.039 196.167 429.713 199.191ZM420.483 200.029C418.305 203.198 418.674 208.057 421.278 210.524C422.344 211.534 423.06 212.542 422.867 212.762C422.675 212.981 423.207 212.931 424.046 212.652C425.233 212.259 425.462 211.706 425.073 210.165C424.799 209.079 424.003 205.842 423.306 202.975L422.041 197.764L420.483 200.029ZM195.365 217.075C194.927 218.477 197.27 221.235 198.284 220.512C198.633 220.268 198.85 219.065 198.771 217.839C198.608 215.336 196.082 214.77 195.365 217.075ZM182.201 231.879C181.352 233.746 182.686 236.407 184.414 236.295C185.201 236.244 185.466 235.352 185.326 233.196C185.108 229.83 183.451 229.129 182.201 231.879ZM420.87 218.244C421.281 221.209 421.401 221.323 424.152 221.373C428.958 221.456 427.827 215.741 422.963 215.364L420.443 215.168L420.87 218.244ZM241.112 287.483C239.561 293.384 216.117 295.357 210.647 290.048C209.219 288.66 209.352 288.639 225.278 287.607C237.363 286.823 241.292 286.794 241.112 287.483ZM353.693 280.502L394.592 278.316L398.69 281.704C402.85 285.147 408.454 287.133 413.14 286.83C416.095 286.638 415.88 287.537 412.142 291.029C403.09 299.483 386.152 307.293 369.834 310.54L365.842 311.334L368.316 307.616C371.161 303.343 371.261 302.452 369.095 300.732C366.88 298.973 365.555 299.578 353.587 307.802L343.095 315.012L323.974 316.711C303.526 318.522 303.315 318.497 306.948 314.564C310.857 310.335 311.88 306.617 309.669 304.675C307.699 302.945 304.368 304.225 290.846 311.909L278.109 319.142L260.418 320.289C250.688 320.92 242.713 321.23 242.696 320.976C242.68 320.725 243.555 319.215 244.64 317.621C254.381 303.328 251.017 297.442 237.682 305.438C219.695 316.229 207.807 313.671 197.378 296.769C193.798 290.967 193.707 291.341 198.958 290.465L203.054 289.78L205.531 292.821C209.94 298.226 213.974 299.36 226.023 298.579C239.713 297.691 245.168 295.091 247.456 288.367L248.281 285.943L280.539 284.314C298.28 283.419 331.199 281.705 353.693 280.502ZM421.516 277.452C421.754 281.121 409.72 282.23 404.895 278.983L402.908 277.646L412.18 277.03C419.556 276.537 421.462 276.623 421.516 277.452ZM433.608 276.398L435.502 276.312L433.812 277.914C431.094 280.495 426.796 280.448 427.783 277.849C428.349 276.362 428.947 275.931 430.127 276.168C430.999 276.342 432.565 276.444 433.608 276.398ZM191.192 297.988C201.183 317.289 220.409 323.123 238.07 312.213C239.943 311.055 241.617 310.229 241.787 310.38C242.02 310.583 237.149 318.447 234.64 321.915C234.501 322.106 229.214 323.178 222.89 324.3C199.564 328.432 189.901 333.597 182.563 345.856C180.399 349.477 178.523 308.188 180.639 303.512C184.408 295.196 188.609 292.993 191.192 297.988ZM440.781 293.27C432.434 296.663 424.216 302.552 412.933 313.218C384.422 340.171 302.666 404.076 245.051 444.442C243.266 445.695 240.709 452.634 241.703 453.527C242.898 454.602 321.744 395.947 360.691 365.008C380.787 349.043 402.038 331.231 413.528 320.719C434.668 301.382 444.876 295.373 451.994 298.076C455.619 299.449 455.627 299.522 459.137 353.686C462.401 404.036 462.492 405.021 464.066 406.269C464.947 406.969 465.687 407.83 465.71 408.181C465.776 409.201 463.505 409.066 463.253 408.033C463.128 407.519 463.939 423.967 465.054 444.585L467.08 482.074L465.433 485.981C462.661 492.551 455.679 495.897 450.856 492.963C448.4 491.469 448.525 489.652 451.381 485.359C455.946 478.5 455.848 474.822 451.11 475.129C448.634 475.29 410.895 501.184 409.609 503.608C409.213 504.351 408.915 504.395 408.477 503.781C407.547 502.474 417.259 488.252 434.848 465.163C451.514 443.283 453.425 439.606 448.735 438.444C445.605 437.668 433.569 444.027 430.67 447.99C429.902 449.04 428.432 450.096 427.402 450.339C425.151 450.871 416.418 456.758 416.48 457.702C416.563 458.992 418.916 458.198 421.382 456.05C424.885 453.002 425.599 454.311 422.307 457.744C419.639 460.528 416.086 461.242 415.186 459.172C414.918 458.56 412.661 459.673 409.925 461.772C409.018 462.463 409.153 462.865 410.797 464.403C413.386 466.825 412.894 467.015 423.334 459.605C434.799 451.465 439.434 448.362 439.463 448.807C439.475 448.994 436.766 452.69 433.447 457.019C415.38 480.552 403.583 497.651 404.319 499.245C404.571 499.8 404.461 500.081 404.068 499.872C401.81 498.672 399.247 508.32 401.297 510.309C404.418 513.338 407.533 511.92 424.524 499.732C429.915 495.862 436.34 491.278 438.796 489.544L443.264 486.387L443.384 489.967C443.725 500.211 457.615 503.487 466.257 495.367C473.352 488.696 473.736 483.652 470.555 438.708L468.104 404.086L465.497 401.948C462.149 399.204 461.627 395.425 464.357 393.728C465.341 393.117 466.439 391.569 466.794 390.29C467.664 387.157 464.673 340.921 463.478 338.998C462.857 337.993 462.844 337.568 463.441 337.529C464.951 337.431 461.647 299.819 459.886 297.045C458.285 294.525 456.902 293.359 455.207 293.095C454.574 292.996 453.814 292.623 453.517 292.259C452.458 290.978 444.952 291.574 440.781 293.27ZM297.827 315.873C296.045 317.825 292.005 319.558 291.93 318.402C291.896 317.887 297.971 314.234 299.227 314.013C299.425 313.979 298.796 314.816 297.827 315.873ZM444.188 311.311C438.599 314.573 425.468 325.803 419.385 332.52C417.436 334.671 416.3 335.721 416.864 334.848C417.875 333.281 417.869 333.281 416.307 334.796C415.438 335.64 414.903 336.578 415.117 336.877C415.331 337.179 414.945 337.928 414.258 338.541C413.103 339.573 413.089 339.541 414.049 338.138C416.424 334.67 412.273 338.444 390.276 359.752C294.51 452.521 253.672 486.036 232.693 489.077C225.796 490.075 219.199 484.972 211.902 472.997C209.657 469.309 209.109 468.873 206.408 468.616C202.242 468.227 202.246 468.284 206.828 475.757C223.339 502.692 237.253 501.282 279.989 468.349C302.822 450.751 361.782 397.182 378.499 378.844C379.765 377.451 380.819 376.55 380.838 376.841C380.857 377.128 381.817 376.333 382.976 375.073C384.134 373.809 384.899 372.522 384.678 372.211C384.458 371.9 384.661 371.373 385.129 371.042C385.657 370.664 385.795 370.777 385.495 371.343C384.31 373.569 387.009 371.16 403.961 354.855C429.77 330.036 444.317 316.954 445.226 317.752C445.797 318.256 441.989 325.273 436.638 333.567C419.235 360.544 384.423 400.965 315.328 474.425C287.007 504.532 282.58 510.383 286.375 512.69C289.862 514.811 286.849 517.098 370.679 448.742C411.555 415.409 441.158 392.888 441.296 395.013C441.453 397.432 410.479 432.807 380.447 464.51C355.892 490.43 345.668 502.569 345.862 505.572C346.016 507.943 348.387 509.345 351.164 508.709C355.633 507.684 386.994 486.435 386.511 484.761C386.385 484.313 386.754 484.095 387.337 484.276C389.397 484.918 400.33 476.168 398.967 474.968C398.309 474.39 397.739 473.433 397.701 472.836C397.577 470.932 396.216 471.692 383.146 480.966C368.025 491.699 359.088 497.814 358.467 497.854C357.596 497.911 361.666 493.403 383.822 469.769C409.859 441.995 442.101 405.407 445.055 400.281C446.18 398.327 447.263 396.548 447.458 396.326C449.141 394.423 449.774 392.838 448.266 394.3C446.076 396.43 446.148 394.824 448.351 392.468C453.989 386.439 446.537 384.547 437.74 389.772C428.402 395.32 417.424 403.565 418.103 404.521C418.411 404.951 418.251 405.065 417.728 404.786C417.209 404.509 412.412 407.754 406.513 412.377C393.575 422.515 370.292 441.185 366.957 444.095C365.574 445.306 362.327 447.976 359.742 450.034C357.158 452.093 346.928 460.432 337.003 468.566C313.417 487.9 307.047 493.004 307.021 492.595C307 492.268 320.367 477.782 342.527 454.123C406.04 386.315 445.631 336.945 451.741 317.941C454.027 310.825 450.427 307.666 444.188 311.311ZM263.783 327.699C258.511 331.402 226.302 349.69 219.951 352.589C217.356 353.773 217.381 353.737 235.504 330.836L237.881 327.83L252.043 326.915L266.202 326L263.783 327.699ZM332.027 322.609C331.875 322.896 327.58 326.053 322.483 329.624C317.388 333.195 310.022 338.491 306.115 341.392C302.208 344.293 298.824 346.68 298.597 346.695C298.367 346.709 297.319 347.422 296.265 348.275C295.21 349.13 292.994 350.727 291.345 351.825C280.716 358.886 260.72 373.163 260.968 373.518C261.129 373.75 260.827 373.971 260.294 374.005C259.761 374.04 255.418 376.732 250.644 379.99C239.066 387.894 228.897 394.408 228.557 394.141C228.166 393.832 236.622 384.851 245.716 375.917C250.095 371.617 253.237 367.942 252.993 367.41C252.738 366.852 252.987 366.608 253.61 366.802C254.429 367.056 281.464 341.357 296.398 326.129C298.288 324.203 333.002 320.774 332.027 322.609ZM464.672 395.69C463.8 396.683 464.271 398.361 465.945 400.225C467.259 401.694 467.641 401.812 467.94 400.85C468.944 397.623 466.444 393.672 464.672 395.69ZM195.659 438.798C193.736 446.002 196.372 454.486 201.965 459.116C205.909 462.38 205.919 462.115 202.232 452.03C200.458 447.181 198.433 441.539 197.735 439.493L196.463 435.775L195.659 438.798ZM235.068 442.478C233.549 443.996 233.061 445.189 233.233 446.944C233.588 450.551 232.483 455.079 230.53 458.015L228.785 460.639L231.272 459.617C234.645 458.231 235.472 457.384 236.611 454.134C237.482 451.633 238.165 440.256 237.436 440.364C237.27 440.387 236.207 441.34 235.068 442.478ZM224.797 454.404C223.912 455.477 223.357 456.765 223.56 457.269C223.766 457.772 224.587 456.889 225.39 455.305C227.098 451.926 226.984 451.751 224.797 454.404ZM404.976 465.391C403.74 467.095 407.881 470.763 409.472 469.374C410.151 468.783 410.842 468.191 411.01 468.061C411.543 467.644 407.56 464.272 406.61 464.334C406.11 464.366 405.375 464.842 404.976 465.391ZM400.117 469.643C398.055 473.288 401.106 475.808 404.392 473.175C406.346 471.61 406.35 470.315 404.408 468.775C402.405 467.184 401.394 467.39 400.117 469.643Z" stroke="#9AB0A6" stroke-width="150" mask="url(#path-1-outside-1_312_318)"/>
</g>
<defs>
<filter id="filter0_d_312_318" x="0.692383" y="0.837219" width="642.496" height="652.233" filterUnits="userSpaceOnUse" color-interpolation-filters="sRGB">
<feFlood flood-opacity="0" result="BackgroundImageFix"/>
<feColorMatrix in="SourceAlpha" type="matrix" values="0 0 0 0 0 0 0 0 0 0 0 0 0 0 0 0 0 0 127 0" result="hardAlpha"/>
<feOffset dx="-10" dy="10"/>
<feGaussianBlur stdDeviation="10"/>
<feComposite in2="hardAlpha" operator="out"/>
<feColorMatrix type="matrix" values="0 0 0 0 0 0 0 0 0 0 0 0 0 0 0 0 0 0 0.2 0"/>
<feBlend mode="normal" in2="BackgroundImageFix" result="effect1_dropShadow_312_318"/>
<feBlend mode="normal" in="SourceGraphic" in2="effect1_dropShadow_312_318" result="shape"/>
</filter>
</defs>
</svg>
