<svg width="284" height="125" viewBox="0 0 284 125" fill="none" xmlns="http://www.w3.org/2000/svg">
<g filter="url(#filter0_d_267_600)">
<path d="M261.484 35.7271C266.099 43.3682 268.511 51.6409 268.574 60.0106C268.637 68.3803 266.349 76.6724 261.85 84.3512" stroke="white" stroke-width="0.847966"/>
<path d="M12.141 84.3365C7.64618 76.6596 5.36106 68.3704 5.4253 60.0037C5.48954 51.6371 7.90183 43.3676 12.5146 35.7291" stroke="white" stroke-width="0.847966"/>
<path d="M105.186 30.5269L114.552 30.5269L114.552 73.8154C109.748 74.7267 106.22 75.0909 102.387 75.0909C90.9518 75.0909 84.9912 69.9298 84.9912 60.0306C84.9912 50.4957 91.3166 44.3023 101.108 44.3023C102.629 44.3023 103.784 44.4232 105.183 44.7874L105.186 30.5269ZM105.186 52.3184C104.092 51.9541 103.179 51.8332 102.024 51.8332C97.2804 51.8332 94.5422 54.747 94.5422 59.8493C94.5422 64.8291 97.1577 67.5615 101.962 67.5615C103.041 67.5595 104.119 67.4787 105.186 67.3198L105.186 52.3184ZM129.454 44.9719L129.454 66.6518C129.454 74.1222 128.906 77.7025 127.281 80.8023C125.759 83.7781 123.752 85.6612 119.617 87.7257L110.92 83.5952C115.057 81.6516 117.062 79.9529 118.34 77.3398C119.678 74.6678 120.105 71.5711 120.105 63.4326L120.105 44.9889L129.454 44.9719ZM120.088 30.5811L129.454 30.5811L129.454 40.1904L120.088 40.1904L120.088 30.5811ZM135.11 47.0968C139.247 45.1532 143.182 44.3039 147.519 44.3039C152.323 44.3039 155.487 45.5794 156.885 48.0701C157.661 49.465 157.919 51.2892 157.919 55.1764L157.919 74.1951C153.722 74.8027 148.43 75.2273 144.539 75.2273C136.694 75.2273 133.165 72.4933 133.165 66.4208C133.165 59.8617 137.848 56.8115 149.344 55.8537L149.344 53.7892C149.344 52.089 148.491 51.4644 146.12 51.4644C142.654 51.4644 138.763 52.4361 135.112 54.3193L135.112 47.0921L135.11 47.0968ZM149.768 61.9757C143.564 62.5833 141.541 63.5566 141.541 65.9838C141.541 67.8049 142.698 68.6558 145.267 68.6558C146.664 68.6558 147.943 68.5349 149.768 68.2311L149.768 61.9757ZM162.497 46.4303C168.03 44.9734 172.592 44.307 177.215 44.307C182.019 44.307 185.488 45.3996 187.556 47.5261C189.503 49.5301 190.109 51.7154 190.109 56.3915L190.109 74.7314L180.743 74.7314L180.743 56.7526C180.743 53.1692 179.526 51.8332 176.18 51.8332C174.902 51.8332 173.747 51.9541 171.861 52.4997L171.861 74.7252L162.479 74.7252L162.497 46.4303ZM193.736 79.8305C197.02 81.5307 200.305 82.3196 203.771 82.3196C209.913 82.3196 212.529 79.8305 212.529 73.8789L212.529 73.696C210.705 74.6058 208.881 74.9716 206.447 74.9716C198.22 74.9716 193.004 69.5671 193.004 61.004C193.004 50.3748 200.73 44.3643 214.413 44.3643C218.427 44.3643 222.139 44.789 226.639 45.7003L223.432 52.447C220.937 51.9619 223.23 52.3819 221.347 52.199L221.347 53.1708L221.468 57.1168L221.53 62.2191C221.592 63.4946 221.592 64.7702 221.654 66.0442L221.654 68.5953C221.654 76.6114 220.987 80.3745 218.978 83.4743C216.06 88.031 211.01 90.2938 203.833 90.2938C200.185 90.2938 197.022 89.7467 193.737 88.4712L193.737 79.8476L193.736 79.8305ZM212.363 51.8952L211.389 51.8952C209.565 51.8332 207.437 52.3199 205.977 53.2312C203.726 54.5068 202.571 56.8146 202.571 60.0942C202.571 64.7702 204.899 67.4407 209.019 67.4407C210.296 67.4407 211.347 67.1973 212.546 66.8331L212.546 63.614C212.546 62.5213 212.484 61.2891 212.484 60.0306L212.422 55.7188L212.359 52.6221L212.359 51.8937L212.363 51.8952ZM241.178 44.183C250.545 44.183 256.262 50.0726 256.262 59.6091C256.262 69.3734 250.301 75.5203 240.812 75.5203C231.446 75.5203 225.667 69.6307 225.667 60.1562C225.667 50.3174 231.627 44.1845 241.177 44.1845L241.178 44.183ZM240.995 67.9893C244.584 67.9893 246.714 65.0135 246.714 59.8524C246.714 54.7377 244.646 51.7154 241.057 51.7154C237.332 51.7154 235.218 54.6912 235.218 59.8524C235.218 65.0135 237.348 67.9893 240.995 67.9893Z" fill="white"/>
<path d="M194.28 105.831C194.295 106.241 194.295 106.608 194.295 106.961C194.295 107.117 194.28 107.258 194.28 107.4C194.196 107.498 194.083 107.597 193.984 107.682L193.842 107.823L193.758 107.894L193.729 107.922L193.701 107.951C193.63 107.993 193.574 108.05 193.503 108.106C192.274 109.011 190.705 109.336 189.221 108.997C188.302 108.785 187.468 108.332 186.804 107.682C186.366 107.258 186.013 106.764 185.758 106.212C185.419 105.52 185.25 104.771 185.264 103.994C185.25 103.23 185.419 102.467 185.758 101.775C186.423 100.376 187.695 99.358 189.207 98.9905C190.111 98.7926 191.058 98.8209 191.934 99.1036C192.5 99.2732 193.023 99.5417 193.503 99.895L193.701 100.05L193.984 100.305C194.083 100.404 194.196 100.489 194.28 100.602C194.28 100.743 194.295 100.884 194.295 101.026C194.295 101.379 194.295 101.761 194.295 102.156L192.881 102.156C192.867 101.831 192.867 101.534 192.867 101.252L192.867 101.209C192.867 101.209 192.853 101.195 192.839 101.181L192.797 101.153L192.655 101.04C192.316 100.8 191.934 100.602 191.525 100.489C190.889 100.319 190.224 100.319 189.603 100.503C189.306 100.588 189.023 100.715 188.769 100.856C188.472 101.04 188.203 101.252 187.963 101.492C187.68 101.789 187.454 102.128 187.271 102.495C187.059 102.962 186.946 103.485 186.946 103.994C186.946 104.516 187.059 105.025 187.271 105.506C187.454 105.873 187.68 106.212 187.963 106.509C188.415 106.976 188.981 107.315 189.588 107.484C190.648 107.795 191.779 107.597 192.655 106.947C192.698 106.919 192.754 106.877 192.797 106.848L192.839 106.806C192.853 106.806 192.867 106.792 192.867 106.778L192.867 106.749C192.867 106.467 192.867 106.156 192.867 105.831L194.28 105.831ZM201.527 107.668L202.658 107.668L202.658 109.081L199.831 109.081L199.831 108.346C199.718 108.445 199.619 108.53 199.492 108.601C198.997 108.954 198.418 109.152 197.81 109.194C197.4 109.223 196.991 109.18 196.609 109.053C196.496 109.025 196.383 108.982 196.27 108.926C196.143 108.869 196.029 108.799 195.916 108.728C195.662 108.558 195.436 108.346 195.252 108.092C195.083 107.823 194.955 107.541 194.885 107.23C194.828 106.976 194.814 106.721 194.828 106.467C194.856 106 195.026 105.534 195.323 105.167C195.563 104.898 195.846 104.672 196.157 104.516C196.397 104.389 196.665 104.29 196.92 104.22C197.429 104.092 197.952 104.022 198.474 103.994C198.771 103.979 199.096 103.979 199.435 103.979L199.831 103.979C199.831 103.683 199.619 103.414 199.393 103.244C199.181 103.089 198.927 102.99 198.672 102.948C198.361 102.905 198.065 102.905 197.768 102.976C197.273 103.103 196.807 103.301 196.369 103.57L195.662 102.34C196.213 102.015 196.793 101.746 197.4 101.563C197.867 101.435 198.347 101.379 198.828 101.407C199.068 101.421 199.308 101.464 199.549 101.534C199.817 101.605 200.071 101.718 200.312 101.874C200.609 102.071 200.877 102.312 201.075 102.608C201.216 102.792 201.315 102.99 201.386 103.202C201.485 103.456 201.527 103.725 201.527 103.979L201.527 107.668ZM199.407 106.58C199.633 106.212 199.775 105.817 199.831 105.407L199.435 105.407C199.11 105.407 198.842 105.421 198.588 105.449C198.178 105.492 197.782 105.576 197.386 105.704C197.061 105.831 196.764 106 196.623 106.198C196.552 106.311 196.51 106.438 196.51 106.566C196.51 106.665 196.524 106.778 196.538 106.877C196.567 106.961 196.595 107.046 196.651 107.117C196.708 107.202 196.779 107.272 196.863 107.329C196.906 107.357 196.948 107.371 196.991 107.4C197.033 107.428 197.089 107.442 197.132 107.456C197.33 107.527 197.513 107.555 197.725 107.555C198.418 107.541 199.054 107.173 199.407 106.58ZM215.761 107.668L216.539 107.668L216.539 109.081L214.065 109.081L214.065 105.336C214.051 104.446 213.74 103.824 213.429 103.471C213.189 103.16 212.836 102.976 212.454 102.934C212.285 102.934 212.101 102.962 211.945 103.032C211.748 103.117 211.564 103.244 211.408 103.4C211.055 103.767 210.716 104.403 210.702 105.336L210.702 107.668L211.479 107.668L211.479 109.081L209.006 109.081L209.006 105.336C208.992 104.446 208.681 103.824 208.37 103.471C208.13 103.16 207.776 102.976 207.395 102.934C207.225 102.934 207.041 102.962 206.886 103.032C206.688 103.117 206.504 103.244 206.349 103.4C205.996 103.767 205.656 104.403 205.642 105.336L205.642 107.668L206.405 107.668L206.405 109.081L203.183 109.081L203.183 107.668L203.946 107.668L203.946 102.863L203.014 102.863L203.014 101.45L205.642 101.45L205.642 102.057C206.137 101.647 206.759 101.407 207.395 101.379C208.228 101.379 209.034 101.732 209.585 102.354C209.741 102.51 209.882 102.679 209.995 102.863C210.094 102.707 210.207 102.552 210.334 102.411C210.857 101.775 211.649 101.393 212.482 101.379C213.302 101.365 214.108 101.718 214.645 102.354C214.984 102.707 215.252 103.131 215.422 103.584C215.648 104.135 215.761 104.728 215.761 105.336L215.761 107.668ZM223.912 104.912C223.954 105.265 223.926 105.619 223.869 105.972L218.499 105.972C218.499 105.986 218.499 106.014 218.499 106.029C218.569 106.255 218.668 106.481 218.796 106.679C218.852 106.764 218.909 106.848 218.979 106.933C219.05 107.018 219.121 107.089 219.191 107.159C219.262 107.23 219.347 107.286 219.432 107.343C219.516 107.4 219.615 107.442 219.7 107.484C219.912 107.583 220.138 107.64 220.364 107.654C220.647 107.654 220.93 107.611 221.184 107.484C221.523 107.329 221.82 107.089 222.032 106.792L223.177 107.626C222.823 108.12 222.343 108.516 221.778 108.785C220.958 109.18 219.997 109.208 219.149 108.883C218.979 108.827 218.81 108.742 218.64 108.657C218.499 108.573 218.343 108.459 218.202 108.361C218.061 108.247 217.934 108.134 217.806 108.007C217.679 107.866 217.566 107.725 217.467 107.583C217.227 107.258 217.043 106.905 216.93 106.523C216.775 106.057 216.704 105.576 216.732 105.096C216.732 105.025 216.732 104.955 216.732 104.884C216.746 104.813 216.746 104.743 216.76 104.672C216.775 104.601 216.775 104.531 216.789 104.46L216.845 104.234C216.888 104.078 216.93 103.923 216.987 103.782C217.015 103.697 217.043 103.626 217.086 103.541C217.114 103.471 217.156 103.386 217.199 103.315C217.354 103.018 217.538 102.75 217.764 102.495C217.962 102.283 218.202 102.086 218.442 101.916C219.22 101.393 220.181 101.223 221.099 101.435C221.467 101.52 221.806 101.662 222.117 101.859C222.428 102.043 222.696 102.283 222.937 102.552C223.191 102.849 223.403 103.188 223.572 103.541C223.714 103.866 223.813 104.205 223.869 104.559C223.898 104.672 223.912 104.785 223.912 104.912ZM218.513 104.559L222.399 104.559C222.301 104.191 222.103 103.852 221.834 103.57C221.679 103.428 221.509 103.301 221.325 103.202C221.156 103.103 220.958 103.047 220.76 103.004C220.548 102.976 220.336 102.976 220.11 103.018C219.856 103.061 219.601 103.16 219.389 103.315C219.248 103.414 219.121 103.513 219.022 103.64C218.895 103.782 218.781 103.937 218.697 104.107C218.612 104.248 218.555 104.403 218.513 104.559ZM229.768 101.52L229.768 101.534L229.429 103.188C229.076 103.117 228.722 103.146 228.397 103.259C228.157 103.343 227.931 103.471 227.733 103.626C227.535 103.796 227.351 104.008 227.224 104.248C227.041 104.587 226.942 104.983 226.942 105.379L226.942 107.668L227.86 107.668L227.86 109.081L224.313 109.081L224.313 107.668L225.246 107.668L225.246 102.863L224.115 102.863L224.115 101.45L226.942 101.45L226.942 102.255C227.182 102.043 227.465 101.859 227.775 101.732C228.397 101.45 229.104 101.379 229.768 101.52ZM237.21 103.485C237.507 104.036 237.662 104.644 237.662 105.265C237.662 105.887 237.507 106.495 237.21 107.046C237.012 107.414 236.758 107.753 236.447 108.035C236.136 108.304 235.797 108.544 235.415 108.714C234.313 109.237 233.041 109.237 231.938 108.714C231.571 108.544 231.218 108.304 230.921 108.035C230.61 107.753 230.341 107.414 230.143 107.046C229.847 106.495 229.705 105.887 229.705 105.265C229.705 104.644 229.847 104.036 230.143 103.485C230.341 103.117 230.61 102.792 230.921 102.51C231.218 102.227 231.571 102.001 231.938 101.817C233.041 101.294 234.313 101.294 235.415 101.817C235.797 102.001 236.136 102.227 236.447 102.51C236.758 102.792 237.012 103.117 237.21 103.485ZM235.966 105.265C235.966 104.912 235.881 104.559 235.74 104.234C235.641 104.008 235.5 103.796 235.344 103.598C235.175 103.414 234.977 103.244 234.765 103.117C234.086 102.75 233.267 102.75 232.603 103.117C232.376 103.244 232.179 103.414 232.009 103.598C231.854 103.796 231.726 104.008 231.627 104.234C231.472 104.559 231.401 104.912 231.401 105.265C231.401 105.633 231.472 105.986 231.627 106.311C231.726 106.537 231.854 106.749 232.009 106.933C232.179 107.131 232.376 107.286 232.603 107.414C233.267 107.795 234.086 107.795 234.765 107.414C234.977 107.286 235.175 107.131 235.344 106.933C235.5 106.749 235.641 106.537 235.74 106.311C235.881 105.986 235.966 105.633 235.966 105.265ZM245.656 103.485C245.953 104.036 246.109 104.644 246.109 105.265C246.109 105.887 245.953 106.495 245.656 107.046C245.458 107.414 245.204 107.753 244.893 108.035C244.582 108.304 244.243 108.544 243.861 108.714C242.759 109.237 241.487 109.237 240.385 108.714C240.017 108.544 239.664 108.304 239.367 108.035C239.056 107.753 238.788 107.414 238.59 107.046C238.293 106.495 238.152 105.887 238.152 105.265C238.152 104.644 238.293 104.036 238.59 103.485C238.788 103.117 239.056 102.792 239.367 102.51C239.664 102.227 240.017 102.001 240.385 101.817C241.487 101.294 242.759 101.294 243.861 101.817C244.243 102.001 244.582 102.227 244.893 102.51C245.204 102.792 245.458 103.117 245.656 103.485ZM244.413 105.265C244.413 104.912 244.328 104.559 244.187 104.234C244.088 104.008 243.946 103.796 243.791 103.598C243.621 103.414 243.423 103.244 243.211 103.117C242.533 102.75 241.713 102.75 241.049 103.117C240.823 103.244 240.625 103.414 240.455 103.598C240.3 103.796 240.173 104.008 240.074 104.234C239.918 104.559 239.848 104.912 239.848 105.265C239.848 105.633 239.918 105.986 240.074 106.311C240.173 106.537 240.3 106.749 240.455 106.933C240.625 107.131 240.823 107.286 241.049 107.414C241.713 107.795 242.533 107.795 243.211 107.414C243.423 107.286 243.621 107.131 243.791 106.933C243.946 106.749 244.088 106.537 244.187 106.311C244.328 105.986 244.413 105.633 244.413 105.265ZM255.028 107.668L255.975 107.668L255.975 109.081L253.332 109.081L253.332 105.336C253.332 104.94 253.247 104.545 253.078 104.177C252.936 103.909 252.753 103.668 252.527 103.456C252.187 103.146 251.763 102.962 251.297 102.934C250.831 102.919 250.364 103.075 249.997 103.386C249.757 103.584 249.545 103.838 249.403 104.121C249.22 104.502 249.121 104.912 249.121 105.336L249.121 107.668L250.039 107.668L250.039 109.081L246.492 109.081L246.492 107.668L247.425 107.668L247.425 102.863L246.294 102.863L246.294 101.45L249.121 101.45L249.121 102.227C249.728 101.704 250.492 101.407 251.297 101.379C251.693 101.379 252.089 101.435 252.456 101.563C252.88 101.704 253.262 101.916 253.601 102.199C254.011 102.538 254.35 102.962 254.576 103.428C254.873 104.022 255.028 104.672 255.028 105.336L255.028 107.668Z" fill="white"/>
<rect x="15.6044" y="31.5209" width="57.6523" height="57.6523" rx="28.8261" stroke="white" stroke-width="1.98801"/>
<path fill-rule="evenodd" clip-rule="evenodd" d="M49.926 41.6698L49.926 41.6597L49.9361 41.6597L50.0793 41.6597L50.1912 41.6597L50.2218 41.6597L50.2523 41.6597L50.3337 41.6597L50.3744 41.6597L50.5888 41.6698L50.6193 41.6698L50.6804 41.6698L50.7007 41.6698L50.8134 41.6698L50.8337 41.6698L50.8541 41.6698L51.0779 41.6698L51.1186 41.6698L51.1397 41.6698L51.1906 41.7411L51.2313 41.8021L51.2415 41.8225L51.3127 41.9148L51.3229 41.925L51.3839 42.0165L51.4043 42.0471L51.4145 42.0572L51.445 42.0776L51.445 42.1081L51.4348 42.1386L51.4552 42.1793L51.4755 42.1895L51.4857 42.2309L51.4959 42.2716L51.4857 42.2716L51.4653 42.292L51.4653 42.3123L51.4653 42.3429L51.4755 42.3632L51.4857 42.3836L51.4857 42.3937L51.4959 42.4446L51.4857 42.4751L51.4755 42.4751L51.4552 42.526L51.445 42.5769L51.445 42.6082L51.4552 42.6285L51.4755 42.6387L51.5068 42.6387L51.5271 42.6489L51.5373 42.6997L51.5576 42.7404L51.578 42.7404L51.5983 42.7303L51.6594 42.6692L51.6696 42.659L51.6797 42.6692L51.6797 42.6997L51.6696 42.7404L51.6696 42.771L51.6899 42.7608L51.7204 42.7608L51.7713 42.8117L51.8018 42.8218L51.8324 42.832L51.8942 42.8218L51.9247 42.8117L51.945 42.8117L51.9654 42.8218L51.9756 42.832L52.0061 42.8727L51.9959 42.9032L51.9552 42.9338L51.945 42.9541L51.945 42.9854L51.9654 43.0159L51.9857 43.0261L52.0061 43.0261L52.0264 43.0057L52.0468 42.9541L52.0671 42.9338L52.0773 42.9338L52.0977 42.9439L52.1078 42.9752L52.118 42.9955L52.1282 43.0159L52.1282 43.0871L52.1384 43.0973L52.1587 43.1176L52.2198 43.1176L52.2401 43.1176L52.3019 43.1075L52.3121 43.1075L52.3528 43.1176L52.3629 43.1482L52.3629 43.1787L52.3731 43.2194L52.3833 43.2601L52.4036 43.2906L52.4138 43.3313L52.4342 43.3829L52.424 43.3931L52.424 43.444L52.4342 43.4949L52.424 43.5356L52.4443 43.5966L52.4138 43.6271L52.4036 43.6678L52.4138 43.678L52.4342 43.7093L52.4545 43.7093L52.4749 43.678L52.485 43.6577L52.5054 43.6577L52.5156 43.678L52.5156 43.7296L52.5257 43.7805L52.5563 43.8212L52.5868 43.8721L52.597 43.9026L52.6072 43.9331L52.6072 43.9738L52.597 44.0552L52.6072 44.0967L52.597 44.1272L52.5766 44.1577L52.5766 44.1882L52.6072 44.2798L52.597 44.3205L52.5868 44.3917L52.597 44.4324L52.597 44.4637L52.5766 44.5044L52.5766 44.5146L52.6072 44.5756L52.597 44.5858L52.597 44.596L52.5563 44.6265L52.5461 44.6469L52.5563 44.6774L52.5868 44.6774L52.6893 44.7995L52.6995 44.7995L52.73 44.8198L52.7402 44.8409L52.7605 44.8511L52.791 44.8714L52.8419 44.8714L52.8623 44.8613L52.8724 44.8409L52.8826 44.8198L52.903 44.8097L52.9335 44.7995L52.9335 44.8097L52.9538 44.8097L52.9844 44.8307L53.0258 44.8613L53.0258 44.8714L53.0156 44.9121L53.0156 44.9427L53.0665 44.963L53.0767 44.9732L53.097 45.0342L53.0868 45.0546L53.0767 45.0749L53.0767 45.0851L53.0461 45.0749L53.036 45.0851L53.036 45.0953L53.036 45.1055L53.0563 45.1156L53.0665 45.1258L53.0767 45.1462L53.0868 45.1563L53.1275 45.1563L53.1581 45.1665L53.1682 45.1767L53.1784 45.1869L53.1784 45.2079L53.1682 45.2385L53.1581 45.2588L53.1479 45.269L53.1275 45.269L53.1072 45.2588L53.0868 45.2588L53.0767 45.269L53.0665 45.2792L53.0767 45.2995L53.1072 45.3504L53.1072 45.3809L53.1072 45.4013L53.097 45.4216L53.0868 45.4318L53.0563 45.4522L53.0461 45.4623L53.036 45.4827L53.036 45.503L53.0461 45.5234L53.0563 45.5641L53.0665 45.575L53.0665 45.6259L53.0767 45.6564L53.1072 45.6767L53.1174 45.6869L53.1377 45.6869L53.1479 45.6767L53.1479 45.6462L53.1479 45.6259L53.1581 45.6259L53.1886 45.6564L53.2089 45.6666L53.2089 45.6869L53.2089 45.7174L53.2089 45.748L53.2293 45.7785L53.2497 45.809L53.2802 45.8294L53.2904 45.8395L53.2802 45.8599L53.27 45.8802L53.2598 45.8904L53.2395 45.9006L53.2089 45.9108L53.1886 45.9108L53.1682 45.9311L53.1581 45.9522L53.1682 45.9624L53.1784 45.9726L53.2089 45.9827L53.2191 45.9929L53.2395 46.0438L53.2293 46.054L53.2191 46.0641L53.2089 46.054L53.1682 46.0438L53.1581 46.0438L53.1377 46.0438L53.1275 46.0641L53.1174 46.0947L53.1174 46.115L53.1174 46.1354L53.1174 46.1455L53.1275 46.1659L53.1377 46.1659L53.1479 46.2066L53.1581 46.2269L53.1479 46.2473L53.1581 46.2575L53.1784 46.288L53.1682 46.3083L53.1581 46.3294L53.1682 46.3498L53.1886 46.3701L53.1988 46.4108L53.1988 46.421L53.2191 46.4312L53.2293 46.4413L53.2293 46.4617L53.2293 46.482L53.2191 46.5126L53.2293 46.5329L53.2395 46.5431L53.3209 46.5736L53.3412 46.5838L53.3616 46.6143L53.3616 46.655L53.3616 46.6754L53.3514 46.6965L53.3311 46.7473L53.3311 46.7677L53.3209 46.7779L53.2497 46.8186L53.2395 46.8491L53.2191 46.8593L53.2191 46.9L53.1886 46.9101L53.1682 46.961L53.1581 46.9712L53.1479 46.9915L53.1479 47.0119L53.1275 47.0221L53.1275 47.0526L53.097 47.094L53.0868 47.1347L53.097 47.1551L53.1174 47.1958L53.1275 47.2263L53.1275 47.2365L53.097 47.267L53.0767 47.2874L53.0665 47.3077L53.0665 47.3179L53.0665 47.3382L53.0563 47.3688L53.0665 47.3993L53.0665 47.4095L53.0563 47.4196L53.0258 47.4305L53.0156 47.4407L53.0054 47.4509L53.0156 47.4814L53.0156 47.4916L52.9953 47.5018L52.9844 47.5119L52.9844 47.5221L53.0054 47.5425L53.0054 47.5526L53.0054 47.573L52.9953 47.6239L53.0054 47.634L53.0054 47.6442L53.036 47.6646L53.036 47.6747L53.036 47.6849L52.9953 47.7053L52.9844 47.7154L53.0054 47.7256L53.0156 47.7358L53.0156 47.746L53.0054 47.7663L52.9953 47.7867L52.9953 47.7968L53.0054 47.8179L53.0156 47.8281L53.0054 47.8484L53.0156 47.8586L53.0258 47.8688L53.0258 47.8891L53.0054 47.8993L53.0156 47.9095L53.0156 47.9197L53.0258 47.94L53.0156 47.9502L52.9844 47.9807L52.9844 47.9909L52.9844 48.0011L53.0156 48.0113L53.0258 48.0621L53.0258 48.0825L53.0156 48.1028L53.0054 48.1232L53.0054 48.1334L53.0156 48.1435L53.036 48.1537L53.0461 48.1639L53.0461 48.1748L53.0156 48.1951L53.0258 48.2053L53.036 48.2155L53.0461 48.2257L53.036 48.246L53.0563 48.2562L53.0665 48.2969L53.0665 48.3071L53.0665 48.3376L53.0665 48.3478L53.0665 48.3681L53.0563 48.3885L53.0665 48.3986L53.0665 48.4088L53.0665 48.4292L53.0665 48.4393L53.0665 48.4495L53.0767 48.4597L53.0767 48.4699L53.0868 48.48L53.097 48.5004L53.1072 48.5411L53.1377 48.5622L53.1682 48.6029L53.1784 48.6436L53.1784 48.7148L53.1988 48.786L53.2089 48.8674L53.1886 48.8878L53.1682 48.9081L53.1682 48.919L53.1479 48.9292L53.1275 48.9597L53.1174 48.9801L53.1174 49.0513L53.1275 49.0615L53.1479 49.0818L53.1581 49.1124L53.1581 49.1327L53.1682 49.1632L53.2089 49.2039L53.2293 49.265L53.2395 49.2853L53.2802 49.3268L53.3107 49.3777L53.3209 49.4082L53.3311 49.4184L53.3514 49.4692L53.3725 49.5099L53.3827 49.5608L53.403 49.5812L53.4132 49.6633L53.403 49.7142L53.3827 49.7549L53.3725 49.7752L53.3725 49.8464L53.3725 49.8973L53.3725 49.938L53.3928 49.9685L53.4234 49.9889L53.4539 50.0092L53.4946 50.0296L53.5556 50.0507L53.576 50.0507L53.6167 50.0812L53.6879 50.1524L53.6981 50.1728L53.7083 50.2338L53.7184 50.2644L53.7599 50.2949L53.77 50.3152L53.8209 50.3661L53.8209 50.3763L53.8209 50.4381L53.8209 50.4991L53.8311 50.5195L53.8514 50.5296L53.8718 50.5602L53.8616 50.5805L53.8616 50.5907L53.9023 50.6212L53.9125 50.6517L53.9023 50.6721L53.9125 50.6823L53.9736 50.7026L54.0041 50.7128L54.0244 50.7332L54.055 50.7433L54.0753 50.7637L54.0855 50.7739L54.0957 50.8051L54.1371 50.8458L54.1778 50.8662L54.2287 50.9374L54.2592 50.9883L54.2694 51.0086L54.2795 51.0086L54.3202 51.0493L54.3711 51.0798L54.3813 51.1002L54.4016 51.1721L54.4322 51.2027L54.4627 51.2332L54.4838 51.3044L54.5041 51.3044L54.5448 51.3349L54.5652 51.3655L54.5754 51.396L54.5855 51.396L54.5957 51.3858L54.6262 51.3858L54.6364 51.3858L54.6975 51.4367L54.7382 51.4672L54.7585 51.4978L54.789 51.4978L54.8196 51.5079L54.8712 51.5595L54.9119 51.5494L54.9424 51.5799L54.9933 51.6002L55.0136 51.6002L55.095 51.6613L55.1154 51.6816L55.1255 51.7325L55.1052 51.7427L55.0441 51.763L54.9933 51.7732L54.9424 51.7834L54.9322 51.7834L54.861 51.8139L54.8196 51.8241L54.7687 51.8343L54.6873 51.8444L54.5957 51.8444L54.5347 51.8648L54.5041 51.875L54.4939 51.8851L54.4322 51.896L54.3609 51.896L54.3202 51.9062L54.2999 51.896L54.2694 51.8851L54.2287 51.875L54.1058 51.8241L54.0448 51.7936L54.0244 51.7936L54.0041 51.7834L53.9736 51.7732L53.9329 51.7732L53.9125 51.7732L53.8922 51.763L53.8209 51.7427L53.7599 51.7325L53.7184 51.7122L53.6676 51.6918L53.5963 51.8037L53.5658 51.7936L53.5149 51.7834L53.5048 51.763L53.4234 51.7223L53.3616 51.702L53.3311 51.702L53.2802 51.7325L53.2598 51.7427L53.2497 51.763L53.2497 51.7936L53.2293 51.8037L53.1682 51.8037L53.1275 51.7936L53.1174 51.7936L53.0868 51.7834L53.0665 51.7732L53.0156 51.7529L52.9953 51.7223L52.964 51.702L52.9233 51.6816L52.9131 51.6816L52.903 51.6816L52.8826 51.6816L52.8521 51.6816L52.8419 51.6816L52.7402 51.7325L52.6893 51.7427L52.6689 51.7427L52.6384 51.7529L52.5868 51.7834L52.5461 51.8037L52.4952 51.8444L52.4749 51.875L52.4647 51.875L52.4545 51.896L52.4036 51.9164L52.3833 51.9266L52.3629 51.9367L52.3019 51.9367L52.2401 51.9164L52.2198 51.9062L52.1892 51.896L52.1587 51.875L52.1282 51.8648L52.1078 51.8546L52.0773 51.8444L52.0163 51.8444L51.9857 51.8444L51.9654 51.8444L51.945 51.8444L51.8426 51.8139L51.7408 51.7936L51.7001 51.7732L51.6594 51.763L51.6289 51.7529L51.6085 51.7427L51.578 51.7427L51.5068 51.7223L51.4145 51.6918L51.4043 51.6816L51.3229 51.6715L51.272 51.6613L51.2415 51.6511L51.2211 51.6511L51.1804 51.6613L51.1499 51.6715L51.0576 51.6715L51.0067 51.6816L50.966 51.6715L50.8846 51.6715L50.8134 51.6816L50.8032 51.6816L50.793 51.6918L50.7727 51.6918L50.7313 51.6918L50.7109 51.6816L50.6499 51.6715L50.6295 51.6715L50.6193 51.6816L50.5786 51.6816L50.5481 51.6816L50.5278 51.6918L50.4565 51.6918L50.4158 51.6918L50.4056 51.6918L50.3846 51.702L50.3235 51.7223L50.293 51.7427L50.2726 51.7936L50.2625 51.8444L50.2625 51.875L50.2421 51.896L50.2319 51.9673L50.2218 52.008L50.1912 52.0589L50.1709 52.0792L50.1505 52.1097L50.0488 52.242L50.0284 52.2733L49.987 52.314L49.987 52.3343L49.9158 52.3954L49.8954 52.4361L49.8853 52.4462L49.8649 52.4564L49.8039 52.4971L49.7733 52.5378L49.7224 52.6403L49.7224 52.7013L49.7021 52.7624L49.7123 52.8133L49.7123 52.8336L49.7733 52.8845L49.7937 52.9049L49.8242 52.9761L49.8446 53.0175L49.8853 53.0684L49.8954 53.0684L49.9056 53.0887L49.926 53.1091L49.9667 53.1498L49.9972 53.1905L50.0895 53.2821L50.1302 53.3228L50.1505 53.3329L50.1912 53.3635L50.2218 53.3736L50.2523 53.3736L50.2625 53.3846L50.2828 53.4354L50.2828 53.4761L50.3032 53.4863L50.3337 53.4965L50.3744 53.527L50.4158 53.5779L50.4362 53.6389L50.4565 53.6695L50.5074 53.6898L50.5481 53.7203L50.5888 53.7407L50.6193 53.7509L50.6804 53.7509L50.7109 53.8025L50.7211 53.8228L50.7313 53.8432L50.7414 53.8737L50.7625 53.9042L50.793 53.9449L50.8744 53.9754L50.905 54.006L50.9151 54.0467L50.9253 54.067L50.9151 54.1077L50.9151 54.139L50.8846 54.2L50.8744 54.2102L50.8744 54.2204L50.8643 54.2713L50.8846 54.3018L50.9151 54.3425L50.9558 54.3628L50.9864 54.4035L51.0067 54.4035L51.0067 54.4239L51.0474 54.4544L51.0678 54.4748L51.0678 54.4849L51.0983 54.5264L51.1085 54.5467L51.1288 54.5467L51.1499 54.5671L51.1804 54.5772L51.1906 54.5874L51.2313 54.6179L51.2517 54.6383L51.2517 54.6586L51.2211 54.6993L51.2211 54.7095L51.2822 54.8113L51.3025 54.8418L51.3127 54.8418L51.3636 54.852L51.3941 54.8622L51.4246 54.8832L51.4653 54.9036L51.5271 54.9646L51.5678 54.9952L51.6696 55.0969L51.6797 55.1071L51.7103 55.1478L51.7408 55.1783L51.751 55.1783L51.7713 55.1987L51.7917 55.2292L51.8629 55.3011L51.9145 55.352L51.9756 55.3927L52.0163 55.4334L52.0468 55.464L52.0977 55.525L52.1384 55.5555L52.1587 55.5454L52.2198 55.5555L52.251 55.5555L52.2815 55.5555L52.3222 55.5861L52.3426 55.5861L52.3629 55.5759L52.4138 55.5861L52.4342 55.5657L52.4443 55.5657L52.4443 55.5555L52.4545 55.5555L52.4749 55.5657L52.485 55.5454L52.5054 55.5657L52.5156 55.5555L52.5257 55.5555L52.5461 55.5657L52.5664 55.5657L52.5766 55.5759L52.597 55.6173L52.597 55.6377L52.597 55.6478L52.6072 55.658L52.6282 55.6682L52.6588 55.6987L52.6282 55.7191L52.6072 55.7394L52.6588 55.7699L52.6893 55.7699L52.7198 55.7598L52.7402 55.7699L52.7605 55.7903L52.8114 55.8106L52.8216 55.8106L52.8623 55.8412L52.8623 55.8615L52.8521 55.892L52.8419 55.9633L52.8521 55.9836L52.8623 55.9945L52.8928 55.9945L52.903 55.9945L52.9233 55.9945L53.0156 56.0149L53.0461 56.0149L53.0767 56.0047L53.097 56.0047L53.1275 56.0047L53.1581 56.0149L53.1784 56.0149L53.2191 56.0047L53.2497 56.0047L53.2904 56.025L53.3209 56.0454L53.3827 56.0759L53.4132 56.0963L53.4742 56.137L53.5149 56.198L53.576 56.2082L53.5862 56.2184L53.5862 56.2387L53.5862 56.2896L53.5963 56.3303L53.6065 56.3616L53.6167 56.3921L53.6167 56.4328L53.637 56.4531L53.6574 56.4938L53.6574 56.5142L53.6676 56.5651L53.6879 56.6261L53.6981 56.6668L53.7083 56.6973L53.7184 56.7279L53.7286 56.7591L53.7497 56.8304L53.7599 56.8609L53.77 56.9321L53.7802 56.9728L53.8311 57.1974L53.8514 57.2279L53.882 57.2788L53.8922 57.3195L53.9227 57.3704L53.943 57.4009L53.9634 57.4518L54.055 57.6458L54.0753 57.6662L54.1167 57.7578L54.1371 57.7985L54.1574 57.8392L54.1981 57.9111L54.1981 57.9315L54.1778 58.023L54.1778 58.0637L54.188 58.1044L54.1981 58.1451L54.2592 58.196L54.2694 58.2273L54.2795 58.2375L54.2795 58.268L54.3813 58.5427L54.4118 58.6147L54.4322 58.6452L54.4423 58.6655L54.4939 58.7469L54.5041 58.7571L54.5347 58.808L54.5448 58.8385L54.5652 58.8589L54.5957 58.8792L54.6771 58.8996L54.7789 58.9199L54.8297 58.9301L54.8501 58.9606L54.8501 58.9715L54.8399 58.9919L54.8297 59.0122L54.8297 59.0326L54.8399 59.0529L54.8297 59.0835L54.8399 59.114L54.8399 59.1343L54.8399 59.1954L54.8501 59.2056L54.8399 59.2564L54.8196 59.287L54.7992 59.3073L54.7992 59.3277L54.8094 59.3386L54.8094 59.3691L54.7992 59.42L54.7585 59.4708L54.7483 59.4912L54.7585 59.5014L54.7687 59.5217L54.7687 59.5319L54.7585 59.5523L54.7483 59.5523L54.7178 59.5828L54.6975 59.6031L54.6771 59.6235L54.6568 59.6438L54.6262 59.6744L54.6059 59.6845L54.5855 59.726L54.555 59.7361L54.5347 59.7463L54.5143 59.787L54.5245 59.8074L54.5143 59.8175L54.4939 59.8175L54.4729 59.8379L54.4729 59.8481L54.4729 59.8582L54.4525 59.8786L54.422 59.8989L54.4118 59.8989L54.422 59.9193L54.3915 59.9803L54.3609 59.9905L54.3508 60.0007L54.3406 60.0312L54.3406 60.0414L54.3101 60.0516L54.2999 60.0719L54.2999 60.093L54.2999 60.1032L54.2694 60.1235L54.2287 60.1642L54.2083 60.1744L54.188 60.1846L54.1473 60.2355L54.1058 60.2558L54.0753 60.2863L54.0346 60.3169L54.0041 60.3474L53.9939 60.3576L53.9736 60.3576L53.9227 60.3983L53.8922 60.4186L53.8718 60.439L53.8209 60.5007L53.7904 60.5211L53.7802 60.5313L53.7599 60.5516L53.7184 60.5618L53.7083 60.572L53.7083 60.5923L53.6777 60.6534L53.6472 60.6635L53.6269 60.6737L53.6269 60.6941L53.6269 60.7042L53.6065 60.7246L53.6269 60.7348L53.6472 60.7348L53.6574 60.7551L53.6676 60.7551L53.6777 60.7653L53.6574 60.7856L53.6472 60.8162L53.6167 60.8474L53.5963 60.8881L53.6065 60.9899L53.6167 61.0001L53.637 61.0102L53.5862 61.112L53.5455 61.1934L53.5455 61.2043L53.5455 61.2145L53.5455 61.2246L53.5251 61.2348L53.5048 61.2246L53.4539 61.2348L53.4437 61.2552L53.4335 61.2959L53.4335 61.3162L53.4132 61.3264L53.403 61.3467L53.3827 61.3671L53.3827 61.3874L53.3827 61.4078L53.3827 61.418L53.3514 61.5604L53.3725 61.6222L53.3725 61.6324L53.3616 61.6527L53.3311 61.6629L53.3107 61.7138L53.2904 61.7443L53.27 61.8054L53.2598 61.8359L53.2293 61.8766L53.2191 61.9173L53.1988 61.9587L53.1988 61.9791L53.1988 61.9892L53.1784 62.0096L53.1479 62.0605L53.1377 62.0808L53.1275 62.152L53.1174 62.1927L53.0665 62.2335L53.0563 62.2436L53.0461 62.2335L53.0054 62.2233L52.964 62.2233L52.9538 62.2233L52.9131 62.2538L52.903 62.2538L52.8826 62.2538L52.8419 62.2742L52.8317 62.2742L52.8012 62.2742L52.791 62.2945L52.7707 62.3563L52.7605 62.3868L52.7503 62.3868L52.7096 62.4784L52.6791 62.5394L52.6791 62.57L52.6486 62.6208L52.5664 62.8047L52.485 62.9981L52.4647 63.0388L52.4545 63.0598L52.4443 63.0904L52.4036 63.1718L52.3731 63.2125L52.3731 63.2328L52.3019 63.3651L52.2917 63.3854L52.2917 63.3956L52.2815 63.4261L52.2815 63.4676L52.3019 63.5286L52.3019 63.5388L52.2714 63.5897L52.2612 63.61L52.251 63.6304L52.2401 63.6406L52.1791 63.7321L52.0977 63.8448L52.0875 63.8651L52.057 63.8957L52.0061 63.916L51.7611 64.0076L51.7306 64.0178L51.7103 64.0178L51.6797 64.0381L51.5271 64.089L51.5169 64.0788L51.4959 64.089L51.4755 64.0992L51.4043 64.15L51.3839 64.1704L51.3738 64.1813L51.3534 64.2118L51.3229 64.2423L51.3025 64.2831L51.2924 64.3034L51.272 64.3136L51.1906 64.3746L51.1804 64.395L51.1703 64.4052L51.1288 64.4153L51.0881 64.4357L51.0779 64.4357L51.0271 64.4357L51.0271 64.4459L51.0474 64.4764L51.0271 64.5171L51.0271 64.5273L51.0169 64.5789L51.0169 64.589L51.0169 64.6094L51.0474 64.6501L51.0678 64.7111L51.1085 64.7518L51.1601 64.7925L51.1804 64.8231L51.2008 64.8841L51.211 64.9045L51.2211 64.9146L51.2415 64.9255L51.2415 64.9663L51.2517 64.9968L51.272 65.0171L51.2924 65.0273L51.3025 65.0375L51.3229 65.0477L51.3636 65.0477L51.4552 65.0273L51.4857 65.0477L51.5068 65.0375L51.5169 65.0273L51.5678 64.9764L51.5983 64.9764L51.6289 64.9866L51.6696 65.0578L51.6696 65.0884L51.6696 65.1087L51.6696 65.1698L51.6594 65.2206L51.6899 65.3129L51.6899 65.5063L51.6899 65.5164L51.6899 65.5978L51.6899 65.7003L51.6594 65.7614L51.639 65.8326L51.639 65.8733L51.6187 65.9038L51.6085 65.9445L51.6085 65.9649L51.5882 65.9954L51.5882 66.0158L51.578 66.0572L51.5882 66.0979L51.6187 66.1386L51.6289 66.1691L51.639 66.22L51.6594 66.2607L51.7001 66.3116L51.7001 66.3218L51.6594 66.3625L51.6594 66.393L51.6492 66.4242L51.6289 66.4344L51.6187 66.4446L51.6085 66.4548L51.6187 66.4751L51.6187 66.4955L51.6085 66.5565L51.6085 66.5769L51.6187 66.6481L51.6085 66.6684L51.5882 66.6888L51.5576 66.6888L51.5475 66.7091L51.5373 66.7091L51.5271 66.7091L51.5169 66.7193L51.5271 66.7295L51.5271 66.7702L51.5068 66.8014L51.4552 66.8828L51.445 66.9134L51.445 66.9439L51.4246 66.9541L51.4246 66.9744L51.445 66.9846L51.4348 66.9948L51.4043 67.0049L51.3941 67.0355L51.3839 67.0355L51.3738 67.0558L51.3636 67.066L51.3738 67.1067L51.445 67.1685L51.4755 67.1888L51.4857 67.1888L51.5068 67.2194L51.5271 67.2397L51.5678 67.2397L51.5983 67.2601L51.6289 67.2601L51.6492 67.2702L51.6696 67.2601L51.6899 67.2601L51.7001 67.2702L51.7306 67.2804L51.7713 67.2804L51.7815 67.3008L51.7917 67.3211L51.8324 67.3415L51.8425 67.372L51.8425 67.3822L51.8942 67.5864L51.9043 67.6576L51.9043 67.6678L51.8942 67.6882L51.8527 67.6983L51.8527 67.739L51.8527 67.7594L51.8731 67.7696L51.8731 67.7899L51.8731 67.8204L51.8942 67.9026L51.8629 67.9127L51.8629 67.9229L51.8731 67.9331L51.8731 67.9433L51.8527 67.9433L51.8527 67.9534L51.8731 67.9738L51.8629 67.984L51.8527 68.0043L51.8527 68.0145L51.8731 68.0247L51.884 68.045L51.9043 68.0755L51.9145 68.0959L51.8942 68.1569L51.9043 68.1671L51.884 68.1875L51.884 68.2078L51.884 68.218L51.9043 68.2282L51.9247 68.2899L51.945 68.3408L51.945 68.3612L51.9756 68.4019L51.9756 68.4121L51.9654 68.4324L51.945 68.4426L51.9552 68.4731L51.9552 68.4833L51.9654 68.5138L51.9959 68.6156L51.9857 68.6359L51.9959 68.6672L51.9857 68.6773L51.9756 68.6977L51.9756 68.718L51.9552 68.7282L51.9349 68.7384L51.945 68.7486L51.9654 68.7791L51.9756 68.7994L51.9959 68.8198L51.9959 68.8605L51.9959 68.9215L52.0061 68.9521L52.0061 69.0029L51.9959 69.0342L52.0061 69.0851L52.0061 69.136L52.0061 69.1563L52.0264 69.1767L52.0366 69.2174L52.0264 69.2377L52.0468 69.2479L52.057 69.2479L52.0671 69.2682L52.0773 69.2784L52.118 69.3293L52.1587 69.3395L52.1689 69.3598L52.1892 69.3802L52.1892 69.4012L52.2096 69.4114L52.2198 69.4318L52.251 69.4623L52.2714 69.4725L52.3019 69.5132L52.3222 69.5233L52.3528 69.5437L52.3629 69.564L52.3731 69.564L52.4036 69.564L52.4036 69.5742L52.4342 69.5742L52.4443 69.6047L52.4545 69.6149L52.4749 69.6149L52.4952 69.6251L52.5257 69.6658L52.5359 69.6963L52.5461 69.7065L52.5664 69.7167L52.597 69.7167L52.6384 69.737L52.6588 69.7472L52.6791 69.7683L52.6893 69.7683L52.7198 69.7785L52.73 69.7886L52.73 69.809L52.7707 69.8192L52.7809 69.809L52.8012 69.809L52.8114 69.809L52.8419 69.8192L52.8521 69.8293L52.8623 69.8497L52.903 69.8599L52.9131 69.8599L52.9437 69.8599L52.9538 69.87L52.9538 69.8802L52.964 69.9006L52.9742 69.9413L52.9742 69.9514L52.9742 69.9718L53.0054 70.0023L53.0054 70.0328L53.0054 70.043L53.0258 70.0532L53.036 70.0328L53.0461 70.0328L53.0563 70.043L53.0665 70.0634L53.0665 70.0735L53.0563 70.0837L53.0868 70.1041L53.1072 70.1353L53.1174 70.176L53.1479 70.2065L53.1581 70.2269L53.1682 70.2269L53.1784 70.2269L53.2089 70.2778L53.2089 70.3185L53.2089 70.3286L53.2191 70.349L53.2089 70.3694L53.2293 70.3795L53.2293 70.3897L53.2293 70.3999L53.2191 70.4304L53.2293 70.4508L53.2191 70.4609L53.2191 70.4711L53.2293 70.4915L53.2395 70.5125L53.2497 70.5227L53.2497 70.5329L53.2293 70.5532L53.2293 70.5736L53.2497 70.6143L53.2497 70.6448L53.2497 70.655L53.2598 70.655L53.27 70.6652L53.2598 70.6855L53.27 70.7059L53.2598 70.7262L53.27 70.7364L53.2497 70.7669L53.2497 70.7873L53.27 70.8381L53.2802 70.8483L53.3107 70.8585L53.3209 70.8796L53.3311 70.8796L53.3514 70.8999L53.3514 70.9406L53.3725 70.9711L53.3827 71.0118L53.3928 71.0118L53.4234 71.0017L53.4641 71.0017L53.4844 71.0118L53.4844 71.0322L53.4946 71.0525L53.4844 71.0627L53.4641 71.0729L53.4335 71.0729L53.4234 71.0831L53.403 71.0831L53.3725 71.1136L53.2904 71.134L53.2598 71.1441L53.2395 71.1441L53.2191 71.1543L53.1682 71.1645L53.1479 71.1848L53.1275 71.1848L53.1174 71.1848L53.097 71.2052L53.0868 71.2357L53.1072 71.2357L53.1988 71.2357L53.2089 71.267L53.2191 71.2873L53.2293 71.328L53.2497 71.4094L53.3412 71.5519L53.3725 71.6238L53.3928 71.634L53.3928 71.6442L53.4132 71.6849L53.4437 71.7256L53.4539 71.7459L53.5862 71.9596L53.6269 72.0112L53.6269 72.0316L53.6574 72.0824L53.7083 72.1537L53.7599 72.2045L53.7599 72.2147L53.8209 72.2758L53.8718 72.3368L53.882 72.3368L53.8922 72.347L53.9532 72.4291L53.9939 72.4698L54.1676 72.653L54.188 72.6733L54.2083 72.6937L54.2694 72.7656L54.3202 72.8165L54.4118 72.9183L54.4322 72.9183L54.4525 72.9386L54.5041 72.9997L54.5245 73.0302L54.555 73.0505L54.6466 73.1632L54.6669 73.1937L54.7178 73.2548L54.8712 73.4176L54.9119 73.4685L54.9831 73.5506L54.9831 73.5709L55.0034 73.5913L55.0238 73.6116L55.034 73.6218L55.1459 73.7439L55.1866 73.7948L55.1968 73.7948L55.2171 73.8253L55.2382 73.8355L55.2586 73.8668L55.34 73.9685L55.3501 73.9787L55.4315 74.0804L55.4417 74.0906L55.4519 74.111L55.4824 74.1313L55.5028 74.1618L55.5231 74.1822L55.5435 74.1517L55.5943 74.1618L55.6256 74.1415L55.6358 74.1313L55.6561 74.1313L55.707 74.1313L55.7273 74.1415L55.7273 74.1618L55.7375 74.1618L55.7884 74.1618L55.7986 74.172L55.8291 74.2025L55.8393 74.2236L55.8393 74.2338L55.88 74.305L55.9207 74.3661L55.941 74.3763L55.9723 74.417L56.0232 74.4882L56.0537 74.5187L56.0639 74.5289L56.074 74.5187L56.0842 74.4984L56.0944 74.478L56.1147 74.478L56.1249 74.4882L56.1453 74.478L56.1758 74.478L56.186 74.4984L56.2063 74.5085L56.2063 74.5289L56.2165 74.5492L56.2368 74.5492L56.2572 74.5696L56.2775 74.5696L56.2775 74.6008L56.2775 74.6212L56.2979 74.6415L56.3284 74.6924L56.3495 74.7229L56.3495 74.7636L56.4004 74.7942L56.4004 74.8349L56.4411 74.9468L56.4411 74.9679L56.4512 75.0187L56.4512 75.0696L56.4411 75.0798L56.4105 75.1002L56.4004 75.1307L56.3284 75.151L56.3284 75.1612L56.3284 75.1714L56.3284 75.1816L56.3386 75.2121L56.3386 75.2324L56.3495 75.263L56.3495 75.2731L56.3698 75.2833L56.3698 75.2935L56.3597 75.3138L56.3698 75.3553L56.3597 75.3654L56.3495 75.3756L56.3698 75.3858L56.3698 75.396L56.3495 75.4061L56.3597 75.4265L56.3902 75.4367L56.4309 75.4367L56.4512 75.457L56.4309 75.4875L56.4105 75.5181L56.4004 75.5384L56.3902 75.5893L56.38 75.6402L56.38 75.6605L56.3902 75.7012L56.4309 75.7935L56.4309 75.8648L56.4207 75.8851L56.4207 75.9156L56.3902 75.9665L56.38 76.0276L56.38 76.0581L56.4004 76.0784L56.4207 76.0995L56.4309 76.1199L56.4309 76.1402L56.4309 76.1809L56.4207 76.2114L56.4004 76.2216L56.4105 76.2521L56.4309 76.2725L56.4309 76.2928L56.4411 76.3132L56.4919 76.3437L56.5123 76.3844L56.5225 76.4149L56.5225 76.4251L56.5326 76.4666L56.5835 76.5276L56.6242 76.5785L56.6344 76.5887L56.6446 76.5988L56.6446 76.6599L56.6649 76.7311L56.6751 76.7515L56.6955 76.782L56.7165 76.8539L56.7165 76.8641L56.7165 76.8743L56.6853 76.915L56.6955 76.9455L56.7776 77.0167L56.7776 77.0269L56.7878 77.0371L56.7674 77.0676L56.7776 77.0676L56.7471 77.0981L56.7056 77.1083L56.6853 77.1185L56.6751 77.1287L56.6548 77.1592L56.6344 77.1694L56.6242 77.1694L56.614 77.1592L56.6039 77.1083L56.5835 77.0981L56.5632 77.0981L56.5326 77.088L56.4818 77.0981L56.4716 77.0981L56.4411 77.1185L56.4309 77.149L56.4309 77.2413L56.4207 77.282L56.4207 77.3431L56.4207 77.3533L56.4309 77.3736L56.4411 77.3838L56.4512 77.4143L56.4512 77.455L56.4512 77.4652L56.4411 77.4754L56.4309 77.4957L56.3902 77.5161L56.3698 77.5262L56.3698 77.5466L56.3902 77.5568L56.4105 77.5669L56.4309 77.588L56.4309 77.6185L56.4105 77.6592L56.4004 77.6694L56.3597 77.6999L56.3386 77.7406L56.3386 77.7712L56.3495 77.8017L56.3386 77.8322L56.3386 77.8424L56.3597 77.8526L56.3902 77.8933L56.4207 77.9136L56.4207 77.9449L56.4309 77.9754L56.4411 78.0059L56.4411 78.0263L56.4512 78.0873L56.4512 78.0975L56.4716 78.1077L56.5123 78.0975L56.5225 78.0975L56.5326 78.1077L56.5326 78.128L56.5225 78.1484L56.5225 78.1789L56.5326 78.2196L56.5632 78.3112L56.5733 78.3424L56.5937 78.3628L56.614 78.4035L56.6242 78.4544L56.6344 78.5154L56.6242 78.5561L56.614 78.5765L56.614 78.607L56.614 78.6375L56.6344 78.6579L56.6548 78.6993L56.6548 78.7197L56.6446 78.7502L56.6242 78.7807L56.6039 78.7705L56.5733 78.7298L56.553 78.7298L56.5326 78.7298L56.5021 78.74L56.4818 78.7502L56.4614 78.7502L56.4309 78.7705L56.4105 78.8011L56.3902 78.8418L56.3698 78.8723L56.3597 78.8723L56.3495 78.8723L56.3284 78.8621L56.3081 78.8621L56.2572 78.8519L56.247 78.8418L56.2267 78.7807L56.2368 78.7604L56.247 78.7095L56.2368 78.6993L56.2165 78.6782L56.2165 78.6579L56.2267 78.6274L56.2572 78.5765L56.2674 78.5561L56.2775 78.5358L56.2674 78.5154L56.247 78.5053L56.2267 78.5053L56.1453 78.5154L56.1249 78.5154L56.0232 78.5154L55.9512 78.4747L55.9003 78.4747L55.8901 78.4747L55.88 78.4544L55.8698 78.434L55.8698 78.4238L55.8291 78.4238L55.7884 78.4544L55.768 78.4544L55.7782 78.434L55.7477 78.3323L55.7273 78.3112L55.6663 78.3112L55.6459 78.301L55.6256 78.2603L55.6052 78.2501L55.5333 78.2298L55.4926 78.1789L55.4824 78.1484L55.4722 78.128L55.4214 78.0873L55.4112 78.0568L55.3908 78.0365L55.3501 78.0161L55.3196 78.0161L55.2891 78.0263L55.2687 78.0263L55.2586 78.0059L55.1357 77.9652L55.0848 77.9754L55.034 77.9652L54.9424 77.9449L54.8813 77.9238L54.8297 77.9035L54.7992 77.9035L54.7585 77.9136L54.7382 77.9136L54.6975 77.8831L54.6771 77.8729L54.6568 77.8729L54.6262 77.8933L54.6161 77.8933L54.5754 77.8729L54.5041 77.822L54.4838 77.822L54.4627 77.8424L54.3711 77.8628L54.3101 77.8831L54.2795 77.9035L54.2287 77.9449L54.188 77.9551L54.1676 77.9551L54.0651 78.0161L54.0346 78.0263L54.0244 78.0365L54.0041 78.0059L53.9939 77.9754L53.9939 77.9652L53.9939 77.9449L53.9634 77.9652L53.943 77.9652L53.9227 77.9652L53.9023 77.9551L53.8922 77.9449L53.9023 77.9035L53.9023 77.8831L53.8922 77.8526L53.8514 77.8017L53.8209 77.7712L53.7802 77.7712L53.77 77.761L53.7599 77.7406L53.7497 77.7203L53.6981 77.7203L53.7184 77.6796L53.7184 77.6592L53.6879 77.6491L53.6269 77.6389L53.5963 77.6287L53.5658 77.6287L53.5455 77.6287L53.5149 77.6592L53.4844 77.6999L53.4641 77.6898L53.4539 77.6796L53.4335 77.6185L53.3928 77.6185L53.3928 77.6287L53.3827 77.6796L53.3827 77.6999L53.3616 77.7203L53.3412 77.7203L53.3209 77.7101L53.3005 77.7101L53.27 77.7508L53.27 77.7813L53.2497 77.8119L53.1886 77.8119L53.1682 77.8119L53.1479 77.8119L53.1479 77.7915L53.1479 77.761L53.1479 77.7508L53.1377 77.7406L53.1174 77.7406L53.0665 77.8119L53.0563 77.822L53.036 77.822L53.0156 77.7915L53.0156 77.7508L52.9844 77.7203L52.9335 77.6999L52.903 77.6796L52.8623 77.6389L52.8317 77.6592L52.8114 77.7203L52.8012 77.7305L52.7503 77.7406L52.7096 77.7406L52.6791 77.7508L52.6486 77.7508L52.6282 77.7406L52.5766 77.6999L52.5664 77.6898L52.5664 77.6796L52.6072 77.6491L52.6173 77.6287L52.6282 77.588L52.6282 77.5669L52.6282 77.5466L52.5461 77.5262L52.5156 77.5161L52.5156 77.4754L52.5156 77.4143L52.5054 77.394L52.485 77.394L52.4545 77.4041L52.4545 77.4143L52.4749 77.4652L52.4749 77.4754L52.4647 77.4855L52.4138 77.4754L52.3833 77.4855L52.3629 77.5059L52.3629 77.5161L52.3426 77.5364L52.3019 77.5568L52.2815 77.5568L52.2401 77.5161L52.2299 77.5059L52.1791 77.5466L52.1689 77.5466L52.1587 77.5262L52.1485 77.5262L52.1689 77.4855L52.1791 77.4652L52.1689 77.4448L52.1587 77.4347L52.1282 77.4347L52.0875 77.4652L52.0671 77.455L52.057 77.4448L52.0671 77.4347L52.1078 77.4347L52.1078 77.4143L52.1078 77.4041L52.0163 77.3431L52.0061 77.3431L51.9959 77.3533L51.9959 77.3736L52.0163 77.394L52.0061 77.4041L51.9959 77.4041L51.9756 77.394L51.9349 77.394L51.9145 77.3533L51.8942 77.3227L51.884 77.3227L51.8527 77.3227L51.7815 77.3329L51.7611 77.3227L51.751 77.2922L51.7611 77.2617L51.751 77.2515L51.7408 77.2413L51.7001 77.2413L51.6594 77.1796L51.6492 77.1592L51.639 77.1185L51.6187 77.0981L51.5983 77.0981L51.5678 77.088L51.5576 77.0574L51.5373 77.0574L51.5271 77.0676L51.5068 77.088L51.4857 77.0778L51.4552 77.0574L51.4246 77.0981L51.3941 77.1083L51.3636 77.1287L51.3534 77.1287L51.2415 77.1694L51.0881 77.2312L51.0779 77.2312L51.0576 77.2413L51.0372 77.2413L51.0169 77.221L50.9965 77.1897L50.9864 77.1796L50.9355 77.149L50.8948 77.1389L50.8948 77.149L50.8236 77.1389L50.793 77.149L50.7313 77.1389L50.6499 77.1287L50.6193 77.1287L50.6092 77.1287L50.5685 77.1287L50.5379 77.1389L50.5176 77.1389L50.4871 77.1592L50.4769 77.1796L50.4463 77.1897L50.2421 77.1796L50.2218 77.1897L50.2116 77.1897L50.0691 77.1796L49.9463 77.1897L49.814 77.1897L49.7224 77.1897L49.6716 77.1897L49.62 77.1897L49.6098 77.1897L49.5894 77.1897L49.4063 77.1897L49.2428 77.1897L49.1919 77.1796L49.141 77.1897L48.9985 77.1897L48.6722 77.1897L48.5806 77.1897L48.5298 77.1897L48.4476 77.1796L48.4374 77.1897L48.4374 77.1897L48.1729 77.1897L48.1009 77.1897L47.9992 77.1897L47.9483 77.1897L47.7644 77.1897L47.7033 77.2006L47.6932 77.1897L47.5304 77.1897L47.4591 77.1897L47.3567 77.1897L47.3668 77.149L47.3261 77.1286L47.3261 77.1185L47.3465 77.1083L47.3668 77.0879L47.377 77.0778L47.3872 77.0676L47.3872 77.0574L47.3567 77.0269L47.3668 76.9964L47.3363 76.9862L47.316 76.9251L47.3058 76.9251L47.2854 76.9455L47.2753 76.9455L47.2753 76.9251L47.2549 76.9251L47.2447 76.915L47.2447 76.8946L47.2244 76.8743L47.204 76.8539L47.1939 76.8539L47.1735 76.8743L47.1532 76.8641L47.143 76.8844L47.1226 76.8946L47.1125 76.8946L47.1023 76.8946L47.0921 76.8844L47.0819 76.8946L47.0718 76.8946L47.0616 76.8946L47.0514 76.8844L47.0514 76.8743L47.0412 76.8743L47.0303 76.8844L47.0201 76.8844L47.01 76.8641L46.9998 76.8539L46.9998 76.8437L47.01 76.8437L47.0201 76.8539L47.0303 76.8539L47.0303 76.8336L47.0201 76.8227L46.9998 76.8227L46.9693 76.8437L46.9693 76.8336L46.9184 76.8227L46.7963 76.8539L46.7556 76.8743L46.7658 76.8946L46.7556 76.9048L46.7658 76.9251L46.7352 76.915L46.7352 76.9251L46.7149 76.9251L46.7047 76.9455L46.6844 76.9557L46.6742 76.9658L46.6742 76.976L46.6633 76.9557L46.6531 76.9455L46.6429 76.9353L46.6328 76.9353L46.6124 76.9455L46.6022 76.9353L46.5819 76.9658L46.5615 76.9658L46.5514 76.976L46.531 76.9658L46.5208 76.976L46.5107 76.9658L46.5005 76.9353L46.4903 76.9353L46.4903 76.9455L46.47 76.9455L46.4598 76.9353L46.4394 76.9353L46.4089 76.9353L46.3886 76.9353L46.3784 76.9353L46.3682 76.9353L46.3377 76.9353L46.297 76.9557L46.2657 76.9455L46.225 76.9557L46.2047 76.9455L46.1741 76.915L46.1233 76.9251L46.1131 76.9251L46.1131 76.9353L46.1334 76.9455L46.0622 76.976L46.0317 76.976L46.0215 76.9557L46.0012 76.9455L45.991 76.9455L45.9808 76.9557L45.9808 76.9964L45.9706 76.9964L45.9605 76.9964L45.9401 76.9964L45.9299 76.9964L45.919 76.976L45.8987 76.976L45.8783 76.9658L45.8275 76.9658L45.8173 76.9557L45.8173 76.9251L45.7969 76.9048L45.7969 76.9251L45.7868 76.9353L45.7562 76.9455L45.7359 76.9353L45.7155 76.9353L45.7155 76.9455L45.7155 76.9557L45.7054 76.9658L45.6545 76.9964L45.5731 77.0167L45.5418 77.0167L45.5316 77.0167L45.5215 76.9964L45.4808 76.9964L45.4706 76.9862L45.4604 76.9964L45.4401 76.9964L45.3688 76.9557L45.3281 76.9455L45.318 76.9658L45.2773 76.9658L45.1646 76.9455L45.1341 76.9251L45.1239 76.915L45.1137 76.915L45.0832 76.915L45.0425 76.915L45.0323 76.9048L45.0323 76.8844L45.0323 76.8743L45.0018 76.8641L44.9 76.915L44.8492 76.915L44.767 76.8946L44.7263 76.8946L44.6755 76.915L44.6449 76.915L44.6042 76.9251L44.5127 76.915L44.4 76.8844L44.3695 76.8743L44.2779 76.8641L44.2067 76.8437L44.1863 76.8437L44.1558 76.8437L44.1049 76.8437L44.0744 76.8437L44.0533 76.8844L44.0431 76.8946L44.0431 76.9048L44.0024 76.915L43.9719 76.9048L43.9617 76.9048L43.9516 76.9251L43.9109 76.9251L43.86 76.9048L43.8498 76.8946L43.8396 76.8641L43.8193 76.8437L43.7989 76.8336L43.7888 76.8437L43.7277 76.8336L43.6972 76.8227L43.6863 76.8227L43.6761 76.8227L43.6557 76.8539L43.6252 76.8539L43.615 76.8539L43.5845 76.8227L43.5336 76.7921L43.5235 76.8023L43.4828 76.8336L43.4421 76.8336L43.4115 76.8227L43.4014 76.8336L43.381 76.8336L43.3708 76.8125L43.3403 76.8125L43.2989 76.8125L43.2887 76.8125L43.2785 76.8227L43.2684 76.8227L43.2582 76.8227L43.2277 76.8125L43.1971 76.8023L43.1768 76.7921L43.1666 76.8125L43.1666 76.8227L43.1361 76.8227L43.1259 76.8125L43.1056 76.8125L43.0852 76.8125L43.0649 76.7921L43.0343 76.8125L43.0242 76.8023L43.014 76.8125L42.9733 76.8125L42.9631 76.8023L42.9529 76.8023L42.942 76.8125L42.9115 76.8227L42.9013 76.8227L42.8708 76.8023L42.8606 76.8023L42.8504 76.8227L42.8403 76.8227L42.8301 76.8336L42.8097 76.8227L42.7894 76.8125L42.7792 76.8125L42.7589 76.8336L42.7283 76.8227L42.6978 76.8227L42.6876 76.8227L42.6775 76.8539L42.6571 76.8539L42.6469 76.8539L42.6469 76.8336L42.6266 76.8336L42.6062 76.8437L42.5859 76.8227L42.5648 76.8125L42.5546 76.8125L42.5445 76.8227L42.5445 76.8437L42.5139 76.8336L42.4732 76.8336L42.4529 76.8227L42.4427 76.8227L42.4325 76.8336L42.4224 76.8336L42.4122 76.8539L42.3918 76.8437L42.3511 76.8437L42.3206 76.8539L42.3104 76.8539L42.3104 76.8227L42.2901 76.8023L42.3003 76.782L42.3003 76.7718L42.2799 76.7718L42.2595 76.782L42.2494 76.782L42.2188 76.7514L42.1876 76.7412L42.1672 76.7311L42.1469 76.6904L42.1367 76.6904L42.1164 76.7005L42.0655 76.7107L42.0451 76.7107L42.035 76.7005L41.9943 76.7209L41.9739 76.7412L41.9637 76.7412L41.9536 76.7514L41.9129 76.7412L41.862 76.7718L41.8518 76.7616L41.8315 76.7514L41.79 76.7311L41.7493 76.7311L41.7188 76.7412L41.6883 76.7311L41.6679 76.7616L41.6578 76.7718L41.6476 76.7718L41.6272 76.7616L41.6171 76.7718L41.5967 76.7718L41.5865 76.7616L41.5662 76.7514L41.5458 76.7616L41.5153 76.7514L41.4949 76.7616L41.4848 76.7718L41.4535 76.782L41.4128 76.7514L41.3619 76.7514L41.3416 76.7514L41.3518 76.7718L41.3619 76.782L41.3416 76.7921L41.3212 76.7921L41.3009 76.7718L41.2805 76.7616L41.2805 76.7718L41.25 76.782L41.2195 76.7718L41.1483 76.7514L41.1177 76.7718L41.0974 76.7718L41.0763 76.7921L41.056 76.8023L41.056 76.8125L41.0872 76.8227L41.0872 76.8437L41.0974 76.8437L41.0974 76.8539L41.0872 76.8743L41.0872 76.8844L41.0974 76.8844L41.0974 76.8946L41.0763 76.9251L41.056 76.9353L41.0458 76.9557L41.0356 76.9862L41.0051 77.0065L41.0153 77.0167L41.0356 77.0269L41.0254 77.0371L41.0254 77.0574L41.0254 77.0676L41.0153 77.0778L41.0254 77.0879L41.0356 77.0981L41.0153 77.1286L41.0051 77.1388L41.0153 77.1592L41.0356 77.1795L40.9644 77.1795L40.6787 77.1795L40.6075 77.1795L40.5363 77.1592L40.4956 77.1388L40.4651 77.1388L40.4142 77.1795L40.2914 77.1795L40.0573 77.1795L39.9963 77.1795L39.8836 77.1795L39.7514 77.1795L39.5471 77.1795L39.4759 77.1795L39.0682 77.1795L38.7927 77.1795L38.7011 77.1795L38.6808 77.1795L38.6604 77.1795L38.5587 77.1795L38.3137 77.1795L38.2425 77.1795L37.9365 77.1795L37.8856 77.1795L37.8348 77.1795L37.8246 77.1795L37.6916 77.1897L37.6 77.1795L37.5593 77.1795L37.427 77.1795L37.2533 77.1795L37.2431 77.1897L37.233 77.1897L37.1719 77.2311L37.1516 77.2108L37.1414 77.1795L37.1312 77.1795L37.1109 77.1795L37.0905 77.1795L37.0803 77.1795L37.0396 77.221L37.0193 77.2311L37.0091 77.221L36.988 77.2108L36.9778 77.2108L36.9677 77.2108L36.9371 77.221L36.8456 77.221L36.815 77.2108L36.7947 77.1795L36.7845 77.1592L36.7743 77.1694L36.7642 77.2108L36.7438 77.221L36.7133 77.2108L36.6929 77.2006L36.6108 77.1694L36.6006 77.1694L36.5803 77.1795L36.5599 77.1694L36.4989 77.1287L36.4378 77.1185L36.4175 77.1185L36.4073 77.1083L36.3768 77.0981L36.3564 77.0981L36.3259 77.1287L36.3157 77.1185L36.3056 77.1083L36.2954 77.0574L36.2852 77.0473L36.275 77.0269L36.2547 77.0269L36.2336 76.9964L36.2234 76.9964L36.1929 76.9862L36.1827 76.9658L36.1318 76.9455L36.1217 76.9455L36.1013 76.9048L36.0606 76.8023L36.0606 76.7718L36.0708 76.7311L36.0708 76.6802L36.0504 76.6497L36.0301 76.6192L36.0403 76.5988L36.0403 76.5785L36.0504 76.5378L36.0504 76.4767L36.0301 76.3742L36.0301 76.3539L36.0606 76.3233L36.0606 76.303L36.0606 76.2928L36.0504 76.2318L36.0606 76.2012L36.0301 76.0995L36.0504 76.0581L36.0403 75.9868L36.0504 75.8953L36.0708 75.8647L36.081 75.824L36.0911 75.7833L36.0911 75.7426L36.1013 75.7325L36.1115 75.6401L36.1115 75.63L36.1217 75.6198L36.1318 75.5282L36.1624 75.4773L36.1725 75.457L36.1624 75.4265L36.1624 75.4061L36.2132 75.3552L36.2234 75.2935L36.2132 75.2426L36.2234 75.2222L36.2438 75.1815L36.2547 75.151L36.2648 75.1408L36.275 75.1307L36.2547 75.0696L36.2336 75.0086L36.2438 74.9366L36.2648 74.8755L36.275 74.8755L36.2852 74.8755L36.2852 74.8552L36.2954 74.8145L36.2852 74.7534L36.2954 74.7229L36.2954 74.7026L36.3056 74.6924L36.3056 74.672L36.3157 74.6517L36.3259 74.6008L36.3361 74.5696L36.3768 74.5187L36.387 74.5085L36.4582 74.4475L36.4684 74.4169L36.4785 74.4068L36.4887 74.3762L36.4785 74.3559L36.4887 74.3254L36.4989 74.305L36.5091 74.2948L36.4989 74.2439L36.5192 74.2338L36.5294 74.2338L36.5294 74.2127L36.5192 74.1618L36.4887 74.1109L36.4277 73.9888L36.3768 73.8667L36.3666 73.8355L36.3666 73.8253L36.4073 73.8457L36.387 73.8151L36.3666 73.805L36.3564 73.7744L36.3259 73.7236L36.3056 73.693L36.2852 73.6422L36.2954 73.6218L36.2852 73.6116L36.275 73.5607L36.2547 73.4997L36.2336 73.4793L36.2031 73.4379L36.1725 73.4074L36.1522 73.387L36.1217 73.326L36.0606 73.2751L36.0606 73.2649L36.0199 73.2141L35.9589 73.153L35.8978 73.0811L35.7852 72.9691L35.775 72.9691L35.7445 72.9386L35.7038 72.8979L35.6936 72.8979L35.6732 72.8877L35.6427 72.8572L35.5918 72.8267L35.4995 72.7453L35.4792 72.7453L35.4588 72.7242L35.4385 72.6937L35.4283 72.7038L35.4181 72.6937L35.4079 72.6835L35.4079 72.6733L35.4181 72.6631L35.4283 72.6835L35.4486 72.6326L35.4588 72.6021L35.469 72.5919L35.4588 72.5817L35.4486 72.5614L35.4283 72.5614L35.4283 72.541L35.4283 72.5105L35.4385 72.4495L35.4486 72.4495L35.4486 72.4902L35.4588 72.4698L35.4792 72.48L35.5104 72.48L35.5104 72.4698L35.5104 72.4596L35.469 72.4596L35.469 72.4495L35.4893 72.4393L35.4588 72.3986L35.4588 72.3782L35.4486 72.3986L35.4486 72.3884L35.4385 72.3164L35.3571 72.174L35.2858 72.0519L35.235 71.9698L35.1332 71.8477L35.1332 71.8375L35.1434 71.8375L35.1536 71.8375L35.1943 71.8782L35.1943 71.8884L35.2044 71.8782L35.2146 71.8884L35.2451 71.9087L35.2655 71.8985L35.2655 71.8884L35.2858 71.868L35.3062 71.8477L35.3062 71.807L35.3062 71.7663L35.3265 71.7154L35.3469 71.6747L35.3571 71.6747L35.3774 71.6645L35.3876 71.6645L35.4181 71.6849L35.4588 71.7052L35.4588 71.7256L35.4893 71.7357L35.4995 71.7459L35.4995 71.7561L35.4995 71.7764L35.5308 71.7663L35.5613 71.8171L35.5715 71.8273L35.602 71.807L35.602 71.7866L35.5918 71.7764L35.602 71.7459L35.602 71.7256L35.6224 71.7154L35.6427 71.7052L35.6834 71.7154L35.6936 71.6747L35.6732 71.6645L35.6325 71.6238L35.6325 71.6129L35.6325 71.6027L35.6122 71.5925L35.602 71.5824L35.5918 71.5722L35.5715 71.5518L35.5613 71.5315L35.5715 71.5213L35.5816 71.5111L35.6122 71.5213L35.6224 71.5111L35.6325 71.4806L35.6224 71.4603L35.602 71.4501L35.5918 71.4399L35.5104 71.4399L35.4893 71.4297L35.469 71.4399L35.4486 71.4399L35.4385 71.4399L35.4283 71.4399L35.4181 71.4297L35.4079 71.4094L35.3978 71.3585L35.3978 71.3382L35.4181 71.3382L35.4181 71.3483L35.4283 71.3382L35.4283 71.3178L35.4486 71.2568L35.4995 71.1848L35.5104 71.1848L35.5409 71.195L35.5511 71.1848L35.5511 71.1441L35.5511 71.1238L35.5613 71.1136L35.5816 71.1136L35.602 71.0627L35.6529 71.0118L35.6732 71.0017L35.6732 70.9813L35.6936 70.9508L35.6936 70.9406L35.6427 70.961L35.6325 70.961L35.6529 70.9304L35.6427 70.9304L35.6224 70.9304L35.6224 70.9202L35.6427 70.8686L35.6325 70.8483L35.6122 70.9101L35.5918 70.9406L35.5918 70.961L35.5918 70.9813L35.6122 71.0118L35.6122 71.022L35.5613 71.0322L35.5308 71.0424L35.4893 71.0424L35.4893 71.0525L35.4893 71.0627L35.4588 71.0932L35.4486 71.1034L35.4283 71.1441L35.3876 71.1339L35.3774 71.1441L35.3978 71.1645L35.3876 71.1645L35.3571 71.1746L35.3265 71.195L35.2858 71.2153L35.2655 71.2153L35.2248 71.2052L35.2044 71.1848L35.1943 71.195L35.1637 71.1848L35.1121 71.1645L35.1121 71.1543L35.0918 71.1441L35.0714 71.1543L35.0511 71.1848L35.0613 71.195L35.0816 71.2357L35.0816 71.2669L35.102 71.3382L35.0918 71.3687L35.0714 71.389L35.0613 71.3789L35.0409 71.3789L34.99 71.389L34.9799 71.389L34.929 71.3483L34.929 71.3382L34.9086 71.3178L34.8883 71.2975L34.8781 71.2873L34.8679 71.2771L34.8577 71.2771L34.8374 71.2771L34.8272 71.2873L34.8476 71.3178L34.8476 71.328L34.8577 71.3382L34.8679 71.3585L34.8577 71.3992L34.8577 71.4196L34.8476 71.4297L34.8374 71.4297L34.8476 71.4501L34.8679 71.4501L34.8577 71.4603L34.8679 71.501L34.9086 71.5417L34.8272 71.5824L34.7553 71.6129L34.7247 71.6238L34.684 71.6238L34.623 71.6027L34.5925 71.5925L34.5314 71.5722L34.4195 71.4908L34.389 71.4603L34.3068 71.3483L34.2967 71.3382L34.2967 71.3483L34.2865 71.3483L34.2661 71.3382L34.2458 71.3382L34.2356 71.3382L34.2559 71.3585L34.2458 71.3789L34.2254 71.3687L34.1949 71.3992L34.1949 71.4094L34.1949 71.4196L34.1949 71.4297L34.1847 71.4297L34.1745 71.4399L34.1338 71.4399L34.1338 71.4094L34.1237 71.389L34.1033 71.389L34.0931 71.389L34.083 71.389L34.0728 71.4094L34.0728 71.4196L34.0626 71.4196L34.0626 71.4094L34.0524 71.3992L34.0524 71.3789L34.0524 71.3687L34.0524 71.3483L34.0626 71.3178L34.0626 71.3076L34.0321 71.2771L34.0423 71.2669L34.0524 71.2771L34.0626 71.2669L34.0626 71.2568L34.0423 71.2357L34.0524 71.2153L34.0524 71.2052L34.011 71.195L33.9601 71.195L33.9398 71.195L33.9194 71.195L33.9093 71.2052L33.8991 71.2052L33.8584 71.2052L33.8482 71.1848L33.8279 71.1848L33.8075 71.1848L33.7872 71.2052L33.7668 71.2052L33.7566 71.195L33.7566 71.1848L33.7363 71.195L33.7058 71.1746L33.6854 71.1441L33.5931 71.0831L33.5727 71.0729L33.5524 71.0627L33.471 71.0322L33.4506 71.0118L33.4405 71.0118L33.4201 71.022L33.3998 71.0118L33.3998 70.9915L33.3692 70.9711L33.3387 70.9406L33.3184 70.9202L33.2878 70.9202L33.2878 70.9101L33.298 70.8999L33.3082 70.8897L33.3184 70.8585L33.3285 70.8483L33.3184 70.8178L33.3285 70.7262L33.3387 70.6957L33.3489 70.6753L33.3591 70.6448L33.3591 70.6346L33.3489 70.6143L33.3489 70.6041L33.3489 70.5837L33.3184 70.5532L33.3082 70.5125L33.2878 70.4914L33.2566 70.4609L33.2464 70.4507L33.2159 70.4304L33.1752 70.4202L33.1447 70.3999L33.1345 70.3999L33.1141 70.3693L33.0836 70.3185L33.0633 70.3083L33.0531 70.2981L33.0531 70.2879L33.0633 70.2472L33.0734 70.2065L33.0633 70.1862L33.0327 70.1455L33.0226 70.104L33.0124 70.0633L33.0022 70.043L33.0124 70.0023L33.0022 69.9514L32.9717 69.9107L32.9717 69.8802L32.9819 69.8598L32.9717 69.8497L32.9717 69.8293L32.9717 69.7988L32.992 69.7683L33.0124 69.7581L33.0327 69.7581L33.0327 69.737L33.0124 69.7268L33.0022 69.6963L33.0022 69.6861L33.0124 69.6861L33.0633 69.6251L33.0327 69.5946L33.0226 69.5946L32.992 69.5844L32.9717 69.5437L32.931 69.5131L32.9106 69.5335L32.9005 69.5335L32.8794 69.5131L32.8387 69.4928L32.8285 69.4623L32.8285 69.4521L32.8387 69.4521L32.8387 69.4419L32.8183 69.4419L32.8081 69.4521L32.8081 69.4419L32.7878 69.4216L32.7471 69.4216L32.7064 69.4419L32.7064 69.4623L32.6962 69.4724L32.686 69.4826L32.6657 69.503L32.6453 69.503L32.6352 69.5131L32.6046 69.5233L32.5436 69.4521L32.5334 69.4419L32.5225 69.4216L32.5022 69.4114L32.4818 69.4114L32.4411 69.391L32.4004 69.3598L32.3801 69.3496L32.4004 69.3394L32.4004 69.3293L32.3801 69.2987L32.3699 69.2275L32.3699 69.2173L32.4004 69.2275L32.3597 69.197L32.3495 69.1665L32.3088 69.1156L32.319 69.1054L32.2987 69.0749L32.2987 69.0545L32.258 69.0444L32.258 69.0342L32.258 69.0138L32.2376 69.0138L32.2173 69.0029L32.2071 68.9622L32.1969 68.9012L32.1765 68.891L32.1664 68.9215L32.1664 68.9521L32.1664 69.0029L32.1664 69.0138L32.2173 69.0647L32.2376 69.1054L32.258 69.2173L32.258 69.2987L32.258 69.3293L32.2681 69.3801L32.2681 69.391L32.2885 69.4114L32.2987 69.4216L32.2987 69.4623L32.3088 69.4623L32.3292 69.4724L32.3495 69.4724L32.3902 69.5233L32.3902 69.5335L32.4004 69.564L32.3902 69.5742L32.4106 69.5742L32.4208 69.5844L32.4208 69.5946L32.3801 69.6454L32.3495 69.6556L32.319 69.6658L32.2987 69.6658L32.2885 69.676L32.2376 69.6556L32.1562 69.6556L32.1148 69.6454L32.0537 69.6556L32.0334 69.6454L31.9723 69.6658L31.9418 69.6658L31.9113 69.6556L31.9011 69.6454L31.8706 69.6251L31.8197 69.6251L31.8095 69.6149L31.7783 69.6149L31.7681 69.6149L31.7477 69.5946L31.7376 69.5742L31.7172 69.4419L31.707 69.4216L31.707 69.4114L31.7274 69.4114L31.7681 69.4114L31.7892 69.4216L31.7892 69.4114L31.8095 69.4114L31.8095 69.391L31.8095 69.37L31.8095 69.3598L31.8095 69.3496L31.7892 69.3191L31.7783 69.3089L31.7681 69.2886L31.7274 69.2377L31.7376 69.1868L31.7579 69.1563L31.7681 69.1359L31.7783 69.0952L31.7783 69.0647L31.7993 69.0749L31.8502 69.0749L31.8706 69.0647L31.8807 69.0545L31.8807 69.0444L31.9011 69.0138L31.9011 69.0029L31.9113 69.0138L31.9214 68.9928L31.9113 68.9826L31.9316 68.9826L31.9418 68.9826L31.9418 68.9622L31.9113 68.9317L31.9011 68.9012L31.8909 68.8808L31.9011 68.8605L31.9011 68.8401L31.8807 68.8401L31.8706 68.8503L31.8604 68.8605L31.8197 68.8605L31.8095 68.7791L31.8299 68.7282L31.8604 68.6468L31.8706 68.6054L31.8807 68.6054L31.9113 68.5748L31.9316 68.5647L31.952 68.5748L31.9621 68.6054L31.9927 68.6155L32.0232 68.6155L32.0435 68.6054L32.1046 68.5647L32.1453 68.5341L32.1453 68.4833L32.1351 68.4629L32.0842 68.4222L32.0741 68.4019L32.0639 68.3713L32.0741 68.351L32.0842 68.3306L32.0944 68.3205L32.1249 68.2798L32.1453 68.2696L32.2173 68.2587L32.2274 68.2383L32.2376 68.218L32.2173 68.1773L32.2173 68.1671L32.2173 68.1467L32.2478 68.1467L32.2783 68.1264L32.2885 68.1162L32.2681 68.0959L32.2885 68.0857L32.319 68.0552L32.319 68.0348L32.3292 68.0246L32.3495 68.0246L32.3597 68.0145L32.3699 68.0145L32.3801 68.0043L32.3597 67.9839L32.3292 67.9839L32.319 67.9738L32.319 67.9636L32.3699 67.9127L32.3801 67.9025L32.3902 67.9025L32.3902 67.8916L32.3801 67.8713L32.4106 67.8611L32.4208 67.8509L32.4106 67.8204L32.4208 67.8001L32.4309 67.7797L32.4513 67.7288L32.4818 67.7085L32.5022 67.6881L32.5225 67.678L32.5225 67.6576L32.5225 67.6373L32.5945 67.6169L32.625 67.5966L32.6555 67.5457L32.6759 67.5144L32.6759 67.4941L32.686 67.4839L32.7064 67.4534L32.7267 67.4127L32.7573 67.372L32.7573 67.3414L32.7674 67.26L32.7573 67.2092L32.7573 67.1786L32.7573 67.1169L32.7471 67.0253L32.7776 66.9337L32.798 66.8727L32.8285 66.7295L32.8488 66.7091L32.8387 66.6786L32.8387 66.6481L32.8488 66.6175L32.8488 66.5972L32.8285 66.5463L32.8387 66.5056L32.8488 66.4853L32.8895 66.4344L32.9005 66.4242L32.9106 66.3726L32.9208 66.3319L32.931 66.3116L32.9513 66.2709L33.0022 66.2098L33.0124 66.1589L33.0429 66.1182L33.0531 66.0979L33.0531 66.047L33.0327 66.0056L33.0124 65.975L32.9819 65.9445L32.9513 65.9242L32.9106 65.8835L32.9005 65.8529L32.8692 65.8021L32.8183 65.7817L32.8081 65.7512L32.7776 65.7308L32.7674 65.7105L32.7674 65.6698L32.7573 65.6487L32.7674 65.6284L32.7878 65.6589L32.798 65.6589L32.8692 65.5571L32.9005 65.5266L32.9005 65.5063L32.8692 65.4859L32.8794 65.4655L32.8794 65.4554L32.9208 65.435L32.931 65.4147L32.931 65.3841L32.931 65.374L32.9208 65.3638L32.8794 65.3536L32.859 65.3333L32.8387 65.2926L32.8488 65.2817L32.8692 65.2715L32.9106 65.2104L33.0022 65.1596L33.0531 65.068L33.0836 65.0476L33.1447 65.0273L33.2566 64.9357L33.2878 64.9146L33.3082 64.8943L33.3387 64.8841L33.3591 64.8638L33.4812 64.7518L33.5015 64.7416L33.5727 64.6704L33.5931 64.6501L33.6956 64.5585L33.7058 64.5585L33.7973 64.4764L33.8482 64.4255L33.8787 64.3543L33.8991 64.2932L33.9398 64.2525L33.9601 64.2322L34.0524 64.1602L34.1033 64.1398L34.144 64.1398L34.1644 64.1297L34.1847 64.1195L34.2254 64.1195L34.2865 64.0177L34.2967 63.977L34.317 63.9567L34.3679 63.8549L34.3991 63.8244L34.4195 63.8244L34.4297 63.8142L34.4297 63.8041L34.4093 63.7932L34.4195 63.783L34.4398 63.783L34.4602 63.7728L34.4704 63.7423L34.4602 63.7321L34.4704 63.7016L34.4602 63.6812L34.4602 63.6609L34.4805 63.6507L34.4805 63.5897L34.5009 63.5693L34.5111 63.5693L34.5518 63.5897L34.5925 63.61L34.6128 63.61L34.6332 63.6304L34.7349 63.6812L34.7662 63.6914L34.817 63.5388L34.817 63.5184L34.817 63.4879L34.817 63.4777L34.8272 63.4676L34.8374 63.4261L34.8577 63.3854L34.8577 63.3651L34.8476 63.3447L34.8679 63.3142L34.8577 63.304L34.8679 63.2938L34.8781 63.2531L34.8984 63.243L34.99 63.2633L35.0307 63.2735L35.0714 63.2735L35.1223 63.2633L35.2044 63.2124L35.2655 63.1819L35.2655 63.1717L35.2757 63.1616L35.2655 63.131L35.2655 63.1107L35.2655 63.0903L35.2655 63.0598L35.2858 63.0387L35.3062 62.998L35.3062 62.9879L35.3265 62.9879L35.3367 62.998L35.3571 62.998L35.3876 63.0082L35.4181 63.0286L35.4385 63.0082L35.4486 63.0082L35.4792 63.0082L35.4792 62.9879L35.4995 63.0184L35.5104 63.0286L35.5308 63.0489L35.5308 63.0598L35.5613 63.0387L35.5715 63.0387L35.5918 63.0489L35.602 63.0387L35.6122 63.0387L35.6224 63.0489L35.6427 63.0489L35.6529 63.0387L35.6631 63.0387L35.6631 63.0286L35.6732 63.0082L35.6936 62.8963L35.6936 62.8861L35.7139 62.8556L35.7343 62.7538L35.775 62.6928L35.775 62.6615L35.7852 62.631L35.7953 62.6005L35.7953 62.5903L35.8157 62.5903L35.8259 62.5801L35.8259 62.5496L35.8157 62.5394L35.836 62.5292L35.8157 62.4682L35.836 62.458L35.8157 62.4173L35.836 62.3868L35.836 62.3257L35.8462 62.3047L35.8775 62.2741L35.8876 62.264L35.8775 62.2538L35.8666 62.2334L35.8775 62.2029L35.8876 62.1622L35.8978 62.152L35.908 62.1215L35.9283 62.1419L35.9487 62.1419L35.9487 62.152L35.969 62.152L35.9792 62.152L35.9894 62.152L35.9894 62.1419L35.9996 62.1419L36.0199 62.1622L36.0403 62.1622L36.1522 62.1622L36.1827 62.1927L36.1929 62.1927L36.2234 62.2029L36.2648 62.1622L36.2954 62.1215L36.3463 62.0604L36.3666 62.0503L36.4378 61.979L36.4684 61.9587L36.4684 61.9485L36.5294 61.8664L36.6108 61.785L36.6217 61.7748L36.6522 61.7748L36.6929 61.7138L36.754 61.6629L36.7947 61.6324L36.8557 61.5713L36.8659 61.5713L36.8761 61.5604L36.9066 61.5299L36.9989 61.4587L37.0193 61.4281L37.0498 61.3976L37.06 61.3874L37.121 61.3264L37.1414 61.3264L37.1617 61.3467L37.1617 61.3671L37.1617 61.3874L37.1719 61.3874L37.1923 61.3874L37.1923 61.3976L37.2024 61.4078L37.1821 61.4281L37.1719 61.4485L37.1821 61.4587L37.1821 61.479L37.1923 61.4892L37.2024 61.4892L37.2024 61.5401L37.2126 61.5502L37.2024 61.6018L37.2024 61.6324L37.1821 61.6222L37.1821 61.6527L37.3042 61.7952L37.3245 61.8053L37.4982 61.7952L37.7323 61.7748L37.7635 61.7646L37.7941 61.7646L37.8144 61.7646L37.8246 61.7646L37.8856 61.7545L37.906 61.7545L38.0179 61.7443L38.0281 61.7443L38.1509 61.7341L38.2018 61.785L38.2221 61.785L38.2323 61.7748L38.2323 61.7443L38.2527 61.7341L38.2628 61.7239L38.2934 61.7138L38.3341 61.7036L38.3544 61.6731L38.385 61.6527L38.385 61.5815L38.3951 61.5502L38.4155 61.5299L38.4155 61.5095L38.4257 61.479L38.4257 61.4587L38.4562 61.3264L38.446 61.2857L38.4562 61.245L38.4562 61.173L38.4664 61.173L38.4664 61.1628L38.4562 61.1425L38.4664 61.0713L38.4664 61.0102L38.4765 60.939L38.4874 60.9288L38.518 60.939L38.5281 60.9695L38.5587 60.9797L38.579 61L38.579 61.0611L38.5994 61.112L38.5994 61.1425L38.5688 61.2144L38.6706 61.2958L38.6909 61.2958L38.7418 61.3162L38.7622 61.3162L38.7723 61.2958L38.8334 61.3264L38.8436 61.3365L38.8436 61.3772L38.8545 61.4078L38.8952 61.4078L38.9053 61.4281L38.9359 61.4587L38.9664 61.4892L39.0071 61.4892L39.0274 61.4892L39.0478 61.5401L39.058 61.5604L39.0987 61.5815L39.119 61.612L39.1292 61.6018L39.1292 61.5815L39.1496 61.5713L39.1699 61.5713L39.1801 61.5713L39.1903 61.5917L39.2004 61.5917L39.2208 61.5815L39.2317 61.5815L39.252 61.612L39.2724 61.6324L39.2927 61.6324L39.3538 61.6629L39.364 61.6731L39.3741 61.6934L39.2927 61.8664L39.3029 61.8969L39.2826 61.9071L39.2826 61.9274L39.2927 61.9485L39.2826 61.9587L39.2826 61.9689L39.3131 62.0096L39.3131 62.0299L39.3334 62.0503L39.3538 62.0808L39.3741 62.0808L39.3843 62.091L39.3945 62.091L39.4148 62.0808L39.4759 62.1215L39.5166 62.2131L39.5369 62.2334L39.5369 62.2436L39.5573 62.2436L39.5573 62.2131L39.5675 62.2131L39.5776 62.2131L39.5987 62.2436L39.5987 62.264L39.5878 62.3047L39.6089 62.4071L39.6191 62.4173L39.7107 62.4885L39.7107 62.4682L39.7208 62.4682L39.7819 62.4885L39.792 62.4784L39.792 62.4783L39.792 62.4682L39.8124 62.4682L39.8124 62.4783L39.8429 62.4783L39.8531 62.4783L39.8633 62.4783L39.8938 62.458L39.9548 62.4071L39.9861 62.3664L39.9963 62.3664L40.0064 62.3664L40.0065 62.3664L40.0166 62.3766L40.0166 62.3766L40.0573 62.3868L40.0777 62.3868L40.098 62.3766L40.1082 62.3766L40.1184 62.3868L40.1591 62.4376L40.1794 62.4682L40.2099 62.4885L40.2099 62.5089L40.1998 62.6005L40.1998 62.7029L40.1998 62.825L40.1896 62.9268L40.1998 62.9471L40.2303 62.9573L40.271 62.9573L40.2914 62.9573L40.3117 62.9573L40.3219 62.9471L40.343 62.9064L40.3735 62.8861L40.404 62.8759L40.4345 62.8963L40.4651 62.9268L40.4752 62.937L40.4752 62.9471L40.5058 62.9573L40.5159 62.9573L40.5465 62.9675L40.5872 62.9675L40.638 62.9777L40.6584 63.0082L40.6686 63.0184L40.6889 62.998L40.7202 62.998L40.7609 62.9675L40.7914 62.9675L40.8219 62.9777L40.883 63.0184L40.9135 63.0489L40.9237 63.0489L40.944 63.07L41.0254 63.0801L41.0254 63.0598L41.0254 63.0387L41.0356 63.0082L41.056 62.998L41.0974 62.998L41.1381 62.998L41.1788 62.9878L41.2704 62.9878L41.25 62.9573L41.2704 62.937L41.2805 62.8454L41.2602 62.7945L41.2704 62.7843L41.2805 62.764L41.3009 62.764L41.3111 62.764L41.3518 62.7538L41.3823 62.7233L41.423 62.764L41.4433 62.7742L41.4746 62.764L41.4949 62.7436L41.5153 62.7538L41.5356 62.7335L41.5662 62.7233L41.5865 62.7029L41.5763 62.6717L41.5967 62.631L41.6272 62.6005L41.6272 62.5903L41.6476 62.5699L41.6578 62.5699L41.6781 62.5496L41.6781 62.5394L41.6781 62.5089L41.6883 62.4885L41.6679 62.4478L41.6883 62.4071L41.6883 62.3868L41.7086 62.3562L41.7392 62.3461L41.7799 62.3257L41.79 62.3257L41.79 62.3046L41.79 62.2639L41.7595 62.2232L41.7493 62.2029L41.7392 62.1927L41.7493 62.1724L41.7697 62.1317L41.8315 62.1113L41.8206 62.091L41.8206 62.0604L41.7697 62.0503L41.7697 62.0299L41.7799 61.9994L41.7697 61.9587L41.7595 61.9485L41.7392 61.9376L41.6883 61.9376L41.6883 61.9172L41.6985 61.8867L41.7188 61.8664L41.729 61.8155L41.7595 61.7748L41.79 61.7544L41.8315 61.7443L41.8722 61.7341L41.8925 61.7036L41.9027 61.6323L41.9129 61.612L41.9129 61.5502L41.9332 61.5095L41.9536 61.4993L41.9841 61.4892L42.035 61.4892L42.035 61.4688L42.0655 61.4586L42.096 61.4281L42.1164 61.3874L42.1469 61.3671L42.1774 61.3569L42.1978 61.3467L42.1978 61.2755L42.2087 61.2653L42.2595 61.2653L42.2697 61.2551L42.3003 61.2653L42.3104 61.2653L42.3206 61.2653L42.3511 61.2348L42.3817 61.2348L42.4936 61.2653L42.5648 61.2551L42.5757 61.245L42.6062 61.2348L42.6164 61.2144L42.6266 61.2043L42.6368 61.173L42.6266 61.1526L42.6266 61.1425L42.6164 61.1323L42.5648 61.0407L42.5343 60.9491L42.5139 60.8677L42.5038 60.7653L42.5038 60.7551L42.4936 60.7347L42.4834 60.6839L42.4834 60.6228L42.4936 60.5516L42.5139 60.4804L42.5343 60.3982L42.5546 60.388L42.5546 60.3677L42.5757 60.3372L42.5961 60.2965L42.6368 60.2456L42.769 60.1031L42.7792 60.093L42.7894 60.0719L42.7996 60.0617L42.8097 60.0515L42.881 59.9803L42.9217 59.9294L42.9733 59.8684L43.0038 59.848L43.0343 59.8379L43.1056 59.8277L43.1259 59.8175L43.1463 59.8073L43.1666 59.8073L43.2582 59.7564L43.2378 59.7048L43.2277 59.6641L43.2175 59.5827L43.2073 59.4912L43.1971 59.3792L43.187 59.3385L43.1971 59.3175L43.2175 59.2971L43.2277 59.2869L43.248 59.2564L43.248 59.2157L43.248 59.1648L43.2582 59.1038L43.2684 59.0732L43.2785 59.0427L43.3091 59.0224L43.3301 58.9918L43.3301 58.9504L43.3505 58.9301L43.3505 58.8894L43.3708 58.8588L43.4014 58.8283L43.4319 58.7571L43.4421 58.7367L43.5031 58.6757L43.5642 58.635L43.5845 58.6045L43.6252 58.5732L43.6558 58.5121L43.6659 58.502L43.6863 58.4511L43.7074 58.4307L43.7175 58.4206L43.7379 58.4002L43.7481 58.39L43.7684 58.3799L43.7786 58.329L43.8193 58.2985L43.8396 58.2374L43.8498 58.196L43.8396 58.1858L43.8498 58.1858L43.8396 58.1451L43.8295 58.1146L43.8295 58.0841L43.8295 58.0434L43.8295 57.9823L43.8091 57.9518L43.7989 57.9111L43.8091 57.8907L43.8193 57.85L43.8498 57.7984L43.8803 57.7679L43.9109 57.7272L43.9312 57.6763L43.9617 57.6458L43.9719 57.6458L43.9719 57.5949L43.9617 57.4721L43.9414 57.2889L43.9109 57.1668L43.9007 57.1363L43.8803 57.0643L43.8702 57.0338L43.86 57.0135L43.86 56.9829L43.8803 56.871L43.9007 56.7998L43.921 56.7794L43.9414 56.7591L43.9719 56.7591L44.0024 56.7591L44.0431 56.7387L44.0642 56.7278L44.1151 56.6871L44.1354 56.677L44.166 56.677L44.227 56.6973L44.2677 56.6973L44.2779 56.6871L44.2881 56.6668L44.3288 56.6464L44.339 56.6464L44.3797 56.6464L44.4204 56.6464L44.4516 56.6363L44.472 56.6261L44.4923 56.5854L44.5432 56.5142L44.5534 56.4836L44.5635 56.4429L44.5635 56.392L44.5737 56.392L44.5839 56.3615L44.6042 56.3303L44.6246 56.3201L44.6348 56.3099L44.6449 56.2997L44.6551 56.2794L44.6551 56.2387L44.6551 56.2183L44.6551 56.2082L44.6755 56.1878L44.6958 56.1776L44.706 56.1675L44.7467 56.1776L44.8288 56.198L44.8695 56.2082L44.9407 56.2285L44.9713 56.2387L45.0018 56.259L45.0323 56.259L45.0425 56.2489L45.0832 56.2183L45.1748 56.1573L45.2264 56.1064L45.2569 56.1064L45.2976 56.1166L45.318 56.1166L45.3383 56.0962L45.3485 56.0861L45.3688 56.0657L45.379 56.0148L45.3892 56.0047L45.4401 55.9632L45.4502 55.9327L45.4502 55.8818L45.4502 55.8208L45.4604 55.7903L45.4808 55.7597L45.5011 55.7495L45.5215 55.7394L45.5418 55.7394L45.5629 55.7292L45.5934 55.7292L45.6341 55.7394L45.6443 55.7495L45.685 55.7394L45.7054 55.7292L45.7359 55.6885L45.7664 55.6274L45.7664 55.6173L45.7562 55.5657L45.7257 55.4944L45.7155 55.4741L45.6952 55.4436L45.6952 55.4232L45.7054 55.3927L45.7257 55.3418L45.7359 55.3113L45.7359 55.3011L45.7257 55.2909L45.7054 55.2604L45.7054 55.2088L45.7257 55.1783L45.7461 55.1783L45.7969 55.1172L45.8376 55.0867L45.8783 55.0256L45.8885 55.0053L45.9089 54.9748L45.9299 54.9341L45.9808 54.8621L45.991 54.8418L45.991 54.8214L45.991 54.8011L45.9706 54.7705L45.9808 54.7298L46.0012 54.6993L46.0215 54.6688L46.0215 54.6281L46.0113 54.5976L46.0215 54.5772L46.0317 54.567L46.0317 54.5365L46.0215 54.5162L46.0215 54.506L46.0113 54.4747L45.991 54.4646L45.991 54.4544L45.991 54.4238L46.0113 54.373L46.0012 54.3526L46.0113 54.3323L46.0215 54.2916L46.0317 54.2712L46.0215 54.2712L46.0317 54.2509L46.0317 54.2203L46.0724 54.1898L46.0724 54.1288L46.0724 54.0772L46.0622 54.0568L46.0622 54.0059L46.0724 53.9347L46.0622 53.8838L46.0724 53.8431L46.0724 53.7923L46.0622 53.7821L46.0419 53.7719L45.9401 53.7719L45.919 53.7617L45.919 53.7406L45.919 53.7101L45.9089 53.6898L45.9401 53.6694L45.9401 53.6592L45.9706 53.6592L45.991 53.6389L46.0622 53.5982L46.1131 53.588L46.1538 53.5575L46.164 53.527L46.1945 53.4964L46.2454 53.4659L46.297 53.4252L46.3071 53.4049L46.3275 53.4049L46.358 53.3947L46.3784 53.3947L46.3987 53.3947L46.4496 53.3431L46.531 53.2922L46.5412 53.282L46.5514 53.282L46.5819 53.282L46.6124 53.2719L46.6226 53.2719L46.6844 53.2719L46.7251 53.2515L46.7658 53.2617L46.8166 53.2617L46.8166 53.2515L46.837 53.2515L46.8573 53.2515L46.8675 53.2413L46.9082 53.2312L46.9489 53.2413L46.9591 53.2312L46.9693 53.2312L46.9998 53.221L47.0303 53.1905L47.0412 53.1803L47.0514 53.1701L47.0819 53.1803L47.1023 53.1701L47.1226 53.1396L47.1328 53.1091L47.1532 53.0887L47.1532 53.048L47.1633 53.0277L47.1837 53.0066L47.1939 52.976L47.1837 52.9659L47.1735 52.9455L47.1735 52.9252L47.1735 52.915L47.1633 52.8946L47.1735 52.8845L47.1837 52.8641L47.1837 52.8539L47.1633 52.8234L47.1735 52.8132L47.1735 52.7929L47.1939 52.7725L47.2142 52.7624L47.2244 52.7522L47.204 52.6911L47.2142 52.6606L47.2244 52.6504L47.2346 52.6294L47.2346 52.5887L47.2447 52.5378L47.2447 52.5073L47.2549 52.4869L47.2753 52.4564L47.3058 52.436L47.3261 52.3852L47.3567 52.3444L47.3465 52.3343L47.3465 52.3241L47.3363 52.2834L47.3058 52.2623L47.2753 52.242L47.2549 52.2216L47.2244 52.2216L47.1837 52.2013L47.1633 52.1911L47.1532 52.1809L47.143 52.13L47.1328 52.1199L47.1226 52.1097L47.1328 52.0995L47.1226 52.069L47.1226 52.0486L47.1226 52.0181L47.1328 52.0079L47.1532 51.9876L47.204 51.9571L47.2244 51.9469L47.2549 51.8851L47.2753 51.8342L47.2854 51.8037L47.2854 51.7834L47.2854 51.7732L47.2753 51.763L47.2447 51.7427L47.2244 51.7325L47.204 51.6816L47.1939 51.6612L47.1939 51.6307L47.204 51.6002L47.2854 51.5181L47.316 51.457L47.3465 51.4265L47.3974 51.3451L47.4075 51.3247L47.4184 51.3247L47.4388 51.3146L47.4591 51.3044L47.4795 51.3044L47.5405 51.3146L47.5711 51.3044L47.6321 51.2739L47.683 51.2637L47.7237 51.2637L47.7441 51.2535L47.7644 51.1925L47.7855 51.1518L47.7957 51.1307L47.8262 51.1205L47.8669 51.09L47.8872 51.0798L47.8974 51.0391L47.8974 51.0086L47.8974 50.9679L47.8872 50.9373L47.8974 50.917L47.9279 50.8763L47.9686 50.8356L47.9788 50.8152L47.9992 50.7847L48.0297 50.7433L48.05 50.6822L48.05 50.6212L48.0399 50.55L48.0399 50.5093L48.05 50.4686L48.0907 50.4177L48.0907 50.3559L48.0806 50.2948L48.0806 50.2338L48.1009 50.2033L48.1009 50.1829L48.1213 50.1524L48.1518 50.132L48.183 50.0913L48.1932 50.0405L48.183 49.999L48.1729 49.9685L48.1518 49.9482L48.1314 49.8871L48.1314 49.8566L48.1314 49.8261L48.1111 49.7752L48.1111 49.7548L48.1111 49.7345L48.1213 49.704L48.1416 49.6015L48.1627 49.5404L48.1729 49.5404L48.183 49.5302L48.2136 49.5099L48.2644 49.4692L48.2848 49.4387L48.295 49.4387L48.3051 49.4183L48.3255 49.3776L48.3357 49.3471L48.3458 49.2853L48.3662 49.1937L48.3764 49.1632L48.4069 49.1327L48.4374 49.0716L48.4374 49.0615L48.4578 49.0513L48.4578 49.0309L48.468 49.0106L48.4985 48.9801L48.5087 48.9801L48.5297 48.9699L48.5501 48.9393L48.5806 48.8877L48.601 48.8267L48.6213 48.7962L48.6315 48.7555L48.6315 48.7046L48.6315 48.6639L48.6417 48.613L48.6518 48.5309L48.662 48.5309L48.6925 48.5004L48.7027 48.4902L48.7027 48.4989L48.7638 48.4902L48.8147 48.4699L48.8859 48.419L48.907 48.419L48.9273 48.4088L48.9375 48.419L48.9578 48.4088L48.968 48.3986L48.9884 48.3885L48.9884 48.3681L48.9884 48.3376L48.9985 48.3172L49.0087 48.3172L49.0291 48.2969L49.0392 48.2765L49.0392 48.2562L49.0494 48.2358L49.0901 48.185L49.1105 48.1748L49.1206 48.1639L49.141 48.1435L49.1614 48.1435L49.1715 48.1232L49.1817 48.1028L49.2021 48.0621L49.2326 48.0418L49.2631 48.0316L49.2631 48.0113L49.2529 47.9807L49.2529 47.9502L49.2631 47.94L49.2842 47.9298L49.3249 47.8993L49.3554 47.8688L49.3554 47.8586L49.3656 47.8484L49.3656 47.8179L49.3758 47.8077L49.3961 47.7968L49.3961 47.7867L49.3961 47.7358L49.4063 47.7053L49.447 47.6646L49.4572 47.6544L49.4877 47.6239L49.5182 47.5832L49.5284 47.5526L49.5487 47.4611L49.5589 47.4407L49.5793 47.4305L49.5894 47.4196L49.6098 47.4095L49.6301 47.4196L49.6919 47.4611L49.7326 47.4611L49.7631 47.4712L49.8242 47.4814L49.8446 47.4916L49.8751 47.5221L49.8954 47.5526L49.926 47.5832L49.9667 47.6035L49.9972 47.6137L50.0284 47.6137L50.059 47.6137L50.0895 47.6035L50.0997 47.5933L50.1505 47.5832L50.2421 47.5425L50.2828 47.5323L50.293 47.5221L50.3235 47.5018L50.3642 47.4509L50.3955 47.4196L50.426 47.3688L50.4464 47.3484L50.5176 47.3077L50.599 47.2568L50.66 47.2365L50.7007 47.2059L50.7516 47.1856L50.8134 47.1754L50.8439 47.1652L50.8744 47.1551L50.9253 47.1245L50.9965 47.1042L51.0169 47.094L51.0271 47.094L51.0576 47.0635L51.0881 47.0119L51.0983 46.9508L51.1085 46.9305L51.1186 46.9305L51.1601 46.9101L51.2313 46.9L51.2822 46.9L51.3127 46.8898L51.3738 46.8593L51.5169 46.7982L51.5475 46.788L51.6187 46.7677L51.6492 46.7575L51.6899 46.727L51.7204 46.7066L51.7306 46.6652L51.7204 46.6143L51.7306 46.5431L51.751 46.4617L51.7408 46.4515L51.7408 46.421L51.7306 46.3803L51.7306 46.3498L51.7103 46.3294L51.7001 46.3083L51.6797 46.288L51.6492 46.2778L51.6289 46.2473L51.6187 46.2371L51.578 46.2066L51.5068 46.1761L51.4755 46.1455L51.4552 46.1048L51.445 46.0947L51.445 46.0641L51.4552 46.054L51.4959 46.0336L51.5169 46.0031L51.5475 45.9827L51.578 45.9726L51.5882 45.9522L51.5983 45.942L51.6187 45.9108L51.6289 45.8904L51.6187 45.8395L51.6187 45.7988L51.6289 45.7581L51.6187 45.7174L51.6187 45.6971L51.6187 45.6869L51.639 45.6462L51.6289 45.6462L51.6187 45.6259L51.6187 45.6157L51.6187 45.5953L51.6696 45.5437L51.6797 45.5132L51.6899 45.5234L51.7001 45.503L51.7103 45.4827L51.7306 45.4827L51.7408 45.4725L51.7408 45.4623L51.7306 45.442L51.7204 45.4115L51.7204 45.4013L51.751 45.3504L51.7611 45.3402L51.7815 45.3199L51.7917 45.3097L51.7815 45.2894L51.751 45.269L51.751 45.2588L51.751 45.2487L51.7204 45.1978L51.7001 45.1563L51.6899 45.136L51.6696 45.1055L51.6696 45.0749L51.6797 45.0546L51.6797 45.0342L51.7103 44.9935L51.751 44.9834L51.7611 44.9732L51.7611 44.9528L51.7306 44.9121L51.7306 44.8816L51.7306 44.8714L51.7408 44.8613L51.7713 44.8198L51.7815 44.7893L51.7815 44.7486L51.7917 44.7283L51.8527 44.6774L51.8629 44.657L51.8527 44.6265L51.8426 44.596L51.8018 44.5858L51.812 44.5655L51.7917 44.5349L51.7611 44.5553L51.7408 44.5451L51.7408 44.5655L51.7306 44.5655L51.7306 44.5553L51.7103 44.5655L51.7001 44.5756L51.7001 44.5858L51.6899 44.5858L51.6696 44.5858L51.6594 44.5655L51.6492 44.5655L51.6085 44.5553L51.6085 44.5451L51.6289 44.5349L51.6085 44.4942L51.5882 44.4739L51.5882 44.4637L51.5882 44.4535L51.5576 44.4426L51.5169 44.4426L51.5068 44.4324L51.4552 44.4223L51.4348 44.4121L51.445 44.3917L51.4653 44.3816L51.4653 44.3714L51.4755 44.3409L51.4653 44.3409L51.445 44.3612L51.4348 44.3307L51.4246 44.3103L51.4348 44.2798L51.4348 44.2696L51.4246 44.2595L51.4043 44.2391L51.3738 44.2391L51.3636 44.2188L51.3534 44.2188L51.3229 44.2188L51.3127 44.2086L51.3229 44.1882L51.3229 44.1781L51.3127 44.1679L51.3127 44.1577L51.3534 44.1577L51.3534 44.1475L51.3331 44.117L51.2924 44.1068L51.272 44.0967L51.2517 44.0756L51.2313 44.0654L51.2313 44.0451L51.2313 44.0349L51.211 44.0451L51.2008 44.0552L51.1804 44.0247L51.1703 44.0145L51.1397 44.0145L51.1288 44.0247L51.1186 44.0451L51.1085 44.0451L51.0983 44.0044L51.0779 43.9942L51.0576 43.9942L51.0372 43.9942L51.0169 44.0044L50.9762 43.9942L50.966 43.9942L50.8948 44.0145L50.8744 44.0145L50.8439 43.9942L50.8134 43.9942L50.793 44.0044L50.7727 43.9942L50.7211 43.9637L50.7007 43.9738L50.6702 43.9942L50.6499 44.0145L50.6295 44.0145L50.6295 44.0044L50.6092 43.9738L50.599 43.9738L50.5888 43.984L50.6092 44.0145L50.5888 44.0349L50.5685 43.984L50.5583 43.9738L50.5379 43.9738L50.5074 43.9738L50.4667 43.984L50.4565 43.984L50.3955 43.9942L50.3744 44.0044L50.3642 43.9942L50.354 43.9637L50.3439 43.9535L50.3235 43.9433L50.293 43.923L50.2523 43.8619L50.2421 43.8619L50.2014 43.8517L50.2014 43.8415L50.2218 43.8212L50.2116 43.8008L50.2116 43.7907L50.2319 43.7907L50.2523 43.7907L50.2523 43.7703L50.2726 43.7805L50.2828 43.7703L50.2726 43.7601L50.2726 43.75L50.2828 43.7398L50.293 43.7296L50.2726 43.7194L50.2625 43.7194L50.2625 43.7093L50.2319 43.7194L50.2218 43.7093L50.2218 43.6678L50.2116 43.6373L50.2218 43.617L50.2523 43.5966L50.2625 43.5457L50.293 43.5356L50.2726 43.505L50.2828 43.4949L50.2726 43.4847L50.2625 43.4745L50.2421 43.444L50.2218 43.3626L50.2218 43.311L50.2014 43.2194L50.2014 43.1889L50.1912 43.138L50.1607 42.9541L50.1505 42.9236L50.1505 42.9032L50.1404 42.8931L50.1404 42.8524L50.1302 42.8218L50.12 42.7608L50.1098 42.7201L50.0793 42.5362L50.0691 42.4751L50.059 42.4141L50.0488 42.3429L50.0488 42.3327L50.0386 42.3022L50.0284 42.2818L50.0284 42.2309L49.987 42.0572L49.987 42.0165L49.987 41.986L49.9768 41.9351L49.9667 41.925L49.9565 41.8741L49.9463 41.8225L49.9463 41.7818L49.926 41.6698ZM35.4588 72.3681L35.4486 72.347L35.4588 72.3368L35.4588 72.347L35.4588 72.3681Z" fill="white"/>
</g>
<defs>
<filter id="filter0_d_267_600" x="0" y="25.5269" width="284" height="98.8088" filterUnits="userSpaceOnUse" color-interpolation-filters="sRGB">
<feFlood flood-opacity="0" result="BackgroundImageFix"/>
<feColorMatrix in="SourceAlpha" type="matrix" values="0 0 0 0 0 0 0 0 0 0 0 0 0 0 0 0 0 0 127 0" result="hardAlpha"/>
<feOffset dx="5" dy="5"/>
<feGaussianBlur stdDeviation="5"/>
<feComposite in2="hardAlpha" operator="out"/>
<feColorMatrix type="matrix" values="0 0 0 0 0 0 0 0 0 0 0 0 0 0 0 0 0 0 0.3 0"/>
<feBlend mode="normal" in2="BackgroundImageFix" result="effect1_dropShadow_267_600"/>
<feBlend mode="normal" in="SourceGraphic" in2="effect1_dropShadow_267_600" result="shape"/>
</filter>
</defs>
</svg>
