<svg xmlns="http://www.w3.org/2000/svg" width="284" height="125" fill="none" viewBox="0 0 284 125"><g filter="url(#a)"><path stroke="#fff" stroke-width=".848" d="M261.484 35.727c4.615 7.641 7.027 15.914 7.09 24.284s-2.225 16.661-6.724 24.34m-249.709-.014C7.646 76.66 5.361 68.37 5.425 60.004c.065-8.367 2.477-16.636 7.09-24.275"/><path fill="#fff" d="M105.186 30.527h9.366v43.288c-4.804.912-8.332 1.276-12.165 1.276-11.435 0-17.396-5.161-17.396-15.06 0-9.535 6.326-15.729 16.117-15.729 1.521 0 2.676.121 4.075.485zm0 21.791c-1.094-.364-2.007-.485-3.162-.485-4.744 0-7.482 2.914-7.482 8.016 0 4.98 2.616 7.712 7.42 7.712a22 22 0 0 0 3.224-.241zm24.268-7.346v21.68c0 7.47-.548 11.05-2.173 14.15-1.522 2.976-3.529 4.86-7.664 6.924l-8.697-4.13c4.137-1.944 6.142-3.643 7.42-6.256 1.338-2.672 1.765-5.769 1.765-13.907V44.989zm-9.366-14.39h9.366v9.608h-9.366zm15.022 16.515c4.137-1.944 8.072-2.793 12.409-2.793 4.804 0 7.968 1.275 9.366 3.766.776 1.395 1.034 3.22 1.034 7.106v19.02c-4.197.607-9.489 1.031-13.38 1.031-7.845 0-11.374-2.734-11.374-8.806 0-6.56 4.683-9.61 16.179-10.567v-2.065c0-1.7-.853-2.325-3.224-2.325-3.466 0-7.357.972-11.008 2.855v-7.227zm14.658 14.879c-6.204.607-8.227 1.58-8.227 4.008 0 1.82 1.157 2.672 3.726 2.672 1.397 0 2.676-.121 4.501-.425zm12.729-15.546c5.533-1.457 10.095-2.123 14.718-2.123 4.804 0 8.273 1.093 10.341 3.22 1.947 2.003 2.553 4.188 2.553 8.865v18.34h-9.366v-17.98c0-3.583-1.217-4.919-4.563-4.919-1.278 0-2.433.121-4.319.667v22.225h-9.382zm31.239 33.4c3.284 1.7 6.569 2.49 10.035 2.49 6.142 0 8.758-2.49 8.758-8.441v-.183c-1.824.91-3.648 1.276-6.082 1.276-8.227 0-13.443-5.405-13.443-13.968 0-10.63 7.726-16.64 21.409-16.64 4.014 0 7.726.425 12.226 1.336l-3.207 6.747c-2.495-.485-.202-.065-2.085-.248v.972l.121 3.946.062 5.102c.062 1.276.062 2.551.124 3.825v2.551c0 8.016-.667 11.78-2.676 14.88-2.918 4.556-7.968 6.819-15.145 6.819-3.648 0-6.811-.547-10.096-1.823v-8.623zm18.627-27.935h-.974c-1.824-.062-3.952.425-5.412 1.336-2.251 1.276-3.406 3.584-3.406 6.863 0 4.676 2.328 7.347 6.448 7.347 1.277 0 2.328-.244 3.527-.608v-3.219c0-1.093-.062-2.325-.062-3.583l-.062-4.312-.063-3.097v-.728zm28.815-7.712c9.367 0 15.084 5.89 15.084 15.426 0 9.764-5.961 15.911-15.45 15.911-9.366 0-15.145-5.89-15.145-15.364 0-9.839 5.96-15.971 15.51-15.971zm-.183 23.806c3.589 0 5.719-2.976 5.719-8.137 0-5.114-2.068-8.137-5.657-8.137-3.725 0-5.839 2.976-5.839 8.137s2.13 8.137 5.777 8.137m-46.715 37.842c.015.41.015.777.015 1.13 0 .156-.015.297-.015.439a3 3 0 0 1-.296.282l-.142.141-.084.071-.029.028-.028.029c-.071.042-.127.099-.198.155a5.26 5.26 0 0 1-4.282.891 5.08 5.08 0 0 1-3.463-2.785 4.8 4.8 0 0 1-.494-2.218 4.85 4.85 0 0 1 .494-2.219 5.16 5.16 0 0 1 3.449-2.785 5.25 5.25 0 0 1 2.727.114 5.1 5.1 0 0 1 1.569.791l.198.155.283.255c.099.099.212.184.296.297 0 .141.015.282.015.424v1.13h-1.414c-.014-.325-.014-.622-.014-.904v-.043l-.028-.028-.042-.028-.142-.113a3.7 3.7 0 0 0-1.13-.551 3.54 3.54 0 0 0-1.922.014c-.297.085-.58.212-.834.353a4.5 4.5 0 0 0-.806.636 4 4 0 0 0-.692 1.003 3.7 3.7 0 0 0-.325 1.499c0 .522.113 1.031.325 1.512.183.367.409.706.692 1.003a3.63 3.63 0 0 0 1.625.975 3.49 3.49 0 0 0 3.067-.537c.043-.028.099-.07.142-.099l.042-.042a.03.03 0 0 0 .028-.028v-.947zm7.247 1.837h1.131v1.413h-2.827v-.735a2 2 0 0 1-.339.255 3.27 3.27 0 0 1-1.682.593 3.1 3.1 0 0 1-1.201-.141 1.7 1.7 0 0 1-.339-.127 2.6 2.6 0 0 1-1.018-.834 2.7 2.7 0 0 1-.367-.862 2.8 2.8 0 0 1-.057-.763c.028-.467.198-.933.495-1.3.24-.269.523-.495.834-.651.24-.127.508-.226.763-.296a8 8 0 0 1 1.554-.226c.297-.015.622-.015.961-.015h.396c0-.296-.212-.565-.438-.735a1.7 1.7 0 0 0-.721-.296 2.4 2.4 0 0 0-.904.028 5 5 0 0 0-1.399.594l-.707-1.23a8 8 0 0 1 1.738-.777 4.4 4.4 0 0 1 1.428-.156q.36.022.721.127.402.106.763.34c.297.197.565.438.763.734.141.184.24.382.311.594.099.254.141.523.141.777zm-2.12-1.088a3 3 0 0 0 .424-1.173h-.396c-.325 0-.593.014-.847.042-.41.043-.806.127-1.202.255-.325.127-.622.296-.763.494a.7.7 0 0 0-.113.368c0 .099.014.212.028.311.029.084.057.169.113.24a.8.8 0 0 0 .212.212c.043.028.085.042.128.071s.098.042.141.056c.198.071.381.099.593.099a2 2 0 0 0 1.682-.975m16.354 1.088h.778v1.413h-2.474v-3.745c-.014-.89-.325-1.512-.636-1.865a1.42 1.42 0 0 0-.975-.537c-.169 0-.353.028-.509.098a1.7 1.7 0 0 0-.537.368c-.353.367-.692 1.003-.706 1.936v2.332h.777v1.413h-2.473v-3.745c-.014-.89-.325-1.512-.636-1.865a1.42 1.42 0 0 0-.975-.537c-.17 0-.354.028-.509.098a1.7 1.7 0 0 0-.537.368c-.353.367-.693 1.003-.707 1.936v2.332h.763v1.413h-3.222v-1.413h.763v-4.805h-.932v-1.413h2.628v.607a2.97 2.97 0 0 1 1.753-.678c.833 0 1.639.353 2.19.975.156.156.297.325.41.509.099-.156.212-.311.339-.452a2.85 2.85 0 0 1 2.148-1.032 2.78 2.78 0 0 1 2.163.975c.339.353.607.777.777 1.23.226.551.339 1.144.339 1.752zm8.151-2.756c.042.353.014.707-.043 1.06h-5.37v.057a2.7 2.7 0 0 0 .48.904c.071.085.142.156.212.226s.156.127.241.184.183.099.268.141c.212.099.438.156.664.17.283 0 .566-.043.82-.17.339-.155.636-.395.848-.692l1.145.834a3.6 3.6 0 0 1-1.399 1.159 3.34 3.34 0 0 1-2.629.098c-.17-.056-.339-.141-.509-.226-.141-.084-.297-.198-.438-.296a5 5 0 0 1-.396-.354 4 4 0 0 1-.339-.424 3.4 3.4 0 0 1-.537-1.06 3.8 3.8 0 0 1-.198-1.427v-.212c.014-.071.014-.141.028-.212s.015-.141.029-.212l.056-.226c.043-.156.085-.311.142-.452.028-.085.056-.156.099-.241.028-.07.07-.155.113-.226.155-.297.339-.565.565-.82.198-.212.438-.409.678-.579a3.39 3.39 0 0 1 3.675-.057c.311.184.579.424.82.693.254.297.466.636.635.989q.213.487.297 1.018c.029.113.043.226.043.353m-5.399-.353h3.886a2.3 2.3 0 0 0-.565-.989 2.6 2.6 0 0 0-.509-.368 2 2 0 0 0-.565-.198 2 2 0 0 0-.65.014 1.7 1.7 0 0 0-.721.297 1.7 1.7 0 0 0-.367.325 2 2 0 0 0-.325.467 1.8 1.8 0 0 0-.184.452m11.255-3.039v.014l-.339 1.654a1.96 1.96 0 0 0-1.032.071c-.24.084-.466.212-.664.367-.198.17-.382.382-.509.622a2.4 2.4 0 0 0-.282 1.131v2.289h.918v1.413h-3.547v-1.413h.933v-4.805h-1.131v-1.413h2.827v.805c.24-.212.523-.396.833-.523a3.23 3.23 0 0 1 1.993-.212m7.442 1.965a3.74 3.74 0 0 1 0 3.561 3.7 3.7 0 0 1-.763.989c-.311.269-.65.509-1.032.679a4.05 4.05 0 0 1-3.477 0c-.367-.17-.72-.41-1.017-.679a3.7 3.7 0 0 1-.778-.989 3.74 3.74 0 0 1-.438-1.781c0-.621.142-1.229.438-1.78a3.7 3.7 0 0 1 .778-.975c.297-.283.65-.509 1.017-.693a4.05 4.05 0 0 1 3.477 0c.382.184.721.41 1.032.693q.466.423.763.975m-1.244 1.78a2.6 2.6 0 0 0-.226-1.031 3 3 0 0 0-.396-.636 2.7 2.7 0 0 0-.579-.481 2.26 2.26 0 0 0-2.162 0 2.4 2.4 0 0 0-.594.481 3 3 0 0 0-.382.636 2.4 2.4 0 0 0-.226 1.031c0 .368.071.721.226 1.046.099.226.227.438.382.622.17.198.367.353.594.481a2.19 2.19 0 0 0 2.162 0c.212-.128.41-.283.579-.481a2.58 2.58 0 0 0 .622-1.668m9.69-1.78c.297.551.453 1.159.453 1.78 0 .622-.156 1.23-.453 1.781a3.7 3.7 0 0 1-.763.989c-.311.269-.65.509-1.032.679a4.05 4.05 0 0 1-3.476 0 4.1 4.1 0 0 1-1.018-.679 3.7 3.7 0 0 1-.777-.989 3.7 3.7 0 0 1-.438-1.781c0-.621.141-1.229.438-1.78.198-.368.466-.693.777-.975.297-.283.65-.509 1.018-.693a4.05 4.05 0 0 1 3.476 0c.382.184.721.41 1.032.693q.466.423.763.975m-1.243 1.78a2.6 2.6 0 0 0-.226-1.031 3 3 0 0 0-.396-.636 2.7 2.7 0 0 0-.58-.481 2.26 2.26 0 0 0-2.162 0 2.5 2.5 0 0 0-.594.481q-.232.297-.381.636a2.4 2.4 0 0 0-.226 1.031c0 .368.07.721.226 1.046.099.226.226.438.381.622.17.198.368.353.594.481a2.19 2.19 0 0 0 2.162 0 2.4 2.4 0 0 0 .58-.481 2.6 2.6 0 0 0 .396-.622c.141-.325.226-.678.226-1.046m10.615 2.403h.947v1.413h-2.643v-3.745c0-.396-.085-.791-.254-1.159a2.7 2.7 0 0 0-.551-.721 2 2 0 0 0-1.23-.522 1.92 1.92 0 0 0-1.3.452 2.3 2.3 0 0 0-.594.735 2.8 2.8 0 0 0-.282 1.215v2.332h.918v1.413h-3.547v-1.413h.933v-4.805h-1.131v-1.413h2.827v.777a3.5 3.5 0 0 1 2.176-.848c.396 0 .792.056 1.159.184q.636.212 1.145.636c.41.339.749.763.975 1.229.297.594.452 1.244.452 1.908z"/><rect width="57.652" height="57.652" x="15.604" y="31.521" stroke="#fff" stroke-width="1.988" rx="28.826"/><path fill="#fff" fill-rule="evenodd" d="M49.926 41.67v-.01h.448l.215.01h.551l.05.071.041.061.01.02.072.093.01.01.06.092.021.03.01.01.031.02v.031l-.01.03.02.041.02.01.01.042.01.04h-.01l-.02.021v.05l.01.021.01.02v.01l.01.052-.01.03h-.01l-.02.051-.01.05v.032l.01.02.02.01h.032l.02.01.01.052.02.04h.021l.02-.01.061-.06.01-.011.01.01v.03l-.01.041v.031l.02-.01h.031l.051.05.03.01.031.011.062-.01.03-.01h.021l.02.01.01.01.031.04-.01.031-.04.03-.011.021v.031l.02.03.02.011h.021l.02-.02.02-.052.021-.02h.01l.02.01.01.031.011.02.01.02v.072l.01.01.02.02h.082l.062-.01h.01l.04.01.01.031v.03l.011.041.01.041.02.03.01.041.021.052-.01.01v.051l.01.05-.01.042.02.06-.03.031-.01.04.01.011.02.031h.02l.02-.031.011-.02h.02l.01.02v.052l.01.05.031.041.03.051.011.03.01.031v.04l-.01.082.01.042-.01.03-.02.03v.031l.03.092-.01.04-.01.072.01.04v.032l-.02.04v.01l.03.062-.01.01v.01l-.04.03-.01.02.01.031h.03l.102.123h.01l.031.02.01.02.02.011.031.02h.05l.021-.01.01-.02.01-.021.021-.01.03-.01v.01h.02l.031.02.042.031v.01l-.01.041v.03l.05.021.01.01.021.061-.01.02-.01.02v.011l-.03-.01-.011.01v.02l.02.01.01.01.01.021.01.01h.041l.031.01.01.01.01.01v.022l-.01.03-.01.02-.01.011h-.02l-.02-.01h-.021l-.01.01-.01.01.01.02.03.051v.051l-.01.02-.01.01-.03.021-.01.01-.011.02v.021l.01.02.01.041.01.011v.05l.01.031.031.02.01.01h.02l.01-.01v-.05h.011l.03.03.02.01v.082l.021.03.02.031.031.02.01.01-.01.02-.01.021-.01.01-.02.01-.031.01h-.02l-.02.021-.01.021.01.01.01.01.03.01.01.01.02.052-.01.01-.01.01-.01-.01-.04-.01h-.031l-.01.02-.01.03v.051l.01.02h.01l.01.042.01.02-.01.02.01.01.02.031-.01.02-.01.021.01.02.02.021.01.04v.011l.021.01.01.01v.041l-.01.03.01.02.01.011.082.03.02.01.02.031v.061l-.01.022-.02.05v.02l-.01.01-.071.042-.01.03-.02.01v.041l-.031.01-.02.051-.01.01-.011.02v.02l-.02.011v.03l-.031.042-.01.04.01.021.02.04.01.031v.01l-.03.031-.02.02-.01.02v.031l-.01.03.01.031v.01l-.01.01-.031.012-.01.01-.01.01.01.03v.01l-.02.01-.012.01v.011l.021.02v.031l-.01.05.01.011v.01l.031.02v.02l-.04.021-.012.01.021.01.01.01v.011l-.01.02-.01.02v.01l.01.022.01.01-.01.02.01.01.01.01v.021l-.02.01.01.01v.01l.01.021-.01.01-.03.03v.021l.03.01.01.051v.02l-.01.02-.01.021v.01l.01.01.021.01.01.01v.012l-.03.02.01.01.01.01.01.01-.01.021.02.01.01.04v.072l-.01.02.01.01v.051l.01.01v.01l.01.011.011.02.01.041.03.021.031.04.01.042v.07l.02.072.01.081-.02.02-.02.021v.011l-.02.01-.02.03-.01.021v.071l.01.01.02.02.01.031v.02l.01.031.04.04.021.062.01.02.041.042.03.05.01.031.011.01.02.051.022.04.01.052.02.02.01.082-.01.051-.02.04-.01.021v.163l.02.03.03.02.03.021.042.02.06.022h.021l.04.03.072.071.01.02.01.062.01.03.042.03.01.021.05.051v.133l.011.02.02.01.02.031-.01.02v.01l.041.031.01.03-.01.021.01.01.062.02.03.01.02.021.031.01.02.02.01.01.01.032.042.04.04.021.052.071.03.051.01.02h.01l.041.041.051.03.01.021.02.072.031.03.03.031.022.071h.02l.04.03.021.031.01.031h.01l.01-.01h.041l.061.05.041.031.02.03h.031l.03.01.052.053.04-.01.031.03.051.02h.02l.082.061.02.02.01.052-.02.01-.06.02-.052.01-.05.01h-.01l-.072.03-.041.011-.051.01-.082.01h-.091l-.061.02-.03.011-.011.01-.062.011h-.071l-.04.01-.021-.01-.03-.01-.041-.011-.123-.05-.061-.031h-.02l-.02-.01-.031-.01h-.061l-.02-.011-.072-.02-.061-.01-.042-.02-.05-.021-.072.112-.03-.01-.051-.01-.01-.021-.082-.04-.061-.021h-.03l-.052.03-.02.01-.01.021v.03l-.02.01h-.062l-.04-.01h-.01l-.031-.01-.02-.01-.051-.02-.02-.03-.032-.021-.04-.02h-.082l-.102.05-.05.01h-.021l-.03.01-.052.031-.04.02-.052.041-.02.031h-.01l-.01.021-.051.02-.02.01-.021.01h-.061l-.062-.02-.02-.01-.03-.01-.031-.021-.03-.01-.021-.01-.03-.01h-.133l-.102-.031-.102-.02-.04-.02-.042-.011-.03-.01-.02-.01h-.031l-.071-.02-.093-.031-.01-.01-.081-.01-.051-.01-.03-.01h-.02l-.042.01-.03.01h-.092l-.051.01-.041-.01h-.081l-.072.01h-.01l-.01.01h-.062l-.02-.01-.061-.01h-.02l-.01.01h-.071l-.021.01h-.122l-.021.01-.061.02-.031.02-.02.052-.01.05v.031l-.02.021-.011.071-.01.041-.03.05-.021.021-.02.03-.102.133-.02.031-.042.041v.02l-.071.061-.02.041-.01.01-.021.01-.061.041-.03.04-.052.103v.061l-.02.061.01.051v.02l.061.052.02.02.031.071.02.041.041.051h.01l.01.02.021.021.04.04.031.041.093.092.04.04.02.01.041.032.03.01h.031l.01.01.02.051v.041l.021.01.03.01.041.031.042.05.02.062.02.03.051.02.041.031.04.02.031.01h.061l.03.053.011.02.01.02.01.03.022.031.03.04.081.031.031.031.01.04.01.021-.01.04v.032l-.03.061-.01.01v.01l-.01.051.02.03.03.041.04.02.031.041h.02v.02l.041.031.02.02v.01l.031.042.01.02h.02l.022.021.03.01.01.01.041.03.02.021v.02l-.03.041v.01l.061.102.02.03h.01l.052.011.03.01.03.021.041.02.062.062.04.03.103.102.01.01.03.04.03.031h.011l.02.02.02.031.072.072.051.051.062.04.04.041.03.031.052.061.04.03.02-.01.062.01h.061l.041.031h.02l.02-.01.052.01.02-.02h.01v-.01h.01l.02.01.011-.02.02.02.01-.01h.01l.021.01h.02l.01.01.021.041v.03l.01.011.021.01.03.03-.03.021-.02.02.05.03h.031l.03-.01.021.01.02.021.051.02h.01l.041.031v.02l-.01.031-.01.071.01.02.01.012h.061l.093.02h.03l.03-.01h.051l.031.01h.02l.041-.01h.03l.041.02.03.02.063.03.03.021.061.041.04.061.062.01.01.01v.072l.01.04.01.032.01.03v.04l.021.021.02.04v.021l.01.051.02.061.011.04.01.031.01.03.01.032.022.071.01.03.01.072.01.04.051.225.02.03.031.052.01.04.03.051.021.03.02.052.092.194.02.02.042.092.02.04.02.041.041.072v.02l-.02.092v.04l.01.041.01.041.061.051.01.031.01.01v.031l.102.275.03.072.021.03.01.02.052.082.01.01.03.051.01.03.021.02.03.021.082.02.102.02.05.011.021.03v.011l-.01.02-.01.021v.02l.01.02-.01.032.01.03v.081l.01.01-.01.051-.02.031-.02.02v.02l.01.012v.03l-.01.051-.041.05-.01.021.01.01.01.02v.01l-.01.021h-.01l-.031.03-.02.021-.02.02-.021.02-.03.031-.021.01-.02.042-.031.01-.02.01-.02.041.01.02-.01.01h-.021l-.021.02v.021l-.02.02-.031.02h-.01l.01.021-.03.061-.031.01-.01.01-.01.031v.01l-.03.01-.011.02v.032l-.03.02-.041.041-.02.01-.021.01-.04.052-.042.02-.03.03-.041.03-.03.031-.011.01h-.02l-.051.041-.03.02-.021.021-.051.062-.03.02-.01.01-.021.02-.042.01-.01.011v.02l-.03.061-.03.01-.021.01v.031l-.02.02.02.01h.02l.01.021h.01l.01.01-.02.02-.01.031-.03.031-.02.041.01.102.01.01.02.01-.05.102-.042.081v.031l-.02.01-.02-.01-.051.01-.01.021-.01.04v.021l-.02.01-.011.02-.02.021v.051l-.032.142.022.062v.01l-.011.02-.03.01-.021.052-.02.03-.021.061-.01.03-.03.042-.01.04-.021.042v.03l-.02.02-.031.051-.01.02-.01.072-.01.04-.052.041-.01.01-.01-.01-.04-.01h-.052l-.04.03h-.031l-.041.021h-.04l-.011.02-.02.062-.01.03h-.01l-.041.092-.03.061v.031l-.031.05-.083.185-.081.193-.02.04-.01.022-.01.03-.041.082-.03.04v.02l-.072.133-.01.02v.01l-.01.031v.042l.02.06v.01l-.03.052-.01.02-.011.02-.01.01-.062.092-.081.113-.01.02-.031.03-.05.021-.246.092-.03.01h-.02l-.031.02-.153.051-.01-.01-.021.01-.02.01-.072.051-.02.02-.01.011-.02.03-.031.031-.02.041-.01.02-.021.01-.081.062-.01.02-.01.01-.042.01-.04.02h-.061v.01l.02.031-.02.041v.01l-.011.052v.03l.03.041.02.061.041.04.052.041.02.031.02.061.011.02.01.01.02.011v.041l.01.03.021.021.02.01.01.01.02.01h.042l.091-.02.03.02.022-.01.01-.01.05-.05h.031l.03.01.042.07v.113l-.01.05.03.093v.387l-.03.061-.021.072v.04l-.02.03-.01.041v.02l-.02.031v.02l-.011.042.01.04.03.042.01.03.011.051.02.04.041.052v.01l-.04.04v.031l-.01.031-.021.01-.01.01-.01.01.01.021v.02l-.01.061v.02l.01.072-.01.02-.02.02h-.031l-.01.021h-.02l-.011.01.01.01v.041l-.02.031-.052.082-.01.03v.03l-.02.011v.02l.02.01-.01.01-.03.01-.01.031h-.011l-.01.02-.01.011.01.04.071.063.03.02h.01l.022.03.02.02h.04l.031.021h.03l.021.01.02-.01h.02l.011.01.03.01h.041l.01.02.01.021.041.02.01.031v.01l.052.204.01.072v.01l-.01.02-.041.01v.061l.02.01v.051l.021.083-.031.01v.01l.01.01v.01h-.02v.01l.02.02-.01.011-.01.02v.01l.02.01.011.021.02.03.01.02-.02.062.01.01-.02.02v.031l.02.01.02.062.021.05v.021l.03.04v.011l-.01.02-.02.01.01.031v.01l.01.03.03.103-.01.02.01.031-.01.01-.01.02v.021l-.02.01-.02.01.01.01.02.031.01.02.02.02v.102l.011.031v.05l-.01.032.01.051v.071l.02.02.01.041-.01.02.02.01h.011l.01.021.01.01.041.051.04.01.01.02.021.021v.021l.02.01.01.02.032.031.02.01.03.041.021.01.03.02.01.021h.041v.01h.031l.01.03.01.01h.02l.021.011.03.04.01.031.011.01.02.01h.031l.041.021.02.01.021.021h.01l.03.01.011.01v.021l.04.01.01-.01h.031l.03.01.011.01.01.02.041.01h.04l.01.011v.01l.011.02.01.041v.03l.031.031v.041l.02.01.011-.02h.01l.01.01.01.02v.01l-.01.01.03.021.021.031.01.041.03.03.011.02h.02l.03.052v.05l.011.021-.01.02.02.01v.02l-.01.031.01.02-.01.01v.011l.01.02.01.022.01.01v.01l-.02.02v.02l.02.041v.041h.01l.011.01-.01.02.01.02-.01.021.01.01-.02.03v.021l.02.051.01.01.03.01.01.022h.011l.02.02v.04l.022.031.01.04h.01l.03-.01h.041l.02.01v.021l.01.02-.01.01-.02.01h-.03l-.01.011h-.021l-.03.03-.083.021-.03.01h-.02l-.02.01-.052.01-.02.02h-.03l-.021.021-.01.03h.112l.01.032.01.02.01.041.02.081.092.143.032.072.02.01v.01l.02.04.03.042.01.02.133.214.04.051v.02l.031.051.051.072.052.05v.01l.06.062.052.06h.01l.01.011.061.082.04.04.175.184.02.02.02.02.061.073.051.05.092.102h.02l.02.02.052.062.02.03.031.02.092.113.02.03.05.062.154.163.04.05.072.083v.02l.02.02.02.02.011.01.112.123.04.05h.01l.021.031.021.01.02.032.082.102.01.01.081.101.01.01.01.021.031.02.02.03.021.021.02-.03.051.01.032-.02.01-.01h.071l.02.01v.02h.061l.01.01.031.03.01.022v.01l.041.071.04.061.021.01.031.041.051.071.03.03.01.01.011-.01.01-.02.01-.02h.02l.01.01.021-.01h.03l.011.02.02.01v.02l.01.021h.02l.021.02h.02v.052l.02.02.031.051.021.03v.042l.051.03v.04l.041.113v.02l.01.052v.05l-.01.01-.03.021-.01.03-.073.021v.03l.01.031v.02l.011.031v.01l.02.01v.01l-.01.02.01.042-.01.01-.01.01.02.01v.011l-.02.01.01.02.031.01h.04l.021.021-.02.03-.02.031-.01.02-.01.051-.011.051v.02l.01.041.04.093v.07l-.01.021v.03l-.03.051-.01.062v.03l.02.02.02.022.01.02v.06l-.01.031-.02.01.01.031.02.02v.02l.011.021.05.03.021.041.01.03v.011l.01.042.052.06.04.052.01.01.01.01v.06l.02.072.011.02.02.031.022.072v.02l-.032.041.01.03.083.072v.01l.01.01-.02.03h.01l-.03.031-.042.01-.02.01-.01.01-.021.031-.02.01h-.01l-.011-.01-.01-.05-.02-.01h-.02l-.031-.011-.051.01h-.01l-.03.02-.011.031v.092l-.01.041v.071l.01.02.01.01.01.031v.051l-.01.01-.01.02-.04.021-.021.01v.02l.02.01.02.01.02.022v.03l-.02.041-.01.01-.04.03-.021.042v.03l.01.03-.01.031v.01l.02.01.031.041.03.02v.032l.01.03.011.03v.021l.01.061v.01l.02.01.041-.01h.01l.01.01v.021l-.01.02v.03l.01.042.031.091.01.031.02.02.021.041.01.051.01.061-.01.041-.01.02v.061l.02.02.02.042v.02l-.01.031-.02.03-.02-.01-.03-.04h-.041l-.03.01-.021.01h-.02l-.031.02-.02.031-.02.04-.021.031h-.02l-.022-.01h-.02l-.05-.01-.011-.01-.02-.061.01-.02.01-.051-.01-.01-.02-.022v-.02l.01-.03.03-.052.01-.02.01-.02-.01-.02-.02-.01h-.02l-.082.01h-.122l-.072-.041h-.06l-.011-.02-.01-.021v-.01h-.04l-.042.03h-.02l.01-.02-.03-.102-.02-.02h-.062l-.02-.011-.02-.04-.02-.01-.073-.021-.04-.051-.01-.03-.01-.021-.052-.04-.01-.031-.02-.02-.04-.02h-.031l-.03.01h-.021l-.01-.021-.123-.04-.051.01-.051-.01-.092-.021-.06-.021-.052-.02h-.03l-.041.01h-.02l-.041-.03-.02-.011h-.021l-.03.02h-.01l-.042-.02-.07-.051h-.021l-.021.02-.092.02-.06.021-.032.02-.05.042-.041.01h-.02l-.103.061-.03.01-.01.01-.02-.03-.011-.03v-.031l-.03.02h-.041l-.02-.01-.01-.01.01-.041v-.02l-.01-.031-.042-.051-.03-.03h-.04l-.011-.011-.01-.02-.01-.02h-.052l.02-.041v-.02l-.03-.01-.061-.011-.03-.01h-.051l-.031.03-.03.04-.02-.01-.011-.01-.02-.06h-.041v.01l-.01.05v.02l-.021.021h-.02l-.021-.01h-.02l-.031.04v.031l-.02.03h-.102v-.06l-.01-.01h-.02l-.052.07-.01.011h-.02l-.02-.03v-.041l-.032-.03-.05-.021-.031-.02-.04-.041-.031.02-.02.061-.01.01-.052.01h-.04l-.03.01h-.031l-.02-.01-.052-.04-.01-.01v-.01l.04-.03.01-.021.011-.041v-.041l-.082-.02-.03-.01v-.102l-.01-.021h-.021l-.03.01v.01l.02.051v.01l-.01.01-.051-.01-.03.01-.021.02v.011l-.02.02-.041.02h-.02l-.042-.04-.01-.01-.05.04h-.011l-.01-.02h-.01l.02-.04.01-.02-.01-.021-.01-.01h-.03l-.041.03-.02-.01-.011-.01.01-.01h.04v-.03l-.09-.062h-.01l-.011.01v.02l.02.021-.01.01h-.01l-.02-.01h-.041l-.02-.04-.02-.031h-.042l-.072.01-.02-.01-.01-.03.01-.031-.01-.01-.01-.01h-.04l-.042-.062-.01-.02-.01-.041-.02-.02h-.02l-.031-.011-.01-.03h-.02l-.01.01-.021.02-.021-.01-.03-.02-.031.04-.03.01-.031.02h-.01l-.112.041-.154.062h-.01l-.02.01h-.02l-.021-.02-.02-.031-.01-.01-.052-.031-.04-.01v.01l-.071-.01-.031.01-.062-.01-.081-.01h-.081l-.031.01h-.02l-.03.02-.011.02-.03.01-.205-.01-.02.01h-.01l-.143-.01-.123.01h-.703l-.051-.01-.051.01h-.611l-.082-.01-.01.01h-.674l-.06.012-.01-.011h-.337l.01-.041-.04-.02v-.01l.02-.01.02-.021.01-.01.01-.01v-.01l-.03-.031.01-.03-.03-.01-.021-.062h-.01l-.02.02h-.01v-.02h-.021l-.01-.01v-.02l-.02-.02-.021-.021h-.01l-.02.02-.02-.01-.011.02-.02.01h-.02l-.01-.01-.011.01h-.02l-.01-.01v-.01h-.01l-.012.01h-.01l-.01-.02-.01-.01v-.01h.01l.01.01h.01v-.02l-.01-.011H47l-.03.02v-.01l-.052-.01-.122.03-.04.021.01.02-.01.01.01.021-.03-.01v.01h-.021l-.01.02-.02.01-.01.01v.011l-.012-.02-.01-.01-.01-.01h-.01l-.02.01-.01-.01-.021.03h-.02l-.01.01-.021-.01-.01.01-.01-.01-.01-.03h-.01v.01h-.021l-.01-.01h-.122l-.041.02-.031-.01-.041.01-.02-.01-.03-.031-.052.01h-.01v.01l.02.01-.07.031h-.031l-.01-.02-.02-.01h-.011l-.01.01v.04h-.051l-.011-.02h-.02l-.02-.01h-.051l-.01-.01v-.03l-.021-.021v.02l-.01.01-.03.01-.021-.01h-.02v.02l-.01.01-.052.031-.08.02h-.042l-.01-.02h-.041l-.01-.01-.01.01h-.02l-.072-.04-.04-.01-.011.02h-.04l-.113-.02-.03-.02-.011-.011h-.082l-.01-.01v-.03l-.03-.01-.102.05h-.05l-.083-.02h-.04l-.051.02h-.031l-.04.01-.092-.01-.113-.03-.03-.01-.092-.01-.071-.021h-.132l-.022.04-.01.01v.01l-.04.011-.031-.01h-.01l-.01.02h-.041l-.051-.02-.01-.01-.01-.03-.02-.021-.021-.01-.01.01-.061-.01-.03-.011h-.022l-.02.03h-.041l-.03-.03-.051-.03-.01.01-.041.03h-.04l-.032-.01-.01.01h-.02l-.01-.02h-.082l-.01.01h-.02l-.031-.01-.03-.01-.021-.01-.01.02v.01h-.03l-.011-.01h-.04l-.021-.02-.03.02-.01-.01-.011.01h-.04l-.01-.01h-.011l-.011.01-.03.01h-.01l-.031-.02h-.01l-.01.02h-.01l-.01.01-.021-.01-.02-.01h-.01l-.021.02-.03-.01h-.041l-.01.03h-.031v-.02h-.02l-.02.01-.021-.02-.021-.01h-.01l-.01.01v.02l-.031-.01h-.04l-.021-.01h-.01l-.01.01h-.01l-.01.02-.021-.01h-.04l-.031.01h-.01v-.03l-.02-.02.01-.021v-.01h-.021l-.02.01h-.01l-.031-.03-.031-.01-.02-.01-.021-.042h-.01l-.02.01-.051.01h-.02l-.011-.01-.04.02-.021.021h-.01l-.01.01-.041-.01-.051.03-.01-.01-.02-.01-.042-.02h-.04l-.031.01-.03-.01-.021.03-.01.01h-.01l-.02-.01-.01.01h-.021l-.01-.01-.02-.01-.021.01-.03-.01-.021.01-.01.01-.032.011-.04-.03h-.071l.01.02.01.01-.02.01h-.02l-.021-.02-.02-.01v.01l-.031.01-.03-.01-.072-.02-.03.02h-.02l-.022.02-.02.01v.01l.031.01v.022h.01v.01l-.01.02v.01h.01v.01l-.02.031-.021.01-.01.02-.01.031-.03.02.01.01.02.01-.01.011v.03l-.01.01.01.01.01.011-.02.03-.01.01.01.021.02.02h-.429l-.07-.02-.041-.02h-.03l-.052.04h-2.589l-.133.01-.092-.01h-.347l-.01.01h-.01l-.061.042-.02-.02-.01-.031h-.061l-.041.041-.02.01-.01-.01-.022-.01h-.02l-.03.01h-.092l-.031-.01-.02-.031-.01-.02-.01.01-.01.04-.021.011-.03-.01-.021-.01-.082-.032h-.01l-.02.01-.021-.01-.061-.04-.061-.01h-.02l-.01-.01-.031-.01h-.02l-.031.03-.01-.01-.01-.01-.01-.052-.01-.01-.011-.02h-.02l-.021-.03h-.01l-.031-.01-.01-.021-.051-.02h-.01l-.02-.041-.041-.103v-.03l.01-.04v-.052l-.02-.03-.02-.03.01-.021v-.02l.01-.041v-.061l-.02-.103v-.02l.03-.03v-.031l-.01-.061.01-.03-.03-.102.02-.042-.01-.071.01-.092.02-.03.01-.041.01-.04v-.041l.01-.01.01-.093v-.01l.01-.01.01-.092.031-.05.01-.021-.01-.03v-.02l.051-.052.01-.062-.01-.05.01-.02.02-.041.012-.031.01-.01.01-.01-.02-.061-.021-.061.01-.072.02-.061h.021v-.02l.01-.041-.01-.062.01-.03v-.02l.01-.01v-.021l.01-.02.01-.051.011-.031.04-.051.011-.01.071-.061.01-.031.01-.01.01-.03-.01-.021.01-.03.01-.021.011-.01-.01-.051.02-.01h.01v-.021l-.01-.051-.03-.051-.061-.122-.051-.122-.01-.032v-.01l.04.02-.02-.03-.02-.01-.01-.03-.031-.051-.02-.031-.02-.05.01-.021-.01-.01-.011-.051-.02-.061-.021-.02-.03-.042-.032-.03-.02-.021-.03-.061-.061-.05v-.011l-.041-.05-.061-.062-.061-.072-.113-.112h-.01l-.03-.03-.041-.041h-.01l-.02-.01-.031-.03-.051-.031-.093-.082h-.02l-.02-.02-.02-.031-.01.01-.01-.01-.011-.01v-.01l.01-.01.01.02.02-.051.01-.03.011-.011-.01-.01-.01-.02h-.02v-.051l.01-.061h.01v.04l.01-.02.02.01h.031v-.02h-.041v-.01l.02-.01-.03-.041v-.02l-.01.02v-.01l-.01-.073-.082-.142-.071-.122-.051-.082-.102-.122v-.01h.02l.041.04v.01l.01-.01.01.01.031.02.02-.01v-.01l.02-.02.021-.02v-.081l.02-.052.02-.04h.011l.02-.01h.01l.031.02.04.02v.02l.031.01.01.01v.031l.032-.01.03.051.01.01.031-.02v-.02l-.01-.01.01-.031v-.02l.02-.01.02-.01.041.01.01-.041-.02-.01-.04-.041v-.021l-.02-.01-.011-.01-.01-.01-.02-.021-.01-.02.01-.01.01-.01.03.01.01-.01.01-.031-.01-.02-.02-.01-.01-.011h-.082l-.02-.01-.021.01h-.04l-.01-.01-.011-.02-.01-.051v-.02h.02v.01l.01-.01v-.021l.02-.061.051-.072h.011l.03.01.011-.01v-.061l.01-.01h.02l.021-.051.05-.051.021-.01v-.02l.02-.031v-.01l-.05.02h-.01l.02-.03h-.03v-.01l.02-.052-.01-.02-.02.061-.021.03v.041l.02.03v.011l-.05.01-.031.01h-.042v.02l-.03.031-.01.01-.02.041-.041-.01-.01.01.02.02h-.01l-.03.01-.031.021-.041.02h-.02l-.041-.01-.02-.02-.01.01-.031-.01-.052-.02v-.01l-.02-.01-.02.01-.02.03.01.01.02.04v.032l.02.071-.01.03-.02.021-.01-.01h-.021l-.051.01h-.01l-.051-.04v-.01l-.02-.021-.02-.02-.01-.01-.011-.01h-.03l-.01.01.02.03v.01l.01.01.01.02-.01.041v.02l-.01.01h-.01l.01.021h.02l-.01.01.01.041.04.04-.08.041-.073.03-.03.012h-.041l-.061-.021-.03-.01-.062-.02-.111-.082-.031-.03-.082-.113-.01-.01v.01h-.01l-.02-.01h-.031l.02.02-.01.02-.02-.01-.031.031v.03h-.01l-.01.01h-.041v-.03l-.01-.02h-.041l-.01.02v.01h-.01v-.01l-.01-.01v-.05l.01-.031v-.01l-.03-.03.01-.011.01.01.01-.01v-.01l-.02-.021.01-.02v-.01l-.042-.011h-.091l-.01.01h-.052l-.01-.02h-.04l-.02.02h-.021l-.01-.01v-.01l-.02.01-.031-.02-.02-.03-.093-.062-.02-.01-.02-.01-.082-.03-.02-.021h-.01l-.02.01-.021-.01v-.02l-.03-.02-.031-.031-.02-.02h-.031v-.01l.01-.011.01-.01.01-.031.01-.01-.01-.031.01-.092.01-.03.01-.02.011-.031v-.01l-.01-.02v-.031l-.03-.03-.01-.041-.021-.022-.031-.03-.01-.01-.031-.02-.04-.01-.031-.021h-.01l-.02-.03-.031-.052-.02-.01-.01-.01v-.01l.01-.04.01-.041-.01-.02-.031-.041-.01-.042-.01-.04-.01-.021.01-.04-.01-.052-.031-.04v-.03l.01-.021-.01-.01v-.051l.02-.03.02-.01h.02v-.022l-.02-.01-.01-.03v-.01h.01l.051-.062-.03-.03h-.01l-.031-.01-.02-.041-.041-.03-.02.02h-.01l-.022-.02-.04-.021-.01-.03v-.01h.01v-.011h-.02l-.01.01v-.01l-.021-.02h-.04l-.042.02v.02l-.01.01-.01.01-.02.021h-.02l-.01.01-.031.01-.061-.07-.01-.011-.011-.02-.02-.01h-.021l-.04-.021-.042-.031-.02-.01.02-.01v-.01l-.02-.031-.01-.072v-.01l.03.01-.04-.03-.01-.03-.041-.051.01-.01-.02-.031v-.02l-.041-.01v-.031h-.02l-.02-.011-.01-.04-.011-.062-.02-.01-.01.03v.093l.05.05.02.041.021.112v.112l.01.051v.011l.02.02.01.01v.041h.01l.021.01h.02l.041.051v.01l.01.031-.01.01h.02l.01.01v.01l-.04.051-.03.01-.031.01h-.02l-.01.011-.051-.02h-.082l-.041-.01-.061.01-.02-.01-.062.02h-.03l-.03-.01-.01-.01-.031-.02h-.051l-.01-.011h-.042l-.02-.02-.01-.02-.02-.133-.011-.02v-.01h.061l.021.01v-.01h.02v-.062l-.02-.03-.01-.011-.01-.02-.042-.051.01-.051.02-.03.011-.021.01-.04v-.031l.021.01h.051l.02-.01.01-.01v-.01l.021-.031v-.011l.01.01.01-.02-.01-.01h.03v-.02l-.03-.031-.01-.03-.01-.021.01-.02v-.02h-.02l-.01.01-.01.01h-.041l-.01-.082.02-.05.03-.082.01-.042h.01l.031-.03.02-.01.021.01.01.03.03.01h.031l.02-.01.062-.04.04-.03v-.052l-.01-.02-.05-.04-.01-.021-.011-.03.01-.021.01-.02.01-.01.03-.041.021-.01.072-.011.01-.02.01-.021-.02-.04v-.031h.03l.031-.02.01-.01-.02-.021.02-.01.031-.03v-.021l.01-.01h.02l.01-.01h.01l.011-.01-.02-.021h-.03l-.011-.01v-.01l.05-.051.011-.01h.01v-.011l-.01-.02.03-.01.01-.011-.01-.03.01-.02.01-.021.021-.051.03-.02.021-.02.02-.011v-.04l.072-.021.031-.02.03-.051.02-.032v-.02l.011-.01.02-.03.02-.041.031-.041v-.03l.01-.082-.01-.05v-.093l-.01-.092.03-.091.021-.061.03-.144.02-.02-.01-.03v-.03l.01-.031v-.02l-.02-.052.01-.04.01-.02.041-.052.011-.01.01-.051.01-.041.011-.02.02-.041.051-.061.01-.051.03-.04.011-.021v-.051l-.02-.041-.02-.031-.031-.03-.03-.02-.041-.041-.01-.031-.032-.05-.05-.021-.01-.03-.031-.021-.01-.02v-.041l-.01-.021.01-.02.02.03h.01l.071-.102.032-.03v-.02l-.032-.021.01-.02v-.01l.042-.021.01-.02v-.041l-.01-.01-.042-.01-.02-.02-.02-.041.01-.011.02-.01.042-.062.091-.05.051-.092.03-.02.062-.02.112-.092.03-.021.021-.02.03-.01.021-.021.122-.112.02-.01.072-.072.02-.02.103-.092h.01l.091-.082.051-.05.03-.072.021-.06.04-.041.021-.02.092-.073.051-.02h.041l.02-.01.02-.01h.041l.061-.102.01-.041.021-.02.05-.102.032-.03h.02l.01-.01v-.01l-.02-.012.01-.01h.02l.021-.01.01-.03-.01-.01.01-.031-.01-.02v-.021l.02-.01v-.061l.02-.02h.011l.04.02.041.02h.02l.021.02.102.051.031.01.051-.152v-.061l.01-.01.01-.042.02-.04v-.02l-.01-.021.02-.03-.01-.011.01-.01.011-.04.02-.011.092.02.04.01h.041l.051-.01.082-.05.062-.031v-.01l.01-.01-.01-.031v-.071l.02-.021.02-.041v-.01h.02l.01.01h.021l.03.01.031.02.02-.02h.041v-.02l.02.03.011.01.02.02v.012l.031-.021h.01l.02.01.011-.01h.01l.01.01h.02l.01-.01h.011v-.01l.01-.02.02-.113v-.01l.02-.03.021-.102.041-.061v-.032l.01-.03.01-.03v-.01h.02l.01-.01v-.031l-.01-.01.021-.01-.02-.062.02-.01-.02-.04.02-.031v-.061l.01-.021.032-.03.01-.011-.01-.01-.011-.02.01-.031.01-.04.01-.011.011-.03.02.02h.02v.01h.041v-.01H36l.02.02h.133l.03.03h.01l.031.01.042-.04.03-.04.051-.062.02-.01.072-.071.03-.02v-.01l.061-.083.082-.081.01-.01h.031l.04-.061.062-.051.04-.03.062-.062h.01l.01-.01.03-.031.093-.071.02-.03.03-.031.011-.01.061-.062h.02l.02.02v.041h.031v.01l.01.01-.02.021-.01.02.01.01v.021l.01.01h.01v.051l.01.01-.01.052v.03l-.02-.01v.03l.122.143.02.01.174-.01.234-.02.032-.01h.06l.062-.01h.02l.112-.01h.01l.123-.01.05.05h.021l.01-.01v-.03l.02-.01.01-.011.031-.01.041-.01.02-.03.031-.021v-.072l.01-.03.02-.021v-.02l.01-.031v-.02l.031-.133-.01-.04.01-.041v-.072h.01v-.01l-.01-.02.01-.072v-.06l.01-.072.011-.01.031.01.01.03.03.01.021.021v.061l.02.051v.03l-.03.072.102.082h.02l.05.02h.021l.01-.02.061.03.01.01v.041l.011.03h.041l.01.021.03.03.031.031h.061l.02.051.011.02.04.021.021.031.01-.01v-.02l.02-.01h.031l.01.02h.01l.02-.01h.012l.02.03.02.02h.02l.062.03.01.011.01.02-.081.173.01.03-.02.011v.02l.01.022-.01.01v.01l.03.04v.02l.02.021.02.03h.021l.01.011h.01l.02-.01.062.04.04.092.02.02v.01h.021v-.03h.02l.022.03v.021l-.011.04.02.103.011.01.092.072v-.02h.01l.06.02.011-.01v-.01h.02v.01h.051l.03-.021.062-.05.031-.042h.02l.01.01.041.01h.02l.021-.01h.01l.01.01.041.052.02.03.03.02v.02l-.01.092v.225l-.01.102.01.02.031.01h.081l.01-.01.022-.04.03-.02.031-.011.03.02.031.03.01.011v.01l.03.01h.01l.032.01h.04l.051.01.02.031.01.01.02-.02h.032l.04-.03h.031l.03.01.062.04.03.03h.01l.021.022.081.01v-.041l.01-.03.021-.011h.082l.04-.01h.092l-.02-.03.02-.021.01-.092-.02-.05.01-.01.01-.021h.031l.04-.01.031-.03.041.04.02.01.032-.01.02-.02.02.01.02-.02.031-.01.02-.021-.01-.031.02-.041.031-.03v-.01l.02-.021h.01l.021-.02v-.041l.01-.02-.02-.041.02-.04v-.021l.02-.03.031-.01.04-.021h.011v-.062l-.03-.04-.01-.021-.01-.01.01-.02.02-.041.061-.02-.01-.021v-.03l-.051-.01v-.021l.01-.03-.01-.041-.01-.01-.02-.011h-.052v-.02l.01-.031.02-.02.011-.051.03-.041.031-.02.041-.01.041-.01.02-.031.01-.072.01-.02v-.062l.021-.04.02-.01.031-.01h.051v-.021l.03-.01.031-.03.02-.042.03-.02.031-.01.02-.01v-.072l.012-.01h.05l.01-.01.031.01h.02l.031-.03h.03l.113.03.07-.01.012-.01.03-.01.01-.02.01-.01.01-.032-.01-.02v-.01l-.01-.01-.051-.092-.03-.092-.021-.081-.01-.103v-.01l-.01-.02-.01-.051v-.061l.01-.071.02-.072.02-.082.02-.01v-.02l.022-.03.02-.041.04-.051.133-.143.01-.01.01-.021.01-.01.01-.01.072-.072.04-.05.052-.062.03-.02.031-.01.072-.01.02-.01.02-.01h.02l.092-.052-.02-.051-.01-.04-.01-.082-.01-.092-.01-.112-.011-.04.01-.021.02-.02.01-.011.021-.03v-.092l.01-.061.01-.03.01-.031.031-.02.021-.031v-.042l.02-.02v-.04l.02-.031.031-.03.03-.072.011-.02.061-.061.061-.041.02-.03.041-.032.03-.06.01-.011.021-.05.021-.021.01-.01.02-.02.011-.011.02-.01.01-.051.041-.03.02-.062.01-.041-.01-.01h.01l-.01-.04-.01-.031v-.132l-.02-.031-.01-.04.01-.021.01-.041.03-.052.031-.03.03-.04.021-.052.03-.03h.01v-.051l-.01-.123-.02-.183-.03-.122-.01-.03-.02-.073-.01-.03-.011-.02v-.031l.02-.112.02-.071.021-.02.02-.02h.061l.041-.021.021-.011.051-.04.02-.011h.031l.061.02h.04l.01-.01.011-.02.04-.02h.092l.032-.01.02-.01.02-.042.051-.07.01-.031.01-.041v-.051h.01l.01-.03.021-.032.02-.01.01-.01.01-.01.011-.02v-.071l.02-.021.02-.01.011-.01.04.01.083.02.04.01.072.02.03.01.03.021h.031l.01-.01.041-.03.092-.062.051-.05h.03l.042.01h.02l.02-.02.01-.01.02-.021.011-.051.01-.01.051-.042.01-.03v-.112l.01-.03.02-.031.021-.01.02-.01h.02l.022-.01h.03l.041.01.01.01.041-.01.02-.01.03-.041.031-.062v-.01l-.01-.051-.03-.072-.01-.02-.02-.03v-.02l.01-.031.02-.051.01-.03v-.01l-.01-.011-.02-.03v-.052l.02-.03h.02l.05-.062.042-.03.04-.061.01-.02.02-.031.022-.04.05-.073.011-.02v-.04l-.02-.032.01-.04.02-.03.02-.031v-.04l-.01-.031.01-.02.01-.011v-.03l-.01-.02v-.011l-.01-.031-.02-.01v-.041l.02-.051-.01-.02.01-.02.01-.041.01-.02h-.01l.01-.021v-.03l.041-.031v-.113l-.01-.02v-.051l.01-.071-.01-.051.01-.04v-.052l-.01-.01-.02-.01h-.102l-.021-.01v-.051l-.01-.021.031-.02v-.01h.03l.021-.021.071-.04.051-.011.04-.03.011-.031.03-.03.051-.031.052-.04.01-.021h.02l.031-.01h.04l.052-.052.081-.05.01-.011h.04l.031-.01h.072l.041-.02.04.01h.052v-.01h.04l.01-.01.041-.01.04.01.011-.01h.01l.03-.011.031-.03.011-.01.01-.01.03.01.021-.01.02-.031.01-.03.021-.021v-.041l.01-.02.02-.021.01-.031-.01-.01-.01-.02v-.031l-.01-.02.01-.01.01-.02v-.011l-.02-.03.01-.01v-.021l.02-.02.021-.01.01-.01-.02-.062.01-.03.01-.01.01-.022v-.04l.01-.051v-.03l.01-.021.021-.03.03-.021.021-.05.03-.042-.01-.01v-.01l-.01-.04-.03-.022-.03-.02-.021-.02h-.03l-.041-.02-.02-.01-.01-.011-.011-.051-.01-.01-.01-.01.01-.01-.01-.031v-.05l.01-.011.02-.02.051-.03.02-.011.03-.062.021-.05.01-.031v-.03l-.01-.011-.03-.02-.02-.01-.021-.051-.01-.02v-.031l.01-.03.081-.083.031-.061.03-.03.051-.082.01-.02h.011l.02-.01.021-.01h.02l.062.01.03-.01.061-.031.051-.01h.04l.021-.01.02-.061.021-.041.01-.021.031-.01.04-.031.021-.01.01-.04v-.072l-.01-.03.01-.021.03-.04.042-.041.01-.02.02-.031.03-.042.021-.06v-.062l-.01-.071v-.04l.01-.041.04-.051v-.062l-.01-.061v-.061l.02-.03v-.021l.021-.03.03-.021.032-.04.01-.051-.01-.042-.01-.03-.021-.02-.02-.062v-.06l-.02-.052v-.04l.01-.031.02-.102.02-.062h.01l.011-.01.03-.02.051-.04.02-.031h.011l.01-.02.02-.041.01-.03.01-.063.021-.091.01-.03.03-.031.031-.061v-.01l.02-.01v-.021l.011-.02.03-.03h.01l.022-.011.02-.03.03-.052.021-.061.02-.03.01-.041v-.092l.01-.051.01-.082h.011l.03-.03.01-.01v.008l.062-.009.05-.02.072-.051h.021l.02-.01.01.01.02-.01.011-.01.02-.01v-.051l.01-.02h.01l.021-.021.01-.02v-.02l.01-.021.041-.051.02-.01.01-.011.021-.02h.02l.01-.02.01-.021.021-.04.03-.021.031-.01v-.02l-.01-.031v-.03l.01-.011.021-.01.04-.03.031-.031v-.01l.01-.01v-.031l.01-.01.021-.011v-.061l.01-.03.041-.041.01-.01.03-.031.031-.04.01-.031.02-.092.01-.02.021-.01.01-.011.02-.01.021.01.062.041h.04l.031.01.061.01.02.01.031.031.02.03.031.031.04.02.031.01h.062l.03-.01.01-.01.052-.01.091-.04.04-.01.011-.01.03-.021.041-.051.032-.031.03-.051.02-.02.072-.041.081-.051.061-.02.04-.031.052-.02.061-.01.03-.01.031-.01.051-.032.072-.02.02-.01h.01l.03-.03.031-.052.01-.061.01-.02h.01l.042-.02.071-.011h.051l.03-.01.062-.03.143-.062.03-.01.072-.02.03-.01.04-.031.031-.02.01-.042-.01-.05.01-.072.021-.081-.01-.01v-.031l-.01-.04v-.031l-.02-.02-.01-.022-.021-.02-.03-.01-.021-.03-.01-.01-.041-.031-.071-.03-.032-.032-.02-.04-.01-.01v-.03l.01-.011.04-.02.022-.03.03-.021.031-.01.01-.02.01-.011.02-.031.01-.02-.01-.051v-.041l.01-.04-.01-.042v-.03l.021-.04h-.01l-.01-.021v-.03l.05-.052.01-.03.01.01.011-.021.01-.02h.02l.01-.01v-.01l-.01-.021-.01-.03v-.01l.031-.052.01-.01.02-.02.01-.01-.01-.02-.03-.021v-.02l-.03-.051-.02-.042-.011-.02-.02-.03v-.031l.01-.02v-.02l.03-.041.041-.01.01-.01v-.021l-.03-.04v-.041l.01-.01.03-.042.01-.03v-.041l.01-.02.062-.052.01-.02-.01-.03-.01-.031-.041-.01.01-.02-.02-.031-.03.02-.021-.01v.02h-.01v-.01l-.02.01-.01.01v.01h-.031l-.01-.02h-.01l-.041-.01v-.01l.02-.01-.02-.04-.02-.021v-.02l-.031-.011h-.041l-.01-.01-.052-.01-.02-.01.01-.021.02-.01v-.01l.01-.031h-.01l-.02.02-.01-.03-.01-.02.01-.031v-.01l-.01-.01-.02-.02h-.031l-.01-.021h-.041l-.01-.01.01-.02v-.01l-.01-.011v-.01h.04v-.01l-.02-.031-.04-.01-.021-.01-.02-.021-.02-.01v-.031l-.021.01-.01.01-.02-.03-.01-.01h-.031l-.011.01-.01.02h-.01l-.01-.04-.021-.01h-.04l-.021.01-.04-.01h-.011l-.071.02h-.02l-.031-.02h-.03l-.021.01-.02-.01-.052-.031-.02.01-.03.02-.021.02h-.02v-.01l-.02-.03H50.6l-.01.01.02.03-.02.02-.02-.05-.01-.01h-.051l-.041.01h-.01l-.062.01-.02.01-.01-.01-.011-.03-.01-.01-.02-.01-.031-.021-.04-.061h-.01l-.042-.01v-.01l.02-.02-.01-.021v-.01h.041v-.02l.02.01.01-.01-.01-.01v-.011l.01-.01.011-.01-.02-.01h-.01v-.01l-.031.01-.01-.01v-.042l-.01-.03.01-.021.03-.02.01-.051.031-.01-.02-.031.01-.01-.01-.01-.01-.01-.02-.031-.021-.081v-.052l-.02-.092v-.03l-.01-.051-.031-.184-.01-.03v-.02l-.01-.01v-.042l-.01-.03-.011-.061-.01-.04-.03-.185-.01-.06-.011-.062-.01-.071v-.01l-.01-.03-.01-.021v-.051l-.042-.174v-.071l-.01-.05-.01-.011-.01-.05-.01-.053v-.04zM35.459 72.368l-.01-.021.01-.01z" clip-rule="evenodd"/></g><defs><filter id="a" width="284" height="98.809" x="0" y="25.527" color-interpolation-filters="sRGB" filterUnits="userSpaceOnUse"><feFlood flood-opacity="0" result="BackgroundImageFix"/><feColorMatrix in="SourceAlpha" result="hardAlpha" values="0 0 0 0 0 0 0 0 0 0 0 0 0 0 0 0 0 0 127 0"/><feOffset dx="5" dy="5"/><feGaussianBlur stdDeviation="5"/><feComposite in2="hardAlpha" operator="out"/><feColorMatrix values="0 0 0 0 0 0 0 0 0 0 0 0 0 0 0 0 0 0 0.3 0"/><feBlend in2="BackgroundImageFix" result="effect1_dropShadow_267_600"/><feBlend in="SourceGraphic" in2="effect1_dropShadow_267_600" result="shape"/></filter></defs></svg>