<svg xmlns="http://www.w3.org/2000/svg" width="343" height="45" fill="none" viewBox="0 0 343 45"><path fill="#fff" fill-rule="evenodd" d="M299.083 2.004c8.557 3.66 19.73 8.127 30.413 12.061 6.228 2.323 11.866 4.556 12.461 4.914 1.531.896 1.382 1.92-.495 3.572-1.383 1.203-4.004 2.054-21.113 6.699-16.663 4.511-20.027 5.272-22.995 5.317-3.216 0-3.464-.09-4.152-1.204-.694-1.074-.694-1.338.049-2.68.446-.806 2.473-3.263 4.499-5.497 2.076-2.188 3.706-4.018 3.662-4.063-.049-.045-2.869-.179-6.277-.358l-6.184-.269-.843 1.294c-3.017 4.824-12.164 4.242-14.934-.985l-.793-1.562-6.773-.358c-14.339-.806-133.662 0-148.596 1.03l-3.265.223-.347 1.607c-.496 2.68-2.373 4.78-5.292 6.028-5.639 2.457-11.08 1.875-14.884-1.607l-2.076-1.875-2.373 2.323c-3.855 3.705-12.462 8.709-17.952 10.405-4.747 1.472-9.89.94-10.782-1.12-.842-2.053-.297-3.391 2.324-5.759l2.62-2.367-4.498-.269c-6.035-.313-9.989-1.696-11.321-3.929-.843-1.383-.843-1.696-.248-2.86.941-1.74 3.513-3.262 7.02-4.108l2.82-.716-3.414-1.293c-9.94-3.75-12.61-10.808-4.945-13.086C54.11.398 62.464.796 68.4 2.362c5.688 1.518 18.79 7.328 21.162 9.426 1.729 1.517 1.828 1.517 2.324.67 1.04-1.695 4.003-3.128 6.624-3.128 4.45 0 7.963 1.204 10.881 3.75 1.482 1.249 2.72 2.502 2.82 2.816.148.358 1.239.403 4.152.09 2.175-.225 20.324-.583 40.302-.851 19.978-.224 43.123-.627 51.427-.896 8.948-.313 25.468-.447 40.6-.358l25.518.224.495-1.248c.892-2.054 3.365-3.173 6.674-2.95 3.265.18 5.738 1.607 6.971 4.02.942 1.785 2.175 2.098 8.211 2.098 2.819 0 3.563-.134 3.364-.582-.148-.358-2.076-3.083-4.251-6.073-2.224-3.039-4.003-5.938-4.003-6.52 0-1.12 1.63-2.457 2.968-2.457.396.045 2.423.76 4.449 1.606zM51.44 5.133c-2.77.671-.198 3.352 5.589 5.804 1.878.806 6.327 2.188 9.89 3.084 8.458 2.143 8.656 2.233 8.656 3.526 0 .627-.248 1.248-.495 1.383-.298.134-3.756.358-7.814.402-7.17.135-12.214.94-13.844 2.144-1.927 1.472 6.327 2.726 13.745 2.1 3.805-.314 7.962-1.03 11.965-2.01.447-.134 1.283.179 1.829.671 1.48 1.338.842 2.547-1.878 3.437-4.4 1.383-9.196 3.705-11.916 5.76-3.613 2.68-3.712 3.083-.744 2.815 4.648-.493 18.497-8.172 18.15-10.097-.1-.403-.248-3.084-.347-5.894l-.198-5.138-3.613-1.65c-4.994-2.324-13.155-5.183-16.86-5.895-3.217-.671-10.188-.895-12.115-.447zm250.859 5.317c3.414 4.555 4.697 7.057 4.697 9.335 0 1.965-.942 3.348-5.689 8.62-.743.805-1.139 1.472-.941 1.472s5.936-1.473 12.759-3.308c12.263-3.307 15.726-4.197 20.077-5.227l2.224-.492-4.498-1.473c-6.184-2.009-17.853-6.52-24.824-9.604-3.167-1.383-5.837-2.502-5.936-2.457-.1.09.892 1.472 2.125 3.129zM96.836 14.2c-2.522 1.651-2.72 6.61-.347 8.888 2.175 2.099 6.327 2.367 9.642.537s3.068-4.69-.842-8.62l-2.225-2.188-2.472.269c-1.382.179-3.067.671-3.756 1.114m-93.018.801c.595.672 2.87 3.705 4.995 6.7 4.845 6.7 7.665 9.246 13.204 11.927 5.094 2.457 7.27 4.018 6.873 4.958-.595 1.473-7.418 0-12.511-2.725C9.903 32.469-.433 19.557.013 15.449c.198-2.01 2.274-2.233 3.805-.448m2.277 20.367c1.58 1.338 4.499 3.218 6.823 4.287 5.936 2.815 7.268 3.616 7.268 4.377 0 .582-.594.672-3.71.493-2.969-.18-4.45-.538-7.369-1.876-5.54-2.457-9.84-7.191-8.16-9.022 1.04-1.119 2.422-.671 5.143 1.741z" clip-rule="evenodd"/></svg>