<svg xmlns="http://www.w3.org/2000/svg" width="168" height="59" fill="none" viewBox="0 0 168 59"><path fill="#9ab0a6" fill-rule="evenodd" d="M43.59.543c-5.68 1.025-11.55 3.01-16.3 5.558-2.888 1.55-7.08 4.47-8.509 5.929l-1.21 1.242-1.396-.993c-1.306-.93-1.523-.993-4.067-.961-2.203.032-3.354.28-6.704 1.337C1.397 13.929.128 14.704.468 15.637c.122.25 1.768 1.242 3.726 2.172 5.838 2.824 8.353 5.897 9.283 11.332.621 3.79 1.491 6.922 2.484 9.16 2.112 4.815 7.515 10.34 12.638 12.915 2.266 1.147 3.54 1.179 4.034.123.309-.653.218-1.179-.498-3.2-.716-1.958-.902-3.042-1.025-6.115-.063-2.049-.031-4.782.123-6.056l.25-2.33 2.637-.217c5.839-.499 9.968-2.203 13.413-5.526 1.709-1.645 2.112-2.203 2.112-2.982 0-.558-.185-1.147-.435-1.337-.217-.186-1.582-.499-3.01-.684-2.389-.281-7.946-1.959-9.967-2.983-.499-.217-.87-.59-.87-.807 0-1.12 3.413-5.249 8.476-10.308 3.073-3.073 5.775-5.897 5.992-6.3.526-1.025.218-1.832-.87-2.204-1.21-.435-1.582-.403-5.371.25zm3.386 2.453C40.113 8.893 33.935 15.85 33.19 18.552c-.309 1.18.217 2.421 1.337 3.105 1.614.962 7.389 2.793 10.09 3.2 1.396.186 2.547.467 2.547.59s-.715.807-1.613 1.49c-3.196 2.548-6.831 3.758-12.76 4.225-2.33.186-2.793.309-3.169.902-.62.902-1.21 7.484-.993 10.897.095 1.523.404 3.477.653 4.347.25.839.403 1.583.34 1.677-.25.25-3.508-2.08-5.557-4.034-5-4.687-6.863-8.382-8.54-16.921-.34-1.74-.902-3.695-1.242-4.347-1.396-2.765-4.719-5.898-7.701-7.357-.744-.372-1.337-.744-1.337-.87 0-.31 4.687-1.615 6.459-1.769 1.305-.122 2.017 0 3.196.558.839.403 1.523.902 1.523 1.147 0 .218.095.403.186.403.122 0 1.55-.96 3.2-2.143 7.76-5.558 13.01-8.196 20.212-10.186 3.445-.93 7.171-1.613 7.575-1.396.154.095-.123.498-.621.93zm86.002 11.178c-2.606.902-5.031 2.547-7.234 4.936-3.414 3.631-4.873 7.389-4.656 11.985l.123 2.361-2.484.621c-5.435 1.337-9.252 1.74-17.234 1.74-9.904-.03-11.644-.28-27.446-4.224-5.467-1.337-9.968-2.389-10.028-2.33-.063.064.404.558 1.057 1.12 2.95 2.607 12.483 5.898 22.6 7.824 3.323.62 4.656.716 12.421.716 9.438 0 12.792-.404 18.879-2.144 1.491-.467 2.765-.807 2.824-.807.06 0 .526.744 1.056 1.614 2.67 4.75 8.568 7.919 16.02 8.599 1.863.186 3.663.28 4.034.186.341-.063 1.583-.186 2.702-.309l2.081-.154.186 1.396c.122.744.684 2.33 1.273 3.477 2.951 5.87 10.245 9.22 17.171 7.887 2.67-.526 2.298-.807-2.172-1.768-7.733-1.614-10.743-3.508-12.823-8.041-.404-.87-.776-2.017-.839-2.607-.095-1.024-.032-1.056 1.523-1.614 4.533-1.55 8.227-4.378 8.662-6.645.218-1.305-.526-2.792-1.74-3.413-1.179-.621-3.817-.59-5.059.031-2.67 1.365-5.059 4.284-5.775 7.08l-.34 1.365-2.081.25c-2.792.28-8.195-.064-10.493-.685-4.316-1.147-8.414-3.975-9.624-6.613-.308-.716-.498-1.306-.435-1.365l2.298-1.147c5.308-2.638 9.968-6.396 12.234-9.936 1.523-2.33 2.017-3.975 1.8-5.992-.309-3.355-4.13-4.874-8.477-3.386zm5.807 2.515c.589.467.744.87.716 1.958-.063 2.793-2.733 6.428-6.704 9.161-2.702 1.863-7.919 4.533-8.323 4.284-.403-.25-.371-3.042.032-4.814.403-1.8 1.582-4.066 2.951-5.743 3.322-4.066 9.188-6.582 11.332-4.846zm18.879 20.18c1.179.745-1.614 3.292-5.154 4.657-1.21.466-1.645.526-1.645.249 0-.526 1.614-3.042 2.361-3.663 1.551-1.337 3.477-1.863 4.438-1.242" clip-rule="evenodd"/></svg>