<svg xmlns="http://www.w3.org/2000/svg" width="107" height="158" fill="none" viewBox="0 0 107 158"><path fill="#8ab4f8" fill-rule="evenodd" d="M94.998.766c-.65.283-1.327.194-1.612-.211-.45-.644-.375 1.856.08 2.654.092.161.09.421-.004.601-.32.612-.21 1.628.204 1.874.37.22.371.234.033.497-.267.207-.312.321-.192.492.086.122.125.398.087.612-.059.332-.027.366.216.227.588-.335.557.19-.04.66-.718.564-.81.975-.293 1.283.29.173.356.312.253.537-.159.345-.22.32 1.986.78 2.338.486 2.68.672 2.091 1.13-.458.354-.132 1.407.513 1.658.53.206.636.74.215 1.068-.358.277-.604 1.412-.377 1.736.12.17.086.278-.146.463-.195.156-.431.734-.669 1.644l-.367 1.404.866.032.865.032-.664.465c-.528.368-.719.634-.927 1.293-.338 1.063-.555 1.328-1.243 1.511a9 9 0 0 0-1.1.385 7 7 0 0 1-.936.33c-.218.054-1.251.444-2.295.868-1.831.743-1.915.76-2.403.48-.277-.159-.573-.26-.657-.228-.084.034-.269-.058-.408-.204-.267-.276-.853-.32-.898-.069-.014.08-.371.409-.793.73-.422.322-.787.694-.81.828s-.168.315-.32.402c-.153.086-.296.262-.319.39-.048.27.541.248 1.016-.04.162-.097.409-.156.549-.131s.291-.014.335-.086c.158-.264.845-.243.798.025-.025.138-.151.233-.281.21s-.339.09-.465.25-.338.272-.47.248a.39.39 0 0 0-.369.17c-.07.116-.313.225-.542.24-.228.017-.384.108-.346.203.108.271.806.33.956.08.151-.25.806-.203.76.055-.015.09-.222.202-.458.247s-.443.154-.459.244c-.015.088-.218.175-.448.191-.232.017-.431.09-.444.163-.013.072-.428.302-.92.51-.495.21-.91.44-.922.514-.013.073-.115.119-.225.1-.433-.07-.726.162-.563.448.123.214.101.278-.109.32-.323.062-.46.688-.16.74.119.022.403-.073.63-.21.23-.136.512-.19.63-.12q.457.275-.225.485c-.596.184-1.02.367-2.022.877-1.658.843-1.72.889-1.806 1.328-.046.236-.173.467-.282.51-.12.047-.21.335-.226.716-.015.35-.092.625-.173.611s-.164.083-.188.216c-.023.132-.001.248.05.257.05.009.219-.073.375-.183a1.02 1.02 0 0 1 .659-.133c.205.036.434-.035.509-.159.075-.123.278-.2.453-.169.174.03.369-.002.432-.073.164-.184 1.49-.584 1.77-.535.35.062.239.334-.156.387-.187.025-.353.117-.368.204s-.259.195-.541.242c-.282.045-.53.179-.55.297-.022.117-.206.209-.41.201-.204-.006-.371.061-.37.15 0 .294.264.312.704.049.238-.143.567-.236.73-.207.165.029.31-.015.324-.097s.478-.272 1.03-.422 1.05-.323 1.11-.386c.058-.063.3-.16.536-.217s.672-.207.969-.333a16 16 0 0 1 1.154-.425c.645-.204 6.249-2.297 7.079-2.643.265-.11.7-.278.968-.373s.5-.243.515-.329.209-.125.43-.086c.407.071.577-.124.313-.359-.08-.07-.132-.196-.117-.279.036-.202.633-.089.723.137.09.224.527.31.562.11.015-.083-.118-.226-.294-.318-.436-.227-.087-.43 3.215-1.881.579-.254.875-.488.917-.722.033-.19.206-.534.383-.764.354-.458.625-1.607.389-1.649-.08-.014-.54.092-1.02.236-.48.143-.995.239-1.144.213-.363-.064-.153-.425.251-.432.175-.002.436-.124.583-.27s.334-.253.417-.238c.084.014.312-.085.507-.222.196-.136.463-.272.594-.3.187-.042.184-.1-.013-.28-.335-.305-.272-.546.125-.477.178.032.31.13.294.217-.015.089.081.18.213.204.133.023.255-.03.27-.119.016-.088-.072-.178-.196-.2-.123-.021-.246-.155-.274-.296-.064-.328-.282-.366-.643-.113-.157.109-.39.18-.518.157s-.342.052-.476.165-.418.176-.631.138-.45.033-.524.157c-.135.225-1.092.171-1.04-.058.015-.066.387-.268.827-.449.911-.374 1.013-.546.466-.79-.363-.161-.504-.487-.187-.432.08.014.564-.199 1.075-.474s.987-.49 1.059-.477c.071.012.27-.083.442-.212.172-.13.523-.333.78-.451.538-.247.706-.78.319-1.008-.956-.564-.949-1.665.013-2.048.179-.071.173-.128-.026-.247-.29-.174-.268-.625.04-.841.359-.25-.448-.962-1.249-1.103-.682-.12-.917-.468-.443-.657.242-.096.701-2.763.592-3.435-.088-.545-.604-.941-1.012-.779-.112.044-.05-.12.137-.364.187-.245.417-.476.51-.513.234-.093.021-.946-.411-1.644-.355-.573-1.146-.902-1.424-.59-.07.078-.249.113-.397.076-.243-.06-.242-.068.008-.09.269-.023.651-.722.542-.994-.09-.227-.9-.287-1.276-.096-.746.382-1.468-.136-.756-.542.373-.212.216-1.132-.206-1.206-.168-.03-.293-.126-.277-.214a.164.164 0 0 1 .19-.133c.213.038.312-.558.12-.73-.103-.09-.08-.191.072-.32.121-.104.187-.275.145-.38-.112-.28-.967.333-1.044.749-.077.411-.926.508-1.063.12-.047-.13-.32-.363-.607-.517-.453-.243-.496-.322-.323-.607 1.08-1.783.936-2.43-.411-1.844m6.832 21.417c-.07.078.026.17.213.202.188.033.309-.02.27-.118s-.135-.189-.213-.203-.199.04-.27.119m-.921.28c-.119.024-.228.116-.244.203-.04.226.669.217.792-.01.102-.19-.147-.279-.548-.194m-1.452.463c-.016.088-.178.135-.36.103s-.274-.123-.203-.202c.07-.079.232-.125.36-.102.127.022.218.113.203.2m-.768 1.522c-.015.089-.173.136-.35.105s-.31-.13-.293-.218c.015-.088.173-.135.35-.104.177.03.309.129.293.217m-9.993 2.057c-.016.089-.228.125-.472.08-.344-.062-.383-.104-.173-.193.352-.148.68-.09.645.113m11.519 4.327c-.014.08-.239.188-.5.242-.26.054-.954.277-1.54.497a34 34 0 0 1-1.593.555c-.289.086-.768.26-1.064.385-.6.256-1.27.437-1.479.4a.23.23 0 0 0-.214.1c-.072.114-5.272 2.086-5.43 2.059-.038-.007-.834.282-1.767.642-.934.36-2.03.77-2.435.91s-1.75.632-2.986 1.092-2.328.822-2.426.805c-.097-.017-.189.037-.204.119s-.187.171-.382.197c-.196.027-.717.208-1.157.404-.771.343-.813.344-1.162.016-.577-.542-.869-.377-.892.502-.014.553-.104.834-.35 1.094-.18.193-.348.456-.371.586-.055.306.554.63.756.403.083-.093.356-.103.605-.022l.454.15-.55.127c-.303.071-.658.285-.79.477-.274.399-.42 1.022-.224.963 1.522-.458 2.55-.788 3.124-1.001.811-.302 2.135-.693 2.268-.67.208.037.007.353-.258.404-.157.03-.443.165-.633.298s-.447.224-.57.203c-.124-.022-.286.061-.36.185-.075.123-.215.21-.311.194-.097-.017-.553.164-1.014.402s-.9.422-.974.409c-.373-.065-2.156 1.055-2.216 1.392-.07.391.397.59.817.349.462-.267 1.592-.713 1.74-.687a.155.155 0 0 0 .18-.121c.015-.081.246-.157.514-.168s.547-.118.618-.237c.072-.118.28-.189.462-.157.183.032.391-.04.464-.16.073-.121.294-.241.491-.268a1.7 1.7 0 0 0 .618-.229.86.86 0 0 1 .553-.13c.161.029.354-.05.429-.173a.42.42 0 0 1 .396-.179c.144.025.471-.066.728-.203.257-.138.566-.233.686-.212.122.021.233-.032.248-.119.015-.086.217-.17.448-.187.232-.017.431-.088.444-.158.012-.07.235-.172.496-.225.635-.132 2.35-.741 2.716-.966.162-.1.37-.167.463-.15.093.016.273-.06.402-.168.128-.109.453-.206.722-.218.27-.011.503-.087.517-.169.015-.08.13-.129.256-.107.127.022.344-.039.482-.136.236-.165.705-.343 1.747-.663.242-.074.486-.179.543-.234.057-.054.297-.145.533-.201s.995-.336 1.684-.622c.69-.285 1.338-.506 1.44-.49.1.014.245-.074.32-.198.074-.123.32-.192.548-.152.227.04.473-.029.548-.152.074-.124.226-.21.338-.19.11.02.412-.076.668-.214.257-.137.583-.229.723-.204.142.024.268-.02.283-.1s.256-.183.538-.228.526-.16.543-.253.171-.144.345-.114c.362.064 1.26-.51 1.319-.843.083-.468-.298-.47-1.704-.006-2.49.82-2.684.888-2.782.964-.43.327-2.98.88-2.936.637.016-.088.12-.144.234-.125.113.02.356-.086.538-.237.183-.15.438-.254.566-.232.128.023.512-.136.853-.354.341-.216.79-.406.998-.422.209-.016.39-.088.402-.16.02-.114 1.193-.61 2.404-1.016.838-.281 1.107-.615.822-1.02-.228-.325-.291-.343-.652-.186-.292.127-.44.118-.547-.034-.107-.153-.022-.241.315-.328.254-.066.472-.178.485-.25.012-.07.211-.192.442-.268l.42-.139-.279-.67c-.253-.61-.874-1.03-.944-.637m-16.03-2.301c-.015.088.113.185.285.215s.37-.01.44-.088c.073-.082-.05-.175-.284-.216-.226-.04-.424 0-.44.089m15.414 4.84c-.033.186-.682.238-.753.06a.195.195 0 0 1 .067-.22c.182-.128.715-.002.686.16m1.431 3.17c-.024.134-.142.225-.264.203-.354-.062-1.825.343-1.855.511-.015.084-.16.13-.324.1-.163-.028-.49.064-.726.205-.235.141-.562.233-.725.204-.164-.029-.31.017-.325.102s-.402.262-.858.393c-.457.13-1.195.395-1.64.586-.791.34-1.49.587-3.39 1.197-.519.167-1.076.386-1.238.487s-.452.156-.644.122c-.193-.033-.367.04-.39.163-.02.123-.228.237-.46.254-.23.016-.432.095-.446.174-.014.08-.251.155-.527.166s-.513.081-.525.154-.255.17-.537.216-.525.151-.54.234c-.014.084-.215.166-.446.182-.232.017-.433.101-.449.188-.015.087-.127.14-.248.12-.12-.022-.43.073-.686.21s-.618.223-.803.19c-.185-.032-.35.015-.366.106-.016.09-.244.216-.506.28-.263.064-.522.158-.576.208-.124.113-1.855.733-2.603.932-.305.08-.613.212-.684.292s-.263.122-.425.094c-.163-.029-.357.05-.431.173a.41.41 0 0 1-.389.18c-.221-.039-1.24.351-1.512.58-.11.09-.933.37-1.575.533-.232.059-.517.193-.634.297-.75.67-2.04.66-1.92-.013l.067-.383-1.014.335c-1.132.374-1.755.76-1.537.954.078.07.112.298.075.507s.018.428.122.485c.103.057.028.047-.167-.022-.318-.111-.34-.088-.214.226.108.265.082.43-.107.69a5 5 0 0 0-.415.682c-.091.19-.233.332-.316.318s-.189.19-.236.455c-.072.408-.022.493.318.553.458.08.491.408.045.45-.337.03-.856.482-1.109.965-.262.502.233.593 1.298.24.501-.168.941-.23.977-.141s-.085.176-.27.191c-.184.015-.355.142-.38.28-.024.14-.234.267-.465.284s-.432.094-.446.173c-.043.243.62.272.764.034.075-.124.24-.207.369-.184.128.022 1.178-.315 2.336-.75s2.157-.782 2.22-.77c.065.01.478-.14.919-.337.44-.196.827-.351.86-.346.086.015 2.644-.91 2.755-.998.14-.108.742-.345 1.25-.493.24-.07.555-.237.698-.373s.401-.222.573-.192c.177.03.333-.054.358-.195.025-.138.11-.193.19-.122.079.07.31.106.51.08l.367-.05-.335-.359-.336-.36.453-.086c.249-.048.489-.141.533-.207.044-.067.425-.276.847-.465.896-.403.977-.609.454-1.162l-.384-.407.556-.328c.306-.18.731-.367.946-.416q.388-.089.46-.494c.076-.425.688-.96 1.032-.9.11.019.385-.16.61-.398.525-.556 1.396-.907 1.992-.802.258.045.629.01.824-.078.622-.28 1.517-.36 1.664-.15.074.105.323.224.555.265.274.048.509.251.675.583.262.526 2.836 1.206 3.501.925.126-.053.46-.037.74.037.282.073.671.08.865.015 1.6-.535 2.015-.63 2.167-.494.129.114.094.184-.13.262-.168.058-.3.228-.294.377.009.24.061.254.452.118 1.724-.602 2.711-.6 1.998.004-.212.179-.199.22.082.27.183.032.39-.007.461-.085.24-.269.6-.062.687.396.066.347.14.42.307.303.318-.222.816-.095 1.111.285.174.224.301.278.398.17.398-.44 1.641-.642 1.902-.307.139.178.303.266.366.196.273-.306-.891-1.19-1.77-1.345-.458-.08-.538-.139-.361-.262.399-.28.346-.615-.096-.609-.292.005-.41-.079-.428-.303-.014-.17-.135-.366-.268-.436-.795-.414-.762-.368-.448-.622.37-.298.318-.584-.242-1.337-.29-.387-.423-.752-.375-1.026.072-.405.043-.427-.622-.468-.384-.024-.571-.06-.415-.08.435-.057.576-.438.254-.69a.67.67 0 0 1-.221-.588c.048-.27-.072-.442-.464-.666-.454-.26-.504-.355-.36-.677.092-.206.124-.382.07-.39-.054-.01-.118.09-.141.223m-21.37.424c-.163.013-.27.09-.238.172.075.185.724.143.758-.049.026-.149-.033-.162-.52-.123m1.008 4.868c-.348.147-.52.117-.484-.085.016-.088.192-.13.39-.094.294.053.311.088.094.18m-3.936-.277c-.024.135-.186.216-.365.185-.356-.063-.392-.325-.054-.397.375-.08.463-.035.419.212m6.454 6.685c-.016.088.08.18.213.203.132.023.254-.03.27-.118.015-.089-.08-.18-.213-.204s-.255.03-.27.119m1.804 1.062c-.024.135-.187.216-.37.184-.18-.032-.388.044-.463.167-.074.124-.292.197-.484.164-.193-.034-.5.061-.683.211s-.478.247-.656.216c-.354-.062-.519.33-.217.513.103.063-.077.028-.398-.077-.45-.147-.62-.135-.733.052a.44.44 0 0 1-.416.197c-.148-.026-.419.075-.602.226-.183.15-.478.247-.656.216-.18-.032-.343.05-.367.184-.026.15-.194.215-.45.17-.224-.04-.468.03-.543.153-.074.124-.226.209-.337.19-.112-.02-.413.076-.67.213-.256.138-.581.23-.722.205s-.268.02-.282.1-.24.19-.5.247c-.6.13-1.452.441-1.783.653-.14.089-.357.144-.483.122-.127-.023-.243.03-.258.117s-.213.171-.436.187a1.6 1.6 0 0 0-.741.288c-.183.142-.472.233-.64.203-.246-.043-.299.023-.258.327.042.319.019.343-.148.147-.238-.28-.865-.26-1.043.034-.07.116-.265.186-.436.156s-.37.047-.445.17-.272.201-.438.172-.459.069-.65.217c-.192.15-.474.249-.628.222s-.341.052-.416.176c-.079.13-.338.189-.623.139-.286-.05-.503-.002-.524.116-.035.2-.245.292-1.396.617-.313.088-.582.236-.598.329-.018.102-.46.09-1.116-.028-2.342-.424-2.119-.457-2.26.336-.067.386-.204.734-.302.773s-.214.27-.256.511c-.043.243-.18.513-.306.6-.343.24.136.285.513.049.215-.134.359-.13.508.019.16.159.158.217-.01.253-.12.026-.36.145-.532.266a3.5 3.5 0 0 1-.613.333c-1.546.589-1.73.749-1.993 1.723-.17.629.56 1.083.958.596.222-.272.89-.204.74.075-.055.104-.263.184-.46.179-.226-.006-.38.105-.414.3-.04.224-.167.29-.457.24-.222-.04-.416.001-.431.09-.016.088.152.192.374.231.221.039.414.006.428-.072.014-.08.229-.158.477-.176s.557-.133.686-.256a.4.4 0 0 1 .492-.069c.343.206-.71.98-1.214.892-.184-.033-.352.043-.374.17-.023.125-.267.237-.543.248-.586.025-.699.246-.21.408.398.132.525.56.146.493-.141-.025-.406.078-.59.228-.182.15-.408.26-.502.243-.093-.016-.32.093-.503.243-.182.15-.442.254-.575.23a.247.247 0 0 0-.286.199c-.024.132-.134.226-.244.208-.452-.073-.727.16-.55.468.106.187.103.28-.011.26-.223-.04-.818.727-.893 1.15-.078.442.174.619.529.37.163-.113.4-.188.526-.166.127.022.243-.032.258-.12.016-.089.227-.122.47-.073.404.08.41.094.077.165-.2.043-.429.184-.507.315-.079.13-.327.205-.55.166-.255-.045-.424.018-.451.17-.023.132-.097.23-.163.219-.067-.011-.364.123-.66.299-.297.175-.625.304-.728.286-.163-.029-.827 1.005-.732 1.14.069.097 1.23-.15 1.665-.355.246-.116.576-.189.734-.16.157.027.299-.021.314-.107.039-.218 1.47-.57 1.646-.405.08.074-.014.13-.21.123-.195-.006-.416.123-.492.287-.089.194-.276.274-.536.228-.263-.046-.446.034-.54.236a.435.435 0 0 1-.477.248c-.186-.033-.496.043-.69.169-.575.371-1.19.661-1.347.633-.08-.014-.132.164-.115.395.034.474-.026.494-.423.137-.423-.38-.883-.033-.495.374.364.381.107.525-.363.202-.208-.143-.447-.27-.532-.286-.247-.043-.253.408-.007.556.124.074.207.237.185.361-.022.125.053.335.166.469s.17.45.124.705c-.089.503.071.623.428.32.125-.106.414-.206.641-.223.227-.016.425-.094.44-.174.013-.08.244-.154.513-.165.268-.012.546-.118.617-.236.072-.119.268-.192.438-.162s.417-.039.55-.152.34-.19.457-.168c.118.02.562-.117.988-.304a25 25 0 0 1 1.702-.654 89 89 0 0 0 3.626-1.296c.363-.138 1.281-.469 2.04-.737.759-.267 1.424-.524 1.477-.57.054-.047.533-.219 1.064-.383a24 24 0 0 0 1.503-.514c.295-.12.932-.343 1.416-.497.484-.155 1.004-.349 1.155-.431.152-.084.632-.265 1.068-.405s.904-.313 1.04-.386c.304-.16.89-.378 1.36-.505.191-.052 1.39-.487 2.66-.967 1.273-.48 2.47-.913 2.662-.962s.59-.192.887-.32.657-.263.8-.3c.209-.053 2.805-1.004 4.083-1.494.147-.057 1.466-.54 2.93-1.076 1.465-.534 2.794-1.05 2.956-1.146s.378-.158.483-.14.596-.156 1.091-.388c.496-.232 1.003-.404 1.128-.382.124.021.287-.062.361-.185.075-.124.283-.2.463-.168s.34-.015.355-.103c.016-.088-.189-.199-.454-.245q-.485-.086-.44-.326a.25.25 0 0 0-.205-.285c-.135-.024-.266-.14-.29-.258-.05-.248-1.778-.69-1.818-.464-.014.08-.215.16-.446.176-.232.017-.432.095-.447.175-.014.08-.256.155-.538.167-.282.011-.57.116-.64.232-.07.115-.3.18-.512.143s-.397-.002-.412.079c-.025.144-1.403.597-1.672.55-.076-.014-.285.068-.465.18-.18.114-.455.152-.61.085-.266-.114-.263-.125.053-.2.183-.043.485-.17.672-.28.865-.516 1.02-.593 1.428-.717.24-.073.679-.237.976-.365.296-.127.698-.272.894-.32.195-.05.471-.188.614-.31.143-.12.347-.204.454-.185.202.035 1.135-.593 1.031-.694-.033-.032-.16-.167-.284-.3-.214-.232-1.358-.132-1.668.146-.243.218-1.402.464-1.662.353-.242-.103-.212-.14.188-.227.26-.058.487-.174.502-.258s.188-.176.384-.202.508-.154.693-.284c.186-.129.434-.249.553-.267.17-.024.189-.116.09-.419-.132-.402-.793-.646-1.03-.38-.071.079-.197.131-.28.117-.225-.04-.105-.477.143-.519.125-.02.165-.106.096-.204-.068-.097-.162-.088-.224.021-.06.104-.229.168-.377.144-.496-.083-.802.132-.626.44.098.17.09.3-.019.343a.19.19 0 0 1-.247-.111c-.112-.281-.968-.37-1.12-.117-.074.124-.319.193-.543.154s-.42-.001-.435.085-.212.171-.437.187c-.225.017-.465.125-.535.241-.159.263-.85.168-.707-.098.057-.103.264-.184.46-.179.199.006.378-.093.4-.22.023-.126.186-.204.364-.173.178.032.34-.05.364-.184.027-.15-.11-.268-.36-.312-.221-.039-.415.002-.43.09s-.21.129-.432.09-.39-.143-.374-.232c.016-.088.21-.128.431-.09.295.053.418-.015.46-.25q.058-.32.373-.266c.174.03.42-.076.546-.236a.68.68 0 0 1 .626-.222c.225.04.413-.023.435-.146.021-.12.215-.266.431-.328.217-.06.292-.133.168-.161-.314-.07-1.553.248-1.58.406-.013.071-.205.098-.426.059s-.393-.126-.38-.193c.02-.122.194-.194 1.178-.492.282-.085.587-.236.678-.337.09-.1.294-.159.453-.13.533.093.862-.645.518-1.165-.405-.611-1.669-.488-3.543.348-.499.222-.538-.112-.05-.43.51-.333.962-.522 1.66-.696.582-.146.875-.69.59-1.097-.256-.365-.376-.388-.43-.08m.88 4.877c-.073.081.05.175.283.216.227.04.425 0 .44-.088.016-.089-.112-.186-.284-.216s-.37.01-.44.088m-1.01.26c-.266.186-.17.362.236.433.261.046.404-.006.384-.14-.036-.246-.425-.43-.62-.293m1.49 3.12c-.034.19-.536.283-.706.132a.177.177 0 0 1-.013-.25c.152-.172.752-.071.718.119m6.522 3.483c-.016.09.076.18.203.202.128.023.29-.024.36-.103s-.02-.169-.203-.2c-.183-.033-.344.014-.36.102m-.465 1.219c-.87.268-1.624.523-1.677.566-.237.19-1.41.575-1.633.536a.4.4 0 0 0-.38.181c-.076.124-.28.2-.455.17-.176-.032-.395.036-.489.149-.265.322-1.105.333-1.048.013.025-.142.154-.24.287-.216s.412-.077.621-.223.506-.242.662-.215.4-.08.541-.236c.143-.157.367-.267.499-.244s.253-.03.269-.119c.045-.255-.612-.3-.762-.05-.074.123-.26.202-.415.175s-.473.066-.708.207c-.236.141-.495.245-.577.23s-.275.064-.432.173c-.156.11-.416.176-.578.147-.16-.028-.354.05-.428.174s-.278.2-.45.169a.9.9 0 0 0-.565.11c-.137.09-.446.224-.687.296s-.68.234-.978.362c-.296.128-.697.282-.89.342s-.671.226-1.062.37a84 84 0 0 1-1.505.529c-.437.148-1.141.413-1.565.588s-.942.36-1.152.412c-.21.05-.663.203-1.006.335-.343.134-.982.366-1.42.517-.437.15-.927.352-1.088.448s-.346.167-.41.156-1.266.411-2.672.939-2.634.946-2.73.93c-.095-.017-.185.034-.199.114s-.239.19-.5.244a8.5 8.5 0 0 0-1.19.39 10 10 0 0 1-1.147.39c-.238.054-.678.22-.978.37a7 7 0 0 1-.985.397c-.24.07-.652.218-.915.33-.264.113-.865.346-1.337.519-.473.172-.98.363-1.128.424a6 6 0 0 1-.698.21c-.236.055-.476.145-.533.2-.057.054-.301.155-.541.224-.688.198-1.14.402-1.318.595-.09.099-.35.146-.576.107-.356-.063-.408-.017-.383.336.028.387 0 .4-.52.219-.563-.196-.724-.069-.434.345.132.19.032.19-.5.007-.65-.224-.992-.062-.498.234.124.074.214.2.2.282-.04.224-.93.189-1.021-.041-.045-.11-.15-.15-.235-.086s-.069.163.035.222c.444.252.08.388-.533.2-.582-.18-.626-.173-.341.046.446.342.377.526-.235.625-.282.046-.522.132-.532.192-.01.059-.39.227-.844.373-.453.147-.978.37-1.167.497-.188.126-.45.21-.583.187s-.254.024-.268.104-.36.245-.77.365c-1.195.35-1.811.794-1.776 1.28.035.502.223.554.724.204.209-.145.47-.252.581-.236.112.016.525-.098.917-.252s.882-.321 1.087-.372c.206-.05.435-.16.51-.243.074-.084.283-.126.463-.095.18.032.536-.054.79-.19.255-.137.522-.197.593-.134.199.177-.073.388-.422.327-.172-.03-.332.052-.355.183s-.25.252-.504.268-.506.07-.56.118c-.12.105-2.14.991-2.517 1.103a9 9 0 0 0-.736.286c-.26.113-1.172.488-2.028.834s-1.644.74-1.75.875c-.211.268-1.168.667-1.8.752-.218.03-.509.132-.647.228-.292.205-.71.01-.654-.303.103-.583-1.023-1.124-1.465-.705-.207.196-.292.198-.427.008-.119-.168-.114-.227.019-.204.224.04 1.15-.636 1.187-.867.113-.702-1.032-.516-4.1.665-.7.27-2.388.763-2.528.739-.262-.046.027-.357.397-.428.237-.045.442-.151.457-.235.015-.085.2-.177.41-.204s.426-.087.48-.134c.126-.11 2.342-1.1 2.427-1.084.31.054 2.276-1.013 2.408-1.306.39-.87-.349-1.411-1.26-.922-.544.292-1.396.527-1.71.472-.176-.031-.381.045-.456.168-.155.258-.644.228-.597-.037.017-.097.183-.188.368-.203s.348-.093.363-.174c.014-.08.219-.182.455-.228.237-.045.443-.155.459-.243.016-.09.218-.176.448-.192.49-.035.588-.26.21-.48a.93.93 0 0 1-.355-.389.48.48 0 0 0-.324-.276c-.128-.022-.22-.113-.205-.202.046-.256-.728-.319-.878-.071-.077.13-.336.19-.606.142-.27-.047-.529.014-.606.142-.075.124-.283.2-.463.168s-.34.013-.355.1-.235.173-.488.19c-.254.02-.58.116-.723.217-.287.2-.724.1-.675-.155.017-.088.183-.158.368-.154a.8.8 0 0 0 .56-.275c.122-.154.327-.262.456-.24.13.024.248-.022.262-.1.013-.077.252-.191.53-.252.279-.062.564-.208.634-.323.07-.117.274-.186.454-.154.181.031.346-.05.37-.181.022-.13.233-.252.466-.269.355-.025.4-.075.268-.306a1.1 1.1 0 0 1-.104-.613c.04-.251-.078-.39-.47-.544-.288-.114-.557-.287-.596-.383-.04-.097-.212-.229-.383-.293-.171-.065-.382-.379-.47-.698l-.158-.58-.343.364c-.22.234-.403.698-.51 1.294-.23 1.272-.754 1.66-1.74 1.285q-.39-.148-1.356.213c-.53.198-1.121.4-1.313.448a8 8 0 0 0-.888.32 8 8 0 0 1-.887.32c-.192.05-.97.323-1.732.61-.76.287-1.414.516-1.451.51s-.416.14-.842.325c-.425.186-1.408.546-2.184.8-.775.254-1.522.523-1.659.596-.183.099-.286.06-.39-.151-.26-.528-3.812 1.29-4.196 2.148-.102.226-.524.514-1.08.737-.572.229-1.014.534-1.18.814-.147.246-.32.438-.385.427-.064-.011-.344.127-.623.306-.532.342-.425 1.001.178 1.107.273.048.39-.534.14-.705-.101-.07.061-.039.362.07.802.287 1.117.92.394.793-.157-.028-.43.054-.607.183-.684.497-1.03.69-1.187.662-.089-.016-.356.087-.59.227-.236.142-.527.24-.646.219-.12-.021-.236.068-.259.2-.023.13-.231.251-.463.268-.52.037-.562.195-.131.507l.33.24-.38.045c-.47.055-.51.218-.167.706.311.444.667.54 1.038.28a.65.65 0 0 1 .578-.045c.36.165.372.446.016.383-.133-.023-.393.08-.576.23s-.416.258-.518.24c-.461-.08-1.69.951-1.908 1.603-.256.762-.155.922.445.707.239-.086.592-.205.785-.265s.831-.286 1.418-.503c.586-.216 1.233-.434 1.439-.485s.435-.159.51-.243c.074-.084.366-.11.649-.061l.514.091-.555.321c-.305.177-.713.366-.905.42-.396.112-.506.157-2.457 1.014-.778.342-1.452.615-1.496.607-.483-.084-1.04.646-.886 1.162.141.476.13.558-.086.6-.136.027-.265.142-.285.257s-.397.342-.837.505c-.896.332-1.324 1.185-.654 1.303.173.03.359.182.413.338.054.155.24.28.414.278.397-.006.625-.527.258-.591-.148-.026-.202-.114-.124-.202.1-.113.18-.099.284.05.241.343.718.33 1.559-.044.44-.196.897-.34 1.015-.319.117.02.322-.055.456-.168s.35-.187.48-.165c.13.023.447-.07.703-.207.257-.138.566-.233.687-.212.12.021.23-.023.244-.099.013-.075.693-.347 1.511-.604 2.36-.741 2.598-.824 2.81-.972a.73.73 0 0 1 .472-.091.43.43 0 0 0 .408-.177.42.42 0 0 1 .405-.178c.148.026.373-.054.502-.176.132-.126.392-.17.598-.102.4.133-.888.813-1.379.726-.124-.022-.24.031-.255.118s-.217.171-.448.188-.432.098-.447.181c-.015.084-.3.213-.632.288-.333.075-.615.19-.627.257-.021.119-.185.187-1.179.49-.282.087-.625.232-.761.323-.137.09-.353.147-.48.125-.126-.023-.242.03-.257.118-.016.087-.283.227-.594.31a10 10 0 0 0-1.107.385c-.296.13-.727.28-.957.335-.23.056-.75.248-1.155.43-.405.18-.873.354-1.038.386s-.315.133-.33.224c-.017.091-.145.145-.287.12-.14-.024-.465.068-.722.206s-.565.232-.686.21c-.122-.02-.232.03-.247.114-.027.153-.59.386-1.478.61-.35.09-.499.238-.555.556-.042.238-.174.454-.292.48-.125.026-.094.072.074.109.16.035.428.019.597-.037.183-.06.39-.025.513.086.277.247-.07.639-.755.855-.849.267-.982.475-.732 1.14.172.459.286.567.515.492.162-.053.47-.034.683.043.75.27.985-.048.488-.655-.245-.297-.433-.605-.419-.684.037-.209.973-.734 1.227-.69.12.021.23-.033.245-.12.015-.086.214-.17.441-.187.228-.016.516-.116.64-.222a.74.74 0 0 1 .536-.138c.169.03.365-.043.436-.16s.336-.258.59-.312a6.4 6.4 0 0 0 1-.33 13 13 0 0 1 .892-.349c.193-.064.673-.24 1.065-.391.392-.153.882-.32 1.087-.371.206-.052.435-.163.51-.246.075-.084.248-.132.385-.108s.56-.124.938-.328.875-.415 1.103-.469.535-.147.683-.208c.9-.37 3.406-1.234 3.52-1.214.075.014.246-.068.38-.182a.75.75 0 0 1 .537-.154c.162.029.369-.029.46-.128.09-.1.619-.314 1.175-.478s1.061-.354 1.122-.422c.062-.07.226-.105.366-.08s.36-.056.488-.18c.14-.134.384-.169.615-.087l.382.136-.477.108c-.26.06-.487.175-.501.257s-.24.194-.5.248a6.5 6.5 0 0 0-1.015.333 8 8 0 0 1-.887.322c-.392.1-2.201.852-2.549 1.06-.125.075-.405.18-.622.232a7.5 7.5 0 0 0-.934.329 8 8 0 0 1-.896.32c-.196.05-.729.255-1.184.458s-.868.361-.917.353-.446.143-.882.336c-.435.194-.979.397-1.208.45-.473.112-.666.184-2.317.875-.653.273-1.373.541-1.6.596a7.5 7.5 0 0 0-.953.333c-.297.128-.736.29-.977.361s-.515.215-.61.32-.34.226-.546.269c-.371.079-.37.08.002.156.229.046.386.201.401.397.046.562.738.693 1.657.315a325 325 0 0 1 3.288-1.223c2.687-.991 4.005-1.454 6.11-2.15.338-.113.858-.306 1.154-.43s.775-.298 1.065-.386.769-.265 1.065-.391a7 7 0 0 1 .8-.293c.21-.052 1.5-.511 3.543-1.262a56 56 0 0 1 1.545-.49c.703-.216 1.456-.499 1.673-.628.216-.13.527-.212.69-.183.165.028.317-.057.34-.19.027-.15.196-.214.446-.17.222.04.39.143.374.231-.015.089-.126.144-.245.123-.12-.02-.41.077-.645.218s-.495.245-.577.23c-.08-.014-.275.064-.431.173a.93.93 0 0 1-.596.145c-.17-.03-.329.054-.352.186-.024.133-.141.224-.26.203s-.41.077-.645.218c-.236.14-.483.247-.55.235s-.553.164-1.079.39c-.525.227-1.047.397-1.16.377s-.217.032-.232.116c-.028.158-.65.406-1.474.588-.261.058-.485.163-.498.235-.012.07-.253.166-.535.213-.282.045-.527.159-.543.252s-.175.144-.35.113c-.177-.031-.438.072-.58.23-.141.157-.38.264-.532.237-.15-.026-.33.017-.401.096-.073.081.052.175.289.216.23.04.478-.028.552-.151.075-.124.301-.196.504-.16.203.035.429-.037.503-.16.075-.124.274-.201.443-.171.17.03.417-.04.55-.152.135-.114.344-.189.467-.167s.373-.084.557-.234c.182-.15.452-.252.599-.226s.375-.046.51-.16a.74.74 0 0 1 .525-.156.7.7 0 0 0 .51-.143c.125-.105.413-.205.64-.221s.427-.102.442-.188.209-.126.43-.087c.222.039.39.143.374.232-.015.088-.137.14-.27.117-.135-.023-.394.08-.577.231-.183.15-.462.25-.619.223-.157-.028-.3.025-.316.119-.016.093-.26.206-.543.252-.282.045-.52.13-.53.188s-.395.222-.854.364c-.46.143-.987.367-1.174.498-.187.132-.482.214-.655.183-.174-.03-.335.053-.359.186-.027.151-.195.214-.45.17-.224-.04-.469.03-.543.153a.42.42 0 0 1-.404.177c-.148-.026-.419.076-.602.227-.183.15-.442.253-.576.23a.247.247 0 0 0-.285.198c-.061.344.384.375.776.054.183-.151.498-.245.7-.209.2.035.379-.01.395-.1s.222-.202.459-.247c.236-.045.442-.156.458-.247s.25-.126.518-.079c.285.05.544-.008.624-.14.076-.127.335-.189.6-.142.552.096.573.36.034.432-.417.056-1.428.494-1.547.669-.041.061-.203.089-.359.061s-.44.072-.632.221c-.191.149-.482.247-.645.218s-.31.024-.327.117-.261.207-.543.253c-.282.045-.525.15-.54.232-.014.082-.24.197-.501.257l-.476.107.386.137c.211.076.425.063.475-.029.113-.208.879-.087.84.131-.015.089-.156.139-.312.111-.156-.027-.4.08-.541.237-.31.344-.686.309-.82-.076-.057-.161-.254-.284-.462-.289-.456-.009-.567.27-.165.417.615.225.497.419-.466.765-.545.195-1.001.422-1.016.504-.014.082-.167.124-.339.094-.172-.031-.371.01-.442.09s-.397.206-.724.279-.606.21-.623.303c-.016.093-.213.136-.437.097-.225-.039-.465.023-.536.14-.07.116-.31.224-.535.24-.224.017-.427.137-.45.268-.027.147-.197.211-.45.166-.224-.039-.467.027-.54.148-.072.12-.285.239-.473.264-.548.074-1.08.5-.818.657.117.07.193.239.17.374-.052.29.128.351.425.144.233-.163.833-.394 1.414-.544.206-.053.436-.166.51-.249.075-.084.26-.13.413-.103.152.026.426-.075.61-.225.182-.15.508-.242.723-.204.215.037.424.018.466-.043.153-.228 1.248-.651 1.548-.598.171.03.372-.047.446-.17.15-.249.807-.205.761.051-.015.088-.157.137-.314.11-.158-.028-.436.072-.62.223-.182.15-.434.255-.558.233s-.287.061-.361.185-.31.194-.525.157c-.253-.045-.437.038-.53.238a.44.44 0 0 1-.484.247c-.328-.058-.503.006-1.223.447a4 4 0 0 1-.752.331c-.435.136-.621.207-1.733.662l-.58.237.303.392q.637.822 1.346.947c.23.041.482.237.583.454.147.313.28.381.733.368.305-.008.789.001 1.076.021.286.019.708-.052.936-.158.438-.204 1.004-.182.965.037-.04.227-.795.721-1.036.678-.415-.072-.94.776-.583.94.336.153 1.914-.31 2.625-.771.793-.512 1.361-.729 1.742-.663.45.078.407.45-.078.669-.496.224-.414 1.256.128 1.629.402.275.431.768.041.699-.133-.023-.254.03-.27.119-.054.306 1.098-.102 1.47-.521.092-.102.303-.162.47-.133a.47.47 0 0 0 .454-.235c.102-.195.247-.243.45-.15.186.084.355.047.44-.095.078-.129.354-.242.615-.253.26-.011.532-.117.604-.236a.4.4 0 0 1 .383-.171c.23.04 1.271-.365 1.516-.591.055-.051.303-.108.55-.125.246-.018.505-.128.575-.244a.39.39 0 0 1 .366-.169c.131.023.586-.11 1.012-.295a15 15 0 0 1 1.647-.58c.48-.135.942-.318 1.024-.407.084-.089.36-.177.615-.196.254-.018.508-.074.564-.126.233-.215 1.28-.632 1.494-.595.126.022.291-.061.365-.184.075-.124.315-.194.534-.155.483.085.718-.137.517-.488-.124-.217-.054-.227.432-.058.445.155.626.146.776-.038.108-.131.267-.226.355-.211.182.032 1.284-.458 1.394-.62.04-.058.329-.109.642-.113.614-.006.701-.097.448-.458-.127-.181-.05-.187.358-.028.386.15.567.144.703-.022.204-.249 1.482-.694 1.823-.634.121.021.28-.062.355-.186s.285-.199.467-.167c.183.033.393-.042.468-.166s.262-.203.416-.176.436-.072.628-.221c.191-.148.482-.246.645-.217s.317-.057.34-.189q.042-.241.526-.157.483.085.526-.156c.023-.133.178-.217.344-.188a.76.76 0 0 0 .546-.153c.134-.113.332-.19.44-.171.109.019.39-.081.626-.222.235-.141.554-.234.708-.207s.341-.052.415-.176c.075-.123.236-.207.358-.185s.415-.077.65-.218.563-.233.726-.204.317-.056.34-.189c.026-.148.194-.214.436-.172.216.038.454.001.529-.083.074-.083.304-.196.51-.25s.696-.223 1.088-.375.882-.318 1.087-.371c.206-.051.436-.162.51-.245.075-.084.274-.128.443-.098s.41-.077.536-.238.374-.266.55-.234c.178.031.383-.045.458-.169.074-.123.267-.201.428-.173.162.028.41-.03.553-.13.142-.1.42-.203.618-.229.198-.027.419-.146.491-.267.073-.12.315-.187.54-.148.255.045.423-.018.45-.17q.043-.24.526-.156.483.085.526-.156c.023-.132.176-.218.34-.189.163.029.49-.063.726-.204.235-.14.525-.239.645-.218.118.021.228-.027.242-.107s.257-.182.538-.228c.283-.046.527-.16.543-.252.017-.093.17-.145.34-.115a.88.88 0 0 0 .57-.127c.143-.1.429-.203.635-.23.206-.028.392-.155.415-.281.024-.135.199-.203.423-.163.211.037.486-.02.61-.126.126-.105.414-.206.642-.221.227-.017.432-.138.455-.269.028-.155.204-.21.508-.156.266.047.524-.015.602-.143.074-.123.284-.198.467-.166s.393-.043.468-.167c.074-.123.243-.206.374-.183s.45-.07.706-.207.573-.23.704-.207c.15.026.23-.07.214-.262-.02-.25.053-.278.422-.156.308.102.49.073.592-.095a.46.46 0 0 1 .44-.189c.163.029.353-.013.423-.091.07-.079.575-.269 1.123-.422.547-.154 1.068-.361 1.159-.46s.258-.164.373-.144.402-.079.637-.22c.236-.14.563-.232.726-.204s.317-.056.34-.189c.026-.148.194-.214.437-.172.218.039.47-.011.56-.11s.574-.293 1.074-.432c.5-.14.929-.344.952-.453s.225-.168.45-.128c.224.039.466-.026.537-.145.072-.118.35-.225.618-.236s.498-.08.51-.153c.014-.072.255-.17.537-.215.282-.046.526-.16.543-.252.016-.094.182-.143.367-.11a.436.436 0 0 0 .48-.252c.105-.227.224-.27.442-.155.197.102.425.06.672-.126.206-.155.472-.265.592-.244s.279-.063.353-.186c.08-.131.339-.19.624-.14q.488.088.531-.155c.024-.132.176-.217.34-.189.163.03.49-.063.726-.203.235-.141.517-.24.627-.222.11.02.261-.066.335-.19.075-.123.274-.2.443-.17.17.03.41-.033.535-.139s.413-.205.64-.222c.228-.016.427-.1.442-.187s.126-.14.245-.12c.12.021.41-.077.645-.218.236-.14.554-.234.708-.207s.341-.052.416-.176c.074-.123.236-.207.357-.185.122.021.415-.077.65-.218.236-.14.563-.233.726-.204s.31-.022.327-.112c.016-.09.228-.203.473-.25.243-.046.428-.18.409-.296-.02-.117.13-.362.332-.544.201-.182.387-.451.413-.599s.267-.477.536-.733c.269-.255.577-.682.685-.947.27-.671.581-.88 2.199-1.48.993-.369 1.353-.574 1.22-.695-.19-.17-.778-.17-.968 0-.055.048-.296.144-.536.213-.434.125-.734.239-1.602.61-.247.105-.997.372-1.667.594a56 56 0 0 0-1.769.613 33 33 0 0 1-1.431.49c-.484.154-1.012.363-1.174.464-.163.101-.371.17-.464.154s-.274.06-.402.167c-.128.109-.453.207-.722.218-.27.011-.501.08-.514.153-.013.072-.237.177-.498.232a6.4 6.4 0 0 0-1.014.332 7 7 0 0 1-.913.327c-.206.05-.43.155-.5.233-.069.078-.35.15-.625.162-.276.011-.512.086-.526.166s-.212.158-.44.174c-.227.017-.515.117-.64.223a.72.72 0 0 1-.512.142c-.157-.028-.347.051-.42.175-.081.132-.34.189-.634.137-.29-.05-.444-.147-.37-.23.071-.08.234-.126.362-.103.129.023.623-.133 1.097-.346 1.292-.579 1.525-.67 1.978-.776.229-.054.711-.249 1.074-.433.794-.404 1.23-.585 1.81-.752.24-.07.481-.162.535-.206.053-.044.566-.254 1.138-.467a44 44 0 0 0 1.516-.59c.26-.113.633-.254.826-.315.194-.06.673-.235 1.065-.386a27 27 0 0 1 1.066-.392c.193-.063.571-.206.839-.317a305 305 0 0 1 3.388-1.315c3.459-1.326 3.46-1.327 3.852-3.091l.302-1.352-.474-.139c-.26-.076-.515-.255-.566-.398-.066-.188-.156-.222-.327-.126-.13.074-.623.26-1.097.414s-.907.32-.961.37c-.2.18-1.28.462-1.575.41-.167-.03-.406.078-.533.238-.126.16-.367.267-.535.237-.17-.03-.362.007-.428.081-.208.232-1.64.595-1.855.47-.134-.078-.048-.152.245-.213.248-.051.514-.2.593-.33s.282-.212.452-.182.367-.04.437-.156.357-.22.64-.232c.282-.012.523-.082.536-.154.029-.163 1.215-.619 1.485-.571.108.019.347-.089.53-.239.182-.15.433-.255.556-.233s.285-.091.358-.25c.1-.218.233-.251.54-.134.477.18.571-.034.252-.573-.28-.472-.689-.544-1.171-.207-.209.145-.496.244-.638.22-.202-.036-.252.056-.228.415.025.372-.002.415-.138.225-.093-.131-.372-.273-.62-.317-.253-.044-.467.01-.488.122-.04.224-.998.612-1.356.549-.127-.022-.636.15-1.132.382-.496.231-1.002.403-1.124.382-.124-.022-.334.053-.467.167a.76.76 0 0 1-.546.152c-.166-.029-.316.023-.332.117-.017.093-.26.206-.543.252-.282.045-.524.148-.538.228s-.25.106-.522.058c-.573-.1-.516-.444.079-.479.425-.024.548-.296.196-.437-.129-.05-.388.034-.577.19-.19.154-.463.26-.61.235s-.376.045-.51.159a.74.74 0 0 1-.528.155c-.157-.027-.346.052-.42.175-.075.124-.274.2-.444.171a.77.77 0 0 0-.55.152c-.134.113-.368.184-.52.157-.154-.027-.471.067-.707.207-.235.141-.525.24-.645.218-.119-.02-.228.028-.243.108s-.256.182-.538.228-.526.159-.543.252c-.016.093-.247.13-.513.084-.265-.046-.47-.159-.454-.25.016-.09.255-.169.53-.175.275-.007.517-.111.539-.233s.184-.196.361-.165.49-.044.694-.167l.744-.45c.204-.124.513-.2.686-.17.172.03.388-.026.478-.126.092-.1.363-.243.604-.317 1.06-.325 1.412-.471 1.435-.597.013-.075.213-.148.444-.165s.433-.102.448-.188c.045-.255-.775-.322-.923-.076-.074.124-.261.203-.415.176s-.473.066-.708.207c-.236.141-.495.245-.577.23s-.276.064-.432.173c-.156.11-.416.176-.578.147-.16-.028-.353.05-.428.174-.074.123-.285.198-.467.166s-.393.043-.468.166a.42.42 0 0 1-.404.178c-.148-.026-.42.076-.602.226-.183.15-.448.252-.587.228-.14-.025-.383.045-.54.154-.155.11-.416.175-.577.147s-.354.05-.428.173a.43.43 0 0 1-.41.177c-.15-.026-.42.044-.6.157a.9.9 0 0 1-.69.07c-.342-.124-.33-.14.181-.24.3-.06.604-.206.675-.323.07-.118.313-.183.537-.143.255.045.423-.018.45-.17.023-.132.14-.224.26-.203.119.021.41-.077.645-.218.235-.14.554-.233.709-.206.153.027.34-.052.415-.176s.275-.2.445-.17.37-.047.445-.17.235-.208.357-.187c.122.022.379-.083.57-.231.192-.149.443-.254.557-.234s.285-.055.377-.166c.094-.112.35-.198.569-.19.22.006.446-.073.502-.177.149-.277-.71-.387-.876-.112-.074.123-.267.201-.428.173a.86.86 0 0 0-.553.13 1.7 1.7 0 0 1-.634.231c-.206.028-.385.11-.398.184s-.255.172-.537.218-.526.16-.543.252c-.016.093-.24.133-.495.088-.257-.045-.524.012-.593.129-.07.115-.358.22-.64.231s-.522.072-.533.133-.396.23-.855.376c-.46.145-.91.344-1 .442-.197.213-.966.11-.924-.125.016-.09.254-.17.53-.176.274-.007.517-.111.539-.233a.23.23 0 0 1 .272-.18.49.49 0 0 0 .398-.14c.091-.1.362-.239.603-.308.24-.07.577-.176.748-.238.17-.062.449-.16.62-.218.279-.096 1.54-.586 2.442-.95.192-.077.737-.314 1.213-.527.475-.213.975-.368 1.112-.344a.41.41 0 0 0 .383-.18c.075-.124.231-.209.348-.188s.325-.037.462-.128a3.2 3.2 0 0 1 .686-.296 10 10 0 0 0 .978-.364c.297-.13.747-.278 1-.331.254-.054.519-.194.59-.312s.278-.188.461-.156.393-.043.468-.166a.42.42 0 0 1 .404-.178c.148.026.419-.076.601-.226.184-.15.479-.247.657-.216s.335-.008.35-.088.275-.187.581-.239l.556-.094-.341-.397-.341-.398.783.247.783.248-.328-.375-.329-.376.398-.033c.218-.018.456.05.526.15.194.279.541.287.59.016.023-.133-.034-.254-.129-.271-.093-.016-.112-.095-.042-.174.082-.091.221-.071.383.056.14.11.357.158.483.108.164-.065.134-.134-.107-.245-.615-.28-.089-.494.692-.28.405.11.574.14.376.067-.466-.174-.302-.66.218-.643.284.01.383-.078.391-.346.016-.484-.54-.508-1.602-.068a27 27 0 0 1-1.876.672 26 26 0 0 0-1.592.554c-.296.122-.815.312-1.154.423-1.452.476-2.25.76-2.926 1.038a27 27 0 0 1-1.598.584c-.483.159-1.121.391-1.417.518a8 8 0 0 1-.921.323c-.21.052-.73.24-1.153.417-.807.34-1.133.455-2.33.824-.4.124-.848.27-.995.325-.146.055-.463.156-.704.227-.24.07-.55.201-.686.292-.137.091-.329.152-.426.135-.098-.018-.325.061-.504.174-.181.113-.455.151-.61.085-.232-.1-.197-.14.194-.225.26-.058.487-.179.504-.27.016-.09.127-.147.247-.125.12.02.58-.149 1.022-.377s.975-.438 1.185-.466.394-.113.407-.188.244-.146.512-.157.537-.102.596-.201c.06-.099.465-.286.9-.414.435-.13.899-.327 1.031-.439s.324-.19.426-.171.593-.144 1.092-.36c.499-.215 1.27-.493 1.712-.618.442-.126.91-.318 1.039-.428.13-.11.335-.181.457-.16.122.022.234-.028.248-.11.015-.083.194-.173.4-.2.205-.028.763-.233 1.24-.456.478-.224.97-.389 1.095-.367.124.022.287-.061.362-.185.074-.124.235-.207.357-.186.122.022.414-.076.65-.218.236-.14.518-.24.628-.22s.26-.067.335-.19a.42.42 0 0 1 .397-.18c.144.026.471-.066.728-.203.256-.137.565-.232.686-.211.12.021.23-.016.242-.082s.26-.205.553-.31c.786-.28.863-.959.17-1.504-.313-.248-.574-.356-.657-.275-.075.076-.333.194-.574.263-.409.117-.574.173-1.369.464a7 7 0 0 1-.784.21c-.26.053-.485.161-.5.24-.014.08-.124.129-.245.107-.12-.02-.43.074-.686.211-.257.138-.584.23-.728.204a.42.42 0 0 0-.396.18c-.075.123-.233.207-.351.186-.202-.035-1.452.365-1.663.533-.053.042-.294.133-.534.202s-.559.174-.706.233a3.5 3.5 0 0 1-.526.16c-.142.028-.501.156-.798.284-.297.129-.736.291-.977.362-.24.071-.481.163-.534.206-.171.135-1.444.57-1.592.545-.08-.014-.496.13-.926.323-.43.19-.987.362-1.238.38-.25.018-.464.08-.475.14-.033.19-1.218.508-1.423.38-.142-.087-.123-.113.066-.09.145.02.328-.104.406-.272.093-.203.277-.283.542-.236.22.038.461-.031.535-.155.075-.123.235-.207.357-.186.122.022.415-.076.651-.217.235-.141.525-.24.645-.218.119.02.229-.03.243-.112.015-.082.182-.171.372-.196.19-.026.766-.228 1.28-.45.514-.221 1.018-.388 1.122-.37.103.018.248-.068.323-.192.074-.124.24-.206.37-.183s.347-.033.484-.124a3.2 3.2 0 0 1 .687-.296c.24-.072.68-.235.977-.362.297-.129.733-.28.97-.336.236-.057.477-.154.536-.216.058-.062.972-.438 2.031-.835s2.141-.811 2.405-.922.715-.261 1.002-.336c.631-.166 1.07-.512.97-.765-.068-.17-1.38.142-1.653.394-.056.05-.309.108-.562.126s-.47.08-.48.137-.71.317-1.555.579-1.648.548-1.785.639-.328.149-.426.132-.308.049-.47.146c-.491.297-1.064.309-1.013.022.024-.137.233-.262.464-.279s.431-.09.444-.165c.023-.126.373-.272 1.435-.597.24-.075.494-.19.562-.257.154-.15.82-.396 1.445-.532.261-.057.486-.165.5-.24.022-.129.42-.294 1.433-.595.625-.187.62-.177.324-.494-.386-.415-.578-.403-2.337.14m-8.562-1.809c-.016.089-.228.125-.47.08-.345-.061-.384-.104-.174-.193.35-.148.68-.09.644.113m6.005 1.717c-.016.089.112.186.284.216s.37-.01.44-.089c.073-.08-.05-.174-.284-.215-.226-.04-.424 0-.44.088M61.3 59.316c-.016.088-.137.141-.27.118s-.229-.115-.213-.203.137-.141.27-.118.229.115.213.203m-3.572-.048c-.324.859-.22 1.075.427.884.629-.186.737-.52.33-1.02-.41-.505-.522-.485-.757.136m30.113 6.344c-.147.165-.798.217-.77.063.035-.204.26-.298.578-.242.167.03.254.11.192.18m-.987.344c-.015.088-.191.131-.39.095-.293-.053-.31-.088-.093-.18.348-.146.519-.116.483.085m-27.17-3.61c.039.099-.083.152-.27.12-.187-.034-.283-.125-.213-.204.07-.08.192-.133.27-.119s.174.105.213.204m1.042.68c.039.099.012.17-.06.158a3 3 0 0 0-.51.013c-.278.024-.367-.036-.333-.227.051-.29.783-.244.903.056m32.53 8.03c-.035.202.136.232.484.086.217-.092.2-.126-.093-.18-.2-.036-.375.007-.39.095m4.31.79c.124.177.21.192.386.069.177-.124.142-.174-.159-.227-.3-.053-.351-.018-.227.159m-41.43-6.808c-.016.088.08.18.213.203s.254-.03.27-.118c.016-.089-.08-.18-.213-.203s-.255.03-.27.118m36.069 6.331c-.016.089.076.18.203.202.128.022.29-.024.36-.103s-.02-.169-.203-.2c-.182-.033-.344.013-.36.101m-.89.341c-.218.092-.2.127.092.18.199.036.374-.006.39-.095.036-.201-.135-.231-.483-.085m2.093.368c-.21.088-.169.132.182.195.26.047.422.007.381-.096-.088-.222-.219-.245-.563-.1m-3.041-.08c-.203.141-.166.346.071.387.128.023.283-.017.346-.087.132-.148-.247-.42-.417-.3m2.084.608c.123.176.21.191.386.068.177-.124.142-.175-.16-.227-.3-.053-.35-.018-.227.159m-3.349-.124c-.074.084.078.18.365.23.271.048.505.014.521-.074.016-.089-.148-.192-.365-.23-.216-.038-.45-.005-.52.074m2.174.382c-.016.088.153.192.374.231s.415-.001.431-.09-.153-.193-.374-.231c-.221-.04-.415.001-.43.09m2.174.381c-.072.081.05.175.284.216.227.04.425 0 .44-.088.016-.09-.112-.186-.284-.216s-.37.01-.44.088M77.505 70.94c-.016.089-.228.125-.471.081-.344-.063-.383-.106-.173-.194.35-.148.68-.09.644.113m10.58 1.918c-.142.1-.427.204-.633.232-.206.027-.386.11-.4.184-.012.074-.26.173-.549.22-.3.048-.492.167-.45.275.095.235.752.167.98-.101a.49.49 0 0 1 .407-.156.38.38 0 0 0 .365-.169c.07-.116.311-.224.536-.24.224-.016.42-.1.436-.187.04-.232-.392-.267-.692-.058m2.302.343c-.21.089-.172.131.173.194.243.044.455.008.47-.08.036-.204-.293-.261-.643-.114m2.143.321c-.119.025-.228.117-.244.204-.036.205.636.22.68.015.04-.188-.143-.28-.436-.219m-3.067-.027c-.443.021-.401.302.057.383.22.038.414.002.429-.081.037-.21-.14-.319-.486-.302m2.093.367c-.443.022-.402.303.057.383.221.039.415.003.43-.08.036-.21-.14-.32-.487-.303m-35.183-5.471c-.016.088-.178.134-.36.102s-.274-.123-.204-.201c.07-.08.233-.125.36-.103.128.023.22.113.204.202m31.801 5.582c-.072.08.048.174.275.214.222.039.46.006.53-.072.073-.081-.047-.174-.274-.214-.221-.04-.46-.007-.53.072m2.158.474c-.027.15.069.25.233.248.418-.007.54-.373.147-.442-.198-.035-.354.045-.38.194m-.91.18a.43.43 0 0 0-.16.238c-.035.197.79.227.871.032.075-.182-.516-.406-.712-.27m-32.847-4.563c-.014.078-.177.154-.363.17-.218.017-.322-.053-.297-.2.023-.124.185-.2.362-.169.178.032.312.12.298.199m34.87 6.537c-.052.29-.573.392-.746.146-.11-.157.24-.33.744-.367.022-.001.023.098.002.22m-14.51-2.447c-.015.089-.213.129-.44.089-.234-.041-.357-.134-.284-.216.07-.078.269-.118.44-.088.172.03.3.127.284.215m10.952 1.913c-.039.217-.359.316-.53.164-.08-.071-.092-.19-.027-.263.156-.174.591-.097.557.1m-.85.535c-.154.173-.751.07-.717-.125.029-.163.545-.23.725-.093.061.047.058.145-.007.218m-1.042.303c-.07.079-.269.119-.44.088-.172-.03-.3-.127-.284-.215.015-.089.213-.129.44-.089.234.041.356.135.284.216m-1.234.22c.142.202-.109.364-.343.224-.121-.072-.168-.19-.105-.26.134-.15.328-.134.448.037m-8.148-.21c-.016.088-.174.135-.35.104-.178-.031-.31-.129-.295-.217.016-.089.174-.136.351-.104.177.03.31.129.294.217m4.347.763c-.015.088-.21.129-.43.09-.222-.039-.39-.143-.375-.231s.21-.13.431-.09c.222.039.39.143.374.231m-5.396-.468c-.035.197-.516.276-.588.096a.2.2 0 0 1 .063-.23c.18-.126.554-.03.525.134m2.17.4c.042.102-.12.143-.38.095-.35-.063-.392-.107-.183-.195.345-.145.475-.122.564.1m-.855.387c-.123.228-.832.237-.792.01.03-.168.321-.265.676-.224.12.013.171.11.116.214m1.924.48c-.322.132-.653.071-.62-.114.03-.17.548-.227.737-.082.07.053.016.141-.117.197m-4.483-.805c-.348.147-.519.117-.483-.085.016-.088.191-.13.39-.094.293.053.31.088.093.18m1.284.723c-.071.079-.237.124-.37.1s-.184-.106-.114-.185.237-.124.37-.1.184.106.114.185m2.173.381c-.015.089-.137.142-.27.119-.133-.024-.229-.115-.213-.204s.137-.14.27-.118c.133.024.229.115.213.203m-29.543-2.695c-.32.106-.843.476-1.16.823-.318.347-.854.778-1.192.958-.814.433-.386.803.449.388.288-.144.583-.253.653-.243s.334-.091.586-.225.586-.222.74-.198c.156.026.302-.062.326-.195.024-.134.186-.216.364-.184.178.03.336-.016.351-.104.016-.089-.152-.193-.374-.232-.505-.088-.462-.468.082-.722.591-.275-.037-.326-.825-.066m-22.182-2.953c-.44.869-.994 1.247-2.205 1.5-.26.054-.484.157-.496.227-.034.19-.885.246-1.463.095-.597-.156-1.051.39-1.521 1.827-.355 1.084-.158 1.092 2.294.097a9 9 0 0 1 .706-.237c.241-.071.76-.26 1.153-.421 1.294-.529 1.427-.576 1.891-.67.253-.053.518-.191.59-.31a.39.39 0 0 1 .375-.17c.342.06.344-.152.003-.458-.158-.142-.266-.376-.24-.52.089-.503-.883-1.362-1.087-.96m25.516 5.522c-.352.148-.68.09-.645-.114.016-.088.228-.124.47-.08.346.063.384.105.175.194m-18.442-2.74c-.016.088-.137.141-.27.118-.133-.024-.23-.115-.213-.204.015-.087.137-.14.27-.117.132.023.228.114.213.202m-1.944.851c-.177.124-.263.109-.387-.068-.123-.176-.073-.211.228-.159.3.053.336.103.159.227m4.131.858c.078.238.062.342-.051.323-.092-.016-.149-.133-.126-.259s-.08-.285-.229-.352c-.247-.113-.247-.12.011-.094.154.017.332.189.395.382m-1.345.095c-.016.089-.138.142-.27.119-.133-.023-.229-.115-.213-.203.015-.089.137-.142.27-.119s.228.115.213.203m55.216 9.776c-.134.113-.308.194-.388.18-.122-.021-5.697 1.976-6.534 2.34a9 9 0 0 1-.796.277c-.289.087-.768.26-1.064.384-.296.125-.775.301-1.065.392s-.689.23-.886.306c-1.504.586-3.297 1.198-3.436 1.174-.093-.016-.18.038-.195.12s-.199.17-.409.197c-.21.025-.507.121-.66.213s-.674.292-1.158.445c-.484.152-1 .327-1.148.388-1.144.473-5.525 2.012-5.658 1.988-.093-.016-.178.028-.19.098s-.44.263-.948.429c-.51.166-1.246.424-1.637.572-.392.148-.87.319-1.063.38-.194.06-.633.22-.976.353s-.958.36-1.366.503-1.616.585-2.685.98-2.105.74-2.303.766c-.2.027-.373.111-.387.188-.013.076-.185.16-.38.187-.196.025-.692.186-1.101.356-1.164.483-1.4.57-2.338.866-.484.153-1.012.361-1.174.462-.162.1-.347.174-.412.163-.064-.011-.864.258-1.778.599s-1.702.613-1.75.604c-.049-.008-.435.129-.859.305s-.932.387-1.128.467c-.198.081-.572.19-.832.243s-.484.155-.497.226c-.012.071-.236.174-.497.229a6.4 6.4 0 0 0-1.014.333 7 7 0 0 1-.8.299c-.143.036-1.396.488-2.784 1.005s-2.577.93-2.64.919-.249.06-.41.158c-.162.098-.715.318-1.23.489-.514.17-1.071.36-1.239.422-2.004.742-3.226 1.174-3.292 1.162-.044-.007-.428.141-.854.33-.427.189-1.41.549-2.184.802-.775.251-1.75.61-2.164.797s-.803.331-.863.321-.469.141-.91.337c-.44.196-.84.35-.886.341s-1.219.409-2.604.926c-3.726 1.391-4.913 1.766-5.147 1.625-.286-.171-.193-.58.16-.703.262-.091.268-.14.082-.573-.252-.587-.3-.591-.88-.076-.482.428-.49.509-.13 1.449.08.211.445 1.501.48 1.702.026.141 2.918-.799 3.433-1.114.162-.1.35-.171.42-.159.068.012.485-.139.925-.335s.902-.339 1.025-.317.282-.026.353-.105.42-.23.775-.335c1.17-.345 2.407-.777 2.59-.905.247-.171.767-.063.729.153-.017.097-.183.188-.369.203-.185.015-.346.084-.359.154-.012.069-.253.163-.535.209s-.526.16-.543.253c-.016.092-.177.143-.357.111s-.386.041-.459.162c-.072.121-.297.24-.498.265s-.714.198-1.14.386c-.427.187-.832.33-.903.318-.07-.013-.32.092-.557.234-.235.14-.51.241-.61.224-.099-.018-.33.091-.513.241s-.442.254-.575.231c-.134-.024-.255.022-.27.102-.014.08-.239.191-.5.249-1.035.225-2.234.944-1.724 1.033.096.017.21.224.256.46.094.493.705.692 1.099.358a.75.75 0 0 1 .534-.155c.16.028.418-.037.574-.147s.465-.242.687-.296.646-.202.942-.329c.297-.128.733-.279.97-.335.236-.057.478-.159.539-.226.185-.207 1.035-.212 1-.006-.019.1-.168.206-.333.233a2.1 2.1 0 0 0-.576.209c-.377.214-2.116.822-2.7.943-.26.053-.484.163-.499.243-.014.079-.121.128-.24.107-.244-.043-1.03.503-1.073.746-.125.705 1.272 1.289 1.87.782.123-.104.284-.179.357-.166s.482-.13.908-.319c.892-.395 2.3-.897 3.686-1.313.53-.16 1.076-.364 1.213-.454s.352-.147.478-.124c.127.022.243-.031.258-.118.016-.086.236-.171.49-.188.255-.016.507-.069.56-.117.319-.279 2.427-.917 2.703-.817.314.115.314.123-.007.202-.184.045-.49.191-.68.324s-.447.224-.57.203c-.124-.022-.286.061-.36.185s-.285.199-.468.167c-.183-.033-.393.042-.467.166s-.232.208-.349.187-.327.043-.467.141-.431.236-.647.306-.405.199-.42.284c-.045.253.776.318.923.074.074-.124.274-.201.445-.171s.368-.041.438-.159c.17-.28.465-.325.818-.126.278.159-.167.419-1.37.801-.146.046-.507.189-.804.317a10 10 0 0 1-.976.357c-.524.149-2.368.907-2.507 1.031-.054.048-.757.326-1.562.616s-1.475.595-1.49.675c-.013.081-.17.121-.347.09-.406-.071-.5.367-.237 1.104.123.347.322.567.547.607.515.092.54.35.044.478-.236.061-.449.221-.473.355-.024.141-.185.22-.376.186-.25-.043-.341.035-.363.31a1.5 1.5 0 0 1-.193.616c-.231.349.292 1.067.734 1.008.403-.054.326-.354-.11-.43-.172-.031-.295-.159-.272-.287.063-.355.317-.383.61-.068.296.319.973.502 1.013.274.015-.082.253-.158.528-.169.56-.024.765-.446.261-.535-.177-.031-.309-.129-.293-.217s.173-.135.35-.104.31.129.294.217.189.199.454.246c.578.101.73-.272.22-.54-.32-.168-.32-.181-.01-.205.18-.015.342.058.358.163.038.259.912.394 1.115.173.178-.193.625-.395 1.318-.596.24-.071.55-.202.686-.293.137-.091.425-.134.64-.097s.404-.005.42-.096.223-.202.459-.247.443-.156.459-.246c.016-.091.21-.133.431-.094.222.039.39.143.375.231s-.09.15-.165.137c-.075-.014-.33.091-.565.232s-.562.233-.726.204-.308.007-.32.08c-.026.146-1.414.775-1.626.738a.23.23 0 0 0-.21.091c-.07.107-2.245.949-2.821 1.093a6 6 0 0 0-.736.269c-.261.113-.943.379-1.516.592-.572.212-1.086.429-1.141.481-.055.053-.255.115-.443.14-.493.063-1.543.763-1.596 1.065-.075.42.391.555.952.276.653-.325 1.25-.256 1.103.128-.057.148-.25.272-.43.275s-.418.086-.529.185a.9.9 0 0 1-.505.182c-.527.005-1.007.704-.894 1.304.057.302.03.543-.065.581-.25.099-.244.362.007.406.124.022.286-.061.36-.185s.32-.193.543-.153c.224.039.421-.003.437-.093.016-.091.205-.207.42-.26.354-.085.958-.294 3.051-1.058.39-.142.868-.307 1.061-.367.193-.059.83-.285 1.417-.502s1.5-.522 2.03-.678 1.038-.365 1.128-.463.294-.155.453-.127.48-.063.71-.202c.232-.138.766-.349 1.188-.468.42-.119.818-.276.882-.348.16-.18.749-.06.713.145-.017.091-.165.191-.33.223a1.7 1.7 0 0 0-.55.229c-.138.095-.338.157-.445.139-.107-.019-.344.088-.527.238-.183.151-.442.254-.576.231s-.253.011-.265.078c-.012.066-.458.264-.99.441-.534.177-.98.371-.99.432-.01.06-.233.157-.494.214-.64.139-1.201.352-1.615.612-.19.119-.457.195-.595.171a.41.41 0 0 0-.387.181c-.075.123-.285.198-.468.166s-.393.043-.467.167c-.075.123-.236.207-.359.185s-.339.09-.48.247a.76.76 0 0 1-.622.223c-.216-.038-.382.033-.407.177a.244.244 0 0 0 .199.283c.133.024.229.115.213.203-.04.223-.64.097-.675-.14-.017-.117-.176-.173-.403-.142-.463.061-.54.33-.115.404.516.091.472.362-.079.484-.284.064-.527.178-.541.256s-.243.103-.508.057c-.266-.047-.47-.157-.455-.246.038-.215-.4-.283-.572-.089-.075.084.009.219.186.3.427.196.377.355-.153.493-.24.062-.449.186-.465.276-.015.091-.214.132-.441.092-.664-.117-.64.735.03 1.06.273.132.485.307.47.387-.013.081.156.062.377-.041.222-.103.5-.17.62-.149.119.021.345-.051.501-.161a.94.94 0 0 1 .6-.143c.173.03.376-.046.451-.169.074-.124.208-.212.297-.197.13.023 1.99-.624 3.5-1.217.147-.058.504-.176.793-.263s.807-.268 1.151-.403 1.18-.427 1.858-.648c2.175-.709 2.448-.807 2.709-.972a.92.92 0 0 1 .566-.109c.17.03.323-.016.338-.104.016-.086.283-.226.595-.308.312-.083.888-.278 1.28-.433.393-.156.834-.265.98-.244a.43.43 0 0 0 .402-.185c.148-.246.731-.211.835.051.036.089-.155.172-.424.184-.269.011-.547.117-.619.236s-.277.19-.457.158c-.18-.031-.34.016-.356.107-.016.09-.244.216-.506.281-.263.064-.52.149-.573.189-.198.151-1.651.743-2.327.948-.24.074-.513.216-.604.315-.09.1-.27.163-.4.141-.129-.023-.384.081-.567.231s-.447.253-.587.229a.72.72 0 0 0-.465.103c-.26.181-.88.416-1.52.577-.262.066-.488.178-.5.25-.013.071-.217.166-.453.211-.465.089-.633.386-.256.452.128.023.262.116.299.207.119.3-.227.29-.63-.018-.388-.296-.878-.334-.925-.071-.013.073.12.207.296.299.232.121.262.206.11.312-.151.106-.251.084-.367-.081-.188-.267-.888-.423-.927-.206-.014.082.11.221.278.308.355.185.361.477.008.415-.133-.023-.423.104-.644.282-.384.311-1.026.253-.966-.086.014-.078-.12-.168-.298-.199-.177-.031-.334.016-.35.104-.016.089.117.186.293.218.178.031.312.118.298.195-.074.419 1.581.612 2.534.295.958-.319 1.789-.329 1.734-.02-.015.088.113.185.285.215s.37-.01.44-.088c.072-.082-.05-.175-.285-.216-.226-.04-.398-.147-.382-.238.05-.28.547-.284.95-.008.275.189.442.223.588.12.147-.103.108-.188-.138-.3-.554-.254-.352-.508.218-.274.795.326.936.348 1.042.161.055-.097-.05-.254-.233-.349-.258-.134-.277-.195-.087-.271.14-.056.3-.019.372.084.209.297 1.023.372 1.072.098.023-.132-.08-.262-.232-.289-.225-.04-.23-.077-.024-.212.199-.13.256-.12.287.051.054.3.798.399.962.127.075-.123.263-.202.42-.174a.74.74 0 0 0 .529-.156.75.75 0 0 1 .536-.155c.16.029.342-.005.404-.073.06-.069.566-.26 1.122-.424s1.123-.373 1.26-.463c.343-.227.878-.106.827.186-.024.132-.14.224-.26.203s-.41.077-.645.218-.518.241-.628.221-.26.066-.335.19-.28.2-.457.169c-.177-.032-.425.074-.55.234-.127.16-.372.266-.546.236s-.336.052-.36.185c-.023.134.101.266.28.298.381.067.378.366-.003.44-.15.029-.333-.085-.42-.263-.17-.344-.712-.416-.874-.115-.064.118.048.216.296.259.219.038.42.186.448.327.066.341.638.431.877.139.108-.131.336-.18.533-.113.433.147.4.44-.05.432-.186-.004-.35.064-.365.151-.016.088-.252.195-.524.239-.273.044-.557.214-.633.377q-.135.3-.598.237c-.325-.042-.253.013.242.186 1.076.377 2.568.453 3.491.177.88-.262 1.34-.261 1.293.002-.016.088.116.185.293.216.178.032.333 0 .345-.07.023-.13 1.957-.685 2.225-.638.082.014.604-.126 1.161-.311.935-.312 1.024-.314 1.165-.029.094.192.305.31.557.313l.404.004-.4-.292c-.4-.292-.376-.57.043-.497.53.093.987.987.606 1.182-.317.162-.25.196.72.371.804.146 1.101.138 1.203-.031.075-.124.311-.194.526-.156.215.037.451-.033.526-.157.074-.123.31-.194.526-.156.214.038.45-.033.526-.156.074-.124.24-.207.37-.184s.346-.032.483-.123c.137-.089 1.116-.421 2.177-.736s2.043-.649 2.185-.743c.288-.191.77-.071.691.171-.027.087-.22.153-.429.148-.208-.005-.454.082-.547.194s-.258.187-.367.168-.347.088-.53.238c-.183.151-.478.248-.657.217-.177-.031-.341.044-.363.166s-.229.237-.46.254c-.23.017-.433.101-.448.188s.153.19.375.229c.258.045.418-.02.447-.182.031-.178.167-.215.466-.125.557.167.587.503.048.541-.478.034-.606.284-.254.495.127.076.303.371.392.656.15.476.214.519.8.523.35.002.895.126 1.21.275.598.284 1.171.19 3.021-.497 1.454-.54 2.106-.738 2.314-.701.118.021.33-.058.467-.174.308-.262 1.628-.619 1.781-.483.205.182-.12.367-.52.297-.224-.039-.41.025-.431.151-.042.236-1.291.872-1.606.817-.342-.06-.283.406.07.568.281.128.299.188.098.326s-.277.108-.412-.165c-.158-.316-.843-.416-.89-.13-.068.409 1.404.921 1.619.564.075-.124.32-.193.543-.154s.42 0 .436-.089.18-.134.365-.102.492-.075.68-.239c.218-.189.436-.244.594-.15.347.209.262.449-.181.509a1.7 1.7 0 0 0-.635.232c-.142.099-.362.162-.488.14-.25-.044-.313.101-.23.526.072.372.698.452 1.4.177.623-.243 1.404-.192 1.521.101.04.098.2.201.356.228.157.028.35.267.429.531.395 1.33.259 1.268 4.259 1.929 2.756.456 3.647.552 3.812.412.118-.1.38-.153.58-.118.201.035.427-.037.501-.16.075-.124.31-.195.524-.157.213.037.459.192.545.344s.29.3.45.328c.162.028.325.131.365.23.087.219.686.341.72.146.015-.079-.128-.213-.317-.299-.271-.125-.294-.191-.11-.321.183-.127.27-.113.394.064.224.32 1 .422 1.161.154.075-.124.315-.194.534-.155.219.038.454.007.523-.07.204-.228 2.613-.859 2.765-.724.077.069-.03.155-.236.193-.207.038-.438.171-.514.297s-.27.205-.433.176c-.36-.063-.62.193-.448.439.144.205.594.124 1.677-.3 1.384-.544 1.54-.126.168.455-.494.208-.907.432-.919.499-.012.066-.233.154-.49.195-.447.072-.431.089.31.342.795.271 2.116.019 3.502-.669.424-.21.71-.137.657.167-.016.086-.226.193-.468.239-.52.1-.462.413.096.511.276.048.377.158.34.367-.062.352.615.418.995.097a.7.7 0 0 1 .517-.139c.161.028.346-.008.41-.08.322-.36 2.032-.646 1.976-.33-.015.088-.095.149-.177.134s-.261.048-.398.139-.838.425-1.558.742c-1.582.699-1.489 1.601.109 1.044a39 39 0 0 1 1.352-.423c.5-.148.967-.334 1.037-.412.07-.079.25-.116.398-.083.166.038.187.078.054.106a.37.37 0 0 0-.256.279c-.023.128-.176.256-.342.286-.165.028-.684.27-1.156.537-.47.266-.936.471-1.034.453-.099-.017-.19.029-.203.101-.046.264 1.787.514 2.141.292.233-.146.59-.158 1.155-.038.45.096.937.107 1.081.024.556-.316 1.982-.605 2.057-.417.077.193-.77.749-1.259.827-.448.07-.787.688-.594 1.08.156.317.181.322.523.108.196-.124.444-.209.549-.191.104.018.348-.031.542-.109.273-.11.456-.079.822.138.366.216.523.243.701.119.21-.147.626-.283 1.904-.622.715-.189.695.007-.053.546-1.23.887-.717 1.426.85.895 1.034-.351 1.128-.353 1.07-.026-.023.133-.115.229-.204.213-.23-.041-.25.253-.065 1.006.157.634 1.039 1.485 1.653 1.593.266.047.551.519.7 1.158.133.572.448.654 1.177.307.713-.339.786-1.278.237-3.015-.213-.675-.318-1.321-.242-1.487.075-.162.075-.443.002-.625-.161-.399.591-1.027 1.544-1.29.43-.118.605-.266.656-.555.089-.499-.152-.54-1.194-.201-1.132.367-1.34.277-.554-.241 1.334-.877 1.397-.953 1.181-1.416-.106-.227-.17-.537-.144-.689.076-.429-.106-.481-.907-.263-.792.217-1.622.005-.915-.233 1.013-.34 2.11-1.126 2.188-1.569.196-1.109-.04-1.22-1.619-.762-.607.177-1.192.266-1.3.198q-.19-.123.185-.171c.21-.025.4-.146.421-.268.022-.122.102-.212.177-.198.452.079 1.84-.882 1.92-1.328.101-.573.136-.564-.888-.231-.456.148-.921.253-1.035.233s-.34.057-.504.172-.419.152-.566.084c-.227-.106-.21-.133.114-.177.21-.029.4-.145.42-.258s.225-.218.456-.235c.232-.016.438-.129.46-.251.022-.121.228-.234.46-.251.23-.016.432-.101.448-.187.043-.246-.549-.288-.82-.058-.134.113-.416.176-.626.139-.233-.041-.366-.162-.34-.309.023-.132.14-.223.26-.202s.445-.109.724-.288.593-.315.7-.302c.108.013.029-.079-.176-.205-.286-.176-.422-.179-.597-.011-.228.218-.942.199-.885-.023.016-.065.41-.282.873-.482 1.425-.612 1.298-1.436-.149-.965-.318.103-.694.261-.835.351a.9.9 0 0 1-.556.109c-.166-.029-.358.012-.43.091-.07.078-.304.111-.52.073s-.38-.141-.365-.229.21-.129.431-.09c.248.043.42-.02.445-.167.023-.131.231-.252.462-.269.232-.016.432-.094.446-.173s-.155-.175-.377-.214c-.25-.044-.418.02-.445.17q-.043.241-.526.157-.483-.085-.525.156c-.024.133-.183.217-.352.187-.17-.03-.55.032-.844.139-.295.106-.576.134-.626.062-.123-.174.943-.905 1.33-.912.484-.008.55-.354.106-.552-.469-.209-.382-.526.14-.511q.358.01.314.262c-.029.162.1.277.358.323.585.103.523-.113-.172-.594-.482-.334-.678-.394-.939-.289-.406.164-1.207.042-1.03-.156.07-.079.264-.12.43-.09s.374-.084.461-.251c.097-.186.3-.278.524-.239.816.143.592-.818-.565-2.422a331 331 0 0 1-1.844-2.599c-.602-.858-1.208-1.58-1.346-1.604-.28-.049-1.271.246-1.664.495-.14.09-.355.145-.476.124-.305-.054-.44-.456-.168-.496.123-.019.374-.14.56-.27.186-.129.47-.238.63-.241.446-.008.56-.373.141-.446-.197-.035-.424-.198-.505-.363s-.24-.263-.353-.218c-.312.124-.289.331.054.487.169.078.293.22.276.317-.04.22-.631.129-.727-.113-.09-.223-.848-.368-.883-.168-.015.082-.247.158-.517.169s-.595.109-.723.218a.73.73 0 0 1-.518.147c-.157-.028-.346.051-.42.175-.151.25-.968.176-.922-.084.016-.09.223-.201.459-.246.236-.046.443-.157.459-.247s.127-.147.246-.127c.12.021.41-.077.645-.218s.526-.239.645-.218c.12.021.228-.025.242-.103s.258-.193.544-.256c.285-.063.529-.174.541-.246.013-.071.195-.151.405-.176s.565-.162.788-.304l.407-.258-.427-.887c-.235-.487-.53-.904-.654-.926s-.205-.166-.179-.322c.026-.154.033-.45.015-.657-.025-.288.062-.396.375-.465.796-.174 1.359-.565 1.067-.74-.152-.091-.383-.068-.561.057-.166.116-.39.196-.496.177-.107-.019-.345.089-.528.239s-.483.247-.665.215c-.184-.032-.302.021-.263.119.04.098.249.21.465.248.526.092.448.694-.087.677-.457-.015-.673.458-.289.632.22.1.2.117-.088.081-.201-.024-.353-.117-.337-.206s-.153-.192-.374-.231c-.251-.044-.42.021-.446.171q-.042.24-.526.156c-.587-.103-.588-.315 0-.467.593-.153.598-.422.01-.525q-.483-.085-.525.156c-.024.135-.187.216-.37.184-.18-.032-.388.043-.463.167-.074.123-.3.196-.5.161-.202-.036-.476.028-.61.141-.27.23-1.024.161-.98-.089.016-.089.246-.123.512-.076.325.057.497.005.526-.16.024-.135.22-.29.435-.345.617-.158 1.065-.343 1.845-.762.398-.214.896-.411 1.107-.438s.394-.118.41-.203c.014-.084.22-.191.456-.236s.443-.156.46-.246c.015-.091.205-.135.421-.097.467.082.714-.136.526-.465-.095-.167-.073-.279.078-.384.358-.251.06-1.188-.405-1.27-.467-.082-.587.321-.155.518.438.2.323.506-.157.422-.222-.039-.39-.142-.375-.229.015-.086-.148-.236-.363-.332-.46-.205-.365-.521.151-.507.198.006.371-.059.386-.143s.229-.192.475-.239c.305-.059.43-.171.394-.355a2.1 2.1 0 0 1 .008-.617c.045-.263-.143-.498-.76-.952l-.822-.604-.813.233c-.447.129-.858.272-.912.319s-.531.212-1.061.367-1.158.348-1.395.43c-.428.147-.686.069-.64-.193.014-.074.255-.173.537-.219.659-.107.656-.141-.054-.662-.507-.372-.632-.408-.857-.25a.93.93 0 0 1-.6.125c-.183-.032-.484.064-.667.214-.183.151-.454.252-.602.226a.42.42 0 0 0-.404.178c-.075.123-.311.194-.526.156s-.451.033-.526.156c-.074.124-.284.199-.467.167s-.393.043-.468.166c-.077.129-.335.19-.6.143-.257-.045-.48-.008-.496.083-.016.09-.244.217-.506.282-.263.064-.59.192-.727.283-.298.199-.881.124-.84-.108.016-.091.254-.17.529-.177s.518-.111.54-.232a.225.225 0 0 1 .258-.183c.122.021.43-.074.686-.211s.584-.229.728-.203a.42.42 0 0 0 .397-.179c.075-.124.231-.208.349-.188.117.021.36-.067.543-.193.383-.268.88-.466 1.53-.609.254-.056.52-.198.59-.316.071-.118.277-.189.457-.157.401.07.476-.218.148-.572-.233-.25-.231-.26.039-.219.155.025.269.117.253.206-.053.299.76.307.995.009.126-.16.364-.268.528-.239s.36-.049.435-.172c.075-.124.282-.199.462-.168.184.033.346-.048.37-.183s-.1-.266-.279-.298c-.389-.068-.375-.366.02-.443.165-.032.342.066.426.238.092.187.28.281.515.263.344-.029.353-.048.126-.285-.176-.182-.2-.43-.086-.88.131-.521.098-.682-.203-.964-.462-.434-1.024-.547-.955-.194a.41.41 0 0 0 .307.303c.2.035.205.08.028.204-.176.123-.262.108-.386-.068-.223-.319-.883-.403-1.045-.134-.075.124-.269.202-.432.173s-.373.039-.465.151c-.094.111-.35.197-.569.19-.532-.017-.689.317-.265.564.242.14.275.223.115.287-.123.049-.291-.006-.372-.121-.203-.29-.74-.352-1.164-.135-.195.1-.478.159-.628.133a.43.43 0 0 0-.41.177c-.074.123-.237.206-.362.185-.125-.022-.337.052-.47.166a.75.75 0 0 1-.538.154c-.161-.029-.369.036-.461.142-.167.194-.398.281-2.132.796-.5.149-.967.335-1.038.414-.07.078-.226.125-.345.104-.12-.021-.648.147-1.174.374s-1.053.396-1.172.375-.344.051-.5.16c-.323.225-.759.2-.716-.043.016-.088.096-.149.178-.134s.261-.051.399-.145c.137-.094.717-.347 1.288-.562 1.287-.483 1.518-.573 2.08-.809 2.292-.965 3.012-1.242 3.34-1.285.21-.027.393-.108.406-.18.012-.072.256-.182.541-.245.285-.064.529-.174.542-.245.012-.072.195-.153.405-.179s.719-.195 1.13-.376c.412-.181.909-.351 1.104-.377s.369-.115.383-.197c.015-.083.124-.133.244-.112.119.021.41-.077.645-.218s.492-.245.571-.232c.148.026 1.103-.394 1.548-.68.14-.09.347-.146.463-.126.28.049.679-1.126.533-1.569-.136-.415-.302-.464-.628-.188-.282.239-.969.164-1.01-.11-.015-.103-.212-.189-.437-.19l-.409-.002.42.269c.23.147.36.333.29.412-.167.186-.923.053-.886-.156.016-.088-.152-.192-.374-.231-.221-.039-.415.001-.43.09s.116.186.293.217c.177.032.303.161.28.288-.062.356-.346.394-.569.078-.234-.335-.853-.485-.9-.22-.017.101.078.302.212.446.232.251.23.261-.038.219-.156-.024-.27-.116-.255-.205.048-.273-.544-.278-.995-.009-.235.141-.517.241-.625.222s-.306.058-.44.171-.37.184-.526.156a.74.74 0 0 0-.526.156.76.76 0 0 1-.55.152c-.17-.029-.369.048-.443.171s-.267.202-.428.174a.86.86 0 0 0-.543.113 3.3 3.3 0 0 1-.687.301c-.764.234-1.26.43-1.479.582-.116.082-.378.119-.582.083s-.383.011-.4.104c-.017.094-.26.207-.543.253-.282.045-.521.131-.531.19-.029.158-1.759.608-1.849.48-.13-.188.181-.419.492-.364.162.028.356-.049.43-.173s.236-.207.358-.186c.121.021.378-.083.57-.231.19-.149.482-.247.645-.218s.309-.017.324-.1c.027-.153.59-.386 1.478-.611.263-.067.489-.182.502-.255s.254-.172.536-.218c.282-.045.525-.148.539-.228s.123-.128.242-.107c.12.021.41-.077.645-.218s.526-.239.645-.218c.12.021.229-.026.242-.103.014-.078.278-.195.586-.261.309-.066.605-.153.657-.195.224-.175 1.27-.614 1.406-.591.082.015.257-.065.389-.178s.606-.308 1.052-.435a15 15 0 0 0 1.667-.621c.471-.215.93-.377 1.019-.362a.17.17 0 0 0 .192-.14c.017-.093.253-.205.524-.249.674-.11.632-.63-.07-.895-.285-.106-.539-.307-.566-.446-.064-.328-.47-.397-.643-.108-.075.123-.319.192-.543.153-.266-.047-.424.018-.453.184-.025.141-.197.269-.382.284s-.348.092-.362.17-.243.103-.508.057c-.266-.047-.474-.14-.462-.207.022-.122.195-.194 1.18-.492.281-.085.586-.237.677-.337a.5.5 0 0 1 .406-.139c.32.056 1.913-1.049 1.97-1.367.053-.303-.178-.538-.346-.35-.067.075-.534.261-1.039.412-.504.152-1.238.4-1.63.55s-.829.3-.971.33l-.432.096a7 7 0 0 0-.712.265 21 21 0 0 1-1.416.509c-.483.154-.924.327-.981.383-.161.16-1.582.57-1.826.527-.12-.021-.28.063-.354.187-.075.123-.323.191-.553.151-.549-.096-.4-.23.618-.555.46-.146.992-.37 1.18-.496.189-.127.418-.217.51-.201.183.032.55-.15 1.047-.52.174-.129.434-.214.578-.189s.418-.076.61-.224c.19-.149.474-.248.628-.221s.34-.052.415-.176.235-.207.357-.186c.122.022.379-.083.57-.232.191-.148.482-.246.645-.218.163.029.317-.056.34-.188q.043-.241.526-.157c.58.102.735-.286.223-.554-.327-.171-.328-.181-.004-.234a.53.53 0 0 1 .525.21c.138.197.241.227.398.116.155-.11.144-.205-.046-.36-.309-.254-.137-.501.297-.425.392.069.49-.379.162-.735-.226-.243-.217-.259.119-.205.2.033.35.131.334.22-.036.203.556.316.716.137.066-.074-.022-.276-.197-.449l-.315-.315.431-.201.431-.201-.337-.197c-.408-.238-.273-.579.224-.565.716.02 1.099-1.943.388-1.988-.222-.014-.452.021-.512.08-.06.056-.305.16-.546.228-.24.068-.916.297-1.501.508-.586.212-1.48.516-1.988.676-.507.16-.933.345-.944.412-.012.067-.248.131-.524.143s-.512.08-.525.153-.237.179-.498.236c-.721.157-2.325.698-2.565.866-.264.185-1.022.07-.845-.127.07-.079.26-.121.423-.092s.356-.049.431-.173c.074-.124.29-.198.478-.165a.435.435 0 0 0 .483-.246c.078-.169.275-.284.438-.255.164.029.402-.079.528-.239a.68.68 0 0 1 .626-.221c.218.038.41-.003.425-.091.045-.25-.709-.32-.98-.09a.76.76 0 0 1-.55.152c-.17-.029-.369.048-.444.171-.074.124-.273.201-.441.171-.169-.029-.457.069-.64.22-.182.15-.452.252-.599.226s-.376.046-.51.159a.75.75 0 0 1-.527.156c-.157-.028-.347.051-.421.175-.075.123-.311.193-.526.156s-.451.032-.525.156c-.15.248-.968.178-.923-.079.016-.088.128-.143.248-.122.122.021.43-.073.687-.211.256-.137.579-.23.717-.206s.353-.087.48-.247c.126-.16.336-.272.465-.25.13.023.247-.023.261-.103s.24-.189.5-.243c.261-.055.96-.311 1.554-.57.594-.26 1.238-.524 1.432-.587s.644-.227 1.001-.364c.357-.138 1.096-.419 1.643-.625s1.048-.435 1.114-.508c.066-.075.261-.11.433-.08s.324-.009.337-.087c.014-.077.256-.192.538-.254.584-.13.893-.577.67-.968a.56.56 0 0 1-.002-.514c.083-.136.063-.387-.044-.557-.21-.334 1.013-1.157 1.574-1.058.282.05 1.754-.205 1.9-.328.054-.045.47-.218.925-.383.896-.327 1.463-1.238 1.13-1.82-.115-.203-.065-.284.237-.382.239-.079.336-.193.258-.303-.14-.201-.684-.143-.723.077-.014.079-.13.125-.256.103s-.347.042-.491.142-.691.31-1.215.466c-1.54.456-2.002.609-2.106.695-.053.046-.49.2-.97.343-.481.143-.987.334-1.126.424a.88.88 0 0 1-.544.111c-.162-.028-.349.041-.417.154-.17.283-.995.285-.944.002.02-.119.227-.23.458-.246.231-.017.432-.097.446-.177.015-.082.203-.195.419-.252.558-.148 1.554-.514 3.247-1.19.193-.077.78-.31 1.307-.517.526-.206 1.17-.47 1.431-.583a10 10 0 0 1 1-.36c1.543-.451 2.377-1.108 2.906-2.289.2-.446.003-.577-.38-.253m-10.05-1.37c-.027.15-.73.259-.822.129-.029-.041.01-.143.085-.227.163-.184.772-.103.736.099m-1.178.493c-.47.095-.745.044-.714-.13.03-.169.699-.197.91-.04.075.057-.014.133-.196.17M29.175 78.53c-.016.088-.137.142-.27.118s-.229-.114-.213-.202c.015-.089.137-.142.27-.119s.229.115.213.203m-2.823.002c-.016.088-.228.124-.47.08-.345-.062-.384-.105-.174-.193.35-.149.68-.09.644.113m-8.175-.314c-.206.093-.553.604-.426.627.101.018.83-.495.848-.597.02-.116-.197-.132-.422-.03m20.399 5.755c.072.18-.603.274-.787.11-.066-.06-.067-.168-.002-.24.152-.17.706-.078.789.13m-1.051.314c.067.168-.322.292-.707.225-.324-.057-.233-.333.12-.362.48-.039.52-.03.587.137m-19.51-2.744c-.015.088-.213.127-.44.088-.234-.041-.357-.134-.284-.215.07-.08.268-.12.44-.09.172.031.3.128.284.217m-1.051.312c-.016.088-.191.13-.39.095-.293-.054-.31-.088-.093-.18.348-.146.518-.116.483.085m61.15 11.894c-.016.089-.214.129-.44.089-.234-.041-.357-.134-.285-.216.07-.078.269-.118.44-.088.172.03.3.127.285.215m-1.049.296c-.028.163-.558.299-.65.167-.034-.048 0-.156.075-.24.165-.184.61-.128.575.073m3.286 1.295a.31.31 0 0 1-.36-.02c-.13-.115-.115-.174.062-.245.305-.122.545.092.298.265M12.848 83.535c-.024.133.042.256.145.274s.141.066.086.105c-.137.096-.887-.427-.857-.598.014-.074.17-.11.346-.079.18.032.303.164.28.298m63.054 10.986c-.474.112-.597.09-.564-.099.016-.088.227-.12.47-.071.39.079.4.098.094.17M11.738 83.837c.028.142.223.288.435.325s.373.14.357.229-.21.13-.431.09c-.221-.039-.391-.134-.377-.213.014-.077-.12-.208-.298-.29-.178-.08-.261-.215-.186-.3.196-.219.441-.14.5.16M75.01 94.862c-.07.08-.236.125-.369.101s-.184-.107-.114-.186.237-.124.37-.1c.133.022.184.106.113.185M7.624 84.814c-.97.85-.885 1.182.221.859.747-.22.818-.325.513-.76-.266-.379-.393-.396-.734-.099M79.4 98.483c.124.176.21.191.387.068.177-.124.141-.174-.16-.227-.3-.053-.35-.017-.227.159m-1.013.286c-.016.088.08.18.213.203s.255-.03.27-.118-.08-.18-.213-.203-.254.03-.27.118M8.243 87.036c-.023.132-.11.229-.194.214-.204-.035-.304-.312-.153-.418.214-.149.391-.045.347.204m69.303 12.027c-.118.025-.228.117-.243.204-.037.205.636.22.68.015.04-.187-.144-.28-.437-.219m-.973.34c-.161.008-.305.082-.32.164-.034.194.564.298.718.125.155-.174-.028-.307-.398-.29m5.072 1.595c-.016.088-.178.135-.36.103-.183-.032-.274-.123-.204-.202s.233-.125.36-.103c.128.023.22.113.204.202m-.889.331c-.015.083-.111.185-.214.226-.262.104-.67-.167-.513-.342.163-.182.763-.086.727.116M12.188 89.841c-.123.228-.831.236-.791.01.025-.141.317-.22.756-.204.075.002.091.09.035.194m67.531 11.996c-.15.105-.285.083-.476-.079-.233-.196-.208-.215.21-.146.346.057.419.119.266.225M19.61 91.765a.4.4 0 0 1-.336.107c-.114-.02-.363.085-.555.234-.192.148-.476.248-.632.22s-.32.009-.362.08c-.123.204-.848.254-.813.056.017-.094.173-.146.347-.115s.42-.076.546-.236a.68.68 0 0 1 .626-.222c.245.044.413-.022.44-.17.027-.152.195-.215.454-.17.234.041.357.134.285.216m10.224 1.795c-.015.088-.213.128-.44.088-.234-.041-.357-.134-.284-.215.07-.08.268-.119.44-.089s.3.127.284.216m-5.72-.507c-.016.088-.178.134-.36.102-.183-.032-.275-.123-.205-.201.071-.08.233-.125.36-.103.128.023.22.113.204.202m47.682 9.051c-.321.132-.652.071-.62-.115.03-.169.55-.226.738-.081.069.053.016.141-.118.196M22.9 93.542c-.295.083-.44.054-.554-.109-.118-.168-.023-.195.399-.112.52.102.53.115.154.22m4.83.847c-.295.084-.44.055-.553-.108-.118-.168-.024-.195.399-.112.52.102.529.115.154.22m41.188 7.689c-.07.079-.268.119-.44.089-.172-.031-.3-.128-.284-.216.015-.088.214-.128.44-.088.234.041.357.134.284.215m-1.22.265c.035.089-.05.182-.187.209-.27.052-.448-.186-.247-.327.172-.12.36-.068.434.118m10.152 1.8c.04.098-.082.151-.27.118-.187-.032-.283-.124-.213-.203.07-.078.192-.131.27-.118s.174.105.213.203m-11.04-1.178c-.048.034-.21-.013-.36-.102-.26-.156-.257-.167.056-.221.3-.051.514.176.304.323m-40.847-6.77c-.07.079-.236.124-.37.1-.132-.023-.183-.106-.113-.185.07-.08.237-.124.37-.101.132.023.183.107.113.186m-.89.34c.039.099-.079.153-.26.12-.183-.031-.32-.13-.304-.218.016-.089.133-.143.26-.12.128.022.264.12.304.219m-1.08.474c-.071.078-.27.118-.44.088-.173-.03-.3-.127-.285-.215.016-.089.214-.129.44-.089.234.041.357.134.285.216m1.122.694c-.016.088-.173.135-.35.104-.178-.031-.31-.129-.294-.217.015-.089.173-.136.35-.104.177.03.31.129.294.217m52.04 9.673c-.119.22-.833.241-.795.025.04-.229.253-.327.587-.268.175.031.265.136.207.243m-54.157-8.84c-.105.072-.311.059-.459-.03-.217-.13-.221-.18-.022-.258.331-.132.734.11.48.287m-.905.293c-.016.089-.214.129-.44.089-.235-.041-.357-.134-.285-.216.07-.078.269-.118.44-.088.173.03.3.127.285.215m58.436 10.342c-.047.27-.02.286.365.212.383-.075.384-.329 0-.397-.179-.031-.34.05-.365.185m-59.374-9.968c-.056.104-.246.19-.421.193-.176.001-.47.115-.655.252-.185.138-.44.187-.566.111-.302-.18-.133-.478.273-.483.175-.002.395-.094.487-.204.213-.254 1.026-.133.882.132m49.803 8.701c-.016.089-.214.129-.44.089-.234-.041-.357-.134-.285-.216.07-.078.269-.118.441-.088s.3.127.284.215m-1.17.469c-.154.174-.752.07-.717-.124.029-.164.545-.23.725-.094.061.047.058.145-.007.218M2.423 96.495c-.034.255.323.761.567.804.402.07.561-.246.205-.409-.178-.082-.311-.212-.298-.29s-.083-.16-.216-.184-.249.012-.258.079m66.244 12.167c-.016.089-.138.142-.27.119-.133-.024-.23-.115-.213-.204.015-.088.137-.141.27-.118.132.023.228.115.213.203m-54.6-9.076c-.075.084-.104.2-.063.257.113.161.926.064.958-.114.037-.214-.724-.335-.895-.143m-.674.326c-.161.008-.305.081-.32.163-.034.194.564.299.719.126.155-.174-.03-.307-.399-.29m-1.208.493c-.015.088.117.185.294.216.177.032.335-.015.35-.103.016-.089-.116-.187-.293-.218s-.335.016-.35.105m5.797 1.017c-.016.088-.173.135-.35.104-.178-.031-.31-.129-.294-.217.015-.089.173-.135.35-.104.178.031.31.129.294.217m-6.731-.74c-.26.182-.153.312.25.306.229-.004.427-.071.44-.148.03-.166-.505-.288-.69-.158m1.962.483c-.033.187.073.268.37.283.229.011.43-.052.445-.14s-.15-.216-.37-.283c-.284-.087-.412-.047-.445.14m3.79.563c.035.087-.088.171-.272.185-.341.029-.542-.177-.323-.33.176-.123.522-.039.595.145m-6.95-.538c-.015.089.077.179.204.202.128.022.29-.024.36-.103s-.021-.169-.203-.201-.345.014-.36.102m2.094.367c-.015.089.112.186.284.216s.37-.009.44-.088c.073-.081-.05-.175-.284-.216-.226-.039-.424 0-.44.088m3.784.665c-.07.079-.228.126-.35.104-.123-.021-.255-.119-.294-.217-.04-.102.11-.146.35-.104s.367.135.294.217m-6.768-.691c-.015.088.076.179.204.201.127.023.29-.023.36-.102s-.021-.169-.204-.201c-.182-.032-.344.014-.36.102m2.174.381c-.07.079.021.17.204.202.182.032.344-.014.36-.103.015-.088-.076-.178-.204-.201-.128-.022-.29.024-.36.102m-3.145-.055c-.073.082.054.176.294.218s.391-.003.35-.104c-.039-.098-.17-.196-.293-.217-.122-.022-.28.025-.35.103m2.135.315a.2.2 0 0 0-.067.222c.07.177.72.125.754-.061.028-.162-.505-.288-.687-.161m68.473 12.08c-.016.089-.137.142-.27.119-.133-.024-.229-.115-.213-.204s.137-.141.27-.117.229.114.213.202m-67.145-11.324c-.184.007-.41.103-.502.213a.48.48 0 0 1-.402.16c-.129-.023-.247.031-.262.12-.016.088.116.186.294.217.177.031.334-.016.35-.104.016-.089.123-.144.24-.124.295.052.908-.27.748-.394-.072-.056-.282-.096-.465-.088m-4.623-.611c-.036.201.135.231.483.085.217-.092.2-.126-.093-.18-.199-.036-.374.006-.39.095m2.174.381c.038.099.211.203.383.234.172.03.326-.018.341-.106.016-.089-.157-.194-.384-.234-.233-.041-.38.005-.34.106m-.891.341c-.07.079.021.17.204.202.182.032.344-.014.36-.103.015-.088-.076-.179-.204-.202-.128-.022-.29.024-.36.103m7.004 1.23c-.015.088-.177.134-.36.102-.182-.032-.274-.122-.203-.201.07-.079.232-.125.36-.103s.219.113.203.202m-5.876-.541c-.226.092-.227.13-.005.263.307.184.762.122.804-.111.036-.206-.445-.297-.799-.152m4.744.839c.04.098-.082.152-.27.119-.187-.033-.283-.125-.213-.204.071-.079.193-.132.27-.118s.174.105.213.203m67.16 11.989c.124.176.21.191.387.067.177-.123.142-.174-.16-.226-.3-.053-.35-.018-.226.159m-72.99-12.349c-.016.088.112.185.284.215.173.03.37-.01.44-.088.074-.082-.05-.175-.283-.216-.227-.04-.425 0-.44.089m4.83.848c-.35.148-.679.09-.643-.113.016-.089.228-.125.47-.081.345.062.384.105.174.194m66.986 11.759c-.016.088.117.185.294.216.176.032.334-.015.35-.103.015-.089-.117-.187-.294-.218s-.334.016-.35.105m-72.787-12.28c-.07.078.022.169.204.201s.344-.015.36-.103-.076-.179-.204-.201-.29.023-.36.103m72.016 12.583c-.188.132.54 1.006.835 1 .448-.007.438-.293-.024-.675-.484-.401-.623-.456-.81-.325m1.49.32c-.015.088.117.186.294.217.178.031.335-.016.35-.104.017-.088-.116-.186-.293-.217s-.335.015-.35.104m-3.021 1.126c-.016.089-.21.129-.431.091-.222-.039-.39-.143-.375-.232.016-.088.21-.129.432-.09.221.039.39.143.374.231m.72.624c-.016.088-.174.135-.351.104-.178-.031-.31-.129-.294-.217s.173-.135.35-.104c.178.031.31.129.294.217m-12.745-1.16c-.027.15-.195.214-.446.17-.5-.087-.482-.368.026-.375a4 4 0 0 0 .418-.021c.025-.009.025.093.002.226m17.616 3.718c-.053.188-.267.112-.3-.106-.017-.113.051-.16.151-.107s.167.15.15.213m-57.2-9.424c-.473.112-.596.09-.563-.099.016-.088.227-.121.469-.071.39.078.402.098.094.17m-.73.369c-.07.079-.272.118-.45.087-.176-.031-.264-.121-.193-.2.07-.079.272-.118.45-.087.177.031.264.121.194.2m-.967.308c-.026.148-.73.258-.82.128-.03-.041.009-.143.084-.227.164-.184.772-.102.736.099m-1.25.469c-.34.14-.674.084-.64-.107.026-.147.708-.204.837-.069.037.037-.052.117-.197.176m59.16 10.97q-.044.252.314.263c.53.015.651-.353.147-.442-.27-.047-.432.015-.461.179m-54.05-7.925c-.015.089-.177.135-.36.103-.182-.032-.273-.123-.203-.202s.232-.125.36-.103.22.114.204.202m52.655 9.243c-.016.089-.137.142-.27.119s-.229-.115-.213-.203c.015-.089.137-.142.27-.119s.228.115.213.203m-53.543-8.912c-.043.238-.377.315-.653.15-.216-.129-.214-.166.012-.258.342-.14.675-.084.64.108m50.47 8.853c.036.087-.062.184-.217.214-.335.065-.456-.058-.267-.271.167-.186.398-.159.485.057m-56.951-8.82c-.348.146-.519.116-.483-.085.015-.089.191-.131.39-.095.293.053.31.088.093.18m-1.049.294c-.034.192-.683.234-.757.048-.032-.081.075-.158.238-.172.487-.039.546-.025.52.124m5.467 1.477c.04.098-.052.203-.204.233-.33.064-.478-.096-.287-.31.172-.192.398-.157.491.077m-4.643.855c-.077.086-.08.241-.006.346.165.234.92.026.818-.226-.091-.231-.64-.312-.812-.12m62.956 11.12c-.015.088-.195.155-.4.149-.255-.009-.356-.095-.324-.276s.156-.228.4-.149c.194.064.34.188.324.276M19.76 119.964c-.156.175.252.447.513.342.104-.041.2-.143.214-.226.036-.202-.564-.298-.727-.116m-.984.406c-.046.259.095.324.524.24.35-.068.236-.356-.17-.427-.17-.03-.33.054-.354.187m-1.876.748c-.07.078.021.169.204.201.182.032.344-.014.36-.102.015-.089-.076-.18-.204-.202s-.29.024-.36.103m9.381 2.806c-.347.147-.518.117-.483-.085.016-.088.192-.13.39-.094.294.053.311.088.093.179m-.89.341c-.016.089-.173.136-.35.104-.178-.031-.31-.128-.294-.217.015-.088.173-.135.35-.104.178.031.31.129.294.217m-7.141-.218c-.123.229-.831.237-.791.009.025-.14.317-.219.755-.203.076.003.092.09.036.194m-1.034.44c-.015.089-.214.129-.44.089-.234-.041-.357-.135-.284-.216.07-.079.268-.119.44-.088.172.03.3.127.284.215m10.343 3.473c-.016.088-.21.129-.43.09-.222-.039-.39-.143-.375-.231s.21-.129.431-.09.39.143.374.231m-11.308-1.318c-.063.07-.219.064-.346-.012-.182-.109-.183-.16-.003-.231.27-.108.512.06.35.243m72.312 13.104c-.049.272-.079.277-.428.068-.2-.12-.202-.17-.011-.248.353-.146.487-.091.439.18M31.22 130.26c-.07.079-.237.124-.37.101-.133-.024-.184-.107-.113-.186s.236-.124.369-.101c.132.024.184.107.114.186m61.349 10.769c-.07.079-.273.118-.45.087s-.265-.121-.194-.2c.07-.078.273-.117.45-.086s.264.121.194.199m2.174.382c-.016.088.116.186.293.217s.335-.016.35-.104c.016-.088-.116-.186-.293-.217s-.335.016-.35.104m-81.096-13.96c-.257.18-.162.359.23.427.449.079.58-.14.215-.358-.293-.177-.29-.176-.445-.069m3.848 1.559c-.07.079-.27.119-.441.089-.172-.03-.3-.127-.284-.216.016-.088.214-.128.44-.088.234.041.357.134.285.215m-.972.327c-.015.089-.157.138-.314.111-.158-.028-.436.072-.62.222-.39.322-.837.291-.776-.053.024-.133.18-.217.348-.188.168.03.366-.048.44-.171.15-.248.968-.178.922.079m15.979 4.462c-.016.088-.174.135-.35.104-.177-.031-.31-.129-.294-.217s.174-.135.35-.104c.177.031.31.129.294.217m-.89.341c-.016.088-.228.124-.471.08-.345-.062-.383-.105-.174-.193.352-.148.68-.091.645.113m23.476 4.784c-.071.079-.233.125-.36.102-.129-.022-.22-.113-.204-.201.015-.088.177-.134.36-.102.182.032.273.122.203.201m-8.947-.577c-.016.089-.214.129-.44.089-.234-.041-.357-.134-.285-.216.07-.078.269-.118.44-.088.172.03.3.127.285.215m-15.012-1.967c-.062.069-.218.064-.347-.013-.181-.109-.182-.16-.002-.231.27-.108.513.061.349.244m6.992 1.315a.24.24 0 0 0 .2.274c.134.023.23.115.214.203-.05.281-.449.101-.843-.379-.343-.418-.35-.467-.066-.48.404-.019.547.091.495.382m17.575 3.042c-.242.17-.424-.026-.227-.246.076-.086.204-.097.284-.026q.147.13-.056.272m-41.873-7.4c-.016.089.152.193.374.232.22.039.415-.002.43-.091.016-.088-.152-.192-.373-.231-.222-.039-.416.002-.431.09m15.619 2.742c-.036.201-.207.171-.483-.085-.173-.16-.145-.186.149-.137.2.034.35.133.334.222m16.245 3.366c-.145.162-.587.092-.555-.087.04-.226.24-.299.46-.167.115.07.157.184.095.254m-17.297-3.053c-.015.088-.21.129-.43.09-.222-.039-.39-.143-.375-.232.016-.088.21-.129.431-.09.222.039.39.143.374.232m1.852.325c-.07.079-.253.121-.405.094s-.427.075-.61.225c-.39.321-.837.29-.776-.054.024-.135.187-.216.37-.184.18.032.389-.043.463-.167.078-.129.337-.189.61-.141.277.048.422.143.348.227m12.157 2.134c-.015.088.117.186.294.217s.334-.016.35-.104c.016-.089-.116-.187-.293-.218s-.335.016-.35.105m-.89.341c-.21.088-.172.13.173.193.243.044.455.008.47-.08.037-.203-.292-.261-.644-.113m1.771.311c-.016.088.112.185.284.215s.37-.009.44-.088c.073-.081-.05-.175-.284-.216-.226-.04-.424 0-.44.089m-31.428-5.352c-.015.088.076.179.204.202.127.022.29-.024.36-.103s-.021-.169-.204-.201c-.182-.032-.344.014-.36.102m13.191 2.609c-.482-.005-.365.305.15.396.242.042.377.162.35.31-.023.134.1.266.28.297.397.07.475-.218.117-.429a1.3 1.3 0 0 1-.392-.363c-.071-.113-.298-.209-.505-.211m24.777 4.575c.19.162.326.184.476.079.152-.106.08-.167-.267-.225-.417-.069-.443-.05-.21.146m.535.404c-.015.088.157.193.384.233.233.041.38-.005.34-.106-.038-.098-.211-.203-.383-.233s-.325.017-.34.106m-33.56-5.785c-.198.138-.023.387.314.446.172.03.332-.054.355-.186.042-.239-.435-.424-.67-.26m7.153 1.327c.015.101.096.195.18.21s.193-.046.24-.136c.05-.089-.031-.184-.18-.21-.146-.025-.255.036-.24.136m-1.161.281c-.07.079.025.17.213.203s.31-.02.27-.118-.135-.189-.213-.203-.2.039-.27.118m1.69.297c-.015.088.153.192.375.231.221.039.415-.002.43-.089.016-.089-.152-.193-.373-.232-.222-.039-.416.002-.431.09m46.68 8.295q-.044.256.226.205c.15-.029.338-.041.42-.027.08.014.16-.046.176-.134s-.152-.193-.374-.232c-.263-.046-.419.019-.449.188m6.685 1.156c-.016.088-.195.155-.4.148-.255-.008-.357-.094-.324-.276.032-.181.156-.227.4-.148.194.063.34.187.324.276m-47.814-7.979c-.217.091-.2.126.093.179.199.036.374-.007.39-.095.036-.201-.135-.231-.483-.084m36.212 6.457q-.043.256.227.205c.15-.029.338-.041.42-.027.08.015.16-.046.176-.134s-.152-.193-.374-.232c-.263-.046-.419.019-.449.188m10.048 2.326c-.015.088.08.18.213.203s.255-.03.27-.118-.08-.18-.213-.203-.254.03-.27.118" clip-rule="evenodd"/></svg>