<svg xmlns="http://www.w3.org/2000/svg" width="106" height="133" fill="none" viewBox="0 0 106 133"><path fill="#8ab4f8" d="m34.269 10.408 20.935-3.692 17.044 96.663c-10.38 3.929-18.122 6.133-26.689 7.643C20 115.529 4.645 106.353.748 84.249c-3.755-21.292 7.945-37.615 29.831-41.474 3.4-.6 6.029-.784 9.299-.522zm8.58 48.66c-2.59-.382-4.677-.292-7.259.163-10.603 1.87-15.576 9.455-13.567 20.848 1.961 11.12 8.883 16.191 19.621 14.298a50 50 0 0 0 7.111-1.81zm51.35-25.97 8.536 48.412c2.941 16.682 3.126 24.892.714 32.455-2.228 7.244-5.973 12.24-14.403 18.48l-21.066-5.796c8.481-5.97 12.295-10.554 14.121-16.892 1.94-6.494 1.674-13.577-1.53-31.75l-7.263-41.185zM67.597 4.657 88.533.964l3.783 21.458-20.935 3.691z"/></svg>