<svg xmlns="http://www.w3.org/2000/svg" width="47" height="50" fill="none" viewBox="0 0 47 50"><path fill="url(#a)" fill-opacity=".2" fill-rule="evenodd" d="m7.704 31.859-.117-.234-.114-.237-.111-.24-.108-.243-.104-.247-.101-.25-.098-.253-.093-.256-.09-.259-.084-.261-.081-.265-.076-.267-.072-.27-.067-.272-.062-.275-.057-.277-.052-.28-.047-.28-.04-.284-.037-.285-.03-.287-.024-.288-.019-.29-.012-.29L6 25.177v-.293l.005-.294.012-.294.017-.295.024-.295.03-.295.036-.296.042-.295.048-.295.055-.295.06-.294.068-.294.073-.293.08-.292.085-.29.091-.29.098-.29.104-.286.11-.286.115-.284.12-.282.128-.28.132-.28.138-.276.143-.275.149-.273.154-.27.159-.269.164-.266.168-.264.174-.262.178-.26.183-.257.187-.255.192-.253.196-.25.2-.25.204-.245.208-.244.212-.242.216-.24.22-.237.223-.235.228-.232.23-.23.236-.228.238-.226.242-.223.246-.22.25-.219.252-.215.257-.213.26-.21.264-.207.267-.204.271-.2.275-.198.278-.194.283-.19.285-.186.29-.182.293-.178.296-.173.3-.169.304-.163.307-.159.311-.153.314-.147.317-.141.32-.135.325-.13.326-.121.33-.116.332-.108.334-.101.338-.094.34-.086.34-.078.344-.07.345-.063.347-.054.348-.046.349-.037.35-.03.35-.02.351-.013.352-.004.35.004.352.012.35.02.35.03.35.036.349.044.347.051.346.059.344.066.343.073.342.08.34.086.337.093.335.099.334.104.33.11.33.117.327.12.324.127.322.13.32.136.317.14.315.143.313.147.31.151.308.155.306.158.304.162.301.164.3.167.296.17.295.173.293.175.291.178.29.18.286.183.285.185.284.187.281.19.28.192.278.195.276.197.273.2.273.2.27.205.268.207.266.21.265.212.262.215.26.218.257.22.255.225.252.227.25.23.246.234.244.236.24.24.238.245.234.247.23.252.225.254.222.26.218.262.213.266.208.27.203.273.198.278.193.281.187.285.182.289.176.292.17.295.164.3.158.301.152.305.145.308.14.311.133.313.126.316.12.318.114.32.108.323.1.323.096.326.088.327.083.328.076.33.07.33.064.331.059.332.052.332.047.333.041.333.036.333.03.334.025.333.02.333.014.332.01.332.004.332v.331l-.005.33-.01.33-.013.329-.019.328-.023.327-.027.326-.03.325-.036.324-.04.323-.044.321-.047.32-.052.32-.056.318-.06.316-.063.315-.067.314-.071.312-.075.31-.079.31-.082.308-.086.306-.09.304-.093.303-.097.3-.1.3-.105.297-.108.296-.112.293-.116.292-.12.29-.123.287-.127.285-.131.283-.135.28-.14.279-.143.275-.147.273-.151.27-.155.268-.16.264-.164.262-.167.258-.172.255-.176.252-.18.248-.184.245-.188.242-.192.237-.196.234-.199.23-.203.227-.206.222-.21.219-.213.215-.216.21-.22.207-.221.202-.225.199-.228.194-.23.19-.234.187-.235.182-.238.178-.24.174-.242.17-.244.165-.246.162-.248.157-.249.154-.25.15-.253.145-.254.142-.255.137-.256.134-.257.13-.259.126-.259.123-.26.119-.261.114-.262.112-.262.108-.264.103-.263.1-.264.098-.265.093-.266.089-.266.085-.266.082-.267.078-.267.073-.268.07-.269.065-.268.06-.27.056-.27.051-.27.046-.27.041-.271.036-.271.03-.271.024-.272.018-.271.012-.271.005-.271-.001-.271-.008-.27-.015-.27-.022-.269-.03-.268-.036-.267-.044-.265-.051-.264-.06-.262-.066-.26-.075-.258-.082-.255-.09-.253-.097-.25-.105-.247-.112-.244-.12-.24-.126-.237-.133-.232-.14-.229-.145-.224-.152-.22-.157-.216-.162-.212-.167-.206-.172-.202-.176-.197-.18-.193-.183-.187-.187-.183-.189-.178-.19-.173-.194-.168-.194-.164-.196-.16-.197-.154-.196-.15-.197-.147-.196-.143-.196-.138-.194-.135-.193-.132-.192-.128-.19-.125-.187-.123-.184-.12-.182-.118-.18-.116-.175-.114-.172-.113-.17-.111-.165-.111-.162-.11-.158-.11-.154-.109-.15-.11-.146-.11-.143-.11-.139-.11-.135-.113-.131-.113-.128-.114-.125-.116-.122-.118-.118-.119-.115-.12-.113-.123-.11-.125-.11-.127-.106-.128-.104-.131-.103-.133-.102-.134-.101-.137-.1-.138-.1-.14-.1-.142-.1-.144-.099-.145-.1-.146-.101-.148-.102-.15-.103-.15-.104-.15-.105-.152-.107-.153-.11-.153-.11-.154-.113-.154-.115-.155-.117-.154-.12-.155-.122-.155-.124-.155-.127-.155-.13-.155-.132-.154-.135-.154-.137-.155-.14-.154-.143-.153-.146-.153-.15-.153-.151-.152-.155-.152-.158-.151-.16-.15-.164-.15-.167-.15-.17-.148-.174-.147-.176-.146-.18-.146-.183-.144-.186-.143-.19-.141-.192-.14-.196-.14-.2-.136-.203-.136-.206-.134-.21-.131-.213-.13-.217-.127-.22-.125-.223-.123-.227z" clip-rule="evenodd"/><g clip-path="url(#b)"><path fill="#121212" fill-rule="evenodd" d="M46.954 21.435v4.13q-.972 8.852-7.527 14.826.863 2.505-1.469 3.763-1.74.621-3.121-.597-8.04 3.984-16.707 1.607a21 21 0 0 1-3.947-1.607q-1.336.969-2.938.505-2.305-1.176-1.698-3.717Q3.142 34.512 2.11 25.84a29 29 0 0 1-.137-2.57q-1.55-.404-2.02-1.928v-1.47q.664-1.944 2.754-2.202a20 20 0 0 1 2.938-6.472q.936-.244 1.101.689a92 92 0 0 0-1.698 3.488q-.49 1.29-.872 2.616.621.53 1.055 1.24a48 48 0 0 1 8.583-1.01q1.135-1.856 3.305-1.515a31 31 0 0 1 4.728-5.095q-.123-1.075-.23-2.157a27.8 27.8 0 0 0-6.701-2.892.45.45 0 0 0-.23.092q-1.054 1.593-2.983 1.331a3.7 3.7 0 0 1-1.01-.413 13.5 13.5 0 0 0-2.11 2.068q-1.168.346-1.147-.872a13 13 0 0 1 2.203-2.295q-.915-3.47 2.616-4.131 1.24.046 2.111.918Q22.334-.618 30.89 1.744a19.7 19.7 0 0 1 3.534 1.423q1.85-1.56 3.81-.138 1.382 1.308.826 3.121.717.759 1.514 1.423 2.72-.889 3.856 1.744.426 1.46-.505 2.662a23.2 23.2 0 0 1 3.03 9.456M22.811 2.34a21.6 21.6 0 0 1 10.74 2.02q.18.435-.091.825a30.6 30.6 0 0 0-6.793 2.984.23.23 0 0 1-.275 0q-1.957-1.485-3.948.046a29 29 0 0 0-7.343-3.121 1.3 1.3 0 0 1 0-.551 22.3 22.3 0 0 1 7.71-2.203M12.164 3.809q2.073.429 1.102 2.295-1.165.983-2.158-.183-.57-1.612 1.056-2.112m24.05 0q1.875.198 1.424 2.02-1.127 1.412-2.387.092-.563-1.535.964-2.112m-2.57 2.846q.637.288 1.102.872 1.778 1.062 3.443-.137.578.624 1.239 1.147-1.053 1.674.046 3.35.395.443.872.78a45.8 45.8 0 0 1-4.131 9.318q-.626.18-1.24 0a33.4 33.4 0 0 0-7.94-10.51q.14-.286.23-.597.05-.712.046-1.377a32.6 32.6 0 0 1 6.334-2.846m7.803 2.112q2.07.161 1.423 2.11-1.148 1.287-2.295 0-.57-1.477.872-2.11m-17.166.091q1.878.2 1.423 2.02-.758 1.125-1.973.505-.984-.98-.184-2.112a4.5 4.5 0 0 1 .734-.413m-1.377 3.764q1.58.915 3.167 0a32.1 32.1 0 0 1 7.574 9.96l-.322.321a43 43 0 0 0-14.274-4.36 4.3 4.3 0 0 0-.643-1.01 31 31 0 0 1 4.498-4.911m19.737.184q4.14 7.29 2.34 15.513-.282 1.221-.734 2.387a41 41 0 0 0-6.059-4.957q.29-1.636-.78-2.892a38.3 38.3 0 0 0 4.315-9.868q.498.024.918-.183M16.019 18.13q2.201.135 1.422 2.203-1.017 1.03-2.11.092-.862-1.525.688-2.295M2.34 19.23q2.176.039 1.514 2.112-1.056 1.205-2.203.091-.763-1.447.689-2.203m9.822.551h1.377q.087.973.734 1.698-3.99 8.205-3.167 17.304-.31.166-.596.367a9.7 9.7 0 0 1-1.79-1.744q-4.899-6.155-5.233-14.045 1.948-.686 2.066-2.754 3.318-.455 6.61-.826m6.977.276a41.4 41.4 0 0 1 13.448 4.13 3.43 3.43 0 0 0 .505 2.341q-7.347 9.16-18.36 13.265a3.36 3.36 0 0 0-2.11-1.194q-.842-8.533 2.89-16.248 1.964.25 3.214-1.285a3.6 3.6 0 0 0 .413-1.01m15.789 3.488q2.032-.148 1.698 1.836-.52 1.074-1.698.78-1.827-1.308 0-2.616m2.295 3.488q.442.13.826.413a47 47 0 0 1 5.6 4.774 20.1 20.1 0 0 1-5.05 6.884 1.5 1.5 0 0 1-.688-.23q.009-1.674.138-3.35.029-1.72-1.423-.872a150 150 0 0 1-.275 4.04q-2.644.856-2.341 3.625-8.142 3.93-16.707 1.01a33 33 0 0 1-2.203-.964q-.105-.581.091-1.147 11.453-4.227 19.094-13.724.615.177 1.24.276.455 1.77.734 3.58.47.585 1.147.229a.8.8 0 0 0 .276-.597 31 31 0 0 0-.735-3.58.44.44 0 0 1 .276-.367M11.888 40.07q1.245-.153 1.698 1.01.068 1.86-1.79 1.606-1.444-.885-.46-2.249.247-.25.552-.367m24.693.092q1.41-.013 1.652 1.377-.183 1.194-1.377 1.377-1.975-.512-1.01-2.295.335-.303.735-.459" clip-rule="evenodd" opacity=".931"/></g><defs><linearGradient id="a" x1="182.252" x2="150.529" y1="-107.073" y2="-134.389" gradientUnits="userSpaceOnUse"><stop stop-color="#9ab0a6"/><stop offset="1" stop-color="#426986"/></linearGradient><clipPath id="b"><path fill="#fff" d="M0 0h47v47H0z"/></clipPath></defs></svg>