<svg xmlns="http://www.w3.org/2000/svg" width="104" height="244" fill="none" viewBox="0 0 104 244"><path fill="#9ab0a6" fill-rule="evenodd" d="M36.122 220.896c-.192-1.212.108-1.74 1.037-2.222 1.511-.72 4.236.187 10.853 3.681 3.486 1.786 4.602 2.188 4.08 1.314-7.423-11.585-9.924-17.112-11.643-25.54-2.389-12.048-1.48-25.336 2.816-39.538l2.413-7.981-7.082-5.471c-7.655-5.814-11.057-9.768-14.687-16.694-3.644-7.021-6.482-18.9-6.625-27.34-.02-4.965 1.516-12.763 3.52-17.33l1.843-4.359-3.564-2.59c-4.968-3.608-8.837-8.396-12.898-15.971-7.444-13.829-7.779-28.588-1.15-47.13C8.663 3.738 11.537-.449 13.697 1.121c.812.59.656 1.716-.704 5.511-3.8 10.684-5.3 15.701-6.46 22.29C3.807 44.263 9.74 60.62 21.807 71.038l3.777 3.322 1.853-1.87c8.656-8.732 14.834-12.243 24.498-13.725 10.96-1.687 19.16 3.608 19.266 12.431.064 3.095-3.617 8.84-7.356 11.485-7.134 5.044-20.704 5.665-31.986 1.431l-4.11-1.504-.997 2.167c-3.478 7.29-4.232 14.91-2.508 25.486 1.87 11.503 7.244 21.599 15.42 28.864 3.793 3.417 8.583 5.91 9.113 4.718.22-.419 2.126-3.491 4.18-6.781 7.791-12.083 19.192-20.628 29.1-21.765 5.585-.641 9.775.174 13.952 2.715 9.056 5.592 10.302 16.146 2.763 24.366-9.038 9.936-26.323 14.543-42.128 11.311-2.522-.507-4.749-.727-4.943-.459-.825 1.135-3.816 11.502-4.836 16.869-3.002 15.142-1.389 28.938 4.728 40.73 1.956 3.891 9.77 15.518 10.898 16.338.323.235.348-1.723-.066-4.337-1.412-11.337-.432-20.527 2.408-21.933 2.983-1.386 4.04 1.369 3.64 9.414-.151 3.275.625 11.176 1.807 18.636 1.163 7.036 1.842 13.133 1.567 13.511s-1.188.955-2.011 1.177c-1.407.46-2.354-.06-11.421-6.648-5.496-3.908-12.668-8.794-15.965-10.853-5.338-3.215-6.11-3.86-6.325-5.257zm29.52-72.2c10.902.332 23.08-4.276 28.402-10.805 3.367-4.071 4.102-7.006 2.558-10.104-2.23-4.426-9.388-7.073-15.323-5.603-3.636.911-9.659 4.208-14.063 7.767-3.505 2.899-10.623 12.002-11.985 15.469l-.697 1.639 3.174.739c1.778.388 5.336.829 7.928.893zm-24.69-68.678c6.015 1.153 14.161.387 18.037-1.664 5.51-2.924 7.688-8.195 4.853-11.569-2.88-3.416-12.5-2.89-20.52 1.1-3.85 1.901-10.157 6.486-11.701 8.496-.59.812 4.097 2.651 9.319 3.638z" clip-rule="evenodd"/></svg>