<svg xmlns="http://www.w3.org/2000/svg" width="162" height="75" fill="none" viewBox="0 0 162 75"><path stroke="#121212" stroke-width=".52" d="M157.388 22.392c2.832 4.69 4.313 9.766 4.352 14.902.038 5.136-1.366 10.224-4.127 14.936M4.382 52.22C1.624 47.51.222 42.424.261 37.29c.04-5.135 1.52-10.21 4.35-14.896"/><path fill="#092e20" d="M61.478 19.201h5.748v26.564c-2.948.559-5.114.782-7.465.782-7.017 0-10.675-3.167-10.675-9.241 0-5.851 3.881-9.652 9.89-9.652.933 0 1.642.075 2.5.298zm0 13.372c-.671-.223-1.231-.297-1.94-.297-2.911 0-4.591 1.788-4.591 4.918 0 3.056 1.605 4.733 4.553 4.733q.994-.001 1.978-.148zm14.892-4.508V41.37c0 4.584-.336 6.78-1.334 8.683-.933 1.826-2.165 2.982-4.702 4.249l-5.337-2.535c2.538-1.193 3.769-2.235 4.553-3.839.82-1.64 1.083-3.54 1.083-8.534V28.076zm-5.748-8.83h5.748v5.896h-5.748zm9.219 10.134c2.538-1.192 4.953-1.714 7.614-1.714 2.948 0 4.89.783 5.748 2.311.476.856.634 1.976.634 4.361v11.67c-2.576.373-5.823.634-8.21.634-4.815 0-6.98-1.678-6.98-5.404 0-4.025 2.874-5.897 9.928-6.484v-1.267c0-1.044-.523-1.427-1.978-1.427-2.127 0-4.515.597-6.755 1.752v-4.435zm8.994 9.13c-3.807.373-5.048.97-5.048 2.46 0 1.117.71 1.64 2.286 1.64.857 0 1.642-.075 2.762-.261zm7.811-9.539c3.396-.894 6.195-1.303 9.032-1.303 2.948 0 5.077.67 6.345 1.976 1.195 1.23 1.567 2.57 1.567 5.44v11.254h-5.747V35.294c0-2.199-.747-3.018-2.801-3.018-.783 0-1.492.074-2.649.409v13.638h-5.758zm19.169 20.496c2.016 1.043 4.031 1.527 6.158 1.527 3.77 0 5.375-1.527 5.375-5.18v-.112c-1.12.559-2.239.783-3.732.783-5.049 0-8.249-3.316-8.249-8.57 0-6.523 4.74-10.212 13.137-10.212 2.463 0 4.741.261 7.502.82l-1.968 4.14c-1.531-.297-.124-.04-1.279-.152v.596l.074 2.422.038 3.13c.038.783.038 1.566.076 2.348v1.565c0 4.92-.409 7.229-1.642 9.13-1.791 2.797-4.889 4.185-9.293 4.185-2.239 0-4.18-.335-6.196-1.118v-5.292zm11.431-17.142h-.598c-1.119-.038-2.425.26-3.321.82-1.381.782-2.09 2.198-2.09 4.21 0 2.87 1.429 4.509 3.957 4.509.784 0 1.429-.15 2.164-.373v-1.975c0-.67-.038-1.427-.038-2.2l-.038-2.645-.038-1.9v-.447zm17.682-4.733c5.748 0 9.256 3.614 9.256 9.466 0 5.992-3.658 9.764-9.481 9.764-5.747 0-9.293-3.614-9.293-9.428 0-6.038 3.657-9.8 9.517-9.8zm-.112 14.609c2.202 0 3.509-1.826 3.509-4.994 0-3.138-1.269-4.993-3.471-4.993-2.286 0-3.584 1.826-3.584 4.993s1.307 4.994 3.546 4.994m-28.667 23.47c.009.252.009.478.009.694 0 .096-.009.182-.009.27-.052.06-.121.12-.182.173l-.086.086-.052.044-.018.017-.017.017c-.044.026-.078.061-.122.096a3.23 3.23 0 0 1-2.627.546 3.11 3.11 0 0 1-2.125-1.708 2.96 2.96 0 0 1-.304-1.362 3 3 0 0 1 .304-1.361 3.16 3.16 0 0 1 2.116-1.709 3.2 3.2 0 0 1 1.674.07c.347.103.668.268.962.485l.122.096.173.156c.061.06.13.112.182.182 0 .086.009.173.009.26v.694h-.867c-.009-.2-.009-.382-.009-.555v-.026l-.017-.018-.026-.017-.087-.07a2.2 2.2 0 0 0-.694-.338 2.2 2.2 0 0 0-1.179.009 2.4 2.4 0 0 0-.512.217 2.7 2.7 0 0 0-.494.39c-.174.182-.312.39-.425.616-.13.286-.2.607-.2.92 0 .32.07.632.2.927.113.225.251.434.425.616.277.286.624.494.997.598a2.14 2.14 0 0 0 1.882-.33l.087-.06.026-.026c.008 0 .017-.009.017-.017v-.582zm4.447 1.128h.694v.867h-1.734v-.45a1.2 1.2 0 0 1-.209.155 2 2 0 0 1-1.032.365 1.9 1.9 0 0 1-.737-.087 1 1 0 0 1-.208-.078 1.57 1.57 0 0 1-.624-.512 1.7 1.7 0 0 1-.226-.529 1.7 1.7 0 0 1-.034-.468c.017-.286.121-.573.303-.798.147-.165.321-.304.512-.399.147-.078.312-.139.468-.182.312-.078.633-.122.954-.139.182-.009.382-.009.59-.009h.243c0-.182-.131-.347-.269-.45a1.04 1.04 0 0 0-.443-.183 1.5 1.5 0 0 0-.555.018q-.454.117-.858.364l-.434-.755a5 5 0 0 1 1.067-.477 2.7 2.7 0 0 1 .876-.095q.221.013.442.078.248.066.468.208c.183.122.347.27.469.451q.127.17.19.364c.061.157.087.321.087.477zm-1.301-.668c.139-.225.226-.468.261-.72h-.243c-.2 0-.365.009-.521.026a3.6 3.6 0 0 0-.737.156c-.199.079-.381.183-.468.304a.43.43 0 0 0-.069.226c0 .06.008.13.017.19a.5.5 0 0 0 .069.148.5.5 0 0 0 .13.13c.026.017.052.026.078.043s.061.026.087.035c.122.043.234.06.364.06a1.23 1.23 0 0 0 1.032-.598m10.036.668h.477v.867h-1.518v-2.298c-.009-.546-.199-.928-.39-1.145a.87.87 0 0 0-.599-.33.8.8 0 0 0-.312.061 1.1 1.1 0 0 0-.329.226c-.217.225-.425.616-.434 1.188v1.43h.477v.868h-1.518v-2.298c-.008-.546-.199-.928-.39-1.145a.87.87 0 0 0-.598-.33.8.8 0 0 0-.312.061c-.122.052-.235.13-.33.226-.217.225-.425.616-.434 1.188v1.43h.469v.868h-1.978v-.867h.469v-2.949h-.573v-.867h1.613v.373a1.82 1.82 0 0 1 1.076-.416 1.8 1.8 0 0 1 1.344.598c.095.096.182.2.251.312q.092-.145.209-.277c.32-.39.806-.625 1.318-.633.503-.009.997.208 1.327.598.208.217.373.477.477.755.138.338.208.702.208 1.075zm5.001-1.691c.026.217.009.433-.026.65h-3.295v.035a1.7 1.7 0 0 0 .295.555c.043.052.086.095.13.139a1 1 0 0 0 .147.112c.052.035.113.061.165.087.13.06.269.096.407.104.174 0 .347-.026.503-.104.209-.095.391-.243.521-.425l.702.512a2.2 2.2 0 0 1-.858.711 2.05 2.05 0 0 1-1.613.06 3 3 0 0 1-.313-.138c-.086-.052-.182-.121-.268-.182a3 3 0 0 1-.243-.217 3 3 0 0 1-.208-.26 2.1 2.1 0 0 1-.33-.65 2.3 2.3 0 0 1-.121-.876v-.13c.008-.044.008-.087.017-.13s.009-.087.017-.13l.035-.14a2.5 2.5 0 0 1 .564-1.066c.121-.13.269-.252.416-.356a2.08 2.08 0 0 1 2.255-.034c.191.112.355.26.503.425.156.182.286.39.39.607q.13.299.182.624c.018.07.026.139.026.217m-3.313-.217h2.385a1.4 1.4 0 0 0-.347-.607 1.6 1.6 0 0 0-.312-.226 1.2 1.2 0 0 0-.347-.121 1.2 1.2 0 0 0-.399.009 1.04 1.04 0 0 0-.442.182 1 1 0 0 0-.225.2 1.3 1.3 0 0 0-.2.286 1.1 1.1 0 0 0-.113.277m6.907-1.865v.01l-.208 1.014a1.2 1.2 0 0 0-.633.043q-.224.08-.408.226a1.4 1.4 0 0 0-.312.381 1.5 1.5 0 0 0-.174.694v1.405h.564v.867h-2.177v-.867h.573v-2.949h-.694v-.867h1.734v.494a1.8 1.8 0 0 1 .512-.32 1.98 1.98 0 0 1 1.223-.13m4.566 1.206a2.29 2.29 0 0 1 0 2.185 2.3 2.3 0 0 1-.468.607 2.6 2.6 0 0 1-.633.417 2.49 2.49 0 0 1-2.133 0 2.5 2.5 0 0 1-.625-.417 2.3 2.3 0 0 1-.477-.607 2.3 2.3 0 0 1-.269-1.092c0-.382.087-.755.269-1.093a2.3 2.3 0 0 1 .477-.599 2.48 2.48 0 0 1 2.758-.425c.234.113.442.252.633.425q.287.26.468.599m-.763 1.093c0-.217-.052-.434-.139-.633a1.8 1.8 0 0 0-.242-.39 1.7 1.7 0 0 0-.356-.296 1.39 1.39 0 0 0-1.327 0c-.139.078-.26.182-.364.295a1.8 1.8 0 0 0-.234.39 1.5 1.5 0 0 0-.139.634c0 .225.043.442.139.641q.091.212.234.382.156.18.364.295a1.34 1.34 0 0 0 1.683-.295 1.58 1.58 0 0 0 .381-1.023m5.947-1.093a2.3 2.3 0 0 1-.469 2.792 2.6 2.6 0 0 1-.633.417 2.49 2.49 0 0 1-2.133 0 2.5 2.5 0 0 1-.625-.417 2.3 2.3 0 0 1-.477-.607 2.3 2.3 0 0 1-.269-1.092c0-.382.087-.755.269-1.093a2.55 2.55 0 0 1 1.102-1.023 2.48 2.48 0 0 1 2.133 0c.234.112.442.251.633.425q.286.26.469.598m-.764 1.093a1.6 1.6 0 0 0-.381-1.024 1.7 1.7 0 0 0-.356-.295 1.39 1.39 0 0 0-1.327 0c-.138.078-.26.182-.364.295a1.8 1.8 0 0 0-.234.39 1.5 1.5 0 0 0-.139.634c0 .225.044.442.139.641q.091.212.234.382.157.18.364.295a1.34 1.34 0 0 0 1.683-.295 1.6 1.6 0 0 0 .243-.382c.086-.2.138-.416.138-.641m6.514 1.474h.581v.867h-1.621v-2.298c0-.243-.052-.486-.156-.711a1.7 1.7 0 0 0-.339-.442 1.2 1.2 0 0 0-.754-.321 1.18 1.18 0 0 0-.798.277 1.4 1.4 0 0 0-.364.451 1.7 1.7 0 0 0-.174.746v1.43h.564v.868h-2.177v-.867h.573V63.84h-.694v-.867h1.734v.477c.373-.32.842-.503 1.336-.52a2.18 2.18 0 0 1 1.413.503c.252.208.46.468.599.754.182.364.277.763.277 1.171z"/><rect width="35.377" height="35.377" x="6.507" y="19.811" stroke="#092e20" stroke-width="1.22" rx="17.689"/><path fill="#092e20" fill-rule="evenodd" d="M27.568 26.039v-.006h.275l.132.006h.338l.031.044.025.037.007.013.043.056.006.006.038.057.012.018.007.007.018.012v.019l-.006.019.013.025.012.006.006.025.007.025h-.007l-.012.013v.031l.006.012.006.013v.006l.007.031-.007.02h-.006l-.012.03-.007.032v.019l.007.012.012.007h.02l.012.006.006.03.013.026h.012l.013-.006.037-.038.006-.006.006.006v.019l-.006.025v.019l.013-.007h.018l.032.032.018.006.02.006.037-.006.019-.006h.012l.013.006.006.006.019.025-.006.019-.025.018-.007.013v.02l.013.018.012.006h.013l.012-.012.013-.032.012-.013h.006l.013.007.006.019.006.012.007.013v.044l.006.006.012.012h.05l.038-.006h.006l.026.006.006.02v.018l.006.025.006.025.013.018.006.025.013.032-.007.006v.032l.007.03-.007.026.013.037-.019.019-.006.025.006.006.013.02h.012l.012-.02.007-.012h.012l.006.012v.032l.007.031.018.025.02.031.005.02.007.018v.025l-.007.05.007.025-.007.019-.012.019v.018l.019.056-.007.026-.006.043.006.025v.02l-.012.024v.007l.019.037-.007.006v.006l-.025.02-.006.012.006.018h.02l.062.075h.006l.019.013.006.013.013.006.018.013h.032l.012-.007.006-.012.007-.013.012-.006.019-.007v.007h.012l.02.013.024.018v.007l-.006.024v.02l.032.012.006.006.012.038-.006.012-.006.012v.007l-.019-.007-.006.007v.012l.012.006.006.007.007.012.006.006h.025l.019.007.006.006.006.006v.013l-.006.019-.006.012-.007.006h-.012l-.013-.006h-.012l-.006.006-.006.007.006.012.018.032v.031l-.006.012-.006.006-.019.013-.006.006-.006.013v.012l.006.013.006.025.006.006v.032l.007.018.018.013.007.006h.012l.006-.006v-.031h.007l.018.018.013.006v.05l.012.02.013.018.019.012.006.007-.006.012-.007.013-.006.006-.012.006-.02.006h-.012l-.012.013-.006.013.006.006.006.006.019.007.006.006.013.031-.007.006-.006.006-.006-.006-.025-.006h-.019l-.006.012-.006.02v.03l.006.013h.006l.006.025.007.012-.007.013.007.006.012.019-.006.012-.006.013.006.013.012.012.007.025v.006l.012.007.006.006v.025l-.006.019.006.012.007.006.05.02.012.005.012.02v.036l-.006.014-.012.03v.013l-.006.006-.044.025-.006.02-.013.005v.025l-.019.007-.012.03-.006.007-.007.012v.013l-.012.006v.019l-.019.025-.006.025.006.013.013.025.006.019v.006l-.019.019-.012.012-.006.013v.018l-.007.019.006.019v.006l-.006.006-.018.007-.007.006-.006.006.006.02v.005l-.012.007-.007.006v.006l.013.013v.018l-.006.032.006.006v.006l.019.013v.012l-.025.012-.007.007.013.006.006.006v.006l-.006.013-.006.012v.007l.006.013.006.006-.006.012.006.007.007.006v.012l-.013.007.006.006v.006l.007.013-.007.006-.019.018v.013l.02.006.006.032v.012l-.007.012-.006.013v.006l.006.006.013.007.006.006v.007l-.019.012.007.006.006.007.006.006-.006.012.012.007.006.025v.043l-.006.013.006.006v.031l.007.006v.007l.006.006.006.012.006.025.02.013.018.025.006.025v.044l.013.044.006.05-.013.012-.012.013v.006l-.013.007-.012.018-.006.013v.044l.006.006.012.012.007.019v.012l.006.02.025.024.012.038.007.012.025.026.018.03.007.02.006.006.012.03.013.026.006.031.013.013.006.05-.006.031-.013.025-.006.013v.1l.013.018.018.013.02.012.024.013.038.013h.012l.025.019.044.043.006.013.006.037.006.019.026.019.006.012.031.031v.082l.007.012.012.007.013.018-.007.013v.006l.025.019.007.019-.007.012.007.006.037.013.019.006.012.012.019.007.012.012.007.006.006.02.025.025.025.012.032.044.018.031.007.013h.006l.025.024.031.02.006.012.013.044.018.019.02.018.012.044h.013l.025.019.012.019.006.018h.007l.006-.006h.025l.037.031.025.019.013.019h.018l.02.006.03.032.026-.007.019.02.03.012h.013l.05.037.013.013.006.03-.012.007-.038.013-.031.006-.031.006h-.007l-.043.019-.026.006-.031.006-.05.006h-.056l-.038.013-.018.006-.007.006-.037.007h-.044l-.025.006-.013-.006-.018-.007-.025-.006-.076-.031-.037-.019h-.013l-.012-.006-.019-.006h-.037l-.013-.006-.044-.013-.037-.006-.026-.013-.03-.012-.044.069-.02-.007-.03-.006-.007-.012-.05-.025-.037-.013h-.02l-.03.019-.013.006-.006.013v.018l-.013.007h-.037l-.025-.007h-.006l-.019-.006-.012-.006-.032-.013-.012-.018-.02-.013-.024-.012h-.05l-.063.03-.031.007h-.012l-.02.006-.03.019-.026.013-.031.024-.013.02h-.006l-.006.012-.031.013-.013.006-.012.006h-.038l-.038-.012-.012-.007-.019-.006-.019-.013-.018-.006-.013-.006-.018-.007h-.082l-.063-.018-.062-.013-.025-.012-.025-.006-.019-.007-.012-.006h-.019l-.044-.012-.056-.02-.006-.005-.05-.007-.032-.006-.018-.006h-.013l-.025.006-.019.006h-.056l-.032.007-.025-.007h-.05l-.043.007h-.006l-.007.006h-.038l-.012-.006-.038-.007H28l-.006.007h-.044l-.012.006h-.075l-.013.006-.038.013-.018.012-.013.031-.006.032v.018l-.013.013-.006.044-.006.025-.019.031-.012.012-.013.02-.062.08-.013.02-.025.025v.012l-.044.038-.012.024-.007.007-.012.006-.038.025-.018.025-.032.063v.037l-.012.038.006.031v.012l.038.032.012.012.019.044.012.025.025.031h.007l.006.013.012.013.025.025.019.024.057.057.025.025.012.006.025.019.019.006h.019l.006.007.012.03v.026l.013.006.018.006.025.019.026.031.012.038.013.018.031.013.025.019.025.012.019.006h.037l.019.032.006.012.006.013.007.019.013.018.018.025.05.02.02.018.005.025.007.012-.007.025v.02l-.018.037-.007.006v.006l-.006.032.013.018.018.025.025.013.019.025h.012v.012l.025.019.013.013v.006l.019.025.006.013h.012l.013.012.02.006.005.007.025.018.013.013v.012l-.019.025v.007l.038.062.012.019h.006l.032.006.018.006.019.013.025.013.038.037.025.019.062.062.006.007.02.025.018.018h.006l.013.013.012.018.044.045.032.03.037.026.025.025.019.019.031.037.025.019.012-.007.038.007h.038l.025.018h.012l.013-.006.031.006.013-.012h.006v-.006h.006l.012.006.007-.013.012.013.006-.006h.007l.012.006h.013l.006.006.012.026v.018l.007.007.013.006.018.019-.018.012-.013.013.031.018h.019l.019-.006.012.006.013.013.03.012h.007l.025.019v.013l-.006.018-.006.044.006.012.006.007h.038l.056.013h.019l.019-.007h.031l.019.007h.012l.025-.007h.019l.025.013.019.012.037.02.02.011.037.026.025.037.037.006.006.007v.043l.007.025.006.02.006.018v.025l.013.013.012.025v.012l.006.031.013.038.006.025.006.018.006.02.007.018.013.044.006.019.006.043.006.025.032.138.012.019.019.031.006.025.019.031.012.02.013.03.056.12.012.012.026.056.012.025.013.025.025.044v.013l-.013.056v.025l.007.025.006.025.037.031.007.02.006.005v.02l.062.168.019.044.012.019.007.012.031.05.007.006.018.032.007.018.012.013.019.012.05.013.062.012.032.006.012.02v.006l-.006.012-.006.013v.012l.006.013-.006.019.006.018v.05l.006.007-.006.03-.013.02-.012.012v.012l.006.007v.019l-.006.031-.025.031-.006.013.006.006.006.012V37l-.006.012h-.006l-.02.019-.012.013-.012.012-.013.012-.018.02-.013.005-.012.026-.02.006-.012.006-.012.025.006.013-.006.006h-.013l-.012.013v.012l-.013.012-.019.013h-.006l.006.012-.019.038-.018.006-.006.006-.007.02v.005l-.018.007-.007.012v.019l-.018.013-.025.025-.013.006-.012.006-.025.032-.026.012-.018.019-.025.018-.02.02-.005.005h-.013l-.031.025-.019.013-.012.012-.032.038-.018.013-.007.006-.012.013-.026.006-.006.006v.013l-.018.037-.02.006-.012.006v.019l-.012.013.012.006h.013l.006.012h.006l.007.007-.013.012-.006.019-.019.019-.012.025.006.062.006.007.013.006-.032.062-.025.05v.02l-.012.006-.013-.007-.03.007-.007.012-.006.025v.013l-.013.006-.006.012-.013.013v.031l-.019.088.013.038v.006l-.006.012-.02.006-.012.032-.012.018-.013.038-.006.019-.019.024-.006.026-.012.025v.019l-.013.012-.019.031-.006.013-.006.044-.006.025-.032.024-.006.007-.006-.007-.025-.006h-.032l-.025.019h-.018l-.025.012h-.025l-.007.013-.012.038-.006.019h-.006l-.026.056-.018.037v.019l-.019.031-.05.113-.05.119-.013.025-.006.013-.006.018-.025.05-.019.025v.013l-.044.081-.006.012v.007l-.006.018v.026l.012.037v.007l-.018.03-.007.013-.006.013-.007.006-.037.056-.05.07-.006.012-.019.019-.031.012-.15.056-.02.006h-.012l-.018.013-.094.031-.006-.006-.013.006-.013.006-.043.032-.013.012-.006.007-.013.018-.018.02-.013.024-.006.013-.013.006-.05.037-.006.013-.006.006-.026.006-.024.013h-.038v.006l.012.019-.012.025v.006l-.006.032v.018l.018.026.013.037.025.025.032.025.012.019.013.037.006.013.006.006.013.007v.024l.006.02.012.012.013.006.006.006.012.006h.026l.056-.012.018.012.013-.006.007-.006.03-.031h.02l.018.006.025.044v.068l-.006.032.019.056v.238l-.019.037-.013.044v.025l-.012.019-.006.025v.012l-.013.019v.012l-.006.026.006.025.02.025.005.019.006.03.013.026.025.031v.006l-.025.025v.019l-.006.02-.013.005-.006.007-.006.006.006.012v.013l-.006.037v.013l.006.044-.006.012-.013.013h-.018l-.007.012h-.012l-.006.006.006.007v.024l-.013.02-.031.05-.007.018v.019l-.012.006v.013l.012.006-.006.006-.018.007-.007.018h-.006l-.006.013-.006.006.006.025.043.038.02.012h.005l.013.02.013.012h.025l.019.012h.018l.013.006.012-.006h.013l.006.006.019.007h.025l.006.012.006.012.025.013.006.019v.006l.032.125.006.044v.006l-.006.013-.025.006v.037l.012.007v.031l.013.05-.02.006v.007l.007.006v.006h-.012v.006l.012.013-.006.006-.006.013v.006l.012.006.007.013.012.019.007.012-.013.037.006.007-.012.012v.019l.012.006.013.038.012.031v.013l.019.025v.006l-.006.012-.013.007.007.018v.007l.006.018.018.063-.006.012.006.02-.006.006-.006.012v.013l-.012.006-.013.006.006.006.013.02.006.012.012.012v.063l.007.018v.032l-.006.019.006.03v.045l.012.012.006.025-.006.013.013.006h.006l.006.012.006.007.025.03.025.007.007.013.012.012v.013l.013.006.006.013.02.018.012.007.018.025.013.006.018.012.007.013h.025v.006h.019l.006.019.006.006h.012l.013.006.019.025.006.019.006.006.013.006h.018l.026.013.012.006.013.013h.006l.019.006.006.007v.012l.025.006.006-.006h.019l.019.006.006.007.006.012.025.006h.026l.005.007v.006l.007.012.006.025v.019l.019.019v.025l.013.006.006-.013h.006l.006.007.006.012v.006l-.006.007.019.012.012.02.007.024.018.02.007.012h.012l.019.03v.032l.006.013-.006.012.012.006v.013l-.006.019.006.012-.006.006v.006l.006.013.007.013.006.006v.006l-.013.013v.012l.013.025v.025h.006l.006.006-.006.013.006.012-.006.013.006.006-.012.019v.013l.012.03.007.007.018.006.007.013h.006l.012.013V44l.013.018.006.025h.007l.018-.006h.025l.013.006v.013l.006.012-.006.006-.013.007h-.018l-.006.006h-.013l-.019.019-.05.012-.019.007h-.012l-.013.006-.031.006-.013.012h-.018l-.013.013-.006.019h.069l.006.019.006.012.006.025.013.05.056.088.02.044.012.006v.006l.012.025.019.025.006.013.081.13.025.032v.013l.02.031.03.044.032.031v.006l.037.038.032.037h.006l.006.007.038.05.025.025.106.112.013.013.012.012.038.044.03.032.057.062h.012l.013.013.032.037.012.019.019.012.056.07.013.018.03.038.095.1.025.03.044.051v.013l.012.012.012.013.007.006.069.075.024.031h.007l.012.019.013.006.013.02.05.062.006.006.05.062.006.007.006.012.019.013.012.018.013.013.012-.019.032.006.019-.012.006-.007h.043l.013.007v.012h.038l.006.007.019.018.006.013v.006l.025.044.025.038.012.006.02.025.03.044.02.018.006.007.006-.007.006-.012.006-.013h.013l.006.007.013-.007h.018l.007.013.012.006v.013l.006.012h.013l.012.012h.013v.032l.012.013.02.03.012.02v.024l.031.02v.024l.025.069v.013l.007.031v.031l-.007.007-.018.012-.007.019-.044.012v.019l.006.019v.012l.007.019v.006l.012.006v.007l-.006.012.007.026-.007.006-.006.006.012.006v.006l-.012.007.006.012.019.007h.025l.013.012-.013.019-.012.019-.007.012-.006.031-.006.031v.013l.006.025.025.056v.044l-.006.013v.018l-.019.032-.006.037v.019l.012.012.013.013.006.013v.037l-.006.019-.013.006.006.019.013.012v.013l.006.012.032.02.012.024.006.019v.006l.006.026.032.037.025.031.006.006.006.007v.037l.013.044.006.012.012.019.013.044v.013l-.019.025.006.018.05.044v.006l.007.007-.012.018h.006l-.019.02-.025.005-.013.007-.006.006-.013.018-.012.007h-.006l-.007-.007-.006-.03-.012-.007h-.013l-.019-.006-.03.006h-.007l-.019.012-.006.02v.056l-.006.025v.044l.006.012.006.006.007.02v.03l-.007.007-.006.012-.025.012-.012.007v.012l.012.006.012.007.013.013v.018l-.012.025-.007.007-.025.018-.013.025v.019l.007.019-.007.019v.006l.013.006.019.025.019.012v.02l.006.018.006.02v.012l.007.037v.006l.012.006.025-.006h.006l.006.006v.013l-.006.012v.02l.006.024.02.056.005.02.013.012.012.025.007.031.006.038-.006.025-.007.012v.038l.013.012.012.026v.012l-.006.019-.012.019-.013-.007-.019-.025h-.025l-.018.007-.013.006h-.012l-.019.012-.012.019-.013.025-.012.019h-.013l-.013-.007h-.012l-.032-.006-.006-.006-.012-.037.006-.013.006-.031-.006-.006-.013-.013v-.013l.007-.019.018-.03.007-.013.006-.013-.006-.012-.013-.007h-.012l-.05.007h-.075l-.044-.025h-.038l-.006-.013-.006-.012v-.006h-.025l-.025.018h-.013l.007-.012-.02-.063-.012-.013h-.037l-.013-.006-.012-.025-.013-.006-.044-.012-.025-.032-.006-.019-.006-.012-.032-.025-.006-.019-.012-.012-.025-.013h-.019l-.019.007h-.012l-.006-.013-.076-.025-.031.006-.031-.006-.056-.012-.038-.013-.032-.013h-.018l-.025.006h-.013l-.025-.018-.012-.007h-.013l-.018.013h-.007l-.025-.013-.043-.03h-.013l-.013.012-.056.012-.037.013-.02.012-.03.026-.025.006h-.013l-.063.037-.018.007-.007.006-.012-.019-.006-.019V48.3l-.02.012h-.024l-.013-.006-.006-.006.006-.026v-.012l-.006-.019-.025-.031-.019-.019h-.025l-.006-.006-.006-.013-.006-.012h-.032l.012-.025v-.013l-.018-.006-.038-.006-.018-.006h-.032l-.018.018-.02.025-.012-.006-.006-.006-.012-.038h-.025v.007l-.007.03v.013l-.012.013h-.013l-.012-.006h-.013l-.019.025v.018l-.012.019h-.063v-.037l-.006-.007h-.012l-.032.044-.006.006h-.012l-.013-.018v-.025l-.019-.02-.031-.012-.019-.012-.025-.025-.019.012-.012.038-.006.006-.031.006h-.026l-.018.007h-.019l-.012-.007-.032-.025-.006-.006v-.006l.025-.019.006-.012.007-.025v-.026l-.05-.012-.02-.007v-.062l-.006-.012h-.012l-.02.006v.006l.013.031v.007l-.006.006-.031-.007-.019.007-.012.012v.006l-.013.013-.025.012h-.012l-.026-.025-.006-.006-.031.025h-.006l-.007-.012h-.006l.013-.025.006-.013-.006-.012-.007-.006h-.018l-.025.018-.013-.006-.006-.006.006-.006h.025v-.019l-.056-.038h-.006l-.006.007v.012l.012.013-.006.006h-.006l-.013-.006h-.025l-.012-.025-.013-.02h-.026l-.043.007-.012-.006-.007-.019.007-.019-.007-.006-.006-.006h-.025l-.025-.038-.006-.013-.007-.025-.012-.012h-.012l-.02-.006-.005-.019h-.013l-.006.006-.013.013-.013-.006-.018-.013-.019.025-.019.006-.018.013h-.007l-.068.025-.095.038h-.006l-.012.006h-.013l-.012-.013-.013-.019-.006-.006-.031-.019-.025-.006v.006l-.044-.006-.019.006-.038-.006-.05-.006h-.049l-.02.006h-.012l-.018.012-.007.013-.018.006-.126-.006-.012.006h-.006l-.088-.006-.075.006h-.432l-.031-.006-.031.006h-.375l-.05-.006-.007.006h-.413l-.037.007-.007-.007h-.206l.006-.025-.025-.012v-.007l.013-.006.012-.012.006-.007.007-.006v-.006l-.02-.019.007-.018-.019-.007-.012-.037h-.006l-.013.012h-.006v-.012h-.013l-.006-.006v-.013l-.012-.012-.013-.013h-.006l-.012.013-.013-.007-.006.013-.013.006h-.012l-.006-.006-.007.006h-.012l-.006-.006v-.006h-.007l-.006.006h-.007l-.006-.013-.006-.006v-.006h.006l.006.006h.007v-.012l-.007-.007h-.012l-.019.013v-.006l-.031-.007-.075.02-.025.012.006.012-.006.006.006.013-.019-.006v.006h-.012l-.006.012-.013.007-.006.006v.006l-.007-.012-.006-.007-.006-.006h-.006l-.013.006-.006-.006-.013.019h-.012l-.006.006-.013-.006-.006.006-.006-.006-.006-.019h-.007v.006h-.012l-.006-.006h-.075l-.025.013-.02-.007-.024.007-.013-.007-.019-.018-.031.006h-.006v.006l.012.006-.043.02h-.02l-.005-.013-.013-.007h-.006l-.006.007v.025h-.032l-.006-.013h-.013l-.012-.006h-.032l-.006-.006v-.02l-.012-.012v.013l-.006.006-.02.006-.012-.006h-.012v.013l-.006.006-.032.019-.05.012h-.025l-.006-.012h-.025l-.007-.007-.006.007h-.012l-.044-.025-.025-.007-.006.013h-.025l-.07-.013-.018-.012-.006-.006h-.05l-.006-.007v-.018l-.02-.007-.062.032h-.03l-.051-.013h-.025l-.031.013h-.02l-.024.006-.056-.006-.07-.02-.018-.005-.056-.007-.044-.012h-.082l-.012.025-.006.006v.006l-.025.007-.02-.007h-.005l-.007.013h-.025l-.03-.013-.007-.006-.006-.019-.013-.012-.012-.006-.007.006-.037-.006-.019-.007h-.013l-.012.02h-.025l-.019-.02-.031-.019-.006.006-.025.02h-.025l-.019-.007-.006.007h-.013l-.006-.013h-.05l-.007.006h-.012l-.019-.006-.019-.007-.012-.006-.006.013v.006h-.019l-.006-.006h-.025l-.013-.013-.018.013-.007-.007-.006.007h-.025l-.006-.007h-.006l-.007.007-.019.006h-.006l-.019-.013h-.006l-.006.013h-.007l-.006.007-.012-.007-.013-.006h-.006l-.012.013-.02-.007h-.024l-.006.02h-.019v-.013h-.013l-.012.006-.013-.013-.013-.006h-.006l-.006.006v.013l-.019-.006h-.025l-.012-.007h-.006l-.007.007h-.006l-.006.012-.013-.006h-.025l-.018.006h-.007v-.019l-.012-.013.006-.012v-.006h-.012l-.013.006h-.006l-.019-.019-.02-.006-.011-.006-.013-.025h-.006l-.013.006-.031.006h-.012l-.007-.006-.025.013-.012.012h-.006l-.007.006-.025-.006-.03.019-.007-.007-.013-.006-.025-.012h-.025l-.019.006-.018-.006-.013.018-.006.007h-.006l-.013-.007-.006.007h-.013l-.006-.007-.012-.006-.013.006-.019-.006-.012.006-.006.007-.02.006-.024-.019H22.3l.006.013.006.006-.012.006h-.013l-.012-.012-.013-.007v.007l-.018.006-.02-.006-.043-.013-.019.013h-.012l-.013.012-.013.006v.007l.02.006v.013h.006v.006l-.006.013v.006h.006v.006l-.013.019-.013.006-.006.013-.006.018-.019.013.007.006.012.006-.006.007v.018l-.006.007.006.006.006.006-.012.019-.007.006.007.012.012.013h-.263l-.043-.013-.025-.012h-.02l-.03.025h-1.589l-.082.006-.056-.006h-.213l-.006.006h-.006l-.038.026-.012-.013-.007-.019h-.037l-.025.025-.013.007-.006-.007-.013-.006h-.012l-.019.006h-.056l-.019-.006-.012-.019-.007-.013-.006.007-.006.025-.013.006-.018-.006-.013-.006-.05-.02h-.006l-.013.007-.012-.006-.038-.025-.037-.006h-.013l-.006-.007-.019-.006h-.012l-.019.019-.006-.006-.006-.007-.007-.03-.006-.007-.006-.013h-.013l-.013-.018h-.006l-.019-.007-.006-.012-.031-.013h-.006l-.013-.025-.025-.062v-.02l.006-.024v-.031l-.012-.02-.012-.018.006-.012v-.013l.006-.025v-.037l-.012-.063v-.013l.018-.018v-.019l-.006-.038.006-.018-.018-.063.012-.025-.006-.044.006-.056.012-.019.007-.025.006-.025v-.025l.006-.006.006-.057v-.006l.007-.006.006-.056.019-.032.006-.012-.006-.019v-.012l.03-.031.007-.038-.006-.032.006-.012.013-.025.006-.019.007-.006.006-.006-.013-.038-.013-.037.007-.044.013-.038h.012v-.012l.006-.025-.006-.038.006-.018v-.013l.006-.006v-.013l.007-.012.006-.031.006-.02.025-.03.006-.007.044-.037.006-.02.007-.006.006-.018-.006-.013.006-.018.006-.013.006-.006-.006-.031.013-.007h.006v-.013l-.006-.03-.02-.032-.037-.075-.03-.075-.007-.019v-.006l.025.012-.013-.019-.012-.006-.006-.019-.019-.03-.012-.02-.013-.03.006-.013-.006-.006-.006-.032-.013-.037-.013-.012-.018-.026-.02-.019-.012-.012-.018-.038-.038-.03v-.007l-.025-.031-.037-.038-.038-.044-.069-.069h-.006l-.019-.018-.025-.025h-.006l-.012-.007-.02-.018-.03-.02-.057-.049h-.013l-.012-.013-.013-.019-.006.007-.006-.007-.006-.006v-.006l.006-.006.006.012.013-.031.006-.019.006-.006-.006-.006-.006-.013h-.013v-.032l.006-.037h.007v.026l.006-.013.012.006h.02v-.012h-.026v-.007l.013-.006-.02-.025v-.012l-.005.012v-.006l-.007-.044-.05-.088-.043-.075-.032-.05-.062-.075v-.006h.013l.025.025v.006l.006-.006.006.006.019.013.012-.007v-.006l.013-.012.012-.013v-.05l.013-.031.012-.025h.006l.013-.006h.006l.019.012.025.013v.012l.019.007.006.006v.019l.02-.007.018.032.006.006.019-.013v-.012l-.006-.007.006-.018v-.013l.012-.006.013-.006.025.006.006-.025-.012-.006-.026-.025v-.013l-.012-.006-.006-.007-.006-.006-.013-.012-.006-.013.006-.006.006-.006.019.006.006-.006.006-.019-.006-.013-.012-.006-.006-.006h-.05l-.013-.006-.013.006h-.025l-.006-.006-.006-.013-.007-.031v-.012h.013v.006l.006-.006v-.013l.013-.037.03-.045h.008l.018.007.006-.007v-.037l.007-.006h.012l.013-.032.031-.03.013-.007v-.012l.012-.02v-.005l-.031.012h-.006l.012-.019h-.019v-.006l.013-.032-.006-.012-.013.038-.012.019v.025l.012.018v.007l-.031.006-.019.006h-.025v.012l-.02.02-.005.005-.013.026-.025-.007-.006.007.012.012h-.006l-.018.006-.02.013-.024.012h-.013l-.025-.006-.012-.013-.006.007-.02-.007-.03-.012v-.006l-.013-.006-.013.006-.012.018.006.007.012.025v.019l.013.044-.006.018-.013.013-.006-.007h-.012l-.032.007h-.006l-.031-.025v-.006l-.013-.013-.012-.012-.006-.007-.007-.006h-.018l-.007.006.013.02v.005l.006.007.006.012-.006.025v.013l-.006.006h-.006l.006.012h.012l-.006.006.006.025.025.025-.05.025-.044.02-.019.006h-.024l-.038-.013-.019-.006-.037-.013-.069-.05-.019-.019-.05-.068-.006-.006v.006h-.007l-.012-.006h-.019l.013.012-.006.013-.013-.007-.019.019v.019h-.006l-.006.006h-.025v-.019l-.006-.012h-.025l-.007.012v.007h-.006v-.007l-.006-.006v-.031l.006-.019v-.006l-.019-.019.007-.006.006.006.006-.006v-.006l-.012-.013.006-.013v-.006l-.026-.006h-.056l-.006.006h-.031l-.006-.013h-.025l-.013.013h-.012l-.007-.006v-.007l-.012.007-.019-.013-.012-.018-.057-.038-.012-.006-.013-.007-.05-.018-.012-.013h-.007l-.012.007-.013-.007v-.012l-.018-.013-.02-.018-.012-.013h-.018v-.006l.006-.006.006-.007.006-.019.007-.006-.007-.019.007-.056.006-.019.006-.012.006-.019v-.006l-.006-.013v-.018l-.019-.02-.006-.024-.012-.013-.02-.019-.006-.006-.018-.013-.025-.006-.02-.012h-.005l-.013-.019-.019-.031-.012-.006-.006-.007V43.6l.006-.025.006-.025-.006-.012-.019-.025-.006-.026-.006-.025-.007-.012.007-.025-.007-.031-.018-.025v-.02l.006-.012-.006-.006V43.3l.012-.018.013-.006h.012v-.013l-.012-.006-.007-.019v-.006h.007l.03-.038-.018-.018h-.006l-.019-.007-.012-.025-.025-.018-.013.012h-.006l-.013-.012-.025-.013-.006-.019v-.006h.006v-.006h-.012l-.007.006v-.006l-.012-.013h-.025l-.025.013v.012l-.006.007-.007.006-.012.012h-.012l-.007.007-.018.006-.038-.044-.006-.006-.007-.013-.012-.006h-.013l-.025-.012-.025-.02-.012-.006.012-.006v-.006l-.012-.019-.007-.044v-.006l.02.006-.026-.018-.006-.02-.025-.03.006-.007-.012-.018v-.013l-.025-.006v-.019h-.013l-.012-.006-.007-.025-.006-.038-.012-.006-.006.019v.056l.03.032.013.024.013.07v.068l.006.031v.007l.012.012.007.007v.024h.006l.012.007h.013l.025.03v.007l.006.019-.006.006h.012l.007.006v.007l-.025.03-.02.007-.018.006h-.012l-.006.007-.032-.013h-.05l-.025-.006-.038.006-.012-.006-.037.012h-.02l-.018-.006-.006-.006-.019-.013h-.031l-.006-.006h-.026l-.012-.012-.007-.013-.012-.081-.006-.013v-.006h.037l.013.007v-.007h.013v-.038l-.013-.018-.007-.007-.006-.012-.025-.031.006-.032.013-.018.006-.013.006-.025v-.019l.013.007h.032l.012-.007.006-.006v-.006l.013-.019v-.006l.006.006.006-.013-.006-.006h.019v-.012l-.019-.02-.006-.018-.006-.012.006-.013v-.012h-.013l-.006.006-.006.006h-.025l-.006-.05.012-.031.019-.05.006-.025h.006l.019-.02.012-.005.013.006.006.019.019.006h.019l.012-.006.038-.025.025-.02v-.03l-.007-.013-.03-.025-.007-.012-.006-.019.006-.013.006-.012.006-.006.02-.025.012-.007.044-.006.006-.013.006-.012-.012-.025v-.019h.018l.02-.012.006-.007-.013-.012.012-.006.02-.019v-.012l.005-.007h.013l.006-.006h.006l.007-.006-.013-.013h-.019l-.006-.006v-.006l.031-.031.007-.007h.006v-.006l-.006-.013.018-.006.007-.006-.007-.02.007-.012.006-.012.012-.031.02-.013.012-.012.012-.007v-.024l.044-.013.019-.012.019-.032.012-.019v-.012l.006-.007.013-.018.012-.025.02-.025v-.019l.005-.05-.006-.031v-.057l-.006-.056.019-.056.012-.038.019-.087.012-.013-.006-.019v-.018l.006-.02v-.012l-.012-.03.006-.026.006-.012.025-.032.007-.006.006-.032.007-.025.006-.012.012-.025.031-.037.007-.032.018-.025.007-.012v-.031l-.013-.026-.012-.019-.02-.018-.018-.013-.025-.025-.006-.018-.02-.032-.03-.012-.007-.019-.018-.012-.007-.013v-.025l-.006-.013.006-.012.013.019h.006l.044-.063.019-.019v-.012l-.02-.013.007-.012v-.006l.026-.013.006-.012v-.025l-.006-.007-.026-.006-.012-.012-.013-.025.006-.007.013-.006.025-.038.056-.03.032-.057.018-.013.038-.012.069-.056.019-.013.012-.013.019-.006.012-.012.075-.07.013-.005.044-.044.012-.012.063-.057h.006l.056-.05.032-.031.018-.044.013-.038.025-.024.012-.013.057-.044.031-.013h.025l.013-.006.012-.006h.025l.037-.062.007-.026.012-.012.032-.062.019-.02h.012l.006-.005v-.007l-.012-.006.006-.007h.013l.012-.006.006-.019-.006-.006.006-.018-.006-.013v-.013l.013-.006v-.037l.012-.013h.006l.025.013.025.012h.013l.012.013.063.031.019.006.031-.093v-.038l.006-.006.007-.026.012-.025v-.012l-.006-.012.012-.02-.006-.005.006-.007.007-.025.012-.006.056.012.025.007h.025l.031-.007.05-.03.038-.02v-.006l.006-.006-.006-.019v-.043l.013-.013.012-.025v-.007h.013l.006.007h.012l.02.006.018.012.012-.012h.025v-.013l.013.02.007.005.012.013v.007l.019-.013h.006l.012.006.007-.006h.006l.006.006h.013l.006-.006h.006v-.007l.007-.012.012-.069v-.006l.012-.019.013-.062.025-.038v-.019l.006-.019.006-.018v-.007h.013l.006-.006v-.018l-.006-.007.012-.006-.012-.037.012-.007-.012-.025.012-.018v-.038l.007-.013.019-.019.006-.006-.006-.006-.007-.013.007-.018.006-.025.006-.006.006-.02.013.013h.012v.007h.025V38.6h.007l.012.013h.081l.02.019h.005l.02.006.024-.025.02-.025.03-.038.013-.006.044-.044.018-.012v-.006l.038-.05.05-.05.006-.007h.02l.024-.037.038-.032.025-.018.037-.038h.006l.007-.006.018-.02.057-.043.012-.019.02-.018.005-.007.038-.037h.012l.013.012v.025h.019v.007l.006.006-.013.012-.006.013.006.006v.013l.007.006h.006v.031l.006.006-.006.032v.019l-.013-.007v.02l.075.087.013.006.106-.006.144-.013.02-.006h.037l.037-.006h.013l.068-.007h.006l.076-.006.031.031h.013l.006-.006v-.019l.012-.006.007-.006.018-.006.025-.007.013-.018.018-.013v-.044l.007-.019.012-.012v-.013l.007-.018v-.013l.018-.081-.006-.025.006-.025v-.044h.006V38l-.006-.013.006-.044v-.037l.007-.044.006-.006.02.006.005.019.02.006.012.013v.037l.012.031v.02l-.019.043.063.05h.012l.032.013h.012l.006-.013.038.019.006.006v.025l.007.019h.025l.006.012.019.02.018.018h.038l.012.031.006.013.025.013.013.018.006-.006v-.013l.013-.006h.018l.007.013h.006l.012-.007h.007l.013.02.012.012h.013l.037.018.006.007.006.012-.05.106.007.02-.013.005v.013l.007.013-.007.006v.006l.019.025v.013l.012.012.013.019h.012l.007.006h.006l.012-.006.038.025.025.056.012.012v.007h.013v-.019h.012l.013.019v.012l-.006.025.012.063.007.006.056.044v-.012h.006l.038.012.006-.006v-.006h.012v.006h.032l.018-.013.038-.03.019-.026h.012l.007.006.025.007h.012l.013-.007h.006l.006.007.025.03.013.02.018.012v.013l-.006.056v.138l-.006.062.006.013.019.006h.05l.006-.006.013-.025.019-.013.018-.006.02.012.018.019.006.006v.007l.019.006h.006l.019.006h.025l.031.006.013.019.006.006.012-.012h.02l.024-.019h.02l.018.006.037.025.02.019h.005l.013.013.05.006v-.025l.006-.02.012-.005h.051l.025-.007h.056l-.012-.018.012-.013.006-.056-.012-.031.006-.006.006-.013h.019l.025-.006.019-.019.025.025.012.006.02-.006.012-.012.012.006.013-.013.019-.006.012-.012-.006-.02.012-.025.02-.018v-.007l.012-.012h.006l.012-.012v-.025l.006-.013-.012-.025.012-.025v-.012l.013-.02.019-.005.025-.013h.006v-.038l-.019-.025-.006-.012-.006-.007.006-.012.013-.025.037-.012-.006-.013v-.019l-.031-.006v-.012l.006-.02-.006-.024-.007-.006-.012-.007h-.032v-.012l.007-.02.012-.012.006-.03.02-.026.018-.012.025-.007.025-.006.013-.019.006-.043.006-.013v-.038l.013-.025.012-.006.02-.006h.03v-.013l.019-.006.019-.019.012-.025.019-.012.019-.006.012-.007v-.043l.007-.007h.031l.006-.006.02.006h.012l.018-.018h.019l.069.018.043-.006.007-.006.019-.006.006-.013.006-.006.007-.02-.007-.012v-.006l-.006-.006-.032-.056-.018-.057-.013-.05-.006-.062v-.007l-.006-.012-.006-.031v-.038l.006-.043.012-.044.013-.05.012-.007v-.012l.013-.02.013-.024.025-.031.08-.088.007-.006.006-.013.006-.006.007-.006.043-.044.025-.031.032-.038.019-.012.018-.007.044-.006.013-.006.012-.006h.013l.056-.031-.013-.032-.006-.025-.006-.05-.006-.056-.007-.069-.006-.025.006-.013.013-.012.006-.007.013-.018v-.056l.006-.038.006-.019.006-.018.02-.013.012-.019v-.025l.012-.013v-.025l.013-.018.019-.019.018-.044.007-.012.037-.038.038-.025.012-.018.025-.02.019-.037.006-.006.013-.032.013-.012.006-.006.012-.013.006-.006.013-.006.006-.031.025-.02.013-.037.006-.025-.006-.006h.006l-.006-.025-.006-.019v-.081l-.013-.019-.006-.025.006-.012.006-.025.019-.032.019-.019.018-.025.013-.03.019-.02h.006v-.03l-.006-.076-.013-.113-.019-.075-.006-.018-.012-.044-.007-.02-.006-.012v-.018l.013-.07.012-.043.013-.012.012-.013h.038l.025-.012.012-.007.032-.025.012-.006h.019l.037.012h.025l.007-.006.006-.012.025-.013h.056l.02-.006.012-.006.012-.025.031-.044.007-.019.006-.025v-.031h.006l.006-.019.013-.019.012-.006.007-.006.006-.007.006-.012v-.044l.013-.012.012-.007.006-.006.025.006.05.013.026.006.043.013.02.006.018.012h.019l.006-.006.025-.019.056-.037.032-.031h.018l.025.006h.013l.012-.013.007-.006.012-.012.006-.031.007-.007.03-.025.007-.019v-.069l.006-.018.013-.019.012-.006.013-.007h.012l.013-.006h.019l.025.007.006.006.025-.007.013-.006.018-.025.019-.037v-.006l-.006-.032-.019-.044-.006-.012-.013-.019v-.013l.007-.018.012-.031.006-.02v-.005l-.006-.007-.012-.018v-.032l.012-.019h.012l.032-.037.025-.019.025-.037.006-.013.012-.019.013-.025.032-.044.006-.012v-.025l-.013-.019.007-.025.012-.019.013-.018v-.025l-.007-.02.007-.012.006-.006v-.019l-.006-.012v-.006l-.007-.02-.012-.006v-.025l.012-.03-.006-.013.006-.013.007-.025.006-.012h-.006l.006-.013v-.019l.025-.018v-.069l-.006-.013v-.031l.006-.044-.006-.031.006-.025v-.031l-.006-.007-.013-.006h-.062l-.013-.006v-.032l-.007-.012.02-.013v-.006h.018l.013-.012.044-.025.03-.007.026-.018.006-.02.019-.018.03-.019.033-.025.006-.012h.012l.02-.006h.024l.031-.032.05-.031.006-.006h.025l.02-.007h.043l.025-.012.025.006h.031v-.006h.026l.006-.006.025-.007.025.007.006-.007h.006l.019-.006.019-.019.006-.006.007-.006.018.006.013-.006.012-.019.007-.018.012-.013v-.025l.006-.013.013-.012.006-.02-.006-.005-.006-.013v-.019l-.007-.012.006-.006.007-.013v-.006l-.013-.019.006-.006v-.013l.013-.012.012-.006.007-.006-.013-.038.006-.019.007-.006.006-.013v-.025l.006-.031v-.019l.006-.012.013-.019.019-.013.012-.03.019-.026-.006-.006v-.006l-.007-.025-.018-.013-.02-.013-.012-.012h-.018l-.025-.013-.013-.006-.006-.006-.006-.031-.006-.006-.007-.007.007-.006-.007-.019v-.031l.007-.006.012-.013.031-.018.013-.007.018-.038.013-.03.006-.02v-.018l-.006-.006-.019-.013-.012-.006-.013-.032-.006-.012v-.019l.006-.018.05-.05.019-.038.019-.019.03-.05.007-.012h.007l.012-.007.013-.006h.012l.038.006.018-.006.038-.019.031-.006h.025l.013-.006.012-.038.013-.025.006-.012.019-.007.025-.018.012-.007.007-.025v-.043l-.007-.02.007-.012.018-.025.025-.025.007-.012.012-.019.019-.025.012-.038v-.037l-.006-.044v-.025l.006-.025.025-.031v-.038l-.006-.037v-.038l.013-.019v-.012l.012-.019.019-.012.019-.025.006-.032-.006-.025-.006-.019-.013-.012-.013-.038v-.038l-.012-.03v-.025l.006-.019.013-.063.012-.037h.007l.006-.007.019-.012.03-.025.013-.019h.007l.006-.012.012-.025.007-.019.006-.038.012-.056.007-.019.018-.019.019-.037v-.006l.012-.006v-.013l.007-.012.018-.02h.007l.013-.006.012-.018.019-.032.012-.037.013-.019.006-.025v-.056l.006-.031.006-.05h.007l.018-.02.007-.006v.006l.037-.006.031-.012.044-.032h.013l.012-.006.007.006.012-.006.006-.006.013-.006v-.031l.006-.013h.007l.012-.012.006-.013v-.012l.006-.013.025-.031.013-.006.006-.007.013-.013h.012l.006-.012.007-.012.012-.025.019-.013.019-.006v-.013l-.007-.018v-.02l.007-.005.012-.007.026-.018.018-.02v-.005l.006-.007v-.018l.007-.007.012-.006v-.038l.006-.018.025-.025.007-.007.018-.018.02-.025.005-.02.013-.055.006-.013.013-.006.006-.007.012-.006.013.006.038.026h.025l.018.006.038.006.012.006.02.02.012.018.018.019.025.012.019.006h.038l.019-.006.006-.006.031-.006.056-.025.025-.007.007-.006.018-.012.025-.032.02-.019.018-.031.013-.013.043-.024.05-.032.038-.012.025-.019.031-.012.038-.007.019-.006.018-.006.032-.019.043-.012.013-.007h.006l.019-.018.018-.032.007-.037.006-.013h.006l.026-.012.043-.007h.032l.018-.006.038-.019.088-.037.018-.006.044-.013.019-.006.025-.019.018-.012.007-.026-.006-.03.006-.045.012-.05-.006-.006v-.019l-.006-.024v-.02l-.013-.012-.006-.013-.012-.012-.02-.006-.012-.02-.006-.005-.025-.02-.044-.018-.019-.019-.012-.025-.007-.006v-.019l.007-.006.025-.012.013-.019.018-.012.02-.007.005-.012.007-.007.012-.019.006-.012-.006-.031v-.025l.006-.025-.006-.025v-.019l.012-.025h-.006l-.006-.012v-.019l.031-.032.006-.019.007.007.006-.013.006-.012h.013l.006-.007v-.006l-.006-.012-.006-.02v-.005l.018-.032.007-.006.012-.012.006-.006-.006-.013-.019-.013v-.012l-.018-.031-.013-.026-.006-.012-.013-.019v-.018l.006-.013v-.012l.02-.026.024-.006.007-.006v-.012l-.02-.025v-.025l.007-.007.019-.025.006-.019v-.025l.006-.012.038-.032.006-.012-.006-.019-.007-.019-.025-.006.007-.012-.013-.019-.018.013-.013-.007v.013h-.006v-.006l-.013.006-.006.006v.006h-.019l-.006-.012h-.006l-.025-.006v-.007l.012-.006-.012-.025-.013-.012v-.013l-.018-.007h-.025l-.007-.006-.031-.006-.013-.006.006-.013.013-.006v-.006l.006-.019h-.006l-.013.012-.006-.018-.006-.013.006-.018v-.007l-.006-.006-.012-.012h-.02l-.005-.013h-.025l-.007-.006.006-.013v-.006l-.006-.006v-.006h.025v-.007l-.012-.018-.025-.007-.013-.006-.012-.013-.013-.006v-.019l-.012.007-.006.006-.013-.019-.006-.006h-.019l-.007.006-.006.012h-.006l-.006-.024-.013-.007h-.025l-.012.006-.025-.006h-.007l-.043.013h-.013l-.018-.013h-.02l-.012.006-.012-.006-.032-.018-.012.006-.019.012-.012.013H28v-.007l-.012-.018h-.007l-.006.006.013.019-.013.012-.012-.031-.007-.006h-.031l-.025.006h-.006l-.038.006-.013.006-.006-.006-.006-.018-.006-.007-.013-.006-.018-.012-.025-.038h-.007l-.025-.006v-.006l.013-.013-.006-.012v-.007h.025v-.012l.012.006.006-.006-.006-.006v-.007l.006-.006.007-.006-.013-.006h-.006v-.007l-.019.007-.006-.007v-.025l-.006-.019.006-.012.019-.013.006-.03.019-.007-.013-.019.006-.006-.006-.006-.006-.007-.013-.018-.012-.05v-.032l-.013-.056v-.019l-.006-.031-.019-.113-.006-.019v-.012l-.006-.006v-.025l-.006-.02-.007-.037-.006-.025-.019-.112-.006-.038-.006-.037-.006-.044v-.006l-.006-.019-.007-.012v-.032l-.025-.106v-.044l-.007-.031-.006-.007-.006-.03-.006-.032v-.025zm-8.877 18.838-.006-.013.006-.007z" clip-rule="evenodd"/></svg>