<svg xmlns="http://www.w3.org/2000/svg" width="599" height="876" fill="none" viewBox="0 0 599 876"><g filter="url(#a)"><path fill="#f9cb90" fill-rule="evenodd" d="M444.432 31.748c-3.048 1.74-6.433 1.662-8.052-.185-2.567-2.935-.85 9.366 1.825 13.062.538.745.669 2.03.302 2.968-1.25 3.19-.16 8.148 2.015 9.142 1.942.89 1.953.958.426 2.435-1.201 1.165-1.362 1.755-.68 2.534.49.556.831 1.895.759 2.97-.111 1.675.062 1.823 1.185 1.008 2.719-1.966 2.848.646.163 3.28-3.234 3.168-3.473 5.244-.754 6.49 1.522.699 1.921 1.353 1.533 2.518-.597 1.784-.914 1.696 10.206 2.788 11.779 1.157 13.57 1.89 10.91 4.464-2.063 1.995.11 7.015 3.422 7.911 2.717.735 3.532 3.317 1.631 5.158-1.614 1.562-2.214 7.293-.92 8.771.682.779.572 1.329-.468 2.366-.881.876-1.73 3.853-2.412 8.473l-1.051 7.124 4.28-.3 4.281-.304-3.023 2.647c-2.399 2.097-3.197 3.515-3.871 6.878-1.091 5.428-2.017 6.85-5.309 8.123-1.472.57-3.818 1.687-5.211 2.484-1.393.793-3.387 1.754-4.436 2.135-1.045.379-5.924 2.853-10.839 5.503-8.622 4.647-9.024 4.776-11.578 3.656-1.453-.639-2.968-.986-3.362-.778-.398.211-1.355-.145-2.122-.789-1.46-1.221-4.375-1.131-4.459.136-.026.403-1.609 2.217-3.514 4.027-1.908 1.814-3.505 3.845-3.549 4.522-.045.673-.658 1.64-1.361 2.151-.704.507-1.315 1.45-1.358 2.093-.09 1.365 2.801.938 4.986-.732.744-.568 1.929-.992 2.633-.946.706.047 1.428-.221 1.602-.6.64-1.385 4.035-1.65 3.946-.304-.046.697-.618 1.232-1.27 1.189-.652-.044-1.622.623-2.157 1.48-.535.856-1.517 1.522-2.181 1.478-.667-.044-1.441.422-1.725 1.031-.282.611-1.425 1.278-2.541 1.478-1.116.203-1.834.737-1.598 1.186.679 1.281 4.147 1.198 4.755-.114.608-1.318 3.863-1.434 3.776-.133-.03.455-.987 1.113-2.128 1.461-1.141.35-2.098.999-2.128 1.448-.029.446-.978.98-2.107 1.185-1.131.208-2.076.672-2.1 1.039-.024.364-1.942 1.72-4.26 3.012-2.321 1.293-4.239 2.655-4.263 3.025s-.5.649-1.055.618c-2.17-.117-3.487 1.184-2.53 2.506.72.992.646 1.322-.365 1.635-1.56.482-1.893 3.648-.392 3.748.598.039 1.948-.577 2.997-1.373 1.052-.798 2.414-1.216 3.031-.931 1.602.739 1.321 1.58-.843 2.514-2.84 1.225-4.828 2.356-9.493 5.409-7.711 5.043-7.993 5.301-8.179 7.515-.101 1.193-.604 2.396-1.119 2.67-.562.297-.854 1.767-.727 3.655.117 1.734-.116 3.135-.52 3.108-.403-.027-.767.498-.811 1.165s.126 1.226.38 1.243c.255.017 1.043-.479 1.755-1.102.711-.622 2.139-1.076 3.173-1.007 1.031.068 2.122-.407 2.421-1.058.302-.65 1.263-1.134 2.143-1.075.876.058 1.816-.209 2.088-.59.712-.997 7.027-3.678 8.437-3.584 1.749.116 1.352 1.521-.562 1.991-.91.222-1.677.765-1.706 1.202-.029.44-1.17 1.104-2.535 1.482-1.365.376-2.514 1.167-2.553 1.762-.039.591-.898 1.14-1.908 1.213-1.01.076-1.796.499-1.746.938.162 1.448 1.475 1.398 3.499-.136 1.097-.832 2.667-1.465 3.489-1.41.822.054 1.514-.241 1.542-.653.027-.412 2.207-1.596 4.846-2.629 2.636-1.034 5.001-2.159 5.258-2.502.255-.342 1.392-.952 2.527-1.358 1.133-.406 3.201-1.377 4.593-2.156 1.392-.781 3.848-2.001 5.458-2.713 3.068-1.353 29.55-14.672 33.454-16.825a115 115 0 0 1 4.569-2.355c1.268-.61 2.33-1.466 2.359-1.899s.962-.728 2.075-.654c2.04.135 2.774-.922 1.346-1.939-.427-.306-.753-.897-.725-1.315.067-1.016 3.069-.777 3.635.29.563 1.06 2.762 1.249 2.828.242.028-.415-.704-1.048-1.62-1.411-2.268-.887-.66-2.081 14.828-11.002 2.713-1.562 4.049-2.874 4.127-4.051.064-.955.728-2.744 1.476-3.973 1.497-2.453 2.215-8.271 1.033-8.35-.406-.026-2.614.741-4.901 1.706-2.287.963-4.773 1.712-5.522 1.662-1.822-.121-.981-2.014 1.003-2.263.86-.108 2.085-.849 2.728-1.646.641-.798 1.508-1.426 1.927-1.398.421.028 1.491-.586 2.38-1.365.89-.778 2.131-1.588 2.761-1.802.9-.303.855-.592-.214-1.373-1.815-1.326-1.633-2.551.362-2.418.891.059 1.595.471 1.565.914-.029.446.492.846 1.159.89.668.044 1.237-.283 1.267-.729.029-.443-.453-.84-1.074-.881-.619-.042-1.298-.635-1.512-1.319-.488-1.583-1.586-1.656-3.229-.214-.711.622-1.821 1.097-2.467 1.054-.642-.043-1.658.438-2.257 1.068s-1.964 1.088-3.034 1.017c-1.073-.071-2.195.402-2.494 1.053-.548 1.181-5.291 1.427-5.156.266.038-.332 1.762-1.527 3.831-2.654 4.288-2.334 4.695-3.236 1.871-4.145-1.875-.606-2.748-2.141-1.156-2.035.403.026 2.674-1.285 5.042-2.915s4.599-2.944 4.96-2.92c.358.024 1.286-.554 2.065-1.282.776-.731 2.396-1.921 3.602-2.642 2.515-1.505 3.058-4.228 1.027-5.149-5.014-2.273-5.573-7.713-1.037-10.116.843-.446.782-.721-.264-1.205-1.522-.701-1.656-2.942-.253-4.174 1.633-1.427-2.725-4.509-6.751-4.776-3.424-.227-4.77-1.824-2.535-3.01 1.139-.603 1.966-14.013 1.068-17.273-.73-2.64-3.484-4.324-5.406-3.304-.527.279-.313-.563.478-1.872.79-1.308 1.797-2.57 2.235-2.802 1.105-.585-.405-4.68-2.911-7.899-2.057-2.64-6.128-3.839-7.33-2.152-.306.424-1.167.69-1.915.588-1.229-.167-1.229-.21-.01-.448 1.314-.257 2.818-3.915 2.136-5.197-.566-1.073-4.594-.939-6.339.206-3.472 2.282-7.308.109-4.019-2.27 1.724-1.247.458-5.705-1.661-5.846-.846-.056-1.514-.465-1.484-.911a.814.814 0 0 1 .863-.756c1.074.071 1.239-2.924.204-3.665-.558-.397-.503-.905.178-1.624.544-.576.776-1.453.51-1.949-.701-1.325-4.583 2.157-4.741 4.25-.156 2.073-4.286 3.002-5.172 1.162-.3-.617-1.768-1.62-3.266-2.227-2.364-.958-2.616-1.328-1.92-2.826 4.363-9.38 3.303-12.493-3.019-8.883m45.196 102.083c-.303.425.219.825 1.159.887.943.063 1.513-.265 1.266-.726-.243-.464-.765-.864-1.159-.89-.391-.026-.961.302-1.266.729m-4.388 1.871c-.57.188-1.061.697-1.09 1.137-.076 1.137 3.412.714 3.893-.476.401-.993-.873-1.294-2.803-.661m-6.904 3.062c-.029.446-.803.76-1.718.699-.916-.061-1.416-.459-1.111-.887.305-.424 1.079-.738 1.718-.696.64.043 1.141.442 1.111.884m-2.963 7.926c-.029.446-.781.761-1.669.702-.889-.059-1.592-.471-1.563-.917s.782-.761 1.67-.702 1.592.471 1.562.917m-48.129 15.482c-.03.445-1.054.737-2.279.649-1.731-.124-1.943-.315-.957-.864 1.651-.917 3.304-.807 3.236.215m59.086 15.216c-.027.4-1.075 1.059-2.329 1.463-1.258.406-4.553 1.878-7.326 3.274-2.773 1.394-6.169 3.008-7.548 3.589-1.378.579-3.645 1.692-5.036 2.471-2.822 1.582-6.024 2.834-7.07 2.764-.379-.025-.833.247-1.003.607-.292.602-24.85 13.108-25.642 13.056-.194-.013-3.959 1.838-8.362 4.113-4.405 2.278-9.582 4.882-11.506 5.793-1.925.907-8.282 4.049-14.126 6.98-5.844 2.929-11.027 5.301-11.518 5.268-.488-.032-.911.281-.938.693-.028.416-.83.947-1.781 1.179-.95.236-3.416 1.409-5.478 2.609-3.618 2.108-3.821 2.134-5.72.698-3.133-2.364-4.482-1.394-4.123 2.958.227 2.737-.063 4.171-1.132 5.586-.791 1.047-1.474 2.439-1.518 3.091-.102 1.537 3.069 2.811 3.942 1.587.363-.506 1.701-.701 2.974-.43l2.315.495-2.641.924c-1.453.509-3.089 1.756-3.634 2.77-1.14 2.117-1.52 5.272-.589 4.877 7.251-3.073 12.141-5.249 14.856-6.609 3.831-1.923 10.143-4.556 10.813-4.511 1.043.069.223 1.735-1.052 2.129-.762.235-2.095 1.048-2.962 1.807-.866.758-2.081 1.345-2.699 1.304-.622-.042-1.374.457-1.673 1.107-.302.65-.944 1.155-1.43 1.123-.485-.032-2.634 1.104-4.775 2.524-2.144 1.423-4.206 2.566-4.582 2.541-1.87-.125-10.052 6.355-10.167 8.053-.134 1.967 2.275 2.7 4.212 1.285 2.132-1.561 7.462-4.366 8.204-4.316.425.028.796-.285.823-.695.027-.409 1.126-.906 2.443-1.104 1.314-.2 2.628-.874 2.916-1.497s1.272-1.082 2.191-1.021 1.906-.409 2.201-1.042c.292-.635 1.317-1.344 2.273-1.582.96-.234 2.274-.893 2.924-1.459.649-.569 1.841-.989 2.653-.935.81.053 1.716-.435 2.018-1.085.299-.65 1.136-1.142 1.858-1.095.721.048 2.286-.579 3.476-1.392 1.19-.816 2.66-1.45 3.267-1.409.609.04 1.127-.282 1.156-.718.029-.437.977-.962 2.109-1.167 1.131-.205 2.075-.663 2.099-1.015.023-.354 1.069-.973 2.323-1.377 3.057-.988 11.178-4.91 12.863-6.215.742-.575 1.734-1.021 2.198-.99.467.031 1.317-.439 1.89-1.041.573-.604 2.121-1.26 3.444-1.461 1.323-.199 2.428-.698 2.455-1.107s.568-.709 1.205-.666c.633.042 1.669-.377 2.3-.929 1.073-.939 3.289-2.068 8.249-4.203 1.151-.496 2.296-1.145 2.547-1.445.255-.3 1.39-.876 2.522-1.279 1.135-.406 4.72-2.19 7.962-3.966 3.246-1.777 6.317-3.214 6.827-3.192.507.021 1.172-.492 1.471-1.142.302-.65 1.478-1.12 2.618-1.045s2.317-.394 2.619-1.044c.299-.65 1.002-1.152 1.563-1.114.558.037 1.992-.599 3.179-1.415 1.19-.814 2.745-1.441 3.452-1.394.709.047 1.31-.242 1.337-.646.026-.4 1.165-1.037 2.53-1.412 1.365-.376 2.507-1.067 2.538-1.534.031-.47.766-.805 1.637-.747 1.819.121 5.934-3.194 6.045-4.867.157-2.356-1.72-2.158-8.4.879-11.823 5.379-12.741 5.815-13.187 6.242-1.938 1.845-14.203 5.936-14.121 4.708.029-.442.518-.775 1.088-.737.567.037 1.703-.618 2.524-1.459.82-.838 2.02-1.489 2.663-1.447s2.448-.946 4.011-2.2c1.563-1.251 3.673-2.43 4.69-2.618 1.018-.189 1.87-.641 1.894-1.004.038-.577 5.551-3.649 11.297-6.298 3.977-1.834 5.123-3.625 3.5-5.474-1.296-1.481-1.618-1.539-3.312-.567-1.371.783-2.104.816-2.713.121-.608-.698-.238-1.179 1.374-1.788 1.215-.461 2.231-1.131 2.255-1.489.024-.357.939-1.061 2.035-1.561l1.994-.909-1.736-3.161c-1.576-2.873-4.862-4.614-4.993-2.643m-80.214-2.811c-.03.443.653.853 1.517.911.861.057 1.816-.245 2.121-.67.313-.442-.343-.835-1.517-.913-1.137-.076-2.092.226-2.121.672m78.546 15.677c-.062.934-3.232 1.537-3.676.7-.19-.354-.095-.862.209-1.128.827-.725 3.522-.39 3.467.428m8.757 14.889c-.044.668-.578 1.18-1.19 1.14-1.78-.119-8.808 2.664-8.864 3.51-.028.425-.721.726-1.543.671s-2.38.573-3.467 1.393c-1.084.824-2.642 1.451-3.464 1.397s-1.518.249-1.546.677c-.029.427-1.836 1.504-4.015 2.395-2.182.89-5.675 2.586-7.763 3.766-3.718 2.101-7.028 3.694-16.057 7.72-2.467 1.1-5.096 2.479-5.838 3.063-.745.584-2.144 1.012-3.108.948-.968-.064-1.79.39-1.831 1.008-.041.619-.999 1.292-2.131 1.5-1.131.205-2.077.7-2.104 1.1-.026.4-1.156.898-2.509 1.1-1.354.206-2.481.673-2.506 1.037-.024.367-1.161.973-2.526 1.352-1.365.375-2.504 1.027-2.532 1.446-.028.421-.976.931-2.104 1.136-1.131.205-2.08.73-2.109 1.166-.029.437-.55.762-1.156.722-.607-.041-2.077.593-3.267 1.406s-2.924 1.429-3.855 1.367-1.717.261-1.747.716-1.084 1.198-2.342 1.653c-1.261.455-2.488 1.056-2.729 1.332-.547.628-8.742 4.609-12.321 5.989-1.459.561-2.905 1.375-3.214 1.809s-1.228.743-2.044.689c-.815-.054-1.728.434-2.03 1.084-.299.65-1.117 1.144-1.815 1.097-1.113-.074-5.921 2.394-7.141 3.665-.488.507-4.397 2.327-7.473 3.475-1.109.414-2.442 1.227-2.961 1.804-3.341 3.704-9.697 4.345-9.472.958l.128-1.925-4.814 2.192c-5.38 2.451-8.239 4.692-7.058 5.531.421.302.71 1.412.64 2.464s.317 2.101.86 2.326c.542.228.168.221-.831-.016-1.628-.382-1.725-.254-.934 1.227.675 1.254.635 2.085-.157 3.461-.574.994-1.33 2.61-1.676 3.592-.348.982-.969 1.763-1.385 1.735-.415-.027-.827 1.042-.916 2.376-.136 2.05.154 2.447 1.861 2.56 2.302.153 2.64 1.753.464 2.193-1.645.332-3.956 2.838-4.943 5.361-1.023 2.615 1.468 2.802 6.522.488 2.381-1.094 4.515-1.637 4.74-1.214.225.426-.326.916-1.226 1.088-.901.171-1.673.888-1.72 1.588s-1.009 1.44-2.141 1.646c-1.131.205-2.077.696-2.104 1.093-.081 1.222 3.204 1.011 3.784-.242.302-.65 1.072-1.147 1.715-1.104s5.639-2.184 11.106-4.949c5.468-2.764 10.206-5.008 10.528-4.986.321.021 2.277-.946 4.342-2.148 2.066-1.203 3.888-2.179 4.048-2.168.437.029 12.538-5.907 13.043-6.397.625-.608 3.465-2.1 5.891-3.099 1.146-.472 2.604-1.469 3.239-2.216.631-.746 1.856-1.311 2.72-1.253.886.058 1.611-.445 1.658-1.154.046-.695.435-1.01.866-.704.43.309 1.584.361 2.562.121l1.78-.439-1.846-1.593-1.846-1.597 2.182-.668c1.2-.368 2.333-.957 2.514-1.307.182-.354 1.948-1.588 3.922-2.746 4.202-2.465 4.489-3.527 1.616-5.98l-2.113-1.803 2.564-1.916c1.41-1.052 3.405-2.202 4.433-2.557 1.237-.423 1.916-1.331 2.006-2.683.142-2.141 2.867-5.106 4.595-4.994.555.033 1.811-.998 2.79-2.291 2.29-3.025 6.391-5.219 9.384-5.02 1.295.086 3.104-.288 4.02-.827 2.913-1.71 7.277-2.586 8.115-1.629.422.482 1.716.939 2.877 1.016 1.377.092 2.644.968 3.64 2.52 1.573 2.453 14.625 4.437 17.75 2.695.591-.326 2.242-.423 3.668-.21 1.427.211 3.348.037 4.268-.386 7.593-3.495 9.585-4.182 10.411-3.594.692.494.558.856-.502 1.361-.795.377-1.355 1.287-1.245 2.022.174 1.181.439 1.22 2.292.338 8.167-3.889 13.032-4.406 9.845-1.045-.946.997-.862 1.194.551 1.288.916.061 1.916-.238 2.222-.666 1.038-1.454 2.922-.622 3.598 1.591.513 1.676.918 1.995 1.678 1.33 1.445-1.265 3.967-.9 5.628.818.978 1.009 1.631 1.211 2.051.63 1.727-2.389 7.742-4.048 9.207-2.535.778.804 1.635 1.154 1.907.776 1.182-1.658-5.029-5.405-9.447-5.698-2.298-.153-2.723-.397-1.918-1.102 1.817-1.591 1.377-3.219-.8-2.953-1.434.176-2.062-.173-2.273-1.271-.161-.833-.859-1.736-1.554-2.007-4.137-1.621-3.95-1.414-2.541-2.831 1.662-1.671 1.251-3.056-1.915-6.47-1.634-1.757-2.488-3.491-2.396-4.868.135-2.038-.02-2.13-3.319-1.978-1.904.087-2.845.006-2.087-.175 2.111-.514 2.6-2.467.881-3.541-.84-.525-1.475-1.776-1.408-2.783.09-1.358-.592-2.143-2.643-3.044-2.379-1.044-2.676-1.481-2.139-3.148.342-1.064.404-1.95.134-1.968-.273-.018-.53.513-.575 1.18m-105.06 13.483c-.796.152-1.282.591-1.079.976.466.875 3.642.321 3.707-.646.049-.749-.25-.784-2.628-.33m7.585 23.494c-1.635.909-2.493.852-2.425-.161.029-.445.872-.749 1.872-.676 1.473.107 1.578.269.553.837m-19.539.731c-.045.676-.8 1.165-1.697 1.106-1.789-.119-2.109-1.395-.481-1.93 1.806-.592 2.26-.422 2.178.824m35.396 29.559c-.03.443.492.843 1.159.887s1.237-.283 1.266-.726c.03-.445-.492-.846-1.159-.89s-1.237.283-1.266.729m9.461 4.283c-.045.679-.802 1.165-1.724 1.104-.904-.06-1.886.423-2.188 1.073-.299.65-1.336 1.129-2.3 1.065-.967-.064-2.428.57-3.249 1.408-.82.838-2.223 1.475-3.115 1.416-1.777-.118-2.38 1.901-.794 2.649.541.255-.362.18-2.005-.17-2.291-.487-3.126-.336-3.582.648-.324.707-1.2 1.242-1.943 1.193s-2.022.597-2.842 1.438c-.82.837-2.224 1.475-3.118 1.416-.904-.06-1.661.429-1.706 1.105-.05.758-.845 1.162-2.127 1.077-1.125-.075-2.293.396-2.591 1.046-.303.65-1.006 1.151-1.564 1.114-.561-.037-1.992.599-3.182 1.412-1.19.816-2.742 1.444-3.449 1.397-.709-.047-1.31.242-1.337.642-.026.404-1.076 1.071-2.331 1.49-2.887.957-6.914 2.949-8.43 4.17-.64.515-1.683.902-2.316.86-.637-.042-1.179.281-1.208.718s-.953.957-2.048 1.155c-1.097.199-2.671 1.017-3.494 1.815-.827.798-2.198 1.404-3.047 1.348-1.234-.082-1.456.272-1.094 1.748.381 1.551.278 1.682-.647.804-1.324-1.257-4.404-.819-5.119.726-.281.609-1.209 1.059-2.064 1.002-.859-.057-1.804.428-2.103 1.078-.302.65-1.23 1.137-2.064 1.082-.834-.056-2.225.583-3.088 1.418-.863.838-2.203 1.48-2.976 1.428-.773-.051-1.652.439-1.951 1.089-.32.688-1.563 1.114-2.998 1.019-1.434-.095-2.478.259-2.517.856-.067 1.001-1.048 1.569-6.547 3.787-1.492.601-2.738 1.475-2.769 1.945-.034.512-2.218.693-5.512.456-11.77-.843-10.685-1.127-10.95 2.863-.129 1.941-.614 3.733-1.078 3.979-.46.244-.905 1.441-.986 2.66s-.613 2.625-1.182 3.123c-1.562 1.367.825 1.337 2.554-.032.983-.778 1.696-.828 2.512-.177.873.698.894.988.087 1.254-.579.19-1.695.908-2.478 1.596-.786.688-2.063 1.575-2.842 1.974-7.298 3.73-8.121 4.616-8.891 9.566-.496 3.195 3.341 5.046 5.04 2.43.95-1.46 4.28-1.482 3.69-.023-.219.543-1.197 1.05-2.174 1.129-1.117.09-1.811.72-1.876 1.702-.075 1.128-.665 1.525-2.123 1.428-1.113-.074-2.047.229-2.076.675-.03.443.856.867 1.969.941 1.109.074 2.04-.19 2.067-.584.026-.398 1.043-.903 2.258-1.124 1.214-.22 2.673-.955 3.239-1.63.628-.747 1.56-.981 2.388-.6 1.802.833-2.972 5.215-5.497 5.047-.925-.061-1.715.404-1.757 1.038-.041.63-1.183 1.316-2.537 1.518-2.873.434-3.312 1.586-.814 2.124 2.03.439 2.884 2.482.983 2.355-.71-.047-1.959.601-2.782 1.439-.82.841-1.875 1.502-2.345 1.47-.467-.031-1.525.63-2.345 1.468s-2.042 1.488-2.712 1.443a1.227 1.227 0 0 0-1.303 1.132c-.044.667-.535 1.188-1.091 1.158-2.264-.12-3.492 1.178-2.457 2.605.625.867.658 1.326.085 1.288-1.119-.075-3.635 4.025-3.777 6.157-.148 2.222 1.189 2.96 2.803 1.544.743-.648 1.87-1.146 2.503-1.104.637.043 1.18-.287 1.209-.733.03-.442 1.053-.718 2.276-.607 2.032.181 2.07.247.467.774-.966.317-2.013 1.137-2.33 1.825-.316.686-1.498 1.186-2.622 1.111-1.28-.085-2.077.319-2.128 1.077-.044.667-.353 1.195-.687 1.173-.333-.019-1.725.802-3.09 1.826-1.366 1.024-2.912 1.835-3.433 1.8-.819-.054-3.533 5.403-2.992 6.017.391.447 5.983-1.393 8.012-2.638 1.152-.703 2.74-1.237 3.532-1.185.788.053 1.461-.259 1.489-.69.073-1.097 6.936-3.602 7.894-2.88.432.324-.004.648-.968.721s-1.986.828-2.271 1.677c-.335 1.007-1.214 1.5-2.518 1.413-1.322-.088-2.18.407-2.533 1.455-.316.951-1.208 1.543-2.22 1.476-.931-.062-2.42.479-3.309 1.203-2.63 2.139-5.506 3.898-6.291 3.845-.403-.026-.564.877-.359 2.008.424 2.324.142 2.452-2.009.902-2.287-1.65-4.366.307-2.238 2.111 2.001 1.689.812 2.533-1.678 1.192-1.1-.594-2.349-1.1-2.773-1.128-1.24-.082-1.029 2.149.262 2.746.65.302 1.148 1.06 1.107 1.685-.042.627.44 1.628 1.07 2.227s1.076 2.133.991 3.413c-.168 2.532.685 3.036 2.283 1.351.557-.59 1.925-1.236 3.038-1.44 1.109-.2 2.041-.692 2.067-1.096.027-.4 1.125-.89 2.442-1.089s2.628-.87 2.916-1.494c.288-.623 1.218-1.088 2.067-1.032s2.034-.413 2.63-1.044c.599-.63 1.573-1.113 2.161-1.074.591.039 2.707-.874 4.706-2.027 1.998-1.152 5.612-3.014 8.031-4.135 6.966-3.229 10.818-5.096 17.17-8.331 1.714-.873 6.058-2.997 9.651-4.723 3.595-1.725 6.733-3.347 6.973-3.605.239-.258 2.505-1.363 5.036-2.456 2.53-1.089 5.736-2.594 7.126-3.339 1.389-.746 4.409-2.19 6.709-3.209s4.757-2.255 5.46-2.744c.702-.493 2.972-1.645 5.043-2.568 2.071-.922 4.286-2.027 4.92-2.459 1.407-.952 4.176-2.342 6.421-3.217.919-.359 6.586-3.147 12.593-6.195 6.01-3.049 11.677-5.825 12.592-6.166.918-.341 2.806-1.266 4.199-2.054 1.392-.79 3.093-1.646 3.781-1.905.999-.375 13.277-6.452 19.312-9.556.694-.356 6.929-3.448 13.857-6.87 6.927-3.42 13.201-6.677 13.944-7.233.744-.557 1.78-.985 2.305-.95.524.035 2.853-1.089 5.169-2.498 2.317-1.411 4.724-2.531 5.349-2.489.625.041 1.38-.457 1.682-1.107.299-.65 1.284-1.133 2.187-1.073.904.06 1.668-.254 1.697-.697.03-.446-1.037-.882-2.372-.971-1.619-.107-2.398-.564-2.345-1.374.045-.667-.477-1.25-1.159-1.295-.679-.045-1.386-.549-1.564-1.118-.381-1.201-9.135-2.461-9.21-1.324-.027.403-.974.904-2.105 1.109s-2.078.699-2.105 1.102c-.027.401-1.18.9-2.565 1.109-1.384.207-2.744.878-3.028 1.486-.281.609-1.383 1.051-2.447.98s-1.956.202-1.983.608c-.048.725-6.593 3.695-7.945 3.605-.379-.025-1.366.491-2.192 1.143-.83.655-2.158.99-2.958.742-1.373-.423-1.366-.478.149-1.014.88-.313 2.303-1.095 3.162-1.742 3.985-3.006 4.704-3.47 6.65-4.3 1.144-.487 3.218-1.531 4.61-2.322 1.392-.788 3.296-1.715 4.233-2.061.933-.343 2.222-1.177 2.861-1.854.639-.673 1.599-1.194 2.136-1.158 1.016.067 5.274-3.53 4.707-3.976-.179-.139-.88-.737-1.562-1.331-1.18-1.028-6.76.078-8.138 1.613-1.082 1.207-6.658 3.039-7.999 2.63-1.247-.381-1.119-.577.8-1.223 1.256-.422 2.307-1.117 2.335-1.541.028-.428.832-.968 1.785-1.2.954-.235 2.423-1.03 3.264-1.769.843-.736 2.003-1.463 2.58-1.614.821-.213.867-.673.213-2.117-.865-1.912-4.253-2.765-5.278-1.328-.305.427-.896.753-1.315.725-1.131-.075-.773-2.295.428-2.636.602-.17.754-.614.363-1.057-.388-.446-.848-.352-1.096.223-.237.541-1.035.951-1.778.908-2.491-.141-3.882 1.079-2.85 2.506.575.79.609 1.435.094 1.706-.451.241-1.027.053-1.276-.417-.703-1.329-4.968-1.311-5.584.022-.298.65-1.466 1.121-2.591 1.046-1.128-.075-2.07.219-2.099.656-.029.436-.953.956-2.05 1.155-1.098.201-2.226.863-2.507 1.475-.64 1.383-4.096 1.281-3.535-.107.222-.543 1.2-1.05 2.173-1.129.977-.078 1.808-.662 1.85-1.299s.805-1.107 1.696-1.048c.898.06 1.652-.432 1.697-1.105.05-.755-.684-1.264-1.942-1.348-1.11-.073-2.044.23-2.073.673-.03.446-.964.749-2.076.675s-1.999-.498-1.969-.944c.029-.442.963-.746 2.076-.672 1.483.098 2.051-.299 2.13-1.485.071-1.067.644-1.58 1.696-1.51.873.058 2.025-.597 2.56-1.454.57-.912 1.8-1.507 2.967-1.429 1.131.075 2.023-.338 2.065-.956.039-.601.917-1.429 1.95-1.847 1.032-.416 1.363-.814.737-.886-1.583-.182-7.515 2.05-7.568 2.847-.024.358-.953.592-2.066.518-1.109-.074-2.001-.41-1.978-.75.041-.612.853-1.061 5.545-3.055 1.341-.572 2.763-1.482 3.155-2.026.396-.54 1.366-.941 2.164-.888 2.677.177 3.899-3.64 1.925-6.021-2.326-2.804-8.484-1.52-17.269 3.604-2.339 1.364-2.712-.265-.48-2.094 2.339-1.915 4.46-3.09 7.801-4.324 2.791-1.03 3.942-3.874 2.317-5.73-1.455-1.662-2.058-1.711-2.16-.168m6.96 23.608c-.313.439.343.833 1.517.911 1.137.075 2.092-.227 2.121-.669.03-.446-.653-.857-1.517-.914-.861-.057-1.816.245-2.121.672m-4.829 1.817c-1.213 1.062-.646 1.879 1.395 2.015 1.31.087 1.986-.246 1.816-.894-.31-1.196-2.325-1.899-3.211-1.121m9.015 14.614c-.063.952-2.484 1.681-3.403 1.026a.883.883 0 0 1-.201-1.232c.658-.924 3.668-.749 3.604.206m34.012 13.716c-.029.446.471.845 1.111.887.642.043 1.416-.271 1.718-.699.305-.424-.195-.823-1.111-.884s-1.688.253-1.718.696m-1.634 6.263c-4.139 1.787-7.721 3.449-7.959 3.686-1.063 1.062-6.64 3.591-7.756 3.517-.679-.045-1.48.45-1.779 1.1-.302.65-1.266 1.135-2.148 1.076s-1.926.393-2.326 1c-1.132 1.734-5.265 2.233-5.158.623.048-.716.632-1.265 1.299-1.221.667.045 1.989-.598 2.94-1.428.947-.832 2.363-1.469 3.145-1.417.783.052 1.926-.603 2.539-1.455.617-.851 1.663-1.513 2.324-1.469.664.044 1.231-.283 1.261-.729.085-1.286-3.173-1.152-3.778.154-.299.65-1.178 1.14-1.951 1.089-.776-.052-2.295.578-3.379 1.402-1.087.82-2.306 1.47-2.715 1.443-.41-.028-1.325.46-2.036 1.083-.712.622-1.958 1.088-2.767 1.034-.81-.054-1.719.434-2.018 1.084-.303.65-1.261 1.135-2.131 1.077-.873-.058-2.095.321-2.721.843-.625.521-2.078 1.345-3.224 1.826-1.15.481-3.229 1.521-4.621 2.312-1.393.788-3.285 1.762-4.204 2.16-.921.399-3.186 1.476-5.031 2.392a411 411 0 0 1-7.131 3.416 154 154 0 0 0-7.393 3.736c-1.994 1.089-4.449 2.281-5.457 2.646-1.008.366-3.156 1.356-4.775 2.196-1.618.843-4.64 2.329-6.715 3.306-2.075.974-4.381 2.231-5.122 2.794-.744.562-1.614 1.007-1.936.986-.321-.022-6.018 2.706-12.657 6.06-6.643 3.357-12.47 6.076-12.949 6.044-.479-.031-.895.27-.922.673-.026.4-1.075 1.062-2.33 1.469-1.257.404-3.8 1.556-5.652 2.56-1.854 1.001-4.302 2.142-5.443 2.538-1.144.393-3.224 1.449-4.624 2.346-1.402.896-3.487 2.016-4.636 2.488-1.148.468-3.097 1.423-4.331 2.118-1.237.697-4.076 2.169-6.308 3.272-2.236 1.103-4.634 2.315-5.329 2.695-.695.377-2.19 1.012-3.325 1.408-1.135.4-2.269.97-2.521 1.27s-1.398.928-2.544 1.397c-3.284 1.344-5.398 2.592-6.171 3.641-.392.534-1.644.908-2.781.832-1.789-.119-2.022.134-1.708 1.866.346 1.896.214 1.97-2.438 1.355-2.885-.667-3.609.05-1.959 1.938.756.863.265.922-2.456.3-3.321-.76-4.924.221-2.327 1.42.65.302 1.16.878 1.133 1.287-.075 1.128-4.477 1.426-5.051.341-.279-.521-.818-.658-1.201-.299-.383.358-.254.842.291 1.079 2.323 1.007.603 1.873-2.521 1.27-2.962-.575-3.179-.522-1.654.411 2.38 1.449 2.141 2.393-.822 3.207-1.365.378-2.498.93-2.518 1.231-.02.297-1.8 1.333-3.956 2.295-2.154.966-4.621 2.346-5.482 3.071-.858.726-2.107 1.283-2.774 1.238-.668-.044-1.235.25-1.262.657-.027.403-1.646 1.398-3.601 2.209-5.697 2.369-8.492 4.888-8.06 7.27.447 2.454 1.401 2.615 3.681.619.947-.829 2.179-1.496 2.735-1.478.56.019 2.53-.761 4.379-1.731 1.852-.967 4.172-2.056 5.158-2.414s2.057-1.024 2.379-1.474c.323-.454 1.328-.774 2.231-.714.907.06 2.613-.554 3.794-1.362 1.18-.808 2.461-1.247 2.845-.974 1.076.768-.151 1.954-1.904 1.837-.861-.057-1.603.436-1.647 1.094-.043.658-1.096 1.377-2.341 1.593-1.242.219-2.456.613-2.696.88-.529.581-10.006 6.033-11.804 6.788-.699.294-2.263 1.104-3.476 1.8-1.215.696-5.507 3.036-9.54 5.202s-7.704 4.529-8.154 5.254c-.893 1.433-5.395 3.914-8.46 4.67-1.059.259-2.437.923-3.064 1.472-1.329 1.163-3.494.429-3.389-1.151.194-2.932-5.643-5.004-7.596-2.697-.913 1.078-1.33 1.133-2.098.268-.677-.766-.685-1.062-.018-1.018 1.125.075 5.32-3.755 5.382-4.911.179-3.527-5.364-2.001-19.842 5.468-3.308 1.705-11.357 5.038-12.057 4.991-1.316-.087-.062-1.773 1.726-2.321 1.14-.348 2.096-.982 2.124-1.406.029-.428.888-.977 1.909-1.223s2.054-.658 2.293-.92c.561-.605 10.947-6.673 11.375-6.645 1.552.103 10.67-6.211 11.16-7.728 1.454-4.505-2.479-6.783-6.704-3.884-2.521 1.733-6.593 3.348-8.17 3.243-.885-.059-1.856.425-2.155 1.075-.626 1.357-3.051 1.467-2.963.136.033-.489.799-1.028 1.703-1.2.904-.174 1.666-.648 1.693-1.051s.982-1.019 2.123-1.37c1.14-.347 2.097-.999 2.127-1.445.03-.449.979-.983 2.107-1.188 2.392-.432 2.756-1.598.774-2.479-.758-.337-1.638-1.114-1.956-1.729-.316-.612-1.103-1.148-1.749-1.191-.642-.043-1.146-.442-1.116-.887.086-1.292-3.762-1.188-4.363.115-.313.68-1.554 1.115-2.909 1.025-1.359-.09-2.6.348-2.913 1.025-.299.65-1.284 1.133-2.188 1.073-.903-.06-1.667.248-1.696.685-.029.436-1.064.977-2.303 1.202s-2.79.878-3.443 1.453c-1.307 1.14-3.512.878-3.412-.407.036-.442.817-.874 1.733-.957.919-.082 2.092-.826 2.607-1.654.518-.827 1.474-1.467 2.123-1.424.652.043 1.207-.243 1.233-.634s1.14-1.082 2.48-1.532c1.336-.453 2.664-1.324 2.945-1.933.281-.612 1.252-1.062 2.156-1.002.91.061 1.676-.425 1.72-1.089.044-.658 1.016-1.366 2.157-1.574 1.736-.314 1.927-.588 1.152-1.656-.508-.704-.888-2.042-.839-2.971.063-1.262-.596-1.882-2.609-2.436-1.484-.409-2.898-1.118-3.145-1.573s-1.166-1.015-2.044-1.241c-.877-.229-2.085-1.664-2.687-3.194l-1.094-2.783-1.496 1.984c-.959 1.27-1.611 3.657-1.816 6.659-.443 6.399-2.818 8.593-7.877 7.273q-2.008-.523-6.568 1.772c-2.505 1.262-5.309 2.574-6.23 2.912-.918.341-2.81 1.263-4.202 2.051-1.392.787-3.281 1.713-4.196 2.057-.918.344-4.608 2.112-8.204 3.935-3.596 1.82-6.691 3.299-6.879 3.286-.185-.012-1.973.914-3.971 2.057-1.994 1.144-6.642 3.445-10.328 5.113-3.684 1.668-7.218 3.391-7.853 3.827-.852.586-1.379.445-2.002-.541-1.563-2.464-18.088 8.408-19.518 12.844-.38 1.169-2.304 2.817-4.928 4.214-2.693 1.435-4.706 3.178-5.376 4.65-.588 1.291-1.337 2.332-1.661 2.311-.325-.022-1.631.808-2.909 1.841-2.433 1.973-1.553 5.171 1.474 5.372 1.373.092 1.632-2.845.315-3.554-.541-.292.277-.225 1.817.148 4.107.994 5.997 3.946 2.37 3.705-.791-.052-2.095.501-2.895 1.23-3.099 2.816-4.7 3.952-5.488 3.9-.45-.03-1.707.617-2.791 1.438-1.084.823-2.464 1.462-3.061 1.423-.6-.04-1.124.464-1.168 1.125-.044.658-1.004 1.365-2.136 1.57-2.546.461-2.663 1.263-.375 2.576l1.76 1.009-1.855.422c-2.285.521-2.389 1.349-.438 3.574 1.772 2.027 3.574 2.311 5.265.827.67-.586 1.94-.824 2.822-.528 1.865.623 2.075 2.002.286 1.883-.67-.045-1.892.605-2.712 1.443s-1.911 1.496-2.424 1.462c-2.316-.154-7.814 5.594-8.538 8.929-.85 3.897-.268 4.633 2.574 3.25a118 118 0 0 1 3.723-1.723c.922-.399 3.942-1.858 6.714-3.239 2.772-1.382 5.845-2.804 6.831-3.162.986-.355 2.056-1.017 2.379-1.471s1.748-.743 3.168-.649l2.58.178-2.562 1.879c-1.409 1.037-3.312 2.186-4.232 2.558-1.89.764-2.405 1.043-11.557 6.313-3.651 2.103-6.822 3.811-7.047 3.796-2.422-.161-4.77 3.74-3.737 6.205.951 2.277.939 2.688-.1 3.008-.659.206-1.231.845-1.27 1.424-.038.576-1.77 1.898-3.85 2.939-4.233 2.115-5.883 6.556-2.52 6.779.867.058 1.865.709 2.215 1.448.353.739 1.336 1.258 2.19 1.15 1.955-.242 2.798-2.933.954-3.055-.742-.049-1.057-.454-.717-.931.433-.608.833-.581 1.422.094 1.376 1.569 3.718 1.249 7.658-1.044 2.066-1.203 4.237-2.155 4.828-2.116s1.561-.444 2.16-1.075c.6-.63 1.621-1.11 2.276-1.067.652.044 2.162-.587 3.352-1.4 1.19-.817 2.66-1.45 3.267-1.41s1.124-.236 1.15-.618c.025-.379 3.23-2.085 7.122-3.791 11.226-4.916 12.355-5.45 13.319-6.293.5-.439 1.524-.755 2.279-.705.752.05 1.613-.441 1.915-1.091.299-.65 1.154-1.141 1.897-1.092.742.049 1.812-.464 2.381-1.139.579-.693 1.839-1.051 2.887-.823 2.047.444-3.935 4.487-6.4 4.323-.624-.041-1.163.279-1.192.716-.03.437-.978.961-2.106 1.167-1.132.205-2.08.717-2.107 1.136s-1.36 1.21-2.958 1.756c-1.602.548-2.929 1.267-2.95 1.6-.04.601-.812 1.025-5.545 3.052-1.342.578-2.955 1.476-3.577 1.998-.626.522-1.657.913-2.294.871-.633-.042-1.179.281-1.208.721s-1.272 1.271-2.76 1.845c-1.49.577-3.85 1.699-5.242 2.493-1.393.797-3.434 1.77-4.536 2.166-1.1.396-3.558 1.624-5.459 2.735-1.9 1.107-4.112 2.215-4.908 2.46-.8.249-1.477.825-1.508 1.283-.03.461-.634.795-1.344.748-.706-.047-2.258.581-3.449 1.397-1.19.814-2.66 1.447-3.267 1.407-.609-.041-1.126.269-1.154.69-.051.771-2.703 2.221-6.953 3.805-1.677.626-2.33 1.438-2.437 3.036-.08 1.201-.612 2.335-1.181 2.523-.601.197-.42.407.426.5.804.09 2.12-.133 2.92-.497.87-.393 1.905-.334 2.576.149 1.494 1.074-.002 3.192-3.261 4.623-4.037 1.77-4.582 2.866-2.991 6.02 1.095 2.172 1.712 2.645 2.802 2.154.769-.351 2.293-.417 3.387-.153 3.837.931 4.83-.763 2.05-3.494-1.364-1.336-2.457-2.758-2.43-3.155.07-1.049 4.395-4.142 5.675-4.057.597.039 1.112-.286 1.14-.723.03-.433.963-.956 2.073-1.159 1.112-.2 2.48-.85 3.037-1.437.56-.59 1.713-1.025 2.562-.969s1.778-.406 2.062-1.023c.288-.621 1.52-1.453 2.736-1.853 1.22-.397 3.356-1.373 4.749-2.164 1.393-.794 3.286-1.782 4.208-2.196.92-.417 3.188-1.543 5.04-2.501 1.848-.961 4.17-2.044 5.154-2.411.987-.364 2.057-1.033 2.383-1.483.322-.454 1.148-.786 1.837-.74.688.046 2.688-.909 4.443-2.117 1.756-1.211 4.087-2.518 5.182-2.902 1.094-.387 2.558-1.012 3.253-1.392 4.234-2.305 16.118-7.908 16.691-7.87.376.025 1.174-.47 1.773-1.1s1.751-1.102 2.564-1.048c.812.054 1.801-.341 2.193-.878s2.884-1.879 5.534-2.986c2.653-1.106 5.039-2.315 5.304-2.684.265-.372 1.056-.636 1.76-.589.703.046 1.739-.47 2.305-1.145.622-.741 1.802-1.04 2.983-.758l1.955.468-2.288.786c-1.256.431-2.307 1.123-2.334 1.535-.028.413-1.077 1.083-2.332 1.49-1.257.41-3.424 1.393-4.816 2.184-1.393.793-3.282 1.722-4.197 2.063-1.88.7-10.389 5.38-11.989 6.592-.574.437-1.898 1.101-2.94 1.48-1.042.378-3.033 1.33-4.426 2.118-1.392.788-3.3 1.715-4.239 2.06-.94.346-3.456 1.647-5.588 2.891-2.136 1.244-4.084 2.247-4.33 2.231-.249-.016-2.121.943-4.162 2.13-2.04 1.189-4.61 2.48-5.711 2.867-2.27.802-3.181 1.263-10.946 5.556-3.07 1.693-6.473 3.401-7.562 3.795-1.092.393-3.123 1.361-4.516 2.149-1.392.79-3.47 1.825-4.617 2.303-1.15.478-2.425 1.334-2.837 1.904-.41.57-1.554 1.298-2.544 1.622-1.784.585-1.781.591.095.767 1.153.107 2.01.789 2.192 1.748.527 2.748 4.008 3.028 8.331.669.695-.377 7.69-3.884 15.544-7.791 12.705-6.322 18.946-9.313 28.94-13.872 1.611-.734 4.068-1.965 5.459-2.735a69 69 0 0 1 5.037-2.476c1.38-.591 3.647-1.716 5.039-2.498 1.392-.781 3.093-1.625 3.779-1.872 1.014-.368 7.116-3.322 16.781-8.119.693-.344 4-1.805 7.348-3.243 3.348-1.44 6.902-3.236 7.903-3.992.997-.756 2.485-1.327 3.306-1.272s1.529-.447 1.573-1.114c.05-.755.844-1.162 2.103-1.079 1.113.074 1.998.498 1.969.941-.03.446-.545.777-1.146.737-.597-.039-1.973.6-3.06 1.42-1.084.824-2.306 1.474-2.715 1.446-.407-.027-1.322.461-2.034 1.084-.711.622-1.997 1.085-2.855 1.028s-1.594.442-1.639 1.109c-.044.668-.571 1.181-1.169 1.141-.6-.04-1.976.6-3.06 1.42-1.087.82-2.248 1.474-2.588 1.451-.337-.022-2.631 1.105-5.1 2.506-2.465 1.399-4.948 2.513-5.512 2.476-.567-.038-1.054.274-1.082.695-.053.795-2.989 2.354-6.945 3.69-1.256.425-2.303 1.065-2.327 1.423s-1.16.959-2.525 1.337c-1.365.375-2.507 1.067-2.538 1.534s-.782.804-1.667.745-2.113.59-2.727 1.442-1.736 1.508-2.494 1.458c-.755-.05-1.622.257-1.927.685-.316.442.349.836 1.541.915 1.152.077 2.341-.392 2.64-1.043.302-.65 1.378-1.126 2.394-1.059 1.018.068 2.095-.409 2.394-1.059.302-.65 1.241-1.136 2.09-1.079s2.032-.414 2.631-1.044 1.591-1.112 2.209-1.071c.616.04 1.792-.612 2.615-1.453.82-.838 2.094-1.484 2.83-1.435.734.048 1.826-.427 2.425-1.058.599-.63 1.727-1.103 2.506-1.051.779.051 1.877-.387 2.434-.978.56-.587 1.928-1.236 3.038-1.436 1.113-.204 2.046-.726 2.074-1.16.029-.437.963-.734 2.076-.66 1.109.074 1.995.498 1.965.944-.029.442-.602.77-1.272.725-.673-.045-1.892.605-2.715 1.446-.82.838-2.139 1.481-2.928 1.429-.791-.053-1.462.287-1.493.757-.031.467-1.174 1.158-2.539 1.533-1.365.376-2.497.922-2.517 1.213-.019.291-1.822 1.304-4.008 2.252-2.186.952-4.665 2.337-5.516 3.085-.847.747-2.255 1.312-3.129 1.254-.87-.058-1.622.44-1.666 1.107-.051.761-.845 1.162-2.127 1.077-1.125-.075-2.292.396-2.591 1.046-.302.65-1.154 1.142-1.897 1.092s-2.022.597-2.843 1.438c-.823.838-2.041 1.488-2.715 1.443a1.22 1.22 0 0 0-1.299 1.132c-.115 1.731 2.096 1.644 3.853-.149.821-.841 2.321-1.472 3.334-1.405s1.865-.251 1.895-.706.988-1.113 2.129-1.463c1.138-.348 2.095-1.006 2.125-1.461.031-.458 1.159-.758 2.508-.668 1.432.095 2.678-.328 2.998-1.019.31-.674 1.551-1.115 2.885-1.027 2.768.184 3.012 1.473.395 2.119-2.024.496-6.769 3.196-7.26 4.125-.171.324-.95.546-1.735.494-.782-.052-2.132.59-2.994 1.428-.863.835-2.242 1.474-3.064 1.42-.819-.055-1.517.283-1.548.753-.031.466-1.174 1.158-2.538 1.533-1.365.376-2.505 1.022-2.532 1.434-.027.413-1.078 1.104-2.334 1.535l-2.285.787 1.973.469c1.082.26 2.129.083 2.326-.397.443-1.085 4.283-.9 4.21.2-.029.446-.693.768-1.479.715-.782-.052-1.925.603-2.539 1.455-1.342 1.866-3.21 1.894-4.082.064-.363-.764-1.402-1.269-2.431-1.179-2.252.198-2.645 1.631-.587 2.145 3.152.785 2.676 1.801-1.884 4.023-2.578 1.254-4.706 2.617-4.733 3.029-.028.413-.757.702-1.62.645-.865-.057-1.823.251-2.132.684s-1.845 1.226-3.412 1.762c-1.57.535-2.877 1.359-2.908 1.826s-.978.788-2.103.713c-1.128-.075-2.278.363-2.562.975-.282.612-1.41 1.274-2.507 1.472-1.098.201-2.034.903-2.077 1.561-.05.743-.856 1.147-2.127 1.062-1.124-.074-2.285.381-2.577 1.017-.294.632-1.279 1.334-2.19 1.557-2.662.655-5.053 3.045-3.679 3.678.615.285 1.083 1.077 1.038 1.756-.097 1.459.825 1.663 2.173.483 1.06-.926 3.895-2.388 6.675-3.437.987-.373 2.059-1.051 2.381-1.502.323-.453 1.212-.781 1.977-.73.764.05 2.061-.594 2.881-1.435.82-.838 2.376-1.466 3.455-1.394s2.101-.135 2.272-.458c.635-1.21 5.797-3.879 7.304-3.779.861.057 1.81-.428 2.11-1.078.604-1.306 3.862-1.44 3.777-.154-.03.442-.7.763-1.49.711-.792-.053-2.111.591-2.931 1.431-.82.838-2.003 1.491-2.627 1.449-.622-.041-1.38.457-1.679 1.107-.302.65-1.424 1.124-2.5 1.052-1.27-.084-2.136.425-2.481 1.459-.32.965-1.212 1.546-2.258 1.476-1.646-.109-2.471.299-5.781 2.863-.8.616-2.386 1.531-3.531 2.031-2.067.904-2.947 1.354-8.178 4.193l-2.73 1.481 1.704 1.77c2.381 2.479 4.769 3.804 7.14 3.961 1.152.077 2.5.913 3.118 1.931.89 1.466 1.588 1.729 3.81 1.426a66 66 0 0 1 5.31-.473c1.422-.058 3.461-.632 4.528-1.28 2.05-1.24 4.846-1.432 4.772-.329-.075 1.14-3.526 3.981-4.739 3.901-2.08-.139-4.213 4.328-2.362 4.947 1.734.578 9.263-2.549 12.518-5.202 3.628-2.954 6.311-4.326 8.222-4.205 2.262.144 2.248 2.004-.024 3.345-2.32 1.369-1.362 6.424 1.508 7.973 2.131 1.147 2.541 3.562.582 3.432-.667-.045-1.237.283-1.267.729-.102 1.54 5.353-1.088 6.966-3.354.393-.555 1.401-.964 2.237-.908s1.787-.576 2.113-1.401c.399-1.018 1.087-1.335 2.139-.985.956.32 1.769.048 2.118-.702.309-.674 1.611-1.383 2.888-1.575 1.277-.195 2.56-.862 2.848-1.486.289-.623 1.097-1.097 1.794-1.05 1.158.077 6.07-2.481 7.151-3.725.248-.282 1.435-.694 2.641-.912 1.208-.218 2.426-.899 2.707-1.508.281-.611 1.052-1.075 1.71-1.031.661.044 2.831-.854 4.828-1.994s5.508-2.826 7.802-3.746 4.468-2.069 4.829-2.554 1.676-1.064 2.921-1.292c1.242-.225 2.464-.64 2.711-.926 1.032-1.186 5.969-3.803 7.039-3.732.637.043 1.404-.455 1.703-1.105.302-.65 1.448-1.122 2.546-1.049 2.426.161 3.466-1.058 2.286-2.684-.728-1.007-.391-1.092 2.099-.515 2.27.525 3.16.383 3.798-.601.461-.706 1.198-1.26 1.638-1.231.912.061 6.076-2.949 6.532-3.805.164-.309 1.561-.716 3.105-.9 3.018-.36 3.401-.852 1.96-2.501-.725-.824-.348-.897 1.749-.328 1.984.533 2.869.409 3.449-.484.872-1.34 6.931-4.214 8.644-4.101.607.041 1.347-.458 1.649-1.108.299-.651 1.296-1.133 2.212-1.072.918.061 1.913-.421 2.215-1.071.299-.65 1.178-1.14 1.951-1.088s2.113-.591 2.976-1.426c.862-.835 2.242-1.474 3.064-1.42.818.054 1.528-.447 1.572-1.114q.08-1.213 2.506-1.051 2.425.159 2.506-1.052c.045-.667.763-1.168 1.597-1.112.837.055 2.007-.415 2.606-1.045.6-.631 1.533-1.117 2.079-1.081.543.036 1.877-.606 2.961-1.429 1.084-.821 2.606-1.451 3.379-1.399.773.051 1.652-.439 1.951-1.089.302-.65 1.048-1.148 1.66-1.108.616.041 2.004-.598 3.088-1.418 1.084-.823 2.646-1.45 3.464-1.396.822.054 1.531-.447 1.576-1.114.049-.746.838-1.162 2.054-1.082 1.086.073 2.239-.238 2.562-.691.322-.451 1.394-1.132 2.381-1.508s3.308-1.471 5.159-2.429c1.848-.961 4.171-2.043 5.155-2.411.986-.364 2.057-1.033 2.382-1.483.323-.454 1.279-.777 2.128-.721.846.057 1.977-.599 2.512-1.459.535-.857 1.699-1.51 2.588-1.451.888.059 1.858-.425 2.16-1.075.299-.65 1.209-1.138 2.018-1.084.81.053 2.004-.367 2.654-.936.647-.566 1.964-1.225 2.92-1.459.96-.238 1.985-.947 2.277-1.582.292-.633 1.452-1.091 2.58-1.017 1.279.085 2.076-.315 2.127-1.077q.08-1.211 2.506-1.051t2.507-1.052c.044-.667.75-1.168 1.572-1.114.822.055 2.38-.573 3.467-1.393 1.084-.82 2.46-1.46 3.06-1.42.598.04 1.111-.258 1.137-.658.027-.401 1.166-1.038 2.531-1.413 1.365-.378 2.507-1.067 2.538-1.537.031-.467.757-.802 1.615-.745s2.092-.364 2.739-.93c.65-.569 2-1.235 3-1.479 1-.247 1.852-.97 1.895-1.607.045-.679.871-1.105 1.999-1.031 1.058.071 2.381-.353 2.941-.943.556-.588 1.924-1.237 3.037-1.437 1.11-.203 2.055-.908 2.099-1.566.052-.782.892-1.144 2.42-1.042 1.334.088 2.573-.353 2.885-1.027.299-.65 1.297-1.132 2.213-1.071.918.061 1.913-.421 2.215-1.071.299-.651 1.087-1.146 1.745-1.103.661.044 2.177-.586 3.367-1.399 1.187-.814 2.7-1.444 3.36-1.4.756.05 1.095-.47.913-1.408-.235-1.224.111-1.399 1.991-.994 1.576.339 2.46.099 2.866-.782.323-.697 1.254-1.223 2.069-1.169.816.054 1.732-.25 2.034-.675.305-.427 2.691-1.633 5.304-2.684 2.612-1.048 5.071-2.349 5.463-2.887s1.187-.947 1.763-.909 1.937-.602 3.021-1.422c1.084-.824 2.646-1.451 3.464-1.397.822.055 1.531-.446 1.576-1.113.049-.746.838-1.163 2.06-1.082 1.092.073 2.305-.307 2.696-.841.392-.537 2.672-1.756 5.062-2.709 2.39-.956 4.391-2.191 4.446-2.744s1.019-.947 2.144-.872c1.128.075 2.285-.375 2.573-.999.288-.623 1.6-1.297 2.916-1.496 1.314-.199 2.411-.66 2.435-1.026.024-.364 1.161-.974 2.526-1.349 1.365-.376 2.507-1.067 2.538-1.534.031-.47.821-.802 1.752-.74a2.16 2.16 0 0 0 2.228-1.499c.395-1.177.958-1.447 2.092-1 1.027.4 2.13.065 3.244-.982.932-.873 2.184-1.557 2.787-1.517.601.04 1.34-.459 1.639-1.11.32-.688 1.567-1.114 2.998-1.019 1.64.109 2.479-.237 2.533-1.05.045-.667.751-1.168 1.573-1.113.821.054 2.38-.573 3.467-1.393 1.083-.821 2.42-1.463 2.972-1.426.552.036 1.249-.466 1.548-1.116.302-.65 1.242-1.135 2.091-1.079s2.002-.382 2.559-.969c.56-.59 1.927-1.237 3.037-1.44 1.113-.2 2.046-.723 2.075-1.16s.544-.758 1.141-.719c.601.04 1.977-.599 3.061-1.423 1.087-.82 2.606-1.45 3.379-1.399.773.052 1.652-.438 1.954-1.088.299-.65 1.048-1.149 1.661-1.108.612.041 2.001-.598 3.085-1.418 1.087-.823 2.645-1.451 3.467-1.396.821.054 1.516-.274 1.546-.729s1.019-1.123 2.197-1.483c1.176-.361 2.012-1.119 1.857-1.683-.157-.568.449-1.852 1.341-2.859.895-1.007 1.666-2.436 1.716-3.178.049-.746 1.058-2.501 2.245-3.905 1.186-1.401 2.476-3.673 2.862-5.042.976-3.456 2.392-4.653 10.038-8.479 4.694-2.347 6.36-3.555 5.634-4.081-1.02-.738-3.922-.425-4.767.514-.243.271-1.38.874-2.525 1.343-2.07.847-3.485 1.569-7.563 3.859-1.161.654-4.713 2.373-7.892 3.825-3.178 1.449-6.951 3.236-8.386 3.969-1.431.733-4.486 2.166-6.789 3.182-2.3 1.02-4.79 2.332-5.536 2.916-.745.587-1.735 1.039-2.202 1.008s-1.314.439-1.887 1.041c-.573.604-2.124 1.26-3.444 1.461-1.323.199-2.425.662-2.45 1.028-.024.364-1.071.998-2.326 1.408-1.257.407-3.424 1.39-4.817 2.184-1.392.794-3.337 1.736-4.323 2.097-.986.358-2.037.998-2.336 1.417-.299.422-1.648.932-2.996 1.135-1.35.202-2.473.697-2.5 1.098-.027.403-.958.895-2.071 1.096-1.112.203-2.477.849-3.037 1.439-.56.587-1.661 1.029-2.447.977-.788-.052-1.679.437-1.978 1.087-.324.697-1.57 1.114-3.046 1.016-1.459-.097-2.267-.489-1.945-.943.306-.427 1.082-.741 1.728-.698s2.995-.989 5.22-2.291c6.052-3.548 7.15-4.124 9.327-4.89 1.095-.387 3.368-1.603 5.055-2.706 3.697-2.42 5.748-3.547 8.516-4.679 1.146-.469 2.281-1.058 2.523-1.304.238-.246 2.649-1.554 5.355-2.909 2.706-1.352 5.924-3.03 7.151-3.722 1.225-.695 2.981-1.59 3.903-1.994.919-.402 3.186-1.518 5.037-2.477 1.849-.961 4.116-2.087 5.039-2.5.92-.418 2.704-1.322 3.965-2.012 1.261-.693 8.453-4.424 15.983-8.298 16.327-8.393 16.33-8.396 17.315-17.315l.758-6.832-2.407-.434c-1.325-.24-2.676-.988-3.002-1.667-.428-.891-.892-1.013-1.679-.444-.599.433-2.931 1.615-5.184 2.625-2.254 1.014-4.295 2.063-4.538 2.336-.883.999-6.054 2.967-7.536 2.868-.837-.055-1.962.601-2.497 1.461-.535.857-1.666 1.512-2.512 1.456-.849-.056-1.775.226-2.064.628-.896 1.256-7.757 3.809-8.887 3.308-.701-.312-.317-.725 1.096-1.182 1.192-.387 2.426-1.262 2.742-1.947.316-.683 1.273-1.195 2.128-1.138.858.057 1.787-.396 2.068-1.005.284-.608 1.644-1.279 3.028-1.486 1.385-.209 2.537-.681 2.561-1.045.054-.818 5.652-3.702 7.01-3.612.543.036 1.658-.621 2.478-1.459s2-1.49 2.618-1.449c.622.041 1.353-.602 1.627-1.424.38-1.132 1.013-1.364 2.594-.952 2.443.638 2.79-.469.93-2.959-1.633-2.182-3.689-2.322-5.884-.4-.948.83-2.309 1.47-3.025 1.423-1.012-.068-1.212.415-.899 2.175.323 1.822.214 2.049-.56 1.181-.527-.595-1.979-1.148-3.223-1.231-1.27-.084-2.297.295-2.338.862-.081 1.127-4.591 3.551-6.386 3.431-.637-.042-3.053 1.077-5.37 2.488-2.32 1.409-4.721 2.528-5.336 2.487-.619-.041-1.613.441-2.209 1.072-.599.63-1.773 1.1-2.607 1.045-.833-.055-1.544.281-1.575.751-.031.467-1.174 1.159-2.538 1.534-1.365.375-2.504 1.012-2.531 1.413-.026.403-1.17.656-2.541.565-2.874-.191-2.778-1.917.133-2.406 2.084-.346 2.54-1.753.732-2.26-.661-.184-1.895.373-2.742 1.24-.849.866-2.142 1.536-2.879 1.487s-1.828.427-2.427 1.057c-.596.63-1.73 1.103-2.519 1.051-.785-.052-1.676.437-1.975 1.087-.302.65-1.242 1.135-2.091 1.079s-2.031.413-2.631 1.044c-.599.63-1.714 1.104-2.482 1.053-.767-.051-2.28.579-3.366 1.4-1.084.82-2.461 1.46-3.061 1.42-.597-.04-1.111.258-1.137.658s-1.165 1.037-2.53 1.413c-1.365.378-2.508 1.067-2.539 1.537-.031.467-1.148.776-2.482.687s-2.401-.534-2.371-.988c.031-.455 1.161-.974 2.513-1.152s2.491-.825 2.532-1.437.802-1.064 1.69-1.005c.892.059 2.389-.481 3.329-1.199.94-.72 2.48-1.897 3.424-2.617.94-.717 2.419-1.258 3.286-1.201.867.058 1.899-.34 2.291-.88.396-.543 1.658-1.391 2.805-1.885 5.051-2.171 6.704-3.081 6.746-3.715.025-.373.97-.843 2.098-1.051 1.131-.205 2.08-.73 2.109-1.164.085-1.282-3.991-1.178-4.588.116-.299.65-1.179 1.14-1.952 1.088s-2.295.579-3.379 1.399c-1.084.824-2.306 1.473-2.715 1.446s-1.325.46-2.036 1.083-1.954 1.089-2.767 1.035c-.81-.054-1.716.434-2.018 1.084-.299.65-1.297 1.132-2.212 1.071-.919-.061-1.913.421-2.215 1.071-.299.65-1.154 1.142-1.897 1.092s-2.022.597-2.842 1.435-2.07 1.486-2.77 1.439c-.703-.046-1.862.425-2.573 1.048-.711.622-1.957 1.088-2.767 1.034s-1.719.434-2.018 1.084c-.302.65-1.166 1.141-1.924 1.091-.755-.05-2.049.442-2.872 1.094s-2.336.975-3.361.718c-1.749-.436-1.702-.515.765-1.289 1.446-.452 2.863-1.333 3.151-1.95.284-.621 1.441-1.068 2.566-.993 1.282.085 2.077-.316 2.127-1.077.044-.667.572-1.18 1.172-1.14.598.039 1.974-.6 3.061-1.42 1.084-.821 2.603-1.451 3.379-1.399.773.051 1.652-.439 1.951-1.089.302-.65 1.248-1.135 2.103-1.078s1.801-.429 2.1-1.079c.302-.65 1.048-1.149 1.66-1.108.613.041 1.819-.61 2.685-1.448.863-.835 2.042-1.488 2.618-1.45s1.371-.42 1.767-1.021c.4-.601 1.612-1.16 2.699-1.243 1.09-.083 2.159-.594 2.378-1.14.586-1.444-3.708-1.531-4.374-.086-.302.65-1.208 1.138-2.018 1.084-.812-.054-2.004.366-2.654.935-.649.566-1.997 1.235-2.997 1.479-1.003.248-1.841.752-1.865 1.122-.025.373-1.162.983-2.527 1.361-1.365.376-2.507 1.067-2.538 1.534s-1.109.782-2.395.697c-1.288-.086-2.571.341-2.853.953-.281.608-1.644 1.276-3.028 1.486s-2.533.632-2.554.939c-.02.309-1.825 1.346-4.009 2.31-2.186.96-4.296 2.184-4.687 2.716-.857 1.158-4.7 1.055-4.621-.124.03-.455 1.161-.974 2.513-1.152s2.491-.825 2.531-1.437.602-1.078 1.245-1.035c.646.043 1.495-.364 1.887-.907.395-.54 1.656-1.367 2.802-1.836a73 73 0 0 0 3.558-1.576 253 253 0 0 1 2.935-1.407c1.324-.622 7.273-3.714 11.523-5.99.906-.482 3.464-1.944 5.692-3.249 2.224-1.305 4.607-2.335 5.293-2.289s1.491-.449 1.793-1.099c.299-.65 1.027-1.15 1.612-1.111.588.039 1.58-.355 2.205-.877.626-.522 2.078-1.342 3.225-1.826 1.15-.481 3.229-1.525 4.622-2.319 1.393-.797 3.528-1.772 4.749-2.169 1.22-.401 2.451-1.233 2.736-1.853.287-.618 1.271-1.076 2.19-1.015.915.061 1.913-.421 2.212-1.071.302-.65 1.154-1.142 1.897-1.093.743.05 2.022-.596 2.842-1.434.823-.841 2.224-1.479 3.118-1.419.895.059 1.647-.22 1.674-.62.027-.403 1.259-1.071 2.739-1.49l2.688-.76-1.895-1.779-1.894-1.783 3.991.804 3.991.804-1.82-1.677-1.819-1.68 1.94-.373c1.068-.204 2.272.004 2.671.463 1.11 1.268 2.824 1.126 2.915-.239.044-.667-.305-1.238-.778-1.27-.47-.031-.606-.408-.3-.836.352-.494 1.051-.469 1.914.073.748.467 1.846.588 2.439.274.773-.408.588-.731-.661-1.149-3.179-1.061-.703-2.395 3.263-1.757 2.052.328 2.901.388 1.886.131-2.39-.609-1.841-3.097.73-3.289 1.401-.105 1.842-.59 1.741-1.916-.185-2.4-2.935-2.22-7.931.518-2.124 1.166-6.121 3.108-8.882 4.32-2.76 1.211-6.156 2.822-7.546 3.58-1.391.76-3.847 1.976-5.458 2.707-6.895 3.121-10.68 4.946-13.856 6.684-1.862 1.019-5.263 2.699-7.558 3.735-2.295 1.038-5.314 2.528-6.706 3.31-1.392.781-3.355 1.723-4.363 2.088-1.008.369-3.463 1.57-5.455 2.674-3.795 2.103-5.339 2.847-11.04 5.31-1.903.826-4.029 1.785-4.722 2.132-.693.349-2.199 1.02-3.349 1.495-1.146.472-2.598 1.289-3.223 1.811-.626.522-1.535.921-2.024.889-.491-.033-1.566.478-2.392 1.129-.829.655-2.158.99-2.958.745-1.194-.366-1.046-.581.833-1.215 1.255-.422 2.308-1.141 2.338-1.596.03-.454.549-.795 1.153-.754.603.04 2.776-1.043 4.828-2.406 2.055-1.361 4.57-2.681 5.591-2.93 1.022-.251 1.879-.767 1.904-1.146s1.122-.851 2.439-1.05c1.314-.199 2.589-.788 2.828-1.308.241-.52 2.135-1.658 4.209-2.525 2.074-.871 4.253-2.093 4.846-2.715.589-.625 1.493-1.107 2.005-1.073s2.846-1.026 5.187-2.353c2.342-1.331 5.988-3.117 8.1-3.97 2.11-.856 4.312-2.053 4.888-2.663.58-.61 1.555-1.075 2.167-1.035.613.041 1.136-.265 1.163-.678.028-.415.865-.956 1.861-1.201.997-.244 3.636-1.555 5.871-2.911 2.231-1.36 4.568-2.435 5.193-2.393.624.041 1.379-.457 1.681-1.107.299-.65 1.048-1.149 1.66-1.108.613.041 2.001-.598 3.086-1.421 1.086-.82 2.423-1.463 2.975-1.426s1.249-.465 1.548-1.115c.302-.65 1.136-1.143 1.861-1.095.721.048 2.286-.579 3.476-1.392 1.187-.817 2.657-1.45 3.267-1.41.606.04 1.122-.199 1.147-.533.025-.333 1.176-1.152 2.557-1.822 3.723-1.802 3.738-5.197.034-7.52-1.682-1.056-3.023-1.452-3.387-1.004-.329.41-1.54 1.131-2.689 1.6-1.951.799-2.733 1.161-6.493 3.022-.809.397-2.497 1.052-3.751 1.453-1.257.401-2.305 1.056-2.332 1.457-.027.403-.543.698-1.152.657-.607-.04-2.077.593-3.267 1.406-1.19.817-2.755 1.444-3.476 1.396s-1.559.445-1.858 1.095c-.302.65-1.032 1.149-1.627 1.11-1.012-.067-6.956 2.574-7.908 3.516-.238.234-1.372.813-2.521 1.282s-2.657 1.158-3.351 1.529c-.695.374-1.823.853-2.508 1.067-.684.216-2.383 1.038-3.776 1.829-1.392.794-3.471 1.831-4.618 2.31-1.149.477-2.284 1.06-2.522 1.297-.769.759-6.805 3.589-7.551 3.54-.397-.027-2.372.911-4.387 2.087-2.014 1.173-4.667 2.315-5.894 2.538s-2.245.646-2.264.943c-.064.959-5.728 3.159-6.809 2.639-.746-.357-.667-.495.276-.478.727.015 1.562-.691 1.855-1.564.35-1.052 1.211-1.543 2.542-1.454 1.104.073 2.256-.399 2.555-1.049.302-.65 1.047-1.148 1.66-1.108.612.041 2.001-.598 3.088-1.421 1.084-.82 2.46-1.46 3.061-1.42.597.04 1.111-.267 1.138-.683.028-.412.803-.939 1.725-1.164.923-.228 3.65-1.533 6.062-2.902 2.414-1.368 4.811-2.461 5.329-2.427.519.035 1.188-.469 1.49-1.119.3-.65 1.076-1.147 1.727-1.103.649.043 1.689-.348 2.315-.87s2.078-1.342 3.225-1.826c1.149-.481 3.228-1.522 4.621-2.309 1.392-.791 3.461-1.768 4.593-2.174 1.136-.406 2.273-1.016 2.527-1.352.256-.337 4.557-2.679 9.561-5.204 5.004-2.521 10.112-5.148 11.351-5.833s3.379-1.673 4.754-2.197c3.021-1.152 5.002-3.097 4.369-4.29-.425-.805-6.72 1.435-7.933 2.823-.247.282-1.462.698-2.701.923s-2.269.644-2.288.932c-.019.285-3.327 1.945-7.35 3.687-4.026 1.74-7.828 3.586-8.453 4.105-.625.516-1.535.912-2.026.879-.488-.032-1.495.407-2.239.972-2.259 1.73-5.076 2.094-4.98.65.046-.688 1.008-1.419 2.139-1.624 1.129-.208 2.074-.678 2.098-1.051.043-.634 1.689-1.542 6.746-3.716 1.148-.496 2.333-1.197 2.632-1.564.679-.826 3.829-2.392 6.834-3.398 1.256-.423 2.304-1.075 2.329-1.454.043-.646 1.914-1.673 6.742-3.7 2.983-1.255 2.958-1.205 1.334-2.613-2.126-1.84-3.068-1.681-11.44 1.939m-43.16-4.365c-.03.446-1.054.737-2.276.65-1.73-.124-1.943-.315-.956-.864 1.647-.917 3.3-.808 3.232.214m30.512 5.276c-.029.446.653.857 1.514.914.864.057 1.82-.245 2.125-.672.312-.439-.343-.836-1.517-.914-1.137-.076-2.092.226-2.122.672m-142.198 1.116c-.029.442-.599.77-1.266.726s-1.189-.445-1.159-.887c.029-.446.599-.774 1.266-.729.667.044 1.189.444 1.159.89m-17.625 1.665c-1.133 4.413-.503 5.427 2.579 4.136 2.998-1.253 3.352-2.96 1.077-5.212-2.291-2.272-2.835-2.113-3.656 1.076m151.782 15.266c-.635.889-3.815 1.497-3.763.718.067-1.022 1.127-1.606 2.718-1.5.843.056 1.313.407 1.045.782m-4.676 2.223c-.03.446-.872.749-1.873.677-1.47-.107-1.575-.27-.553-.838 1.635-.909 2.493-.852 2.426.161m-135.809-3.333c.243.464-.327.792-1.267.729-.943-.062-1.464-.463-1.159-.89.303-.428.873-.755 1.267-.729.391.026.913.426 1.159.89m5.497 2.802c.246.464.152.826-.209.808-.358-.018-1.486.133-2.505.336-1.361.269-1.828.019-1.764-.942.096-1.459 3.725-1.623 4.478-.202m164.602 22.299c-.067 1.013.791 1.07 2.426.161 1.021-.568.916-.728-.554-.834-1-.073-1.843.23-1.872.673m21.656 1.603c.705.805 1.136.833 1.941.129.805-.705.604-.935-.906-1.035-1.507-.1-1.739.101-1.035.906m-207.789-11.527c-.03.446.492.846 1.159.89s1.237-.283 1.266-.729c.03-.443-.492-.843-1.159-.887s-1.237.283-1.266.726m181.12 12.028c-.029.445.471.844 1.111.887.64.042 1.413-.272 1.718-.699.306-.425-.195-.824-1.11-.884-.916-.061-1.689.253-1.719.696m-4.206 2.157c-1.021.568-.916.731.554.837 1 .073 1.842-.23 1.872-.676.067-1.013-.791-1.07-2.426-.161m10.513.698c-.984.547-.759.741 1.005.868 1.309.093 2.081-.194 1.824-.68-.552-1.045-1.21-1.089-2.829-.188m-15.026 1.225c-.925.81-.631 1.798.561 1.877.64.042 1.386-.237 1.658-.618.571-.799-1.443-1.941-2.219-1.259m10.595 1.892c.705.805 1.135.833 1.94.128.805-.704.604-.934-.906-1.034-1.507-.1-1.739.1-1.034.906m-16.564 1.175c-.322.453.477.844 1.921.94 1.361.091 2.498-.199 2.528-.645s-.835-.869-1.921-.941c-1.085-.072-2.222.218-2.528.646m10.916.725c-.03.445.856.869 1.969.943 1.109.074 2.043-.229 2.073-.675s-.856-.87-1.966-.944c-1.113-.074-2.046.23-2.076.676m10.916.724c-.313.44.343.836 1.517.914 1.137.076 2.092-.226 2.121-.672.03-.446-.652-.856-1.517-.914-.861-.057-1.816.245-2.121.672m-79.806-2.863c-.03.446-1.054.737-2.276.65-1.73-.127-1.943-.318-.956-.865 1.647-.916 3.3-.807 3.232.215m53.164 3.829c-.647.569-1.998 1.235-2.998 1.479-1 .247-1.841.752-1.865 1.125-.025.37-1.19.99-2.589 1.375-1.452.4-2.338 1.087-2.068 1.599.591 1.111 3.794.425 4.77-1.021.399-.582 1.26-1.028 1.92-.984.658.044 1.429-.419 1.711-1.031.281-.609 1.412-1.274 2.509-1.472 1.098-.198 2.018-.719 2.047-1.155.078-1.165-2.073-1.11-3.437.085m11.523.467c-.986.546-.774.737.957.864 1.221.088 2.246-.204 2.275-.65.068-1.021-1.584-1.131-3.232-.214m10.731.441c-.57.185-1.061.697-1.09 1.134-.069 1.034 3.251.752 3.36-.285.097-.95-.86-1.306-2.27-.849m-15.123 1.499c-2.173.343-1.816 1.707.485 1.86 1.11.074 2.042-.209 2.07-.627.07-1.052-.86-1.501-2.555-1.233m10.509.698c-2.17.344-1.816 1.707.485 1.86 1.113.074 2.046-.208 2.073-.627.07-1.052-.859-1.501-2.558-1.233m-176.292-8.253c-.029.443-.802.757-1.718.696s-1.416-.46-1.114-.884c.306-.428 1.079-.742 1.719-.699.643.043 1.143.441 1.113.887m159.69 10.604c-.312.437.329.832 1.469.908 1.112.074 2.271-.215 2.576-.639.312-.439-.328-.835-1.468-.911-1.113-.073-2.271.215-2.577.642m10.885 1.189c-.05.752.474 1.201 1.282 1.1 2.055-.26 2.459-2.13.488-2.261-.994-.066-1.72.409-1.77 1.161m-4.389 1.375c-.336.291-.632.862-.659 1.259-.065.989 4.02.697 4.312-.307.269-.939-2.763-1.731-3.653-.952m-164.291-5.017c-.026.394-.787.858-1.694 1.029-1.068.206-1.618-.083-1.569-.82.042-.627.803-1.088 1.692-1.029.891.059 1.597.429 1.571.82m175.323 13.68c-.097 1.458-2.613 2.241-3.595 1.119-.626-.714 1.005-1.754 3.466-2.206.111-.02.17.468.129 1.087m-72.804-4.342c-.03.446-.985.748-2.122.673-1.173-.078-1.829-.472-1.517-.914.306-.425 1.261-.727 2.125-.669.861.057 1.543.468 1.514.91m54.988 3.606c-.073 1.092-1.597 1.749-2.524 1.09-.434-.308-.557-.889-.271-1.284.671-.943 2.86-.791 2.795.194m-3.897 3.092c-.668.939-3.667.743-3.602-.234.054-.821 2.561-1.422 3.519-.847.331.199.368.685.083 1.081m-4.972 2.051c-.306.427-1.261.729-2.125.672-.861-.057-1.543-.468-1.514-.914.03-.445.985-.747 2.122-.672 1.173.078 1.829.475 1.517.914m-5.961 1.748c.804.918-.342 1.853-1.571 1.285-.636-.292-.931-.845-.659-1.226.581-.814 1.548-.838 2.23-.059m-40.261 3.305c-.03.443-.782.758-1.67.699-.891-.059-1.595-.471-1.566-.914.03-.446.782-.761 1.673-.702.889.059 1.592.471 1.563.917m21.831 1.45c-.029.442-.963.746-2.076.672-1.11-.074-1.995-.498-1.966-.941.03-.446.964-.749 2.073-.675 1.113.074 1.999.498 1.969.944m-26.838.565c-.066.992-2.396 1.638-2.848.789-.2-.379-.114-.906.187-1.169.822-.722 2.716-.447 2.661.38m10.91.813c.257.486-.514.773-1.824.677-1.764-.126-1.988-.321-1.005-.865 1.619-.9 2.274-.857 2.829.188m-4.01 2.371c-.481 1.19-3.969 1.613-3.893.476.056-.849 1.438-1.482 3.21-1.471.593.003.902.452.683.995m9.738 1.347c-1.516.823-3.18.697-3.118-.237.057-.852 2.582-1.412 3.592-.794.369.223.155.686-.474 1.031m-22.519-1.586c-1.635.908-2.493.851-2.426-.161.029-.443.872-.747 1.872-.674 1.473.107 1.578.266.554.835m6.712 2.882c-.305.427-1.1.74-1.767.696s-.964-.43-.658-.857c.305-.425 1.099-.737 1.766-.693s.965.429.659.854m10.916.725c-.03.445-.6.773-1.267.729s-1.188-.445-1.159-.89c.03-.443.6-.771 1.267-.726.667.044 1.188.444 1.159.887m-147.007 2.444c-1.526.693-3.901 2.801-5.278 4.683s-3.785 4.296-5.354 5.364c-3.776 2.57-1.468 4.17 2.42 1.675 1.345-.864 2.738-1.561 3.09-1.546.349.014 1.595-.628 2.765-1.422 1.171-.796 2.765-1.412 3.542-1.372.78.042 1.453-.47 1.498-1.138.044-.673.799-1.165 1.696-1.105.892.059 1.644-.256 1.673-.699.03-.446-.856-.87-1.969-.944-2.538-.168-2.53-2.065.015-3.608 2.763-1.674-.361-1.592-4.098.112m-110.88-2.753c-1.699 4.526-4.23 6.688-10.057 8.582-1.254.407-2.301 1.032-2.324 1.383-.064.962-4.227 1.69-7.155 1.252-3.028-.451-4.97 2.481-6.512 9.828-1.163 5.541-.19 5.478 11.354-.745.695-.374 2.203-1.072 3.353-1.546 1.149-.478 3.605-1.689 5.456-2.693 6.091-3.299 6.717-3.601 8.954-4.317 1.217-.392 2.448-1.218 2.736-1.838.284-.618 1.077-1.089 1.759-1.043 1.719.114 1.612-.935-.23-2.263-.855-.614-1.513-1.712-1.465-2.437.168-2.531-5.085-6.255-5.869-4.163m128.685 13.656c-1.651.92-3.304.81-3.236-.215.03-.442 1.054-.734 2.276-.646 1.734.124 1.943.314.96.861m-92.338-3.695c-.029.446-.599.773-1.266.729s-1.189-.445-1.16-.89c.03-.443.6-.771 1.267-.726.667.044 1.189.444 1.159.887m-9.119 5.242c-.805.704-1.236.676-1.94-.129-.705-.805-.476-1.006 1.034-.906 1.507.1 1.711.33.906 1.035m20.818 2.034c.512 1.133.487 1.655-.08 1.618-.461-.031-.802-.574-.76-1.208.042-.637-.549-1.364-1.315-1.619-1.281-.426-1.282-.463.003-.466.765-.001 1.735.752 2.152 1.675m-6.578 1.186c-.029.446-.599.774-1.267.729-.667-.044-1.188-.444-1.159-.89.03-.446.6-.773 1.267-.729s1.189.444 1.159.89m277.312 18.821c-.599.63-1.414 1.124-1.814 1.097-.613-.04-27.005 12.792-30.93 15.038-.697.398-2.395 1.202-3.773 1.787-1.379.584-3.646 1.692-5.037 2.464a72 72 0 0 1-5.039 2.504c-1.38.606-3.27 1.497-4.2 1.981-7.095 3.695-15.597 7.674-16.298 7.627-.464-.03-.868.284-.896.696-.027.416-.885.95-1.906 1.189-1.021.237-2.433.871-3.139 1.406-.705.535-3.165 1.8-5.464 2.814-2.303 1.01-4.754 2.148-5.449 2.528-5.382 2.944-26.139 12.876-26.806 12.832-.464-.031-.862.232-.885.584s-2.021 1.532-4.438 2.623c-2.418 1.091-5.909 2.756-7.756 3.697-1.85.94-4.116 2.038-5.035 2.44-.922.401-3 1.421-4.618 2.263a256 256 0 0 1-6.46 3.214c-1.931.925-7.646 3.747-12.698 6.265-5.049 2.521-9.975 4.777-10.937 5.014-.966.238-1.777.747-1.802 1.132s-.827.889-1.778 1.125c-.95.232-3.304 1.288-5.229 2.348-5.474 3.002-6.586 3.558-11.054 5.521-2.299 1.011-4.789 2.32-5.534 2.904s-1.617 1.046-1.941 1.025c-.322-.021-4.12 1.736-8.44 3.907-4.316 2.168-8.051 3.93-8.294 3.914-.245-.016-2.077.867-4.068 1.965a1707 1707 0 0 1-5.31 2.906c-.928.505-2.713 1.242-3.967 1.643s-2.301 1.023-2.324 1.381c-.024.358-1.071.983-2.328 1.393-1.255.407-3.421 1.393-4.814 2.186-1.393.794-3.094 1.653-3.781 1.902-.687.253-6.617 3.155-13.176 6.444-6.563 3.292-12.195 5.966-12.513 5.945-.322-.021-1.192.429-1.936.998-.745.572-3.349 1.952-5.793 3.069s-5.087 2.352-5.877 2.747c-9.475 4.731-15.267 7.513-15.594 7.492-.222-.015-2.035.921-4.034 2.083-1.998 1.158-6.647 3.463-10.329 5.122-3.682 1.655-8.287 3.947-10.23 5.092-1.943 1.14-3.779 2.06-4.079 2.04-.301-.02-2.235.948-4.3 2.151s-3.949 2.174-4.185 2.159c-.234-.016-5.784 2.664-12.331 5.957-17.606 8.85-23.253 11.335-24.485 10.766-1.498-.693-1.26-2.761.41-3.554 1.242-.591 1.249-.834.096-2.875-1.559-2.762-1.793-2.759-4.377.096-2.143 2.37-2.136 2.77.14 7.221.512.997 3.001 7.171 3.286 8.146.202.68 13.946-5.5 16.312-7.332.742-.578 1.634-1.03 1.979-1.007s2.316-.943 4.382-2.146 4.26-2.153 4.879-2.112 1.377-.277 1.682-.705c.309-.43 1.945-1.36 3.637-2.067 5.581-2.327 11.444-5.12 12.275-5.848 1.125-.979 3.745-.723 3.673.363-.033.488-.799 1.028-1.706 1.199-.904.175-1.663.602-1.686.951-.024.352-1.16.943-2.525 1.322-1.365.375-2.507 1.067-2.538 1.533-.031.467-.796.803-1.7.743s-1.882.408-2.174 1.044c-.291.632-1.334 1.339-2.312 1.57-.978.234-3.413 1.363-5.411 2.516-1.998 1.149-3.92 2.072-4.275 2.048-.355-.023-1.531.63-2.618 1.453-1.084.82-2.382 1.465-2.882 1.432s-1.58.626-2.4 1.464c-.82.841-2.042 1.49-2.712 1.446-.673-.045-1.243.246-1.27.647-.027.403-1.076 1.073-2.332 1.495-4.98 1.667-10.496 5.854-7.94 6.024.482.032 1.161.991 1.509 2.131.731 2.382 3.848 3.04 5.607 1.183.599-.63 1.745-1.102 2.549-1.049s2.04-.41 2.749-1.033c.711-.619 2.16-1.443 3.224-1.826 1.064-.386 3.074-1.343 4.466-2.131s3.461-1.765 4.597-2.17c1.132-.406 2.274-1.037 2.536-1.404.799-1.119 4.988-1.596 4.919-.562-.034.506-.713 1.107-1.511 1.331-.794.224-2.022.825-2.726 1.336-1.74 1.261-9.98 5.187-12.791 6.094-1.254.404-2.303 1.065-2.329 1.465s-.531.699-1.122.66c-1.231-.082-4.809 3.031-4.891 4.255-.235 3.545 6.963 5.683 9.638 2.864.55-.579 1.299-1.035 1.669-1.01.367.024 2.301-.901 4.3-2.06 4.184-2.426 10.849-5.653 17.454-8.446 2.526-1.072 5.107-2.371 5.732-2.89s1.656-.911 2.29-.868c.637.042 1.179-.282 1.208-.718.029-.434 1.069-.971 2.311-1.19 1.245-.216 2.459-.61 2.699-.874 1.415-1.551 11.463-5.823 12.874-5.474 1.609.399 1.613.439.074.998-.88.322-2.309 1.205-3.176 1.963-.866.759-2.081 1.345-2.703 1.304-.618-.041-1.37.457-1.672 1.107-.299.65-1.296 1.132-2.212 1.072-.919-.061-1.913.421-2.215 1.071-.299.65-1.027 1.15-1.615 1.111s-1.588.384-2.225.942-1.999 1.393-3.026 1.858c-1.023.465-1.888 1.196-1.916 1.624-.085 1.273 3.994 1.157 4.588-.128.299-.65 1.245-1.135 2.1-1.079s1.79-.402 2.075-1.019c.683-1.475 2.112-1.855 3.959-1.056 1.457.633-.597 2.153-6.32 4.685-.69.304-2.394 1.202-3.787 1.993-1.392.79-3.47 1.819-4.616 2.282-2.504 1.015-11.177 5.738-11.798 6.425-.24.267-3.554 2.012-7.363 3.872-3.808 1.864-6.947 3.723-6.974 4.127-.027.406-.777.691-1.665.632-2.041-.135-2.27 2.079-.574 5.575.795 1.646 1.893 2.626 3.021 2.704 2.589.178 2.846 1.441.475 2.337-1.131.427-2.092 1.329-2.137 2.005-.047.707-.797 1.184-1.755 1.12-1.253-.083-1.662.353-1.619 1.72.031 1.007-.246 2.423-.62 3.144-.951 1.847 2.012 5.113 4.157 4.586 1.957-.483 1.416-1.919-.776-2.065-.862-.057-1.533-.629-1.491-1.268.119-1.786 1.356-2.064 2.968-.665 1.633 1.418 5.066 1.959 5.142.813.027-.409 1.157-.913 2.51-1.115 2.741-.415 3.53-2.61.998-2.778-.889-.059-1.592-.472-1.563-.914.03-.446.782-.762 1.67-.703.889.059 1.592.472 1.563.917-.03.443 1.038.879 2.372.968 2.898.192 3.446-1.729.793-2.78-1.667-.662-1.678-.723-.164-1.009.885-.17 1.72.108 1.854.613.327 1.258 4.705 1.461 5.589.261.773-1.045 2.865-2.282 6.172-3.646 1.146-.475 2.598-1.29 3.223-1.811.626-.522 2.021-.89 3.1-.818s1.987-.243 2.017-.7c.03-.455.988-1.113 2.128-1.461 1.141-.351 2.099-1.009 2.129-1.464.03-.454.965-.767 2.074-.693 1.113.074 1.999.498 1.969.941-.029.445-.363.789-.739.764s-1.57.626-2.657 1.446c-1.084.824-2.643 1.451-3.464 1.397s-1.515.198-1.539.564c-.049.734-6.545 4.582-7.612 4.511-.37-.025-.81.229-.981.559-.291.565-10.554 5.884-13.317 6.9-.686.253-2.251 1.029-3.479 1.724-1.225.695-4.443 2.373-7.149 3.728-2.706 1.352-5.119 2.697-5.363 2.985-.242.288-1.192.703-2.108.926-2.393.575-7.191 4.59-7.292 6.106-.14 2.114 2.229 2.533 4.84.858 3.045-1.954 6.022-1.93 5.504.042-.2.764-1.085 1.478-1.969 1.587-.885.112-2.014.649-2.507 1.198-.496.546-1.57 1.071-2.389 1.166-2.594.303-4.582 4.014-3.703 6.914.442 1.461.439 2.664-.01 2.902-1.174.622-1.007 1.919.257 2.003.622.041 1.374-.457 1.673-1.107.302-.65 1.469-1.121 2.594-1.046s2.071-.237 2.101-.692c.031-.458.898-1.131 1.928-1.505 1.7-.609 4.564-1.965 14.464-6.851 1.848-.91 4.112-1.98 5.03-2.376s3.939-1.852 6.711-3.234c2.772-1.384 7.107-3.377 9.635-4.431 2.528-1.053 4.916-2.353 5.308-2.884.392-.532 1.368-.924 2.165-.871.801.053 2.328-.564 3.393-1.373 1.067-.807 3.583-2.132 5.595-2.945 2.009-.814 3.884-1.798 4.162-2.188.692-.974 3.656-.698 3.587.333-.03.458-.708 1.034-1.504 1.277-.799.242-1.965.883-2.589 1.426-.627.541-1.58.955-2.114.92-.536-.036-1.649.621-2.469 1.459-.82.841-2.042 1.491-2.712 1.446-.67-.044-1.24.192-1.265.526-.022.333-2.113 1.549-4.645 2.706s-4.621 2.352-4.641 2.658-1.065.901-2.32 1.323c-3.074 1.026-5.725 2.379-7.625 3.882-.868.686-2.145 1.207-2.839 1.161-.698-.046-1.51.448-1.812 1.098-.299.65-1.297 1.132-2.212 1.071-.919-.061-1.914.421-2.216 1.071-.299.65-1.05 1.149-1.666 1.108s-1.622.623-2.236 1.475c-.614.854-1.939 1.497-2.942 1.431-1.086-.073-1.861.369-1.909 1.091a1.22 1.22 0 0 0 1.132 1.293c.667.045 1.189.445 1.159.887-.074 1.119-3.097.821-3.398-.332-.148-.567-.963-.758-2.066-.487-2.247.551-2.481 1.918-.35 2.06 2.593.172 2.524 1.535-.124 2.431-1.365.463-2.505 1.158-2.531 1.549-.026.392-1.139.64-2.473.552-1.334-.089-2.401-.525-2.372-.971.072-1.079-2.12-1.182-2.866-.135-.325.456.16 1.076 1.078 1.384 2.211.738 2.05 1.552-.49 2.513-1.146.433-2.108 1.158-2.138 1.613-.03.454-.989.762-2.129.687-3.332-.222-2.752 3.971.723 5.216 1.416.508 2.554 1.257 2.527 1.66-.027.406.798.226 1.833-.402 1.034-.626 2.372-1.107 2.97-1.067.6.04 1.673-.437 2.385-1.06.711-.622 2.006-1.085 2.879-1.027.87.058 1.828-.426 2.13-1.076.299-.651.911-1.158 1.357-1.129.652.044 9.473-4.143 16.588-7.873.694-.365 2.39-1.139 3.769-1.72 1.379-.585 3.832-1.756 5.454-2.607 1.619-.849 5.581-2.733 8.805-4.188 10.333-4.662 11.626-5.291 12.819-6.245.647-.517 1.875-.892 2.733-.835s1.582-.255 1.611-.694c.029-.437 1.272-1.268 2.763-1.842s4.225-1.842 6.074-2.819c1.853-.979 3.966-1.753 4.698-1.725.732.03 1.576-.477 1.878-1.127.598-1.295 3.491-1.434 4.146-.197.224.423-.672.936-1.991 1.135-1.32.198-2.635.872-2.923 1.496-.288.623-1.263 1.085-2.166 1.025-.904-.06-1.668.261-1.698.716s-1.085 1.198-2.343 1.657c-1.26.455-2.485 1.013-2.723 1.241-.893.848-7.733 4.548-10.952 5.921-1.147.49-2.409 1.335-2.804 1.876-.392.54-1.245.949-1.894.906s-1.852.608-2.672 1.446c-.821.841-2.067 1.489-2.77 1.442-.7-.046-1.707.295-2.237.756-1.177 1.031-4.111 2.526-7.174 3.66-1.259.467-2.309 1.141-2.332 1.499-.024.357-.976.937-2.117 1.284-2.241.689-2.908 2.244-1.016 2.369.64.043 1.351.431 1.581.863.75 1.418-.959 1.554-3.111.248-2.072-1.256-4.508-1.183-4.595.139-.025.367.703.961 1.618 1.32 1.207.476 1.403.879.714 1.482-.692.605-1.197.551-1.856-.203-1.067-1.219-4.604-1.618-4.677-.527-.027.413.663 1.034 1.535 1.375 1.849.726 2.037 2.164.263 2.046-.67-.044-2.028.739-3.023 1.736-1.724 1.737-4.919 1.793-4.806.086.026-.391-.68-.761-1.572-.82-.888-.059-1.64.257-1.669.699-.03.446.674.858 1.562.917.892.059 1.599.42 1.573.805-.14 2.107 8.118 2.178 12.641.106 4.548-2.083 8.637-2.576 8.534-1.023-.029.442.653.853 1.517.91.862.058 1.817-.244 2.122-.669.312-.442-.344-.836-1.517-.914-1.137-.075-2.043-.513-2.013-.971.094-1.41 2.543-1.695 4.678-.545 1.455.785 2.294.862 2.963.279.666-.586.428-.986-.844-1.408-2.867-.958-2.008-2.323.926-1.471 4.093 1.189 4.797 1.22 5.219.24.219-.506-.382-1.225-1.335-1.599-1.341-.524-1.471-.816-.575-1.29.657-.349 1.467-.256 1.88.213 1.187 1.355 5.241 1.293 5.333-.084.044-.667-.538-1.254-1.296-1.304-1.131-.075-1.174-.258-.236-1.033.911-.75 1.199-.731 1.443.096.427 1.456 4.149 1.545 4.807.118.302-.65 1.19-1.139 1.979-1.087.788.052 1.919-.421 2.518-1.051s1.748-1.102 2.558-1.048 1.686-.208 1.951-.577c.265-.372 2.651-1.584 5.304-2.693 2.65-1.107 5.33-2.439 5.955-2.958 1.57-1.303 4.272-.992 4.175.478-.045.667-.572 1.18-1.17 1.141-.6-.04-1.976.599-3.06 1.42-1.087.823-2.424 1.465-2.976 1.428-.552-.036-1.249.466-1.548 1.116-.302.65-1.272 1.134-2.161 1.075-.888-.059-2.052.594-2.587 1.451s-1.687 1.511-2.561 1.453-1.625.44-1.669 1.108c-.045.676.638 1.26 1.536 1.32 1.913.127 2.061 1.605.224 2.174-.728.223-1.69-.24-2.216-1.073-1.02-1.609-3.726-1.673-4.367-.101-.251.613.355 1.037 1.598 1.12 1.1.073 2.174.692 2.387 1.377.509 1.645 3.375 1.786 4.396.218.458-.706 1.557-1.069 2.562-.844 2.215.495 2.206 1.962-.012 2.159-.916.082-1.69.506-1.719.943-.03.439-1.133 1.094-2.451 1.457-1.322.363-2.63 1.354-2.915 2.2-.343 1.034-1.271 1.524-2.818 1.488-1.624-.035-1.241.198 1.293.789 5.5 1.285 12.892.866 17.294-.986 4.192-1.762 6.456-2.005 6.368-.683-.029.443.674.855 1.563.914.891.059 1.638-.18 1.661-.532.044-.655 9.275-4.424 10.618-4.335.413.027 2.911-.943 5.555-2.156 4.439-2.035 4.875-2.094 5.722-.762.568.896 1.672 1.369 2.913 1.25l1.996-.196-2.126-1.229c-2.13-1.228-2.162-2.616-.058-2.476 2.656.176 5.394 4.344 3.621 5.509-1.475.968-1.124 1.104 3.744 1.451 4.043.29 5.503.092 5.915-.798.299-.65 1.427-1.123 2.506-1.051 1.077.071 2.205-.402 2.507-1.052.299-.65 1.426-1.124 2.506-1.052 1.076.071 2.204-.402 2.506-1.052.299-.65 1.075-1.147 1.727-1.103.649.043 1.689-.345 2.314-.864.625-.516 5.273-2.674 10.326-4.796 5.053-2.119 9.72-4.294 10.368-4.833 1.318-1.094 3.757-.762 3.498.476-.09.442-1.008.871-2.034.958-1.029.087-2.196.649-2.592 1.25-.4.601-1.17 1.062-1.716 1.025-.546-.036-1.664.621-2.485 1.459-.82.841-2.223 1.478-3.118 1.419-.891-.059-1.659.398-1.7 1.017s-.999 1.292-2.128 1.497c-1.131.205-2.079.73-2.108 1.167-.029.436.857.854 1.969.928 1.295.086 2.05-.32 2.104-1.133.059-.898.71-1.15 2.229-.866 2.837.526 3.166 2.168.531 2.645-2.337.423-2.834 1.724-.988 2.578.665.306 1.695 1.672 2.287 3.03.992 2.271 1.333 2.446 4.221 2.153 1.727-.175 4.477.148 6.108.716 3.101 1.083 5.875.311 14.62-4.066 6.871-3.439 9.98-4.764 11.02-4.695.597.039 1.593-.461 2.208-1.108 1.379-1.456 7.689-3.924 8.518-3.333 1.105.789-.396 1.877-2.4 1.744-1.128-.075-2.006.342-2.047.973-.08 1.191-5.89 4.996-7.473 4.891-1.716-.114-1.175 2.154.657 2.766 1.451.483 1.569.768.655 1.56-.914.786-1.306.678-2.12-.594-.947-1.476-4.377-1.606-4.457-.168-.112 2.051 7.417 3.794 8.281 1.917.303-.65 1.47-1.12 2.595-1.046s2.071-.228 2.1-.673c.03-.446.815-.759 1.743-.698.931.062 2.381-.634 3.224-1.543.971-1.05 2.014-1.438 2.841-1.057 1.826.846 1.534 2.078-.617 2.609-1.001.247-2.351.912-3.001 1.481-.647.567-1.699.996-2.332.954-1.253-.083-1.485.666-.848 2.721.557 1.798 3.681 1.856 6.99.126 2.943-1.534 6.819-1.697 7.552-.311.247.461 1.09.882 1.878.935.789.052 1.868 1.129 2.396 2.394 2.664 6.353 1.96 6.121 22.022 7.252 13.827.778 18.267.778 19.004.001.527-.559 1.787-.959 2.797-.892s2.083-.41 2.382-1.06c.302-.65 1.424-1.124 2.494-1.053s2.365.706 2.873 1.409c.51.704 1.59 1.324 2.396 1.378.81.053 1.671.476 1.917.94.55 1.038 3.568 1.318 3.633.336.026-.394-.751-.982-1.726-1.306-1.406-.471-1.555-.785-.712-1.524.828-.725 1.265-.702 1.97.103 1.277 1.462 5.153 1.555 5.805.142.302-.65 1.448-1.122 2.545-1.049 1.101.073 2.243-.207 2.542-.623.88-1.236 12.41-5.632 13.233-5.048.415.299-.064.782-1.062 1.078-1 .296-2.066 1.078-2.372 1.74-.305.659-1.222 1.155-2.037 1.101-1.804-.12-2.954 1.284-1.969 2.406.818.934 2.992.296 8.097-2.377 6.529-3.422 7.518-1.441 1.076 2.155-2.322 1.292-4.237 2.621-4.259 2.954s-1.064.886-2.314 1.226c-2.159.591-2.073.67 1.714 1.521 4.066.916 10.435-1.031 16.895-5.167 1.979-1.263 3.427-1.058 3.325.474-.029.43-1.006 1.072-2.172 1.43-2.515.771-2.058 2.281.744 2.467 1.385.092 1.944.58 1.874 1.635-.118 1.771 3.256 1.733 4.952-.054.554-.582 1.667-1.017 2.476-.963.81.054 1.699-.222 1.975-.612 1.393-1.951 9.667-4.273 9.561-2.681-.029.442-.39.784-.802.756-.413-.027-1.262.376-1.887.898-.626.519-3.897 2.543-7.273 4.494-7.421 4.295-6.477 8.697 1.096 5.095 1.151-.548 4.046-1.812 6.433-2.811 2.384-.996 4.587-2.162 4.889-2.586.303-.428 1.165-.706 1.914-.619.841.095.965.283.327.493-.57.188-1.072.87-1.115 1.513s-.729 1.359-1.528 1.592c-.798.23-3.228 1.701-5.406 3.268-2.175 1.567-4.36 2.823-4.854 2.79s-.918.241-.942.608c-.088 1.328 9.077 1.583 10.704.296 1.067-.843 2.825-1.091 5.672-.802 2.271.233 4.673.027 5.338-.455 2.569-1.858 9.439-4.045 9.91-3.158.481.912-3.395 4.108-5.758 4.752-2.168.587-3.506 3.818-2.346 5.649.938 1.481 1.068 1.493 2.633.257.903-.717 2.076-1.272 2.604-1.237.524.035 1.7-.338 2.613-.825 1.285-.689 2.201-.637 4.126.24 1.915.87 2.707.92 3.515.215.957-.838 2.932-1.73 9.049-4.086 3.416-1.314 3.427-.336.029 2.725-5.582 5.032-2.765 7.421 4.67 3.964 4.909-2.284 5.37-2.344 5.26-.698-.044.667-.444 1.189-.89 1.159-1.161-.077-1.096 1.38.223 5 1.11 3.05 5.914 6.78 8.998 6.984 1.334.089 2.995 2.27 4.073 5.345.963 2.75 2.558 2.99 5.966.886 3.327-2.051 3.184-6.729-.456-15.011-1.413-3.215-2.28-6.352-1.994-7.213.281-.837.132-2.227-.326-3.082-1.01-1.886 2.359-5.39 6.913-7.192 2.058-.813 2.838-1.636 2.934-3.091.167-2.51-1.04-2.585-5.991-.358-5.38 2.417-6.458 2.084-2.861-.891 6.1-5.043 6.37-5.451 5.056-7.622-.645-1.063-1.131-2.56-1.08-3.324.143-2.156-.784-2.318-4.612-.812-3.787 1.491-7.986.889-4.63-.664 4.803-2.218 9.784-6.687 9.932-8.912.371-5.582-.853-6.005-8.387-2.899-2.896 1.196-5.73 1.946-6.299 1.668-.675-.331-.389-.656.821-.939 1.021-.236 1.889-.934 1.93-1.549.041-.616.387-1.099.766-1.073 2.268.15 8.592-5.332 8.741-7.579.191-2.88.369-2.856-4.5-.667-2.166.974-4.4 1.739-4.97 1.701s-1.645.464-2.392 1.117c-.744.655-1.98.978-2.743.717-1.176-.398-1.103-.543.467-.935 1.022-.255 1.889-.928 1.927-1.495s.993-1.198 2.124-1.403 2.09-.872 2.13-1.485c.041-.609.999-1.277 2.127-1.482 1.131-.205 2.08-.73 2.109-1.166.082-1.234-2.858-1.125-4.07.153-.599.63-1.954 1.088-3.01 1.018-1.17-.078-1.89-.604-1.841-1.34.044-.668.571-1.181 1.175-1.141.6.04 2.134-.771 3.409-1.805s2.752-1.869 3.288-1.864c.535.008.097-.405-.978-.918-1.505-.718-2.176-.659-2.947.261-1.005 1.2-4.536 1.49-4.376.361.047-.332 1.868-1.612 4.045-2.844 6.689-3.783 5.621-7.782-1.255-4.685-1.513.68-3.277 1.659-3.924 2.176-.643.515-1.849.891-2.683.836-.831-.055-1.759.249-2.064.676-.306.425-1.443.714-2.528.642-1.086-.072-1.95-.495-1.92-.937.029-.446.963-.749 2.076-.676 1.246.083 2.053-.323 2.102-1.063.043-.658 1.004-1.365 2.132-1.57 1.132-.205 2.078-.696 2.104-1.094.027-.397-.862-.782-1.974-.856-1.256-.083-2.05.324-2.1 1.079q-.082 1.214-2.506 1.052c-1.62-.108-2.453.242-2.507 1.052-.044.667-.781 1.166-1.633 1.11-.855-.057-2.692.454-4.083 1.135-1.394.681-2.766.971-3.052.644-.696-.795 4.159-4.974 6.063-5.213 2.38-.299 2.52-2.041.224-2.781-2.421-.782-2.162-2.394.416-2.6 1.176-.096 1.745.283 1.689 1.126-.054.816.64 1.318 1.938 1.405 2.938.195 2.513-.835-1.167-2.84-2.554-1.391-3.552-1.585-4.78-.927-1.914 1.024-5.926.852-5.16-.22.305-.428 1.236-.731 2.07-.676s1.795-.612 2.136-1.482c.378-.97 1.329-1.535 2.451-1.46 4.096.272 2.476-4.355-4.087-11.655a1595 1595 0 0 1-10.487-11.85c-3.428-3.912-6.801-7.151-7.492-7.197-1.407-.094-6.131 1.889-7.932 3.329-.644.517-1.672.906-2.281.865-1.528-.101-2.415-2.015-1.092-2.359.592-.156 1.767-.888 2.615-1.63.843-.738 2.187-1.426 2.976-1.526 2.187-.275 2.554-2.139.45-2.278-.989-.066-2.198-.749-2.686-1.522-.488-.769-1.323-1.169-1.857-.887-1.468.779-1.242 1.787.531 2.377.873.292 1.561.929 1.529 1.414-.074 1.11-3.04.974-3.644-.166-.56-1.057-4.373-1.365-4.44-.359-.028.41-1.133.909-2.455 1.107-1.323.202-2.871.857-3.445 1.462-.572.601-1.684 1.054-2.472 1.002s-1.677.437-1.979 1.087c-.608 1.315-4.669 1.386-4.582.079.03-.455.987-1.113 2.125-1.461 1.141-.35 2.098-1.008 2.129-1.463.03-.455.546-.795 1.143-.756.6.04 1.977-.599 3.061-1.423 1.087-.82 2.463-1.459 3.06-1.42.601.04 1.113-.246 1.139-.637s1.169-1.092 2.54-1.555 2.512-1.14 2.536-1.5.879-.85 1.899-1.086 2.696-1.103 3.719-1.922l1.865-1.49-2.581-4.149c-1.42-2.281-3.094-4.183-3.719-4.224-.624-.042-1.1-.713-1.055-1.493.046-.776-.079-2.24-.28-3.252-.278-1.408.092-1.989 1.597-2.495 3.828-1.287 6.389-3.517 4.855-4.225-.795-.366-1.922-.127-2.731.58-.756.663-1.817 1.177-2.351 1.142-.536-.036-1.649.621-2.469 1.459-.82.841-2.245 1.477-3.164 1.416-.922-.061-1.473.268-1.227.729.246.464 1.335.901 2.421.974 2.641.175 2.584 3.189-.064 3.391-2.256.17-3.067 2.616-1.082 3.272 1.135.377 1.052.472-.39.449-1.004-.015-1.801-.39-1.771-.836.029-.443-.856-.867-1.969-.941-1.259-.083-2.053.324-2.103 1.079q-.08 1.211-2.506 1.051c-2.951-.196-3.067-1.242-.252-2.307 2.836-1.069 2.717-2.402-.233-2.598q-2.427-.161-2.506 1.052c-.045.679-.802 1.165-1.724 1.104-.904-.06-1.889.423-2.188 1.073-.302.65-1.372 1.127-2.382 1.06s-2.325.394-2.924 1.024c-1.212 1.278-4.962 1.342-4.879.081.03-.446 1.146-.737 2.48-.649 1.634.109 2.452-.239 2.507-1.07.045-.679.925-1.549 1.956-1.934 2.955-1.108 5.062-2.259 8.681-4.744 1.848-1.27 4.196-2.509 5.217-2.754 1.021-.243 1.88-.792 1.908-1.22.029-.424.984-1.058 2.125-1.409 1.141-.347 2.098-1.006 2.129-1.46.03-.458.943-.772 2.029-.7 2.341.155 3.441-1.054 2.336-2.58-.557-.774-.508-1.337.178-1.937 1.633-1.43-.343-5.895-2.677-6.05-2.344-.155-2.721 1.894-.483 2.639 2.261.753 1.861 2.326-.549 2.166-1.113-.074-1.999-.492-1.97-.929s-.857-1.086-1.969-1.446c-2.373-.767-2.077-2.38.473-2.582.977-.078 1.796-.49 1.824-.914s1.025-1.071 2.209-1.434c1.474-.451 2.03-1.072 1.754-1.961-.221-.712-.352-2.088-.294-3.053.081-1.319-.975-2.382-4.262-4.294l-4.369-2.54-3.882 1.584c-2.135.873-4.081 1.8-4.321 2.058-.239.262-2.503 1.329-5.03 2.377s-5.516 2.338-6.641 2.866c-2.031.956-3.342.707-3.255-.609.025-.376 1.162-.992 2.527-1.367 3.186-.879 3.152-1.048-.625-3.239-2.698-1.565-3.333-1.68-4.358-.78-.66.578-1.958 1-2.883.939-.924-.062-2.355.574-3.175 1.412-.821.841-2.1 1.487-2.843 1.437-.743-.049-1.598.443-1.897 1.093-.302.65-1.43 1.123-2.506 1.051-1.079-.071-2.207.402-2.506 1.052-.302.65-1.297 1.132-2.215 1.071-.916-.06-1.913.421-2.212 1.072-.313.673-1.552 1.115-2.886 1.026-1.288-.085-2.365.215-2.395.669-.031.455-1.085 1.201-2.343 1.663-1.258.459-2.801 1.264-3.426 1.786-1.364 1.139-4.278 1.08-4.2-.087.03-.455 1.161-.974 2.513-1.152s2.491-.825 2.532-1.437.571-1.08 1.177-1.04c.61.041 2.08-.592 3.267-1.406 1.19-.813 2.754-1.44 3.476-1.392.725.048 1.558-.445 1.86-1.095.299-.65 1.027-1.15 1.615-1.111s1.744-.524 2.571-1.245c1.746-1.529 4.088-2.771 7.213-3.822 1.221-.412 2.453-1.256 2.74-1.873.285-.621 1.26-1.08 2.163-1.02 2.017.134 2.23-1.329.421-2.902-1.281-1.111-1.278-1.163.073-1.101.778.04 1.391.434 1.361.88-.1 1.507 3.91 1.109 4.905-.488.535-.857 1.651-1.513 2.476-1.459.828.055 1.749-.432 2.048-1.082.302-.65 1.285-1.133 2.188-1.073.922.061 1.679-.424 1.724-1.103.045-.677-.638-1.261-1.535-1.321-1.953-.129-2.047-1.61-.144-2.199.799-.245 1.723.145 2.23.949.555.872 1.526 1.241 2.677 1.022 1.681-.324 1.715-.426.469-1.471-.964-.807-1.218-2.018-.899-4.299.367-2.643.114-3.421-1.516-4.65-2.511-1.897-5.341-2.158-4.812-.448.213.684.965 1.282 1.675 1.33 1 .066 1.056.286.251.991-.806.705-1.236.676-1.941-.129-1.271-1.455-4.568-1.519-5.222-.103-.299.65-1.215 1.137-2.037 1.083-.818-.055-1.813.391-2.209.992-.4.601-1.612 1.16-2.699 1.243-2.633.2-3.222 1.93-1.001 2.924 1.269.566 1.474.957.72 1.358-.581.308-1.437.126-1.899-.401-1.157-1.322-3.833-1.341-5.807-.044-.908.594-2.268 1.04-3.023.99-.758-.05-1.622.44-1.924 1.09-.299.65-1.057 1.148-1.685 1.107-.628-.042-1.628.44-2.227 1.07-.596.63-1.751 1.102-2.564 1.048s-1.8.374-2.198.95c-.715 1.043-1.808 1.595-10.076 5.063-2.384 1.002-4.584 2.168-4.89 2.596-.302.424-1.045.74-1.645.701-.603-.041-3.114 1.072-5.579 2.471-2.469 1.401-4.976 2.514-5.573 2.474s-1.668.437-2.379 1.06c-1.468 1.282-3.631 1.388-3.55.169.03-.445.39-.787.803-.759.412.027 1.262-.392 1.889-.929.626-.537 3.345-2.092 6.043-3.457 6.082-3.071 7.17-3.638 9.81-5.105 10.777-5.987 14.173-7.735 15.767-8.122 1.022-.249 1.877-.747 1.901-1.108.024-.36 1.165-1.034 2.536-1.497 1.371-.466 2.512-1.14 2.536-1.501.024-.36.879-.855 1.9-1.095 1.021-.243 3.437-1.349 5.368-2.463 1.929-1.112 4.286-2.213 5.237-2.445.95-.236 1.753-.767 1.78-1.18.028-.415.539-.722 1.139-.682.597.039 1.977-.6 3.061-1.42 1.084-.824 2.293-1.474 2.69-1.448.74.049 5.224-2.534 7.262-4.186.637-.515 1.631-.906 2.211-.868 1.403.094 2.738-5.921 1.782-8.031-.893-1.972-1.738-2.129-3.196-.59-1.26 1.329-4.686 1.324-5.033-.008-.132-.499-1.146-.816-2.256-.701l-2.018.207 2.211 1.103c1.215.604 1.959 1.452 1.654 1.879-.722 1.009-4.518.757-4.448-.295.029-.446-.856-.87-1.969-.944-1.11-.074-2.043.23-2.073.675s.674.858 1.562.917c.889.059 1.582.632 1.539 1.272-.119 1.789-1.497 2.13-2.762.684-1.336-1.526-4.464-1.938-4.552-.603-.034.506.543 1.449 1.283 2.089 1.278 1.114 1.275 1.166-.073 1.1-.78-.036-1.394-.43-1.364-.876.091-1.373-2.831-1.083-4.905.488-1.084.82-2.418 1.462-2.961 1.426-.546-.036-1.479.45-2.078 1.08-.597.631-1.724 1.104-2.507 1.052-.779-.052-1.907.422-2.506 1.052-.596.63-1.782 1.1-2.631 1.043-.848-.056-1.788.43-2.087 1.08-.302.65-1.209 1.138-2.018 1.084-.813-.054-1.987.328-2.612.85-.622.522-2.076 1.354-3.226 1.851-3.634 1.561-5.978 2.794-6.971 3.663-.527.465-1.797.788-2.822.72-1.022-.067-1.884.259-1.915.726-.032.47-1.174 1.159-2.539 1.537-1.365.375-2.498.924-2.517 1.221-.053.798-8.336 3.939-8.848 3.354-.747-.854.667-2.161 2.226-2.057.816.054 1.728-.434 2.027-1.084.302-.65 1.048-1.149 1.66-1.108.613.041 1.819-.61 2.685-1.445.863-.835 2.242-1.474 3.061-1.42.821.055 1.514-.246 1.542-.665.051-.77 2.703-2.22 6.953-3.805 1.262-.47 2.312-1.159 2.337-1.529.024-.37 1.161-.983 2.526-1.358s2.504-1.012 2.531-1.412c.026-.404.536-.699 1.137-.659.597.04 1.976-.6 3.06-1.42 1.084-.823 2.464-1.463 3.061-1.423.6.04 1.11-.246 1.136-.637s1.261-1.11 2.746-1.599c1.486-.49 2.895-1.078 3.133-1.312 1.009-.984 5.926-3.712 6.609-3.667.409.028 1.227-.46 1.817-1.085.592-.624 2.82-1.844 4.949-2.711 2.131-.866 5.676-2.647 7.882-3.956 2.204-1.31 4.375-2.356 4.824-2.326s.841-.328.872-.795c.031-.47 1.133-1.149 2.448-1.509 3.261-.902 2.772-3.45-.833-4.38-1.455-.374-2.815-1.229-3.023-1.901-.491-1.585-2.527-1.708-3.227-.193-.302.65-1.467 1.121-2.595 1.046-1.334-.088-2.076.313-2.132 1.153-.047.71-.826 1.431-1.73 1.606-.903.171-1.665.635-1.691 1.03-.026.391-1.139.64-2.473.551s-2.408-.437-2.385-.777c.041-.612.853-1.061 5.545-3.054 1.341-.572 2.763-1.483 3.155-2.026.395-.541 1.26-.949 1.927-.905 1.607.107 8.86-6.197 8.966-7.795.101-1.528-1.161-2.562-1.889-1.544-.289.407-2.492 1.573-4.896 2.589-2.403 1.019-5.885 2.63-7.736 3.583-1.848.952-3.922 1.92-4.607 2.148-.685.232-1.62.544-2.078.7s-1.97.917-3.362 1.692c-1.391.776-4.406 2.244-6.703 3.264s-4.38 2.106-4.629 2.416c-.706.873-7.485 3.657-8.71 3.575-.606-.04-1.349.459-1.648 1.109-.302.65-1.487 1.12-2.639 1.043-2.756-.183-2.095-.925 2.743-3.067 2.193-.969 4.692-2.357 5.55-3.082.861-.726 1.943-1.294 2.407-1.263.913.061 2.621-1.035 4.877-3.126.785-.731 2.019-1.289 2.741-1.241.721.048 2.019-.596 2.885-1.431.862-.835 2.202-1.477 2.975-1.426s1.65-.439 1.952-1.089c.299-.65 1.044-1.148 1.657-1.108.612.041 1.822-.61 2.685-1.448.862-.835 2.242-1.474 3.063-1.42.819.055 1.528-.446 1.573-1.113q.078-1.214 2.506-1.052c2.908.193 3.467-1.807.799-2.855-1.704-.668-1.713-.72-.146-1.155.996-.278 2.054.02 2.7.758.787.899 1.31.991 2.025.363.706-.627.597-1.091-.419-1.755-1.661-1.088-.946-2.399 1.231-2.254 1.971.131 2.215-2.137.402-3.716-1.244-1.082-1.208-1.162.476-1.074 1.001.054 1.797.46 1.767.906-.067 1.019 2.91 1.262 3.602.294.282-.399-.261-1.348-1.212-2.112l-1.726-1.388 2.018-1.221 2.015-1.221-1.769-.791c-2.138-.958-1.653-2.717.803-2.913 3.536-.283 4.367-10.177.842-10.018-1.103.048-2.219.346-2.481.663-.264.315-1.418.954-2.567 1.42-1.148.462-4.354 1.955-7.124 3.309-2.77 1.357-7.013 3.335-9.428 4.396s-4.41 2.201-4.433 2.538-1.148.779-2.501.985c-1.354.205-2.481.67-2.506 1.036-.024.367-1.072 1.01-2.327 1.43-3.469 1.158-11.077 4.685-12.17 5.642-1.203 1.053-4.996.892-4.233-.178.305-.427 1.221-.732 2.036-.678.816.054 1.729-.433 2.031-1.083.299-.65 1.317-1.131 2.263-1.068 1.037.069 1.929-.514 2.248-1.474.293-.876 1.202-1.546 2.024-1.492s1.934-.602 2.469-1.459c.57-.912 1.8-1.504 2.964-1.427 1.098.073 2.019-.231 2.049-.677.084-1.261-3.667-1.196-4.878.081-.599.631-1.782 1.1-2.631 1.044s-1.789.429-2.091 1.079c-.299.65-1.238 1.136-2.084 1.08s-2.211.584-3.031 1.425c-.82.838-2.093 1.484-2.83 1.435s-1.828.427-2.424 1.058c-.6.63-1.733 1.103-2.519 1.051-.788-.053-1.679.436-1.978 1.086-.302.65-1.43 1.124-2.507 1.052-1.079-.071-2.207.402-2.506 1.052-.601 1.303-4.673 1.392-4.587.1.029-.442.551-.773 1.157-.733.61.041 2.08-.593 3.267-1.409 1.19-.813 2.73-1.442 3.425-1.396.691.046 1.694-.618 2.229-1.475.536-.86 1.509-1.526 2.158-1.483.652.043 1.207-.249 1.234-.649.026-.404 1.075-1.062 2.329-1.469 1.258-.407 4.564-2.045 7.351-3.644 2.786-1.597 5.819-3.241 6.738-3.655s3.052-1.463 4.736-2.335c1.684-.869 5.174-2.65 7.758-3.959 2.584-1.308 4.93-2.706 5.216-3.104.285-.401 1.227-.683 2.088-.626.864.058 1.592-.214 1.618-.605s1.156-1.087 2.511-1.545c2.807-.949 4.092-3.322 2.781-5.133-.489-.675-.617-1.816-.286-2.534.334-.718.099-1.946-.519-2.73-1.217-1.537 4.368-6.249 7.185-6.061 1.419.094 8.531-1.946 9.189-2.634.239-.252 2.199-1.325 4.349-2.385 4.238-2.088 6.54-6.89 4.59-9.584-.678-.94-.476-1.365.959-2.013 1.133-.516 1.552-1.13 1.107-1.635-.801-.915-3.449-.339-3.523.768-.026.397-.566.687-1.203.645-.634-.042-1.689.39-2.345.965-.653.572-3.236 1.899-5.735 2.945-7.337 3.073-9.535 4.075-10 4.556-.239.252-2.309 1.244-4.599 2.21-2.29.962-4.679 2.174-5.313 2.692-.632.516-1.811.894-2.624.84-.809-.053-1.694.387-1.968.981-.69 1.489-4.749 1.936-4.654.513.039-.597.997-1.252 2.125-1.457 1.131-.208 2.078-.709 2.105-1.115.027-.41.893-1.068 1.925-1.465 2.669-1.029 7.383-3.366 15.358-7.608.909-.482 3.68-1.942 6.16-3.246 2.48-1.3 5.513-2.941 6.738-3.642 1.228-.702 3.359-1.742 4.737-2.311 7.357-3.05 11.11-6.739 13.081-12.848.747-2.311-.295-2.852-2.008-1.047m-50.258-1.401c-.049.746-3.457 1.662-3.975 1.07-.164-.187-.032-.712.294-1.165.708-.995 3.749-.917 3.681.095m-5.535 3.059c-2.262.718-3.644.614-3.586-.266.057-.846 3.336-1.344 4.458-.675.402.237.008.661-.872.941m-244.694-13.895c-.029.442-.599.77-1.266.726s-1.189-.445-1.159-.887c.029-.446.599-.774 1.266-.73s1.189.445 1.159.891m-13.908 1.512c-.03.443-1.054.734-2.276.647-1.73-.124-1.943-.315-.957-.861 1.648-.92 3.301-.811 3.233.214m-40.445 2.809c-.964.569-2.402 3.278-1.762 3.321.509.034 3.822-2.886 3.856-3.399.039-.585-1.042-.544-2.094.078m103.603 17.536c.449.849-2.821 1.673-3.816.962-.36-.259-.422-.793-.14-1.188.655-.919 3.434-.759 3.956.226m-5.01 2.11c.423.795-1.429 1.613-3.36 1.485-1.628-.108-1.331-1.52.391-1.85 2.347-.447 2.553-.424 2.969.365m-97.6-3.147c-.029.443-.984.745-2.121.669-1.174-.078-1.83-.471-1.517-.911.305-.427 1.26-.729 2.121-.672.864.058 1.547.468 1.517.914m-5.012 2.104c-.03.442-.872.746-1.872.673-1.47-.107-1.575-.266-.554-.835 1.635-.908 2.493-.851 2.426.162m307.688 26.115c-.03.446-.985.748-2.122.672-1.173-.078-1.83-.471-1.517-.914.305-.424 1.26-.726 2.122-.669.864.058 1.546.468 1.517.911m-5.007 2.019c-.055.818-2.591 1.771-3.117 1.169-.19-.216-.08-.766.245-1.22.712-1 2.939-.962 2.872.051m16.887 4.639c-.473.416-1.276.457-1.788.094-.701-.5-.66-.799.177-1.243 1.436-.763 2.736.167 1.611 1.149M84.258 484.145c-.044.667.344 1.241.863 1.275.518.035.733.247.48.471-.624.546-4.6-1.637-4.543-2.495.025-.373.773-.631 1.662-.572.9.06 1.583.648 1.538 1.321m316.581 20.618c-2.274.802-2.895.761-2.832-.188.029-.446 1.052-.716 2.275-.604 1.965.182 2.029.272.557.792M78.952 486.229c.213.684 1.256 1.302 2.32 1.372 1.065.071 1.91.492 1.881.938-.03.446-.963.749-2.076.675-1.11-.073-1.998-.455-1.972-.849.026-.391-.703-.964-1.62-1.271-.921-.308-1.407-.928-1.081-1.385.846-1.186 2.099-.929 2.548.52m317.681 20.691c-.303.428-1.097.74-1.764.696s-.965-.429-.662-.857c.306-.427 1.1-.74 1.767-.696s.964.43.659.857M59.211 493.244c-4.324 4.711-3.723 6.307 1.55 4.12 3.561-1.478 3.857-2.037 2.12-4.022-1.518-1.73-2.154-1.748-3.67-.098m360.998 29.211c.705.806 1.135.834 1.94.129s.604-.934-.906-1.034c-1.507-.101-1.739.1-1.034.905m-4.838 1.951c-.03.446.492.846 1.159.89s1.237-.283 1.266-.729c.03-.443-.492-.843-1.159-.887s-1.237.283-1.266.726M63.457 503.881c-.045.667-.424 1.19-.842 1.162-1.022-.068-1.666-1.38-.977-1.983.97-.85 1.902-.431 1.819.821m347.929 22.426c-.57.187-1.061.697-1.09 1.136-.068 1.034 3.252.749 3.36-.288.097-.947-.86-1.306-2.27-.848m-4.614 2.197c-.788.127-1.457.567-1.484.979-.065.977 2.934 1.173 3.603.233.671-.939-.306-1.497-2.119-1.212m25.848 5.17c-.029.446-.803.76-1.718.699-.916-.061-1.416-.46-1.111-.887.306-.427 1.079-.742 1.719-.699.639.042 1.14.441 1.11.887m-4.2 2.109c-.027.418-.448.972-.931 1.229-1.237.655-3.389-.469-2.714-1.417.705-.985 3.713-.831 3.645.188M84.403 515.627c-.481 1.192-3.969 1.609-3.893.466.047-.707 1.445-1.25 3.614-1.408.374-.027.501.396.28.942m339.182 23.215c-.682.597-1.359.561-2.388-.134-1.256-.845-1.14-.95.954-.832 1.739.097 2.129.36 1.434.966M122 521.169c-.305.424-1.021.742-1.594.704s-1.746.615-2.612 1.453c-.862.835-2.211 1.476-2.994 1.424-.782-.052-1.567.213-1.741.588-.495 1.073-4.039 1.705-3.973.711.031-.473.773-.814 1.646-.756s2.028-.596 2.564-1.456c.569-.912 1.799-1.504 2.963-1.426 1.234.082 2.026-.332 2.076-1.081.05-.761.847-1.161 2.148-1.075 1.174.078 1.83.472 1.517.914m51.343 3.409c-.029.443-.984.745-2.121.67-1.174-.078-1.83-.472-1.517-.911.305-.428 1.26-.73 2.121-.673.864.058 1.547.469 1.517.914m-28.46.547c-.029.442-.802.757-1.718.696s-1.416-.46-1.114-.884c.306-.428 1.079-.742 1.719-.699.642.042 1.143.441 1.113.887m239.805 19.262c-1.513.823-3.177.697-3.115-.237.057-.852 2.582-1.412 3.592-.794.366.222.152.686-.477 1.031m-245.517-16.203c-1.408.567-2.135.504-2.786-.24-.671-.766-.22-.95 1.905-.766 2.617.226 2.67.287.881 1.006m24.257 1.611c-1.408.567-2.135.503-2.786-.24-.671-.766-.22-.95 1.905-.766 2.617.226 2.67.287.881 1.006m207.073 15.995c-.306.428-1.261.73-2.122.673-.864-.058-1.546-.469-1.517-.914.03-.443.985-.745 2.122-.67 1.173.078 1.829.472 1.517.911m-5.868 1.962c.219.416-.147.922-.812 1.131-1.297.401-2.309-.681-1.391-1.485.779-.682 1.734-.527 2.203.354m50.985 3.471c.247.464-.323.791-1.266.729-.94-.063-1.462-.463-1.159-.89.305-.425.875-.752 1.266-.726.394.026.916.426 1.159.887m-55.027.07c-.22.193-1.042.05-1.831-.313-1.362-.63-1.356-.684.159-1.12 1.453-.412 2.629.595 1.672 1.433m-204.898-11.645c-.303.427-1.097.74-1.764.696s-.965-.43-.662-.857c.305-.428 1.1-.74 1.767-.696s.964.429.659.857m-4.203 2.157c.246.464-.303.793-1.218.732-.916-.06-1.641-.474-1.611-.92.029-.445.578-.774 1.218-.732s1.364.456 1.611.92m-5.067 2.913c-.305.425-1.26.727-2.121.669-.864-.057-1.546-.468-1.517-.91.03-.446.985-.748 2.122-.673 1.173.078 1.829.472 1.516.914m5.904 2.829c-.03.442-.782.758-1.67.699-.891-.059-1.595-.471-1.566-.914.03-.446.782-.761 1.673-.702.889.059 1.592.471 1.563.917m261.604 20.009c-.463 1.145-3.971 1.634-3.898.543.076-1.153 1.069-1.745 2.746-1.633.879.058 1.378.53 1.152 1.09m-271.588-14.773c-.475.416-1.499.461-2.273.105-1.14-.527-1.188-.771-.248-1.269 1.56-.825 3.675.153 2.521 1.164m-4.298 1.935c-.029.445-.984.747-2.124.672-1.174-.078-1.83-.472-1.514-.914.302-.425 1.257-.727 2.121-.669s1.547.468 1.517.911m293.483 19.897c-.091 1.358.054 1.426 1.907.852 1.851-.575 1.718-1.829-.211-1.958-.897-.059-1.651.43-1.696 1.106m-297.902-17.551c-.222.543-1.11 1.072-1.973 1.176-.865.101-2.256.819-3.09 1.595-.837.776-2.066 1.157-2.73.848-1.581-.73-.911-2.29 1.087-2.529.863-.104 1.894-.675 2.29-1.27.913-1.368 4.979-1.201 4.416.18m250.06 16.402c-.029.446-.984.748-2.122.673-1.173-.078-1.829-.472-1.516-.914.305-.425 1.26-.727 2.124-.669.861.057 1.544.468 1.514.91m-5.506 2.939c-.672.939-3.671.743-3.606-.233.055-.822 2.561-1.423 3.522-.848.328.199.366.685.084 1.081M39.87 553.68c-.03 1.277 2.003 3.587 3.225 3.668 2.022.134 2.634-1.513.79-2.129-.918-.307-1.647-.879-1.621-1.27.026-.395-.498-.752-1.166-.797-.667-.044-1.218.194-1.228.528m332.93 24.749c-.03.446-.6.774-1.267.729-.667-.044-1.188-.444-1.159-.89.03-.445.6-.773 1.267-.729s1.188.445 1.159.89M98.902 562.732c-.325.453-.4 1.042-.172 1.304.643.734 4.599-.179 4.658-1.076.072-1.074-3.744-1.266-4.486-.228m-3.142 1.969c-.791.124-1.46.563-1.488.976-.064.976 2.938 1.173 3.606.236.671-.939-.309-1.497-2.118-1.212m-5.687 3.076c-.029.442.675.854 1.563.913.891.06 1.643-.256 1.673-.699.03-.445-.674-.858-1.566-.917-.888-.059-1.64.257-1.67.703m29.109 1.933c-.03.442-.782.758-1.67.699-.891-.059-1.595-.472-1.566-.914.03-.446.782-.762 1.673-.702.889.059 1.592.471 1.563.917m-33.564-.064c-1.18 1.033-.585 1.618 1.398 1.375 1.124-.139 2.067-.575 2.093-.967.055-.833-2.646-1.15-3.49-.408m9.929 1.335c-.063.94.505 1.286 1.975 1.201 1.135-.065 2.088-.483 2.118-.929.03-.445-.86-.986-1.976-1.2-1.447-.279-2.055-.012-2.118.928m18.977.761c.217.411-.342.888-1.24 1.06-1.669.322-2.766-.586-1.77-1.458.802-.702 2.55-.47 3.01.398m-34.53 1.048c-.029.446.472.845 1.111.887.643.043 1.416-.271 1.719-.699.305-.424-.195-.823-1.111-.884s-1.689.253-1.718.696m10.513.698c-.03.446.653.857 1.514.914.864.057 1.82-.245 2.125-.672.312-.439-.344-.833-1.517-.911-1.137-.076-2.092.227-2.122.669m18.999 1.262c-.302.428-1.054.743-1.669.702-.616-.041-1.319-.453-1.563-.917-.254-.479.463-.779 1.67-.699s1.878.472 1.562.914m-33.714.197c-.03.446.47.845 1.11.887s1.413-.271 1.719-.699c.305-.424-.195-.823-1.11-.884-.917-.06-1.69.254-1.72.696m10.916.725c-.306.428.195.826 1.11.887.916.061 1.689-.253 1.719-.699.029-.443-.471-.841-1.111-.884-.643-.042-1.416.272-1.718.696m-15.525 1.406c-.316.442.358.837 1.562.917 1.207.08 1.927-.223 1.673-.702-.247-.461-.95-.874-1.566-.914-.612-.041-1.364.274-1.67.699m10.686.417c-.3.266-.395.775-.209 1.128.444.837 3.618.234 3.68-.7.054-.818-2.643-1.153-3.47-.428m343.869 23.128c-.03.445-.6.773-1.267.729s-1.188-.445-1.159-.89c.03-.443.6-.771 1.267-.726.667.044 1.188.444 1.159.887M88.822 580.515c-.904.135-1.967.728-2.362 1.323-.396.595-1.248 1.044-1.894 1.001s-1.198.286-1.227.732.674.858 1.565.917c.888.059 1.64-.257 1.67-.702.03-.446.53-.778 1.112-.74 1.486.099 4.332-1.816 3.478-2.342-.386-.239-1.44-.324-2.342-.189m-23.109-.551c-.067 1.013.791 1.07 2.426.161 1.021-.569.916-.728-.554-.838-1-.072-1.842.231-1.872.677m10.916.725c.243.464 1.15.889 2.014.947s1.595-.26 1.624-.705c.03-.446-.877-.872-2.017-.948-1.173-.077-1.876.229-1.621.706m-4.206 2.157c-.303.428.198.826 1.114.887.915.061 1.688-.253 1.718-.699s-.47-.844-1.114-.887c-.64-.042-1.413.272-1.718.699m35.173 2.336c-.03.445-.803.76-1.719.699s-1.416-.46-1.11-.887c.305-.428 1.078-.742 1.718-.699.64.042 1.14.441 1.111.887m-29.244.464c-1.061.575-1.046.762.115 1.299 1.616.747 3.824.196 3.902-.978.069-1.034-2.352-1.228-4.017-.321m23.828 1.612c.246.465-.324.792-1.267.73s-1.464-.463-1.159-.891c.306-.427.876-.755 1.267-.729s.912.426 1.159.89m337.35 23.378c.705.805 1.135.833 1.94.128.806-.704.605-.934-.905-1.034-1.51-.101-1.74.1-1.035.906M73.26 588.588c-.03.442.653.853 1.517.91s1.82-.244 2.121-.669c.316-.442-.34-.836-1.513-.913-1.14-.076-2.096.226-2.125.672m24.257 1.61c-1.648.917-3.3.808-3.232-.214.03-.446 1.053-.737 2.275-.65 1.73.124 1.944.315.957.864m336.365 22.337c-.029.443.674.855 1.563.914s1.64-.256 1.669-.699c.03-.446-.673-.858-1.562-.917-.888-.059-1.64.257-1.67.702M68.654 590.718c-.306.424.195.823 1.11.884.916.061 1.69-.253 1.719-.696.03-.446-.471-.845-1.11-.887-.644-.043-1.417.271-1.72.699m361.593 23.726c-.857.753 3.201 4.677 4.651 4.494 2.205-.277 2.003-1.683-.48-3.321-2.603-1.72-3.314-1.92-4.171-1.173m7.516.786c-.029.442.674.854 1.563.913.891.06 1.643-.256 1.672-.699.03-.445-.674-.858-1.565-.917-.889-.059-1.64.257-1.67.703m-14.281 7.17c-.03.446-.964.75-2.077.676s-1.998-.498-1.968-.944c.029-.443.963-.746 2.076-.672s1.998.498 1.969.94m3.88 2.695c-.029.445-.781.761-1.67.702-.891-.059-1.595-.472-1.565-.917.029-.443.781-.758 1.673-.699.888.059 1.592.471 1.562.914m-63.417 1.069c-.05.755-.845 1.162-2.103 1.079-2.514-.167-2.573-1.56-.077-1.869 1.014-.128 1.937-.274 2.05-.327.116-.053.174.45.13 1.117m88.799 8.961c-.164.96-1.258.699-1.538-.364-.143-.546.167-.818.689-.606.522.214.904.651.849.97M165.848 619.1c-2.27.802-2.892.761-2.829-.188.03-.446 1.053-.719 2.272-.604 1.968.179 2.032.272.557.792m-3.396 2.211c-.303.424-1.279.725-2.17.666-.889-.059-1.368-.456-1.063-.881.303-.427 1.279-.728 2.171-.669.888.059 1.367.456 1.062.884m-4.6 2.036c-.05.743-3.458 1.662-3.976 1.07-.164-.187-.032-.711.294-1.168.709-.994 3.749-.914 3.682.098m-5.909 2.982c-1.601.869-3.276.773-3.212-.189.049-.739 3.381-1.383 4.09-.788.2.166-.195.606-.878.977m297.386 22.615c-.056.843.513 1.222 1.689 1.129 2.614-.21 3.019-2.09.485-2.258-1.359-.09-2.119.304-2.174 1.129m-270.565-10.308c-.03.445-.803.76-1.718.699-.916-.061-1.417-.46-1.114-.887.305-.428 1.079-.742 1.718-.699.643.042 1.144.441 1.114.887m264.401 17.558c-.03.446-.6.773-1.267.729s-1.188-.445-1.159-.89c.03-.446.6-.774 1.267-.729.667.044 1.189.444 1.159.89m-268.604-15.45c-.079 1.198-1.688 1.755-3.133 1.087-1.134-.523-1.147-.704-.079-1.282 1.608-.874 3.276-.772 3.212.195m253.436 16.794c.22.413-.211.942-.958 1.173-1.613.502-2.278-.045-1.458-1.194.722-1.009 1.875-.999 2.416.021M142.648 644.36c-1.635.908-2.493.851-2.426-.161.03-.446.872-.749 1.873-.677 1.473.107 1.578.269.553.838m-5.006 2.009c-.064.967-3.241 1.521-3.707.643-.203-.382.283-.821 1.079-.976 2.382-.454 2.678-.416 2.628.333m27.731 4.379c.249.464-.148 1.031-.882 1.257-1.589.491-2.407-.218-1.584-1.375.746-1.041 1.881-.987 2.466.118m-22.418 6.697c-.333.462-.262 1.232.157 1.71.937 1.07 4.544-.362 3.91-1.552-.576-1.089-3.325-1.199-4.067-.158m316.17 21.331c-.029.443-.88.871-1.89.947-1.264.092-1.809-.279-1.748-1.188.06-.913.649-1.209 1.89-.947.991.209 1.778.743 1.748 1.188m-321.193-18.482c-.675.948 1.48 2.072 2.714 1.417.486-.257.904-.811.931-1.23.068-1.018-2.94-1.172-3.645-.187m-4.629 2.528c-.087 1.304.64 1.55 2.711.908 1.685-.521.971-1.881-1.063-2.017-.861-.057-1.604.442-1.648 1.109m-8.839 4.694c-.306.424.195.823 1.11.884.916.061 1.689-.253 1.719-.696.029-.446-.471-.844-1.111-.887-.643-.043-1.416.271-1.718.699m47.732 8.853c-1.635.908-2.493.851-2.426-.161.029-.443.872-.746 1.872-.674 1.473.107 1.578.266.554.835m-4.203 2.157c-.03.446-.782.761-1.67.702-.892-.059-1.595-.471-1.566-.917.03-.443.782-.758 1.673-.699.888.059 1.592.471 1.563.914m-35.302 2.733c-.482 1.192-3.969 1.609-3.893.466.047-.707 1.444-1.25 3.614-1.405.373-.027.497.396.279.939m-4.856 2.723c-.03.445-.985.747-2.122.672-1.173-.078-1.829-.475-1.517-.914.306-.427 1.261-.729 2.125-.672.861.057 1.543.468 1.514.914m52.828 11.63c-.029.443-.963.746-2.073.673-1.113-.074-1.998-.499-1.969-.941.03-.446.964-.749 2.077-.676 1.109.074 1.995.498 1.965.944m-56.422-.479c-.272.378-1.043.433-1.714.124-.954-.441-.987-.69-.141-1.139 1.276-.677 2.56.026 1.855 1.015m363.33 26.138c-.091 1.37-.236 1.409-2.071.563-1.046-.484-1.085-.73-.188-1.219 1.663-.907 2.35-.706 2.259.656m-287.633-16.26c-.305.428-1.1.74-1.767.696s-.964-.429-.658-.857c.302-.424 1.096-.737 1.763-.693s.965.43.662.854m308.064 20.458c-.306.427-1.282.728-2.17.669-.892-.059-1.371-.456-1.065-.884.305-.424 1.281-.725 2.17-.666.888.059 1.367.456 1.065.881m10.916.725c-.03.446.673.858 1.562.917.888.059 1.64-.257 1.67-.702.029-.443-.674-.855-1.563-.914s-1.64.256-1.669.699m-407.071-25.677c-1.17 1.024-.604 1.854 1.358 1.984 2.259.15 2.789-.999.871-1.885-1.542-.715-1.527-.714-2.229-.099m19.796 5.645c-.306.427-1.261.729-2.125.672-.861-.057-1.543-.468-1.514-.914.03-.445.985-.747 2.122-.672 1.173.078 1.829.475 1.517.914m-4.609 2.13c-.03.446-.7.767-1.491.714-.792-.052-2.111.591-2.931 1.429-1.754 1.796-3.968 1.881-3.853.149.044-.667.769-1.167 1.612-1.111s1.777-.43 2.076-1.08c.604-1.303 4.672-1.392 4.587-.101m81.127 13.51c-.03.443-.782.758-1.67.699s-1.592-.471-1.563-.914c.03-.445.782-.761 1.67-.702.889.059 1.592.471 1.563.917m-4.203 2.157c-.03.443-1.054.734-2.275.647-1.734-.124-1.944-.315-.96-.862 1.65-.919 3.303-.809 3.235.215m118.241 11.099c-.305.427-1.079.741-1.718.699-.643-.043-1.143-.441-1.114-.887.03-.443.803-.757 1.718-.696.916.061 1.416.459 1.114.884m-44.391 1.925c-.03.446-.985.748-2.122.672-1.173-.078-1.829-.472-1.516-.914.305-.424 1.26-.726 2.124-.669.861.057 1.543.468 1.514.911m-75.022-1.711c-.268.378-1.04.433-1.713.123-.955-.441-.984-.692-.138-1.139 1.275-.676 2.56.027 1.851 1.016m35.16 2.767c-.043.64.468 1.201 1.135 1.245s1.189.444 1.159.89c-.093 1.41-2.156.737-4.358-1.425-1.912-1.879-1.973-2.117-.582-2.332 1.979-.31 2.743.157 2.646 1.622m88.23 5.646c-1.106.968-2.105.098-1.255-1.094.329-.463.956-.589 1.389-.277.529.377.487.827-.134 1.371m-210.295-14.206c-.03.446.856.87 1.969.944 1.109.074 2.043-.23 2.073-.675s-.856-.87-1.966-.944c-1.113-.074-2.046.23-2.076.675m78.432 5.209c-.067 1.012-.925.955-2.426-.161-.94-.699-.815-.843.66-.758 1.001.061 1.796.473 1.766.919m81.849 7.957c-.624.875-2.841.767-2.781-.136.076-1.137 1.02-1.601 2.176-1.068.605.281.877.823.605 1.204m-86.862-5.854c-.029.446-.963.749-2.076.675s-1.998-.498-1.968-.943c.029-.446.963-.75 2.076-.676s1.998.498 1.968.944m9.297.618c-.303.427-1.179.734-1.943.684-.764-.051-2.061.594-2.882 1.432-1.754 1.796-3.968 1.88-3.853.149.045-.679.802-1.165 1.724-1.104.904.06 1.889-.423 2.188-1.073.316-.679 1.557-1.115 2.934-1.023 1.385.092 2.154.484 1.832.935m61.049 4.054c-.03.445.674.858 1.562.917s1.64-.257 1.67-.703-.674-.858-1.562-.917c-.889-.059-1.641.257-1.67.703m-4.206 2.157c-.984.547-.774.737.96.864 1.221.088 2.245-.204 2.275-.649.068-1.022-1.585-1.132-3.235-.215m8.896.591c-.03.445.653.856 1.514.913.864.058 1.819-.244 2.125-.672.312-.439-.344-.836-1.517-.914-1.137-.075-2.092.227-2.122.673m-157.724-9.661c-.029.442.471.841 1.111.884.639.042 1.413-.272 1.718-.696.305-.428-.195-.827-1.111-.887s-1.688.253-1.718.699m66.396 5.846c-2.381.232-1.635 1.701.951 1.872 1.216.081 1.943.599 1.893 1.344-.045.677.638 1.261 1.536 1.321 1.995.132 2.226-1.333.349-2.185-.76-.343-1.718-1.055-2.127-1.579-.413-.524-1.584-.873-2.602-.773m124.535 9.376c1.029.696 1.706.731 2.388.134.695-.606.305-.869-1.434-.966-2.094-.118-2.21-.013-.954.832m2.856 1.706c-.029.446.877.872 2.014.947 1.174.078 1.876-.229 1.625-.705-.246-.464-1.153-.89-2.017-.947-.861-.057-1.592.259-1.622.705m-168.465-10.666c-.899.787.097 1.922 1.786 2.034.864.057 1.607-.442 1.651-1.109.08-1.2-2.37-1.86-3.437-.925m35.955 2.741c.129.486.579.909 1.001.937.424.028.926-.331 1.116-.797.192-.468-.258-.891-1.001-.94-.74-.049-1.242.31-1.116.8m-5.566 2.005c-.305.425.216.825 1.159.888.943.062 1.513-.265 1.267-.726-.247-.465-.768-.865-1.159-.891-.392-.026-.961.302-1.267.729m8.49.564c-.029.443.856.867 1.969.941 1.11.074 2.043-.23 2.073-.672.029-.446-.856-.87-1.966-.944-1.113-.074-2.046.23-2.076.675m234.45 16.063c-.056.852.365 1.157 1.226.891.722-.223 1.646-.384 2.055-.357.407.027.767-.314.797-.757.029-.446-.856-.87-1.969-.944-1.319-.087-2.052.318-2.109 1.167m33.563 2.14c-.03.446-.88.871-1.89.947-1.265.095-1.809-.276-1.749-1.188.061-.913.65-1.209 1.89-.947.991.209 1.778.743 1.749 1.188m-239.875-13.898c-1.022.569-.917.728.553.835 1.001.072 1.843-.231 1.872-.674.068-1.012-.791-1.069-2.425-.161M380.845 763c-.056.852.365 1.157 1.226.891.722-.223 1.646-.384 2.055-.357.407.027.767-.314.797-.757.029-.446-.856-.87-1.969-.944-1.319-.087-2.052.318-2.109 1.167m50.758 6.123c-.03.446.492.846 1.159.891.667.044 1.237-.284 1.267-.729.029-.443-.493-.843-1.16-.887s-1.237.283-1.266.725" clip-rule="evenodd"/></g><defs><filter id="a" width="597.495" height="875.308" x=".803" y=".285" color-interpolation-filters="sRGB" filterUnits="userSpaceOnUse"><feFlood flood-opacity="0" result="BackgroundImageFix"/><feColorMatrix in="SourceAlpha" result="hardAlpha" values="0 0 0 0 0 0 0 0 0 0 0 0 0 0 0 0 0 0 127 0"/><feOffset dx="20" dy="20"/><feGaussianBlur stdDeviation="25"/><feComposite in2="hardAlpha" operator="out"/><feColorMatrix values="0 0 0 0 0 0 0 0 0 0 0 0 0 0 0 0 0 0 0.5 0"/><feBlend in2="BackgroundImageFix" result="effect1_dropShadow_52_31172"/><feBlend in="SourceGraphic" in2="effect1_dropShadow_52_31172" result="shape"/></filter></defs></svg>