<svg width="1259" height="1144" viewBox="0 0 1259 1144" fill="none" xmlns="http://www.w3.org/2000/svg">
<path fill-rule="evenodd" clip-rule="evenodd" d="M745.04 261.588C708.102 263.071 699.38 268.332 704.553 286.005C704.882 287.126 704.347 287.862 702.065 289.438C688.223 298.991 686.769 314.414 698.598 326.196C709.898 337.449 732.216 336.81 736.089 325.121C737.791 319.982 742.485 326.05 740.914 331.357C739.285 336.857 727.469 346.119 721.181 346.824C710.579 348.013 687.65 333.324 681.737 321.556C677.887 313.89 673.022 295.373 673.022 288.383V285.096L680.12 280.881C689.288 275.434 690.657 274.347 690.118 272.943C688.627 269.077 673.022 278.06 673.022 282.786C673.022 283.673 671.24 285.313 667.655 287.722C651.331 298.7 642.869 307.292 631.144 324.799L624.82 334.237L615.51 334.686C595.573 335.643 575.381 340.988 575.381 345.31C575.381 353.4 592.35 372.238 603.165 376.152C612.081 379.38 610.68 379.638 617.623 373.487C635.303 357.821 641.881 354.651 648.302 358.707C656.239 363.721 650.677 369.501 619.314 388.845L613.732 392.287L608.343 387.983C605.38 385.618 602.329 383.515 601.559 383.317C598.003 382.39 592.495 392.819 592.404 400.647L592.348 405.673L589.121 407.888C531.933 447.179 508.807 477.317 480.773 549.078C466.351 586.001 458.377 611.285 456.258 626.818L455.392 633.171L451.071 634.603C442.852 637.326 433.713 644.029 431.622 648.865C429.824 653.021 429.267 652.198 429.267 645.388C429.267 632.567 424.025 627.015 411.929 627.015C397.345 627.015 382.892 633.301 371.098 644.771L365.903 649.822L363.157 648.591C351.152 643.211 328.05 654.785 315.994 672.216L313.511 675.809L308.546 676.129C298.297 676.79 294.617 679.79 286.742 693.914C274.267 716.293 270.829 731.245 277.146 735.653C279.445 737.257 278.109 737.514 272.043 736.63C268.836 736.163 264.111 735.986 261.244 736.23C255.557 736.707 255.413 736.563 257.906 732.903C264.817 722.761 264.579 706.93 257.479 704.472C247.545 701.032 231.215 715.305 231.215 727.427C231.215 734.322 235.853 737.366 246.369 737.366C251.86 737.366 252.863 738.058 250.093 739.937C243.586 744.351 239.32 744.702 235.003 741.179C230.786 737.737 227.868 736.68 221.667 736.353C218.73 736.199 214.447 735.863 212.15 735.611C209.018 735.268 207.294 735.434 205.265 736.278C203.281 737.105 201.517 737.286 198.64 736.961C195.489 736.608 194.073 736.804 191.429 737.969C188.633 739.2 187.705 739.311 185.253 738.694C183.018 738.135 181.196 738.221 177.185 739.079C163.886 741.926 164.357 741.944 156.831 738.303C150.872 735.418 148.366 735.383 139.806 738.055C136.188 739.185 132.202 740.111 130.946 740.116C128.302 740.124 119.511 742.211 120.013 742.711C120.199 742.896 122.47 742.565 125.058 741.975C127.648 741.384 131.192 740.741 132.934 740.542C134.679 740.345 138.574 739.397 141.59 738.438C148.97 736.09 150.659 736.199 157.119 739.435C163.496 742.629 164.013 742.671 172.533 740.75C177.212 739.696 180.29 739.404 183.981 739.665C188.063 739.954 189.625 739.76 192.148 738.648C194.588 737.574 196.059 737.372 198.9 737.726C201.514 738.051 203.574 737.839 206.251 736.966C209.431 735.931 210.534 735.871 213.881 736.561C216.034 737.003 219.802 737.368 222.255 737.372C226.652 737.379 233.985 739.861 233.985 741.345C233.985 741.672 235.236 742.64 236.768 743.498C240.701 745.699 245.71 744.391 251.815 739.574L254.696 737.299L263.21 737.224C271.761 737.149 278.244 738.042 289.384 740.832C320.95 748.736 337.345 749.43 361.342 743.873C384.872 738.427 405.169 738.749 428.921 744.948C448.882 750.158 453.35 751.179 460.508 752.174C474.612 754.134 483.894 753.186 496.453 748.5C521.384 739.203 539.006 738.164 574.342 743.909C625.684 752.255 663.896 750.52 673.277 739.415C679.562 731.977 669.797 716.198 650.852 703.181C634.217 691.75 620.783 688.046 605.574 690.689L599.412 691.761L595.533 688.444C577.32 672.862 545.84 662.957 528.611 667.387C520.461 669.482 513.827 673.293 506.729 679.955C504.221 682.307 504.19 682.316 500.497 681.569C480.593 677.55 471.065 681.352 461.788 697.018C445.751 724.103 436.911 727.299 419.34 712.365L416.683 710.108L420.576 705.287C434.283 688.313 433.351 674.361 418.596 675.607C401.693 677.038 399.101 691.684 412.999 707.226C415.214 709.704 415.278 709.914 414.153 711.019C390.367 734.408 350.289 740.007 341.407 721.185C339.325 716.777 339.52 715.851 343.051 713.373C346.449 710.988 347.131 709.087 344.592 709.087C342.299 709.087 340.151 710.836 339.292 713.4C338.464 715.88 337.758 716.335 324.009 723.236C278.986 745.841 264.757 739.877 281.795 705.548C293.703 681.562 296.892 678.072 307.967 676.92C312.81 676.416 312.985 676.646 310.868 680.778C307.201 687.935 307.623 697.044 311.815 701.22C322.522 711.883 352.666 700.78 342.521 689.909C338.619 685.727 327.487 679.781 319.681 677.707C314.308 676.282 314.288 676.237 317.155 672.084C328.747 655.306 352.149 643.77 362.997 649.488L365.63 650.874L364.194 652.696C354.255 665.278 356.563 679.389 368.566 679.42C381.796 679.454 382.388 663.748 369.574 652.762L367.026 650.578L368.848 648.251C381.689 631.842 413.809 622.198 423.976 631.696C429.274 636.643 430.228 649.06 426.124 659.601C424.697 663.268 427.212 659.953 429.267 655.459C433.615 645.947 438.005 641.414 446.876 637.282C453.552 634.172 455.581 633.969 455.585 636.411C455.592 639.811 456.879 643.226 458.865 645.114C462.88 648.931 478.105 654.601 484.335 654.601C485.785 654.601 487.483 655.348 489.245 656.763C507.242 671.215 529.518 669.831 540.507 653.58C546.699 644.422 536.678 634.11 519.027 631.473C515.063 630.881 514.943 630.772 512.728 625.825C504.124 606.601 471.547 607.874 471.512 627.437L471.507 629.585L464.409 630.978C455.678 632.693 456.022 633.06 457.627 623.743C460.929 604.58 471.907 572.232 489.405 530.112C505.034 492.485 523.233 464.198 544.202 444.933C548.124 441.33 551.837 437.891 552.452 437.292C558.333 431.545 591.775 406.312 593.509 406.312C593.782 406.312 595.096 407.95 596.432 409.953C597.766 411.955 599.652 414.338 600.622 415.247C603.154 417.614 602.87 418.151 597.925 420.349C573.871 431.047 555.694 459.1 544.903 502.178C533.081 549.378 538.187 583.196 562.761 620.425C573.685 636.975 587.266 645.264 601.408 644.013C611.761 643.096 623.227 648.246 631.35 657.462C634.08 660.556 634.118 660.037 630.666 666.816C625.286 677.382 626.228 683.357 633.161 682.694C640.751 681.969 642.711 675.101 638.004 665.731L635.531 660.81L636.967 658.801C646.318 645.726 665.897 642.147 671.288 652.53C672.487 654.836 672.573 654.756 667.165 656.303C653.114 660.32 649.134 667.084 658.467 671.085C667.937 675.141 674.706 670.537 674.333 660.289C674.12 654.458 674.267 654.4 688.256 654.787C699.477 655.099 705.239 656.394 710.774 659.849C720.699 666.045 727.267 676.116 727.342 685.254L727.382 690.042L723.134 690.906C712.452 693.081 703.743 699.666 707.8 702.496C712.781 705.97 722.919 701.328 726.736 693.824L728.445 690.466H735.048C748.555 690.466 755.385 693.486 759.237 701.156C763.046 708.742 761.97 723.029 756.719 734.574C753.487 741.678 753.358 741.754 747.969 739.733C741.888 737.454 738.115 739.223 738.115 744.355C738.115 750.547 748.704 750.332 752.069 744.07C752.91 742.503 752.834 742.492 766.051 745.918C776.658 748.666 781.134 748.953 787.529 747.3C793.483 745.761 796.071 746.323 803.422 750.752C811.334 755.52 814.57 755.83 822.274 752.556C824.928 751.429 828.191 750.498 829.524 750.487C831.662 750.467 835.914 749.437 848.567 745.865C855.6 743.88 858.299 744.278 865.459 748.358C876.026 754.38 882.362 754.614 902.23 749.709C918.619 745.666 920.716 745.865 923.508 751.725C925.528 755.962 931.986 757.13 937.553 754.263C938.682 753.681 941.09 753.011 942.906 752.775C944.724 752.536 948.545 751.404 951.402 750.257C958.304 747.487 967.608 747.14 970.214 749.556C971.101 750.381 972.646 751.259 973.645 751.506C974.644 751.751 976.654 753.171 978.115 754.66C981.459 758.073 983.774 758.177 989.682 755.182C992.505 753.75 995.542 752.832 998.491 752.521L1002.99 752.045L998.818 751.946C995.351 751.864 993.786 752.258 989.585 754.263C982.893 757.457 981.144 757.413 978.372 753.975C977.174 752.49 975.451 751.088 974.548 750.863C973.645 750.637 971.727 749.649 970.289 748.67C966.545 746.119 958.284 746.544 950.594 749.682C947.673 750.874 944.557 751.847 943.669 751.847C942.779 751.844 939.552 752.633 936.494 753.602C929.361 755.861 926.267 755.169 924.023 750.812C921.002 744.948 918.983 744.795 901.196 749.108C881.845 753.798 876.467 753.566 865.992 747.587C858.574 743.352 854.728 742.934 846.836 745.498C839.998 747.72 831.296 749.78 828.717 749.786C827.447 749.791 824.695 750.595 822.6 751.577C816.064 754.636 811.896 754.596 806.374 751.418C795.321 745.056 794.014 744.753 786.343 746.749C780.169 748.358 766.593 746.362 756.013 742.293L754.173 741.586L756.854 736.154C760.252 729.273 762.354 720.409 762.354 712.964C762.354 696.505 754.47 689.717 735.172 689.56L728.421 689.505V685.488C728.421 664.948 703.878 650.052 676.711 654.102C673.606 654.564 673.073 654.471 672.731 653.412C668.996 641.836 651.769 643.001 638.694 655.713L634.783 659.517L629.839 654.76C620.663 645.938 614.844 643.516 602.042 643.193C584.98 642.76 574.63 636.827 564.718 621.798C563.234 619.545 561.423 616.837 560.697 615.781C555.657 608.449 544.559 583.497 542.38 574.598C532.373 533.708 550.512 463.588 578.381 435.426C586.393 427.329 599.006 419.164 603.232 419.336C604.102 419.372 605.902 419.482 607.236 419.582C609.009 419.712 609.66 419.482 609.66 418.726C609.66 417.977 608.832 417.672 606.666 417.616C603.268 417.532 601.237 415.753 596.987 409.139L594.596 405.415L596.241 404.17C597.146 403.487 599.541 401.904 601.563 400.653C603.585 399.402 606.848 397.371 608.812 396.139C613.535 393.175 613.315 393.109 618.95 399.199C624.47 405.167 624.605 405.554 621.951 407.802C619.192 410.141 614.584 415.93 615.086 416.429C617.024 418.359 626.691 411.323 626.447 408.16C626.292 406.142 626.461 405.95 628.565 405.748C631.377 405.479 633.216 407.278 642.205 419.075C657.921 439.699 664.04 444.628 667.329 439.312C669.875 435.196 672.136 419.679 673.878 394.358L674.06 391.714L680.639 389.119C714.514 375.752 740.61 359.583 754.179 343.55C775.113 318.815 795.405 270.622 787.109 265.344C781.971 262.072 766.779 260.717 745.04 261.588ZM781.833 264.152C787.917 266.095 788.263 266.595 787.768 272.7C787.24 279.247 784.827 287.168 779.11 301.133C762.121 342.626 734.986 366.59 680.415 388.292C674.127 390.795 674.407 390.739 674.407 389.455C674.407 387.702 673.346 387.689 666.015 389.349C648.582 393.295 639.517 396.489 639.91 398.549C640.458 401.42 650.852 399.831 665.944 394.57C669.48 393.339 672.58 392.536 672.833 392.791C674.793 394.74 668.654 436.87 666.031 439.482C662.957 442.546 655.424 435.453 640.325 415.278C633.638 406.343 631.827 404.807 628.232 405.026C625.431 405.198 624.989 404.999 623.353 402.833C622.363 401.522 620.009 398.85 618.12 396.895C614.121 392.755 614.096 392.844 620.248 389.203C635.46 380.202 650.93 368.787 652.264 365.58C654.476 360.259 646.229 353.953 640.103 356.282C635.121 358.177 625.222 365.44 615.319 374.464C613.1 376.486 610.92 378.009 610.472 377.846C610.026 377.684 606.708 376.506 603.099 375.228C595.801 372.647 594.676 371.716 585.301 360.513C575.862 349.233 574.297 345.155 578.594 343.011C587.858 338.389 620.99 333.017 622.75 335.853C623.014 336.28 620.768 340.745 617.76 345.778C610.197 358.433 604.213 369.735 604.779 370.299C605.554 371.071 624.006 351.705 626.538 347.463C629.761 342.06 630.247 337.699 627.752 336.567C625.211 335.413 625.286 335.192 631.345 325.946C641.885 309.858 652.328 299.137 667.356 288.971C672.223 285.678 672.329 285.68 672.329 289.04C672.329 294.966 676.202 310.928 679.616 319.065C686.902 336.441 714.35 352.111 726.621 345.9C739.429 339.417 745.209 330.086 740.281 323.848L738.803 321.976L741.025 320.342C749.832 313.872 751.079 297.689 743.404 289.511C735.55 281.142 721.03 279.272 709.194 285.105C705.228 287.057 704.68 286.354 704.32 278.869C703.867 269.444 705.954 267.72 721.15 264.95C738.67 261.758 772.922 261.307 781.833 264.152ZM688.948 273.483C688.948 274.521 675.292 283.277 674.658 282.645C673.25 281.246 676.553 278.023 683.062 274.44C686.889 272.335 688.948 271.999 688.948 273.483ZM733.37 284.203C749.179 290.094 753.17 311.176 740.139 319.975L737.769 321.578L737.332 318.596C736.313 311.651 733.148 308.183 731.177 311.85C730.134 313.791 730.909 315.857 733.807 318.87C739.589 324.878 730.543 322.719 723.862 316.494C717.566 310.627 706.262 292.694 706.262 288.571C706.262 283.874 724.568 280.923 733.37 284.203ZM708.45 295.837C716.001 311.558 726.514 322.858 733.592 322.858C737.884 322.858 733.67 329.213 727.677 331.782C708.897 339.828 684.452 318.735 692.788 301.679C694.792 297.579 702.593 289.042 704.294 289.089C704.804 289.104 706.675 292.141 708.45 295.837ZM734.884 313.03C737.43 318.061 736.617 320.977 733.579 317.712C732.46 316.512 731.883 315.079 731.883 313.512C731.883 310.561 733.503 310.3 734.884 313.03ZM627.164 337.036C631.25 339.887 626.294 348.537 613.164 361.464C605.722 368.792 606.608 366.112 617.834 347.343C625.32 334.828 624.807 335.393 627.164 337.036ZM607.132 388.142C613.299 393.005 613.546 392.209 604.069 398.067C592.466 405.238 591.054 404.842 594.03 395.251C597.561 383.874 600.021 382.538 607.132 388.142ZM673.319 389.68C673.918 390.646 672.389 391.497 666.443 393.513C651.431 398.6 641.166 400.609 641.166 398.46C641.166 395.965 671.996 387.547 673.319 389.68ZM625.44 408.374C625.828 409.855 623.34 412.369 619.554 414.318C616.611 415.835 616.433 415.066 618.986 411.858C622.643 407.258 624.836 406.076 625.44 408.374ZM608.621 418.726C608.621 419.106 608.153 419.416 607.582 419.416C607.01 419.416 606.543 419.106 606.543 418.726C606.543 418.346 607.01 418.036 607.582 418.036C608.153 418.036 608.621 418.346 608.621 418.726ZM501.669 615.257C510.187 619.433 516.608 631.241 509.475 629.612C507.828 629.236 498.846 628.871 489.516 628.801C470.575 628.659 471.445 628.924 472.85 623.728C475.456 614.088 490.354 609.709 501.669 615.257ZM500.635 629.733C513.82 630.75 513.59 630.664 514.105 634.842C515.436 645.649 509.417 652.417 497.117 653.954C487.407 655.167 484.675 653.498 477.923 642.236C471.578 631.654 471.884 629.957 480.196 629.599C491.331 629.119 492.78 629.128 500.635 629.733ZM472.577 632.704C473.509 637.001 479.089 646.604 483.221 651.022C485.996 653.989 485.953 654.082 482.069 653.525C469.494 651.717 458.63 645.899 456.952 640.072C455.199 633.984 455.51 633.63 464.201 631.787C472.029 630.125 472.018 630.122 472.577 632.704ZM526.214 634.397C543.971 640.408 546.699 649.351 533.769 659.177C521.48 668.516 506.408 668.353 493.076 658.733C489.178 655.921 489.4 655.561 495.353 655.061C508.809 653.927 514.786 648.522 514.788 637.481V631.738L517.904 632.189C519.618 632.437 523.357 633.432 526.214 634.397ZM370.592 654.902C381.277 665.099 380.096 678.766 368.535 678.731C357.828 678.698 355.545 668.244 363.446 655.452C366.156 651.069 366.544 651.038 370.592 654.902ZM673.295 657.073C674.93 661.321 672.82 668.386 669.269 670.543C662.93 674.394 651.294 668.16 655.542 663.189C659.035 659.1 672.312 654.526 673.295 657.073ZM637.342 666.131C641.59 674.487 639.85 681.067 633.154 681.962C627.333 682.738 626.365 677.137 630.802 668.322C634.559 660.852 634.646 660.824 637.342 666.131ZM554.953 669.372C569.97 673.14 585.02 680.546 595.577 689.356C598.622 691.896 598.54 692.102 593.897 693.601C577.407 698.923 560.839 711.636 560.839 718.966C560.839 729.359 583.972 729.861 599.199 719.797C608.834 713.426 610.257 705.378 603.343 696.359C601.969 694.569 601.117 692.858 601.445 692.559C602.202 691.868 611.861 690.466 615.874 690.466C641.422 690.466 681.782 724.284 673.042 738.367C666.079 749.585 620.204 751.455 570.88 742.529C542.036 737.308 519.635 738.871 495.872 747.762C479.87 753.748 466.591 753.84 444.501 748.122C440.884 747.187 433.715 745.332 428.575 744.002C403.662 737.558 387.611 737.445 358.632 743.506C335.676 748.308 325.241 748.029 297.256 741.868C283.18 738.772 282.175 738.124 289.73 737.039C298.05 735.843 311.835 730.5 327.993 722.211L338.577 716.78L339.602 719.224C340.166 720.571 340.628 721.881 340.628 722.138C340.628 723.435 346.738 728.665 350.413 730.513C365.718 738.208 398.131 729.154 413.287 712.951C415.478 710.608 416.095 710.676 419.679 713.665C425.638 718.636 433.089 722.197 437.512 722.189C445.331 722.171 449.266 718.166 464.278 694.949C472.322 682.511 482.453 678.494 497.421 681.81C503.616 683.183 503.511 682.827 499.472 688.824C489.445 703.7 486.777 720.495 493.311 727.593L495.641 730.124H502.446C516.541 730.124 533.254 717.834 533.254 707.467C533.254 699.337 521.77 688.245 509.248 684.279C505.025 682.942 505.043 682.663 509.608 678.549C521.631 667.712 536.421 664.719 554.953 669.372ZM423.867 676.699C432.996 679.224 430.461 692.856 418.299 706.651C415.613 709.697 416.115 709.854 412.262 704.777C401.174 690.168 402.736 678.985 416.175 676.761C421.344 675.908 421.015 675.91 423.867 676.699ZM320.38 678.733C346.447 686.872 351.181 700.858 329.027 704.279C312.368 706.855 304.738 696.523 311.857 681.034C313.784 676.839 314.068 676.763 320.38 678.733ZM510.061 685.546C523.746 691.165 532.446 699.878 532.446 707.962C532.446 719.423 506.317 734.147 495.792 728.614C487.059 724.021 489.811 703.523 501.312 687.535C504.65 682.895 503.98 683.048 510.061 685.546ZM726.344 691.879C726.344 696.428 717.239 703.161 711.653 702.745C703.608 702.148 709.076 695.76 720.458 692.46C725.429 691.017 726.344 690.926 726.344 691.879ZM602.267 696.313C609.253 705.55 608.121 712.874 598.753 719.061C583.049 729.435 559.019 728.122 561.811 717.04C563.291 711.163 578.319 700.301 592.002 695.221C598.933 692.646 599.543 692.71 602.267 696.313ZM259.235 706.585C264.317 711.647 262.666 725.67 255.999 734.09L253.951 736.676H247.903C236.479 736.676 231.898 733.886 231.914 726.939C231.94 714.666 252.199 699.578 259.235 706.585ZM344.783 710.418C344.783 710.769 343.968 711.696 342.969 712.476C340.47 714.434 339.203 713.437 341.591 711.39C343.56 709.704 344.783 709.33 344.783 710.418ZM747.969 740.573C752.2 742.2 752.457 742.613 750.537 744.687C746.025 749.559 738.808 749.221 738.808 744.134C738.808 740.149 742.82 738.59 747.969 740.573Z" fill="#4285F4" stroke="#4285F4" stroke-width="3"/>
<path fill-rule="evenodd" clip-rule="evenodd" d="M869.015 129.843C868.668 130.262 868.632 131.767 868.806 136.238C869.367 149.661 866.325 155.362 857.338 157.669C856.011 158.016 854.679 158.542 854.367 158.858C853.842 159.383 853.877 159.45 854.474 159.94C854.857 160.221 855.801 160.43 856.572 160.43C858.251 160.466 861.604 161.512 863.283 162.528C865.555 163.962 867.127 168.958 867.968 177.491C868.213 179.727 868.53 181.86 868.703 182.177C869.122 182.947 870.872 183.014 871.464 182.284C871.674 182.003 872.164 179.206 872.547 176.098C873.562 167.36 874.644 163.512 876.604 161.766C877.793 160.684 881.008 159.459 883.667 159.04C885.101 158.831 886.5 158.479 886.745 158.27C887.337 157.816 887.337 156.453 886.78 155.963C886.535 155.789 884.366 155.371 881.957 155.054C873.077 153.83 872.658 153.202 872.168 139.391C871.994 134.394 871.714 130.475 871.469 130.057C871.015 129.184 869.652 129.077 869.024 129.847L869.015 129.843ZM870.939 152.707C871.745 154.525 873.001 155.678 875.099 156.622L876.844 157.393L875.971 158.056C873.037 160.363 871.638 162.496 870.73 166.13C870.275 168.054 870.03 167.948 869.224 165.467C868.387 162.844 866.708 160.537 864.958 159.526C864.121 159.036 863.421 158.582 863.421 158.51C863.421 158.475 864.259 157.776 865.31 156.974C866.392 156.168 867.79 154.667 868.561 153.442C869.296 152.289 869.995 151.345 870.097 151.345C870.2 151.345 870.587 151.973 870.934 152.707H870.939Z" fill="#8AB4F8"/>
<path fill-rule="evenodd" clip-rule="evenodd" d="M886.143 131.348C884.117 133.481 882.402 136.345 881.458 139.249C880.131 143.164 882.683 141.485 886.526 135.891C889.114 132.114 889.849 130.507 889.252 129.807C888.588 129.001 888.17 129.215 886.139 131.344L886.143 131.348Z" fill="#8AB4F8"/>
<path fill-rule="evenodd" clip-rule="evenodd" d="M847.446 136.207C847.202 136.278 846.992 136.523 846.992 136.697C846.992 137.08 854.786 144.669 856.046 145.47C858.318 147.007 858.108 145.644 855.485 141.974C851.953 137.044 849.575 135.334 847.446 136.207Z" fill="#8AB4F8"/>
<path fill-rule="evenodd" clip-rule="evenodd" d="M938.722 171.969C937.395 172.806 932.291 179.344 932.291 180.15C932.291 181.339 937.92 176.725 939.631 174.102C941.345 171.55 940.922 170.571 938.722 171.969Z" fill="#8AB4F8"/>
<path fill-rule="evenodd" clip-rule="evenodd" d="M904.394 172.04C903.695 172.74 903.94 173.648 905.164 175.046C906.634 176.654 911.212 179.87 911.56 179.522C911.943 179.139 910.754 177.215 908.727 174.944C906.492 172.463 904.986 171.448 904.394 172.04Z" fill="#8AB4F8"/>
<path fill-rule="evenodd" clip-rule="evenodd" d="M920.088 172.811C919.843 173.091 919.425 174.944 919.144 176.935C918.098 184.59 916.485 187.423 911.733 189.904C909.671 190.986 909.288 191.373 909.075 192.317C908.83 193.578 908.968 193.716 911.31 194.553C917.323 196.789 917.706 197.105 918.302 200.285C918.512 201.331 918.757 204.725 918.895 207.802C919.002 210.88 919.242 213.677 919.42 213.988C919.875 214.897 921.344 214.794 921.901 213.815C922.181 213.396 922.6 211.61 922.809 209.9C923.825 202.561 925.326 198.258 927.459 196.686C928.929 195.64 930.149 195.15 932.946 194.589C935.391 194.099 936.232 193.4 935.569 192.317C935.324 191.934 934.553 191.654 933.298 191.511C930.674 191.231 927.74 190.322 926.305 189.378C924.382 188.086 923.963 186.755 923.335 179.972C923.019 176.614 922.636 173.541 922.462 173.087C922.115 172.214 920.716 172.04 920.084 172.806L920.088 172.811ZM921.415 186.933C921.941 188.995 923.442 190.883 925.504 192.108L927.04 193.017L925.295 194.379C924.07 195.324 923.304 196.339 922.605 197.84C922.079 198.993 921.522 199.937 921.415 199.937C921.277 199.937 920.997 199.203 920.716 198.294C919.981 195.635 918.129 193.961 914.633 192.772C913.969 192.527 913.969 192.491 914.806 191.966C916.623 190.776 918.93 188.331 919.736 186.826C920.191 185.953 920.645 185.254 920.783 185.254C920.89 185.254 921.166 186.024 921.411 186.933H921.415Z" fill="#8AB4F8"/>
<path fill-rule="evenodd" clip-rule="evenodd" d="M883.347 173.541C884.464 176.445 887.858 180.462 889.078 180.288C890.967 180.008 889.706 177.491 886.21 174.521C883.765 172.459 882.821 172.107 883.342 173.541H883.347Z" fill="#8AB4F8"/>
<path fill-rule="evenodd" clip-rule="evenodd" d="M853.739 175.746C852.621 176.69 851.116 178.124 850.381 178.926C848.146 181.406 847.513 183.856 849.09 183.856C849.86 183.856 853.076 180.498 854.928 177.736C857.618 173.715 857.164 172.913 853.739 175.746Z" fill="#8AB4F8"/>
<path fill-rule="evenodd" clip-rule="evenodd" d="M931.592 205.46C931.592 205.634 932.745 207.174 934.179 208.885C937.083 212.345 938.655 213.534 939.457 212.871C939.737 212.626 939.982 212.243 939.982 211.998C939.982 211.192 938.165 209.308 935.333 207.21C932.781 205.322 931.592 204.765 931.592 205.464V205.46Z" fill="#8AB4F8"/>
<path fill-rule="evenodd" clip-rule="evenodd" d="M908.692 208.364C904.986 211.86 903.588 214.937 905.405 215.494C906.42 215.845 907.013 215.146 909.427 210.844C910.861 208.257 911.315 207.139 911.034 206.858C910.789 206.613 910.09 207.032 908.692 208.364Z" fill="#8AB4F8"/>
<g opacity="0.15" filter="url(#filter0_f_75_32677)">
<path fill-rule="evenodd" clip-rule="evenodd" d="M116.142 465.905L115.438 463.738L114.738 461.564L114.043 459.383L113.353 457.193L112.669 454.993L111.993 452.784L111.324 450.565L110.666 448.335L110.017 446.093L109.381 443.84L108.757 441.574L108.147 439.296L107.553 437.005L106.976 434.701L106.416 432.384L105.876 430.054L105.355 427.71L104.856 425.353L104.379 422.983L103.925 420.599L103.496 418.203L103.091 415.794L102.711 413.372L102.359 410.938L102.033 408.491L101.734 406.032L101.464 403.562L101.221 401.08L101.008 398.587L100.823 396.083L100.667 393.568L100.541 391.043L100.444 388.507L100.377 385.962L100.339 383.407L100.331 380.842L100.353 378.268L100.405 375.685L100.487 373.094L100.599 370.493L100.742 367.885L100.916 365.268L101.121 362.644L101.357 360.012L101.626 357.373L101.926 354.728L102.258 352.075L102.622 349.417L103.019 346.752L103.448 344.082L103.909 341.405L104.402 338.724L104.927 336.036L105.484 333.343L106.073 330.645L106.693 327.942L107.346 325.233L108.03 322.52L108.745 319.801L109.492 317.076L110.27 314.347L111.08 311.612L111.921 308.872L112.793 306.127L113.697 303.376L114.632 300.621L115.599 297.859L116.598 295.093L117.629 292.321L118.692 289.544L119.788 286.762L120.916 283.975L122.078 281.183L123.273 278.386L124.502 275.585L125.766 272.779L127.064 269.969L128.397 267.155L129.766 264.337L131.172 261.517L132.614 258.694L134.093 255.868L135.611 253.04L137.167 250.211L138.762 247.382L140.397 244.552L142.072 241.723L143.787 238.895L145.545 236.069L147.344 233.246L149.187 230.426L151.072 227.611L153.001 224.801L154.974 221.998L156.993 219.201L159.056 216.413L161.165 213.633L163.32 210.864L165.522 208.105L167.77 205.358L170.065 202.624L172.408 199.903L174.799 197.197L177.237 194.506L179.723 191.831L182.257 189.174L184.84 186.535L187.471 183.916L190.151 181.316L192.879 178.737L195.656 176.179L198.481 173.645L201.356 171.134L204.278 168.647L207.25 166.186L210.27 163.752L213.339 161.345L216.456 158.966L219.622 156.618L222.836 154.3L226.099 152.014L229.409 149.762L232.768 147.546L236.175 145.366L239.629 143.223L243.131 141.121L246.679 139.058L250.274 137.038L253.916 135.062L257.603 133.129L261.335 131.242L265.112 129.402L268.933 127.609L272.797 125.866L276.705 124.172L280.655 122.529L284.646 120.938L288.678 119.399L292.751 117.915L296.862 116.485L301.013 115.11L305.201 113.792L309.427 112.532L313.689 111.33L317.986 110.187L322.318 109.105L326.684 108.084L331.082 107.126L335.513 106.231L339.974 105.4L344.464 104.635L348.983 103.937L353.53 103.307L358.102 102.746L362.7 102.255L367.322 101.835L371.965 101.488L376.63 101.215L381.314 101.018L386.015 100.897L390.733 100.853L395.466 100.889L400.211 101.005L404.968 101.201L409.734 101.48L414.507 101.842L419.287 102.288L424.07 102.818L428.855 103.434L433.64 104.136L438.423 104.926L443.203 105.803L447.976 106.768L452.741 107.821L457.496 108.964L462.238 110.197L466.967 111.519L471.678 112.932L476.371 114.435L481.043 116.028L485.692 117.712L490.315 119.486L494.911 121.351L499.477 123.306L504.012 125.351L508.512 127.486L512.976 129.71L517.402 132.022L521.788 134.423L526.131 136.911L530.43 139.486L534.683 142.147L538.887 144.892L543.041 147.722L547.143 150.635L551.191 153.629L555.183 156.704L559.119 159.859L562.995 163.092L566.811 166.401L570.564 169.786L574.254 173.245L577.879 176.776L581.438 180.378L584.929 184.05L588.351 187.789L591.703 191.594L594.984 195.462L598.194 199.393L601.331 203.385L604.396 207.434L607.387 211.54L610.304 215.699L613.148 219.912L615.917 224.174L618.612 228.484L621.233 232.84L623.78 237.241L626.254 241.683L628.654 246.166L630.981 250.687L633.236 255.244L635.418 259.835L637.529 264.46L639.57 269.115L641.54 273.799L643.44 278.511L645.271 283.25L647.034 288.012L648.728 292.799L650.356 297.607L651.917 302.435L653.412 307.283L654.841 312.149L656.204 317.033L657.503 321.932L658.737 326.846L659.906 331.775L661.011 336.717L662.051 341.671L663.026 346.637L663.936 351.614L664.779 356.601L665.556 361.597L666.265 366.602L666.904 371.614L667.473 376.634L667.97 381.659L668.393 386.69L668.739 391.725L669.008 396.762L669.197 401.802L669.303 406.842L669.325 411.882L669.26 416.919L669.105 421.952L668.859 426.979L668.519 431.998L668.082 437.008L667.545 442.006L666.908 446.99L666.167 451.957L665.321 456.904L664.367 461.83L663.304 466.732L662.131 471.605L660.845 476.449L659.446 481.259L657.932 486.032L656.303 490.766L654.559 495.457L652.699 500.102L650.724 504.698L648.634 509.242L646.43 513.731L644.113 518.161L641.684 522.531L639.146 526.836L636.5 531.075L633.749 535.244L630.895 539.342L627.943 543.367L624.895 547.315L621.755 551.187L618.527 554.98L615.216 558.693L611.825 562.325L608.358 565.874L604.821 569.341L601.217 572.725L597.552 576.026L593.829 579.243L590.054 582.378L586.232 585.43L582.366 588.4L578.463 591.289L574.526 594.099L570.56 596.831L566.569 599.485L562.559 602.065L558.533 604.571L554.495 607.007L550.45 609.373L546.402 611.674L542.354 613.91L538.31 616.085L534.272 618.201L530.246 620.262L526.232 622.27L522.235 624.227L518.255 626.138L514.297 628.004L510.36 629.829L506.449 631.615L502.563 633.366L498.703 635.084L494.872 636.772L491.07 638.432L487.296 640.067L483.552 641.679L479.838 643.271L476.152 644.844L472.496 646.4L468.868 647.941L465.267 649.469L461.693 650.985L458.144 652.489L454.619 653.984L451.117 655.469L447.637 656.945L444.176 658.412L440.733 659.87L437.306 661.32L433.893 662.76L430.493 664.19L427.103 665.608L423.722 667.015L420.348 668.408L416.978 669.786L413.612 671.146L410.246 672.488L406.88 673.809L403.512 675.107L400.14 676.379L396.763 677.623L393.379 678.835L389.988 680.014L386.588 681.156L383.178 682.258L379.758 683.318L376.328 684.333L372.886 685.299L369.433 686.213L365.968 687.074L362.492 687.877L359.006 688.621L355.509 689.302L352.002 689.919L348.486 690.469L344.963 690.95L341.433 691.36L337.897 691.699L334.357 691.964L330.815 692.154L327.272 692.269L323.729 692.308L320.189 692.269L316.652 692.152L313.122 691.957L309.599 691.683L306.085 691.33L302.583 690.898L299.094 690.386L295.62 689.795L292.163 689.126L288.725 688.378L285.307 687.553L281.913 686.65L278.542 685.671L275.198 684.617L271.883 683.489L268.597 682.288L265.342 681.016L262.121 679.675L258.934 678.265L255.783 676.789L252.67 675.248L249.595 673.645L246.561 671.982L243.567 670.261L240.615 668.484L237.707 666.654L234.842 664.772L232.022 662.843L229.246 660.867L226.516 658.848L223.832 656.789L221.194 654.692L218.601 652.559L216.055 650.394L213.555 648.199L211.101 645.976L208.692 643.728L206.329 641.456L204.01 639.163L201.737 636.85L199.508 634.519L197.324 632.172L195.183 629.81L193.085 627.434L191.031 625.047L189.019 622.648L187.049 620.239L185.122 617.821L183.235 615.396L181.39 612.963L179.585 610.525L177.82 608.081L176.094 605.633L174.408 603.181L172.76 600.726L171.151 598.269L169.579 595.81L168.044 593.351L166.546 590.891L165.084 588.432L163.658 585.974L162.266 583.517L160.908 581.062L159.584 578.611L158.293 576.163L157.034 573.719L155.807 571.28L154.61 568.846L153.442 566.417L152.304 563.996L151.193 561.581L150.109 559.174L149.052 556.775L148.019 554.385L147.009 552.004L146.023 549.632L145.057 547.271L144.112 544.92L143.185 542.58L142.277 540.252L141.385 537.935L140.508 535.629L139.646 533.335L138.796 531.053L137.959 528.782L137.133 526.523L136.318 524.275L135.511 522.038L134.713 519.811L133.923 517.595L133.139 515.388L132.362 513.191L131.59 511.003L130.824 508.823L130.061 506.651L129.303 504.485L128.549 502.326L127.798 500.173L127.05 498.025L126.305 495.881L125.562 493.741L124.822 491.603L124.085 489.468L123.349 487.334L122.617 485.2L121.886 483.066L121.159 480.932L120.433 478.795L119.711 476.657L118.991 474.515L118.274 472.37L117.56 470.22L116.849 468.066L116.142 465.905Z" fill="url(#paint0_linear_75_32677)" fill-opacity="0.2"/>
</g>
<g opacity="0.15" filter="url(#filter1_f_75_32677)">
<path fill-rule="evenodd" clip-rule="evenodd" d="M717.168 511.05L719.088 509.77L721.015 508.491L722.951 507.215L724.897 505.942L726.854 504.672L728.822 503.407L730.803 502.147L732.796 500.893L734.804 499.646L736.826 498.407L738.863 497.178L740.917 495.958L742.987 494.751L745.075 493.556L747.18 492.374L749.303 491.208L751.445 490.057L753.606 488.923L755.785 487.808L757.984 486.711L760.202 485.634L762.44 484.578L764.696 483.543L766.972 482.531L769.268 481.541L771.582 480.574L773.916 479.632L776.268 478.714L778.64 477.82L781.03 476.952L783.438 476.109L785.864 475.292L788.309 474.5L790.771 473.735L793.251 472.995L795.748 472.282L798.262 471.596L800.793 470.936L803.342 470.303L805.906 469.697L808.488 469.119L811.085 468.568L813.699 468.046L816.328 467.552L818.973 467.087L821.633 466.651L824.309 466.245L826.999 465.868L829.704 465.521L832.424 465.204L835.158 464.916L837.906 464.658L840.669 464.429L843.445 464.23L846.235 464.061L849.039 463.921L851.857 463.811L854.689 463.729L857.534 463.677L860.393 463.654L863.265 463.66L866.151 463.696L869.051 463.76L871.965 463.853L874.892 463.975L877.833 464.127L880.788 464.308L883.757 464.519L886.74 464.759L889.737 465.029L892.747 465.329L895.772 465.66L898.81 466.022L901.862 466.415L904.928 466.84L908.008 467.297L911.101 467.786L914.207 468.309L917.327 468.866L920.459 469.457L923.605 470.083L926.763 470.744L929.933 471.442L933.114 472.177L936.308 472.95L939.512 473.762L942.727 474.612L945.951 475.503L949.185 476.435L952.428 477.408L955.679 478.424L958.937 479.484L962.202 480.587L965.474 481.735L968.75 482.928L972.031 484.168L975.316 485.454L978.604 486.788L981.894 488.17L985.185 489.601L988.477 491.081L991.768 492.611L995.058 494.191L998.346 495.822L1001.63 497.505L1004.91 499.238L1008.19 501.024L1011.46 502.862L1014.73 504.753L1017.99 506.696L1021.24 508.693L1024.48 510.744L1027.71 512.848L1030.93 515.007L1034.14 517.219L1037.34 519.487L1040.52 521.809L1043.69 524.186L1046.85 526.618L1049.98 529.107L1053.1 531.651L1056.2 534.251L1059.28 536.907L1062.33 539.62L1065.36 542.39L1068.37 545.217L1071.35 548.1L1074.3 551.041L1077.22 554.038L1080.11 557.092L1082.97 560.202L1085.79 563.369L1088.59 566.592L1091.34 569.87L1094.06 573.204L1096.74 576.593L1099.38 580.036L1101.98 583.534L1104.54 587.086L1107.06 590.691L1109.53 594.349L1111.96 598.06L1114.34 601.822L1116.67 605.636L1118.96 609.501L1121.2 613.416L1123.39 617.38L1125.52 621.394L1127.6 625.455L1129.63 629.565L1131.6 633.721L1133.52 637.924L1135.37 642.171L1137.17 646.464L1138.91 650.799L1140.58 655.178L1142.18 659.598L1143.72 664.059L1145.19 668.559L1146.6 673.098L1147.93 677.674L1149.19 682.285L1150.37 686.932L1151.48 691.611L1152.51 696.322L1153.46 701.064L1154.33 705.834L1155.12 710.631L1155.82 715.453L1156.45 720.3L1156.98 725.168L1157.44 730.057L1157.8 734.964L1158.07 739.887L1158.26 744.825L1158.35 749.776L1158.35 754.737L1158.27 759.707L1158.08 764.684L1157.81 769.665L1157.43 774.649L1156.97 779.633L1156.41 784.615L1155.75 789.593L1154.99 794.564L1154.14 799.528L1153.19 804.48L1152.15 809.42L1151.01 814.345L1149.77 819.253L1148.43 824.141L1147 829.008L1145.47 833.851L1143.85 838.669L1142.13 843.459L1140.32 848.219L1138.41 852.947L1136.42 857.641L1134.32 862.299L1132.14 866.92L1129.87 871.501L1127.5 876.04L1125.05 880.536L1122.51 884.987L1119.89 889.392L1117.18 893.747L1114.39 898.053L1111.51 902.308L1108.56 906.51L1105.53 910.659L1102.42 914.752L1099.23 918.79L1095.98 922.771L1092.65 926.694L1089.25 930.559L1085.79 934.366L1082.26 938.112L1078.66 941.8L1075.01 945.427L1071.3 948.993L1067.53 952.499L1063.7 955.945L1059.82 959.33L1055.89 962.655L1051.91 965.919L1047.89 969.123L1043.81 972.266L1039.7 975.35L1035.54 978.374L1031.33 981.338L1027.09 984.243L1022.81 987.089L1018.5 989.876L1014.15 992.604L1009.76 995.273L1005.34 997.883L1000.89 1000.43L996.403 1002.93L991.889 1005.36L987.345 1007.73L982.772 1010.05L978.17 1012.3L973.541 1014.49L968.884 1016.62L964.2 1018.69L959.49 1020.69L954.754 1022.62L949.992 1024.49L945.204 1026.28L940.392 1028L935.556 1029.65L930.696 1031.22L925.814 1032.71L920.908 1034.12L915.982 1035.44L911.035 1036.67L906.068 1037.81L901.083 1038.86L896.082 1039.82L891.065 1040.67L886.034 1041.42L880.991 1042.07L875.938 1042.6L870.877 1043.03L865.81 1043.35L860.74 1043.54L855.669 1043.63L850.599 1043.59L845.534 1043.43L840.475 1043.15L835.427 1042.74L830.392 1042.21L825.374 1041.55L820.375 1040.77L815.398 1039.86L810.448 1038.83L805.526 1037.67L800.637 1036.38L795.784 1034.97L790.969 1033.45L786.196 1031.8L781.468 1030.03L776.787 1028.16L772.156 1026.17L767.578 1024.07L763.055 1021.87L758.59 1019.57L754.184 1017.18L749.839 1014.69L745.557 1012.12L741.339 1009.46L737.187 1006.73L733.101 1003.92L729.083 1001.04L725.132 998.1L721.25 995.099L717.437 992.043L713.691 988.937L710.014 985.787L706.405 982.597L702.863 979.371L699.387 976.115L695.975 972.832L692.628 969.528L689.343 966.207L686.119 962.872L682.954 959.528L679.845 956.18L676.793 952.829L673.793 949.48L670.844 946.136L667.944 942.8L665.091 939.474L662.281 936.161L659.514 932.864L656.786 929.584L654.094 926.322L651.438 923.081L648.814 919.862L646.22 916.664L643.654 913.49L641.115 910.339L638.6 907.211L636.107 904.107L633.634 901.025L631.181 897.967L628.745 894.929L626.326 891.913L623.922 888.916L621.533 885.937L619.158 882.975L616.797 880.028L614.448 877.095L612.113 874.172L609.79 871.259L607.482 868.353L605.188 865.452L602.909 862.554L600.646 859.656L598.4 856.757L596.173 853.853L593.966 850.943L591.781 848.025L589.621 845.095L587.487 842.153L585.381 839.197L583.306 836.223L581.264 833.231L579.258 830.219L577.291 827.185L575.366 824.128L573.484 821.046L571.65 817.94L569.865 814.808L568.133 811.649L566.456 808.463L564.837 805.25L563.278 802.009L561.782 798.742L560.351 795.448L558.986 792.128L557.691 788.783L556.466 785.414L555.313 782.022L554.233 778.608L553.228 775.173L552.298 771.72L551.446 768.249L550.672 764.762L549.977 761.261L549.361 757.747L548.826 754.223L548.372 750.689L547.998 747.149L547.707 743.603L547.496 740.054L547.367 736.504L547.32 732.954L547.353 729.408L547.467 725.867L547.661 722.332L547.933 718.806L548.284 715.292L548.712 711.79L549.215 708.304L549.793 704.834L550.444 701.383L551.167 697.952L551.959 694.544L552.818 691.16L553.744 687.801L554.733 684.469L555.784 681.166L556.894 677.893L558.061 674.65L559.283 671.441L560.557 668.264L561.88 665.122L563.25 662.015L564.665 658.943L566.122 655.908L567.617 652.91L569.151 649.95L570.719 647.027L572.321 644.142L573.954 641.295L575.616 638.487L577.307 635.717L579.024 632.986L580.767 630.293L582.532 627.638L584.321 625.022L586.13 622.445L587.96 619.905L589.808 617.404L591.675 614.94L593.558 612.514L595.458 610.126L597.372 607.775L599.301 605.461L601.244 603.184L603.198 600.943L605.165 598.738L607.143 596.57L609.131 594.436L611.128 592.338L613.134 590.275L615.148 588.246L617.17 586.251L619.197 584.289L621.23 582.361L623.268 580.464L625.31 578.6L627.355 576.766L629.403 574.963L631.452 573.19L633.502 571.446L635.551 569.73L637.6 568.042L639.648 566.38L641.693 564.744L643.734 563.132L645.772 561.544L647.804 559.978L649.831 558.434L651.852 556.91L653.867 555.405L655.874 553.919L657.874 552.449L659.867 550.996L661.851 549.557L663.827 548.133L665.795 546.721L667.755 545.322L669.707 543.934L671.651 542.556L673.587 541.187L675.516 539.827L677.438 538.475L679.353 537.13L681.262 535.791L683.165 534.458L685.063 533.131L686.956 531.808L688.846 530.49L690.731 529.176L692.614 527.865L694.495 526.558L696.375 525.254L698.254 523.952L700.133 522.653L702.013 521.356L703.895 520.061L705.778 518.768L707.665 517.478L709.556 516.189L711.45 514.901L713.35 513.616L715.256 512.332L717.168 511.05Z" fill="url(#paint1_linear_75_32677)" fill-opacity="0.2"/>
</g>
<defs>
<filter id="filter0_f_75_32677" x="0.331055" y="0.853516" width="768.994" height="791.454" filterUnits="userSpaceOnUse" color-interpolation-filters="sRGB">
<feFlood flood-opacity="0" result="BackgroundImageFix"/>
<feBlend mode="normal" in="SourceGraphic" in2="BackgroundImageFix" result="shape"/>
<feGaussianBlur stdDeviation="50" result="effect1_foregroundBlur_75_32677"/>
</filter>
<filter id="filter1_f_75_32677" x="447.32" y="363.654" width="811.034" height="779.972" filterUnits="userSpaceOnUse" color-interpolation-filters="sRGB">
<feFlood flood-opacity="0" result="BackgroundImageFix"/>
<feBlend mode="normal" in="SourceGraphic" in2="BackgroundImageFix" result="shape"/>
<feGaussianBlur stdDeviation="50" result="effect1_foregroundBlur_75_32677"/>
</filter>
<linearGradient id="paint0_linear_75_32677" x1="2065.44" y1="-1847.33" x2="1568.09" y2="-2119.61" gradientUnits="userSpaceOnUse">
<stop stop-color="#9AB0A6"/>
<stop offset="1" stop-color="#426986"/>
</linearGradient>
<linearGradient id="paint1_linear_75_32677" x1="3503.93" y1="1770.41" x2="3631.89" y2="1211.55" gradientUnits="userSpaceOnUse">
<stop stop-color="#9AB0A6"/>
<stop offset="1" stop-color="#426986"/>
</linearGradient>
</defs>
</svg>
