<svg xmlns="http://www.w3.org/2000/svg" width="1259" height="1144" fill="none" viewBox="0 0 1259 1144"><path fill="#4285f4" fill-rule="evenodd" stroke="#4285f4" stroke-width="3" d="M745.04 261.588c-36.938 1.483-45.66 6.744-40.487 24.417.329 1.121-.206 1.857-2.488 3.433-13.842 9.553-15.296 24.976-3.467 36.758 11.3 11.253 33.618 10.614 37.491-1.075 1.702-5.139 6.396.929 4.825 6.236-1.629 5.5-13.445 14.762-19.733 15.467-10.602 1.189-33.531-13.5-39.444-25.268-3.85-7.666-8.715-26.183-8.715-33.173v-3.287l7.098-4.215c9.168-5.447 10.537-6.534 9.998-7.938-1.491-3.866-17.096 5.117-17.096 9.843 0 .887-1.782 2.527-5.367 4.936-16.324 10.978-24.786 19.57-36.511 37.077l-6.324 9.438-9.31.449c-19.937.957-40.129 6.302-40.129 10.624 0 8.09 16.969 26.928 27.784 30.842 8.916 3.228 7.515 3.486 14.458-2.665 17.68-15.666 24.258-18.836 30.679-14.78 7.937 5.014 2.375 10.794-28.988 30.138l-5.582 3.442-5.389-4.304c-2.963-2.365-6.014-4.468-6.784-4.666-3.556-.927-9.064 9.502-9.155 17.33l-.056 5.026-3.227 2.215c-57.188 39.291-80.314 69.429-108.348 141.19-14.422 36.923-22.396 62.207-24.515 77.74l-.866 6.353-4.321 1.432c-8.219 2.723-17.358 9.426-19.449 14.262-1.798 4.156-2.355 3.333-2.355-3.477 0-12.821-5.242-18.373-17.338-18.373-14.584 0-29.037 6.286-40.831 17.756l-5.195 5.051-2.746-1.231c-12.005-5.38-35.107 6.194-47.163 23.625l-2.483 3.593-4.965.32c-10.249.661-13.929 3.661-21.804 17.785-12.475 22.379-15.913 37.331-9.596 41.739 2.299 1.604.963 1.861-5.103.977-3.207-.467-7.932-.644-10.799-.4-5.687.477-5.831.333-3.338-3.327 6.911-10.142 6.673-25.973-.427-28.431-9.934-3.44-26.264 10.833-26.264 22.955 0 6.895 4.638 9.939 15.154 9.939 5.491 0 6.494.692 3.724 2.571-6.507 4.414-10.773 4.765-15.09 1.242-4.217-3.442-7.135-4.499-13.336-4.826-2.937-.154-7.22-.49-9.517-.742-3.132-.343-4.856-.177-6.885.667-1.984.827-3.748 1.008-6.625.683-3.151-.353-4.567-.157-7.211 1.008-2.796 1.231-3.724 1.342-6.176.725-2.235-.559-4.057-.473-8.068.385-13.299 2.847-12.828 2.865-20.354-.776-5.959-2.885-8.465-2.92-17.025-.248-3.618 1.13-7.604 2.056-8.86 2.061-2.644.008-11.435 2.095-10.933 2.595.186.185 2.457-.146 5.045-.736 2.59-.591 6.134-1.234 7.876-1.433 1.745-.197 5.64-1.145 8.656-2.104 7.38-2.348 9.069-2.239 15.529.997 6.377 3.194 6.894 3.236 15.414 1.315 4.679-1.054 7.757-1.346 11.448-1.085 4.082.289 5.644.095 8.167-1.017 2.44-1.074 3.911-1.276 6.752-.922 2.614.325 4.674.113 7.351-.76 3.18-1.035 4.283-1.095 7.63-.405 2.153.442 5.921.807 8.374.811 4.397.007 11.73 2.489 11.73 3.973 0 .327 1.251 1.295 2.783 2.153 3.933 2.201 8.942.893 15.047-3.924l2.881-2.275 8.514-.075c8.551-.075 15.034.818 26.174 3.608 31.566 7.904 47.961 8.598 71.958 3.041 23.53-5.446 43.827-5.124 67.579 1.075 19.961 5.21 24.429 6.231 31.587 7.226 14.104 1.96 23.386 1.012 35.945-3.674 24.931-9.297 42.553-10.336 77.889-4.591 51.342 8.346 89.554 6.611 98.935-4.494 6.285-7.438-3.48-23.217-22.425-36.234-16.635-11.431-30.069-15.135-45.278-12.492l-6.162 1.072-3.879-3.317c-18.213-15.582-49.693-25.487-66.922-21.057-8.15 2.095-14.784 5.906-21.882 12.568-2.508 2.352-2.539 2.361-6.232 1.614-19.904-4.019-29.432-.217-38.709 15.449-16.037 27.085-24.877 30.281-42.448 15.347l-2.657-2.257 3.893-4.821c13.707-16.974 12.775-30.926-1.98-29.68-16.903 1.431-19.495 16.077-5.597 31.619 2.215 2.478 2.279 2.688 1.154 3.793-23.786 23.389-63.864 28.988-72.746 10.166-2.082-4.408-1.887-5.334 1.644-7.812 3.398-2.385 4.08-4.286 1.541-4.286-2.293 0-4.441 1.749-5.3 4.313-.828 2.48-1.534 2.935-15.283 9.836-45.023 22.605-59.252 16.641-42.214-17.688 11.908-23.986 15.097-27.476 26.172-28.628 4.843-.504 5.018-.274 2.901 3.858-3.667 7.157-3.245 16.266.947 20.442 10.707 10.663 40.851-.44 30.706-11.311-3.902-4.182-15.034-10.128-22.84-12.202-5.373-1.425-5.393-1.47-2.526-5.623 11.592-16.778 34.994-28.314 45.842-22.596l2.633 1.386-1.436 1.822c-9.939 12.582-7.631 26.693 4.372 26.724 13.23.034 13.822-15.672 1.008-26.658l-2.548-2.184 1.822-2.327c12.841-16.409 44.961-26.053 55.128-16.555 5.298 4.947 6.252 17.364 2.148 27.905-1.427 3.667 1.088.352 3.143-4.142 4.348-9.512 8.738-14.045 17.609-18.177 6.676-3.11 8.705-3.313 8.709-.871.007 3.4 1.294 6.815 3.28 8.703 4.015 3.817 19.24 9.487 25.47 9.487 1.45 0 3.148.747 4.91 2.162 17.997 14.452 40.273 13.068 51.262-3.183 6.192-9.158-3.829-19.47-21.48-22.107-3.964-.592-4.084-.701-6.299-5.648-8.604-19.224-41.181-17.951-41.216 1.612l-.005 2.148-7.098 1.393c-8.731 1.715-8.387 2.082-6.782-7.235 3.302-19.163 14.28-51.511 31.778-93.631 15.629-37.627 33.828-65.914 54.797-85.179 3.922-3.603 7.635-7.042 8.25-7.641 5.881-5.747 39.323-30.98 41.057-30.98.273 0 1.587 1.638 2.923 3.641 1.334 2.002 3.22 4.385 4.19 5.294 2.532 2.367 2.248 2.904-2.697 5.102-24.054 10.698-42.231 38.751-53.022 81.829-11.822 47.2-6.716 81.018 17.858 118.247 10.924 16.55 24.505 24.839 38.647 23.588 10.353-.917 21.819 4.233 29.942 13.449 2.73 3.094 2.768 2.575-.684 9.354-5.38 10.566-4.438 16.541 2.495 15.878 7.59-.725 9.55-7.593 4.843-16.963l-2.473-4.921 1.436-2.009c9.351-13.075 28.93-16.654 34.321-6.271 1.199 2.306 1.285 2.226-4.123 3.773-14.051 4.017-18.031 10.781-8.698 14.782 9.47 4.056 16.239-.548 15.866-10.796-.213-5.831-.066-5.889 13.923-5.502 11.221.312 16.983 1.607 22.518 5.062 9.925 6.196 16.493 16.267 16.568 25.405l.04 4.788-4.248.864c-10.682 2.175-19.391 8.76-15.334 11.59 4.981 3.474 15.119-1.168 18.936-8.672l1.709-3.358h6.603c13.507 0 20.337 3.02 24.189 10.69 3.809 7.586 2.733 21.873-2.518 33.418-3.232 7.104-3.361 7.18-8.75 5.159-6.081-2.279-9.854-.51-9.854 4.622 0 6.192 10.589 5.977 13.954-.285.841-1.567.765-1.578 13.982 1.848 10.607 2.748 15.083 3.035 21.478 1.382 5.954-1.539 8.542-.977 15.893 3.452 7.912 4.768 11.148 5.078 18.852 1.804 2.654-1.127 5.917-2.058 7.25-2.069 2.138-.02 6.39-1.05 19.043-4.622 7.033-1.985 9.732-1.587 16.892 2.493 10.567 6.022 16.903 6.256 36.771 1.351 16.389-4.043 18.486-3.844 21.278 2.016 2.02 4.237 8.478 5.405 14.045 2.538 1.129-.582 3.537-1.252 5.353-1.488 1.818-.239 5.639-1.371 8.496-2.518 6.902-2.77 16.206-3.117 18.812-.701.887.825 2.432 1.703 3.431 1.95.999.245 3.009 1.665 4.47 3.154 3.344 3.413 5.659 3.517 11.567.522 2.823-1.432 5.86-2.35 8.809-2.661l4.499-.476-4.172-.099c-3.467-.082-5.032.312-9.233 2.317-6.692 3.194-8.441 3.15-11.213-.288-1.198-1.485-2.921-2.887-3.824-3.112s-2.821-1.214-4.259-2.193c-3.744-2.551-12.005-2.126-19.695 1.012-2.921 1.192-6.037 2.165-6.925 2.165-.89-.003-4.117.786-7.175 1.755-7.133 2.259-10.227 1.567-12.471-2.79-3.021-5.864-5.04-6.017-22.827-1.704-19.351 4.69-24.729 4.458-35.204-1.521-7.418-4.235-11.264-4.653-19.156-2.089-6.838 2.222-15.54 4.282-18.119 4.288-1.27.005-4.022.809-6.117 1.791-6.536 3.059-10.704 3.019-16.226-.159-11.053-6.362-12.36-6.665-20.031-4.669-6.174 1.609-19.75-.387-30.33-4.456l-1.84-.707 2.681-5.432c3.398-6.881 5.5-15.745 5.5-23.19 0-16.459-7.884-23.247-27.182-23.404l-6.751-.055v-4.017c0-20.54-24.543-35.436-51.71-31.386-3.105.462-3.638.369-3.98-.69-3.735-11.576-20.962-10.411-34.037 2.301l-3.911 3.804-4.944-4.757c-9.176-8.822-14.995-11.244-27.797-11.567-17.062-.433-27.412-6.366-37.324-21.395a490 490 0 0 0-4.021-6.017c-5.04-7.332-16.138-32.284-18.317-41.183-10.007-40.89 8.132-111.01 36.001-139.172 8.012-8.097 20.625-16.262 24.851-16.09.87.036 2.67.146 4.004.246 1.773.13 2.424-.1 2.424-.856 0-.749-.828-1.054-2.994-1.11-3.398-.084-5.429-1.863-9.679-8.477l-2.391-3.724 1.645-1.245c.905-.683 3.3-2.266 5.322-3.517a1673 1673 0 0 0 7.249-4.514c4.723-2.964 4.503-3.03 10.138 3.06 5.52 5.968 5.655 6.355 3.001 8.603-2.759 2.339-7.367 8.128-6.865 8.627 1.938 1.93 11.605-5.106 11.361-8.269-.155-2.018.014-2.21 2.118-2.412 2.812-.269 4.651 1.53 13.64 13.327 15.716 20.624 21.835 25.553 25.124 20.237 2.546-4.116 4.807-19.633 6.549-44.954l.182-2.644 6.579-2.595c33.875-13.367 59.971-29.536 73.54-45.569 20.934-24.735 41.226-72.928 32.93-78.206-5.138-3.272-20.33-4.627-42.069-3.756Zm36.793 2.564c6.084 1.943 6.43 2.443 5.935 8.548-.528 6.547-2.941 14.468-8.658 28.433-16.989 41.493-44.124 65.457-98.695 87.159-6.288 2.503-6.008 2.447-6.008 1.163 0-1.753-1.061-1.766-8.392-.106-17.433 3.946-26.498 7.14-26.105 9.2.548 2.871 10.942 1.282 26.034-3.979 3.536-1.231 6.636-2.034 6.889-1.779 1.96 1.949-4.179 44.079-6.802 46.691-3.074 3.064-10.607-4.029-25.706-24.204-6.687-8.935-8.498-10.471-12.093-10.252-2.801.172-3.243-.027-4.879-2.193-.99-1.311-3.344-3.983-5.233-5.938-3.999-4.14-4.024-4.051 2.128-7.692 15.212-9.001 30.682-20.416 32.016-23.623 2.212-5.321-6.035-11.627-12.161-9.298-4.982 1.895-14.881 9.158-24.784 18.182-2.219 2.022-4.399 3.545-4.847 3.382-.446-.162-3.764-1.34-7.373-2.618-7.298-2.581-8.423-3.512-17.798-14.715-9.439-11.28-11.004-15.358-6.707-17.502 9.264-4.622 42.396-9.994 44.156-7.158.264.427-1.982 4.892-4.99 9.925-7.563 12.655-13.547 23.957-12.981 24.521.775.772 19.227-18.594 21.759-22.836 3.223-5.403 3.709-9.764 1.214-10.896-2.541-1.154-2.466-1.375 3.593-10.621 10.54-16.088 20.983-26.809 36.011-36.975 4.867-3.293 4.973-3.291 4.973.069 0 5.926 3.873 21.888 7.287 30.025 7.286 17.376 34.734 33.046 47.005 26.835 12.808-6.483 18.588-15.814 13.66-22.052l-1.478-1.872 2.222-1.634c8.807-6.47 10.054-22.653 2.379-30.831-7.854-8.369-22.374-10.239-34.21-4.406-3.966 1.952-4.514 1.249-4.874-6.236-.453-9.425 1.634-11.149 16.83-13.919 17.52-3.192 51.772-3.643 60.683-.798Zm-92.885 9.331c0 1.038-13.656 9.794-14.29 9.162-1.408-1.399 1.895-4.622 8.404-8.205 3.827-2.105 5.886-2.441 5.886-.957Zm44.422 10.72c15.809 5.891 19.8 26.973 6.769 35.772l-2.37 1.603-.437-2.982c-1.019-6.945-4.184-10.413-6.155-6.746-1.043 1.941-.268 4.007 2.63 7.02 5.782 6.008-3.264 3.849-9.945-2.376-6.296-5.867-17.6-23.8-17.6-27.923 0-4.697 18.306-7.648 27.108-4.368Zm-24.92 11.634c7.551 15.721 18.064 27.021 25.142 27.021 4.292 0 .078 6.355-5.915 8.924-18.78 8.046-43.225-13.047-34.889-30.103 2.004-4.1 9.805-12.637 11.506-12.59.51.015 2.381 3.052 4.156 6.748Zm26.434 17.193c2.546 5.031 1.733 7.947-1.305 4.682-1.119-1.2-1.696-2.633-1.696-4.2 0-2.951 1.62-3.212 3.001-.482Zm-107.72 24.006c4.086 2.851-.87 11.501-14 24.428-7.442 7.328-6.556 4.648 4.67-14.121 7.486-12.515 6.973-11.95 9.33-10.307Zm-20.032 51.106c6.167 4.863 6.414 4.067-3.063 9.925-11.603 7.171-13.015 6.775-10.039-2.816 3.531-11.377 5.991-12.713 13.102-7.109Zm66.187 1.538c.599.966-.93 1.817-6.876 3.833-15.012 5.087-25.277 7.096-25.277 4.947 0-2.495 30.83-10.913 32.153-8.78Zm-47.879 18.694c.388 1.481-2.1 3.995-5.886 5.944-2.943 1.517-3.121.748-.568-2.46 3.657-4.6 5.85-5.782 6.454-3.484Zm-16.819 10.352c0 .38-.468.69-1.039.69-.572 0-1.039-.31-1.039-.69s.467-.69 1.039-.69 1.039.31 1.039.69ZM501.669 615.257c8.518 4.176 14.939 15.984 7.806 14.355-1.647-.376-10.629-.741-19.959-.811-18.941-.142-18.071.123-16.666-5.073 2.606-9.64 17.504-14.019 28.819-8.471Zm-1.034 14.476c13.185 1.017 12.955.931 13.47 5.109 1.331 10.807-4.688 17.575-16.988 19.112-9.71 1.213-12.442-.456-19.194-11.718-6.345-10.582-6.039-12.279 2.273-12.637 11.135-.48 12.584-.471 20.439.134Zm-28.058 2.971c.932 4.297 6.512 13.9 10.644 18.318 2.775 2.967 2.732 3.06-1.152 2.503-12.575-1.808-23.439-7.626-25.117-13.453-1.753-6.088-1.442-6.442 7.249-8.285 7.828-1.662 7.817-1.665 8.376.917Zm53.637 1.693c17.757 6.011 20.485 14.954 7.555 24.78-12.289 9.339-27.361 9.176-40.693-.444-3.898-2.812-3.676-3.172 2.277-3.672 13.456-1.134 19.433-6.539 19.435-17.58v-5.743l3.116.451c1.714.248 5.453 1.243 8.31 2.208Zm-155.622 20.505c10.685 10.197 9.504 23.864-2.057 23.829-10.707-.033-12.99-10.487-5.089-23.279 2.71-4.383 3.098-4.414 7.146-.55Zm302.703 2.171c1.635 4.248-.475 11.313-4.026 13.47-6.339 3.851-17.975-2.383-13.727-7.354 3.493-4.089 16.77-8.663 17.753-6.116Zm-35.953 9.058c4.248 8.356 2.508 14.936-4.188 15.831-5.821.776-6.789-4.825-2.352-13.64 3.757-7.47 3.844-7.498 6.54-2.191Zm-82.389 3.241c15.017 3.768 30.067 11.174 40.624 19.984 3.045 2.54 2.963 2.746-1.68 4.245-16.49 5.322-33.058 18.035-33.058 25.365 0 10.393 23.133 10.895 38.36.831 9.635-6.371 11.058-14.419 4.144-23.438-1.374-1.79-2.226-3.501-1.898-3.8.757-.691 10.416-2.093 14.429-2.093 25.548 0 65.908 33.818 57.168 47.901-6.963 11.218-52.838 13.088-102.162 4.162-28.844-5.221-51.245-3.658-75.008 5.233-16.002 5.986-29.281 6.078-51.371.36l-15.926-4.12c-24.913-6.444-40.964-6.557-69.943-.496-22.956 4.802-33.391 4.523-61.376-1.638-14.076-3.096-15.081-3.744-7.526-4.829 8.32-1.196 22.105-6.539 38.263-14.828l10.584-5.431 1.025 2.444c.564 1.347 1.026 2.657 1.026 2.914 0 1.297 6.11 6.527 9.785 8.375 15.305 7.695 47.718-1.359 62.874-17.562 2.191-2.343 2.808-2.275 6.392.714 5.959 4.971 13.41 8.532 17.833 8.524 7.819-.018 11.754-4.023 26.766-27.24 8.044-12.438 18.175-16.455 33.143-13.139 6.195 1.373 6.09 1.017 2.051 7.014-10.027 14.876-12.695 31.671-6.161 38.769l2.33 2.531h6.805c14.095 0 30.808-12.29 30.808-22.657 0-8.13-11.484-19.222-24.006-23.188-4.223-1.337-4.205-1.616.36-5.73 12.023-10.837 26.813-13.83 45.345-9.177Zm-131.086 7.327c9.129 2.525 6.594 16.157-5.568 29.952-2.686 3.046-2.184 3.203-6.037-1.874-11.088-14.609-9.526-25.792 3.913-28.016 5.169-.853 4.84-.851 7.692-.062Zm-103.487 2.034c26.067 8.139 30.801 22.125 8.647 25.546-16.659 2.576-24.289-7.756-17.17-23.245 1.927-4.195 2.211-4.271 8.523-2.301Zm189.681 6.813c13.685 5.619 22.385 14.332 22.385 22.416 0 11.461-26.129 26.185-36.654 20.652-8.733-4.593-5.981-25.091 5.52-41.079 3.338-4.64 2.668-4.487 8.749-1.989Zm216.283 6.333c0 4.549-9.105 11.282-14.691 10.866-8.045-.597-2.577-6.985 8.805-10.285 4.971-1.443 5.886-1.534 5.886-.581Zm-124.077 4.434c6.986 9.237 5.854 16.561-3.514 22.748-15.704 10.374-39.734 9.061-36.942-2.021 1.48-5.877 16.508-16.739 30.191-21.819 6.931-2.575 7.541-2.511 10.265 1.092Zm-343.032 10.272c5.082 5.062 3.431 19.085-3.236 27.505l-2.048 2.586h-6.048c-11.424 0-16.005-2.79-15.989-9.737.026-12.273 20.285-27.361 27.321-20.354Zm85.548 3.833c0 .351-.815 1.278-1.814 2.058-2.499 1.958-3.766.961-1.378-1.086 1.969-1.686 3.192-2.06 3.192-.972Zm403.186 30.155c4.231 1.627 4.488 2.04 2.568 4.114-4.512 4.872-11.729 4.534-11.729-.553 0-3.985 4.012-5.544 9.161-3.561Z" clip-rule="evenodd"/><path fill="#8ab4f8" fill-rule="evenodd" d="M869.015 129.843c-.347.419-.383 1.924-.209 6.395.561 13.423-2.481 19.124-11.468 21.431-1.327.347-2.659.873-2.971 1.189-.525.525-.49.592.107 1.082.383.281 1.327.49 2.098.49 1.679.036 5.032 1.082 6.711 2.098 2.272 1.434 3.844 6.43 4.685 14.963.245 2.236.562 4.369.735 4.686.419.77 2.169.837 2.761.107.21-.281.7-3.078 1.083-6.186 1.015-8.738 2.097-12.586 4.057-14.332 1.189-1.082 4.404-2.307 7.063-2.726 1.434-.209 2.833-.561 3.078-.77.592-.454.592-1.817.035-2.307-.245-.174-2.414-.592-4.823-.909-8.88-1.224-9.299-1.852-9.789-15.663-.174-4.997-.454-8.916-.699-9.334-.454-.873-1.817-.98-2.445-.21zm1.924 22.864c.806 1.818 2.062 2.971 4.16 3.915l1.745.771-.873.663c-2.934 2.307-4.333 4.44-5.241 8.074-.455 1.924-.7 1.818-1.506-.663-.837-2.623-2.516-4.93-4.266-5.941-.837-.49-1.537-.944-1.537-1.016 0-.035.838-.734 1.889-1.536 1.082-.806 2.48-2.307 3.251-3.532.735-1.153 1.434-2.097 1.536-2.097s.49.628.837 1.362zm15.204-21.359c-2.026 2.133-3.741 4.997-4.685 7.901-1.327 3.915 1.225 2.236 5.068-3.358 2.588-3.777 3.323-5.384 2.726-6.084-.664-.806-1.082-.592-3.113 1.537zm-38.697 4.859c-.244.071-.454.316-.454.49 0 .383 7.794 7.972 9.054 8.773 2.272 1.537 2.062.174-.561-3.496-3.532-4.93-5.91-6.64-8.039-5.767m91.276 35.762c-1.327.837-6.431 7.375-6.431 8.181 0 1.189 5.629-3.425 7.34-6.048 1.714-2.552 1.291-3.531-.909-2.133m-34.328.071c-.699.7-.454 1.608.77 3.006 1.47 1.608 6.048 4.824 6.396 4.476.383-.383-.806-2.307-2.833-4.578-2.235-2.481-3.741-3.496-4.333-2.904m15.694.771c-.245.28-.663 2.133-.944 4.124-1.046 7.655-2.659 10.488-7.411 12.969-2.062 1.082-2.445 1.469-2.658 2.413-.245 1.261-.107 1.399 2.235 2.236 6.013 2.236 6.396 2.552 6.992 5.732.21 1.046.455 4.44.593 7.517.107 3.078.347 5.875.525 6.186.455.909 1.924.806 2.481-.173.28-.419.699-2.205.908-3.915 1.016-7.339 2.517-11.642 4.65-13.214 1.47-1.046 2.69-1.536 5.487-2.097 2.445-.49 3.286-1.189 2.623-2.272-.245-.383-1.016-.663-2.271-.806-2.624-.28-5.558-1.189-6.993-2.133-1.923-1.292-2.342-2.623-2.97-9.406-.316-3.358-.699-6.431-.873-6.885-.347-.873-1.746-1.047-2.378-.281zm1.327 14.122c.526 2.062 2.027 3.95 4.089 5.175l1.536.909-1.745 1.362c-1.225.945-1.991 1.96-2.69 3.461-.526 1.153-1.083 2.097-1.19 2.097-.138 0-.418-.734-.699-1.643-.735-2.659-2.587-4.333-6.083-5.522-.664-.245-.664-.281.173-.806 1.817-1.19 4.124-3.635 4.93-5.14.455-.873.909-1.572 1.047-1.572.107 0 .383.77.628 1.679zm-38.068-13.392c1.117 2.904 4.511 6.921 5.731 6.747 1.889-.28.628-2.797-2.868-5.767-2.445-2.062-3.389-2.414-2.868-.98zm-29.608 2.205c-1.118.944-2.623 2.378-3.358 3.18-2.235 2.48-2.868 4.93-1.291 4.93.77 0 3.986-3.358 5.838-6.12 2.69-4.021 2.236-4.823-1.189-1.99m77.853 29.714c0 .174 1.153 1.714 2.587 3.425 2.904 3.46 4.476 4.649 5.278 3.986.28-.245.525-.628.525-.873 0-.806-1.817-2.69-4.649-4.788-2.552-1.888-3.741-2.445-3.741-1.746zm-22.9 2.904c-3.706 3.496-5.104 6.573-3.287 7.13 1.015.351 1.608-.348 4.022-4.65 1.434-2.587 1.888-3.705 1.607-3.986-.245-.245-.944.174-2.342 1.506" clip-rule="evenodd"/><g filter="url(#a)" opacity=".15"><path fill="url(#b)" fill-opacity=".2" fill-rule="evenodd" d="m116.142 465.905-.704-2.167-.7-2.174-.695-2.181-.69-2.19-.684-2.2-.676-2.209-.669-2.219-.658-2.23-.649-2.242-.636-2.253-.624-2.266-.61-2.278-.594-2.291-.577-2.304-.56-2.317-.54-2.33-.521-2.344-.499-2.357-.477-2.37-.454-2.384-.429-2.396-.405-2.409-.38-2.422-.352-2.434-.326-2.447-.299-2.459-.27-2.47-.243-2.482-.213-2.493-.185-2.504-.156-2.515-.126-2.525-.097-2.536-.067-2.545-.038-2.555-.008-2.565.022-2.574.052-2.583.082-2.591.112-2.601.143-2.608.174-2.617.205-2.624.236-2.632.269-2.639.3-2.645.332-2.653.364-2.658.397-2.665.429-2.67.461-2.677.493-2.681.525-2.688.557-2.693.589-2.698.62-2.703.653-2.709.684-2.713.715-2.719.747-2.725.778-2.729.81-2.735.841-2.74.872-2.745.904-2.751.935-2.755.967-2.762.999-2.766 1.031-2.772 1.063-2.777 1.096-2.782 1.128-2.787 1.162-2.792 1.195-2.797 1.229-2.801 1.264-2.806 1.298-2.81 1.333-2.814 1.369-2.818 1.406-2.82 1.442-2.823 1.479-2.826 1.518-2.828 1.556-2.829 1.595-2.829 1.635-2.83 1.675-2.829 1.715-2.828 1.758-2.826 1.799-2.823 1.843-2.82 1.885-2.815 1.929-2.81 1.973-2.803 2.019-2.797 2.063-2.788 2.109-2.78 2.155-2.769 2.202-2.759 2.248-2.747 2.295-2.734 2.343-2.721 2.391-2.706 2.438-2.691 2.486-2.675 2.534-2.657 2.583-2.639 2.631-2.619 2.68-2.6 2.728-2.579 2.777-2.558 2.825-2.534 2.875-2.511 2.922-2.487 2.972-2.461 3.02-2.434 3.069-2.407 3.117-2.379 3.166-2.348 3.214-2.318 3.263-2.286 3.31-2.252 3.359-2.216 3.407-2.18 3.454-2.143 3.502-2.102 3.548-2.063 3.595-2.02 3.642-1.976 3.687-1.933 3.732-1.887 3.777-1.84 3.821-1.793 3.864-1.743 3.908-1.694 3.95-1.643 3.991-1.591 4.032-1.539 4.073-1.484 4.111-1.43 4.151-1.375 4.188-1.318 4.226-1.26 4.262-1.202 4.297-1.143 4.332-1.082 4.366-1.021 4.398-.958 4.431-.895 4.461-.831 4.49-.765 4.519-.698 4.547-.63 4.572-.561 4.598-.491 4.622-.42 4.643-.347 4.665-.273 4.684-.197 4.701-.121 4.718-.044 4.733.036 4.745.116 4.757.196 4.766.279 4.773.362 4.78.446 4.783.53 4.785.616 4.785.702 4.783.79 4.78.877 4.773.965 4.765 1.053 4.755 1.143 4.742 1.233 4.729 1.322 4.711 1.413 4.693 1.503 4.672 1.593 4.649 1.684 4.623 1.774 4.596 1.865 4.566 1.955 4.535 2.045 4.5 2.135 4.464 2.224 4.426 2.312 4.386 2.401 4.343 2.488 4.299 2.575 4.253 2.661 4.204 2.745 4.154 2.83 4.102 2.913 4.048 2.994 3.992 3.075 3.936 3.155 3.876 3.233 3.816 3.309 3.753 3.385 3.69 3.459 3.625 3.531 3.559 3.602 3.491 3.672 3.422 3.739 3.352 3.805 3.281 3.868 3.21 3.931 3.137 3.992 3.065 4.049 2.991 4.106 2.917 4.159 2.844 4.213 2.769 4.262 2.695 4.31 2.621 4.356 2.547 4.401 2.474 4.442 2.4 4.483 2.327 4.521 2.255 4.557 2.182 4.591 2.111 4.625 2.041 4.655 1.97 4.684 1.9 4.712 1.831 4.739 1.763 4.762 1.694 4.787 1.628 4.808 1.561 4.828 1.495 4.848 1.429 4.866 1.363 4.884 1.299 4.899 1.234 4.914 1.169 4.929 1.105 4.942 1.04 4.954.975 4.966.91 4.977.843 4.987.777 4.996.709 5.005.639 5.012.569 5.02.497 5.025.423 5.031.346 5.035.269 5.037.189 5.04.106 5.04.022 5.04-.065 5.037-.155 5.033-.246 5.027-.34 5.019-.437 5.01-.537 4.998-.637 4.984-.741 4.967-.846 4.947-.954 4.926-1.063 4.902-1.173 4.873-1.286 4.844-1.399 4.81-1.514 4.773-1.629 4.734-1.744 4.691-1.86 4.645-1.975 4.596-2.09 4.544-2.204 4.489-2.317 4.43-2.429 4.37-2.538 4.305-2.646 4.239-2.751 4.169-2.854 4.098-2.952 4.025-3.048 3.948-3.14 3.872-3.228 3.793-3.311 3.713-3.391 3.632-3.467 3.549-3.537 3.467-3.604 3.384-3.665 3.301-3.723 3.217-3.775 3.135-3.822 3.052-3.866 2.97-3.903 2.889-3.937 2.81-3.966 2.732-3.991 2.654-4.01 2.58-4.026 2.506-4.038 2.436-4.045 2.366-4.048 2.301-4.048 2.236-4.044 2.175-4.038 2.116-4.026 2.061-4.014 2.008-3.997 1.957-3.98 1.911-3.958 1.866-3.937 1.825-3.911 1.786-3.886 1.751-3.86 1.718-3.831 1.688-3.802 1.66-3.774 1.635-3.744 1.612-3.714 1.592-3.686 1.573-3.656 1.556-3.628 1.541-3.601 1.528-3.574 1.516-3.549 1.504-3.525 1.495-3.502 1.485-3.48 1.476-3.461 1.467-3.443 1.458-3.427 1.45-3.413 1.44-3.4 1.43-3.39 1.418-3.381 1.407-3.374 1.393-3.37 1.378-3.366 1.36-3.366 1.342-3.366 1.321-3.368 1.298-3.372 1.272-3.377 1.244-3.384 1.212-3.391 1.179-3.4 1.142-3.41 1.102-3.42 1.06-3.43 1.015-3.442.966-3.453.914-3.465.861-3.476.803-3.486.744-3.497.681-3.507.617-3.516.55-3.523.481-3.53.41-3.536.339-3.54.265-3.542.19-3.543.115-3.543.039-3.54-.039-3.537-.117-3.53-.195-3.523-.274-3.514-.353-3.502-.432-3.489-.512-3.474-.591-3.457-.669-3.438-.748-3.418-.825-3.394-.903-3.371-.979-3.344-1.054-3.315-1.128-3.286-1.201-3.255-1.272-3.221-1.341-3.187-1.41-3.151-1.476-3.113-1.541-3.075-1.603-3.034-1.663-2.994-1.721-2.952-1.777-2.908-1.83-2.865-1.882-2.82-1.929-2.776-1.976-2.73-2.019-2.684-2.059-2.638-2.097-2.593-2.133-2.546-2.165-2.5-2.195-2.454-2.223-2.409-2.248-2.363-2.272-2.319-2.293-2.273-2.313-2.229-2.331-2.184-2.347-2.141-2.362-2.098-2.376-2.054-2.387-2.012-2.399-1.97-2.409-1.927-2.418-1.887-2.425-1.845-2.433-1.805-2.438-1.765-2.444-1.726-2.448-1.686-2.452-1.648-2.455-1.609-2.457-1.572-2.459-1.535-2.459-1.498-2.46-1.462-2.459-1.426-2.458-1.392-2.457-1.358-2.455-1.324-2.451-1.291-2.448-1.259-2.444-1.227-2.439-1.197-2.434-1.168-2.429-1.138-2.421-1.111-2.415-1.084-2.407-1.057-2.399-1.033-2.39-1.01-2.381-.986-2.372-.966-2.361-.945-2.351-.927-2.34-.908-2.328-.892-2.317-.877-2.306-.862-2.294-.85-2.282-.837-2.271-.826-2.259-.815-2.248-.807-2.237-.798-2.227-.79-2.216-.784-2.207-.777-2.197-.772-2.188-.766-2.18-.763-2.172-.758-2.166-.754-2.159-.751-2.153-.748-2.148-.745-2.144-.743-2.14-.74-2.138-.737-2.135-.736-2.134-.732-2.134-.731-2.134-.727-2.134-.726-2.137-.722-2.138-.72-2.142-.717-2.145-.714-2.15-.711-2.154z" clip-rule="evenodd"/></g><g filter="url(#c)" opacity=".15"><path fill="url(#d)" fill-opacity=".2" fill-rule="evenodd" d="m717.168 511.05 1.92-1.28 1.927-1.279 1.936-1.276 1.946-1.273 1.957-1.27 1.968-1.265 1.981-1.26 1.993-1.254 2.008-1.247 2.022-1.239 2.037-1.229 2.054-1.22 2.07-1.207 2.088-1.195 2.105-1.182 2.123-1.166 2.142-1.151 2.161-1.134 2.179-1.115 2.199-1.097 2.218-1.077 2.238-1.056 2.256-1.035 2.276-1.012 2.296-.99 2.314-.967 2.334-.942 2.352-.918 2.372-.894 2.39-.868 2.408-.843 2.426-.817 2.445-.792 2.462-.765 2.48-.74 2.497-.713 2.514-.686 2.531-.66 2.549-.633 2.564-.606 2.582-.578 2.597-.551 2.614-.522 2.629-.494 2.645-.465 2.66-.436 2.676-.406 2.69-.377 2.705-.347 2.72-.317 2.734-.288 2.748-.258 2.763-.229 2.776-.199 2.79-.169 2.804-.14 2.818-.11 2.832-.082 2.845-.052 2.859-.023 2.872.006 2.886.036 2.9.064 2.914.093 2.927.122 2.941.152 2.955.181 2.969.211 2.983.24 2.997.27 3.01.3 3.025.331 3.038.362 3.052.393 3.066.425 3.08.457 3.093.489 3.106.523 3.12.557 3.132.591 3.146.626 3.158.661 3.17.698 3.181.735 3.194.773 3.204.812 3.215.85 3.224.891 3.234.932 3.243.973 3.251 1.016 3.258 1.06 3.265 1.103 3.272 1.148 3.276 1.193 3.281 1.24 3.285 1.286 3.288 1.334 3.29 1.382 3.291 1.431 3.292 1.48 3.291 1.53 3.29 1.58 3.288 1.631 3.284 1.683 3.28 1.733 3.28 1.786 3.27 1.838 3.27 1.891 3.26 1.943 3.25 1.997 3.24 2.051 3.23 2.104 3.22 2.159 3.21 2.212 3.2 2.268 3.18 2.322 3.17 2.377 3.16 2.432 3.13 2.489 3.12 2.544 3.1 2.6 3.08 2.656 3.05 2.713 3.03 2.77 3.01 2.827 2.98 2.883 2.95 2.941 2.92 2.997 2.89 3.054 2.86 3.11 2.82 3.167 2.8 3.223 2.75 3.278 2.72 3.334 2.68 3.389 2.64 3.443 2.6 3.498 2.56 3.552 2.52 3.605 2.47 3.658 2.43 3.711 2.38 3.762 2.33 3.814 2.29 3.865 2.24 3.915 2.19 3.964 2.13 4.014 2.08 4.061 2.03 4.11 1.97 4.156 1.92 4.203 1.85 4.247 1.8 4.293 1.74 4.335 1.67 4.379 1.6 4.42 1.54 4.461 1.47 4.5 1.41 4.539 1.33 4.576 1.26 4.611 1.18 4.647 1.11 4.679 1.03 4.711.95 4.742.87 4.77.79 4.797.7 4.822.63 4.847.53 4.868.46 4.889.36 4.907.27 4.923.19 4.938.09 4.951v4.961l-.08 4.97-.19 4.977-.27 4.981-.38 4.984-.46 4.984-.56 4.982-.66 4.978-.76 4.971-.85 4.964-.95 4.952-1.04 4.94-1.14 4.925-1.24 4.908-1.34 4.888-1.43 4.867-1.53 4.843-1.62 4.818-1.72 4.79-1.81 4.76-1.91 4.728-1.99 4.694-2.1 4.658-2.18 4.621-2.27 4.581-2.37 4.539-2.45 4.496-2.54 4.451-2.62 4.405-2.71 4.355-2.79 4.306-2.88 4.255-2.95 4.202-3.03 4.149-3.11 4.093-3.19 4.038-3.25 3.981-3.33 3.923-3.4 3.865-3.46 3.807-3.53 3.746-3.6 3.688-3.65 3.627-3.71 3.566-3.77 3.506-3.83 3.446-3.88 3.385-3.93 3.325-3.98 3.264-4.02 3.204-4.08 3.143-4.11 3.084-4.16 3.024-4.21 2.964-4.24 2.905-4.28 2.846-4.31 2.787-4.35 2.728-4.39 2.669-4.42 2.61-4.45 2.547-4.487 2.5-4.514 2.43-4.544 2.37-4.573 2.32-4.602 2.25-4.629 2.19-4.657 2.13-4.684 2.07-4.71 2-4.736 1.93-4.762 1.87-4.788 1.79-4.812 1.72-4.836 1.65-4.86 1.57-4.882 1.49-4.906 1.41-4.926 1.32-4.947 1.23-4.967 1.14-4.985 1.05-5.001.96-5.017.85-5.031.75-5.043.65-5.053.53-5.061.43-5.067.32-5.07.19-5.071.09-5.07-.04-5.065-.16-5.059-.28-5.048-.41-5.035-.53-5.018-.66-4.999-.78-4.977-.91-4.95-1.03-4.922-1.16-4.889-1.29-4.853-1.41-4.815-1.52-4.773-1.65-4.728-1.77-4.681-1.87-4.631-1.99-4.578-2.1-4.523-2.2-4.465-2.3-4.406-2.39-4.345-2.49-4.282-2.57-4.218-2.66-4.152-2.73-4.086-2.81-4.018-2.88-3.951-2.94-3.882-3.001-3.813-3.056-3.746-3.106-3.677-3.15-3.609-3.19-3.542-3.226-3.476-3.256-3.412-3.283-3.347-3.304-3.285-3.321-3.224-3.335-3.165-3.344-3.109-3.348-3.052-3.351-3-3.349-2.949-3.344-2.9-3.336-2.853-3.326-2.81-3.313-2.767-3.297-2.728-3.28-2.692-3.262-2.656-3.241-2.624-3.219-2.594-3.198-2.566-3.174-2.539-3.151-2.515-3.128-2.493-3.104-2.473-3.082-2.453-3.058-2.436-3.038-2.419-3.016-2.404-2.997-2.389-2.979-2.375-2.962-2.361-2.947-2.349-2.933-2.335-2.923-2.323-2.913-2.308-2.906-2.294-2.901-2.279-2.898-2.263-2.898-2.246-2.899-2.227-2.904-2.207-2.91-2.185-2.918-2.16-2.93-2.134-2.942-2.106-2.956-2.075-2.974-2.042-2.992-2.006-3.012-1.967-3.034-1.925-3.057-1.882-3.082-1.834-3.106-1.785-3.132-1.732-3.159-1.677-3.186-1.619-3.213-1.559-3.241-1.496-3.267-1.431-3.294-1.365-3.32-1.295-3.345-1.225-3.369-1.153-3.392-1.08-3.414-1.005-3.435-.93-3.453-.852-3.471-.774-3.487-.695-3.501-.616-3.514-.535-3.524-.454-3.534-.374-3.54-.291-3.546-.211-3.549-.129-3.55-.047-3.55.033-3.546.114-3.541.194-3.535.272-3.526.351-3.514.428-3.502.503-3.486.578-3.47.651-3.451.723-3.431.792-3.408.859-3.384.926-3.359.989-3.332 1.051-3.303 1.11-3.273 1.167-3.243 1.222-3.209 1.274-3.177 1.323-3.142 1.37-3.107 1.415-3.072 1.457-3.035 1.495-2.998 1.534-2.96 1.568-2.923 1.602-2.885 1.633-2.847 1.662-2.808 1.691-2.77 1.717-2.731 1.743-2.693 1.765-2.655 1.789-2.616 1.809-2.577 1.83-2.54 1.848-2.501 1.867-2.464 1.883-2.426 1.9-2.388 1.914-2.351 1.929-2.314 1.943-2.277 1.954-2.241 1.967-2.205 1.978-2.168 1.988-2.134 1.997-2.098 2.006-2.063 2.014-2.029 2.022-1.995 2.027-1.962 2.033-1.928 2.038-1.897 2.042-1.864 2.045-1.834 2.048-1.803 2.049-1.773 2.05-1.744 2.049-1.716 2.049-1.688 2.048-1.662 2.045-1.636 2.041-1.612 2.038-1.588 2.032-1.566 2.027-1.544 2.021-1.524 2.015-1.505 2.007-1.486 2-1.47 1.993-1.453 1.984-1.439 1.976-1.424 1.968-1.412 1.96-1.399 1.952-1.388 1.944-1.378 1.936-1.369 1.929-1.36 1.922-1.352 1.915-1.345 1.909-1.339 1.903-1.333 1.898-1.327 1.893-1.323 1.89-1.318 1.885-1.314 1.883-1.311 1.881-1.307 1.88-1.304 1.879-1.302 1.879-1.299 1.88-1.297 1.882-1.295 1.883-1.293 1.887-1.29 1.891-1.289 1.894-1.288 1.9-1.285 1.906-1.284z" clip-rule="evenodd"/></g><defs><linearGradient id="b" x1="2065.44" x2="1568.09" y1="-1847.33" y2="-2119.61" gradientUnits="userSpaceOnUse"><stop stop-color="#9ab0a6"/><stop offset="1" stop-color="#426986"/></linearGradient><linearGradient id="d" x1="3503.93" x2="3631.89" y1="1770.41" y2="1211.55" gradientUnits="userSpaceOnUse"><stop stop-color="#9ab0a6"/><stop offset="1" stop-color="#426986"/></linearGradient><filter id="a" width="768.994" height="791.454" x=".331" y=".854" color-interpolation-filters="sRGB" filterUnits="userSpaceOnUse"><feFlood flood-opacity="0" result="BackgroundImageFix"/><feBlend in="SourceGraphic" in2="BackgroundImageFix" result="shape"/><feGaussianBlur result="effect1_foregroundBlur_75_32677" stdDeviation="50"/></filter><filter id="c" width="811.034" height="779.972" x="447.32" y="363.654" color-interpolation-filters="sRGB" filterUnits="userSpaceOnUse"><feFlood flood-opacity="0" result="BackgroundImageFix"/><feBlend in="SourceGraphic" in2="BackgroundImageFix" result="shape"/><feGaussianBlur result="effect1_foregroundBlur_75_32677" stdDeviation="50"/></filter></defs></svg>