<svg xmlns="http://www.w3.org/2000/svg" width="53" height="61" fill="none" viewBox="0 0 53 61"><path fill="url(#a)" fill-opacity=".2" fill-rule="evenodd" d="m42.039 22.631.117.194.115.195.114.196.111.198.11.199.108.2.105.2.104.203.102.204.1.204.097.206.096.207.093.208.091.21.09.21.087.211.084.213.083.213.08.214.078.216.075.216.073.217.071.219.069.218.066.22.064.221.061.222.06.222.056.223.054.223.052.225.05.225.046.226.045.226.042.227.04.227.037.228.035.228.033.23.03.228.028.23.026.23.023.23.021.231.019.231.016.232.015.231.011.232.01.232.007.233.005.232.003.233v.233l-.002.233-.004.233-.007.233-.008.233-.011.233-.014.233-.016.234-.018.233-.02.233-.023.233-.025.233-.027.233-.03.233-.032.232-.035.233-.036.232-.04.232-.04.232-.044.231-.046.232-.048.23-.05.231-.054.23-.055.23-.057.23-.06.229-.062.228-.065.228-.067.228-.069.227-.071.227-.074.226-.076.225-.079.225-.081.224-.083.223-.086.223-.088.222-.091.221-.093.22-.096.22-.098.218-.1.218-.103.216-.106.216-.108.214-.11.213-.114.212-.115.211-.118.21-.121.208-.124.207-.125.206-.13.204-.13.202-.134.2-.136.2-.14.197-.14.196-.145.194-.146.192-.15.19-.152.189-.154.186-.157.184-.16.182-.162.18-.164.177-.167.175-.17.173-.171.17-.175.169-.177.165-.179.163-.181.16-.184.158-.186.155-.188.152-.19.149-.193.146-.195.144-.197.14-.2.137-.2.135-.203.13-.205.129-.207.124-.209.122-.21.118-.213.114-.214.112-.215.108-.218.104-.218.1-.22.097-.223.094-.223.09-.224.085-.226.082-.227.079-.229.074-.23.07-.23.066-.232.062-.232.058-.234.054-.234.05-.235.045-.235.041-.237.037-.236.032-.238.029-.237.023-.238.02-.238.015-.238.01-.238.007-.238.002-.238-.002-.237-.006-.237-.01-.237-.016-.236-.02-.236-.023-.235-.027-.235-.032-.233-.035-.233-.04-.231-.044-.23-.047-.23-.052-.228-.055-.227-.059-.225-.062-.224-.066-.223-.07-.221-.072-.22-.077-.217-.079-.216-.082-.214-.086-.212-.088-.211-.092-.209-.094-.206-.096-.205-.1-.202-.101-.2-.104-.2-.107-.196-.108-.194-.11-.192-.113-.19-.114-.188-.117-.185-.118-.184-.12-.18-.12-.18-.123-.177-.123-.174-.126-.173-.126-.17-.128-.168-.128-.166-.13-.164-.13-.162-.131-.16-.132-.157-.133-.156-.133-.153-.134-.152-.134-.15-.135-.147-.135-.146-.136-.143-.136-.142-.136-.14-.136-.139-.136-.136-.136-.135-.137-.133-.136-.131-.136-.13-.136-.129-.136-.127-.135-.125-.136-.124-.135-.123-.135-.12-.134-.12-.134-.12-.133-.117-.133-.117-.133-.116-.132-.114-.132-.114-.13-.113-.13-.111-.13-.111-.13-.11-.128-.11-.128-.11-.127-.109-.126-.108-.126-.107-.125-.108-.125-.107-.123-.107-.124-.106-.122-.107-.122-.106-.121-.106-.121-.106-.12-.106-.12-.106-.12-.107-.118-.106-.118-.106-.118-.107-.118-.106-.117-.107-.117-.107-.117-.107-.117-.108-.116-.107-.117-.108-.116-.108-.117-.108-.117-.108-.117-.109-.117-.109-.118-.108-.118-.11-.118-.108-.119-.11-.119-.108-.12-.11-.12-.108-.121-.109-.122-.108-.123-.109-.124-.108-.124-.108-.125-.107-.127-.107-.127-.107-.128-.106-.13-.105-.13-.105-.133-.104-.133-.103-.134-.102-.136-.1-.137-.1-.138-.1-.14-.097-.14-.096-.143-.094-.144-.093-.146-.091-.146-.09-.149-.087-.15-.086-.15-.084-.153-.08-.154-.08-.155-.077-.157-.075-.158-.072-.159-.07-.16-.066-.162-.064-.163-.062-.165-.058-.165-.056-.166-.053-.168-.05-.168-.047-.17-.044-.17-.04-.17-.038-.172-.034-.172-.032-.173-.028-.174-.025-.174-.022-.175-.019-.174-.015-.176-.012-.175-.01-.176-.006-.175-.002-.176v-.176l.003-.176.006-.175.01-.176.012-.175.015-.175.019-.175.02-.174.025-.174.026-.173.03-.173.032-.172.034-.172.037-.171.04-.17.042-.17.044-.17.046-.167.049-.168.05-.167.052-.166.054-.165.056-.164.057-.164.06-.163.06-.162.061-.162.063-.16.064-.16.065-.16.066-.159.067-.158.068-.158.068-.157.07-.157.069-.156.07-.157.07-.155.07-.156.072-.155.071-.155.071-.155.072-.155.071-.155.072-.155.071-.156.072-.155.072-.156.071-.156.071-.156.072-.157.071-.158.072-.157.07-.159.072-.16.072-.159.071-.16.072-.161.071-.162.072-.163.072-.163.073-.165.073-.165.073-.166.074-.167.074-.168.075-.168.076-.17.076-.17.078-.17.078-.172.08-.172.08-.173.081-.174.083-.174.085-.175.085-.175.088-.176.089-.176.09-.176.093-.177.095-.176.096-.177.098-.176.101-.177.103-.176.105-.175.107-.175.11-.175.112-.174.115-.173.117-.173.12-.17.122-.171.125-.169.128-.167.13-.166.133-.165.136-.163.139-.161.141-.16.144-.156.147-.156.15-.152.152-.151.155-.149.158-.146.16-.143.163-.14.166-.139.168-.135.17-.132.174-.13.175-.127.178-.123.18-.12.183-.118.184-.114.187-.111.189-.108.19-.104.194-.1.194-.098.197-.094.198-.09.2-.088.202-.084.204-.08.204-.076.207-.073.207-.07.21-.065.21-.062.21-.059.213-.055.213-.051.214-.049.215-.044.216-.041.217-.038.217-.034.218-.031.219-.028.219-.024.219-.021.22-.018.22-.015.22-.012.22-.009.221-.005.221-.003h.221l.221.003.221.006.222.009.22.011.221.014.221.017.22.02.221.021.22.025.22.027.22.03.22.031.218.035.22.037.217.04.218.042.218.044.217.048.216.049.216.052.215.054.215.056.214.06.214.06.213.065.212.066.211.068.211.071.21.073.21.076.207.077.208.08.207.083.205.085.205.086.204.09.203.09.202.094.2.096.2.098.2.1.197.102.196.105.196.106.194.109.194.11.191.113.191.115.19.116.189.119.187.12.186.122.185.124.183.127.183.127.18.13.18.131.18.133.177.135.176.136.175.138.174.14.172.141.171.143.17.145.169.145.167.148.166.15.164.15.164.152.162.153.16.155.16.157.158.158.156.16.156.16.153.163.153.164.151.165.15.166.148.169.147.17.145.17.143.172.143.174.14.175.14.177.137.178.136.179.134.18.133.183.13.183.13.184.128.187.126.187.124.189.122.19.121.19z" clip-rule="evenodd"/><g clip-path="url(#b)"><path fill="#121212" fill-rule="evenodd" d="M22.889.094c0 .026-.053.047-.118.047s-.117.021-.117.047-.035.047-.077.047-.111.037-.153.083a1 1 0 0 1-.2.146.5.5 0 0 0-.188.188 1 1 0 0 1-.146.2c-.045.041-.082.11-.082.152 0 .043-.021.077-.047.077s-.047.053-.047.118c0 .064-.021.117-.047.117-.065 0-.065 7.222 0 7.262.025.016.047.08.047.143 0 .064.017.115.039.115s.069.058.105.129c.087.166.501.58.667.666.07.037.129.085.129.106s.051.04.114.04.128.02.144.046c.039.062 1.137.062 1.175 0 .016-.026.08-.047.144-.047s.115-.018.115-.039.058-.069.128-.106c.166-.086.58-.5.667-.666.037-.071.084-.129.106-.129s.039-.051.039-.115c0-.063.02-.127.047-.143.065-.04.065-7.262 0-7.262-.026 0-.047-.053-.047-.117 0-.065-.021-.118-.047-.118s-.047-.034-.047-.077-.038-.11-.083-.152a1 1 0 0 1-.146-.2.5.5 0 0 0-.188-.188 1 1 0 0 1-.2-.146c-.042-.046-.11-.083-.153-.083s-.076-.021-.076-.047-.053-.047-.118-.047-.117-.021-.117-.047c0-.029-.235-.047-.611-.047s-.611.018-.611.047m1.008 1.338c.22.23.214.13.214 3.564v3.258l-.16.173c-.103.113-.2.174-.278.174-.065 0-.13.027-.146.059-.022.047-.033.047-.055 0-.015-.032-.08-.059-.146-.059-.077 0-.175-.061-.278-.174l-.16-.173V1.663l.156-.17c.22-.24.652-.271.853-.06M10.317 4.7c-.017.026-.082.047-.145.047s-.114.021-.114.047-.029.047-.064.047c-.161 0-.78.47-.783.595a.5.5 0 0 1-.093.157.44.44 0 0 0-.093.214c0 .053-.026.12-.056.15-.074.075-.074 1.125 0 1.199.03.03.055.092.055.139 0 .046.02.084.047.084.026 0 .047.042.047.094s.02.094.047.094c.026 0 .047.031.047.07 0 .038.259.323.575.633.317.31.68.668.805.794.277.277 1.595 1.596 1.917 1.916l.84.852c.336.343.642.623.68.623.04 0 .07.021.07.047s.043.047.095.047c.051 0 .094.02.094.043 0 .074.663.158 1.032.131.344-.025.8-.157.8-.231 0-.02.029-.037.063-.037.087 0 .549-.492.549-.583 0-.041.02-.075.047-.075.026 0 .047-.042.047-.094s.02-.094.047-.094c.025 0 .047-.063.047-.14s.02-.142.047-.142c.028 0 .047-.196.047-.493 0-.298-.019-.494-.047-.494-.026 0-.047-.063-.047-.14s-.022-.142-.047-.142-.047-.042-.047-.094-.021-.094-.047-.094-.047-.031-.047-.07c0-.092-.138-.253-.559-.656-.19-.182-.65-.638-1.02-1.013a216 216 0 0 0-1.805-1.807 78 78 0 0 1-.995-1.004c-.295-.308-.538-.479-.681-.479-.035 0-.063-.021-.063-.047s-.064-.047-.141-.047c-.078 0-.141-.021-.141-.047 0-.028-.195-.047-.491-.047-.277 0-.504.02-.52.047m25.356 0c0 .026-.064.047-.141.047-.078 0-.141.021-.141.047s-.029.047-.064.047c-.143 0-.386.17-.68.479-.173.18-.62.631-.995 1.004l-.907.901c-.124.124-.529.531-.899.906s-.829.83-1.02 1.013c-.421.403-.558.564-.558.656 0 .039-.021.07-.047.07s-.047.042-.047.094-.021.094-.047.094-.047.064-.047.141c0 .078-.021.141-.047.141-.029 0-.047.196-.047.494 0 .297.018.493.047.493.025 0 .047.064.047.141 0 .078.02.141.047.141.026 0 .047.042.047.094s.02.094.047.094c.026 0 .047.032.047.072 0 .115.441.586.549.586.034 0 .062.017.062.038 0 .07.446.197.8.227.37.03 1.033-.052 1.033-.128 0-.024.042-.043.094-.043.051 0 .094-.02.094-.044s.045-.058.1-.075c.055-.018.36-.3.68-.626.319-.327.684-.697.81-.824l1.917-1.916c.126-.126.488-.484.805-.794s.576-.595.576-.633.02-.07.047-.07c.026 0 .047-.042.047-.094s.02-.094.047-.094c.026 0 .047-.038.047-.084s.024-.11.054-.14c.035-.034.054-.25.054-.598 0-.35-.02-.565-.054-.6a.25.25 0 0 1-.055-.15.44.44 0 0 0-.093-.214.5.5 0 0 1-.093-.157c-.004-.125-.623-.595-.784-.595-.035 0-.063-.021-.063-.047s-.052-.047-.115-.047-.128-.021-.144-.047-.243-.047-.52-.047c-.295 0-.49.019-.49.047M11.045 5.97c0 .025.031.046.07.046s.07.021.07.047.02.047.045.047c.042 0 .936.844 1.336 1.26.2.209 1.04 1.05 1.73 1.735.744.736 1.26 1.281 1.26 1.329 0 .026.022.047.048.047s.047.032.047.07c0 .04.02.071.047.071.025 0 .047.095.047.212s-.021.211-.047.211-.047.032-.047.07c0 .04-.021.071-.047.071s-.047.032-.047.07c0 .04-.042.071-.094.071s-.094.021-.094.047-.117.047-.26.047h-.26L12.548 9.12c-1.824-1.823-2.302-2.326-2.302-2.42 0-.065-.022-.119-.048-.119q-.045-.002-.005-.082a7 7 0 0 0 .106-.223c.126-.278.746-.532.746-.306m25.39.01a.5.5 0 0 1 .265.295 7 7 0 0 0 .106.223q.04.08-.005.082c-.026 0-.047.054-.047.12 0 .096-.466.586-2.301 2.42l-2.3 2.301h-.262c-.143 0-.26-.021-.26-.047s-.043-.047-.094-.047-.094-.031-.094-.07-.021-.07-.047-.07-.047-.033-.047-.071c0-.04-.021-.07-.047-.07s-.047-.096-.047-.212c0-.117.02-.212.047-.212.026 0 .047-.032.047-.07 0-.04.02-.07.047-.07.026 0 .047-.024.047-.051 0-.067 4.252-4.32 4.319-4.32.028 0 .052-.022.052-.048s.031-.047.07-.047.07-.021.07-.047c0-.067.358-.058.481.012m-27.13 8.355c0 .026-.095.047-.21.047-.117 0-.212.021-.212.047s-.064.047-.141.047c-.078 0-.141.021-.141.047s-.064.047-.141.047c-.078 0-.141.021-.141.047s-.032.047-.071.047c-.094 0-.7.296-.775.378a2 2 0 0 1-.188.14 1.7 1.7 0 0 0-.24.197c-.043.046-.092.084-.11.084-.05 0-.543.522-.543.575 0 .025-.064.105-.141.177-.078.073-.141.161-.141.197 0 .035-.043.095-.094.132s-.094.105-.094.151-.021.084-.047.084-.047.032-.047.07c0 .04-.021.071-.047.071s-.047.031-.047.07a.7.7 0 0 1-.094.236.7.7 0 0 0-.094.26c0 .05-.021.092-.047.092s-.047.062-.047.138-.021.152-.047.168-.047.108-.047.204c0 .097-.022.198-.05.225-.099.1-.002 2.367.101 2.367.024 0 .043.064.043.141 0 .078.02.141.047.141.026 0 .047.052.047.115s.02.128.047.144c.026.016.047.07.047.12s.02.091.047.091c.026 0 .047.042.047.094s.02.094.047.094c.026 0 .047.042.047.094s.02.094.047.094c.026 0 .047.032.047.07 0 .04.02.071.047.071.026 0 .047.032.047.07 0 .04.02.071.047.071.026 0 .047.032.047.07 0 .04.02.071.047.071.026 0 .047.02.047.046 0 .111.97 1.082 1.081 1.082.026 0 .047.021.047.047s.022.047.049.047.094.042.15.094.128.094.162.094.062.021.062.047.042.047.094.047c.051 0 .094.021.094.047s.042.047.094.047c.051 0 .094.017.094.039 0 .02.105.067.235.102.129.035.235.081.235.103 0 .02.062.038.138.038s.151.021.167.047.111.047.212.047.195.021.211.047c.018.029.392.047.966.047.594 0 .938-.017.938-.047 0-.026.067-.047.15-.047.142 0 .347-.052.602-.154l.211-.081c.139-.051.56-.253.588-.281a1 1 0 0 1 .152-.091c.072-.037.13-.084.13-.106s.034-.039.075-.039.131-.059.2-.13a2 2 0 0 1 .289-.247c.2-.14.47-.404.47-.46 0-.023.045-.082.1-.13.138-.123.51-.7.51-.792 0-.04.022-.074.048-.074s.047-.042.047-.094.02-.094.047-.094c.025 0 .047-.042.047-.094s.02-.094.047-.094c.026 0 .047-.063.047-.14s.02-.142.047-.142c.026 0 .047-.063.047-.14s.02-.142.047-.142c.025 0 .047-.095.047-.211 0-.117.02-.212.047-.212.03 0 .047-.352.047-.963s-.018-.964-.047-.964c-.026 0-.047-.094-.047-.209s-.021-.221-.047-.237-.047-.092-.047-.168-.021-.138-.047-.138-.047-.052-.047-.115-.021-.127-.047-.143-.047-.07-.047-.12-.021-.092-.047-.092-.047-.042-.047-.094-.016-.094-.036-.094-.077-.096-.128-.212c-.05-.116-.107-.21-.126-.21-.018 0-.047-.044-.064-.097a.9.9 0 0 0-.179-.247 3 3 0 0 1-.264-.322 1 1 0 0 0-.244-.248 2.3 2.3 0 0 1-.32-.26c-.106-.101-.234-.197-.285-.214s-.093-.049-.093-.073-.043-.044-.094-.044-.094-.018-.094-.04c0-.051-.473-.289-.577-.289-.045 0-.081-.021-.081-.047s-.053-.047-.118-.047-.117-.021-.117-.047-.062-.047-.138-.047-.152-.021-.168-.047-.123-.047-.238-.047-.208-.021-.208-.047c0-.03-.353-.047-.964-.047-.61 0-.963.017-.963.047m26.462 0c0 .026-.094.047-.209.047s-.222.021-.238.047-.091.047-.167.047-.138.021-.138.047-.053.047-.118.047c-.064 0-.117.021-.117.047s-.04.047-.087.047c-.11 0-.656.283-.796.411-.035.033-.082.06-.104.06s-.127.083-.234.186a2.3 2.3 0 0 1-.323.263 1 1 0 0 0-.244.248 3 3 0 0 1-.265.322.9.9 0 0 0-.18.247c-.016.053-.045.096-.063.096s-.075.095-.126.211-.109.211-.128.212c-.02 0-.035.042-.035.094s-.022.094-.047.094-.047.041-.047.091-.021.105-.047.12c-.026.017-.047.081-.047.144s-.021.115-.047.115-.047.062-.047.138-.021.152-.047.168-.047.11-.047.211-.021.196-.047.212c-.03.018-.047.4-.047.99 0 .609.017.96.047.96.026 0 .047.095.047.212s.02.211.047.211c.026 0 .047.064.047.141 0 .078.02.141.047.141.025 0 .047.064.047.141 0 .078.02.141.047.141.026 0 .047.042.047.094s.02.094.047.094c.025 0 .047.042.047.094s.02.094.047.094c.026 0 .047.033.047.074 0 .092.372.67.51.791.055.05.1.108.1.13 0 .055.41.462.464.462.023 0 .13.085.236.188.107.104.226.188.264.188s.07.018.07.04c0 .02.059.068.13.105s.14.077.153.09c.026.027.427.22.61.294.383.155.627.223.791.223.082 0 .15.021.15.047 0 .03.343.047.937.047.574 0 .948-.018.966-.047.016-.026.111-.047.212-.047s.195-.021.211-.047.091-.047.167-.047.139-.017.139-.038c0-.022.105-.068.235-.103.129-.035.235-.081.235-.102 0-.022.042-.039.094-.039.051 0 .094-.021.094-.047s.042-.047.094-.047c.051 0 .094-.021.094-.047s.031-.047.07-.047.07-.021.07-.047.032-.047.071-.047.07-.021.07-.047.032-.047.071-.047.07-.021.07-.047.021-.047.047-.047c.11 0 1.082-.97 1.082-1.082 0-.025.02-.046.047-.046.025 0 .047-.032.047-.07 0-.04.02-.07.047-.07.026 0 .047-.033.047-.071 0-.04.02-.07.047-.07.026 0 .047-.033.047-.071 0-.04.02-.07.047-.07.026 0 .047-.043.047-.095s.02-.094.047-.094c.026 0 .047-.042.047-.094s.02-.094.047-.094c.026 0 .047-.04.047-.091s.02-.104.047-.12c.026-.016.047-.081.047-.144s.02-.115.047-.115c.026 0 .047-.063.047-.14s.019-.142.042-.142c.104 0 .2-2.267.1-2.367-.026-.027-.048-.128-.048-.224 0-.097-.022-.19-.047-.205-.026-.016-.047-.092-.047-.168s-.022-.138-.047-.138-.047-.052-.047-.115-.022-.127-.047-.143-.047-.07-.047-.12-.017-.092-.038-.092c-.022 0-.068-.074-.103-.164-.036-.09-.082-.165-.103-.165s-.038-.038-.038-.084-.043-.114-.094-.15c-.052-.038-.094-.098-.094-.133s-.064-.124-.141-.197c-.078-.072-.141-.152-.141-.177 0-.053-.493-.575-.543-.575-.019 0-.068-.038-.11-.084a1.7 1.7 0 0 0-.24-.198 2 2 0 0 1-.188-.139c-.076-.082-.681-.378-.776-.378-.038 0-.07-.021-.07-.047s-.064-.047-.141-.047c-.078 0-.141-.021-.141-.047s-.064-.047-.141-.047c-.078 0-.141-.021-.141-.047s-.095-.047-.212-.047-.211-.021-.211-.047c0-.03-.353-.047-.964-.047-.61 0-.963.017-.963.047M10.34 15.51c0 .027.148.047.35.047.192 0 .362.021.378.047s.081.047.145.047a.5.5 0 0 1 .197.042c.044.023.134.062.199.087.297.116.676.323.817.447.051.045.109.082.128.082.061 0 .7.655.7.718 0 .033.042.09.094.128.051.037.094.096.094.13s.042.107.094.163c.051.055.094.129.094.162 0 .034.02.062.047.062.026 0 .047.043.047.095 0 .091.016.137.133.363.03.058.055.157.055.22 0 .064.02.129.047.145.028.017.047.337.047.801 0 .484-.018.773-.047.773-.026 0-.047.062-.047.138s-.022.152-.047.168-.047.08-.047.143-.021.115-.047.115-.047.03-.047.066c0 .09-.196.451-.244.451-.021 0-.038.038-.038.084s-.043.114-.094.151-.094.091-.094.12c0 .03-.09.15-.2.268l-.333.36c-.073.08-.159.145-.19.145-.03 0-.086.042-.123.094s-.106.094-.152.094-.083.021-.083.047-.024.047-.053.047c-.05 0-.538.197-.71.287a.5.5 0 0 1-.19.042c-.06 0-.132.022-.158.049-.067.067-1.538.067-1.56 0-.009-.027-.078-.049-.154-.049a.6.6 0 0 1-.22-.041 4 4 0 0 0-.222-.1c-.301-.127-.47-.213-.485-.247-.01-.019-.052-.035-.096-.035s-.11-.042-.147-.094c-.038-.052-.096-.094-.129-.094-.08 0-.764-.685-.764-.764 0-.034-.043-.092-.094-.129s-.094-.105-.094-.151-.021-.084-.047-.084-.047-.032-.047-.07c0-.04-.021-.07-.047-.07s-.047-.043-.047-.095-.02-.094-.043-.094c-.024 0-.057-.084-.075-.188-.017-.103-.05-.2-.074-.214-.024-.015-.043-.084-.043-.155s-.023-.152-.052-.18c-.07-.07-.07-1.58.001-1.604.028-.01.051-.063.052-.119.002-.11.153-.577.203-.627.017-.017.03-.065.03-.108s.043-.123.095-.178c.051-.056.094-.129.094-.163s.042-.093.094-.13c.051-.037.094-.096.094-.132 0-.06.135-.201.537-.561.094-.084.187-.153.207-.153s.079-.037.13-.082c.118-.105.347-.245.453-.279.046-.014.083-.045.083-.067s.053-.042.117-.042c.065 0 .118-.021.118-.047s.051-.047.114-.047.128-.021.144-.047.091-.047.167-.047.139-.021.139-.047c0-.027.148-.047.35-.047.192 0 .362-.021.378-.047s.05-.047.074-.047.044.021.044.047m27.166.097c0 .025.062.044.138.044s.151.021.167.047.08.047.144.047.115.021.115.047.03.047.069.047c.062 0 .155.045.498.242.06.035.151.1.203.146.051.045.11.082.13.082.084 0 .745.642.745.724 0 .03.042.085.094.122.051.037.094.096.094.13s.042.107.094.163c.051.055.094.136.094.178 0 .043.013.091.03.108.05.05.201.518.203.627.001.056.024.11.051.119.064.021.068 1.501.005 1.62a3 3 0 0 0-.126.369c-.099.353-.176.54-.222.54-.02 0-.035.032-.035.07 0 .04-.022.071-.047.071s-.047.038-.047.084-.043.114-.094.151-.094.095-.094.129c0 .08-.685.764-.765.764-.033 0-.091.042-.128.094s-.104.094-.148.094-.087.016-.095.035-.153.096-.321.17-.343.154-.388.177a.6.6 0 0 1-.219.041c-.076 0-.145.022-.154.05-.022.066-1.493.066-1.56-.001-.026-.027-.106-.049-.177-.049s-.142-.021-.158-.047-.06-.047-.097-.047-.158-.04-.268-.09a3 3 0 0 0-.305-.12c-.058-.018-.105-.051-.105-.075s-.038-.044-.084-.044-.114-.042-.151-.094c-.038-.052-.1-.094-.14-.094s-.125-.068-.19-.15a5 5 0 0 0-.317-.352c-.11-.11-.2-.218-.2-.24s-.036-.08-.082-.13a1.3 1.3 0 0 1-.149-.22c-.036-.072-.084-.13-.105-.13-.022 0-.04-.04-.04-.091s-.02-.104-.046-.12-.047-.07-.047-.12-.022-.092-.047-.092-.047-.052-.047-.115-.022-.127-.047-.143-.047-.092-.047-.168-.022-.138-.047-.138c-.03 0-.047-.289-.047-.773 0-.464.019-.784.047-.801.026-.016.047-.081.047-.145a.5.5 0 0 1 .041-.197c.023-.045.063-.134.088-.199.107-.269.264-.564.301-.564.022 0 .04-.038.04-.084s.042-.114.094-.15c.051-.038.094-.096.094-.13 0-.075.645-.717.721-.717.032 0 .087-.042.125-.094.037-.052.095-.094.13-.094.034 0 .107-.042.163-.094.055-.052.128-.094.162-.094s.062-.021.062-.047.042-.047.094-.047a.5.5 0 0 0 .188-.047l.187-.094a.5.5 0 0 1 .202-.047c.06 0 .129-.02.154-.044.087-.088 1.572-.087 1.572 0m-17.32 3.381c-.016.026-.091.047-.168.047-.167 0-.513.103-.513.152 0 .02-.038.036-.084.036s-.114.042-.151.094c-.038.052-.093.094-.122.094-.086 0-.63.571-.63.661 0 .03-.064.113-.141.185-.078.073-.141.166-.141.207s-.021.075-.047.075-.047.032-.047.07c0 .04-.018.071-.04.071-.02 0-.068.058-.105.13-.037.07-.104.17-.15.22-.044.05-.081.119-.081.152 0 .034-.021.062-.047.062s-.047.038-.047.084-.043.114-.094.151-.094.105-.094.152c0 .046-.018.083-.04.083-.02 0-.068.058-.105.13a1 1 0 0 1-.149.205c-.045.041-.082.102-.082.135s-.038.094-.083.136a2 2 0 0 0-.221.264 2 2 0 0 1-.223.264c-.046.042-.084.1-.084.129 0 .03-.021.053-.047.053a.047.047 0 0 0-.047.048c0 .054-1.156 1.221-1.21 1.221-.02 0-.11.064-.2.141a1 1 0 0 1-.193.141.7.7 0 0 0-.164.118c-.075.064-.163.117-.196.117-.032 0-.058.021-.058.047s-.043.047-.094.047-.094.021-.094.047-.043.047-.094.047-.094.021-.094.047-.043.047-.094.047-.094.021-.094.047-.064.047-.141.047c-.078 0-.141.021-.141.047 0 .029-.22.047-.564.047-.345 0-.564-.018-.564-.047 0-.027-.165-.047-.4-.047s-.4-.02-.4-.047c0-.03-.485-.047-1.362-.047s-1.363.017-1.363.047c0 .026-.126.047-.282.047-.157 0-.282.021-.282.047s-.094.047-.209.047-.222.021-.238.047-.091.047-.167.047-.138.021-.138.047-.074.047-.165.047c-.09 0-.164.021-.164.047s-.064.047-.141.047c-.078 0-.141.021-.141.047s-.043.047-.094.047-.094.021-.094.047-.064.047-.141.047c-.078 0-.141.021-.141.047s-.043.047-.094.047-.094.021-.094.047-.043.047-.094.047-.094.021-.094.047-.043.047-.094.047-.094.021-.094.047-.043.047-.094.047-.094.021-.094.047-.043.047-.094.047-.094.021-.094.047-.043.047-.094.047-.094.021-.094.047a.05.05 0 0 1-.048.047c-.057 0-.439.243-.461.294-.01.02-.04.035-.071.035s-.129.064-.22.141c-.09.078-.182.141-.204.141s-.096.058-.164.13c-.069.07-.207.19-.307.265a5.2 5.2 0 0 0-.781.777 4 4 0 0 1-.294.337c-.097.099-.176.201-.176.228a.05.05 0 0 1-.047.05c-.026 0-.047.026-.047.06 0 .032-.043.09-.094.127s-.094.095-.094.128-.021.06-.047.06-.047.032-.047.07c0 .04-.021.071-.047.071s-.047.028-.047.062-.043.107-.094.162-.094.13-.094.163c0 .035-.043.093-.094.13s-.094.106-.094.152-.021.083-.047.083-.047.042-.047.094-.016.094-.036.094-.088.117-.152.259c-.065.142-.134.258-.153.258-.02 0-.035.031-.035.07a.7.7 0 0 1-.085.223 3 3 0 0 0-.17.436 4 4 0 0 1-.22.598.5.5 0 0 0-.042.176c0 .053-.021.095-.047.095s-.047.074-.047.165c0 .09-.021.164-.047.164s-.047.064-.047.141c0 .078-.021.141-.047.141s-.047.085-.047.188-.021.188-.047.188-.047.094-.047.209-.021.222-.047.238-.047.11-.047.211-.021.196-.047.212-.047.132-.047.258-.021.243-.047.259-.047.171-.047.346c0 .19-.024.34-.06.375-.085.086-.085 5.372 0 5.4.042.014.06.14.06.413 0 .216.02.406.047.422.026.016.047.165.047.331 0 .17.02.303.047.303.026 0 .047.132.047.303 0 .166.02.316.047.332.026.016.047.132.047.258s.02.243.047.259c.026.016.047.121.047.235s.02.219.047.235c.026.016.047.11.047.211s.02.196.047.212c.026.016.047.123.047.237 0 .115.02.21.047.21.026 0 .047.084.047.187s.02.188.047.188c.026 0 .047.032.047.071 0 .04.018.108.04.153l.129.267c.102.212.834.966.937.966.038 0 .069.021.069.047s.042.047.094.047c.051 0 .094.021.094.047s.04.047.09.047.099.027.11.059c.015.047 1.618.059 7.803.059 6.165 0 7.796-.013 7.843-.06a.23.23 0 0 1 .143-.058c.047 0 .085-.016.085-.035s.068-.066.152-.103c.163-.072.929-.808.929-.892 0-.028.017-.05.038-.05.055 0 .244-.369.244-.475 0-.05.02-.09.047-.09.026 0 .047-.062.047-.138s.02-.151.047-.167c.026-.017.047-.228.047-.473 0-.265.019-.444.047-.444.064 0 .064-5.341 0-5.381-.027-.017-.047-.266-.047-.588s-.02-.57-.047-.587c-.026-.016-.047-.207-.047-.423 0-.217-.021-.407-.047-.423s-.047-.164-.047-.33c0-.164-.021-.312-.047-.328s-.047-.166-.047-.332c0-.17-.02-.303-.047-.303-.026 0-.047-.116-.047-.258s-.021-.259-.047-.259-.047-.106-.047-.235c0-.13-.021-.235-.047-.235s-.047-.094-.047-.209-.021-.221-.047-.237-.047-.113-.047-.215-.021-.185-.047-.185-.047-.084-.047-.188c0-.103-.021-.188-.047-.188s-.047-.073-.047-.162-.021-.174-.047-.19-.047-.092-.047-.168-.021-.138-.047-.138-.047-.074-.047-.164-.021-.165-.047-.165-.047-.063-.047-.14-.021-.142-.047-.142-.047-.062-.047-.138-.02-.15-.046-.166c-.024-.016.039-.115.141-.22.103-.106.187-.213.187-.237 0-.025.084-.127.188-.226.103-.1.188-.205.188-.235s.084-.136.188-.235c.103-.1.188-.193.188-.208s.084-.114.188-.22c.103-.107.188-.213.188-.236s.063-.108.14-.19c.078-.08.142-.166.142-.189 0-.04.04-.096.176-.248a.23.23 0 0 0 .059-.12c0-.03.063-.114.14-.187.078-.072.142-.16.142-.196s.042-.096.094-.133c.051-.037.094-.09.094-.117s.042-.08.094-.118c.051-.037.094-.095.094-.128s.02-.06.047-.06c.026 0 .047-.032.047-.07 0-.04.02-.07.047-.07.025 0 .047-.029.047-.063 0-.033.037-.102.082-.152s.112-.15.149-.22c.037-.072.084-.13.106-.13s.039-.032.039-.072.042-.118.094-.174c.051-.055.094-.128.094-.162s.02-.062.047-.062c.026 0 .047-.019.047-.041s.095-.208.21-.412c.117-.203.212-.406.212-.452s.022-.082.048-.082.047-.042.047-.094.02-.094.047-.094c.026 0 .047-.042.047-.094s.02-.094.047-.094c.025 0 .047-.042.047-.094s.02-.094.047-.094c.026 0 .047-.042.047-.094s.02-.094.047-.094c.026 0 .047-.063.047-.14s.02-.142.047-.142c.025 0 .047-.042.047-.094s.02-.094.047-.094c.026 0 .047-.052.047-.115s.02-.127.047-.143c.026-.016.047-.081.047-.144s.02-.115.047-.115c.025 0 .047-.073.047-.162s.02-.174.047-.19c.026-.016.047-.113.047-.215s.02-.185.047-.185c.026 0 .047.083.047.185s.02.199.047.215c.025.016.047.101.047.19 0 .09.02.162.047.162.026 0 .047.052.047.115s.02.128.047.144c.026.016.047.08.047.143s.02.115.047.115c.025 0 .047.064.047.141 0 .078.02.141.047.141.026 0 .047.042.047.094s.02.094.047.094c.026 0 .047.042.047.094s.02.094.047.094c.025 0 .047.042.047.094s.02.094.047.094c.026 0 .047.042.047.094s.02.094.047.094c.026 0 .047.042.047.094s.02.094.047.094c.025 0 .047.035.047.078 0 .088.323.69.384.713.021.009.039.057.039.106 0 .05.02.09.047.09.026 0 .047.028.047.062s.042.107.094.162c.051.056.094.134.094.174s.017.072.039.072.069.058.105.13c.037.07.104.17.15.22.045.05.082.119.082.152 0 .034.017.062.039.062s.069.058.105.13a1 1 0 0 0 .15.205c.045.041.082.095.082.119s.042.073.094.11c.051.037.094.097.094.133 0 .035.063.124.14.196s.142.157.142.187.026.084.058.12c.137.152.177.208.177.248 0 .023.063.108.14.19.078.08.142.166.142.189s.084.129.188.235c.103.107.188.207.188.221s.084.109.188.208c.103.1.188.203.188.231s.105.159.235.29c.129.133.235.262.235.288s.064.106.142.18c.082.076.122.145.094.162-.027.016-.048.092-.048.168s-.021.138-.047.138-.047.064-.047.141c0 .078-.021.141-.047.141s-.047.074-.047.165c0 .09-.021.164-.047.164s-.047.062-.047.138-.021.152-.047.168-.047.102-.047.19c0 .09-.021.162-.047.162s-.047.085-.047.188-.021.188-.047.188-.047.083-.047.185-.021.199-.047.215-.047.123-.047.237c0 .115-.021.21-.047.21s-.047.093-.047.208-.021.222-.047.238-.047.144-.047.284c0 .141-.021.256-.047.256-.027 0-.047.132-.047.303 0 .166-.021.316-.047.332s-.047.164-.047.329-.021.313-.047.329-.047.206-.047.423c0 .216-.021.407-.047.423-.027.016-.047.266-.047.587 0 .322-.02.57-.047.588-.03.018-.047.97-.047 2.702s.016 2.684.047 2.703c.026.016.047.217.047.446 0 .23.02.43.047.447.026.016.047.09.047.167 0 .076.02.138.047.138.025 0 .047.04.047.09 0 .106.189.474.243.474.021 0 .039.023.039.05 0 .085.765.821.928.893.084.037.153.083.153.103s.038.035.084.035.111.027.144.059c.046.046 1.678.059 7.842.059 6.186 0 7.788-.012 7.804-.06.01-.031.06-.058.11-.058s.09-.021.09-.047.042-.047.094-.047c.051 0 .094-.021.094-.047s.03-.047.068-.047c.104 0 .836-.754.937-.966l.13-.267a.4.4 0 0 0 .04-.153c0-.039.02-.07.047-.07.025 0 .047-.086.047-.189s.02-.188.047-.188c.026 0 .047-.094.047-.209s.02-.221.047-.237c.026-.016.047-.111.047-.212s.02-.195.047-.211c.026-.016.047-.122.047-.235 0-.114.02-.22.047-.235.026-.016.047-.143.047-.282 0-.14.02-.266.047-.282.026-.016.047-.155.047-.309s.02-.279.047-.279c.026 0 .047-.132.047-.303 0-.166.02-.315.047-.331.026-.016.047-.206.047-.422 0-.273.018-.399.058-.413.047-.015.06-.595.06-2.69 0-2.096-.013-2.676-.06-2.691-.04-.013-.058-.131-.058-.368 0-.201-.02-.349-.047-.349-.026 0-.047-.104-.047-.232s-.022-.245-.047-.261-.047-.123-.047-.238-.021-.209-.047-.209-.047-.106-.047-.235c0-.13-.021-.235-.047-.235s-.047-.073-.047-.162c0-.088-.021-.174-.047-.19s-.047-.092-.047-.168-.022-.138-.047-.138-.047-.074-.047-.164-.022-.165-.047-.165-.047-.052-.047-.115-.022-.127-.047-.143-.047-.07-.047-.12-.021-.092-.047-.092-.047-.052-.047-.116c0-.128-.1-.419-.24-.7a1 1 0 0 1-.09-.246c0-.036-.015-.066-.035-.066-.019 0-.088-.116-.152-.258-.065-.142-.134-.259-.153-.259-.02 0-.035-.042-.035-.094s-.022-.094-.047-.094-.047-.037-.047-.083-.043-.115-.094-.152-.094-.095-.094-.13c0-.034-.043-.107-.094-.163-.052-.055-.094-.128-.094-.162s-.022-.062-.047-.062-.047-.032-.047-.07c0-.04-.022-.07-.047-.07s-.047-.028-.047-.061-.043-.09-.094-.128c-.052-.037-.094-.095-.094-.128s-.022-.06-.047-.06a.05.05 0 0 1-.047-.049c0-.027-.08-.13-.177-.228a4 4 0 0 1-.293-.336c-.17-.227-.608-.663-.8-.796a2.3 2.3 0 0 1-.288-.246c-.069-.072-.143-.13-.165-.131-.022 0-.114-.063-.204-.14s-.182-.142-.202-.142-.08-.04-.13-.087a1.4 1.4 0 0 0-.28-.176c-.103-.05-.187-.105-.187-.125 0-.019-.043-.035-.094-.035s-.094-.021-.094-.047-.043-.047-.094-.047-.094-.016-.095-.035c0-.042-.228-.153-.314-.153-.034 0-.061-.021-.061-.047s-.043-.047-.094-.047-.094-.021-.094-.047-.043-.047-.094-.047-.094-.021-.094-.047-.064-.047-.141-.047c-.078 0-.141-.021-.141-.047s-.043-.047-.094-.047-.094-.021-.094-.047-.064-.047-.141-.047c-.078 0-.141-.021-.141-.047s-.062-.047-.139-.047c-.075 0-.15-.021-.167-.047-.016-.026-.09-.047-.164-.047s-.149-.021-.165-.047-.123-.047-.238-.047-.208-.021-.208-.047-.126-.047-.282-.047c-.157 0-.282-.02-.282-.047 0-.029-.258-.047-.679-.047-.402 0-.69-.019-.708-.047-.016-.026-.07-.047-.12-.047s-.091.021-.091.047c0 .029-.22.047-.564.047-.345 0-.564.018-.564.047 0 .028-.164.047-.397.047-.218 0-.41.021-.426.047-.017.027-.259.047-.567.047-.327 0-.537-.018-.537-.047 0-.026-.064-.047-.141-.047-.078 0-.141-.021-.141-.047s-.043-.047-.094-.047-.094-.021-.094-.047-.043-.047-.094-.047-.094-.021-.094-.047-.043-.047-.094-.047-.094-.021-.094-.047-.027-.047-.06-.047c-.031 0-.12-.053-.194-.117a.7.7 0 0 0-.165-.118 1 1 0 0 1-.192-.14.8.8 0 0 0-.2-.142c-.055 0-1.21-1.167-1.21-1.221a.047.047 0 0 0-.047-.048c-.026 0-.047-.024-.047-.053 0-.03-.038-.087-.083-.13a2.4 2.4 0 0 1-.222-.263 4 4 0 0 0-.223-.28c-.046-.05-.083-.11-.083-.135 0-.024-.037-.079-.083-.12a1 1 0 0 1-.149-.206c-.036-.07-.084-.129-.105-.129-.022 0-.04-.037-.04-.083s-.042-.115-.093-.152c-.052-.037-.094-.105-.094-.151s-.021-.084-.047-.084-.047-.028-.047-.062c0-.033-.037-.102-.083-.152a1.3 1.3 0 0 1-.149-.22c-.036-.072-.084-.13-.105-.13-.022 0-.04-.032-.04-.07 0-.04-.02-.07-.046-.07s-.047-.03-.047-.064c0-.035-.064-.13-.141-.211-.078-.082-.141-.17-.141-.197 0-.087-.547-.657-.63-.657-.03 0-.085-.042-.122-.094-.038-.052-.106-.094-.152-.094s-.083-.016-.083-.035c0-.05-.346-.153-.514-.153-.076 0-.152-.021-.168-.047s-.133-.047-.261-.047-.232.021-.232.047-.091.047-.202.047-.223.018-.247.039a1 1 0 0 1-.243.101.9.9 0 0 0-.292.15c-.051.047-.121.086-.155.086-.035 0-.093.042-.13.094s-.091.094-.12.094-.128.08-.222.176c-.52.542-.649.685-.724.812-.045.077-.1.14-.12.14s-.036.032-.036.07c0 .04-.021.071-.047.071s-.047.042-.047.094-.021.094-.047.094-.047.064-.047.141c0 .078-.021.141-.047.141s-.047.064-.047.141c0 .078-.021.141-.047.141s-.047-.063-.047-.14-.021-.142-.047-.142-.047-.04-.047-.09c0-.112-.185-.473-.294-.573-.045-.042-.082-.098-.082-.123 0-.026-.111-.164-.247-.306s-.291-.31-.346-.37c-.125-.141-.29-.277-.338-.277-.02 0-.066-.042-.103-.094-.038-.052-.106-.094-.152-.094s-.083-.017-.083-.039c0-.02-.111-.085-.247-.144a6 6 0 0 1-.328-.149.7.7 0 0 0-.268-.044c-.102 0-.199-.021-.215-.047s-.122-.047-.235-.047-.219.021-.235.047m.389 1.313c.044.024.185.082.313.129.254.094 1.108.881 1.108 1.021 0 .041.016.075.035.075.042 0 .153.229.153.315 0 .034.02.061.047.061.028 0 .047.227.047.588 0 .36-.019.587-.047.587-.026 0-.047.085-.047.188 0 .104-.021.188-.047.188s-.047.064-.047.141c0 .078-.021.141-.047.141s-.047.064-.047.141c0 .078-.021.141-.047.141s-.047.064-.047.141c0 .078-.021.141-.047.141s-.047.042-.047.094-.021.094-.047.094-.047.042-.047.094-.021.094-.047.094-.047.03-.047.066-.067.19-.148.34a18 18 0 0 0-.2.381c-.028.058-.068.105-.087.106-.02 0-.035.042-.035.094s-.021.094-.047.094-.047.042-.047.094-.019.094-.042.094c-.022 0-.067.064-.1.141-.031.078-.076.141-.1.141-.022 0-.04.04-.04.09s-.016.097-.036.106c-.05.022-.293.404-.293.461 0 .027-.018.048-.04.048-.02 0-.068.058-.105.13a1 1 0 0 1-.149.205c-.045.042-.082.106-.082.142 0 .037-.043.097-.094.134s-.094.097-.094.133c0 .035-.064.124-.141.196-.078.073-.141.156-.141.185 0 .03-.043.1-.095.157-.052.058-.17.2-.262.316l-.234.295a8 8 0 0 0-.24.329c-.094.135-.21.28-.258.322s-.086.1-.086.13c0 .08-.314.381-.398.381a.07.07 0 0 1-.072-.071c0-.076-.032-.15-.16-.375a2 2 0 0 1-.106-.218c-.068-.212-.748-.26-.972-.068-.186.16-.122 1.25.074 1.25.02 0 .036.032.036.072s.042.16.094.267c.051.107.094.223.094.256 0 .034.02.062.047.062.026 0 .047.052.047.115s.02.128.047.144c.025.016.047.07.047.12s.02.091.047.091c.026 0 .047.064.047.141 0 .078.02.141.047.141.026 0 .047.052.047.115s.02.128.047.144c.025.016.047.08.047.143 0 .064.02.115.047.115.026 0 .047.064.047.141 0 .078.02.141.047.141.026 0 .047.073.047.162s.02.175.047.19c.025.017.047.092.047.168s.02.138.047.138c.026 0 .047.085.047.188s.02.188.047.188c.026 0 .047.074.047.165 0 .09.02.164.047.164.025 0 .047.083.047.185s.02.199.047.215c.026.016.047.123.047.237 0 .115.02.21.047.21.026 0 .047.114.047.255 0 .14.02.269.047.285.025.016.047.144.047.284 0 .141.02.256.047.256s.047.141.047.33c0 .187.02.328.047.328s.047.163.047.396c0 .274.018.401.058.415.087.029.087 7.139 0 7.167-.032.011-.058.06-.058.11s-.021.09-.047.09-.047.042-.047.094-.021.094-.047.094-.047.028-.047.061c0 .086-.304.41-.384.41-.036 0-.096.041-.133.093a.26.26 0 0 1-.199.094c-.072 0-.13.021-.13.047s-.094.047-.209.047-.222.021-.238.047c-.066.107-9.94.06-9.94-.047 0-.052-.021-.094-.047-.094s-.047-.063-.047-.14-.021-.142-.047-.142-.047-.053-.047-.118a.5.5 0 0 0-.045-.2c-.046-.082-.13-.42-.176-.705-.014-.084-.044-.164-.067-.179s-.041-.086-.041-.16-.021-.15-.047-.165-.047-.101-.047-.188c0-.088-.021-.172-.047-.188s-.047-.101-.047-.188c0-.088-.021-.172-.047-.188s-.047-.101-.047-.188c0-.088-.021-.172-.047-.188s-.047-.113-.047-.215-.021-.185-.047-.185-.047-.094-.047-.209-.021-.221-.047-.237-.047-.133-.047-.259-.021-.242-.047-.258-.047-.143-.047-.282c0-.14-.021-.266-.047-.282s-.047-.166-.047-.332c0-.17-.02-.303-.047-.303-.029 0-.047-.188-.047-.47s-.02-.47-.047-.47c-.064 0-.065-2.383-.002-2.405.026-.009.05-.273.055-.61.009-.624-.07-.839-.307-.839-.038 0-.083-.021-.099-.047s-.112-.047-.214-.047-.185.021-.185.047-.033.047-.073.047c-.113 0-.303.218-.303.348 0 .064-.021.13-.047.146s-.047.218-.047.449c0 .249-.02.42-.047.42-.065 0-.065 2.616 0 2.656.026.016.047.227.047.472 0 .265.019.444.047.444.027 0 .047.148.047.35 0 .192.02.363.047.379.026.016.047.154.047.308 0 .155.02.28.047.28.026 0 .047.09.047.201s.019.222.042.247.053.14.065.256c.042.382.134.915.175 1.01.022.052.053.169.07.26l.055.317c.014.084.045.165.068.179s.042.099.042.187c0 .09.02.162.047.162.026 0 .047.073.047.162s.02.175.047.19c.026.017.047.092.047.168s.02.138.047.138c.026 0 .047.062.047.138s.02.152.047.168c.026.016.047.09.047.164s.02.149.047.165c.154.095-.042.117-1.032.117-.668 0-1.089-.018-1.107-.047-.016-.026-.133-.047-.261-.047s-.232-.021-.232-.047-.039-.047-.086-.047-.13-.042-.186-.094-.123-.094-.151-.094c-.07 0-.244-.183-.326-.34-.036-.072-.084-.13-.105-.13-.022 0-.04-.042-.04-.094s-.02-.094-.046-.094-.047-.052-.047-.115-.021-.127-.047-.143-.047-.101-.047-.188c0-.088-.021-.172-.047-.188s-.047-.123-.047-.238-.021-.209-.047-.209-.047-.106-.047-.235c0-.13-.021-.235-.047-.235s-.047-.115-.047-.256c0-.14-.021-.268-.047-.284s-.047-.145-.047-.285-.021-.256-.047-.256c-.027 0-.047-.14-.047-.329 0-.188-.02-.329-.047-.329-.028 0-.047-.156-.047-.373 0-.205-.021-.386-.047-.402-.027-.017-.047-.252-.047-.544 0-.311-.019-.514-.047-.514-.03 0-.047-.572-.047-1.621 0-1.05.016-1.622.047-1.622.028 0 .047-.18.047-.446 0-.267.019-.447.047-.447.027 0 .047-.14.047-.329 0-.188.02-.329.047-.329.026 0 .047-.106.047-.235 0-.13.02-.235.047-.235.026 0 .047-.094.047-.209s.02-.221.047-.237c.026-.016.047-.102.047-.191s.02-.162.047-.162c.026 0 .047-.084.047-.188 0-.103.02-.188.047-.188.026 0 .047-.063.047-.14s.02-.142.047-.142c.026 0 .047-.063.047-.14s.02-.142.047-.142c.026 0 .047-.063.047-.14s.02-.142.047-.142c.026 0 .047-.051.047-.115 0-.063.02-.127.047-.143.026-.016.047-.07.047-.12s.02-.092.047-.092c.026 0 .047-.053.047-.117 0-.065.02-.118.047-.118.026 0 .047-.042.047-.094s.02-.094.047-.094c.026 0 .047-.042.047-.094s.02-.094.047-.094c.026 0 .047-.042.047-.094s.02-.094.047-.094c.026 0 .047-.028.047-.063 0-.08.133-.35.19-.385.025-.015.045-.069.045-.119s.02-.09.047-.09c.026 0 .047-.039.047-.085s.042-.114.094-.15c.051-.038.094-.091.094-.118 0-.028.042-.08.094-.118.051-.037.094-.09.094-.118s.084-.144.188-.258c.103-.114.188-.226.188-.248 0-.051 1.174-1.209 1.226-1.209.02 0 .087-.047.146-.106.06-.058.166-.135.237-.172s.13-.082.13-.1.063-.06.14-.092.142-.077.142-.1c0-.022.037-.04.083-.04s.114-.043.152-.095.105-.094.151-.094.084-.021.084-.047.042-.047.094-.047c.051 0 .094-.021.094-.047s.042-.047.094-.047c.051 0 .094-.021.094-.047s.031-.047.07-.047.07-.021.07-.047.064-.047.142-.047.14-.021.14-.047.043-.047.095-.047c.051 0 .094-.021.094-.047s.063-.047.14-.047.142-.021.142-.047.063-.047.14-.047.142-.021.142-.047.074-.047.164-.047.165-.021.165-.047.082-.047.184-.047c.1 0 .19-.019.2-.041.017-.046 1.218-.164 1.637-.162.49.002 2.068.129 2.068.166 0 .056 1.493.046 1.527-.01.016-.026.087-.047.159-.047.202 0 1.134-.394 1.134-.48 0-.02.037-.037.083-.037s.114-.042.152-.094.1-.094.14-.094.104-.042.142-.094.092-.094.123-.094c.03 0 .163-.106.295-.235.132-.13.251-.235.265-.235.024 0 .513-.495 1.114-1.127.149-.156.27-.305.27-.33s.085-.134.189-.24c.103-.107.188-.219.188-.249s.042-.085.094-.122c.051-.037.094-.098.094-.134s.038-.1.085-.142a1.6 1.6 0 0 0 .22-.323c.073-.136.15-.247.172-.247s.04-.033.04-.072c0-.04.042-.118.094-.174.051-.055.094-.128.094-.162s.02-.062.047-.062c.026 0 .047-.028.047-.062 0-.033.042-.107.094-.162.051-.055.094-.129.094-.163s.042-.093.094-.13c.051-.037.094-.096.094-.131 0-.105.615-.671.761-.7.073-.015.145-.045.159-.068.033-.053.141-.052.244.003m6.175.033c.238.079.839.606.839.738 0 .032.042.088.094.125.051.037.094.096.094.13s.042.107.094.163c.051.055.094.129.094.162 0 .034.02.062.047.062.026 0 .047.038.047.084s.042.114.094.151c.051.037.094.105.094.151s.017.084.04.084c.02 0 .099.111.173.247s.161.275.195.309.062.08.062.103.053.095.117.16c.065.064.118.134.118.156s.084.133.188.247c.103.114.188.226.188.248s.105.143.235.27c.129.125.235.24.235.256 0 .069 1.395 1.388 1.468 1.388.022 0 .091.051.154.114a.7.7 0 0 0 .21.144c.052.017.095.05.095.074s.042.044.094.044c.051 0 .094.019.094.042 0 .09.912.475 1.13.475.076 0 .139.021.139.047 0 .03.29.047.775.047.427 0 .776-.017.776-.037 0-.034 1.527-.16 2.02-.167.376-.005 1.669.12 1.685.163.008.022.098.041.2.041.1 0 .184.021.184.047s.074.047.164.047.165.021.165.047.063.047.14.047.142.021.142.047.063.047.14.047.142.021.142.047.042.047.094.047c.051 0 .094.021.094.047s.063.047.14.047.142.021.142.047.031.047.07.047.07.021.07.047.043.047.095.047c.051 0 .094.021.094.047s.042.047.094.047c.051 0 .094.021.094.047s.027.047.061.047.107.042.163.094c.055.052.133.094.173.094s.073.018.073.04c0 .02.058.068.129.105a1 1 0 0 1 .205.148c.042.046.1.083.13.083s.12.064.201.141c.081.078.166.141.188.141.058 0 1.168 1.123 1.168 1.182 0 .027.063.109.14.181.078.073.142.155.142.183 0 .029.02.052.047.052.026 0 .047.027.047.06s.042.09.094.128c.051.037.094.095.094.128 0 .032.042.086.094.118.051.032.094.096.094.141 0 .046.02.083.047.083.026 0 .047.04.047.088 0 .049.031.115.07.147s.07.098.07.147.022.088.048.088.047.042.047.094.02.094.047.094c.026 0 .047.042.047.094s.02.094.047.094c.026 0 .047.042.047.094s.02.094.047.094c.026 0 .047.032.047.071 0 .04.02.113.047.165l.094.186a.5.5 0 0 1 .047.165c0 .04.02.071.047.071.026 0 .047.053.047.118 0 .064.02.117.047.117.026 0 .047.064.047.141 0 .078.02.141.047.141.026 0 .047.064.047.141 0 .078.02.141.047.141.026 0 .047.062.047.138s.02.152.047.168c.026.016.047.102.047.19 0 .09.02.162.047.162.025 0 .047.085.047.188s.02.188.047.188c.026 0 .047.095.047.212s.02.211.047.211c.026 0 .047.115.047.256 0 .14.02.269.047.285.026.016.047.165.047.331 0 .17.02.303.047.303.028 0 .047.188.047.47s.019.47.047.47c.03 0 .047.54.047 1.528 0 .987-.017 1.527-.047 1.527s-.047.21-.047.538c0 .308-.02.55-.047.567-.026.016-.047.207-.047.425 0 .234-.02.397-.047.397s-.047.141-.047.33c0 .187-.02.328-.047.328-.026 0-.047.116-.047.259 0 .142-.022.258-.047.258s-.047.126-.047.282c0 .157-.021.282-.047.282s-.047.106-.047.235c0 .13-.021.235-.047.235s-.047.083-.047.185-.021.199-.047.215-.047.112-.047.214-.022.185-.047.185-.047.064-.047.141c0 .078-.022.141-.047.141s-.047.038-.047.084-.043.114-.094.151-.094.098-.094.134c0 .078-.232.289-.318.29-.032 0-.058.02-.058.046s-.032.047-.07.047c-.04 0-.071.021-.071.047s-.043.047-.094.047-.094.021-.094.047-.105.047-.233.047c-.127 0-.245.021-.26.047-.019.03-.44.047-1.108.047-.99 0-1.185-.022-1.031-.117.026-.016.047-.09.047-.165 0-.074.02-.148.047-.164.026-.016.047-.092.047-.168s.02-.138.047-.138c.026 0 .047-.062.047-.138s.02-.151.047-.167c.026-.016.047-.102.047-.191s.02-.162.047-.162c.026 0 .047-.085.047-.188s.019-.188.042-.188.053-.069.068-.153l.055-.317c.016-.09.047-.207.07-.258.046-.108.142-.682.174-1.046.012-.136.041-.247.065-.247.023 0 .043-.094.043-.209s.02-.221.047-.237c.026-.016.047-.143.047-.282 0-.14.02-.266.047-.282.026-.016.047-.187.047-.38 0-.2.02-.349.047-.349.028 0 .047-.187.047-.467 0-.26.02-.48.047-.496.03-.019.047-.51.047-1.32 0-.828-.017-1.289-.047-1.289-.028 0-.047-.171-.047-.42 0-.231-.021-.433-.047-.45-.026-.015-.047-.081-.047-.145 0-.13-.19-.348-.304-.348-.04 0-.072-.021-.072-.047s-.084-.047-.185-.047c-.102 0-.199.021-.215.047s-.06.047-.099.047c-.11 0-.3.22-.3.348 0 .064-.023.13-.051.148-.037.023-.037.046 0 .083.029.029.05.229.05.462 0 .226.022.424.048.44.029.018.047.47.047 1.2 0 .751-.017 1.173-.047 1.173s-.047.188-.047.47-.02.47-.047.47-.047.132-.047.303c0 .166-.021.316-.047.332s-.047.144-.047.284c0 .141-.022.256-.047.256s-.047.115-.047.256c0 .14-.022.269-.047.285s-.047.11-.047.211-.022.196-.047.212-.047.11-.047.211-.021.196-.047.212-.047.1-.047.188c0 .087-.021.172-.047.188s-.047.1-.047.188c0 .087-.021.172-.047.188s-.047.1-.047.188c0 .087-.022.172-.047.188s-.047.09-.047.164-.02.147-.042.161-.053.095-.067.18c-.046.285-.13.622-.175.704a.5.5 0 0 0-.045.2c0 .065-.022.118-.047.118s-.047.064-.047.141c0 .078-.022.141-.047.141s-.047.042-.047.094c0 .107-9.875.154-9.94.047-.017-.026-.124-.047-.239-.047s-.208-.021-.208-.047-.06-.047-.131-.047a.26.26 0 0 1-.198-.094c-.038-.052-.096-.094-.13-.094-.085 0-.387-.31-.387-.398 0-.04-.016-.072-.036-.072-.04 0-.152-.228-.152-.31 0-.032-.027-.067-.06-.078-.085-.028-.085-7.185 0-7.214.042-.014.06-.14.06-.413 0-.216.02-.405.047-.421.026-.016.047-.166.047-.332 0-.17.02-.303.047-.303.025 0 .047-.115.047-.256 0-.14.02-.268.047-.284.026-.016.047-.134.047-.262 0-.127.02-.232.047-.232.026 0 .047-.106.047-.235 0-.13.02-.235.047-.235.025 0 .047-.084.047-.188 0-.103.02-.188.047-.188.026 0 .047-.073.047-.162 0-.088.02-.174.047-.19.026-.016.047-.102.047-.191s.02-.162.047-.162c.025 0 .047-.073.047-.162 0-.088.02-.174.047-.19.026-.016.047-.092.047-.168s.02-.138.047-.138c.026 0 .047-.063.047-.14s.02-.142.047-.142c.025 0 .047-.051.047-.115 0-.063.02-.127.047-.143.026-.016.047-.081.047-.144s.02-.115.047-.115c.026 0 .047-.063.047-.14s.02-.142.047-.142c.025 0 .047-.04.047-.091s.02-.104.047-.12c.026-.016.047-.081.047-.144s.02-.115.047-.115c.026 0 .047-.032.047-.071 0-.04.02-.113.047-.165l.094-.186a.5.5 0 0 0 .047-.165c0-.039.016-.07.035-.07.191 0 .258-1.057.079-1.237-.17-.17-.735-.19-.904-.032-.108.1-.338.565-.338.682s-.137.076-.307-.094c-.09-.09-.163-.18-.163-.2s-.056-.1-.123-.177a5 5 0 0 1-.268-.352 3.6 3.6 0 0 0-.444-.556c-.084-.087-.152-.184-.152-.215 0-.03-.043-.086-.094-.123s-.094-.091-.094-.12c0-.03-.064-.12-.141-.201-.078-.082-.141-.175-.141-.209 0-.033-.043-.09-.094-.128-.052-.037-.094-.09-.094-.119s-.037-.092-.083-.142a1.3 1.3 0 0 1-.149-.22c-.036-.072-.084-.13-.105-.13-.022 0-.04-.032-.04-.07 0-.04-.015-.071-.035-.072-.019 0-.075-.084-.125-.187-.05-.104-.107-.188-.129-.188s-.04-.042-.04-.094-.018-.094-.04-.094-.068-.063-.1-.14-.077-.142-.1-.142-.041-.042-.041-.094-.021-.094-.047-.094-.047-.042-.047-.094-.022-.094-.047-.094-.047-.028-.047-.062c0-.033-.043-.107-.094-.162s-.094-.134-.094-.173c0-.04-.021-.073-.047-.073s-.047-.031-.047-.069a.7.7 0 0 0-.094-.236.7.7 0 0 1-.094-.237c0-.038-.021-.069-.047-.069s-.047-.042-.047-.094-.021-.094-.047-.094-.047-.063-.047-.14-.021-.142-.047-.142-.047-.052-.047-.115-.021-.127-.047-.143-.047-.092-.047-.168-.021-.138-.047-.138-.047-.084-.047-.188c0-.103-.021-.188-.047-.188-.03 0-.047-.227-.047-.587s.018-.588.047-.588c.026 0 .047-.027.047-.061 0-.087.11-.314.152-.315.02 0 .036-.034.036-.077 0-.141.85-.924 1.107-1.019.128-.047.264-.104.303-.127.093-.054.069-.056.336.031" clip-rule="evenodd"/></g><defs><linearGradient id="a" x1="-32.81" x2="6.017" y1="218.77" y2="225.263" gradientUnits="userSpaceOnUse"><stop stop-color="#9ab0a6"/><stop offset="1" stop-color="#426986"/></linearGradient><clipPath id="b"><path fill="#fff" d="M0 0h47v47H0z"/></clipPath></defs></svg>