<svg width="162" height="75" viewBox="0 0 162 75" fill="none" xmlns="http://www.w3.org/2000/svg">
<path d="M157.388 22.3923C160.22 27.0812 161.701 32.1576 161.74 37.2936C161.778 42.4295 160.374 47.5178 157.613 52.2299" stroke="#121212" stroke-width="0.520343"/>
<path d="M4.38196 52.2208C1.62379 47.51 0.221561 42.4234 0.26098 37.2893C0.300399 32.1552 1.78067 27.0808 4.61121 22.3936" stroke="#121212" stroke-width="0.520343"/>
<path d="M61.4782 19.2012H67.2257V45.7646C64.2776 46.3239 62.1125 46.5474 59.7608 46.5474C52.7436 46.5474 49.0859 43.3803 49.0859 37.3058C49.0859 31.4548 52.9674 27.6543 58.9759 27.6543C59.9094 27.6543 60.618 27.7285 61.4763 27.952L61.4782 19.2012ZM61.4782 32.5733C60.8066 32.3498 60.2466 32.2756 59.5379 32.2756C56.627 32.2756 54.9468 34.0636 54.9468 37.1945C54.9468 40.2503 56.5518 41.9271 59.4998 41.9271C60.162 41.9258 60.8232 41.8762 61.4782 41.7787V32.5733ZM76.3698 28.0652V41.3688C76.3698 45.9529 76.0336 48.1499 75.0363 50.0521C74.1028 51.8781 72.8712 53.0337 70.3337 54.3005L64.9968 51.7659C67.5352 50.5732 68.7659 49.5309 69.5498 47.9274C70.3709 46.2877 70.6328 44.3875 70.6328 39.3934V28.0757L76.3698 28.0652ZM70.6223 19.2345H76.3698V25.1312H70.6223V19.2345ZM79.8408 29.3691C82.3792 28.1765 84.7939 27.6553 87.4552 27.6553C90.4032 27.6553 92.3445 28.438 93.2027 29.9664C93.6789 30.8224 93.837 31.9418 93.837 34.3271V45.9976C91.2614 46.3705 88.0143 46.6311 85.6264 46.6311C80.8123 46.6311 78.6473 44.9534 78.6473 41.2271C78.6473 37.2021 81.521 35.3304 88.5753 34.7427V33.4759C88.5753 32.4325 88.0515 32.0492 86.597 32.0492C84.47 32.0492 82.082 32.6456 79.8417 33.8011V29.3663L79.8408 29.3691ZM88.8354 38.4994C85.0282 38.8722 83.787 39.4695 83.787 40.9589C83.787 42.0764 84.4967 42.5985 86.0731 42.5985C86.9304 42.5985 87.7152 42.5243 88.8354 42.3379V38.4994ZM96.646 28.9602C100.042 28.0662 102.841 27.6572 105.678 27.6572C108.626 27.6572 110.755 28.3277 112.023 29.6326C113.218 30.8623 113.59 32.2033 113.59 35.0727V46.3267H107.843V35.2943C107.843 33.0954 107.096 32.2756 105.042 32.2756C104.259 32.2756 103.55 32.3498 102.393 32.6846V46.3229H96.6355L96.646 28.9602ZM115.815 49.4557C117.831 50.4991 119.846 50.9832 121.973 50.9832C125.743 50.9832 127.348 49.4557 127.348 45.8036V45.6914C126.228 46.2497 125.109 46.4741 123.616 46.4741C118.567 46.4741 115.367 43.1577 115.367 37.9031C115.367 31.3806 120.107 27.6924 128.504 27.6924C130.967 27.6924 133.245 27.953 136.006 28.5122L134.038 32.6522C132.507 32.3545 133.914 32.6123 132.759 32.5001V33.0964L132.833 35.5178L132.871 38.6487C132.909 39.4315 132.909 40.2142 132.947 40.996V42.5614C132.947 47.4804 132.538 49.7896 131.305 51.6917C129.514 54.4879 126.416 55.8764 122.012 55.8764C119.773 55.8764 117.832 55.5407 115.816 54.758V49.4662L115.815 49.4557ZM127.246 32.3136H126.648C125.529 32.2756 124.223 32.5742 123.327 33.1335C121.946 33.9162 121.237 35.3323 121.237 37.3448C121.237 40.2142 122.666 41.8529 125.194 41.8529C125.978 41.8529 126.623 41.7036 127.358 41.4801V39.5047C127.358 38.8342 127.32 38.0781 127.32 37.3058L127.282 34.6599L127.244 32.7597V32.3127L127.246 32.3136ZM144.928 27.5811C150.676 27.5811 154.184 31.1952 154.184 37.0471C154.184 43.0389 150.526 46.8108 144.703 46.8108C138.956 46.8108 135.41 43.1967 135.41 37.3828C135.41 31.3455 139.067 27.5821 144.927 27.5821L144.928 27.5811ZM144.816 42.1896C147.018 42.1896 148.325 40.3635 148.325 37.1964C148.325 34.0579 147.056 32.2033 144.854 32.2033C142.568 32.2033 141.27 34.0294 141.27 37.1964C141.27 40.3635 142.577 42.1896 144.816 42.1896Z" fill="#092E20"/>
<path d="M116.149 65.6605C116.158 65.912 116.158 66.1375 116.158 66.3543C116.158 66.4497 116.149 66.5364 116.149 66.6231C116.097 66.6838 116.028 66.7446 115.967 66.7966L115.881 66.8833L115.829 66.9267L115.811 66.944L115.794 66.9614C115.75 66.9874 115.716 67.0221 115.672 67.0568C114.918 67.6118 113.955 67.8113 113.045 67.6031C112.481 67.473 111.969 67.1955 111.562 66.7966C111.293 66.5364 111.076 66.2329 110.92 65.8947C110.712 65.4697 110.608 65.0101 110.616 64.5331C110.608 64.0648 110.712 63.5965 110.92 63.1715C111.328 62.313 112.108 61.6886 113.036 61.4631C113.591 61.3417 114.172 61.359 114.71 61.5325C115.057 61.6365 115.378 61.8013 115.672 62.0181L115.794 62.1135L115.967 62.2696C116.028 62.3303 116.097 62.3823 116.149 62.4517C116.149 62.5384 116.158 62.6252 116.158 62.7119C116.158 62.9287 116.158 63.1629 116.158 63.4057H115.291C115.282 63.2062 115.282 63.0241 115.282 62.8507V62.8246C115.282 62.8246 115.273 62.816 115.265 62.8073L115.239 62.7899L115.152 62.7206C114.944 62.5731 114.71 62.4517 114.458 62.3823C114.068 62.2783 113.66 62.2783 113.279 62.391C113.097 62.4431 112.923 62.5211 112.767 62.6078C112.585 62.7206 112.42 62.8507 112.273 62.9981C112.099 63.1802 111.961 63.3883 111.848 63.6138C111.718 63.9 111.648 64.2209 111.648 64.5331C111.648 64.854 111.718 65.1662 111.848 65.461C111.961 65.6865 112.099 65.8947 112.273 66.0768C112.55 66.363 112.897 66.5711 113.27 66.6752C113.921 66.866 114.614 66.7446 115.152 66.3456C115.178 66.3283 115.213 66.3023 115.239 66.2849L115.265 66.2589C115.273 66.2589 115.282 66.2502 115.282 66.2416V66.2242C115.282 66.0508 115.282 65.86 115.282 65.6605H116.149ZM120.596 66.7879H121.29V67.6552H119.556V67.2042C119.486 67.2649 119.425 67.3169 119.347 67.3603C119.044 67.5771 118.688 67.6985 118.315 67.7245C118.064 67.7419 117.812 67.7159 117.578 67.6378C117.509 67.6205 117.439 67.5944 117.37 67.5598C117.292 67.5251 117.223 67.4817 117.153 67.4383C116.997 67.3343 116.858 67.2042 116.746 67.0481C116.642 66.8833 116.564 66.7099 116.52 66.5191C116.486 66.363 116.477 66.2069 116.486 66.0508C116.503 65.7646 116.607 65.4784 116.789 65.2529C116.936 65.0881 117.11 64.9494 117.301 64.854C117.448 64.7759 117.613 64.7152 117.769 64.6719C118.081 64.5938 118.402 64.5504 118.723 64.5331C118.905 64.5244 119.105 64.5244 119.313 64.5244H119.556C119.556 64.3423 119.425 64.1775 119.287 64.0735C119.157 63.9781 119.001 63.9174 118.844 63.8913C118.654 63.8653 118.471 63.8653 118.289 63.9087C117.986 63.9867 117.7 64.1081 117.431 64.2729L116.997 63.5184C117.335 63.319 117.691 63.1542 118.064 63.0414C118.35 62.9634 118.645 62.9287 118.94 62.9461C119.087 62.9547 119.235 62.9807 119.382 63.0241C119.547 63.0675 119.703 63.1368 119.85 63.2322C120.033 63.3537 120.197 63.5011 120.319 63.6832C120.405 63.7959 120.466 63.9174 120.509 64.0474C120.57 64.2035 120.596 64.3683 120.596 64.5244V66.7879ZM119.295 66.1201C119.434 65.8947 119.521 65.6518 119.556 65.4003H119.313C119.113 65.4003 118.948 65.409 118.792 65.4264C118.541 65.4524 118.298 65.5044 118.055 65.5825C117.856 65.6605 117.674 65.7646 117.587 65.886C117.544 65.9554 117.518 66.0334 117.518 66.1115C117.518 66.1722 117.526 66.2416 117.535 66.3023C117.552 66.3543 117.57 66.4063 117.604 66.4497C117.639 66.5017 117.682 66.5451 117.734 66.5798C117.76 66.5971 117.786 66.6058 117.812 66.6231C117.838 66.6405 117.873 66.6492 117.899 66.6578C118.021 66.7012 118.133 66.7185 118.263 66.7185C118.688 66.7099 119.079 66.4844 119.295 66.1201ZM129.331 66.7879H129.808V67.6552H128.29V65.357C128.281 64.8106 128.091 64.429 127.9 64.2122C127.752 64.0214 127.536 63.9087 127.301 63.8827C127.197 63.8827 127.085 63.9 126.989 63.9434C126.868 63.9954 126.755 64.0735 126.66 64.1689C126.443 64.3943 126.235 64.7846 126.226 65.357V66.7879H126.703V67.6552H125.185V65.357C125.177 64.8106 124.986 64.429 124.795 64.2122C124.648 64.0214 124.431 63.9087 124.197 63.8827C124.093 63.8827 123.98 63.9 123.885 63.9434C123.763 63.9954 123.65 64.0735 123.555 64.1689C123.338 64.3943 123.13 64.7846 123.121 65.357V66.7879H123.59V67.6552H121.612V66.7879H122.081V63.8393H121.508V62.9721H123.121V63.345C123.425 63.0935 123.806 62.9461 124.197 62.9287C124.708 62.9287 125.203 63.1455 125.541 63.5271C125.636 63.6225 125.723 63.7266 125.792 63.8393C125.853 63.7439 125.923 63.6485 126.001 63.5618C126.321 63.1715 126.807 62.9374 127.319 62.9287C127.822 62.92 128.316 63.1368 128.646 63.5271C128.854 63.7439 129.019 64.0041 129.123 64.2816C129.261 64.6198 129.331 64.9841 129.331 65.357V66.7879ZM134.332 65.0968C134.358 65.3136 134.341 65.5304 134.306 65.7472H131.011C131.011 65.7559 131.011 65.7732 131.011 65.7819C131.054 65.9207 131.115 66.0594 131.193 66.1808C131.227 66.2329 131.262 66.2849 131.306 66.337C131.349 66.389 131.392 66.4323 131.436 66.4757C131.479 66.5191 131.531 66.5538 131.583 66.5884C131.635 66.6231 131.696 66.6492 131.748 66.6752C131.878 66.7359 132.017 66.7706 132.155 66.7792C132.329 66.7792 132.502 66.7532 132.658 66.6752C132.867 66.5798 133.049 66.4323 133.179 66.2502L133.881 66.7619C133.664 67.0654 133.37 67.3083 133.023 67.473C132.52 67.7159 131.93 67.7332 131.41 67.5337C131.306 67.499 131.201 67.447 131.097 67.395C131.011 67.3429 130.915 67.2736 130.829 67.2129C130.742 67.1435 130.664 67.0741 130.586 66.9961C130.508 66.9093 130.438 66.8226 130.378 66.7359C130.23 66.5364 130.117 66.3196 130.048 66.0855C129.953 65.7993 129.909 65.5044 129.927 65.2095C129.927 65.1662 129.927 65.1228 129.927 65.0795C129.935 65.0361 129.935 64.9927 129.944 64.9494C129.953 64.906 129.953 64.8626 129.961 64.8193L129.996 64.6805C130.022 64.5851 130.048 64.4897 130.083 64.403C130.1 64.351 130.117 64.3076 130.143 64.2556C130.161 64.2122 130.187 64.1602 130.213 64.1168C130.308 63.9347 130.421 63.7699 130.56 63.6138C130.681 63.4837 130.829 63.3623 130.976 63.2583C131.453 62.9374 132.043 62.8333 132.606 62.9634C132.832 63.0154 133.04 63.1022 133.231 63.2236C133.422 63.3363 133.586 63.4837 133.734 63.6485C133.89 63.8306 134.02 64.0388 134.124 64.2556C134.211 64.455 134.271 64.6632 134.306 64.88C134.324 64.9494 134.332 65.0187 134.332 65.0968ZM131.019 64.88H133.404C133.344 64.6545 133.222 64.4464 133.057 64.2729C132.962 64.1862 132.858 64.1081 132.745 64.0474C132.641 63.9867 132.52 63.952 132.398 63.926C132.268 63.9087 132.138 63.9087 131.999 63.9347C131.843 63.9607 131.687 64.0214 131.557 64.1168C131.47 64.1775 131.392 64.2382 131.332 64.3163C131.253 64.403 131.184 64.4984 131.132 64.6025C131.08 64.6892 131.045 64.7846 131.019 64.88ZM137.926 63.0154V63.0241L137.718 64.0388C137.501 63.9954 137.284 64.0128 137.085 64.0821C136.937 64.1342 136.799 64.2122 136.677 64.3076C136.556 64.4117 136.443 64.5418 136.365 64.6892C136.252 64.8973 136.191 65.1402 136.191 65.383V66.7879H136.755V67.6552H134.578V66.7879H135.151V63.8393H134.457V62.9721H136.191V63.4664C136.339 63.3363 136.512 63.2236 136.703 63.1455C137.085 62.9721 137.518 62.9287 137.926 63.0154ZM142.492 64.2209C142.675 64.5591 142.77 64.932 142.77 65.3136C142.77 65.6952 142.675 66.0681 142.492 66.4063C142.371 66.6318 142.215 66.8399 142.024 67.0134C141.833 67.1782 141.625 67.3256 141.391 67.4297C140.715 67.7505 139.934 67.7505 139.258 67.4297C139.032 67.3256 138.815 67.1782 138.633 67.0134C138.442 66.8399 138.278 66.6318 138.156 66.4063C137.974 66.0681 137.887 65.6952 137.887 65.3136C137.887 64.932 137.974 64.5591 138.156 64.2209C138.278 63.9954 138.442 63.7959 138.633 63.6225C138.815 63.449 139.032 63.3103 139.258 63.1976C139.934 62.8767 140.715 62.8767 141.391 63.1976C141.625 63.3103 141.833 63.449 142.024 63.6225C142.215 63.7959 142.371 63.9954 142.492 64.2209ZM141.729 65.3136C141.729 65.0968 141.677 64.88 141.59 64.6805C141.53 64.5418 141.443 64.4117 141.348 64.2903C141.244 64.1775 141.122 64.0735 140.992 63.9954C140.576 63.7699 140.073 63.7699 139.665 63.9954C139.526 64.0735 139.405 64.1775 139.301 64.2903C139.206 64.4117 139.128 64.5418 139.067 64.6805C138.971 64.88 138.928 65.0968 138.928 65.3136C138.928 65.5391 138.971 65.7559 139.067 65.9554C139.128 66.0941 139.206 66.2242 139.301 66.337C139.405 66.4584 139.526 66.5538 139.665 66.6318C140.073 66.866 140.576 66.866 140.992 66.6318C141.122 66.5538 141.244 66.4584 141.348 66.337C141.443 66.2242 141.53 66.0941 141.59 65.9554C141.677 65.7559 141.729 65.5391 141.729 65.3136ZM147.676 64.2209C147.858 64.5591 147.953 64.932 147.953 65.3136C147.953 65.6952 147.858 66.0681 147.676 66.4063C147.554 66.6318 147.398 66.8399 147.207 67.0134C147.016 67.1782 146.808 67.3256 146.574 67.4297C145.898 67.7505 145.117 67.7505 144.441 67.4297C144.215 67.3256 143.998 67.1782 143.816 67.0134C143.626 66.8399 143.461 66.6318 143.339 66.4063C143.157 66.0681 143.07 65.6952 143.07 65.3136C143.07 64.932 143.157 64.5591 143.339 64.2209C143.461 63.9954 143.626 63.7959 143.816 63.6225C143.998 63.449 144.215 63.3103 144.441 63.1976C145.117 62.8767 145.898 62.8767 146.574 63.1976C146.808 63.3103 147.016 63.449 147.207 63.6225C147.398 63.7959 147.554 63.9954 147.676 64.2209ZM146.912 65.3136C146.912 65.0968 146.86 64.88 146.774 64.6805C146.713 64.5418 146.626 64.4117 146.531 64.2903C146.427 64.1775 146.305 64.0735 146.175 63.9954C145.759 63.7699 145.256 63.7699 144.848 63.9954C144.71 64.0735 144.588 64.1775 144.484 64.2903C144.389 64.4117 144.311 64.5418 144.25 64.6805C144.155 64.88 144.111 65.0968 144.111 65.3136C144.111 65.5391 144.155 65.7559 144.25 65.9554C144.311 66.0941 144.389 66.2242 144.484 66.337C144.588 66.4584 144.71 66.5538 144.848 66.6318C145.256 66.866 145.759 66.866 146.175 66.6318C146.305 66.5538 146.427 66.4584 146.531 66.337C146.626 66.2242 146.713 66.0941 146.774 65.9554C146.86 65.7559 146.912 65.5391 146.912 65.3136ZM153.426 66.7879H154.007V67.6552H152.386V65.357C152.386 65.1141 152.334 64.8713 152.23 64.6458C152.143 64.4811 152.03 64.3336 151.891 64.2035C151.683 64.0128 151.423 63.9 151.137 63.8827C150.851 63.874 150.564 63.9694 150.339 64.1602C150.192 64.2816 150.061 64.4377 149.975 64.6111C149.862 64.8453 149.801 65.0968 149.801 65.357V66.7879H150.365V67.6552H148.188V66.7879H148.761V63.8393H148.067V62.9721H149.801V63.449C150.174 63.1282 150.643 62.9461 151.137 62.9287C151.38 62.9287 151.623 62.9634 151.848 63.0414C152.108 63.1282 152.342 63.2583 152.55 63.4317C152.802 63.6398 153.01 63.9 153.149 64.1862C153.331 64.5504 153.426 64.9494 153.426 65.357V66.7879Z" fill="#092E20"/>
<rect x="6.50742" y="19.8112" width="35.3775" height="35.3775" rx="17.6888" stroke="#092E20" stroke-width="1.21991"/>
<path fill-rule="evenodd" clip-rule="evenodd" d="M27.5683 26.039V26.0327H27.5746H27.6624H27.7311H27.7498H27.7686H27.8185H27.8435L27.9751 26.039H27.9938H28.0313H28.0438H28.1129H28.1254H28.1379H28.2752H28.3002H28.3131L28.3444 26.0827L28.3693 26.1201L28.3756 26.1326L28.4193 26.1893L28.4255 26.1955L28.463 26.2517L28.4755 26.2704L28.4817 26.2767L28.5005 26.2892V26.3079L28.4942 26.3266L28.5067 26.3516L28.5192 26.3578L28.5254 26.3833L28.5317 26.4082H28.5254L28.5129 26.4207V26.4332V26.452L28.5192 26.4644L28.5254 26.4769V26.4832L28.5317 26.5144L28.5254 26.5331H28.5192L28.5067 26.5643L28.5005 26.5956V26.6147L28.5067 26.6272L28.5192 26.6335H28.5384L28.5509 26.6397L28.5571 26.6709L28.5696 26.6959H28.5821L28.5946 26.6897L28.632 26.6522L28.6383 26.646L28.6445 26.6522V26.6709L28.6383 26.6959V26.7146L28.6508 26.7084H28.6695L28.7007 26.7396L28.7194 26.7459L28.7382 26.7521L28.7761 26.7459L28.7948 26.7396H28.8073L28.8198 26.7459L28.826 26.7521L28.8448 26.7771L28.8385 26.7958L28.8135 26.8145L28.8073 26.827V26.8462L28.8198 26.8649L28.8323 26.8712H28.8448L28.8573 26.8587L28.8697 26.827L28.8822 26.8145H28.8885L28.901 26.8208L28.9072 26.84L28.9135 26.8525L28.9197 26.8649V26.9087L28.9259 26.9149L28.9384 26.9274H28.9759H28.9884L29.0263 26.9211H29.0325L29.0575 26.9274L29.0638 26.9461V26.9648L29.07 26.9898L29.0762 27.0148L29.0887 27.0335L29.095 27.0585L29.1075 27.0902L29.1012 27.0964V27.1276L29.1075 27.1589L29.1012 27.1838L29.1137 27.2213L29.095 27.24L29.0887 27.265L29.095 27.2712L29.1075 27.2904H29.1199L29.1324 27.2712L29.1387 27.2588H29.1512L29.1574 27.2712V27.3029L29.1637 27.3341L29.1824 27.3591L29.2011 27.3903L29.2074 27.4091L29.2136 27.4278V27.4528L29.2074 27.5027L29.2136 27.5281L29.2074 27.5469L29.1949 27.5656V27.5843L29.2136 27.6405L29.2074 27.6655L29.2011 27.7092L29.2074 27.7342V27.7534L29.1949 27.7783V27.7846L29.2136 27.8221L29.2074 27.8283V27.8345L29.1824 27.8533L29.1761 27.8658L29.1824 27.8845H29.2011L29.264 27.9594H29.2702L29.289 27.9719L29.2952 27.9848L29.3077 27.9911L29.3264 28.0036H29.3577L29.3702 27.9973L29.3764 27.9848L29.3826 27.9719L29.3951 27.9657L29.4139 27.9594V27.9657H29.4263L29.4451 27.9786L29.4705 27.9973V28.0036L29.4643 28.0285V28.0473L29.4955 28.0598L29.5017 28.066L29.5142 28.1035L29.508 28.116L29.5017 28.1285V28.1347L29.483 28.1285L29.4767 28.1347V28.1409V28.1472L29.4892 28.1534L29.4955 28.1597L29.5017 28.1722L29.508 28.1784H29.5329L29.5517 28.1846L29.5579 28.1909L29.5642 28.1971V28.2101L29.5579 28.2288L29.5517 28.2413L29.5454 28.2475H29.5329L29.5205 28.2413H29.508L29.5017 28.2475L29.4955 28.2538L29.5017 28.2663L29.5205 28.2975V28.3162V28.3287L29.5142 28.3412L29.508 28.3474L29.4892 28.3599L29.483 28.3662L29.4767 28.3787V28.3911L29.483 28.4036L29.4892 28.4286L29.4955 28.4353V28.4665L29.5017 28.4852L29.5205 28.4977L29.5267 28.504H29.5392L29.5454 28.4977V28.479V28.4665H29.5517L29.5704 28.4852L29.5829 28.4915V28.504V28.5227V28.5414L29.5954 28.5602L29.6079 28.5789L29.6266 28.5914L29.6328 28.5976L29.6266 28.6101L29.6204 28.6226L29.6141 28.6289L29.6016 28.6351L29.5829 28.6413H29.5704L29.5579 28.6538L29.5517 28.6668L29.5579 28.673L29.5642 28.6793L29.5829 28.6855L29.5891 28.6917L29.6016 28.723L29.5954 28.7292L29.5891 28.7355L29.5829 28.7292L29.5579 28.723H29.5517H29.5392L29.5329 28.7355L29.5267 28.7542V28.7667V28.7792V28.7854L29.5329 28.7979H29.5392L29.5454 28.8229L29.5517 28.8354L29.5454 28.8478L29.5517 28.8541L29.5642 28.8728L29.5579 28.8853L29.5517 28.8982L29.5579 28.9107L29.5704 28.9232L29.5766 28.9482V28.9544L29.5891 28.9607L29.5954 28.9669V28.9794V28.9919L29.5891 29.0106L29.5954 29.0231L29.6016 29.0294L29.6516 29.0481L29.6641 29.0543L29.6765 29.0731V29.098V29.1105L29.6703 29.1235L29.6578 29.1547V29.1672L29.6516 29.1734L29.6079 29.1984L29.6016 29.2171L29.5891 29.2234V29.2483L29.5704 29.2546L29.5579 29.2858L29.5517 29.2921L29.5454 29.3045V29.317L29.5329 29.3233V29.342L29.5142 29.3674L29.508 29.3924L29.5142 29.4049L29.5267 29.4299L29.5329 29.4486V29.4548L29.5142 29.4736L29.5017 29.4861L29.4955 29.4986V29.5048V29.5173L29.4892 29.536L29.4955 29.5547V29.561L29.4892 29.5672L29.4705 29.5739L29.4643 29.5802L29.458 29.5864L29.4643 29.6051V29.6114L29.4518 29.6176L29.4451 29.6239V29.6301L29.458 29.6426V29.6489V29.6613L29.4518 29.6926L29.458 29.6988V29.705L29.4767 29.7175V29.7238V29.73L29.4518 29.7425L29.4451 29.7488L29.458 29.755L29.4643 29.7612V29.7675L29.458 29.78L29.4518 29.7925V29.7987L29.458 29.8116L29.4643 29.8179L29.458 29.8304L29.4643 29.8366L29.4705 29.8429V29.8553L29.458 29.8616L29.4643 29.8678V29.8741L29.4705 29.8866L29.4643 29.8928L29.4451 29.9115V29.9178V29.924L29.4643 29.9303L29.4705 29.9615V29.974L29.4643 29.9865L29.458 29.999V30.0052L29.4643 30.0114L29.4767 30.0177L29.483 30.0239V30.0306L29.4643 30.0431L29.4705 30.0494L29.4767 30.0556L29.483 30.0618L29.4767 30.0743L29.4892 30.0806L29.4955 30.1056V30.1118V30.1305V30.1368V30.1493L29.4892 30.1617L29.4955 30.168V30.1742V30.1867V30.193V30.1992L29.5017 30.2055V30.2117L29.508 30.2179L29.5142 30.2304L29.5205 30.2554L29.5392 30.2683L29.5579 30.2933L29.5642 30.3183V30.362L29.5766 30.4057L29.5829 30.4557L29.5704 30.4681L29.5579 30.4806V30.4873L29.5454 30.4936L29.5329 30.5123L29.5267 30.5248V30.5685L29.5329 30.5747L29.5454 30.5872L29.5517 30.606V30.6184L29.5579 30.6372L29.5829 30.6622L29.5954 30.6996L29.6016 30.7121L29.6266 30.7375L29.6453 30.7688L29.6516 30.7875L29.6578 30.7937L29.6703 30.8249L29.6832 30.8499L29.6895 30.8811L29.702 30.8936L29.7082 30.944L29.702 30.9752L29.6895 31.0002L29.6832 31.0127V31.0564V31.0876V31.1126L29.6957 31.1313L29.7145 31.1438L29.7332 31.1563L29.7582 31.1688L29.7956 31.1817H29.8081L29.8331 31.2005L29.8768 31.2442L29.883 31.2567L29.8893 31.2941L29.8955 31.3129L29.921 31.3316L29.9272 31.3441L29.9584 31.3753V31.3815V31.4195V31.4569L29.9647 31.4694L29.9772 31.4757L29.9896 31.4944L29.9834 31.5069V31.5131L30.0084 31.5319L30.0146 31.5506L30.0084 31.5631L30.0146 31.5693L30.0521 31.5818L30.0708 31.588L30.0833 31.6005L30.102 31.6068L30.1145 31.6193L30.1208 31.6255L30.127 31.6447L30.1524 31.6697L30.1774 31.6822L30.2086 31.7259L30.2274 31.7571L30.2336 31.7696H30.2398L30.2648 31.7945L30.296 31.8133L30.3023 31.8258L30.3148 31.8699L30.3335 31.8886L30.3522 31.9074L30.3652 31.9511H30.3777L30.4026 31.9698L30.4151 31.9886L30.4214 32.0073H30.4276L30.4339 32.001H30.4526H30.4588L30.4963 32.0323L30.5213 32.051L30.5338 32.0697H30.5525L30.5712 32.076L30.6029 32.1076L30.6279 32.1014L30.6466 32.1201L30.6778 32.1326H30.6903L30.7403 32.1701L30.7527 32.1826L30.759 32.2138L30.7465 32.22L30.709 32.2325L30.6778 32.2388L30.6466 32.245H30.6403L30.5966 32.2637L30.5712 32.27L30.54 32.2762L30.49 32.2825H30.4339L30.3964 32.295L30.3777 32.3012L30.3714 32.3074L30.3335 32.3141H30.2898L30.2648 32.3204L30.2523 32.3141L30.2336 32.3074L30.2086 32.3012L30.1333 32.27L30.0958 32.2512H30.0833L30.0708 32.245L30.0521 32.2388H30.0271H30.0146L30.0021 32.2325L29.9584 32.22L29.921 32.2138L29.8955 32.2013L29.8643 32.1888L29.8206 32.2575L29.8019 32.2512L29.7707 32.245L29.7644 32.2325L29.7145 32.2075L29.6765 32.195H29.6578L29.6266 32.2138L29.6141 32.22L29.6079 32.2325V32.2512L29.5954 32.2575H29.5579L29.5329 32.2512H29.5267L29.508 32.245L29.4955 32.2388L29.4643 32.2263L29.4518 32.2075L29.4326 32.195L29.4076 32.1826H29.4014H29.3951H29.3826H29.3639H29.3577L29.2952 32.2138L29.264 32.22H29.2515L29.2328 32.2263L29.2011 32.245L29.1761 32.2575L29.1449 32.2825L29.1324 32.3012H29.1262L29.1199 32.3141L29.0887 32.3266L29.0762 32.3329L29.0638 32.3391H29.0263L28.9884 32.3266L28.9759 32.3204L28.9572 32.3141L28.9384 32.3012L28.9197 32.295L28.9072 32.2887L28.8885 32.2825H28.851H28.8323H28.8198H28.8073L28.7444 32.2637L28.682 32.2512L28.657 32.2388L28.632 32.2325L28.6133 32.2263L28.6008 32.22H28.5821L28.5384 32.2075L28.4817 32.1888L28.4755 32.1826L28.4255 32.1763L28.3943 32.1701L28.3756 32.1638H28.3631L28.3381 32.1701L28.3194 32.1763H28.2627L28.2315 32.1826L28.2065 32.1763H28.1566L28.1129 32.1826H28.1066L28.1004 32.1888H28.0879H28.0625L28.05 32.1826L28.0125 32.1763H28L27.9938 32.1826H27.9688H27.9501L27.9376 32.1888H27.8939H27.8689H27.8627L27.8497 32.195L27.8123 32.2075L27.7936 32.22L27.7811 32.2512L27.7748 32.2825V32.3012L27.7623 32.3141L27.7561 32.3578L27.7498 32.3828L27.7311 32.414L27.7186 32.4265L27.7061 32.4453L27.6437 32.5264L27.6312 32.5456L27.6058 32.5706V32.5831L27.5621 32.6205L27.5496 32.6455L27.5434 32.6517L27.5309 32.658L27.4934 32.683L27.4747 32.7079L27.4434 32.7708V32.8083L27.431 32.8458L27.4372 32.877V32.8895L27.4747 32.9207L27.4872 32.9332L27.5059 32.9769L27.5184 33.0023L27.5434 33.0335H27.5496L27.5558 33.046L27.5683 33.0585L27.5933 33.0835L27.612 33.1084L27.6687 33.1646L27.6937 33.1896L27.7061 33.1959L27.7311 33.2146L27.7498 33.2208H27.7686L27.7748 33.2275L27.7873 33.2587V33.2837L27.7998 33.29L27.8185 33.2962L27.8435 33.3149L27.8689 33.3462L27.8814 33.3836L27.8939 33.4024L27.9251 33.4148L27.9501 33.4336L27.9751 33.4461L27.9938 33.4523H28.0313L28.05 33.484L28.0562 33.4965L28.0625 33.509L28.0687 33.5277L28.0817 33.5464L28.1004 33.5714L28.1504 33.5901L28.1691 33.6089L28.1753 33.6338L28.1816 33.6463L28.1753 33.6713V33.6905L28.1566 33.7279L28.1504 33.7342V33.7404L28.1441 33.7716L28.1566 33.7904L28.1753 33.8154L28.2003 33.8278L28.219 33.8528H28.2315V33.8653L28.2565 33.884L28.269 33.8965V33.9028L28.2877 33.9282L28.294 33.9407H28.3064L28.3194 33.9532L28.3381 33.9594L28.3444 33.9657L28.3693 33.9844L28.3818 33.9969V34.0094L28.3631 34.0343V34.0406L28.4006 34.103L28.413 34.1218H28.4193L28.4505 34.128L28.4692 34.1342L28.488 34.1472L28.5129 34.1597L28.5509 34.1971L28.5758 34.2159L28.6383 34.2783L28.6445 34.2845L28.6632 34.3095L28.682 34.3282H28.6882L28.7007 34.3407L28.7132 34.3595L28.7569 34.4036L28.7886 34.4348L28.826 34.4598L28.851 34.4848L28.8697 34.5035L28.901 34.541L28.9259 34.5597L28.9384 34.5535L28.9759 34.5597H28.9951H29.0138L29.0388 34.5785H29.0513L29.0638 34.5722L29.095 34.5785L29.1075 34.566H29.1137V34.5597H29.1199L29.1324 34.566L29.1387 34.5535L29.1512 34.566L29.1574 34.5597H29.1637L29.1761 34.566H29.1886L29.1949 34.5722L29.2074 34.5976V34.6101V34.6164L29.2136 34.6226L29.2265 34.6288L29.2453 34.6476L29.2265 34.6601L29.2136 34.6726L29.2453 34.6913H29.264L29.2827 34.685L29.2952 34.6913L29.3077 34.7038L29.3389 34.7163H29.3452L29.3702 34.735V34.7475L29.3639 34.7662L29.3577 34.8099L29.3639 34.8224L29.3702 34.8291H29.3889H29.3951H29.4076L29.4643 34.8416H29.483L29.5017 34.8353H29.5142H29.5329L29.5517 34.8416H29.5642L29.5891 34.8353H29.6079L29.6328 34.8478L29.6516 34.8603L29.6895 34.8791L29.7082 34.8915L29.7457 34.9165L29.7707 34.954L29.8081 34.9602L29.8144 34.9665V34.979V35.0102L29.8206 35.0352L29.8269 35.0543L29.8331 35.0731V35.098L29.8456 35.1105L29.8581 35.1355V35.148L29.8643 35.1792L29.8768 35.2167L29.883 35.2416L29.8893 35.2604L29.8955 35.2791L29.9018 35.2983L29.9147 35.342L29.921 35.3607L29.9272 35.4044L29.9334 35.4294L29.9647 35.5672L29.9772 35.586L29.9959 35.6172L30.0021 35.6422L30.0209 35.6734L30.0333 35.6921L30.0458 35.7233L30.102 35.8424L30.1145 35.8549L30.1399 35.9111L30.1524 35.9361L30.1649 35.961L30.1899 36.0052V36.0177L30.1774 36.0739V36.0989L30.1836 36.1238L30.1899 36.1488L30.2274 36.18L30.2336 36.1992L30.2398 36.2054V36.2242L30.3023 36.3928L30.321 36.4369L30.3335 36.4556L30.3397 36.4681L30.3714 36.5181L30.3777 36.5243L30.3964 36.5556L30.4026 36.5743L30.4151 36.5868L30.4339 36.5993L30.4838 36.6117L30.5462 36.6242L30.5775 36.6305L30.59 36.6492V36.6559L30.5837 36.6684L30.5775 36.6809V36.6934L30.5837 36.7059L30.5775 36.7246L30.5837 36.7433V36.7558V36.7933L30.59 36.7995L30.5837 36.8307L30.5712 36.8495L30.5587 36.862V36.8744L30.565 36.8811V36.8999L30.5587 36.9311L30.5338 36.9623L30.5275 36.9748L30.5338 36.981L30.54 36.9935V36.9998L30.5338 37.0123H30.5275L30.5088 37.031L30.4963 37.0435L30.4838 37.056L30.4713 37.0684L30.4526 37.0872L30.4401 37.0934L30.4276 37.1188L30.4089 37.1251L30.3964 37.1313L30.3839 37.1563L30.3901 37.1688L30.3839 37.175H30.3714L30.3585 37.1875V37.1938V37.2L30.346 37.2125L30.3273 37.225H30.321L30.3273 37.2375L30.3085 37.2749L30.2898 37.2812L30.2836 37.2874L30.2773 37.3062V37.3124L30.2586 37.3187L30.2523 37.3311V37.3441V37.3503L30.2336 37.3628L30.2086 37.3878L30.1961 37.394L30.1836 37.4003L30.1587 37.4315L30.1333 37.444L30.1145 37.4627L30.0895 37.4814L30.0708 37.5002L30.0646 37.5064H30.0521L30.0209 37.5314L30.0021 37.5439L29.9896 37.5564L29.9584 37.5943L29.9397 37.6068L29.9334 37.613L29.921 37.6255L29.8955 37.6317L29.8893 37.638V37.6505L29.8706 37.6879L29.8518 37.6942L29.8393 37.7004V37.7129V37.7192L29.8269 37.7316L29.8393 37.7379H29.8518L29.8581 37.7504H29.8643L29.8706 37.7566L29.8581 37.7691L29.8518 37.7878L29.8331 37.807L29.8206 37.832L29.8269 37.8944L29.8331 37.9007L29.8456 37.9069L29.8144 37.9694L29.7894 38.0193V38.026V38.0322V38.0385L29.7769 38.0447L29.7644 38.0385L29.7332 38.0447L29.7269 38.0572L29.7207 38.0822V38.0947L29.7082 38.1009L29.702 38.1134L29.6895 38.1259V38.1384V38.1509V38.1571L29.6703 38.2445L29.6832 38.2825V38.2887L29.6765 38.3012L29.6578 38.3074L29.6453 38.3386L29.6328 38.3574L29.6204 38.3948L29.6141 38.4136L29.5954 38.4385L29.5891 38.4635L29.5766 38.4889V38.5014V38.5077L29.5642 38.5202L29.5454 38.5514L29.5392 38.5639L29.5329 38.6076L29.5267 38.6326L29.4955 38.6575L29.4892 38.6638L29.483 38.6575L29.458 38.6513H29.4326H29.4263L29.4014 38.67H29.3951H29.3826L29.3577 38.6825H29.3514H29.3327L29.3264 38.695L29.314 38.7329L29.3077 38.7516H29.3015L29.2765 38.8078L29.2578 38.8453V38.864L29.239 38.8952L29.1886 39.0081L29.1387 39.1267L29.1262 39.1517L29.1199 39.1646L29.1137 39.1834L29.0887 39.2333L29.07 39.2583V39.2708L29.0263 39.352L29.02 39.3644V39.3707L29.0138 39.3894V39.4148L29.0263 39.4523V39.4585L29.0076 39.4898L29.0013 39.5023L28.9951 39.5147L28.9884 39.521L28.9509 39.5772L28.901 39.6463L28.8947 39.6588L28.876 39.6775L28.8448 39.69L28.6945 39.7462L28.6757 39.7525H28.6632L28.6445 39.7649L28.5509 39.7962L28.5446 39.7899L28.5317 39.7962L28.5192 39.8024L28.4755 39.8336L28.463 39.8461L28.4567 39.8528L28.4443 39.8715L28.4255 39.8903L28.413 39.9152L28.4068 39.9277L28.3943 39.934L28.3444 39.9714L28.3381 39.9839L28.3319 39.9902L28.3064 39.9964L28.2815 40.0089H28.2752H28.244V40.0151L28.2565 40.0339L28.244 40.0589V40.0651L28.2378 40.0968V40.103V40.1155L28.2565 40.1405L28.269 40.1779L28.294 40.2029L28.3256 40.2279L28.3381 40.2466L28.3506 40.2841L28.3568 40.2966L28.3631 40.3028L28.3756 40.3095V40.3345L28.3818 40.3532L28.3943 40.3657L28.4068 40.3719L28.413 40.3782L28.4255 40.3844H28.4505L28.5067 40.3719L28.5254 40.3844L28.5384 40.3782L28.5446 40.3719L28.5758 40.3407H28.5946L28.6133 40.347L28.6383 40.3907V40.4094V40.4219V40.4594L28.632 40.4906L28.6508 40.5472V40.6659V40.6721V40.7221V40.7849L28.632 40.8224L28.6195 40.8661V40.8911L28.6071 40.9098L28.6008 40.9348V40.9473L28.5883 40.966V40.9785L28.5821 41.0039L28.5883 41.0289L28.6071 41.0539L28.6133 41.0726L28.6195 41.1038L28.632 41.1288L28.657 41.16V41.1663L28.632 41.1912V41.21L28.6258 41.2291L28.6133 41.2354L28.6071 41.2416L28.6008 41.2479L28.6071 41.2604V41.2729L28.6008 41.3103V41.3228L28.6071 41.3665L28.6008 41.379L28.5883 41.3915H28.5696L28.5633 41.404H28.5571H28.5509L28.5446 41.4102L28.5509 41.4165V41.4414L28.5384 41.4606L28.5067 41.5106L28.5005 41.5293V41.548L28.488 41.5543V41.5668L28.5005 41.573L28.4942 41.5793L28.4755 41.5855L28.4692 41.6042H28.463L28.4567 41.6167L28.4505 41.623L28.4567 41.6479L28.5005 41.6858L28.5192 41.6983H28.5254L28.5384 41.7171L28.5509 41.7296H28.5758L28.5946 41.742H28.6133L28.6258 41.7483L28.6383 41.742H28.6508L28.657 41.7483L28.6757 41.7545H28.7007L28.707 41.767L28.7132 41.7795L28.7382 41.792L28.7444 41.8107V41.817L28.7761 41.9423L28.7823 41.986V41.9922L28.7761 42.0047L28.7507 42.011V42.036V42.0484L28.7632 42.0547V42.0672V42.0859L28.7761 42.1363L28.7569 42.1425V42.1488L28.7632 42.155V42.1613H28.7507V42.1675L28.7632 42.18L28.7569 42.1863L28.7507 42.1987V42.205L28.7632 42.2112L28.7698 42.2237L28.7823 42.2425L28.7886 42.2549L28.7761 42.2924L28.7823 42.2986L28.7698 42.3111V42.3236V42.3299L28.7823 42.3361L28.7948 42.374L28.8073 42.4052V42.4177L28.826 42.4427V42.4489L28.8198 42.4614L28.8073 42.4677L28.8135 42.4864V42.4927L28.8198 42.5114L28.8385 42.5738L28.8323 42.5863L28.8385 42.6055L28.8323 42.6117L28.826 42.6242V42.6367L28.8135 42.643L28.8011 42.6492L28.8073 42.6554L28.8198 42.6742L28.826 42.6867L28.8385 42.6992V42.7241V42.7616L28.8448 42.7803V42.8115L28.8385 42.8307L28.8448 42.8619V42.8932V42.9056L28.8573 42.9181L28.8635 42.9431L28.8573 42.9556L28.8697 42.9618H28.876L28.8822 42.9743L28.8885 42.9806L28.9135 43.0118L28.9384 43.018L28.9447 43.0305L28.9572 43.043V43.056L28.9696 43.0622L28.9759 43.0747L28.9951 43.0934L29.0076 43.0997L29.0263 43.1246L29.0388 43.1309L29.0575 43.1434L29.0638 43.1559H29.07H29.0887V43.1621H29.1075L29.1137 43.1808L29.1199 43.1871H29.1324L29.1449 43.1933L29.1637 43.2183L29.1699 43.237L29.1761 43.2433L29.1886 43.2495H29.2074L29.2328 43.262L29.2453 43.2682L29.2578 43.2812H29.264L29.2827 43.2874L29.289 43.2937V43.3062L29.314 43.3124L29.3202 43.3062H29.3327H29.3389L29.3577 43.3124L29.3639 43.3186L29.3702 43.3311L29.3951 43.3374H29.4014H29.4201L29.4263 43.3436V43.3499L29.4326 43.3624L29.4388 43.3873V43.3936V43.4061L29.458 43.4248V43.4435V43.4498L29.4705 43.456L29.4767 43.4435H29.483L29.4892 43.4498L29.4955 43.4623V43.4685L29.4892 43.4747L29.508 43.4872L29.5205 43.5064L29.5267 43.5314L29.5454 43.5501L29.5517 43.5626H29.5579H29.5642L29.5829 43.5938V43.6188V43.625L29.5891 43.6375L29.5829 43.65L29.5954 43.6563V43.6625V43.6687L29.5891 43.6875L29.5954 43.7L29.5891 43.7062V43.7125L29.5954 43.7249L29.6016 43.7379L29.6079 43.7441V43.7504L29.5954 43.7629V43.7753L29.6079 43.8003V43.819V43.8253H29.6141L29.6204 43.8315L29.6141 43.844L29.6204 43.8565L29.6141 43.869L29.6204 43.8752L29.6079 43.894V43.9065L29.6204 43.9377L29.6266 43.9439L29.6453 43.9502L29.6516 43.9631H29.6578L29.6703 43.9756V44.0006L29.6832 44.0193L29.6895 44.0443H29.6957L29.7145 44.038H29.7394L29.7519 44.0443V44.0568L29.7582 44.0693L29.7519 44.0755L29.7394 44.0817H29.7207L29.7145 44.088H29.702L29.6832 44.1067L29.6328 44.1192L29.6141 44.1255H29.6016L29.5891 44.1317L29.5579 44.1379L29.5454 44.1504H29.5329H29.5267L29.5142 44.1629L29.508 44.1816H29.5205H29.5766L29.5829 44.2008L29.5891 44.2133L29.5954 44.2383L29.6079 44.2882L29.6641 44.3757L29.6832 44.4198L29.6957 44.4261V44.4323L29.7082 44.4573L29.7269 44.4822L29.7332 44.4947L29.8144 44.6259L29.8393 44.6575V44.67L29.8581 44.7012L29.8893 44.7449L29.921 44.7762V44.7824L29.9584 44.8199L29.9896 44.8573H29.9959L30.0021 44.8636L30.0396 44.914L30.0646 44.9389L30.1712 45.0513L30.1836 45.0638L30.1961 45.0763L30.2336 45.1205L30.2648 45.1517L30.321 45.2141H30.3335L30.346 45.2266L30.3777 45.2641L30.3901 45.2828L30.4089 45.2953L30.4651 45.3644L30.4776 45.3832L30.5088 45.4206L30.6029 45.5205L30.6279 45.5517L30.6716 45.6021V45.6146L30.6841 45.6271L30.6965 45.6396L30.7028 45.6459L30.7715 45.7208L30.7964 45.752H30.8027L30.8152 45.7707L30.8281 45.777L30.8406 45.7962L30.8906 45.8586L30.8968 45.8648L30.9467 45.9273L30.953 45.9335L30.9592 45.946L30.978 45.9585L30.9905 45.9772L31.0029 45.9897L31.0154 45.971L31.0467 45.9772L31.0658 45.9647L31.0721 45.9585H31.0846H31.1158L31.1283 45.9647V45.9772H31.1345H31.1657L31.172 45.9835L31.1907 46.0022L31.197 46.0151V46.0214L31.2219 46.0651L31.2469 46.1026L31.2594 46.1088L31.2786 46.1338L31.3098 46.1775L31.3285 46.1962L31.3348 46.2025L31.341 46.1962L31.3473 46.1837L31.3535 46.1712H31.366L31.3722 46.1775L31.3847 46.1712H31.4034L31.4097 46.1837L31.4222 46.19V46.2025L31.4284 46.2149H31.4409L31.4534 46.2274H31.4659V46.2466V46.2591L31.4784 46.2716L31.4971 46.3028L31.51 46.3215V46.3465L31.5413 46.3652V46.3902L31.5662 46.4589V46.4718L31.5725 46.5031V46.5343L31.5662 46.5405L31.5475 46.553L31.5413 46.5717L31.4971 46.5842V46.5905V46.5967V46.603L31.5034 46.6217V46.6342L31.51 46.6529V46.6592L31.5225 46.6654V46.6716L31.5163 46.6841L31.5225 46.7096L31.5163 46.7158L31.51 46.722L31.5225 46.7283V46.7345L31.51 46.7408L31.5163 46.7533L31.535 46.7595H31.56L31.5725 46.772L31.56 46.7907L31.5475 46.8095L31.5413 46.8219L31.535 46.8532L31.5288 46.8844V46.8969L31.535 46.9218L31.56 46.9785V47.0222L31.5537 47.0347V47.0534L31.535 47.0846L31.5288 47.1221V47.1408L31.5413 47.1533L31.5537 47.1663L31.56 47.1787V47.1912V47.2162L31.5537 47.2349L31.5413 47.2412L31.5475 47.2599L31.56 47.2724V47.2849L31.5662 47.2974L31.5975 47.3161L31.6099 47.3411L31.6162 47.3598V47.3661L31.6224 47.3915L31.6537 47.4289L31.6786 47.4602L31.6849 47.4664L31.6911 47.4727V47.5101L31.7036 47.5538L31.7098 47.5663L31.7223 47.585L31.7353 47.6292V47.6354V47.6417L31.7161 47.6667L31.7223 47.6854L31.7727 47.7291V47.7353L31.779 47.7416L31.7665 47.7603H31.7727L31.754 47.7791L31.7286 47.7853L31.7161 47.7915L31.7098 47.7978L31.6974 47.8165L31.6849 47.8228H31.6786L31.6724 47.8165L31.6661 47.7853L31.6537 47.7791H31.6412L31.6224 47.7728L31.5912 47.7791H31.585L31.5662 47.7915L31.56 47.8103V47.8669L31.5537 47.8919V47.9294V47.9356L31.56 47.9481L31.5662 47.9543L31.5725 47.9731V47.998V48.0043L31.5662 48.0105L31.56 48.023L31.535 48.0355L31.5225 48.0417V48.0542L31.535 48.0605L31.5475 48.0667L31.56 48.0797V48.0984L31.5475 48.1234L31.5413 48.1296L31.5163 48.1483L31.5034 48.1733V48.192L31.51 48.2108L31.5034 48.2295V48.2358L31.5163 48.242L31.535 48.267L31.5537 48.2795V48.2986L31.56 48.3174L31.5662 48.3361V48.3486L31.5725 48.3861V48.3923L31.585 48.3985L31.6099 48.3923H31.6162L31.6224 48.3985V48.411L31.6162 48.4235V48.4422L31.6224 48.4672L31.6412 48.5234L31.6474 48.5426L31.6599 48.5551L31.6724 48.5801L31.6786 48.6113L31.6849 48.6487L31.6786 48.6737L31.6724 48.6862V48.7049V48.7237L31.6849 48.7362L31.6974 48.7616V48.7741L31.6911 48.7928L31.6786 48.8115L31.6661 48.8053L31.6474 48.7803H31.6349H31.6224L31.6037 48.7866L31.5912 48.7928H31.5787L31.56 48.8053L31.5475 48.824L31.535 48.849L31.5225 48.8677H31.5163H31.51L31.4971 48.8615H31.4846L31.4534 48.8552L31.4472 48.849L31.4347 48.8115L31.4409 48.799L31.4472 48.7678L31.4409 48.7616L31.4284 48.7486V48.7362L31.4347 48.7174L31.4534 48.6862L31.4596 48.6737L31.4659 48.6612L31.4596 48.6487L31.4472 48.6425H31.4347L31.3847 48.6487H31.3722H31.3098L31.2656 48.6238H31.2344H31.2282L31.2219 48.6113L31.2157 48.5988V48.5925H31.1907L31.1657 48.6113H31.1532L31.1595 48.5988L31.1408 48.5364L31.1283 48.5234H31.0908L31.0783 48.5172L31.0658 48.4922L31.0533 48.486L31.0092 48.4735L30.9842 48.4422L30.978 48.4235L30.9717 48.411L30.9405 48.3861L30.9343 48.3673L30.9218 48.3548L30.8968 48.3423H30.8781L30.8593 48.3486H30.8468L30.8406 48.3361L30.7652 48.3111L30.734 48.3174L30.7028 48.3111L30.6466 48.2986L30.6091 48.2857L30.5775 48.2732H30.5587L30.5338 48.2795H30.5213L30.4963 48.2607L30.4838 48.2545H30.4713L30.4526 48.267H30.4463L30.4214 48.2545L30.3777 48.2233H30.3652L30.3522 48.2358L30.296 48.2482L30.2586 48.2607L30.2398 48.2732L30.2086 48.2986L30.1836 48.3049H30.1712L30.1083 48.3423L30.0895 48.3486L30.0833 48.3548L30.0708 48.3361L30.0646 48.3174V48.3111V48.2986L30.0458 48.3111H30.0333H30.0209L30.0084 48.3049L30.0021 48.2986L30.0084 48.2732V48.2607L30.0021 48.242L29.9772 48.2108L29.9584 48.192H29.9334L29.9272 48.1858L29.921 48.1733L29.9147 48.1608H29.883L29.8955 48.1358V48.1234L29.8768 48.1171L29.8393 48.1109L29.8206 48.1046H29.8019H29.7894L29.7707 48.1234L29.7519 48.1483L29.7394 48.1421L29.7332 48.1358L29.7207 48.0984H29.6957V48.1046L29.6895 48.1358V48.1483L29.6765 48.1608H29.6641L29.6516 48.1546H29.6391L29.6204 48.1796V48.1983L29.6079 48.217H29.5704H29.5579H29.5454V48.2045V48.1858V48.1796L29.5392 48.1733H29.5267L29.4955 48.217L29.4892 48.2233H29.4767L29.4643 48.2045V48.1796L29.4451 48.1608L29.4139 48.1483L29.3951 48.1358L29.3702 48.1109L29.3514 48.1234L29.3389 48.1608L29.3327 48.1671L29.3015 48.1733H29.2765L29.2578 48.1796H29.239L29.2265 48.1733L29.1949 48.1483L29.1886 48.1421V48.1358L29.2136 48.1171L29.2199 48.1046L29.2265 48.0797V48.0667V48.0542L29.1761 48.0417L29.1574 48.0355V48.0105V47.9731L29.1512 47.9606H29.1387L29.1199 47.9668V47.9731L29.1324 48.0043V48.0105L29.1262 48.0168L29.095 48.0105L29.0762 48.0168L29.0638 48.0293V48.0355L29.0513 48.048L29.0263 48.0605H29.0138L28.9884 48.0355L28.9821 48.0293L28.9509 48.0542H28.9447L28.9384 48.0417H28.9322L28.9447 48.0168L28.9509 48.0043L28.9447 47.9918L28.9384 47.9855H28.9197L28.8947 48.0043L28.8822 47.998L28.876 47.9918L28.8822 47.9855H28.9072V47.9731V47.9668L28.851 47.9294H28.8448L28.8385 47.9356V47.9481L28.851 47.9606L28.8448 47.9668H28.8385L28.826 47.9606H28.8011L28.7886 47.9356L28.7761 47.9169H28.7698H28.7507L28.707 47.9231L28.6945 47.9169L28.6882 47.8981L28.6945 47.8794L28.6882 47.8732L28.682 47.8669H28.657L28.632 47.829L28.6258 47.8165L28.6195 47.7915L28.6071 47.7791H28.5946L28.5758 47.7728L28.5696 47.7541H28.5571L28.5509 47.7603L28.5384 47.7728L28.5254 47.7666L28.5067 47.7541L28.488 47.7791L28.4692 47.7853L28.4505 47.7978H28.4443L28.3756 47.8228L28.2815 47.8607H28.2752L28.2627 47.8669H28.2503L28.2378 47.8544L28.2253 47.8352L28.219 47.829L28.1878 47.8103L28.1628 47.804V47.8103L28.1191 47.804L28.1004 47.8103L28.0625 47.804L28.0125 47.7978H27.9938H27.9876H27.9626L27.9439 47.804H27.9314L27.9126 47.8165L27.9064 47.829L27.8877 47.8352L27.7623 47.829L27.7498 47.8352H27.7436L27.6562 47.829L27.5808 47.8352H27.4996H27.4434H27.4122H27.3806H27.3743H27.3618H27.2494H27.1491L27.1179 47.829L27.0866 47.8352H26.9992H26.799H26.7428H26.7116L26.6613 47.829L26.6551 47.8352H26.655L26.6549 47.8352V47.8352H26.4927H26.4486H26.3861H26.3549H26.2421L26.2046 47.8419L26.1984 47.8352H26.0985H26.0548H25.9919L25.9981 47.8102L25.9731 47.7978V47.7915L25.9856 47.7853L25.9981 47.7728L26.0044 47.7665L26.0106 47.7603V47.754L25.9919 47.7353L25.9981 47.7166L25.9794 47.7103L25.9669 47.6729H25.9607L25.9482 47.6854H25.9419V47.6729H25.9294L25.9232 47.6666V47.6541L25.9107 47.6417L25.8982 47.6292H25.892L25.8795 47.6417L25.867 47.6354L25.8607 47.6479L25.8483 47.6541H25.842H25.8358L25.8295 47.6479L25.8233 47.6541H25.817H25.8108L25.8046 47.6479V47.6417H25.7983L25.7916 47.6479H25.7854L25.7791 47.6354L25.7729 47.6292V47.6229H25.7791L25.7854 47.6292H25.7916V47.6167L25.7854 47.61H25.7729L25.7542 47.6229V47.6167L25.7229 47.61L25.648 47.6292L25.623 47.6417L25.6293 47.6541L25.623 47.6604L25.6293 47.6729L25.6105 47.6666V47.6729H25.5981L25.5918 47.6854L25.5793 47.6916L25.5731 47.6979V47.7041L25.5664 47.6916L25.5601 47.6854L25.5539 47.6791H25.5477L25.5352 47.6854L25.5289 47.6791L25.5164 47.6979H25.504L25.4977 47.7041L25.4852 47.6979L25.479 47.7041L25.4727 47.6979L25.4665 47.6791H25.4602V47.6854H25.4478L25.4415 47.6791H25.429H25.4103H25.3978H25.3916H25.3853H25.3666L25.3416 47.6916L25.3224 47.6854L25.2975 47.6916L25.285 47.6854L25.2662 47.6666L25.235 47.6729H25.2288V47.6791L25.2413 47.6854L25.1976 47.7041H25.1788L25.1726 47.6916L25.1601 47.6854H25.1538L25.1476 47.6916V47.7166H25.1414H25.1351H25.1226H25.1164L25.1097 47.7041H25.0972L25.0847 47.6979H25.0535L25.0473 47.6916V47.6729L25.0348 47.6604V47.6729L25.0285 47.6791L25.0098 47.6854L24.9973 47.6791H24.9848V47.6854V47.6916L24.9786 47.6979L24.9473 47.7166L24.8974 47.7291H24.8782H24.872L24.8657 47.7166H24.8408L24.8345 47.7103L24.8283 47.7166H24.8158L24.7721 47.6916L24.7471 47.6854L24.7409 47.6979H24.7159L24.6467 47.6854L24.628 47.6729L24.6218 47.6666H24.6155H24.5968H24.5718L24.5656 47.6604V47.6479V47.6417L24.5468 47.6354L24.4844 47.6666H24.4532L24.4028 47.6541H24.3778L24.3466 47.6666H24.3279L24.3029 47.6729L24.2467 47.6666L24.1776 47.6479L24.1588 47.6417L24.1026 47.6354L24.0589 47.6229H24.0464H24.0277H23.9965H23.9778L23.9648 47.6479L23.9586 47.6541V47.6604L23.9336 47.6666L23.9149 47.6604H23.9086L23.9024 47.6729H23.8774L23.8462 47.6604L23.8399 47.6541L23.8337 47.6354L23.8212 47.6229L23.8087 47.6167L23.8025 47.6229L23.765 47.6167L23.7463 47.61H23.7396H23.7333L23.7209 47.6292H23.7021H23.6959L23.6772 47.61L23.6459 47.5913L23.6397 47.5975L23.6147 47.6167H23.5897L23.571 47.61L23.5648 47.6167H23.5523L23.546 47.6037H23.5273H23.5019H23.4956L23.4894 47.61H23.4831H23.4769L23.4582 47.6037L23.4394 47.5975L23.4269 47.5913L23.4207 47.6037V47.61H23.402L23.3957 47.6037H23.3832H23.3708L23.3583 47.5913L23.3395 47.6037L23.3333 47.5975L23.327 47.6037H23.3021L23.2958 47.5975H23.2896L23.2829 47.6037L23.2642 47.61H23.2579L23.2392 47.5975H23.2329L23.2267 47.61H23.2204L23.2142 47.6167L23.2017 47.61L23.1892 47.6037H23.183L23.1705 47.6167L23.1518 47.61H23.133H23.1268L23.1205 47.6292H23.1081H23.1018V47.6167H23.0893L23.0768 47.6229L23.0644 47.61L23.0514 47.6037H23.0452L23.0389 47.61V47.6229L23.0202 47.6167H22.9952L22.9827 47.61H22.9765L22.9702 47.6167H22.964L22.9578 47.6292L22.9453 47.6229H22.9203L22.9016 47.6292H22.8953V47.61L22.8828 47.5975L22.8891 47.585V47.5788H22.8766L22.8641 47.585H22.8579L22.8391 47.5663L22.8199 47.56L22.8075 47.5538L22.795 47.5288H22.7887L22.7762 47.5351L22.745 47.5413H22.7325L22.7263 47.5351L22.7013 47.5476L22.6888 47.56H22.6826L22.6763 47.5663L22.6514 47.56L22.6201 47.5788L22.6139 47.5725L22.6014 47.5663L22.576 47.5538H22.551L22.5323 47.56L22.5135 47.5538L22.5011 47.5725L22.4948 47.5788H22.4886L22.4761 47.5725L22.4698 47.5788H22.4573L22.4511 47.5725L22.4386 47.5663L22.4261 47.5725L22.4074 47.5663L22.3949 47.5725L22.3887 47.5788L22.3695 47.585L22.3445 47.5663H22.3133H22.3008L22.307 47.5788L22.3133 47.585L22.3008 47.5913H22.2883L22.2758 47.5788L22.2633 47.5725V47.5788L22.2446 47.585L22.2259 47.5788L22.1822 47.5663L22.1634 47.5788H22.151L22.138 47.5913L22.1255 47.5975V47.6037L22.1447 47.61V47.6229H22.151V47.6292L22.1447 47.6417V47.6479H22.151V47.6541L22.138 47.6729L22.1255 47.6791L22.1193 47.6916L22.113 47.7103L22.0943 47.7228L22.1006 47.7291L22.113 47.7353L22.1068 47.7416V47.754V47.7603L22.1006 47.7665L22.1068 47.7728L22.113 47.779L22.1006 47.7978L22.0943 47.804L22.1006 47.8165L22.113 47.829H22.0693H21.8941H21.8503L21.8066 47.8165L21.7817 47.804H21.7629L21.7317 47.829H21.6563H21.5127V47.829H21.4753H21.4061H21.325H21.1996H21.1559H20.9057H20.7367H20.6805H20.668H20.6555H20.5931H20.4428H20.3991H20.2113H20.1801H20.1489H20.1426L20.061 47.8353L20.0048 47.829H19.9798H19.8987H19.7921L19.7858 47.8353H19.7796L19.7421 47.8607L19.7296 47.8482L19.7234 47.829H19.7171H19.7047H19.6922H19.6859L19.6609 47.8544L19.6485 47.8607L19.6422 47.8544L19.6293 47.8482H19.623H19.6168L19.5981 47.8544H19.5419L19.5231 47.8482L19.5106 47.829L19.5044 47.8165L19.4982 47.8228L19.4919 47.8482L19.4794 47.8544L19.4607 47.8482L19.4482 47.842L19.3978 47.8228H19.3916L19.3791 47.829L19.3666 47.8228L19.3291 47.7978L19.2917 47.7916H19.2792L19.2729 47.7853L19.2542 47.7791H19.2417L19.223 47.7978L19.2167 47.7916L19.2105 47.7853L19.2042 47.7541L19.198 47.7478L19.1918 47.7354H19.1793L19.1663 47.7166H19.1601L19.1414 47.7104L19.1351 47.6979L19.1039 47.6854H19.0977L19.0852 47.6604L19.0602 47.5975V47.5788L19.0664 47.5538V47.5226L19.0539 47.5039L19.0415 47.4852L19.0477 47.4727V47.4602L19.0539 47.4352V47.3977L19.0415 47.3349V47.3224L19.0602 47.3036V47.2911V47.2849L19.0539 47.2474L19.0602 47.2287L19.0415 47.1663L19.0539 47.1408L19.0477 47.0971L19.0539 47.0409L19.0664 47.0222L19.0727 46.9972L19.0789 46.9723V46.9473L19.0852 46.941L19.0914 46.8844V46.8782L19.0977 46.8719L19.1039 46.8157L19.1226 46.7845L19.1289 46.772L19.1226 46.7533V46.7408L19.1538 46.7096L19.1601 46.6717L19.1538 46.6404L19.1601 46.628L19.1726 46.603L19.1793 46.5842L19.1855 46.578L19.1918 46.5718L19.1793 46.5343L19.1663 46.4968L19.1726 46.4527L19.1855 46.4152H19.1918H19.198V46.4027L19.2042 46.3777L19.198 46.3403L19.2042 46.3216V46.3091L19.2105 46.3028V46.2903L19.2167 46.2778L19.223 46.2466L19.2292 46.2274L19.2542 46.1962L19.2604 46.19L19.3042 46.1525L19.3104 46.1338L19.3166 46.1275L19.3229 46.1088L19.3166 46.0963L19.3229 46.0776L19.3291 46.0651L19.3354 46.0589L19.3291 46.0276L19.3416 46.0214H19.3479V46.0085L19.3416 45.9772L19.3229 45.946L19.2854 45.8711L19.2542 45.7962L19.248 45.777V45.7707L19.2729 45.7832L19.2604 45.7645L19.248 45.7583L19.2417 45.7395L19.223 45.7083L19.2105 45.6896L19.198 45.6584L19.2042 45.6459L19.198 45.6396L19.1918 45.6084L19.1793 45.5709L19.1663 45.5585L19.1476 45.533L19.1289 45.5143L19.1164 45.5018L19.0977 45.4643L19.0602 45.4331V45.4269L19.0352 45.3957L18.9978 45.3582L18.9603 45.314L18.8912 45.2454H18.8849L18.8662 45.2266L18.8412 45.2017H18.835L18.8225 45.1954L18.8037 45.1767L18.7725 45.1579L18.7159 45.108H18.7034L18.6909 45.0951L18.6784 45.0763L18.6722 45.0826L18.6659 45.0763L18.6597 45.0701V45.0638L18.6659 45.0576L18.6722 45.0701L18.6847 45.0389L18.6909 45.0201L18.6971 45.0139L18.6909 45.0076L18.6847 44.9952H18.6722V44.9827V44.9639L18.6784 44.9265H18.6847V44.9515L18.6909 44.939L18.7034 44.9452H18.7226V44.939V44.9327H18.6971V44.9265L18.7096 44.9202L18.6909 44.8953V44.8828L18.6847 44.8953V44.889L18.6784 44.8449L18.6285 44.7574L18.5848 44.6825L18.5535 44.6321L18.4911 44.5572V44.5509H18.4973H18.5036L18.5286 44.5759V44.5822L18.5348 44.5759L18.5411 44.5822L18.5598 44.5947L18.5723 44.5884V44.5822L18.5848 44.5697L18.5972 44.5572V44.5322V44.5072L18.6097 44.476L18.6222 44.451H18.6285L18.641 44.4448H18.6472L18.6659 44.4573L18.6909 44.4698V44.4823L18.7096 44.4885L18.7159 44.4948V44.501V44.5135L18.7351 44.5072L18.7538 44.5385L18.76 44.5447L18.7788 44.5322V44.5197L18.7725 44.5135L18.7788 44.4948V44.4823L18.7913 44.476L18.8037 44.4698L18.8287 44.476L18.835 44.451L18.8225 44.4448L18.7975 44.4198V44.4131V44.4069L18.785 44.4006L18.7788 44.3944L18.7725 44.3882L18.76 44.3757L18.7538 44.3632L18.76 44.3569L18.7663 44.3507L18.785 44.3569L18.7913 44.3507L18.7975 44.332L18.7913 44.3195L18.7788 44.3132L18.7725 44.307H18.7226L18.7096 44.3007L18.6971 44.307H18.6847H18.6784H18.6722L18.6659 44.3007L18.6597 44.2883L18.6534 44.257V44.2445H18.6659V44.2508L18.6722 44.2445V44.2321L18.6847 44.1946L18.7159 44.1504H18.7226L18.7413 44.1567L18.7475 44.1504V44.1255V44.113L18.7538 44.1067H18.7663L18.7788 44.0755L18.81 44.0443L18.8225 44.038V44.0256L18.835 44.0068V44.0006L18.8037 44.0131H18.7975L18.81 43.9943H18.8037H18.7913V43.9881L18.8037 43.9564L18.7975 43.9439L18.785 43.9819L18.7725 44.0006V44.0131V44.0256L18.785 44.0443V44.0505L18.7538 44.0568L18.7351 44.063H18.7096V44.0693V44.0755L18.6909 44.0942L18.6847 44.1005L18.6722 44.1255L18.6472 44.1192L18.641 44.1255L18.6534 44.138H18.6472L18.6285 44.1442L18.6097 44.1567L18.5848 44.1692H18.5723L18.5473 44.1629L18.5348 44.1504L18.5286 44.1567L18.5098 44.1504L18.4782 44.138V44.1317L18.4657 44.1255L18.4532 44.1317L18.4407 44.1504L18.4469 44.1567L18.4594 44.1817V44.2008L18.4719 44.2445L18.4657 44.2633L18.4532 44.2758L18.4469 44.2695H18.4345L18.4032 44.2758H18.397L18.3658 44.2508V44.2445L18.3533 44.2321L18.3408 44.2196L18.3346 44.2133L18.3283 44.2071H18.3221H18.3096L18.3033 44.2133L18.3158 44.2321V44.2383L18.3221 44.2445L18.3283 44.257L18.3221 44.282V44.2945L18.3158 44.3007H18.3096L18.3158 44.3132H18.3283L18.3221 44.3195L18.3283 44.3444L18.3533 44.3694L18.3033 44.3944L18.2592 44.4131L18.2404 44.4198H18.2155L18.178 44.4069L18.1593 44.4006L18.1218 44.3882L18.0531 44.3382L18.0344 44.3195L17.984 44.2508L17.9778 44.2445V44.2508H17.9715L17.959 44.2445H17.9465H17.9403L17.9528 44.257L17.9465 44.2695L17.934 44.2633L17.9153 44.282V44.2883V44.2945V44.3007H17.9091L17.9028 44.307H17.8779V44.2883L17.8716 44.2758H17.8591H17.8529H17.8466L17.8404 44.2883V44.2945H17.8341V44.2883L17.8279 44.282V44.2695V44.2633V44.2508L17.8341 44.2321V44.2258L17.8154 44.2071L17.8217 44.2008L17.8279 44.2071L17.8341 44.2008V44.1946L17.8217 44.1817L17.8279 44.1692V44.1629L17.8025 44.1567H17.7713H17.7588H17.7463L17.74 44.1629H17.7338H17.7088L17.7026 44.1504H17.6901H17.6776L17.6651 44.1629H17.6526L17.6464 44.1567V44.1504L17.6339 44.1567L17.6152 44.1442L17.6027 44.1255L17.546 44.088L17.5335 44.0818L17.5211 44.0755L17.4711 44.0568L17.4586 44.0443H17.4524L17.4399 44.0505L17.4274 44.0443V44.0318L17.4087 44.0193L17.3899 44.0006L17.3774 43.9881H17.3587V43.9819L17.365 43.9756L17.3712 43.9694L17.3774 43.9502L17.3837 43.9439L17.3774 43.9252L17.3837 43.869L17.3899 43.8503L17.3962 43.8378L17.4024 43.8191V43.8128L17.3962 43.8003V43.7941V43.7816L17.3774 43.7629L17.3712 43.7379L17.3587 43.725L17.3395 43.7062L17.3333 43.7L17.3146 43.6875L17.2896 43.6813L17.2709 43.6688H17.2646L17.2521 43.65L17.2334 43.6188L17.2209 43.6126L17.2147 43.6063V43.6001L17.2209 43.5751L17.2271 43.5501L17.2209 43.5376L17.2022 43.5127L17.1959 43.4872L17.1897 43.4623L17.1834 43.4498L17.1897 43.4248L17.1834 43.3936L17.1647 43.3686V43.3499L17.1709 43.3374L17.1647 43.3311V43.3187V43.2999L17.1772 43.2812L17.1897 43.275H17.2022V43.262L17.1897 43.2558L17.1834 43.237V43.2308H17.1897L17.2209 43.1933L17.2022 43.1746H17.1959L17.1772 43.1684L17.1647 43.1434L17.1397 43.1247L17.1272 43.1371H17.121L17.1081 43.1247L17.0831 43.1122L17.0768 43.0934V43.0872H17.0831V43.0809H17.0706L17.0644 43.0872V43.0809L17.0519 43.0685H17.0269L17.0019 43.0809V43.0934L16.9957 43.0997L16.9894 43.1059L16.9769 43.1184H16.9645L16.9582 43.1247L16.9395 43.1309L16.902 43.0872L16.8958 43.0809L16.8891 43.0685L16.8766 43.0622H16.8641L16.8391 43.0497L16.8142 43.0305L16.8017 43.0243L16.8142 43.0181V43.0118L16.8017 42.9931L16.7954 42.9494V42.9431L16.8142 42.9494L16.7892 42.9306L16.7829 42.9119L16.758 42.8807L16.7642 42.8744L16.7517 42.8557V42.8432L16.7267 42.837V42.8307V42.8182H16.7142L16.7018 42.8116L16.6955 42.7866L16.6893 42.7491L16.6768 42.7429L16.6705 42.7616V42.7803V42.8116V42.8182L16.7018 42.8495L16.7142 42.8744L16.7267 42.9431V42.9931V43.0118L16.733 43.043V43.0497L16.7455 43.0622L16.7517 43.0685V43.0934H16.758L16.7704 43.0997H16.7829L16.8079 43.1309V43.1371L16.8142 43.1559L16.8079 43.1621H16.8204L16.8266 43.1684V43.1746L16.8017 43.2058L16.7829 43.2121L16.7642 43.2183H16.7517L16.7455 43.2246L16.7142 43.2121H16.6643L16.6389 43.2058L16.6014 43.2121L16.5889 43.2058L16.5515 43.2183H16.5327L16.514 43.2121L16.5078 43.2058L16.489 43.1933H16.4578L16.4516 43.1871H16.4324H16.4261L16.4136 43.1746L16.4074 43.1621L16.3949 43.0809L16.3887 43.0685V43.0622H16.4012H16.4261L16.4391 43.0685V43.0622H16.4516V43.0497V43.0368V43.0305V43.0243L16.4391 43.0056L16.4324 42.9993L16.4261 42.9868L16.4012 42.9556L16.4074 42.9244L16.4199 42.9057L16.4261 42.8932L16.4324 42.8682V42.8495L16.4453 42.8557H16.4765L16.489 42.8495L16.4953 42.8432V42.837L16.5078 42.8182V42.8116L16.514 42.8182L16.5202 42.8053L16.514 42.7991H16.5265H16.5327V42.7866L16.514 42.7679L16.5078 42.7491L16.5015 42.7366L16.5078 42.7241V42.7117H16.4953L16.489 42.7179L16.4828 42.7241H16.4578L16.4516 42.6742L16.464 42.643L16.4828 42.593L16.489 42.5676H16.4953L16.514 42.5489L16.5265 42.5426L16.539 42.5489L16.5452 42.5676L16.5639 42.5738H16.5827L16.5952 42.5676L16.6326 42.5426L16.6576 42.5239V42.4927L16.6514 42.4802L16.6201 42.4552L16.6139 42.4427L16.6077 42.424L16.6139 42.4115L16.6201 42.399L16.6264 42.3928L16.6451 42.3678L16.6576 42.3615L16.7018 42.3549L16.708 42.3424L16.7142 42.3299L16.7018 42.3049V42.2987V42.2862H16.7205L16.7392 42.2737L16.7455 42.2674L16.733 42.255L16.7455 42.2487L16.7642 42.23V42.2175L16.7704 42.2112H16.7829L16.7892 42.205H16.7954L16.8017 42.1988L16.7892 42.1863H16.7704L16.7642 42.18V42.1738L16.7954 42.1426L16.8017 42.1363H16.8079V42.1296L16.8017 42.1171L16.8204 42.1109L16.8266 42.1047L16.8204 42.0859L16.8266 42.0734L16.8329 42.0609L16.8454 42.0297L16.8641 42.0172L16.8766 42.0048L16.8891 41.9985V41.986V41.9735L16.9332 41.961L16.952 41.9486L16.9707 41.9173L16.9832 41.8982V41.8857L16.9894 41.8794L17.0019 41.8607L17.0144 41.8357L17.0331 41.8107V41.792L17.0394 41.7421L17.0331 41.7108V41.6921V41.6542L17.0269 41.598L17.0456 41.5418L17.0581 41.5043L17.0768 41.4165L17.0893 41.404L17.0831 41.3853V41.3665L17.0893 41.3478V41.3353L17.0768 41.3041L17.0831 41.2791L17.0893 41.2666L17.1143 41.2354L17.121 41.2292L17.1272 41.1975L17.1335 41.1725L17.1397 41.16L17.1522 41.1351L17.1834 41.0976L17.1897 41.0664L17.2084 41.0414L17.2147 41.0289V40.9977L17.2022 40.9723L17.1897 40.9535L17.1709 40.9348L17.1522 40.9223L17.1272 40.8973L17.121 40.8786L17.1018 40.8474L17.0706 40.8349L17.0644 40.8162L17.0456 40.8037L17.0394 40.7912V40.7662L17.0331 40.7533L17.0394 40.7408L17.0519 40.7595H17.0581L17.1018 40.6971L17.121 40.6784V40.6659L17.1018 40.6534L17.1081 40.6409V40.6347L17.1335 40.6222L17.1397 40.6097V40.5909V40.5847L17.1335 40.5785L17.1081 40.5722L17.0956 40.5597L17.0831 40.5347L17.0893 40.5281L17.1018 40.5218L17.1272 40.4844L17.1834 40.4531L17.2147 40.3969L17.2334 40.3844L17.2709 40.372L17.3395 40.3158L17.3587 40.3028L17.3712 40.2903L17.3899 40.2841L17.4024 40.2716L17.4773 40.2029L17.4898 40.1967L17.5335 40.153L17.546 40.1405L17.6089 40.0843H17.6152L17.6714 40.0339L17.7026 40.0027L17.7213 39.959L17.7338 39.9215L17.7588 39.8965L17.7713 39.884L17.8279 39.8399L17.8591 39.8274H17.8841L17.8966 39.8212L17.9091 39.8149H17.934L17.9715 39.7525L17.9778 39.7275L17.9902 39.715L18.0215 39.6526L18.0406 39.6338H18.0531L18.0594 39.6276V39.6213L18.0469 39.6147L18.0531 39.6084H18.0656L18.0781 39.6022L18.0844 39.5834L18.0781 39.5772L18.0844 39.5585L18.0781 39.546V39.5335L18.0906 39.5272V39.4898L18.1031 39.4773H18.1093L18.1343 39.4898L18.1593 39.5023H18.1718L18.1843 39.5148L18.2467 39.546L18.2659 39.5522L18.2971 39.4586V39.4461V39.4273V39.4211L18.3033 39.4149L18.3096 39.3894L18.3221 39.3645V39.352L18.3158 39.3395L18.3283 39.3207L18.3221 39.3145L18.3283 39.3083L18.3346 39.2833L18.347 39.277L18.4032 39.2895L18.4282 39.2958H18.4532L18.4844 39.2895L18.5348 39.2583L18.5723 39.2396V39.2333L18.5785 39.2271L18.5723 39.2084V39.1959V39.1834V39.1646L18.5848 39.1517L18.5972 39.1267V39.1205H18.6097L18.616 39.1267H18.6285L18.6472 39.133L18.6659 39.1455L18.6784 39.133H18.6847H18.7034V39.1205L18.7159 39.1392L18.7226 39.1455L18.7351 39.158V39.1646L18.7538 39.1517H18.76L18.7725 39.158L18.7788 39.1517H18.785L18.7913 39.158H18.8037L18.81 39.1517H18.8162V39.1455L18.8225 39.133L18.835 39.0643V39.0581L18.8474 39.0393L18.8599 38.9769L18.8849 38.9394V38.9202L18.8912 38.9015L18.8974 38.8828V38.8765H18.9099L18.9161 38.8703V38.8516L18.9099 38.8453L18.9224 38.8391L18.9099 38.8016L18.9224 38.7954L18.9099 38.7704L18.9224 38.7517V38.7142L18.9286 38.7013L18.9478 38.6825L18.954 38.6763L18.9478 38.67L18.9411 38.6575L18.9478 38.6388L18.954 38.6138L18.9603 38.6076L18.9665 38.5889L18.979 38.6014H18.9915V38.6076H19.004H19.0102H19.0165V38.6014H19.0227L19.0352 38.6138H19.0477H19.1164L19.1351 38.6326H19.1414L19.1601 38.6388L19.1855 38.6138L19.2042 38.5889L19.2355 38.5514L19.248 38.5452L19.2917 38.5015L19.3104 38.489V38.4827L19.3479 38.4323L19.3978 38.3824L19.4045 38.3761H19.4232L19.4482 38.3387L19.4857 38.3074L19.5106 38.2887L19.5481 38.2512H19.5544L19.5606 38.2446L19.5793 38.2258L19.636 38.1821L19.6485 38.1634L19.6672 38.1447L19.6734 38.1384L19.7109 38.1009H19.7234L19.7359 38.1134V38.1259V38.1384H19.7421H19.7546V38.1447L19.7609 38.1509L19.7484 38.1634L19.7421 38.1759L19.7484 38.1821V38.1946L19.7546 38.2008H19.7609V38.2321L19.7671 38.2383L19.7609 38.27V38.2887L19.7484 38.2825V38.3012L19.8233 38.3886L19.8358 38.3949L19.9424 38.3886L20.086 38.3761L20.1052 38.3699H20.1239H20.1364H20.1426L20.1801 38.3636H20.1926L20.2613 38.3574H20.2675L20.3429 38.3512L20.3741 38.3824H20.3866L20.3928 38.3761V38.3574L20.4053 38.3512L20.4116 38.3449L20.4303 38.3387L20.4553 38.3324L20.4678 38.3137L20.4865 38.3012V38.2575L20.4927 38.2383L20.5052 38.2258V38.2133L20.5115 38.1946V38.1821L20.5302 38.1009L20.524 38.076L20.5302 38.051V38.0068H20.5364V38.0006L20.5302 37.9881L20.5364 37.9444V37.9069L20.5427 37.8632L20.5494 37.857L20.5681 37.8632L20.5743 37.882L20.5931 37.8882L20.6056 37.9007V37.9382L20.6181 37.9694V37.9881L20.5993 38.0323L20.6618 38.0822H20.6743L20.7055 38.0947H20.718L20.7242 38.0822L20.7617 38.1009L20.7679 38.1072V38.1322L20.7746 38.1509H20.7996L20.8058 38.1634L20.8246 38.1821L20.8433 38.2008H20.8683H20.8807L20.8932 38.2321L20.8995 38.2446L20.9245 38.2575L20.9369 38.2762L20.9432 38.27V38.2575L20.9557 38.2512H20.9682H20.9744L20.9807 38.2637H20.9869L20.9994 38.2575H21.0061L21.0186 38.2762L21.031 38.2887H21.0435L21.081 38.3074L21.0872 38.3137L21.0935 38.3262L21.0435 38.4323L21.0498 38.4511L21.0373 38.4573V38.4698L21.0435 38.4827L21.0373 38.489V38.4952L21.056 38.5202V38.5327L21.0685 38.5452L21.081 38.5639H21.0935L21.0997 38.5701H21.106L21.1185 38.5639L21.1559 38.5889L21.1809 38.6451L21.1934 38.6575V38.6638H21.2059V38.6451H21.2121H21.2184L21.2313 38.6638V38.6763L21.2246 38.7013L21.2375 38.7641L21.2438 38.7704L21.3 38.8141V38.8016H21.3062L21.3437 38.8141L21.3499 38.8079L21.3499 38.8078V38.8016H21.3624V38.8078H21.3812H21.3874H21.3936L21.4124 38.7953L21.4498 38.7641L21.469 38.7391H21.4753H21.4815L21.4878 38.7454L21.5127 38.7516H21.5252L21.5377 38.7454H21.5439L21.5502 38.7516L21.5752 38.7828L21.5877 38.8016L21.6064 38.814V38.8265L21.6001 38.8827V38.9456V39.0205L21.5939 39.083L21.6001 39.0955L21.6189 39.1017H21.6439H21.6563H21.6688L21.6751 39.0955L21.688 39.0705L21.7067 39.058L21.7255 39.0518L21.7442 39.0643L21.7629 39.083L21.7692 39.0892V39.0955L21.7879 39.1017H21.7942L21.8129 39.108H21.8379L21.8691 39.1142L21.8816 39.1329L21.8878 39.1392L21.9003 39.1267H21.9195L21.9445 39.108H21.9632L21.9819 39.1142L22.0194 39.1392L22.0381 39.1579H22.0444L22.0568 39.1708L22.1068 39.1771V39.1646V39.1517L22.113 39.1329L22.1255 39.1267H22.151H22.1759L22.2009 39.1204H22.2571L22.2446 39.1017L22.2571 39.0892L22.2633 39.033L22.2509 39.0018L22.2571 38.9956L22.2633 38.9831H22.2758H22.2821L22.307 38.9768L22.3258 38.9581L22.3508 38.9831L22.3632 38.9893L22.3824 38.9831L22.3949 38.9706L22.4074 38.9768L22.4199 38.9643L22.4386 38.9581L22.4511 38.9456L22.4449 38.9264L22.4573 38.9015L22.4761 38.8827V38.8765L22.4886 38.864H22.4948L22.5073 38.8515V38.8453V38.8265L22.5135 38.814L22.5011 38.7891L22.5135 38.7641V38.7516L22.526 38.7329L22.5448 38.7266L22.5697 38.7141H22.576V38.7012V38.6762L22.5573 38.6513L22.551 38.6388L22.5448 38.6325L22.551 38.62L22.5635 38.5951L22.6014 38.5826L22.5947 38.5701V38.5514L22.5635 38.5451V38.5326L22.5697 38.5139L22.5635 38.4889L22.5573 38.4827L22.5448 38.476H22.5135V38.4635L22.5198 38.4448L22.5323 38.4323L22.5385 38.4011L22.5573 38.3761L22.576 38.3636L22.6014 38.3573L22.6264 38.3511L22.6389 38.3324L22.6451 38.2887L22.6514 38.2762V38.2383L22.6638 38.2133L22.6763 38.207L22.6951 38.2008H22.7263V38.1883L22.745 38.1821L22.7637 38.1633L22.7762 38.1384L22.795 38.1259L22.8137 38.1196L22.8262 38.1134V38.0697L22.8329 38.0634H22.8641L22.8703 38.0572L22.8891 38.0634H22.8953H22.9016L22.9203 38.0447H22.939L23.0077 38.0634L23.0514 38.0572L23.0581 38.0509L23.0768 38.0447L23.0831 38.0322L23.0893 38.026L23.0956 38.0068L23.0893 37.9943V37.9881L23.0831 37.9818L23.0514 37.9256L23.0327 37.8694L23.0202 37.8195L23.014 37.7566V37.7503L23.0077 37.7379L23.0015 37.7066V37.6692L23.0077 37.6255L23.0202 37.5818L23.0327 37.5314L23.0452 37.5251V37.5126L23.0581 37.4939L23.0706 37.4689L23.0956 37.4377L23.1767 37.3503L23.183 37.344L23.1892 37.3311L23.1955 37.3249L23.2017 37.3186L23.2454 37.2749L23.2704 37.2437L23.3021 37.2062L23.3208 37.1937L23.3395 37.1875L23.3832 37.1813L23.3957 37.175L23.4082 37.1688H23.4207L23.4769 37.1375L23.4644 37.1059L23.4582 37.0809L23.4519 37.031L23.4457 36.9748L23.4394 36.9061L23.4332 36.8811L23.4394 36.8682L23.4519 36.8557L23.4582 36.8494L23.4707 36.8307V36.8057V36.7745L23.4769 36.737L23.4831 36.7183L23.4894 36.6996L23.5081 36.6871L23.5211 36.6684V36.6429L23.5335 36.6304V36.6055L23.546 36.5867L23.5648 36.568L23.5835 36.5243L23.5897 36.5118L23.6272 36.4743L23.6647 36.4494L23.6772 36.4306L23.7021 36.4115L23.7209 36.374L23.7271 36.3678L23.7396 36.3365L23.7525 36.324L23.7588 36.3178L23.7713 36.3053L23.7775 36.2991L23.79 36.2928L23.7962 36.2616L23.8212 36.2429L23.8337 36.2054L23.8399 36.18L23.8337 36.1737H23.8399L23.8337 36.1488L23.8275 36.13V36.1113V36.0863V36.0489L23.815 36.0301L23.8087 36.0052L23.815 35.9927L23.8212 35.9677L23.8399 35.936L23.8587 35.9173L23.8774 35.8923L23.8899 35.8611L23.9086 35.8424H23.9149V35.8112L23.9086 35.7358L23.8961 35.6234L23.8774 35.5485L23.8712 35.5297L23.8587 35.4856L23.8524 35.4668L23.8462 35.4544V35.4356L23.8587 35.3669L23.8712 35.3232L23.8836 35.3107L23.8961 35.2983H23.9149H23.9336L23.9586 35.2858L23.9715 35.2791L24.0027 35.2541L24.0152 35.2479H24.0339L24.0714 35.2603H24.0964L24.1026 35.2541L24.1089 35.2416L24.1339 35.2291H24.1401H24.1651H24.19L24.2092 35.2229L24.2217 35.2166L24.2342 35.1917L24.2654 35.148L24.2717 35.1292L24.2779 35.1042V35.073H24.2842L24.2904 35.0543L24.3029 35.0351L24.3154 35.0289L24.3216 35.0226L24.3279 35.0164L24.3341 35.0039V34.9789V34.9664V34.9602L24.3466 34.9477L24.3591 34.9415L24.3653 34.9352L24.3903 34.9415L24.4407 34.9539L24.4657 34.9602L24.5094 34.9727L24.5281 34.9789L24.5468 34.9914H24.5656L24.5718 34.9852L24.5968 34.9664L24.653 34.929L24.6847 34.8978H24.7034L24.7284 34.904H24.7409L24.7533 34.8915L24.7596 34.8853L24.7721 34.8728L24.7783 34.8416L24.7846 34.8353L24.8158 34.8099L24.822 34.7912V34.7599V34.7225L24.8283 34.7037L24.8408 34.685L24.8532 34.6788L24.8657 34.6725H24.8782L24.8912 34.6663H24.9099L24.9349 34.6725L24.9411 34.6788L24.9661 34.6725L24.9786 34.6663L24.9973 34.6413L25.016 34.6038V34.5976L25.0098 34.5659L24.9911 34.5222L24.9848 34.5097L24.9723 34.491V34.4785L24.9786 34.4598L24.9911 34.4286L24.9973 34.4098V34.4036L24.9911 34.3973L24.9786 34.3786V34.3469L24.9911 34.3282H25.0035L25.0348 34.2908L25.0597 34.272L25.0847 34.2346L25.091 34.2221L25.1034 34.2033L25.1164 34.1784L25.1476 34.1342L25.1538 34.1217V34.1092V34.0967L25.1414 34.078L25.1476 34.053L25.1601 34.0343L25.1726 34.0156V33.9906L25.1663 33.9719L25.1726 33.9594L25.1788 33.9531V33.9344L25.1726 33.9219V33.9157L25.1663 33.8965L25.1538 33.8902V33.884V33.8653L25.1663 33.8341L25.1601 33.8216L25.1663 33.8091L25.1726 33.7841L25.1788 33.7716H25.1726L25.1788 33.7591V33.7404L25.2038 33.7217V33.6842V33.6525L25.1976 33.64V33.6088L25.2038 33.5651L25.1976 33.5339L25.2038 33.5089V33.4777L25.1976 33.4715L25.1851 33.4652H25.1226L25.1097 33.459V33.446V33.4273L25.1034 33.4148L25.1226 33.4023V33.3961H25.1414L25.1538 33.3836L25.1976 33.3586L25.2288 33.3524L25.2537 33.3336L25.26 33.3149L25.2787 33.2962L25.3099 33.2774L25.3416 33.2525L25.3479 33.24H25.3603L25.3791 33.2337H25.3916H25.404L25.4353 33.2021L25.4852 33.1709L25.4915 33.1646H25.4977H25.5164L25.5352 33.1584H25.5414H25.5793L25.6043 33.1459L25.6293 33.1521H25.6605V33.1459H25.673H25.6855L25.6917 33.1396L25.7167 33.1334L25.7417 33.1396L25.7479 33.1334H25.7542L25.7729 33.1271L25.7916 33.1084L25.7983 33.1022L25.8046 33.0959L25.8233 33.1022L25.8358 33.0959L25.8483 33.0772L25.8545 33.0585L25.867 33.046V33.021L25.8732 33.0085L25.8857 32.9956L25.892 32.9768L25.8857 32.9706L25.8795 32.9581V32.9456V32.9394L25.8732 32.9269L25.8795 32.9207L25.8857 32.9082V32.9019L25.8732 32.8832L25.8795 32.8769V32.8645L25.892 32.852L25.9045 32.8457L25.9107 32.8395L25.8982 32.802L25.9045 32.7833L25.9107 32.777L25.9169 32.7641V32.7391L25.9232 32.7079V32.6892L25.9294 32.6767L25.9419 32.658L25.9607 32.6455L25.9731 32.6143L25.9919 32.5893L25.9856 32.583V32.5768L25.9794 32.5518L25.9607 32.5389L25.9419 32.5264L25.9294 32.5139H25.9107L25.8857 32.5014L25.8732 32.4952L25.867 32.4889L25.8607 32.4577L25.8545 32.4515L25.8483 32.4452L25.8545 32.439L25.8483 32.4202V32.4078V32.389L25.8545 32.3828L25.867 32.3703L25.8982 32.3516L25.9107 32.3453L25.9294 32.3074L25.9419 32.2762L25.9482 32.2575V32.245V32.2387L25.9419 32.2325L25.9232 32.22L25.9107 32.2137L25.8982 32.1825L25.892 32.17V32.1513L25.8982 32.1326L25.9482 32.0822L25.9669 32.0447L25.9856 32.026L26.0168 31.976L26.0231 31.9635H26.0298L26.0423 31.9573L26.0548 31.9511H26.0672L26.1047 31.9573L26.1234 31.9511L26.1609 31.9323L26.1921 31.9261H26.2171L26.2296 31.9198L26.2421 31.8824L26.255 31.8574L26.2613 31.8445L26.28 31.8382L26.305 31.8195L26.3174 31.8132L26.3237 31.7883V31.7695V31.7446L26.3174 31.7258L26.3237 31.7133L26.3424 31.6884L26.3674 31.6634L26.3736 31.6509L26.3861 31.6322L26.4049 31.6067L26.4174 31.5693V31.5318L26.4111 31.4881V31.4631L26.4174 31.4382L26.4423 31.4069V31.369L26.4361 31.3316V31.2941L26.4486 31.2754V31.2629L26.4611 31.2442L26.4798 31.2317L26.499 31.2067L26.5052 31.1755L26.499 31.15L26.4927 31.1313L26.4798 31.1188L26.4673 31.0814V31.0626V31.0439L26.4548 31.0127V31.0002V30.9877L26.4611 30.969L26.4735 30.9061L26.4865 30.8686H26.4927L26.499 30.8624L26.5177 30.8499L26.5489 30.8249L26.5614 30.8062H26.5677L26.5739 30.7937L26.5864 30.7687L26.5926 30.75L26.5989 30.7121L26.6114 30.6559L26.6176 30.6371L26.6363 30.6184L26.6549 30.5812V30.581V30.5747L26.6674 30.5685V30.556L26.6737 30.5435L26.6924 30.5248H26.6925L26.6925 30.5248H26.6987L26.7116 30.5185L26.7241 30.4998L26.7428 30.4681L26.7553 30.4307L26.7678 30.412L26.774 30.387V30.3558V30.3308L26.7802 30.2996L26.7865 30.2492H26.7866L26.7866 30.2491H26.7928L26.8115 30.2304L26.8116 30.2304L26.8116 30.2304L26.8179 30.2242V30.2295L26.8552 30.2242L26.8864 30.2117L26.9301 30.1805H26.943L26.9555 30.1742L26.9618 30.1805L26.9743 30.1742L26.9805 30.168L26.993 30.1617V30.1493V30.1305L26.9992 30.118H27.0055L27.018 30.1056L27.0242 30.0931V30.0806L27.0305 30.0681L27.0554 30.0369L27.0679 30.0306L27.0742 30.0239L27.0866 30.0114H27.0991L27.1054 29.999L27.1116 29.9865L27.1241 29.9615L27.1428 29.949L27.1616 29.9428V29.9303L27.1553 29.9115V29.8928L27.1616 29.8866L27.1745 29.8803L27.1995 29.8616L27.2182 29.8429V29.8366L27.2245 29.8304V29.8116L27.2307 29.8054L27.2432 29.7987V29.7925V29.7612L27.2494 29.7425L27.2744 29.7175L27.2807 29.7113L27.2994 29.6926L27.3181 29.6676L27.3244 29.6489L27.3369 29.5927L27.3431 29.5802L27.3556 29.5739L27.3618 29.5672L27.3743 29.561L27.3868 29.5672L27.4247 29.5927H27.4497L27.4684 29.5989L27.5059 29.6051L27.5184 29.6114L27.5371 29.6301L27.5496 29.6489L27.5683 29.6676L27.5933 29.6801L27.612 29.6863H27.6312H27.6499L27.6687 29.6801L27.6749 29.6738L27.7061 29.6676L27.7623 29.6426L27.7873 29.6364L27.7936 29.6301L27.8123 29.6176L27.8373 29.5864L27.8564 29.5672L27.8752 29.536L27.8877 29.5235L27.9314 29.4986L27.9813 29.4673L28.0188 29.4548L28.0438 29.4361L28.075 29.4236L28.1129 29.4174L28.1316 29.4111L28.1504 29.4049L28.1816 29.3862L28.2253 29.3737L28.2378 29.3674H28.244L28.2627 29.3487L28.2815 29.317L28.2877 29.2796L28.294 29.2671H28.3002L28.3256 29.2546L28.3693 29.2483H28.4006L28.4193 29.2421L28.4567 29.2234L28.5446 29.1859L28.5633 29.1797L28.6071 29.1672L28.6258 29.1609L28.6508 29.1422L28.6695 29.1297L28.6757 29.1043L28.6695 29.0731L28.6757 29.0294L28.6882 28.9794L28.682 28.9732V28.9544L28.6757 28.9295V28.9107L28.6632 28.8982L28.657 28.8853L28.6445 28.8728L28.6258 28.8666L28.6133 28.8478L28.6071 28.8416L28.5821 28.8229L28.5384 28.8041L28.5192 28.7854L28.5067 28.7604L28.5005 28.7542V28.7355L28.5067 28.7292L28.5317 28.7167L28.5446 28.698L28.5633 28.6855L28.5821 28.6793L28.5883 28.6668L28.5946 28.6605L28.6071 28.6413L28.6133 28.6289L28.6071 28.5976V28.5727L28.6133 28.5477L28.6071 28.5227V28.5102V28.504L28.6195 28.479H28.6133L28.6071 28.4665V28.4603V28.4478L28.6383 28.4161L28.6445 28.3974L28.6508 28.4036L28.657 28.3911L28.6632 28.3787H28.6757L28.682 28.3724V28.3662L28.6757 28.3537L28.6695 28.3349V28.3287L28.6882 28.2975L28.6945 28.2912L28.707 28.2788L28.7132 28.2725L28.707 28.26L28.6882 28.2475V28.2413V28.235L28.6695 28.2038L28.657 28.1784L28.6508 28.1659L28.6383 28.1472V28.1285L28.6445 28.116V28.1035L28.6632 28.0785L28.6882 28.0723L28.6945 28.066V28.0535L28.6757 28.0285V28.0098V28.0036L28.682 27.9973L28.7007 27.9719L28.707 27.9532V27.9282L28.7132 27.9157L28.7507 27.8845L28.7569 27.872L28.7507 27.8533L28.7444 27.8345L28.7194 27.8283L28.7257 27.8158L28.7132 27.7971L28.6945 27.8096L28.682 27.8033V27.8158H28.6757V27.8096L28.6632 27.8158L28.657 27.8221V27.8283H28.6508H28.6383L28.632 27.8158H28.6258L28.6008 27.8096V27.8033L28.6133 27.7971L28.6008 27.7721L28.5883 27.7596V27.7534V27.7471L28.5696 27.7404H28.5446L28.5384 27.7342L28.5067 27.7279L28.4942 27.7217L28.5005 27.7092L28.5129 27.703V27.6967L28.5192 27.678H28.5129L28.5005 27.6905L28.4942 27.6718L28.488 27.6593L28.4942 27.6405V27.6343L28.488 27.628L28.4755 27.6156H28.4567L28.4505 27.6031H28.4443H28.4255L28.4193 27.5968L28.4255 27.5843V27.5781L28.4193 27.5718V27.5656H28.4443V27.5594L28.4318 27.5406L28.4068 27.5344L28.3943 27.5281L28.3818 27.5152L28.3693 27.509V27.4965V27.4902L28.3568 27.4965L28.3506 27.5027L28.3381 27.484L28.3319 27.4777H28.3131L28.3064 27.484L28.3002 27.4965H28.294L28.2877 27.4715L28.2752 27.4653H28.2627H28.2503L28.2378 27.4715L28.2128 27.4653H28.2065L28.1628 27.4777H28.1504L28.1316 27.4653H28.1129L28.1004 27.4715L28.0879 27.4653L28.0562 27.4465L28.0438 27.4528L28.025 27.4653L28.0125 27.4777H28V27.4715L27.9876 27.4528H27.9813L27.9751 27.459L27.9876 27.4777L27.9751 27.4902L27.9626 27.459L27.9563 27.4528H27.9439H27.9251L27.9001 27.459H27.8939L27.8564 27.4653L27.8435 27.4715L27.8373 27.4653L27.831 27.4465L27.8248 27.4403L27.8123 27.434L27.7936 27.4215L27.7686 27.3841H27.7623L27.7374 27.3778V27.3716L27.7498 27.3591L27.7436 27.3466V27.3404H27.7561H27.7686V27.3279L27.7811 27.3341L27.7873 27.3279L27.7811 27.3216V27.3154L27.7873 27.3092L27.7936 27.3029L27.7811 27.2967H27.7748V27.2904L27.7561 27.2967L27.7498 27.2904V27.265L27.7436 27.2463L27.7498 27.2338L27.7686 27.2213L27.7748 27.1901L27.7936 27.1838L27.7811 27.1651L27.7873 27.1589L27.7811 27.1526L27.7748 27.1464L27.7623 27.1276L27.7498 27.0777V27.046L27.7374 26.9898V26.9711L27.7311 26.9399L27.7124 26.827L27.7061 26.8083V26.7958L27.6999 26.7896V26.7646L27.6937 26.7459L27.6874 26.7084L27.6812 26.6834L27.6624 26.5706L27.6562 26.5331L27.6499 26.4957L27.6437 26.452V26.4457L27.6375 26.427L27.6312 26.4145V26.3833L27.6058 26.2767V26.2517V26.233L27.5995 26.2017L27.5933 26.1955L27.5871 26.1643L27.5808 26.1326V26.1076L27.5683 26.039ZM18.6909 44.8765L18.6847 44.8636L18.6909 44.8573V44.8636V44.8765Z" fill="#092E20"/>
</svg>
