<svg width="53" height="61" viewBox="0 0 53 61" fill="none" xmlns="http://www.w3.org/2000/svg">
<path fill-rule="evenodd" clip-rule="evenodd" d="M42.0389 22.6313L42.156 22.8251L42.2713 23.0201L42.3847 23.2164L42.4962 23.4139L42.6059 23.6127L42.7136 23.8127L42.8193 24.0138L42.9231 24.2162L43.0248 24.4197L43.1246 24.6244L43.2222 24.8303L43.3178 25.0373L43.4112 25.2454L43.5025 25.4546L43.5916 25.6648L43.6785 25.8762L43.7631 26.0886L43.8456 26.302L43.9257 26.5164L44.0036 26.7317L44.0791 26.9481L44.1523 27.1653L44.2232 27.3835L44.2918 27.6025L44.3579 27.8224L44.4217 28.0431L44.4831 28.2646L44.5421 28.4868L44.5987 28.7098L44.6529 28.9335L44.7047 29.1579L44.7541 29.383L44.8011 29.6086L44.8457 29.8349L44.8879 30.0617L44.9277 30.2891L44.9651 30.517L45.0002 30.7453L45.0329 30.9742L45.0632 31.2034L45.0912 31.4331L45.1169 31.6632L45.1402 31.8936L45.1612 32.1244L45.18 32.3554L45.1964 32.5868L45.2105 32.8184L45.2223 33.0503L45.2318 33.2824L45.2391 33.5148L45.244 33.7473L45.2467 33.9799L45.2471 34.2128L45.2452 34.4457L45.241 34.6788L45.2345 34.9119L45.2256 35.1451L45.2145 35.3783L45.201 35.6115L45.1852 35.8448L45.1671 36.078L45.1467 36.3111L45.1239 36.5442L45.0988 36.7772L45.0715 37.0101L45.0417 37.2428L45.0097 37.4754L44.9754 37.7078L44.9387 37.94L44.8997 38.172L44.8585 38.4038L44.8149 38.6353L44.7689 38.8665L44.7207 39.0974L44.6702 39.328L44.6173 39.5582L44.5621 39.7881L44.5047 40.0176L44.4448 40.2466L44.3827 40.4752L44.3182 40.7034L44.2514 40.931L44.1822 41.1581L44.1107 41.3847L44.0368 41.6107L43.9606 41.8361L43.882 42.0609L43.801 42.285L43.7176 42.5084L43.6318 42.731L43.5435 42.953L43.4529 43.1741L43.3598 43.3943L43.2642 43.6137L43.1662 43.8322L43.0657 44.0497L42.9627 44.2662L42.8571 44.4817L42.7491 44.6961L42.6386 44.9094L42.5254 45.1215L42.4098 45.3323L42.2916 45.5419L42.1708 45.7502L42.0474 45.957L41.9215 46.1625L41.7929 46.3665L41.6618 46.5689L41.5281 46.7698L41.3917 46.969L41.2528 47.1665L41.1113 47.3623L40.9672 47.5562L40.8205 47.7483L40.6712 47.9385L40.5194 48.1268L40.365 48.313L40.208 48.4971L40.0485 48.679L39.8865 48.8588L39.722 49.0363L39.555 49.2115L39.3855 49.3844L39.2136 49.5548L39.0392 49.7228L38.8625 49.8883L38.6834 50.0511L38.5019 50.2114L38.3182 50.3689L38.1321 50.5237L37.9438 50.6758L37.7533 50.8249L37.5606 50.9713L37.3658 51.1146L37.1688 51.255L36.9698 51.3923L36.7688 51.5266L36.5657 51.6577L36.3608 51.7856L36.1539 51.9103L35.9452 52.0317L35.7347 52.1497L35.5224 52.2644L35.3084 52.3757L35.0927 52.4835L34.8755 52.5877L34.6566 52.6884L34.4362 52.7855L34.2144 52.8789L33.9912 52.9685L33.7666 53.0544L33.5406 53.1364L33.3135 53.2146L33.0851 53.2888L32.8556 53.359L32.625 53.4251L32.3934 53.4872L32.1608 53.5452L31.9274 53.599L31.6932 53.6486L31.4582 53.6939L31.2226 53.735L30.9864 53.7718L30.7496 53.8043L30.5125 53.8325L30.275 53.8563L30.0372 53.8759L29.7993 53.891L29.5613 53.9018L29.3232 53.9083L29.0853 53.9105L28.8475 53.9083L28.6099 53.9018L28.3727 53.8911L28.1359 53.8761L27.8995 53.8569L27.6638 53.8335L27.4287 53.8059L27.1944 53.7743L26.961 53.7386L26.7284 53.6989L26.4968 53.6552L26.2663 53.6077L26.037 53.5563L25.8089 53.5011L25.582 53.4423L25.3566 53.3798L25.1325 53.3138L24.91 53.2443L24.689 53.1715L24.4697 53.0953L24.252 53.016L24.036 52.9335L23.8218 52.848L23.6095 52.7595L23.399 52.6682L23.1905 52.5742L22.9839 52.4775L22.7793 52.3783L22.5767 52.2766L22.3762 52.1726L22.1777 52.0663L21.9814 51.9579L21.7871 51.8474L21.5951 51.7349L21.4051 51.6205L21.2174 51.5043L21.0318 51.3864L20.8484 51.2669L20.6671 51.1459L20.4881 51.0234L20.3112 50.8995L20.1366 50.7744L19.9641 50.648L19.7938 50.5205L19.6256 50.392L19.4596 50.2625L19.2957 50.1321L19.1339 50.0008L18.9743 49.8688L18.8167 49.7361L18.6611 49.6028L18.5076 49.4689L18.3562 49.3346L18.2066 49.1998L18.0591 49.0646L17.9135 48.929L17.7697 48.7933L17.6278 48.6573L17.4878 48.5212L17.3495 48.3849L17.213 48.2487L17.0782 48.1124L16.9451 47.9761L16.8136 47.84L16.6837 47.704L16.5553 47.5682L16.4285 47.4326L16.3031 47.2972L16.1791 47.1622L16.0564 47.0274L15.9351 46.8931L15.8151 46.7591L15.6962 46.6256L15.5785 46.4926L15.4619 46.36L15.3464 46.228L15.2318 46.0965L15.1182 45.9656L15.0055 45.8353L14.8936 45.7055L14.7825 45.5764L14.6721 45.448L14.5623 45.3202L14.4531 45.1931L14.3444 45.0666L14.2363 44.9408L14.1285 44.8157L14.0212 44.6913L13.9141 44.5675L13.8073 44.4443L13.7008 44.3218L13.5944 44.1999L13.4881 44.0786L13.382 43.9579L13.2759 43.8378L13.1698 43.7181L13.0637 43.5989L12.9575 43.4802L12.8512 43.3619L12.7449 43.244L12.6384 43.1264L12.5317 43.009L12.4249 42.892L12.3179 42.7751L12.2108 42.6584L12.1034 42.5417L11.9958 42.4251L11.888 42.3085L11.7801 42.1918L11.6719 42.075L11.5636 41.958L11.4551 41.8407L11.3464 41.7232L11.2377 41.6053L11.1288 41.4871L11.0198 41.3683L10.9109 41.249L10.8019 41.1292L10.6929 41.0087L10.584 40.8875L10.4752 40.7656L10.3666 40.643L10.2582 40.5194L10.1501 40.395L10.0422 40.2697L9.93475 40.1433L9.82771 40.016L9.72115 39.8875L9.61515 39.758L9.50978 39.6273L9.40512 39.4954L9.30124 39.3623L9.19823 39.228L9.09617 39.0923L8.99515 38.9553L8.89525 38.817L8.79657 38.6773L8.6992 38.5362L8.60323 38.3937L8.50875 38.2498L8.41586 38.1044L8.32466 37.9576L8.23522 37.8094L8.14766 37.6598L8.06205 37.5087L7.97849 37.3562L7.89706 37.2023L7.81786 37.047L7.74097 36.8904L7.66647 36.7324L7.59443 36.5731L7.52493 36.4125L7.45805 36.2507L7.39385 36.0877L7.3324 35.9235L7.27376 35.7582L7.21798 35.5918L7.16512 35.4244L7.11522 35.256L7.06833 35.0868L7.02448 34.9166L6.98372 34.7457L6.94606 34.574L6.91153 34.4016L6.88016 34.2286L6.85195 34.055L6.82692 33.881L6.80508 33.7065L6.78641 33.5316L6.77093 33.3564L6.75862 33.181L6.74946 33.0053L6.74346 32.8296L6.74058 32.6538L6.74081 32.478L6.74411 32.3022L6.75046 32.1266L6.75983 31.9511L6.77219 31.7759L6.78749 31.6009L6.80571 31.4263L6.82679 31.252L6.85069 31.0782L6.87735 30.9048L6.90672 30.732L6.93872 30.5597L6.97331 30.3881L7.01039 30.217L7.04989 30.0466L7.09175 29.8769L7.13586 29.7079L7.18215 29.5396L7.23052 29.3721L7.28089 29.2053L7.33316 29.0393L7.38724 28.8741L7.44304 28.7096L7.50045 28.5459L7.55938 28.3829L7.61973 28.2207L7.6814 28.0592L7.74431 27.8984L7.80835 27.7383L7.87344 27.5788L7.93947 27.42L8.00637 27.2617L8.07404 27.1039L8.14241 26.9467L8.21138 26.7899L8.28089 26.6335L8.35086 26.4775L8.42122 26.3218L8.4919 26.1663L8.56285 26.0111L8.63402 25.856L8.70534 25.7009L8.77678 25.5459L8.8483 25.3909L8.91985 25.2357L8.99142 25.0804L9.06298 24.9249L9.13451 24.7692L9.206 24.6131L9.27745 24.4566L9.34885 24.2997L9.42022 24.1423L9.49156 23.9845L9.56289 23.826L9.63423 23.6669L9.70561 23.5072L9.77706 23.3467L9.84862 23.1856L9.92033 23.0237L9.99224 22.861L10.0644 22.6975L10.1369 22.5331L10.2097 22.368L10.283 22.202L10.3567 22.0352L10.431 21.8675L10.506 21.699L10.5817 21.5297L10.6581 21.3596L10.7355 21.1887L10.8138 21.0171L10.8931 20.8447L10.9736 20.6717L11.0552 20.498L11.1382 20.3237L11.2226 20.1489L11.3084 19.9737L11.3958 19.798L11.4848 19.622L11.5755 19.4458L11.6681 19.2693L11.7625 19.0928L11.8589 18.9162L11.9574 18.7397L12.058 18.5634L12.1607 18.3874L12.2657 18.2117L12.3731 18.0365L12.4828 17.8618L12.5949 17.6879L12.7096 17.5147L12.8267 17.3424L12.9465 17.1712L13.0689 17.001L13.1939 16.8321L13.3216 16.6646L13.452 16.4985L13.5851 16.3339L13.721 16.1711L13.8596 16.01L14.001 15.8508L14.1452 15.6936L14.292 15.5384L14.4417 15.3855L14.594 15.2348L14.749 15.0864L14.9068 14.9405L15.0671 14.7972L15.2301 14.6564L15.3957 14.5183L15.5638 14.383L15.7344 14.2505L15.9075 14.1209L16.083 13.9943L16.2608 13.8707L16.441 13.7502L16.6235 13.6328L16.8081 13.5187L16.9949 13.4078L17.1838 13.3002L17.3748 13.1959L17.5677 13.0951L17.7625 12.9976L17.9591 12.9036L18.1575 12.8131L18.3577 12.726L18.5594 12.6425L18.7627 12.5625L18.9675 12.4861L19.1738 12.4132L19.3813 12.3439L19.5902 12.2782L19.8003 12.2159L20.0115 12.1573L20.2238 12.1022L20.4371 12.0506L20.6513 12.0025L20.8664 11.9579L21.0823 11.9167L21.2989 11.879L21.5162 11.8446L21.7342 11.8136L21.9526 11.786L22.1716 11.7616L22.391 11.7405L22.6107 11.7225L22.8308 11.7077L23.0512 11.696L23.2718 11.6874L23.4925 11.6817L23.7134 11.679L23.9344 11.6792L24.1555 11.6823L24.3765 11.6881L24.5976 11.6967L24.8186 11.708L25.0394 11.7221L25.2602 11.7388L25.4808 11.7581L25.7012 11.7801L25.9214 11.8046L26.1414 11.8317L26.3611 11.8613L26.5804 11.8934L26.7995 11.9281L27.0181 11.9653L27.2364 12.0049L27.4543 12.047L27.6717 12.0915L27.8887 12.1385L28.1051 12.1879L28.321 12.2397L28.5364 12.2939L28.7512 12.3505L28.9653 12.4095L29.1789 12.4709L29.3917 12.5346L29.6039 12.6007L29.8154 12.6692L30.0261 12.74L30.2361 12.8132L30.4452 12.8886L30.6535 12.9664L30.861 13.0465L31.0676 13.1288L31.2733 13.2135L31.4781 13.3004L31.682 13.3895L31.8848 13.4809L32.0867 13.5744L32.2876 13.6702L32.4874 13.7682L32.6862 13.8683L32.8839 13.9705L33.0804 14.0749L33.2759 14.1813L33.4703 14.2898L33.6635 14.4004L33.8555 14.513L34.0464 14.6276L34.2361 14.7441L34.4246 14.8626L34.6118 14.9831L34.7979 15.1054L34.9828 15.2295L35.1664 15.3555L35.3488 15.4833L35.5299 15.6128L35.7098 15.7441L35.8885 15.8771L36.0659 16.0118L36.2421 16.1482L36.417 16.2862L36.5906 16.4259L36.763 16.5672L36.9341 16.71L37.104 16.8545L37.2725 17.0004L37.4398 17.148L37.6057 17.2971L37.7704 17.4477L37.9337 17.5997L38.0957 17.7533L38.2564 17.9084L38.4158 18.065L38.5738 18.223L38.7304 18.3825L38.8856 18.5434L39.0395 18.7058L39.192 18.8696L39.343 19.0348L39.4926 19.2015L39.6408 19.3696L39.7875 19.5391L39.9327 19.71L40.0764 19.8824L40.2186 20.0561L40.3592 20.2312L40.4983 20.4077L40.6358 20.5856L40.7718 20.7649L40.9061 20.9455L41.0387 21.1275L41.1697 21.3109L41.2991 21.4955L41.4267 21.6816L41.5527 21.8689L41.6769 22.0576L41.7993 22.2475L41.92 22.4388L42.0389 22.6313Z" fill="url(#paint0_linear_60_32159)" fill-opacity="0.2"/>
<g clip-path="url(#clip0_60_32159)">
<path fill-rule="evenodd" clip-rule="evenodd" d="M22.8887 0.0941191C22.8887 0.119969 22.8358 0.141119 22.7712 0.141119C22.7065 0.141119 22.6537 0.162269 22.6537 0.188119C22.6537 0.213969 22.6191 0.235119 22.5769 0.235119C22.5347 0.235119 22.466 0.272249 22.4242 0.317722C22.3824 0.363077 22.2923 0.428877 22.2241 0.463892C22.1558 0.498789 22.0713 0.583272 22.0364 0.651539C22.0014 0.719807 21.9356 0.809812 21.8903 0.851642C21.8448 0.893472 21.8077 0.962209 21.8077 1.00439C21.8077 1.04657 21.7865 1.08112 21.7607 1.08112C21.7348 1.08112 21.7137 1.13399 21.7137 1.19862C21.7137 1.26324 21.6925 1.31612 21.6667 1.31612C21.6018 1.31612 21.6018 8.53755 21.6667 8.57762C21.6925 8.5936 21.7137 8.65834 21.7137 8.72144C21.7137 8.78454 21.7313 8.83612 21.7527 8.83612C21.7742 8.83612 21.8218 8.89393 21.8584 8.96466C21.9445 9.13057 22.3592 9.54523 22.5251 9.63136C22.5958 9.66802 22.6537 9.71561 22.6537 9.73711C22.6537 9.75849 22.7052 9.77612 22.7683 9.77612C22.8314 9.77612 22.8962 9.79727 22.9122 9.82312C22.9506 9.88528 24.0487 9.88528 24.0872 9.82312C24.1031 9.79727 24.1679 9.77612 24.231 9.77612C24.2941 9.77612 24.3457 9.75849 24.3457 9.73711C24.3457 9.71561 24.4035 9.66802 24.4742 9.63136C24.6401 9.54523 25.0548 9.13057 25.1409 8.96466C25.1776 8.89393 25.2251 8.83612 25.2466 8.83612C25.268 8.83612 25.2857 8.78454 25.2857 8.72144C25.2857 8.65834 25.3068 8.5936 25.3327 8.57762C25.3975 8.53755 25.3975 1.31612 25.3327 1.31612C25.3068 1.31612 25.2857 1.26324 25.2857 1.19862C25.2857 1.13399 25.2645 1.08112 25.2387 1.08112C25.2128 1.08112 25.1917 1.04657 25.1917 1.00439C25.1917 0.962209 25.1545 0.893472 25.1091 0.851642C25.0637 0.809812 24.9979 0.719807 24.9629 0.651539C24.928 0.583272 24.8435 0.498789 24.7752 0.463892C24.707 0.428877 24.617 0.363077 24.5751 0.317722C24.5333 0.272249 24.4646 0.235119 24.4224 0.235119C24.3802 0.235119 24.3457 0.213969 24.3457 0.188119C24.3457 0.162269 24.2928 0.141119 24.2282 0.141119C24.1635 0.141119 24.1107 0.119969 24.1107 0.0941191C24.1107 0.0652141 23.8757 0.0471191 23.4997 0.0471191C23.1237 0.0471191 22.8887 0.0652141 22.8887 0.0941191ZM23.8973 1.43221C24.1167 1.66239 24.1107 1.56193 24.1107 4.99575V8.25379L23.9516 8.42745C23.8484 8.54002 23.7506 8.60112 23.6734 8.60112C23.608 8.60112 23.5422 8.62756 23.527 8.65987C23.5052 8.70687 23.4941 8.70687 23.4723 8.65987C23.4571 8.62756 23.3913 8.60112 23.3259 8.60112C23.2487 8.60112 23.1509 8.54002 23.0478 8.42745L22.8887 8.25379V4.95862V1.66345L23.0441 1.49378C23.2649 1.25267 23.6965 1.22153 23.8973 1.43221ZM10.3162 4.70012C10.3002 4.72597 10.2354 4.74712 10.1723 4.74712C10.1092 4.74712 10.0577 4.76827 10.0577 4.79412C10.0577 4.81997 10.0292 4.84112 9.99433 4.84112C9.833 4.84112 9.21389 5.31077 9.2106 5.43567C9.21001 5.45764 9.16818 5.52849 9.11766 5.59312C9.06713 5.65774 9.0253 5.75398 9.02472 5.80697C9.02413 5.85996 8.99922 5.92776 8.96937 5.9576C8.89547 6.03151 8.89547 7.08173 8.96937 7.15563C8.99922 7.18548 9.02366 7.24799 9.02366 7.29452C9.02366 7.34105 9.04481 7.37912 9.07066 7.37912C9.09651 7.37912 9.11766 7.42142 9.11766 7.47312C9.11766 7.52482 9.13881 7.56712 9.16466 7.56712C9.19051 7.56712 9.21166 7.59849 9.21166 7.63691C9.21166 7.67522 9.47075 7.96027 9.78741 8.27036C10.1041 8.58044 10.4663 8.93764 10.5925 9.06407C10.8691 9.34149 12.1875 10.6598 12.5086 10.9803C12.635 11.1065 13.0133 11.4899 13.3492 11.8324C13.6851 12.1749 13.9914 12.4551 14.0299 12.4551C14.0683 12.4551 14.0997 12.4763 14.0997 12.5021C14.0997 12.528 14.142 12.5491 14.1937 12.5491C14.2454 12.5491 14.2877 12.5684 14.2877 12.5919C14.2877 12.6658 14.9509 12.7503 15.3204 12.7234C15.6643 12.6983 16.1207 12.5664 16.1207 12.492C16.1207 12.4717 16.1489 12.4551 16.1832 12.4551C16.2695 12.4551 16.7317 11.9634 16.7317 11.8716C16.7317 11.8306 16.7528 11.7971 16.7787 11.7971C16.8045 11.7971 16.8257 11.7548 16.8257 11.7031C16.8257 11.6514 16.8468 11.6091 16.8727 11.6091C16.8985 11.6091 16.9197 11.5457 16.9197 11.4681C16.9197 11.3906 16.9408 11.3271 16.9667 11.3271C16.995 11.3271 17.0137 11.1312 17.0137 10.8336C17.0137 10.536 16.995 10.3401 16.9667 10.3401C16.9408 10.3401 16.9197 10.2767 16.9197 10.1991C16.9197 10.1216 16.8985 10.0581 16.8727 10.0581C16.8468 10.0581 16.8257 10.0158 16.8257 9.96412C16.8257 9.91242 16.8045 9.87012 16.7787 9.87012C16.7528 9.87012 16.7317 9.83851 16.7317 9.79997C16.7317 9.70762 16.5944 9.54652 16.1731 9.14409C15.9821 8.96184 15.5233 8.50594 15.1532 8.13112C14.7832 7.75629 14.3788 7.34869 14.2548 7.22531C14.1307 7.10194 13.7225 6.69621 13.3477 6.32373C12.9728 5.95138 12.5253 5.49959 12.3531 5.31993C12.0579 5.01173 11.8151 4.84112 11.672 4.84112C11.6371 4.84112 11.6087 4.81997 11.6087 4.79412C11.6087 4.76827 11.5452 4.74712 11.4677 4.74712C11.3901 4.74712 11.3267 4.72597 11.3267 4.70012C11.3267 4.6718 11.1317 4.65312 10.836 4.65312C10.5595 4.65312 10.3325 4.67368 10.3162 4.70012ZM35.6727 4.70012C35.6727 4.72597 35.6092 4.74712 35.5317 4.74712C35.4541 4.74712 35.3907 4.76827 35.3907 4.79412C35.3907 4.81997 35.3622 4.84112 35.3273 4.84112C35.1842 4.84112 34.9415 5.01173 34.6462 5.31993C34.474 5.49959 34.0265 5.95138 33.6517 6.32373C33.2768 6.69621 32.8686 7.10194 32.7446 7.22531C32.6205 7.34869 32.2162 7.75629 31.8462 8.13112C31.476 8.50594 31.0172 8.96184 30.8263 9.14409C30.4049 9.54652 30.2677 9.70762 30.2677 9.79997C30.2677 9.83851 30.2465 9.87012 30.2207 9.87012C30.1948 9.87012 30.1737 9.91242 30.1737 9.96412C30.1737 10.0158 30.1525 10.0581 30.1267 10.0581C30.1008 10.0581 30.0797 10.1216 30.0797 10.1991C30.0797 10.2767 30.0585 10.3401 30.0327 10.3401C30.0043 10.3401 29.9857 10.536 29.9857 10.8336C29.9857 11.1312 30.0043 11.3271 30.0327 11.3271C30.0585 11.3271 30.0797 11.3906 30.0797 11.4681C30.0797 11.5457 30.1008 11.6091 30.1267 11.6091C30.1525 11.6091 30.1737 11.6514 30.1737 11.7031C30.1737 11.7548 30.1948 11.7971 30.2207 11.7971C30.2465 11.7971 30.2677 11.8294 30.2677 11.8689C30.2677 11.9838 30.7092 12.4551 30.817 12.4551C30.8509 12.4551 30.8787 12.472 30.8787 12.4928C30.8787 12.5637 31.3247 12.6901 31.679 12.7196C32.0485 12.7505 32.7117 12.6684 32.7117 12.5919C32.7117 12.5684 32.754 12.5491 32.8057 12.5491C32.8574 12.5491 32.8997 12.5294 32.8997 12.5053C32.8997 12.4812 32.9447 12.4471 32.9997 12.4297C33.0546 12.4122 33.3607 12.1306 33.6799 11.8038C33.999 11.477 34.3637 11.1065 34.4903 10.9803C34.7473 10.7243 36.0516 9.42033 36.4068 9.06407C36.533 8.93764 36.8952 8.58044 37.2119 8.27036C37.5286 7.96027 37.7877 7.67522 37.7877 7.63691C37.7877 7.59849 37.8088 7.56712 37.8347 7.56712C37.8605 7.56712 37.8817 7.52482 37.8817 7.47312C37.8817 7.42142 37.9028 7.37912 37.9287 7.37912C37.9545 7.37912 37.9757 7.34105 37.9757 7.29452C37.9757 7.24799 38.0001 7.18548 38.0299 7.15563C38.0646 7.12097 38.0841 6.90559 38.0841 6.55662C38.0841 6.20764 38.0646 5.99227 38.0299 5.9576C38.0001 5.92776 37.9752 5.85996 37.9746 5.80697C37.974 5.75398 37.9322 5.65774 37.8817 5.59312C37.8311 5.52849 37.7893 5.45764 37.7887 5.43567C37.7854 5.31077 37.1663 4.84112 37.005 4.84112C36.9701 4.84112 36.9417 4.81997 36.9417 4.79412C36.9417 4.76827 36.8901 4.74712 36.827 4.74712C36.7639 4.74712 36.6991 4.72597 36.6832 4.70012C36.6668 4.67368 36.4398 4.65312 36.1633 4.65312C35.8676 4.65312 35.6727 4.6718 35.6727 4.70012ZM11.0447 5.96912C11.0447 5.99497 11.0764 6.01612 11.1152 6.01612C11.1539 6.01612 11.1857 6.03727 11.1857 6.06312C11.1857 6.08897 11.2054 6.11012 11.2296 6.11012C11.2719 6.11012 12.1665 6.95389 12.5658 7.37042C12.7656 7.57875 13.6055 8.42064 14.2967 9.10531C15.0399 9.84133 15.5567 10.3862 15.5567 10.4335C15.5567 10.4597 15.5778 10.4811 15.6037 10.4811C15.6295 10.4811 15.6507 10.5128 15.6507 10.5516C15.6507 10.5904 15.6718 10.6221 15.6977 10.6221C15.7235 10.6221 15.7447 10.7173 15.7447 10.8336C15.7447 10.9499 15.7235 11.0451 15.6977 11.0451C15.6718 11.0451 15.6507 11.0768 15.6507 11.1156C15.6507 11.1544 15.6295 11.1861 15.6037 11.1861C15.5778 11.1861 15.5567 11.2178 15.5567 11.2566C15.5567 11.2957 15.5148 11.3271 15.4627 11.3271C15.411 11.3271 15.3687 11.3483 15.3687 11.3741C15.3687 11.4 15.2519 11.4211 15.1091 11.4211H14.8494L12.5476 9.11941C10.7241 7.29605 10.2457 6.79303 10.2457 6.69891C10.2457 6.63358 10.2243 6.58012 10.1983 6.58012C10.1685 6.58012 10.1665 6.54957 10.1928 6.49787C10.2158 6.45263 10.2636 6.35217 10.2989 6.27462C10.4254 5.99697 11.0447 5.74328 11.0447 5.96912ZM36.4352 5.98087C36.5821 6.06441 36.6276 6.11482 36.7004 6.27462C36.7357 6.35217 36.7835 6.45263 36.8065 6.49787C36.8329 6.54957 36.8309 6.58012 36.801 6.58012C36.775 6.58012 36.7537 6.63417 36.7537 6.70009C36.7537 6.79585 36.288 7.28571 34.4529 9.12059L32.1521 11.4211H31.8914C31.748 11.4211 31.6307 11.4 31.6307 11.3741C31.6307 11.3483 31.5884 11.3271 31.5367 11.3271C31.4845 11.3271 31.4427 11.2957 31.4427 11.2566C31.4427 11.2178 31.4215 11.1861 31.3957 11.1861C31.3698 11.1861 31.3487 11.1544 31.3487 11.1156C31.3487 11.0768 31.3275 11.0451 31.3017 11.0451C31.2758 11.0451 31.2547 10.9499 31.2547 10.8336C31.2547 10.7173 31.2758 10.6221 31.3017 10.6221C31.3275 10.6221 31.3487 10.5904 31.3487 10.5516C31.3487 10.5128 31.3698 10.4811 31.3957 10.4811C31.4215 10.4811 31.4427 10.4584 31.4427 10.4306C31.4427 10.3636 35.6948 6.11012 35.7617 6.11012C35.7903 6.11012 35.8137 6.08897 35.8137 6.06312C35.8137 6.03727 35.8454 6.01612 35.8842 6.01612C35.9229 6.01612 35.9547 5.99497 35.9547 5.96912C35.9547 5.90214 36.3122 5.91084 36.4352 5.98087ZM9.30566 14.3351C9.30566 14.361 9.21048 14.3821 9.09416 14.3821C8.97783 14.3821 8.88266 14.4033 8.88266 14.4291C8.88266 14.455 8.81921 14.4761 8.74166 14.4761C8.66411 14.4761 8.60066 14.4973 8.60066 14.5231C8.60066 14.549 8.53721 14.5701 8.45966 14.5701C8.38211 14.5701 8.31866 14.5913 8.31866 14.6171C8.31866 14.643 8.28682 14.6641 8.24792 14.6641C8.15381 14.6641 7.54809 14.9596 7.47266 15.0424C7.45973 15.0566 7.37513 15.119 7.28466 15.1811C7.19418 15.2433 7.08597 15.3322 7.04414 15.3786C7.00231 15.425 6.95296 15.4631 6.93439 15.4631C6.88434 15.4631 6.39166 15.9852 6.39166 16.038C6.39166 16.063 6.32821 16.1426 6.25066 16.2151C6.17311 16.2876 6.10966 16.376 6.10966 16.4116C6.10966 16.4472 6.06736 16.5069 6.01566 16.5441C5.96396 16.5814 5.92166 16.6495 5.92166 16.6955C5.92166 16.7415 5.90051 16.7791 5.87466 16.7791C5.84881 16.7791 5.82766 16.8108 5.82766 16.8496C5.82766 16.8884 5.80651 16.9201 5.78066 16.9201C5.75481 16.9201 5.73366 16.9513 5.73366 16.9892C5.73366 17.0272 5.69136 17.1336 5.63966 17.2256C5.58796 17.3176 5.54566 17.4347 5.54566 17.4855C5.54566 17.5364 5.52451 17.5781 5.49866 17.5781C5.47281 17.5781 5.45166 17.6403 5.45166 17.7163C5.45166 17.7923 5.43051 17.8676 5.40466 17.8836C5.37881 17.8996 5.35766 17.9918 5.35766 18.0885C5.35766 18.1852 5.33569 18.2863 5.30878 18.3132C5.20914 18.4128 5.30561 20.6801 5.40936 20.6801C5.43262 20.6801 5.45166 20.7436 5.45166 20.8211C5.45166 20.8987 5.47281 20.9621 5.49866 20.9621C5.52451 20.9621 5.54566 21.0137 5.54566 21.0768C5.54566 21.1399 5.56681 21.2046 5.59266 21.2206C5.61851 21.2366 5.63966 21.2908 5.63966 21.3409C5.63966 21.3911 5.66081 21.4321 5.68666 21.4321C5.71251 21.4321 5.73366 21.4744 5.73366 21.5261C5.73366 21.5778 5.75481 21.6201 5.78066 21.6201C5.80651 21.6201 5.82766 21.6624 5.82766 21.7141C5.82766 21.7658 5.84881 21.8081 5.87466 21.8081C5.90051 21.8081 5.92166 21.8398 5.92166 21.8786C5.92166 21.9174 5.94281 21.9491 5.96866 21.9491C5.99451 21.9491 6.01566 21.9808 6.01566 22.0196C6.01566 22.0584 6.03681 22.0901 6.06266 22.0901C6.08851 22.0901 6.10966 22.1218 6.10966 22.1606C6.10966 22.1994 6.13081 22.2311 6.15666 22.2311C6.18251 22.2311 6.20366 22.2519 6.20366 22.2773C6.20366 22.3881 7.17468 23.3591 7.28548 23.3591C7.31086 23.3591 7.33166 23.3803 7.33166 23.4061C7.33166 23.432 7.35375 23.4531 7.38066 23.4531C7.40756 23.4531 7.47501 23.4954 7.53047 23.5471C7.58593 23.5988 7.65913 23.6411 7.69297 23.6411C7.72693 23.6411 7.75466 23.6623 7.75466 23.6881C7.75466 23.714 7.79696 23.7351 7.84866 23.7351C7.90036 23.7351 7.94266 23.7563 7.94266 23.7821C7.94266 23.808 7.98496 23.8291 8.03666 23.8291C8.08836 23.8291 8.13066 23.8464 8.13066 23.8677C8.13066 23.8888 8.23641 23.9349 8.36566 23.9701C8.49491 24.0054 8.60066 24.0514 8.60066 24.0726C8.60066 24.0938 8.66282 24.1111 8.73884 24.1111C8.81486 24.1111 8.89018 24.1323 8.90616 24.1581C8.92214 24.184 9.01731 24.2051 9.11766 24.2051C9.218 24.2051 9.31318 24.2263 9.32916 24.2521C9.3469 24.2809 9.72126 24.2991 10.2955 24.2991C10.889 24.2991 11.2327 24.2818 11.2327 24.2521C11.2327 24.2263 11.2999 24.2051 11.3821 24.2051C11.5248 24.2051 11.7298 24.1528 11.9847 24.0513C12.0493 24.0256 12.1445 23.9889 12.1962 23.9698C12.3345 23.9187 12.7564 23.7168 12.7837 23.6887C12.7966 23.6753 12.8653 23.6345 12.9364 23.5979C13.0075 23.5612 13.0657 23.5136 13.0657 23.4921C13.0657 23.4707 13.0995 23.4531 13.1409 23.4531C13.1821 23.4531 13.272 23.3941 13.3406 23.3221C13.4091 23.25 13.5392 23.1393 13.6297 23.0761C13.8305 22.9358 14.0997 22.6723 14.0997 22.6159C14.0997 22.5933 14.1451 22.5344 14.2008 22.4852C14.3384 22.3633 14.7107 21.7858 14.7107 21.6941C14.7107 21.6534 14.7318 21.6201 14.7577 21.6201C14.7835 21.6201 14.8047 21.5778 14.8047 21.5261C14.8047 21.4744 14.8258 21.4321 14.8517 21.4321C14.8775 21.4321 14.8987 21.3898 14.8987 21.3381C14.8987 21.2864 14.9198 21.2441 14.9457 21.2441C14.9715 21.2441 14.9927 21.1807 14.9927 21.1031C14.9927 21.0256 15.0138 20.9621 15.0397 20.9621C15.0655 20.9621 15.0867 20.8987 15.0867 20.8211C15.0867 20.7436 15.1078 20.6801 15.1337 20.6801C15.1595 20.6801 15.1807 20.5849 15.1807 20.4686C15.1807 20.3523 15.2018 20.2571 15.2277 20.2571C15.2575 20.2571 15.2747 19.9046 15.2747 19.2936C15.2747 18.6826 15.2575 18.3301 15.2277 18.3301C15.2018 18.3301 15.1807 18.2362 15.1807 18.1214C15.1807 18.0066 15.1595 17.8996 15.1337 17.8836C15.1078 17.8676 15.0867 17.7923 15.0867 17.7163C15.0867 17.6403 15.0655 17.5781 15.0397 17.5781C15.0138 17.5781 14.9927 17.5265 14.9927 17.4634C14.9927 17.4003 14.9715 17.3356 14.9457 17.3196C14.9198 17.3036 14.8987 17.2495 14.8987 17.1993C14.8987 17.1491 14.8775 17.1081 14.8517 17.1081C14.8258 17.1081 14.8047 17.0658 14.8047 17.0141C14.8047 16.9624 14.7888 16.9199 14.7694 16.9196C14.75 16.9194 14.6924 16.8242 14.6413 16.7081C14.5903 16.5921 14.5336 16.4971 14.5153 16.4971C14.4969 16.4971 14.4683 16.4538 14.4515 16.4008C14.4347 16.3478 14.3538 16.2366 14.272 16.1537C14.1901 16.0707 14.0712 15.9257 14.0078 15.8315C13.9443 15.7371 13.8346 15.6259 13.7638 15.584C13.6931 15.5423 13.5491 15.4253 13.4437 15.324C13.3383 15.2228 13.2101 15.1266 13.1588 15.1104C13.1076 15.0941 13.0657 15.061 13.0657 15.0369C13.0657 15.0129 13.0234 14.9931 12.9717 14.9931C12.92 14.9931 12.8777 14.9754 12.8777 14.9538C12.8777 14.9016 12.4052 14.6641 12.3012 14.6641C12.2563 14.6641 12.2197 14.643 12.2197 14.6171C12.2197 14.5913 12.1668 14.5701 12.1022 14.5701C12.0375 14.5701 11.9847 14.549 11.9847 14.5231C11.9847 14.4973 11.9225 14.4761 11.8465 14.4761C11.7705 14.4761 11.6951 14.455 11.6792 14.4291C11.6632 14.4033 11.5561 14.3821 11.4413 14.3821C11.3265 14.3821 11.2327 14.361 11.2327 14.3351C11.2327 14.3053 10.8802 14.2881 10.2692 14.2881C9.65816 14.2881 9.30566 14.3053 9.30566 14.3351ZM35.7667 14.3351C35.7667 14.361 35.6728 14.3821 35.558 14.3821C35.4432 14.3821 35.3361 14.4033 35.3202 14.4291C35.3042 14.455 35.2289 14.4761 35.1528 14.4761C35.0768 14.4761 35.0147 14.4973 35.0147 14.5231C35.0147 14.549 34.9618 14.5701 34.8972 14.5701C34.8325 14.5701 34.7797 14.5913 34.7797 14.6171C34.7797 14.643 34.7405 14.6641 34.6927 14.6641C34.5839 14.6641 34.0366 14.9469 33.8969 15.0754C33.8618 15.1077 33.815 15.1341 33.7931 15.1341C33.7713 15.1341 33.6658 15.2183 33.5587 15.3211C33.4517 15.424 33.3062 15.5423 33.2355 15.584C33.1647 15.6259 33.055 15.7371 32.9915 15.8315C32.9281 15.9257 32.8092 16.0707 32.7273 16.1537C32.6455 16.2366 32.5647 16.3478 32.5479 16.4008C32.5311 16.4538 32.5024 16.4971 32.4841 16.4971C32.4657 16.4971 32.409 16.5921 32.358 16.7081C32.3069 16.8242 32.2493 16.9194 32.2299 16.9196C32.2105 16.9199 32.1947 16.9624 32.1947 17.0141C32.1947 17.0658 32.1735 17.1081 32.1477 17.1081C32.1218 17.1081 32.1007 17.1491 32.1007 17.1993C32.1007 17.2495 32.0795 17.3036 32.0537 17.3196C32.0278 17.3356 32.0067 17.4003 32.0067 17.4634C32.0067 17.5265 31.9855 17.5781 31.9597 17.5781C31.9338 17.5781 31.9127 17.6403 31.9127 17.7163C31.9127 17.7923 31.8915 17.8676 31.8657 17.8836C31.8398 17.8996 31.8187 17.9948 31.8187 18.0951C31.8187 18.1955 31.7975 18.2906 31.7717 18.3066C31.7428 18.3245 31.7247 18.7066 31.7247 19.2964C31.7247 19.9056 31.7418 20.2571 31.7717 20.2571C31.7975 20.2571 31.8187 20.3523 31.8187 20.4686C31.8187 20.5849 31.8398 20.6801 31.8657 20.6801C31.8915 20.6801 31.9127 20.7436 31.9127 20.8211C31.9127 20.8987 31.9338 20.9621 31.9597 20.9621C31.9855 20.9621 32.0067 21.0256 32.0067 21.1031C32.0067 21.1807 32.0278 21.2441 32.0537 21.2441C32.0795 21.2441 32.1007 21.2864 32.1007 21.3381C32.1007 21.3898 32.1218 21.4321 32.1477 21.4321C32.1735 21.4321 32.1947 21.4744 32.1947 21.5261C32.1947 21.5778 32.2158 21.6201 32.2417 21.6201C32.2675 21.6201 32.2887 21.6534 32.2887 21.6941C32.2887 21.7858 32.6609 22.3633 32.7985 22.4852C32.8542 22.5344 32.8997 22.5931 32.8997 22.6157C32.8997 22.67 33.3082 23.0771 33.3627 23.0771C33.3862 23.0771 33.4924 23.1617 33.599 23.2651C33.7056 23.3685 33.8245 23.4531 33.8632 23.4531C33.9019 23.4531 33.9337 23.4707 33.9337 23.4921C33.9337 23.5136 33.9918 23.5612 34.0629 23.5979C34.134 23.6345 34.2027 23.6753 34.2157 23.6887C34.2417 23.7155 34.6428 23.9083 34.8267 23.9823C35.2095 24.1366 35.4527 24.2051 35.6172 24.2051C35.6994 24.2051 35.7667 24.2263 35.7667 24.2521C35.7667 24.2818 36.1103 24.2991 36.7038 24.2991C37.2781 24.2991 37.6524 24.2809 37.6702 24.2521C37.6861 24.2263 37.7813 24.2051 37.8817 24.2051C37.982 24.2051 38.0772 24.184 38.0932 24.1581C38.1091 24.1323 38.1845 24.1111 38.2605 24.1111C38.3365 24.1111 38.3987 24.0938 38.3987 24.0726C38.3987 24.0514 38.5044 24.0054 38.6337 23.9701C38.7629 23.9349 38.8687 23.8888 38.8687 23.8677C38.8687 23.8464 38.911 23.8291 38.9627 23.8291C39.0144 23.8291 39.0567 23.808 39.0567 23.7821C39.0567 23.7563 39.099 23.7351 39.1507 23.7351C39.2024 23.7351 39.2447 23.714 39.2447 23.6881C39.2447 23.6623 39.2764 23.6411 39.3152 23.6411C39.3539 23.6411 39.3857 23.62 39.3857 23.5941C39.3857 23.5683 39.4174 23.5471 39.4562 23.5471C39.4949 23.5471 39.5267 23.526 39.5267 23.5001C39.5267 23.4743 39.5584 23.4531 39.5972 23.4531C39.6359 23.4531 39.6677 23.432 39.6677 23.4061C39.6677 23.3803 39.6885 23.3591 39.7138 23.3591C39.8246 23.3591 40.7957 22.3881 40.7957 22.2773C40.7957 22.2519 40.8168 22.2311 40.8427 22.2311C40.8685 22.2311 40.8897 22.1994 40.8897 22.1606C40.8897 22.1218 40.9108 22.0901 40.9367 22.0901C40.9625 22.0901 40.9837 22.0584 40.9837 22.0196C40.9837 21.9808 41.0048 21.9491 41.0307 21.9491C41.0565 21.9491 41.0777 21.9174 41.0777 21.8786C41.0777 21.8398 41.0988 21.8081 41.1247 21.8081C41.1505 21.8081 41.1717 21.7658 41.1717 21.7141C41.1717 21.6624 41.1928 21.6201 41.2187 21.6201C41.2445 21.6201 41.2657 21.5778 41.2657 21.5261C41.2657 21.4744 41.2868 21.4321 41.3127 21.4321C41.3385 21.4321 41.3597 21.3911 41.3597 21.3409C41.3597 21.2908 41.3808 21.2366 41.4067 21.2206C41.4325 21.2046 41.4537 21.1399 41.4537 21.0768C41.4537 21.0137 41.4748 20.9621 41.5007 20.9621C41.5265 20.9621 41.5477 20.8987 41.5477 20.8211C41.5477 20.7436 41.5667 20.6801 41.59 20.6801C41.6937 20.6801 41.7902 18.4128 41.6905 18.3132C41.6636 18.2863 41.6417 18.1852 41.6417 18.0885C41.6417 17.9918 41.6205 17.8996 41.5947 17.8836C41.5688 17.8676 41.5477 17.7923 41.5477 17.7163C41.5477 17.6403 41.5265 17.5781 41.5007 17.5781C41.4748 17.5781 41.4537 17.5265 41.4537 17.4634C41.4537 17.4003 41.4325 17.3356 41.4067 17.3196C41.3808 17.3036 41.3597 17.2495 41.3597 17.1993C41.3597 17.1491 41.3425 17.1081 41.3215 17.1081C41.3004 17.1081 41.2541 17.0341 41.2187 16.9436C41.1832 16.8531 41.1369 16.7791 41.1158 16.7791C41.0948 16.7791 41.0777 16.7415 41.0777 16.6955C41.0777 16.6495 41.0354 16.5814 40.9837 16.5441C40.932 16.5069 40.8897 16.4472 40.8897 16.4116C40.8897 16.376 40.8262 16.2876 40.7487 16.2151C40.6711 16.1426 40.6077 16.063 40.6077 16.038C40.6077 15.9852 40.115 15.4631 40.0649 15.4631C40.0464 15.4631 39.997 15.425 39.9552 15.3786C39.9134 15.3322 39.8051 15.2433 39.7147 15.1811C39.6242 15.119 39.5396 15.0566 39.5267 15.0424C39.4512 14.9596 38.8455 14.6641 38.7514 14.6641C38.7125 14.6641 38.6807 14.643 38.6807 14.6171C38.6807 14.5913 38.6172 14.5701 38.5397 14.5701C38.4621 14.5701 38.3987 14.549 38.3987 14.5231C38.3987 14.4973 38.3352 14.4761 38.2577 14.4761C38.1801 14.4761 38.1167 14.455 38.1167 14.4291C38.1167 14.4033 38.0215 14.3821 37.9052 14.3821C37.7888 14.3821 37.6937 14.361 37.6937 14.3351C37.6937 14.3053 37.3412 14.2881 36.7302 14.2881C36.1192 14.2881 35.7667 14.3053 35.7667 14.3351ZM10.3397 15.5101C10.3397 15.5373 10.4876 15.5571 10.6893 15.5571C10.8817 15.5571 11.0522 15.5783 11.0682 15.6041C11.0841 15.63 11.1491 15.6511 11.2126 15.6511C11.276 15.6511 11.3646 15.6698 11.4095 15.6926C11.4544 15.7155 11.544 15.7548 11.6087 15.78C11.9065 15.8961 12.2853 16.1033 12.4259 16.2269C12.4773 16.2721 12.5349 16.3091 12.5539 16.3091C12.615 16.3091 13.2537 16.9643 13.2537 17.0269C13.2537 17.0602 13.296 17.1179 13.3477 17.1551C13.3994 17.1924 13.4417 17.2508 13.4417 17.285C13.4417 17.3191 13.484 17.3925 13.5357 17.4479C13.5874 17.5034 13.6297 17.5766 13.6297 17.6104C13.6297 17.6444 13.6508 17.6721 13.6767 17.6721C13.7025 17.6721 13.7237 17.7147 13.7237 17.7667C13.7237 17.8581 13.7403 17.9035 13.8574 18.1298C13.8872 18.1876 13.9117 18.2868 13.9117 18.3502C13.9117 18.4137 13.9328 18.4786 13.9587 18.4946C13.9869 18.5121 14.0057 18.832 14.0057 19.2964C14.0057 19.7802 13.988 20.0691 13.9587 20.0691C13.9328 20.0691 13.9117 20.1313 13.9117 20.2073C13.9117 20.2833 13.8905 20.3586 13.8647 20.3746C13.8388 20.3906 13.8177 20.4553 13.8177 20.5184C13.8177 20.5815 13.7965 20.6331 13.7707 20.6331C13.7448 20.6331 13.7237 20.6628 13.7237 20.6992C13.7237 20.7881 13.528 21.1501 13.48 21.1501C13.4589 21.1501 13.4417 21.1877 13.4417 21.2338C13.4417 21.2797 13.3994 21.3479 13.3477 21.3851C13.296 21.4224 13.2537 21.4765 13.2537 21.5056C13.2537 21.5345 13.1638 21.655 13.0539 21.7733C12.944 21.8917 12.7942 22.0536 12.7209 22.1332C12.6476 22.2129 12.5624 22.2781 12.5315 22.2781C12.5007 22.2781 12.4449 22.3204 12.4077 22.3721C12.3704 22.4238 12.3023 22.4661 12.2563 22.4661C12.2103 22.4661 12.1727 22.4873 12.1727 22.5131C12.1727 22.539 12.1489 22.5601 12.1198 22.5601C12.0694 22.5601 11.5815 22.7568 11.4095 22.8466C11.3646 22.87 11.279 22.8891 11.2191 22.8891C11.1593 22.8891 11.0885 22.9111 11.0616 22.938C10.995 23.0046 9.52444 23.005 9.50224 22.9384C9.49319 22.9113 9.42386 22.8891 9.34808 22.8891C9.27241 22.8891 9.17371 22.8704 9.12882 22.8476C9.08394 22.8247 8.98371 22.7795 8.90616 22.7471C8.60454 22.6206 8.43545 22.5352 8.42053 22.5014C8.41184 22.482 8.36895 22.4661 8.32512 22.4661C8.28129 22.4661 8.21491 22.4238 8.17766 22.3721C8.14041 22.3204 8.08248 22.2781 8.049 22.2781C7.96968 22.2781 7.28466 21.5931 7.28466 21.5138C7.28466 21.4803 7.24236 21.4224 7.19066 21.3851C7.13896 21.3479 7.09666 21.2797 7.09666 21.2338C7.09666 21.1877 7.07551 21.1501 7.04966 21.1501C7.02381 21.1501 7.00266 21.1184 7.00266 21.0796C7.00266 21.0408 6.98151 21.0091 6.95566 21.0091C6.92981 21.0091 6.90866 20.9668 6.90866 20.9151C6.90866 20.8634 6.88939 20.8211 6.86577 20.8211C6.84215 20.8211 6.80867 20.7366 6.79116 20.6334C6.77377 20.5301 6.74016 20.4337 6.71655 20.419C6.69293 20.4045 6.67366 20.3346 6.67366 20.2637C6.67366 20.1928 6.65051 20.1118 6.62231 20.0836C6.55216 20.0134 6.55275 18.5035 6.62302 18.4802C6.65086 18.4709 6.67436 18.4174 6.67519 18.3615C6.67683 18.2517 6.82817 17.7839 6.87823 17.7338C6.89503 17.7171 6.90866 17.6687 6.90866 17.6262C6.90866 17.5836 6.95096 17.5034 7.00266 17.4479C7.05436 17.3925 7.09666 17.3191 7.09666 17.285C7.09666 17.2508 7.13896 17.1924 7.19066 17.1551C7.24236 17.1179 7.28466 17.0587 7.28466 17.0235C7.28466 16.9636 7.42037 16.8219 7.82222 16.4619C7.9161 16.3779 8.00928 16.3091 8.02937 16.3091C8.04947 16.3091 8.10787 16.2721 8.15909 16.2269C8.27718 16.1225 8.5056 15.9821 8.61241 15.9483C8.65765 15.9339 8.69466 15.9035 8.69466 15.8806C8.69466 15.8578 8.74753 15.8391 8.81216 15.8391C8.87678 15.8391 8.92966 15.818 8.92966 15.7921C8.92966 15.7663 8.98124 15.7451 9.04434 15.7451C9.10744 15.7451 9.17218 15.724 9.18816 15.6981C9.20414 15.6723 9.27946 15.6511 9.35548 15.6511C9.4315 15.6511 9.49366 15.63 9.49366 15.6041C9.49366 15.577 9.64159 15.5571 9.84334 15.5571C10.0357 15.5571 10.2062 15.536 10.2222 15.5101C10.2381 15.4843 10.2712 15.4631 10.2955 15.4631C10.3198 15.4631 10.3397 15.4843 10.3397 15.5101ZM37.5057 15.6074C37.5057 15.6315 37.5678 15.6511 37.6438 15.6511C37.7199 15.6511 37.7952 15.6723 37.8112 15.6981C37.8271 15.724 37.8919 15.7451 37.955 15.7451C38.0181 15.7451 38.0697 15.7663 38.0697 15.7921C38.0697 15.818 38.1008 15.8391 38.1388 15.8391C38.2011 15.8391 38.2938 15.8842 38.6366 16.0814C38.697 16.1162 38.7884 16.1816 38.8399 16.2269C38.8913 16.2721 38.9499 16.3091 38.9699 16.3091C39.0542 16.3091 39.7147 16.951 39.7147 17.0329C39.7147 17.0629 39.757 17.1179 39.8087 17.1551C39.8604 17.1924 39.9027 17.2508 39.9027 17.285C39.9027 17.3191 39.945 17.3925 39.9967 17.4479C40.0484 17.5034 40.0907 17.5836 40.0907 17.6262C40.0907 17.6687 40.1043 17.7171 40.1211 17.7338C40.1712 17.7839 40.3225 18.2517 40.3241 18.3615C40.325 18.4174 40.3479 18.4706 40.3751 18.4798C40.4392 18.5011 40.4432 19.981 40.3795 20.1004C40.3542 20.1478 40.2978 20.3135 40.2542 20.4686C40.1551 20.8218 40.0781 21.0091 40.0321 21.0091C40.0126 21.0091 39.9967 21.0408 39.9967 21.0796C39.9967 21.1184 39.9755 21.1501 39.9497 21.1501C39.9238 21.1501 39.9027 21.1877 39.9027 21.2338C39.9027 21.2797 39.8604 21.3479 39.8087 21.3851C39.757 21.4224 39.7147 21.4803 39.7147 21.5138C39.7147 21.5931 39.0296 22.2781 38.9503 22.2781C38.9168 22.2781 38.8589 22.3204 38.8217 22.3721C38.7844 22.4238 38.718 22.4661 38.6742 22.4661C38.6304 22.4661 38.5875 22.482 38.5788 22.5014C38.5702 22.5208 38.4257 22.5974 38.2577 22.6716C38.0896 22.7458 37.9154 22.8251 37.8705 22.8479C37.8256 22.8706 37.7269 22.8891 37.6512 22.8891C37.5755 22.8891 37.5061 22.9113 37.4971 22.9384C37.4749 23.005 36.0044 23.0046 35.9377 22.938C35.9108 22.9111 35.8309 22.8891 35.7601 22.8891C35.6892 22.8891 35.6181 22.868 35.6022 22.8421C35.5862 22.8163 35.5424 22.7951 35.5049 22.7951C35.4674 22.7951 35.347 22.7546 35.2374 22.7049C35.1278 22.6553 34.9906 22.601 34.9324 22.5842C34.8742 22.5675 34.8267 22.534 34.8267 22.5099C34.8267 22.4859 34.7891 22.4661 34.743 22.4661C34.6971 22.4661 34.6289 22.4238 34.5917 22.3721C34.5544 22.3204 34.4916 22.2779 34.4521 22.2776C34.4125 22.2774 34.3273 22.2097 34.2627 22.1272C34.198 22.0448 34.0553 21.8868 33.9454 21.7764C33.8355 21.6659 33.7457 21.5578 33.7457 21.5362C33.7457 21.5146 33.7086 21.4559 33.6634 21.4057C33.6182 21.3556 33.5512 21.2565 33.5144 21.1854C33.4778 21.1143 33.4302 21.0561 33.4087 21.0561C33.3873 21.0561 33.3697 21.0151 33.3697 20.9649C33.3697 20.9148 33.3485 20.8606 33.3227 20.8446C33.2968 20.8286 33.2757 20.7745 33.2757 20.7243C33.2757 20.6741 33.2545 20.6331 33.2287 20.6331C33.2028 20.6331 33.1817 20.5815 33.1817 20.5184C33.1817 20.4553 33.1605 20.3906 33.1347 20.3746C33.1088 20.3586 33.0877 20.2833 33.0877 20.2073C33.0877 20.1313 33.0665 20.0691 33.0407 20.0691C33.0113 20.0691 32.9937 19.7802 32.9937 19.2964C32.9937 18.832 33.0125 18.5121 33.0407 18.4946C33.0665 18.4786 33.0877 18.4137 33.0877 18.3502C33.0877 18.2868 33.1063 18.1982 33.1291 18.1533C33.1521 18.1084 33.1916 18.0187 33.2173 17.9541C33.3237 17.6852 33.481 17.3901 33.5181 17.3901C33.5398 17.3901 33.5577 17.3525 33.5577 17.3065C33.5577 17.2605 33.6 17.1924 33.6517 17.1551C33.7034 17.1179 33.7457 17.0602 33.7457 17.0269C33.7457 16.9509 34.3909 16.3091 34.4673 16.3091C34.4985 16.3091 34.5544 16.2668 34.5917 16.2151C34.6289 16.1634 34.6873 16.1211 34.7215 16.1211C34.7557 16.1211 34.829 16.0788 34.8845 16.0271C34.9399 15.9754 35.0131 15.9331 35.047 15.9331C35.0809 15.9331 35.1087 15.912 35.1087 15.8861C35.1087 15.8603 35.1512 15.8391 35.2032 15.8391C35.2553 15.8391 35.3399 15.818 35.3912 15.7921C35.4426 15.7663 35.5267 15.724 35.5781 15.6981C35.6294 15.6723 35.7204 15.6511 35.7802 15.6511C35.84 15.6511 35.909 15.631 35.9335 15.6065C36.0208 15.5192 37.5057 15.5202 37.5057 15.6074ZM20.1862 18.9881C20.1702 19.014 20.0946 19.0351 20.0181 19.0351C19.8507 19.0351 19.5047 19.1378 19.5047 19.1875C19.5047 19.2071 19.4671 19.2231 19.421 19.2231C19.3751 19.2231 19.3069 19.2654 19.2697 19.3171C19.2324 19.3688 19.1774 19.4111 19.1475 19.4111C19.0617 19.4111 18.5177 19.9821 18.5177 20.0721C18.5177 20.1014 18.4542 20.1846 18.3767 20.2571C18.2991 20.3296 18.2357 20.4227 18.2357 20.4639C18.2357 20.5053 18.2145 20.5391 18.1887 20.5391C18.1628 20.5391 18.1417 20.5708 18.1417 20.6096C18.1417 20.6484 18.124 20.6801 18.1026 20.6801C18.0811 20.6801 18.0336 20.7383 17.9969 20.8094C17.9601 20.8805 17.8931 20.9796 17.8479 21.0297C17.8027 21.0799 17.7657 21.1486 17.7657 21.1824C17.7657 21.2164 17.7445 21.2441 17.7187 21.2441C17.6928 21.2441 17.6717 21.2817 17.6717 21.3278C17.6717 21.3737 17.6294 21.4419 17.5777 21.4791C17.526 21.5164 17.4837 21.5845 17.4837 21.6305C17.4837 21.6765 17.466 21.7141 17.4447 21.7141C17.4231 21.7141 17.3757 21.7723 17.3391 21.8434C17.3027 21.9145 17.2356 22.0068 17.1903 22.0486C17.1448 22.0905 17.1077 22.1515 17.1077 22.1841C17.1077 22.2168 17.0704 22.2778 17.0249 22.3196C16.9793 22.3614 16.8799 22.4802 16.804 22.5836C16.7281 22.687 16.6279 22.8058 16.5814 22.8476C16.5347 22.8895 16.4967 22.9476 16.4967 22.9769C16.4967 23.0061 16.4755 23.0301 16.4497 23.0301C16.4238 23.0301 16.4027 23.0515 16.4027 23.0776C16.4027 23.1321 15.247 24.2991 15.1929 24.2992C15.1733 24.2992 15.0831 24.3627 14.9927 24.4401C14.9022 24.5176 14.8156 24.581 14.8002 24.581C14.7848 24.5811 14.7108 24.634 14.6357 24.6986C14.5606 24.7631 14.4727 24.816 14.4404 24.8161C14.4081 24.8161 14.3817 24.8373 14.3817 24.8631C14.3817 24.889 14.3394 24.9101 14.2877 24.9101C14.236 24.9101 14.1937 24.9313 14.1937 24.9571C14.1937 24.983 14.1514 25.0041 14.0997 25.0041C14.048 25.0041 14.0057 25.0253 14.0057 25.0511C14.0057 25.077 13.9634 25.0981 13.9117 25.0981C13.86 25.0981 13.8177 25.1193 13.8177 25.1451C13.8177 25.171 13.7542 25.1921 13.6767 25.1921C13.5991 25.1921 13.5357 25.2133 13.5357 25.2391C13.5357 25.2678 13.3163 25.2861 12.9717 25.2861C12.627 25.2861 12.4077 25.2678 12.4077 25.2391C12.4077 25.2115 12.2432 25.1921 12.0082 25.1921C11.7732 25.1921 11.6087 25.1727 11.6087 25.1451C11.6087 25.1149 11.123 25.0981 10.2457 25.0981C9.36829 25.0981 8.88266 25.1149 8.88266 25.1451C8.88266 25.1712 8.75729 25.1921 8.60066 25.1921C8.44403 25.1921 8.31866 25.213 8.31866 25.2391C8.31866 25.265 8.22478 25.2861 8.10998 25.2861C7.99518 25.2861 7.88814 25.3073 7.87216 25.3331C7.85618 25.359 7.78086 25.3801 7.70484 25.3801C7.62882 25.3801 7.56666 25.4013 7.56666 25.4271C7.56666 25.453 7.49263 25.4741 7.40216 25.4741C7.31168 25.4741 7.23766 25.4953 7.23766 25.5211C7.23766 25.547 7.17421 25.5681 7.09666 25.5681C7.01911 25.5681 6.95566 25.5893 6.95566 25.6151C6.95566 25.641 6.91336 25.6621 6.86166 25.6621C6.80996 25.6621 6.76766 25.6833 6.76766 25.7091C6.76766 25.735 6.70421 25.7561 6.62666 25.7561C6.54911 25.7561 6.48566 25.7773 6.48566 25.8031C6.48566 25.829 6.44336 25.8501 6.39166 25.8501C6.33996 25.8501 6.29766 25.8713 6.29766 25.8971C6.29766 25.923 6.25536 25.9441 6.20366 25.9441C6.15196 25.9441 6.10966 25.9653 6.10966 25.9911C6.10966 26.017 6.06736 26.0381 6.01566 26.0381C5.96396 26.0381 5.92166 26.0593 5.92166 26.0851C5.92166 26.111 5.87936 26.1321 5.82766 26.1321C5.77596 26.1321 5.73366 26.1533 5.73366 26.1791C5.73366 26.205 5.69136 26.2261 5.63966 26.2261C5.58796 26.2261 5.54566 26.2473 5.54566 26.2731C5.54566 26.299 5.50336 26.3201 5.45166 26.3201C5.39996 26.3201 5.35766 26.3413 5.35766 26.3671C5.35766 26.393 5.33604 26.4141 5.3096 26.4141C5.25261 26.4141 4.87097 26.6572 4.84853 26.7079C4.83984 26.7273 4.80811 26.7431 4.77803 26.7432C4.74783 26.7432 4.64913 26.8067 4.55866 26.8841C4.46818 26.9616 4.37618 27.025 4.35421 27.025C4.33235 27.0251 4.25833 27.0834 4.18971 27.1545C4.12121 27.2257 3.98326 27.3451 3.88315 27.4198C3.66131 27.5855 3.26122 27.9836 3.10166 28.1974C3.03703 28.2841 2.90485 28.4356 2.80791 28.5342C2.71097 28.6328 2.63166 28.7353 2.63166 28.7622C2.63166 28.7891 2.61051 28.8111 2.58466 28.8111C2.55881 28.8111 2.53766 28.8381 2.53766 28.8713C2.53766 28.9043 2.49536 28.9619 2.44366 28.9991C2.39196 29.0364 2.34966 29.0939 2.34966 29.127C2.34966 29.1601 2.32851 29.1871 2.30266 29.1871C2.27681 29.1871 2.25566 29.2188 2.25566 29.2576C2.25566 29.2964 2.23451 29.3281 2.20866 29.3281C2.18281 29.3281 2.16166 29.3559 2.16166 29.3898C2.16166 29.4236 2.11936 29.4968 2.06766 29.5523C2.01596 29.6078 1.97366 29.6811 1.97366 29.7153C1.97366 29.7495 1.93136 29.8079 1.87966 29.8451C1.82796 29.8824 1.78566 29.9505 1.78566 29.9965C1.78566 30.0425 1.76451 30.0801 1.73866 30.0801C1.71281 30.0801 1.69166 30.1224 1.69166 30.1741C1.69166 30.2258 1.6758 30.2682 1.65641 30.2682C1.63702 30.2684 1.56828 30.3847 1.50366 30.5266C1.43903 30.6686 1.3703 30.7849 1.35091 30.785C1.33152 30.785 1.31566 30.8163 1.31566 30.8542C1.31566 30.8922 1.27771 30.9926 1.23129 31.0775C1.185 31.1623 1.10804 31.3585 1.06021 31.5136C0.966802 31.8172 0.905819 31.9832 0.840137 32.1123C0.817342 32.1572 0.798659 32.2365 0.798659 32.2885C0.798659 32.3406 0.777509 32.3831 0.751659 32.3831C0.725809 32.3831 0.704659 32.4571 0.704659 32.5476C0.704659 32.6381 0.683509 32.7121 0.657659 32.7121C0.631809 32.7121 0.610659 32.7756 0.610659 32.8531C0.610659 32.9307 0.589509 32.9941 0.563659 32.9941C0.537809 32.9941 0.516659 33.0787 0.516659 33.1821C0.516659 33.2855 0.495509 33.3701 0.469659 33.3701C0.443809 33.3701 0.422659 33.464 0.422659 33.5788C0.422659 33.6936 0.401509 33.8006 0.375659 33.8166C0.349809 33.8326 0.328659 33.9278 0.328659 34.0281C0.328659 34.1285 0.307509 34.2236 0.281659 34.2396C0.255809 34.2556 0.234659 34.3719 0.234659 34.4981C0.234659 34.6243 0.213509 34.7406 0.187659 34.7566C0.161809 34.7726 0.140659 34.9283 0.140659 35.1025C0.140659 35.2932 0.117277 35.4427 0.0819094 35.4781C-0.00386563 35.5638 -0.00386563 40.8498 0.0819094 40.8784C0.122682 40.892 0.140659 41.0183 0.140659 41.2908C0.140659 41.5068 0.161809 41.6966 0.187659 41.7126C0.213509 41.7286 0.234659 41.8779 0.234659 42.0444C0.234659 42.2149 0.255222 42.3471 0.281659 42.3471C0.308097 42.3471 0.328659 42.4793 0.328659 42.6498C0.328659 42.8163 0.349809 42.9656 0.375659 42.9816C0.401509 42.9976 0.422659 43.1139 0.422659 43.2401C0.422659 43.3663 0.443809 43.4826 0.469659 43.4986C0.495509 43.5146 0.516659 43.6203 0.516659 43.7336C0.516659 43.8469 0.537809 43.9526 0.563659 43.9686C0.589509 43.9846 0.610659 44.0798 0.610659 44.1801C0.610659 44.2805 0.631809 44.3756 0.657659 44.3916C0.683509 44.4076 0.704659 44.5146 0.704659 44.6294C0.704659 44.7442 0.725809 44.8381 0.751659 44.8381C0.777509 44.8381 0.798659 44.9227 0.798659 45.0261C0.798659 45.1295 0.819809 45.2141 0.845659 45.2141C0.871509 45.2141 0.892659 45.2461 0.892659 45.2852C0.892659 45.3243 0.910754 45.3931 0.932727 45.438C0.954817 45.4828 1.01298 45.603 1.06198 45.705C1.16373 45.9167 1.89564 46.6711 1.99916 46.6711C2.03687 46.6711 2.06766 46.6923 2.06766 46.7181C2.06766 46.744 2.10996 46.7651 2.16166 46.7651C2.21336 46.7651 2.25566 46.7863 2.25566 46.8121C2.25566 46.838 2.2962 46.8591 2.34578 46.8591C2.39525 46.8591 2.4446 46.8856 2.45541 46.9179C2.47092 46.9645 4.07362 46.9766 10.2589 46.9766C16.4235 46.9766 18.0552 46.9644 18.1017 46.9179C18.134 46.8856 18.1985 46.8591 18.2451 46.8591C18.2916 46.8591 18.3297 46.8431 18.3297 46.8236C18.3297 46.804 18.3984 46.7577 18.4824 46.7207C18.6451 46.649 19.4107 45.9131 19.4107 45.8285C19.4107 45.8008 19.4279 45.7781 19.449 45.7781C19.5037 45.7781 19.6927 45.4102 19.6927 45.3037C19.6927 45.2544 19.7138 45.2141 19.7397 45.2141C19.7655 45.2141 19.7867 45.152 19.7867 45.0759C19.7867 44.9999 19.8078 44.9246 19.8337 44.9086C19.8596 44.8925 19.8807 44.681 19.8807 44.4358C19.8807 44.1713 19.8997 43.9921 19.9277 43.9921C19.9924 43.9921 19.9924 38.6507 19.9277 38.6106C19.9006 38.5939 19.8807 38.3447 19.8807 38.0231C19.8807 37.7015 19.8607 37.4523 19.8337 37.4356C19.8078 37.4196 19.7867 37.2293 19.7867 37.0126C19.7867 36.7959 19.7655 36.6056 19.7397 36.5896C19.7138 36.5736 19.6927 36.4256 19.6927 36.2606C19.6927 36.0956 19.6715 35.9476 19.6457 35.9316C19.6198 35.9156 19.5987 35.7663 19.5987 35.5998C19.5987 35.4293 19.5781 35.2971 19.5517 35.2971C19.5258 35.2971 19.5047 35.1808 19.5047 35.0386C19.5047 34.8964 19.4835 34.7801 19.4577 34.7801C19.4318 34.7801 19.4107 34.6744 19.4107 34.5451C19.4107 34.4159 19.3895 34.3101 19.3637 34.3101C19.3378 34.3101 19.3167 34.2162 19.3167 34.1014C19.3167 33.9866 19.2955 33.8796 19.2697 33.8636C19.2438 33.8476 19.2227 33.7512 19.2227 33.6493C19.2227 33.5474 19.2015 33.4641 19.1757 33.4641C19.1498 33.4641 19.1287 33.3795 19.1287 33.2761C19.1287 33.1727 19.1075 33.0881 19.0817 33.0881C19.0558 33.0881 19.0347 33.0154 19.0347 32.9264C19.0347 32.8375 19.0135 32.7516 18.9877 32.7356C18.9618 32.7196 18.9407 32.6443 18.9407 32.5683C18.9407 32.4923 18.9195 32.4301 18.8937 32.4301C18.8678 32.4301 18.8467 32.3561 18.8467 32.2656C18.8467 32.1751 18.8255 32.1011 18.7997 32.1011C18.7738 32.1011 18.7527 32.0377 18.7527 31.9601C18.7527 31.8826 18.7315 31.8191 18.7057 31.8191C18.6798 31.8191 18.6587 31.757 18.6587 31.6809C18.6587 31.6049 18.6383 31.5301 18.6134 31.5147C18.5885 31.4993 18.652 31.4004 18.7544 31.2947C18.8569 31.1892 18.9407 31.0825 18.9407 31.0577C18.9407 31.033 19.0253 30.9315 19.1287 30.8321C19.2321 30.7327 19.3167 30.627 19.3167 30.5971C19.3167 30.5673 19.4013 30.4615 19.5047 30.3621C19.6081 30.2627 19.6927 30.1693 19.6927 30.1544C19.6927 30.1395 19.7773 30.0401 19.8807 29.9335C19.9841 29.8269 20.0687 29.721 20.0687 29.698C20.0687 29.6751 20.1321 29.5899 20.2097 29.5087C20.2872 29.4275 20.3507 29.3422 20.3507 29.3192C20.3507 29.2795 20.3905 29.2234 20.5269 29.0714C20.5592 29.0353 20.5857 28.9811 20.5857 28.9508C20.5857 28.9206 20.6491 28.8366 20.7267 28.7641C20.8042 28.6916 20.8677 28.6033 20.8677 28.5677C20.8677 28.5321 20.91 28.4724 20.9617 28.4351C21.0134 28.3979 21.0557 28.345 21.0557 28.3176C21.0557 28.2902 21.098 28.2374 21.1497 28.2001C21.2014 28.1629 21.2437 28.1053 21.2437 28.0723C21.2437 28.0391 21.2648 28.0121 21.2907 28.0121C21.3165 28.0121 21.3377 27.9804 21.3377 27.9416C21.3377 27.9028 21.3588 27.8711 21.3847 27.8711C21.4105 27.8711 21.4317 27.8434 21.4317 27.8094C21.4317 27.7756 21.4687 27.7069 21.5139 27.6567C21.5591 27.6066 21.6261 27.5075 21.6629 27.4364C21.6996 27.3653 21.7471 27.3071 21.7687 27.3071C21.79 27.3071 21.8077 27.2745 21.8077 27.2346C21.8077 27.1948 21.85 27.1168 21.9017 27.0613C21.9534 27.0058 21.9957 26.9326 21.9957 26.8988C21.9957 26.8649 22.0168 26.8371 22.0427 26.8371C22.0685 26.8371 22.0897 26.8184 22.0897 26.7955C22.0897 26.7726 22.1847 26.5876 22.3008 26.3843C22.4169 26.181 22.5121 25.9776 22.5123 25.9324C22.5125 25.8871 22.5338 25.8501 22.5597 25.8501C22.5855 25.8501 22.6067 25.8078 22.6067 25.7561C22.6067 25.7044 22.6278 25.6621 22.6537 25.6621C22.6795 25.6621 22.7007 25.6198 22.7007 25.5681C22.7007 25.5164 22.7218 25.4741 22.7477 25.4741C22.7735 25.4741 22.7947 25.4318 22.7947 25.3801C22.7947 25.3284 22.8158 25.2861 22.8417 25.2861C22.8675 25.2861 22.8887 25.2438 22.8887 25.1921C22.8887 25.1404 22.9098 25.0981 22.9357 25.0981C22.9615 25.0981 22.9827 25.0347 22.9827 24.9571C22.9827 24.8796 23.0038 24.8161 23.0297 24.8161C23.0555 24.8161 23.0767 24.7738 23.0767 24.7221C23.0767 24.6704 23.0978 24.6281 23.1237 24.6281C23.1495 24.6281 23.1707 24.5765 23.1707 24.5134C23.1707 24.4503 23.1918 24.3856 23.2177 24.3696C23.2435 24.3536 23.2647 24.2889 23.2647 24.2258C23.2647 24.1627 23.2858 24.1111 23.3117 24.1111C23.3375 24.1111 23.3587 24.0384 23.3587 23.9494C23.3587 23.8605 23.3798 23.7746 23.4057 23.7586C23.4315 23.7426 23.4527 23.6462 23.4527 23.5443C23.4527 23.4424 23.4738 23.3591 23.4997 23.3591C23.5255 23.3591 23.5467 23.4424 23.5467 23.5443C23.5467 23.6462 23.5678 23.7426 23.5937 23.7586C23.6195 23.7746 23.6407 23.8605 23.6407 23.9494C23.6407 24.0384 23.6618 24.1111 23.6877 24.1111C23.7135 24.1111 23.7347 24.1627 23.7347 24.2258C23.7347 24.2889 23.7558 24.3536 23.7817 24.3696C23.8075 24.3856 23.8287 24.4503 23.8287 24.5134C23.8287 24.5765 23.8498 24.6281 23.8757 24.6281C23.9015 24.6281 23.9227 24.6916 23.9227 24.7691C23.9227 24.8467 23.9438 24.9101 23.9697 24.9101C23.9955 24.9101 24.0167 24.9524 24.0167 25.0041C24.0167 25.0558 24.0378 25.0981 24.0637 25.0981C24.0895 25.0981 24.1107 25.1404 24.1107 25.1921C24.1107 25.2438 24.1318 25.2861 24.1577 25.2861C24.1835 25.2861 24.2047 25.3284 24.2047 25.3801C24.2047 25.4318 24.2258 25.4741 24.2517 25.4741C24.2775 25.4741 24.2987 25.5164 24.2987 25.5681C24.2987 25.6198 24.3198 25.6621 24.3457 25.6621C24.3715 25.6621 24.3927 25.7044 24.3927 25.7561C24.3927 25.8078 24.4138 25.8501 24.4397 25.8501C24.4655 25.8501 24.4867 25.8851 24.4867 25.9279C24.4867 26.0157 24.8103 26.6172 24.8705 26.6412C24.892 26.6499 24.9097 26.6975 24.9097 26.747C24.9097 26.7966 24.9308 26.8371 24.9567 26.8371C24.9825 26.8371 25.0037 26.8649 25.0037 26.8988C25.0037 26.9326 25.046 27.0058 25.0977 27.0613C25.1494 27.1168 25.1917 27.1948 25.1917 27.2346C25.1917 27.2745 25.2093 27.3071 25.2307 27.3071C25.2522 27.3071 25.2998 27.3653 25.3364 27.4364C25.3732 27.5075 25.4402 27.6066 25.4854 27.6567C25.5306 27.7069 25.5677 27.7756 25.5677 27.8094C25.5677 27.8434 25.5853 27.8711 25.6067 27.8711C25.6282 27.8711 25.6756 27.9293 25.7122 28.0004C25.7486 28.0715 25.8157 28.1638 25.8611 28.2056C25.9065 28.2475 25.9437 28.3009 25.9437 28.3246C25.9437 28.3481 25.986 28.3979 26.0377 28.4351C26.0894 28.4724 26.1317 28.5321 26.1317 28.5677C26.1317 28.6033 26.1951 28.6916 26.2727 28.7641C26.3502 28.8366 26.4137 28.9206 26.4137 28.9508C26.4137 28.9811 26.4401 29.0353 26.4724 29.0714C26.6088 29.2234 26.6487 29.2795 26.6487 29.3192C26.6487 29.3422 26.7121 29.4275 26.7897 29.5087C26.8672 29.5899 26.9307 29.6751 26.9307 29.698C26.9307 29.721 27.0153 29.8269 27.1187 29.9335C27.2221 30.0401 27.3067 30.1395 27.3067 30.1544C27.3067 30.1693 27.3913 30.2627 27.4947 30.3621C27.5981 30.4615 27.6827 30.5654 27.6827 30.5932C27.6827 30.621 27.7884 30.7516 27.9177 30.8837C28.0469 31.0157 28.1527 31.1448 28.1527 31.1705C28.1527 31.1963 28.2167 31.2772 28.2948 31.3503C28.377 31.427 28.4167 31.4956 28.3888 31.5129C28.3624 31.5292 28.3407 31.6049 28.3407 31.6809C28.3407 31.757 28.3195 31.8191 28.2937 31.8191C28.2678 31.8191 28.2467 31.8826 28.2467 31.9601C28.2467 32.0377 28.2255 32.1011 28.1997 32.1011C28.1738 32.1011 28.1527 32.1751 28.1527 32.2656C28.1527 32.3561 28.1315 32.4301 28.1057 32.4301C28.0798 32.4301 28.0587 32.4923 28.0587 32.5683C28.0587 32.6443 28.0375 32.7196 28.0117 32.7356C27.9858 32.7516 27.9647 32.8375 27.9647 32.9264C27.9647 33.0154 27.9435 33.0881 27.9177 33.0881C27.8918 33.0881 27.8707 33.1727 27.8707 33.2761C27.8707 33.3795 27.8495 33.4641 27.8237 33.4641C27.7978 33.4641 27.7767 33.5474 27.7767 33.6493C27.7767 33.7512 27.7555 33.8476 27.7297 33.8636C27.7038 33.8796 27.6827 33.9866 27.6827 34.1014C27.6827 34.2162 27.6615 34.3101 27.6357 34.3101C27.6098 34.3101 27.5887 34.404 27.5887 34.5188C27.5887 34.6336 27.5675 34.7406 27.5417 34.7566C27.5158 34.7726 27.4947 34.9008 27.4947 35.0414C27.4947 35.1821 27.4735 35.2971 27.4477 35.2971C27.4212 35.2971 27.4007 35.4293 27.4007 35.5998C27.4007 35.7663 27.3795 35.9156 27.3537 35.9316C27.3278 35.9476 27.3067 36.0956 27.3067 36.2606C27.3067 36.4256 27.2855 36.5736 27.2597 36.5896C27.2338 36.6056 27.2127 36.7959 27.2127 37.0126C27.2127 37.2293 27.1915 37.4196 27.1657 37.4356C27.1386 37.4523 27.1187 37.7015 27.1187 38.0231C27.1187 38.3447 27.0987 38.5939 27.0717 38.6106C27.0412 38.6294 27.0247 39.5815 27.0247 41.3131C27.0247 43.0447 27.0412 43.9968 27.0717 44.0156C27.0975 44.0316 27.1187 44.2325 27.1187 44.4621C27.1187 44.6917 27.1398 44.8926 27.1657 44.9086C27.1915 44.9246 27.2127 44.9999 27.2127 45.0759C27.2127 45.152 27.2338 45.2141 27.2597 45.2141C27.2855 45.2141 27.3067 45.2544 27.3067 45.3037C27.3067 45.4102 27.4956 45.7781 27.5504 45.7781C27.5714 45.7781 27.5887 45.8008 27.5887 45.8285C27.5887 45.9131 28.3542 46.649 28.5169 46.7207C28.6009 46.7577 28.6697 46.804 28.6697 46.8236C28.6697 46.8431 28.7077 46.8591 28.7543 46.8591C28.8008 46.8591 28.8653 46.8856 28.8976 46.9179C28.9441 46.9644 30.5759 46.9766 36.7404 46.9766C42.9257 46.9766 44.5284 46.9645 44.5439 46.9179C44.5547 46.8856 44.6041 46.8591 44.6535 46.8591C44.7031 46.8591 44.7437 46.838 44.7437 46.8121C44.7437 46.7863 44.786 46.7651 44.8377 46.7651C44.8894 46.7651 44.9317 46.744 44.9317 46.7181C44.9317 46.6923 44.9624 46.6711 45.0002 46.6711C45.1037 46.6711 45.8356 45.9167 45.9373 45.705C45.9863 45.603 46.0445 45.4828 46.0666 45.438C46.0886 45.3931 46.1067 45.3243 46.1067 45.2852C46.1067 45.2461 46.1278 45.2141 46.1537 45.2141C46.1795 45.2141 46.2007 45.1295 46.2007 45.0261C46.2007 44.9227 46.2218 44.8381 46.2477 44.8381C46.2735 44.8381 46.2947 44.7442 46.2947 44.6294C46.2947 44.5146 46.3158 44.4076 46.3417 44.3916C46.3675 44.3756 46.3887 44.2805 46.3887 44.1801C46.3887 44.0798 46.4098 43.9846 46.4357 43.9686C46.4615 43.9526 46.4827 43.8469 46.4827 43.7336C46.4827 43.6203 46.5038 43.5146 46.5297 43.4986C46.5555 43.4826 46.5767 43.3557 46.5767 43.2166C46.5767 43.0775 46.5978 42.9506 46.6237 42.9346C46.6495 42.9186 46.6707 42.7799 46.6707 42.6263C46.6707 42.4716 46.6916 42.3471 46.7177 42.3471C46.7441 42.3471 46.7647 42.2149 46.7647 42.0444C46.7647 41.8779 46.7858 41.7286 46.8117 41.7126C46.8375 41.6966 46.8587 41.5068 46.8587 41.2908C46.8587 41.0183 46.8766 40.892 46.9174 40.8784C46.9635 40.863 46.9762 40.2828 46.9762 38.1876C46.9762 36.0925 46.9635 35.5123 46.9174 35.4969C46.8775 35.4836 46.8587 35.3657 46.8587 35.1287C46.8587 34.9277 46.8388 34.7801 46.8117 34.7801C46.7858 34.7801 46.7647 34.6757 46.7647 34.5479C46.7647 34.4202 46.7435 34.3026 46.7177 34.2866C46.6918 34.2706 46.6707 34.1636 46.6707 34.0488C46.6707 33.934 46.6495 33.8401 46.6237 33.8401C46.5978 33.8401 46.5767 33.7344 46.5767 33.6051C46.5767 33.4759 46.5555 33.3701 46.5297 33.3701C46.5038 33.3701 46.4827 33.2974 46.4827 33.2084C46.4827 33.1195 46.4615 33.0336 46.4357 33.0176C46.4098 33.0016 46.3887 32.9263 46.3887 32.8503C46.3887 32.7743 46.3675 32.7121 46.3417 32.7121C46.3158 32.7121 46.2947 32.6381 46.2947 32.5476C46.2947 32.4571 46.2735 32.3831 46.2477 32.3831C46.2218 32.3831 46.2007 32.3315 46.2007 32.2684C46.2007 32.2053 46.1795 32.1406 46.1537 32.1246C46.1278 32.1086 46.1067 32.0545 46.1067 32.0043C46.1067 31.9541 46.0855 31.9131 46.0597 31.9131C46.0338 31.9131 46.0127 31.8607 46.0127 31.7966C46.0127 31.6686 45.9134 31.3785 45.7737 31.0979C45.7242 30.9985 45.6837 30.8875 45.6837 30.8512C45.6837 30.8148 45.6678 30.785 45.6484 30.785C45.629 30.7849 45.5603 30.6686 45.4957 30.5266C45.431 30.3847 45.3623 30.2684 45.3429 30.2682C45.3235 30.2682 45.3077 30.2258 45.3077 30.1741C45.3077 30.1224 45.2865 30.0801 45.2607 30.0801C45.2348 30.0801 45.2137 30.0425 45.2137 29.9965C45.2137 29.9505 45.1714 29.8824 45.1197 29.8451C45.068 29.8079 45.0257 29.7495 45.0257 29.7153C45.0257 29.6811 44.9834 29.6078 44.9317 29.5523C44.88 29.4968 44.8377 29.4236 44.8377 29.3898C44.8377 29.3559 44.8165 29.3281 44.7907 29.3281C44.7648 29.3281 44.7437 29.2964 44.7437 29.2576C44.7437 29.2188 44.7225 29.1871 44.6967 29.1871C44.6708 29.1871 44.6497 29.1601 44.6497 29.127C44.6497 29.0939 44.6074 29.0364 44.5557 28.9991C44.504 28.9619 44.4617 28.9043 44.4617 28.8713C44.4617 28.8381 44.4405 28.8111 44.4147 28.8111C44.3888 28.8111 44.3677 28.7891 44.3677 28.7622C44.3677 28.7353 44.2883 28.6328 44.1914 28.5342C44.0945 28.4356 43.9623 28.2845 43.8977 28.1982C43.7274 27.9711 43.2896 27.5347 43.0987 27.4018C43.0082 27.3388 42.8781 27.2283 42.8096 27.1561C42.741 27.0841 42.667 27.0251 42.6451 27.025C42.6231 27.025 42.5311 26.9616 42.4407 26.8841C42.3502 26.8067 42.2594 26.7432 42.2389 26.7432C42.2185 26.7431 42.1596 26.7039 42.1081 26.6559C42.0567 26.608 41.9308 26.5287 41.8286 26.4797C41.7264 26.4307 41.6425 26.3748 41.6422 26.3554C41.6419 26.336 41.5994 26.3201 41.5477 26.3201C41.496 26.3201 41.4537 26.299 41.4537 26.2731C41.4537 26.2473 41.4114 26.2261 41.3597 26.2261C41.308 26.2261 41.2655 26.2103 41.2653 26.1909C41.2648 26.1487 41.0372 26.0381 40.9508 26.0381C40.9172 26.0381 40.8897 26.017 40.8897 25.9911C40.8897 25.9653 40.8474 25.9441 40.7957 25.9441C40.744 25.9441 40.7017 25.923 40.7017 25.8971C40.7017 25.8713 40.6594 25.8501 40.6077 25.8501C40.556 25.8501 40.5137 25.829 40.5137 25.8031C40.5137 25.7773 40.4502 25.7561 40.3727 25.7561C40.2951 25.7561 40.2317 25.735 40.2317 25.7091C40.2317 25.6833 40.1894 25.6621 40.1377 25.6621C40.086 25.6621 40.0437 25.641 40.0437 25.6151C40.0437 25.5893 39.9802 25.5681 39.9027 25.5681C39.8251 25.5681 39.7617 25.547 39.7617 25.5211C39.7617 25.4953 39.6995 25.4741 39.6235 25.4741C39.5475 25.4741 39.4721 25.453 39.4562 25.4271C39.4402 25.4013 39.3662 25.3801 39.2917 25.3801C39.2172 25.3801 39.1431 25.359 39.1272 25.3331C39.1112 25.3073 39.0041 25.2861 38.8893 25.2861C38.7745 25.2861 38.6807 25.265 38.6807 25.2391C38.6807 25.213 38.5553 25.1921 38.3987 25.1921C38.242 25.1921 38.1167 25.1712 38.1167 25.1451C38.1167 25.116 37.8591 25.0981 37.438 25.0981C37.0361 25.0981 36.7473 25.079 36.7302 25.0511C36.7142 25.0253 36.66 25.0041 36.6098 25.0041C36.5597 25.0041 36.5187 25.0253 36.5187 25.0511C36.5187 25.0798 36.2993 25.0981 35.9547 25.0981C35.61 25.0981 35.3907 25.1164 35.3907 25.1451C35.3907 25.1727 35.2271 25.1921 34.994 25.1921C34.7758 25.1921 34.5841 25.2133 34.5682 25.2391C34.5515 25.266 34.3092 25.2861 34.0013 25.2861C33.6742 25.2861 33.4637 25.2677 33.4637 25.2391C33.4637 25.2133 33.4002 25.1921 33.3227 25.1921C33.2451 25.1921 33.1817 25.171 33.1817 25.1451C33.1817 25.1193 33.1394 25.0981 33.0877 25.0981C33.036 25.0981 32.9937 25.077 32.9937 25.0511C32.9937 25.0253 32.9514 25.0041 32.8997 25.0041C32.848 25.0041 32.8057 24.983 32.8057 24.9571C32.8057 24.9313 32.7634 24.9101 32.7117 24.9101C32.66 24.9101 32.6177 24.889 32.6177 24.8631C32.6177 24.8373 32.5912 24.8161 32.5589 24.8161C32.5266 24.816 32.4387 24.7631 32.3636 24.6986C32.2885 24.634 32.2145 24.5811 32.1991 24.581C32.1837 24.581 32.0971 24.5176 32.0067 24.4401C31.9162 24.3627 31.8261 24.2992 31.8064 24.2992C31.7523 24.2991 30.5967 23.1321 30.5967 23.0776C30.5967 23.0515 30.5755 23.0301 30.5497 23.0301C30.5238 23.0301 30.5027 23.0061 30.5027 22.9769C30.5027 22.9476 30.4654 22.8895 30.4199 22.8476C30.3743 22.8058 30.2746 22.687 30.1981 22.5836C30.1216 22.4802 30.0214 22.3546 29.9753 22.3046C29.9293 22.2544 29.8917 22.1934 29.8917 22.169C29.8917 22.1446 29.8545 22.0905 29.8091 22.0486C29.7637 22.0068 29.6966 21.9145 29.6602 21.8434C29.6236 21.7723 29.5762 21.7141 29.5547 21.7141C29.5333 21.7141 29.5157 21.6765 29.5157 21.6305C29.5157 21.5845 29.4734 21.5164 29.4217 21.4791C29.37 21.4419 29.3277 21.3737 29.3277 21.3278C29.3277 21.2817 29.3065 21.2441 29.2807 21.2441C29.2548 21.2441 29.2337 21.2164 29.2337 21.1824C29.2337 21.1486 29.1966 21.0799 29.1514 21.0297C29.1062 20.9796 29.0392 20.8805 29.0024 20.8094C28.9658 20.7383 28.9182 20.6801 28.8967 20.6801C28.8753 20.6801 28.8577 20.6484 28.8577 20.6096C28.8577 20.5708 28.8365 20.5391 28.8107 20.5391C28.7848 20.5391 28.7637 20.5106 28.7637 20.4756C28.7637 20.4407 28.7002 20.3457 28.6227 20.2645C28.5451 20.1833 28.4817 20.0949 28.4817 20.0678C28.4817 19.9812 27.9349 19.4111 27.8519 19.4111C27.8219 19.4111 27.7669 19.3688 27.7297 19.3171C27.6924 19.2654 27.6243 19.2231 27.5783 19.2231C27.5323 19.2231 27.4947 19.2071 27.4947 19.1875C27.4947 19.1378 27.1486 19.0351 26.9812 19.0351C26.9047 19.0351 26.8291 19.014 26.8132 18.9881C26.7972 18.9623 26.6796 18.9411 26.5518 18.9411C26.4241 18.9411 26.3197 18.9623 26.3197 18.9881C26.3197 19.014 26.2287 19.0351 26.1176 19.0351C26.0064 19.0351 25.8954 19.0526 25.8708 19.0739C25.8463 19.0953 25.7369 19.1408 25.6276 19.1751C25.5184 19.2094 25.3872 19.2765 25.3358 19.3243C25.2846 19.372 25.2147 19.4111 25.1805 19.4111C25.1463 19.4111 25.0879 19.4534 25.0507 19.5051C25.0134 19.5568 24.9596 19.5991 24.931 19.5991C24.9025 19.5991 24.8029 19.6784 24.7094 19.7754C24.1882 20.3167 24.06 20.4603 23.9851 20.5872C23.9396 20.6641 23.8858 20.7271 23.8656 20.7271C23.8452 20.7271 23.8287 20.7588 23.8287 20.7976C23.8287 20.8364 23.8075 20.8681 23.7817 20.8681C23.7558 20.8681 23.7347 20.9104 23.7347 20.9621C23.7347 21.0138 23.7135 21.0561 23.6877 21.0561C23.6618 21.0561 23.6407 21.1196 23.6407 21.1971C23.6407 21.2747 23.6195 21.3381 23.5937 21.3381C23.5678 21.3381 23.5467 21.4016 23.5467 21.4791C23.5467 21.5567 23.5255 21.6201 23.4997 21.6201C23.4738 21.6201 23.4527 21.5567 23.4527 21.4791C23.4527 21.4016 23.4315 21.3381 23.4057 21.3381C23.3798 21.3381 23.3587 21.2978 23.3587 21.2486C23.3587 21.136 23.1742 20.7755 23.0649 20.6746C23.0197 20.6328 22.9827 20.5774 22.9827 20.5517C22.9827 20.5258 22.8716 20.3882 22.7359 20.246C22.6002 20.1035 22.4446 19.9368 22.3901 19.8754C22.2654 19.7347 22.0996 19.5991 22.0525 19.5991C22.0327 19.5991 21.9859 19.5568 21.9487 19.5051C21.9114 19.4534 21.8433 19.4111 21.7973 19.4111C21.7513 19.4111 21.7137 19.3937 21.7137 19.3725C21.7137 19.3513 21.6026 19.2865 21.4669 19.2284C21.3312 19.1705 21.1834 19.1033 21.1385 19.0791C21.0936 19.0549 20.9733 19.0351 20.8711 19.0351C20.7688 19.0351 20.6721 19.014 20.6562 18.9881C20.6402 18.9623 20.5344 18.9411 20.4212 18.9411C20.3079 18.9411 20.2021 18.9623 20.1862 18.9881ZM20.5745 20.3007C20.6194 20.3248 20.7604 20.383 20.8878 20.43C21.1417 20.5238 21.9957 21.3111 21.9957 21.4513C21.9957 21.4924 22.0115 21.5262 22.0309 21.5265C22.0731 21.5269 22.1837 21.7545 22.1837 21.841C22.1837 21.8746 22.2048 21.9021 22.2307 21.9021C22.2594 21.9021 22.2777 22.1292 22.2777 22.4896C22.2777 22.85 22.2594 23.0771 22.2307 23.0771C22.2048 23.0771 22.1837 23.1617 22.1837 23.2651C22.1837 23.3685 22.1625 23.4531 22.1367 23.4531C22.1108 23.4531 22.0897 23.5166 22.0897 23.5941C22.0897 23.6717 22.0685 23.7351 22.0427 23.7351C22.0168 23.7351 21.9957 23.7986 21.9957 23.8761C21.9957 23.9537 21.9745 24.0171 21.9487 24.0171C21.9228 24.0171 21.9017 24.0806 21.9017 24.1581C21.9017 24.2357 21.8805 24.2991 21.8547 24.2991C21.8288 24.2991 21.8077 24.3414 21.8077 24.3931C21.8077 24.4448 21.7865 24.4871 21.7607 24.4871C21.7348 24.4871 21.7137 24.5294 21.7137 24.5811C21.7137 24.6328 21.6925 24.6751 21.6667 24.6751C21.6408 24.6751 21.6197 24.7047 21.6197 24.7408C21.6197 24.777 21.5532 24.9303 21.4717 25.0816C21.3904 25.2329 21.3005 25.4041 21.272 25.462C21.2435 25.5199 21.2043 25.5675 21.1849 25.5678C21.1655 25.568 21.1497 25.6104 21.1497 25.6621C21.1497 25.7138 21.1285 25.7561 21.1027 25.7561C21.0768 25.7561 21.0557 25.7984 21.0557 25.8501C21.0557 25.9018 21.0371 25.9441 21.0144 25.9441C20.9916 25.9441 20.9467 26.0076 20.9147 26.0851C20.8826 26.1627 20.8377 26.2261 20.8149 26.2261C20.7922 26.2261 20.7737 26.2667 20.7737 26.3162C20.7737 26.3657 20.7578 26.4133 20.7384 26.422C20.6878 26.4444 20.4447 26.8261 20.4447 26.8831C20.4447 26.9095 20.427 26.9311 20.4056 26.9311C20.3841 26.9311 20.3367 26.9893 20.3001 27.0604C20.2637 27.1315 20.1966 27.2238 20.1513 27.2656C20.1058 27.3075 20.0687 27.3715 20.0687 27.4081C20.0687 27.4445 20.0264 27.5049 19.9747 27.5421C19.923 27.5794 19.8807 27.6391 19.8807 27.6747C19.8807 27.7103 19.8172 27.7986 19.7397 27.8711C19.6621 27.9436 19.5987 28.0268 19.5987 28.0562C19.5987 28.0854 19.556 28.1563 19.504 28.2135C19.4518 28.2707 19.3342 28.4128 19.2425 28.5291C19.1509 28.6454 19.0454 28.778 19.0081 28.8237C18.9707 28.8693 18.8629 29.0173 18.7682 29.1527C18.6736 29.2879 18.5574 29.4328 18.5099 29.4746C18.4624 29.5165 18.4237 29.5753 18.4237 29.6054C18.4237 29.6859 18.1098 29.9861 18.0257 29.9861C17.9861 29.9861 17.9537 29.9542 17.9537 29.915C17.9537 29.8391 17.9218 29.7645 17.7934 29.5396C17.7491 29.4621 17.7019 29.3642 17.6882 29.3221C17.62 29.1095 16.94 29.0621 16.7164 29.2544C16.53 29.4147 16.5944 30.5031 16.7902 30.5031C16.8097 30.5031 16.8257 30.5359 16.8257 30.5759C16.8257 30.6159 16.868 30.7362 16.9197 30.8432C16.9714 30.9502 17.0137 31.0655 17.0137 31.0994C17.0137 31.1334 17.0348 31.1611 17.0607 31.1611C17.0865 31.1611 17.1077 31.2127 17.1077 31.2758C17.1077 31.3389 17.1288 31.4036 17.1547 31.4196C17.1805 31.4356 17.2017 31.4898 17.2017 31.5399C17.2017 31.5901 17.2228 31.6311 17.2487 31.6311C17.2745 31.6311 17.2957 31.6946 17.2957 31.7721C17.2957 31.8497 17.3168 31.9131 17.3427 31.9131C17.3685 31.9131 17.3897 31.9647 17.3897 32.0278C17.3897 32.0909 17.4108 32.1556 17.4367 32.1716C17.4625 32.1876 17.4837 32.2523 17.4837 32.3154C17.4837 32.3785 17.5048 32.4301 17.5307 32.4301C17.5565 32.4301 17.5777 32.4936 17.5777 32.5711C17.5777 32.6487 17.5988 32.7121 17.6247 32.7121C17.6505 32.7121 17.6717 32.7849 17.6717 32.8738C17.6717 32.9627 17.6928 33.0486 17.7187 33.0646C17.7445 33.0806 17.7657 33.1559 17.7657 33.2319C17.7657 33.308 17.7868 33.3701 17.8127 33.3701C17.8385 33.3701 17.8597 33.4547 17.8597 33.5581C17.8597 33.6615 17.8808 33.7461 17.9067 33.7461C17.9325 33.7461 17.9537 33.8201 17.9537 33.9106C17.9537 34.0011 17.9748 34.0751 18.0007 34.0751C18.0265 34.0751 18.0477 34.1584 18.0477 34.2603C18.0477 34.3622 18.0688 34.4586 18.0947 34.4746C18.1205 34.4906 18.1417 34.5976 18.1417 34.7124C18.1417 34.8272 18.1628 34.9211 18.1887 34.9211C18.2145 34.9211 18.2357 35.0362 18.2357 35.1768C18.2357 35.3174 18.2568 35.4456 18.2827 35.4616C18.3085 35.4776 18.3297 35.6058 18.3297 35.7464C18.3297 35.8871 18.3508 36.0021 18.3767 36.0021C18.4036 36.0021 18.4237 36.1431 18.4237 36.3311C18.4237 36.5191 18.4438 36.6601 18.4707 36.6601C18.4983 36.6601 18.5177 36.8233 18.5177 37.0557C18.5177 37.3303 18.5356 37.4572 18.5764 37.4709C18.6625 37.4995 18.6625 44.6097 18.5764 44.6384C18.5441 44.6492 18.5177 44.6985 18.5177 44.748C18.5177 44.7976 18.4965 44.8381 18.4707 44.8381C18.4448 44.8381 18.4237 44.8804 18.4237 44.9321C18.4237 44.9838 18.4025 45.0261 18.3767 45.0261C18.3508 45.0261 18.3297 45.0537 18.3297 45.0875C18.3297 45.1726 18.0259 45.4961 17.9459 45.4961C17.9099 45.4961 17.8499 45.5384 17.8127 45.5901C17.7728 45.6453 17.691 45.6841 17.6143 45.6841C17.5424 45.6841 17.4837 45.7053 17.4837 45.7311C17.4837 45.757 17.3898 45.7781 17.275 45.7781C17.1602 45.7781 17.0531 45.7993 17.0372 45.8251C16.9714 45.9317 7.09666 45.8849 7.09666 45.7781C7.09666 45.7264 7.07551 45.6841 7.04966 45.6841C7.02381 45.6841 7.00266 45.6207 7.00266 45.5431C7.00266 45.4656 6.98151 45.4021 6.95566 45.4021C6.92981 45.4021 6.90866 45.349 6.90866 45.284C6.90866 45.2191 6.88833 45.1292 6.86354 45.0843C6.81818 45.0023 6.73417 44.6647 6.68799 44.3794C6.67436 44.2952 6.6444 44.2147 6.62149 44.2004C6.59846 44.1862 6.57966 44.1136 6.57966 44.0391C6.57966 43.9646 6.55851 43.8906 6.53266 43.8746C6.50681 43.8586 6.48566 43.774 6.48566 43.6866C6.48566 43.5992 6.46451 43.5146 6.43866 43.4986C6.41281 43.4826 6.39166 43.398 6.39166 43.3106C6.39166 43.2232 6.37051 43.1386 6.34466 43.1226C6.31881 43.1066 6.29766 43.022 6.29766 42.9346C6.29766 42.8472 6.27651 42.7626 6.25066 42.7466C6.22481 42.7306 6.20366 42.6342 6.20366 42.5323C6.20366 42.4304 6.18251 42.3471 6.15666 42.3471C6.13081 42.3471 6.10966 42.2532 6.10966 42.1384C6.10966 42.0236 6.08851 41.9166 6.06266 41.9006C6.03681 41.8846 6.01566 41.7683 6.01566 41.6421C6.01566 41.5159 5.99451 41.3996 5.96866 41.3836C5.94281 41.3676 5.92166 41.2407 5.92166 41.1016C5.92166 40.9625 5.90051 40.8356 5.87466 40.8196C5.84881 40.8036 5.82766 40.6543 5.82766 40.4878C5.82766 40.3173 5.8071 40.1851 5.78066 40.1851C5.75246 40.1851 5.73366 39.9971 5.73366 39.7151C5.73366 39.4331 5.71486 39.2451 5.68666 39.2451C5.62344 39.2451 5.62227 36.8619 5.68548 36.8402C5.71145 36.8314 5.73507 36.5668 5.73989 36.2307C5.74893 35.6057 5.67044 35.3911 5.43309 35.3911C5.39467 35.3911 5.35014 35.37 5.33416 35.3441C5.31818 35.3183 5.22171 35.2971 5.11984 35.2971C5.01797 35.2971 4.93466 35.3183 4.93466 35.3441C4.93466 35.37 4.90199 35.3911 4.86204 35.3911C4.74889 35.3911 4.55866 35.6091 4.55866 35.7387C4.55866 35.803 4.53751 35.8686 4.51166 35.8846C4.48581 35.9006 4.46466 36.1028 4.46466 36.3339C4.46466 36.5827 4.44551 36.7541 4.41766 36.7541C4.35339 36.7541 4.35339 39.3699 4.41766 39.4096C4.44363 39.4257 4.46466 39.6372 4.46466 39.8824C4.46466 40.1469 4.48369 40.3261 4.51166 40.3261C4.5388 40.3261 4.55866 40.4741 4.55866 40.6758C4.55866 40.8681 4.57981 41.0386 4.60566 41.0546C4.63151 41.0706 4.65266 41.2094 4.65266 41.3629C4.65266 41.5177 4.67357 41.6421 4.69966 41.6421C4.72551 41.6421 4.74666 41.7331 4.74666 41.8442C4.74666 41.9554 4.76581 42.0664 4.78908 42.091C4.81246 42.1155 4.84183 42.2308 4.85441 42.3471C4.89577 42.7292 4.98765 43.2619 5.02889 43.3576C5.0511 43.4093 5.08224 43.5256 5.09822 43.6161C5.11408 43.7066 5.13899 43.8496 5.15356 43.9338C5.16813 44.0181 5.19892 44.0986 5.22183 44.1128C5.24486 44.127 5.26366 44.2115 5.26366 44.3004C5.26366 44.3894 5.28481 44.4621 5.31066 44.4621C5.33651 44.4621 5.35766 44.5349 5.35766 44.6238C5.35766 44.7127 5.37881 44.7986 5.40466 44.8146C5.43051 44.8306 5.45166 44.9059 5.45166 44.9819C5.45166 45.058 5.47281 45.1201 5.49866 45.1201C5.52451 45.1201 5.54566 45.1823 5.54566 45.2583C5.54566 45.3343 5.56681 45.4096 5.59266 45.4256C5.61851 45.4416 5.63966 45.5156 5.63966 45.5901C5.63966 45.6646 5.66081 45.7386 5.68666 45.7546C5.8407 45.8498 5.64518 45.8721 4.65548 45.8721C3.98726 45.8721 3.56614 45.8543 3.54816 45.8251C3.53218 45.7993 3.41456 45.7781 3.28684 45.7781C3.15912 45.7781 3.05466 45.757 3.05466 45.7311C3.05466 45.7053 3.01635 45.6841 2.96947 45.6841C2.92271 45.6841 2.83893 45.6418 2.78347 45.5901C2.72801 45.5384 2.65962 45.4961 2.63154 45.4961C2.56222 45.4961 2.38808 45.3135 2.30642 45.1554C2.26976 45.0843 2.22217 45.0261 2.20067 45.0261C2.17928 45.0261 2.16166 44.9838 2.16166 44.9321C2.16166 44.8804 2.14051 44.8381 2.11466 44.8381C2.08881 44.8381 2.06766 44.7865 2.06766 44.7234C2.06766 44.6603 2.04651 44.5956 2.02066 44.5796C1.99481 44.5636 1.97366 44.479 1.97366 44.3916C1.97366 44.3042 1.95251 44.2196 1.92666 44.2036C1.90081 44.1876 1.87966 44.0806 1.87966 43.9658C1.87966 43.851 1.85851 43.7571 1.83266 43.7571C1.80681 43.7571 1.78566 43.6514 1.78566 43.5221C1.78566 43.3929 1.76451 43.2871 1.73866 43.2871C1.71281 43.2871 1.69166 43.1721 1.69166 43.0314C1.69166 42.8908 1.67051 42.7626 1.64466 42.7466C1.61881 42.7306 1.59766 42.6024 1.59766 42.4618C1.59766 42.3212 1.57651 42.2061 1.55066 42.2061C1.52375 42.2061 1.50366 42.0651 1.50366 41.8771C1.50366 41.6891 1.48357 41.5481 1.45666 41.5481C1.42928 41.5481 1.40966 41.3924 1.40966 41.1749C1.40966 40.9697 1.38851 40.7886 1.36266 40.7726C1.33599 40.7562 1.31566 40.5215 1.31566 40.2293C1.31566 39.9178 1.29709 39.7151 1.26866 39.7151C1.23823 39.7151 1.22166 39.1432 1.22166 38.0936C1.22166 37.044 1.23823 36.4721 1.26866 36.4721C1.29674 36.4721 1.31566 36.292 1.31566 36.0256C1.31566 35.7592 1.33458 35.5791 1.36266 35.5791C1.38957 35.5791 1.40966 35.4381 1.40966 35.2501C1.40966 35.0621 1.42975 34.9211 1.45666 34.9211C1.48251 34.9211 1.50366 34.8154 1.50366 34.6861C1.50366 34.5569 1.52481 34.4511 1.55066 34.4511C1.57651 34.4511 1.59766 34.3572 1.59766 34.2424C1.59766 34.1276 1.61881 34.0206 1.64466 34.0046C1.67051 33.9886 1.69166 33.9027 1.69166 33.8138C1.69166 33.7249 1.71281 33.6521 1.73866 33.6521C1.76451 33.6521 1.78566 33.5675 1.78566 33.4641C1.78566 33.3607 1.80681 33.2761 1.83266 33.2761C1.85851 33.2761 1.87966 33.2127 1.87966 33.1351C1.87966 33.0576 1.90081 32.9941 1.92666 32.9941C1.95251 32.9941 1.97366 32.9307 1.97366 32.8531C1.97366 32.7756 1.99481 32.7121 2.02066 32.7121C2.04651 32.7121 2.06766 32.6487 2.06766 32.5711C2.06766 32.4936 2.08881 32.4301 2.11466 32.4301C2.14051 32.4301 2.16166 32.3785 2.16166 32.3154C2.16166 32.2523 2.18281 32.1876 2.20866 32.1716C2.23451 32.1556 2.25566 32.1015 2.25566 32.0513C2.25566 32.0011 2.27681 31.9601 2.30266 31.9601C2.32851 31.9601 2.34966 31.9072 2.34966 31.8426C2.34966 31.778 2.37081 31.7251 2.39666 31.7251C2.42251 31.7251 2.44366 31.6828 2.44366 31.6311C2.44366 31.5794 2.46481 31.5371 2.49066 31.5371C2.51651 31.5371 2.53766 31.4948 2.53766 31.4431C2.53766 31.3914 2.55881 31.3491 2.58466 31.3491C2.61051 31.3491 2.63166 31.3068 2.63166 31.2551C2.63166 31.2034 2.65281 31.1611 2.67866 31.1611C2.70451 31.1611 2.72566 31.1327 2.72566 31.0978C2.72566 31.0171 2.85879 30.7485 2.9166 30.7127C2.9408 30.6978 2.96066 30.6445 2.96066 30.5943C2.96066 30.5441 2.98181 30.5031 3.00766 30.5031C3.03351 30.5031 3.05466 30.4655 3.05466 30.4195C3.05466 30.3735 3.09696 30.3054 3.14866 30.2681C3.20036 30.2309 3.24266 30.178 3.24266 30.1506C3.24266 30.1232 3.28496 30.0704 3.33666 30.0331C3.38836 29.9959 3.43066 29.9428 3.43066 29.9151C3.43066 29.8874 3.51526 29.7713 3.61866 29.6571C3.72206 29.5429 3.80666 29.4312 3.80666 29.409C3.80666 29.3576 4.9806 28.2001 5.03265 28.2001C5.05392 28.2001 5.11996 28.1525 5.17929 28.0944C5.23863 28.0362 5.34532 27.9587 5.41641 27.9219C5.4875 27.8852 5.54566 27.8402 5.54566 27.8219C5.54566 27.8036 5.60911 27.7622 5.68666 27.7301C5.76421 27.698 5.82766 27.6532 5.82766 27.6304C5.82766 27.6077 5.86526 27.5891 5.91132 27.5891C5.95726 27.5891 6.02541 27.5468 6.06266 27.4951C6.09991 27.4434 6.16806 27.4011 6.214 27.4011C6.26006 27.4011 6.29766 27.38 6.29766 27.3541C6.29766 27.3283 6.33996 27.3071 6.39166 27.3071C6.44336 27.3071 6.48566 27.286 6.48566 27.2601C6.48566 27.2343 6.52796 27.2131 6.57966 27.2131C6.63136 27.2131 6.67366 27.192 6.67366 27.1661C6.67366 27.1403 6.70538 27.1191 6.74416 27.1191C6.78293 27.1191 6.81466 27.098 6.81466 27.0721C6.81466 27.0463 6.87811 27.0251 6.95566 27.0251C7.03321 27.0251 7.09666 27.004 7.09666 26.9781C7.09666 26.9523 7.13896 26.9311 7.19066 26.9311C7.24236 26.9311 7.28466 26.91 7.28466 26.8841C7.28466 26.8583 7.34811 26.8371 7.42566 26.8371C7.50321 26.8371 7.56666 26.816 7.56666 26.7901C7.56666 26.7643 7.63011 26.7431 7.70766 26.7431C7.78521 26.7431 7.84866 26.722 7.84866 26.6961C7.84866 26.6703 7.92268 26.6491 8.01316 26.6491C8.10363 26.6491 8.17766 26.628 8.17766 26.6021C8.17766 26.5763 8.2605 26.5551 8.36178 26.5551C8.46295 26.5551 8.55284 26.5364 8.56153 26.5136C8.57857 26.4685 9.78001 26.3496 10.1987 26.3515C10.6892 26.3538 12.2667 26.4807 12.2667 26.5179C12.2667 26.5736 13.7596 26.5641 13.7942 26.5081C13.8101 26.4823 13.8813 26.4611 13.9525 26.4611C14.155 26.4611 15.0867 26.0674 15.0867 25.9817C15.0867 25.961 15.1243 25.9441 15.1703 25.9441C15.2163 25.9441 15.2844 25.9018 15.3217 25.8501C15.3589 25.7984 15.4224 25.7561 15.4627 25.7561C15.503 25.7561 15.5664 25.7138 15.6037 25.6621C15.6409 25.6104 15.6964 25.5681 15.7268 25.5681C15.7572 25.5681 15.8901 25.4624 16.0221 25.3331C16.1541 25.2039 16.2734 25.0981 16.2872 25.0981C16.3109 25.0981 16.8002 24.6032 17.4014 23.9709C17.55 23.8147 17.6717 23.666 17.6717 23.6405C17.6717 23.615 17.7563 23.5071 17.8597 23.4005C17.9631 23.2939 18.0477 23.1823 18.0477 23.1523C18.0477 23.1224 18.09 23.0674 18.1417 23.0301C18.1934 22.9929 18.2357 22.9325 18.2357 22.8961C18.2357 22.8595 18.2742 22.7955 18.3214 22.7536C18.3686 22.7118 18.4671 22.5666 18.5403 22.4309C18.6137 22.2952 18.6914 22.1841 18.7132 22.1841C18.7349 22.1841 18.7527 22.1515 18.7527 22.1116C18.7527 22.0718 18.795 21.9938 18.8467 21.9383C18.8984 21.8828 18.9407 21.8096 18.9407 21.7758C18.9407 21.7418 18.9618 21.7141 18.9877 21.7141C19.0135 21.7141 19.0347 21.6864 19.0347 21.6524C19.0347 21.6186 19.077 21.5454 19.1287 21.4899C19.1804 21.4345 19.2227 21.3612 19.2227 21.327C19.2227 21.2928 19.265 21.2344 19.3167 21.1971C19.3684 21.1599 19.4107 21.1007 19.4107 21.0656C19.4107 20.9606 20.026 20.3949 20.1721 20.3657C20.2455 20.351 20.3171 20.3206 20.3309 20.298C20.3638 20.2447 20.472 20.246 20.5745 20.3007ZM26.7497 20.3344C26.9884 20.4125 27.5887 20.9401 27.5887 21.0719C27.5887 21.1035 27.631 21.1599 27.6827 21.1971C27.7344 21.2344 27.7767 21.2928 27.7767 21.327C27.7767 21.3612 27.819 21.4345 27.8707 21.4899C27.9224 21.5454 27.9647 21.6186 27.9647 21.6524C27.9647 21.6864 27.9858 21.7141 28.0117 21.7141C28.0375 21.7141 28.0587 21.7517 28.0587 21.7978C28.0587 21.8437 28.101 21.9119 28.1527 21.9491C28.2044 21.9864 28.2467 22.0545 28.2467 22.1005C28.2467 22.1465 28.2644 22.1841 28.2861 22.1841C28.3079 22.1841 28.386 22.2952 28.4597 22.4309C28.5334 22.5666 28.6213 22.7056 28.6551 22.7398C28.6889 22.7739 28.7167 22.8205 28.7167 22.8433C28.7167 22.8662 28.7695 22.9378 28.8342 23.0024C28.8988 23.067 28.9517 23.1375 28.9517 23.1591C28.9517 23.1808 29.0363 23.2919 29.1397 23.4061C29.2431 23.5203 29.3277 23.632 29.3277 23.654C29.3277 23.6761 29.4334 23.7973 29.5627 23.9231C29.6919 24.049 29.7977 24.1647 29.7977 24.1802C29.7977 24.2489 31.1933 25.5681 31.2661 25.5681C31.2879 25.5681 31.3571 25.6194 31.4197 25.682C31.4824 25.7446 31.5766 25.8095 31.6291 25.8262C31.6817 25.8428 31.7247 25.8762 31.7247 25.9003C31.7247 25.9244 31.767 25.9441 31.8187 25.9441C31.8704 25.9441 31.9127 25.9628 31.9127 25.9856C31.9127 26.0769 32.8255 26.4611 33.0424 26.4611C33.119 26.4611 33.1817 26.4823 33.1817 26.5081C33.1817 26.5376 33.4715 26.5551 33.9572 26.5551C34.3837 26.5551 34.7327 26.5383 34.7327 26.5179C34.7327 26.4837 36.2595 26.3576 36.7537 26.3509C37.1294 26.3457 38.4217 26.4705 38.4378 26.5135C38.4465 26.5364 38.5364 26.5551 38.6375 26.5551C38.7388 26.5551 38.8217 26.5763 38.8217 26.6021C38.8217 26.628 38.8957 26.6491 38.9862 26.6491C39.0766 26.6491 39.1507 26.6703 39.1507 26.6961C39.1507 26.722 39.2141 26.7431 39.2917 26.7431C39.3692 26.7431 39.4327 26.7643 39.4327 26.7901C39.4327 26.816 39.4961 26.8371 39.5737 26.8371C39.6512 26.8371 39.7147 26.8583 39.7147 26.8841C39.7147 26.91 39.757 26.9311 39.8087 26.9311C39.8604 26.9311 39.9027 26.9523 39.9027 26.9781C39.9027 27.004 39.9661 27.0251 40.0437 27.0251C40.1212 27.0251 40.1847 27.0463 40.1847 27.0721C40.1847 27.098 40.2164 27.1191 40.2552 27.1191C40.2939 27.1191 40.3257 27.1403 40.3257 27.1661C40.3257 27.192 40.368 27.2131 40.4197 27.2131C40.4714 27.2131 40.5137 27.2343 40.5137 27.2601C40.5137 27.286 40.556 27.3071 40.6077 27.3071C40.6594 27.3071 40.7017 27.3283 40.7017 27.3541C40.7017 27.38 40.7294 27.4011 40.7633 27.4011C40.7972 27.4011 40.8704 27.4434 40.9258 27.4951C40.9813 27.5468 41.0593 27.5891 41.0992 27.5891C41.139 27.5891 41.1717 27.6067 41.1717 27.6281C41.1717 27.6496 41.2298 27.6971 41.3009 27.7336C41.372 27.7701 41.4644 27.8372 41.5062 27.8825C41.548 27.928 41.6063 27.9651 41.6359 27.9651C41.6654 27.9651 41.7559 28.0286 41.8371 28.1061C41.9183 28.1837 42.0029 28.2471 42.0252 28.2471C42.0833 28.2471 43.1927 29.3703 43.1927 29.4293C43.1927 29.4563 43.2561 29.5376 43.3337 29.6101C43.4112 29.6826 43.4747 29.7651 43.4747 29.7934C43.4747 29.8219 43.4958 29.8451 43.5217 29.8451C43.5475 29.8451 43.5687 29.8721 43.5687 29.9053C43.5687 29.9383 43.611 29.9959 43.6627 30.0331C43.7144 30.0704 43.7567 30.1277 43.7567 30.1606C43.7567 30.1934 43.799 30.2467 43.8507 30.279C43.9024 30.3114 43.9447 30.3749 43.9447 30.4204C43.9447 30.4659 43.9658 30.5031 43.9917 30.5031C44.0175 30.5031 44.0387 30.5428 44.0387 30.5914C44.0387 30.6399 44.0704 30.7059 44.1092 30.7381C44.1479 30.7703 44.1797 30.8363 44.1797 30.8849C44.1797 30.9334 44.2008 30.9731 44.2267 30.9731C44.2525 30.9731 44.2737 31.0154 44.2737 31.0671C44.2737 31.1188 44.2948 31.1611 44.3207 31.1611C44.3465 31.1611 44.3677 31.2034 44.3677 31.2551C44.3677 31.3068 44.3888 31.3491 44.4147 31.3491C44.4405 31.3491 44.4617 31.3914 44.4617 31.4431C44.4617 31.4948 44.4828 31.5371 44.5087 31.5371C44.5345 31.5371 44.5557 31.5691 44.5557 31.6082C44.5557 31.6473 44.5768 31.7214 44.6027 31.7727C44.6285 31.8241 44.6708 31.9082 44.6967 31.9595C44.7225 32.0109 44.7437 32.0849 44.7437 32.124C44.7437 32.1632 44.7648 32.1951 44.7907 32.1951C44.8165 32.1951 44.8377 32.248 44.8377 32.3126C44.8377 32.3772 44.8588 32.4301 44.8847 32.4301C44.9105 32.4301 44.9317 32.4936 44.9317 32.5711C44.9317 32.6487 44.9528 32.7121 44.9787 32.7121C45.0045 32.7121 45.0257 32.7756 45.0257 32.8531C45.0257 32.9307 45.0468 32.9941 45.0727 32.9941C45.0985 32.9941 45.1197 33.0563 45.1197 33.1323C45.1197 33.2083 45.1408 33.2836 45.1667 33.2996C45.1925 33.3156 45.2137 33.4015 45.2137 33.4904C45.2137 33.5794 45.2348 33.6521 45.2607 33.6521C45.2865 33.6521 45.3077 33.7367 45.3077 33.8401C45.3077 33.9435 45.3288 34.0281 45.3547 34.0281C45.3805 34.0281 45.4017 34.1233 45.4017 34.2396C45.4017 34.3559 45.4228 34.4511 45.4487 34.4511C45.4745 34.4511 45.4957 34.5662 45.4957 34.7068C45.4957 34.8474 45.5168 34.9756 45.5427 34.9916C45.5685 35.0076 45.5897 35.1569 45.5897 35.3234C45.5897 35.4939 45.6102 35.6261 45.6367 35.6261C45.6649 35.6261 45.6837 35.8141 45.6837 36.0961C45.6837 36.3781 45.7025 36.5661 45.7307 36.5661C45.761 36.5661 45.7777 37.1066 45.7777 38.0936C45.7777 39.0806 45.761 39.6211 45.7307 39.6211C45.7021 39.6211 45.6837 39.8317 45.6837 40.1588C45.6837 40.4666 45.6636 40.7089 45.6367 40.7256C45.6108 40.7416 45.5897 40.9332 45.5897 41.1514C45.5897 41.3846 45.5703 41.5481 45.5427 41.5481C45.5158 41.5481 45.4957 41.6891 45.4957 41.8771C45.4957 42.0651 45.4756 42.2061 45.4487 42.2061C45.4228 42.2061 45.4017 42.3224 45.4017 42.4646C45.4017 42.6068 45.3805 42.7231 45.3547 42.7231C45.3286 42.7231 45.3077 42.8485 45.3077 43.0051C45.3077 43.1617 45.2867 43.2871 45.2607 43.2871C45.2348 43.2871 45.2137 43.3929 45.2137 43.5221C45.2137 43.6514 45.1925 43.7571 45.1667 43.7571C45.1408 43.7571 45.1197 43.8404 45.1197 43.9423C45.1197 44.0442 45.0985 44.1406 45.0727 44.1566C45.0468 44.1726 45.0257 44.2691 45.0257 44.3709C45.0257 44.4728 45.0045 44.5561 44.9787 44.5561C44.9528 44.5561 44.9317 44.6196 44.9317 44.6971C44.9317 44.7747 44.9105 44.8381 44.8847 44.8381C44.8588 44.8381 44.8377 44.8757 44.8377 44.9218C44.8377 44.9677 44.7954 45.0359 44.7437 45.0731C44.692 45.1104 44.6497 45.1708 44.6497 45.2073C44.6497 45.2851 44.4179 45.496 44.3324 45.4961C44.3001 45.4961 44.2737 45.5173 44.2737 45.5431C44.2737 45.569 44.2419 45.5901 44.2032 45.5901C44.1644 45.5901 44.1327 45.6113 44.1327 45.6371C44.1327 45.663 44.0904 45.6841 44.0387 45.6841C43.987 45.6841 43.9447 45.7053 43.9447 45.7311C43.9447 45.757 43.8402 45.7781 43.7125 45.7781C43.5848 45.7781 43.4671 45.7993 43.4512 45.8251C43.4332 45.8543 43.0121 45.8721 42.3438 45.8721C41.3541 45.8721 41.1586 45.8498 41.3127 45.7546C41.3385 45.7386 41.3597 45.6646 41.3597 45.5901C41.3597 45.5156 41.3808 45.4416 41.4067 45.4256C41.4325 45.4096 41.4537 45.3343 41.4537 45.2583C41.4537 45.1823 41.4748 45.1201 41.5007 45.1201C41.5265 45.1201 41.5477 45.058 41.5477 44.9819C41.5477 44.9059 41.5688 44.8306 41.5947 44.8146C41.6205 44.7986 41.6417 44.7127 41.6417 44.6238C41.6417 44.5349 41.6628 44.4621 41.6887 44.4621C41.7145 44.4621 41.7357 44.3775 41.7357 44.2741C41.7357 44.1707 41.7545 44.0861 41.7775 44.0861C41.8005 44.0861 41.8313 44.0174 41.8458 43.9334C41.8603 43.8494 41.8852 43.7066 41.9011 43.6161C41.9171 43.5256 41.9482 43.4093 41.9704 43.3576C42.0167 43.2499 42.1128 42.6755 42.1453 42.3119C42.1575 42.1762 42.1865 42.0651 42.21 42.0651C42.2335 42.0651 42.2527 41.9712 42.2527 41.8564C42.2527 41.7416 42.2738 41.6346 42.2997 41.6186C42.3255 41.6026 42.3467 41.4757 42.3467 41.3366C42.3467 41.1975 42.3678 41.0706 42.3937 41.0546C42.4195 41.0386 42.4407 40.8681 42.4407 40.6758C42.4407 40.4741 42.4605 40.3261 42.4877 40.3261C42.5159 40.3261 42.5347 40.1391 42.5347 39.8589C42.5347 39.5981 42.5555 39.3788 42.5817 39.3626C42.6112 39.3444 42.6287 38.853 42.6287 38.0438C42.6287 37.2153 42.6119 36.7541 42.5817 36.7541C42.5538 36.7541 42.5347 36.5827 42.5347 36.3339C42.5347 36.1028 42.5135 35.9006 42.4877 35.8846C42.4618 35.8686 42.4407 35.803 42.4407 35.7387C42.4407 35.6091 42.2504 35.3911 42.1373 35.3911C42.0973 35.3911 42.0647 35.37 42.0647 35.3441C42.0647 35.3183 41.9814 35.2971 41.8795 35.2971C41.7776 35.2971 41.6811 35.3183 41.6652 35.3441C41.6492 35.37 41.6046 35.3911 41.5662 35.3911C41.4554 35.3911 41.2657 35.6105 41.2657 35.7387C41.2657 35.803 41.2426 35.8698 41.2146 35.8872C41.1778 35.9099 41.1778 35.933 41.2146 35.9698C41.2436 35.9988 41.2657 36.1986 41.2657 36.4317C41.2657 36.6577 41.2868 36.8556 41.3127 36.8716C41.3419 36.8897 41.3597 37.3421 41.3597 38.0729C41.3597 38.8231 41.3427 39.2451 41.3127 39.2451C41.2845 39.2451 41.2657 39.4331 41.2657 39.7151C41.2657 39.9971 41.2469 40.1851 41.2187 40.1851C41.1922 40.1851 41.1717 40.3173 41.1717 40.4878C41.1717 40.6543 41.1505 40.8036 41.1247 40.8196C41.0988 40.8356 41.0777 40.9638 41.0777 41.1044C41.0777 41.2451 41.0565 41.3601 41.0307 41.3601C41.0048 41.3601 40.9837 41.4752 40.9837 41.6158C40.9837 41.7564 40.9625 41.8846 40.9367 41.9006C40.9108 41.9166 40.8897 42.0118 40.8897 42.1121C40.8897 42.2125 40.8685 42.3076 40.8427 42.3236C40.8168 42.3396 40.7957 42.4348 40.7957 42.5351C40.7957 42.6355 40.7745 42.7306 40.7487 42.7466C40.7228 42.7626 40.7017 42.8472 40.7017 42.9346C40.7017 43.022 40.6805 43.1066 40.6547 43.1226C40.6288 43.1386 40.6077 43.2232 40.6077 43.3106C40.6077 43.398 40.5865 43.4826 40.5607 43.4986C40.5348 43.5146 40.5137 43.5992 40.5137 43.6866C40.5137 43.774 40.4925 43.8586 40.4667 43.8746C40.4408 43.8906 40.4197 43.9646 40.4197 44.0391C40.4197 44.1136 40.4009 44.1862 40.3778 44.2004C40.3549 44.2147 40.325 44.2952 40.3113 44.3794C40.2651 44.6647 40.1811 45.0023 40.1358 45.0843C40.111 45.1292 40.0907 45.2191 40.0907 45.284C40.0907 45.349 40.0695 45.4021 40.0437 45.4021C40.0178 45.4021 39.9967 45.4656 39.9967 45.5431C39.9967 45.6207 39.9755 45.6841 39.9497 45.6841C39.9238 45.6841 39.9027 45.7264 39.9027 45.7781C39.9027 45.8849 30.028 45.9317 29.9622 45.8251C29.9462 45.7993 29.8391 45.7781 29.7243 45.7781C29.6095 45.7781 29.5157 45.757 29.5157 45.7311C29.5157 45.7053 29.4569 45.6841 29.385 45.6841C29.3083 45.6841 29.2265 45.6453 29.1867 45.5901C29.1494 45.5384 29.0911 45.4961 29.0572 45.4961C28.9715 45.4961 28.6697 45.1862 28.6697 45.0981C28.6697 45.0585 28.6538 45.026 28.6344 45.0258C28.5932 45.0253 28.4817 44.7985 28.4817 44.7152C28.4817 44.6837 28.4552 44.6492 28.4229 44.6384C28.3368 44.6096 28.3368 37.4525 28.4229 37.4239C28.4637 37.4102 28.4817 37.2839 28.4817 37.0114C28.4817 36.7955 28.5028 36.6056 28.5287 36.5896C28.5545 36.5736 28.5757 36.4243 28.5757 36.2578C28.5757 36.0873 28.5962 35.9551 28.6227 35.9551C28.6485 35.9551 28.6697 35.8401 28.6697 35.6994C28.6697 35.5588 28.6908 35.4306 28.7167 35.4146C28.7425 35.3986 28.7637 35.281 28.7637 35.1533C28.7637 35.0256 28.7848 34.9211 28.8107 34.9211C28.8365 34.9211 28.8577 34.8154 28.8577 34.6861C28.8577 34.5569 28.8788 34.4511 28.9047 34.4511C28.9305 34.4511 28.9517 34.3665 28.9517 34.2631C28.9517 34.1597 28.9728 34.0751 28.9987 34.0751C29.0245 34.0751 29.0457 34.0024 29.0457 33.9134C29.0457 33.8245 29.0668 33.7386 29.0927 33.7226C29.1185 33.7066 29.1397 33.6207 29.1397 33.5318C29.1397 33.4429 29.1608 33.3701 29.1867 33.3701C29.2125 33.3701 29.2337 33.2974 29.2337 33.2084C29.2337 33.1195 29.2548 33.0336 29.2807 33.0176C29.3065 33.0016 29.3277 32.9263 29.3277 32.8503C29.3277 32.7743 29.3488 32.7121 29.3747 32.7121C29.4005 32.7121 29.4217 32.6487 29.4217 32.5711C29.4217 32.4936 29.4428 32.4301 29.4687 32.4301C29.4945 32.4301 29.5157 32.3785 29.5157 32.3154C29.5157 32.2523 29.5368 32.1876 29.5627 32.1716C29.5885 32.1556 29.6097 32.0909 29.6097 32.0278C29.6097 31.9647 29.6308 31.9131 29.6567 31.9131C29.6825 31.9131 29.7037 31.8497 29.7037 31.7721C29.7037 31.6946 29.7248 31.6311 29.7507 31.6311C29.7765 31.6311 29.7977 31.5901 29.7977 31.5399C29.7977 31.4898 29.8188 31.4356 29.8447 31.4196C29.8705 31.4036 29.8917 31.3389 29.8917 31.2758C29.8917 31.2127 29.9128 31.1611 29.9387 31.1611C29.9645 31.1611 29.9857 31.1292 29.9857 31.09C29.9857 31.0509 30.0068 30.9769 30.0327 30.9255C30.0585 30.8742 30.1008 30.7901 30.1267 30.7387C30.1525 30.6874 30.1737 30.6133 30.1737 30.5742C30.1737 30.5351 30.1896 30.5031 30.2091 30.5031C30.4001 30.5031 30.4674 29.4467 30.288 29.2673C30.1184 29.0977 29.5535 29.0776 29.3844 29.2351C29.2765 29.3356 29.0457 29.8004 29.0457 29.917C29.0457 30.0351 28.9087 29.9933 28.7386 29.8231C28.649 29.7336 28.5757 29.6437 28.5757 29.6234C28.5755 29.6032 28.5204 29.5232 28.4532 29.4456C28.3859 29.3681 28.2653 29.2099 28.1851 29.0942C27.9898 28.8119 27.9214 28.7264 27.7414 28.5383C27.6574 28.4505 27.5887 28.3538 27.5887 28.3233C27.5887 28.2928 27.5464 28.2374 27.4947 28.2001C27.443 28.1629 27.4007 28.1085 27.4007 28.0792C27.4007 28.05 27.3372 27.9597 27.2597 27.8785C27.1821 27.7973 27.1187 27.7037 27.1187 27.6704C27.1187 27.6372 27.0764 27.5794 27.0247 27.5421C26.973 27.5049 26.9307 27.4513 26.9307 27.4231C26.9307 27.3949 26.8936 27.3309 26.8484 27.2807C26.8032 27.2306 26.7362 27.1315 26.6994 27.0604C26.6628 26.9893 26.6152 26.9311 26.5937 26.9311C26.5723 26.9311 26.5547 26.8994 26.5547 26.8606C26.5547 26.8218 26.5388 26.7899 26.5194 26.7895C26.5 26.7893 26.4437 26.7047 26.3944 26.6015C26.3449 26.4985 26.2868 26.4141 26.2651 26.4141C26.2434 26.4141 26.2257 26.3718 26.2257 26.3201C26.2257 26.2684 26.2071 26.2261 26.1844 26.2261C26.1616 26.2261 26.1167 26.1627 26.0847 26.0851C26.0526 26.0076 26.0077 25.9441 25.9849 25.9441C25.9622 25.9441 25.9437 25.9018 25.9437 25.8501C25.9437 25.7984 25.9225 25.7561 25.8967 25.7561C25.8708 25.7561 25.8497 25.7138 25.8497 25.6621C25.8497 25.6104 25.8285 25.5681 25.8027 25.5681C25.7768 25.5681 25.7557 25.5404 25.7557 25.5064C25.7557 25.4726 25.7134 25.3994 25.6617 25.3439C25.61 25.2885 25.5677 25.2104 25.5677 25.1706C25.5677 25.1308 25.5465 25.0981 25.5207 25.0981C25.4948 25.0981 25.4737 25.067 25.4737 25.029C25.4737 24.9911 25.4314 24.8846 25.3797 24.7926C25.328 24.7006 25.2857 24.5942 25.2857 24.5562C25.2857 24.5183 25.2645 24.4871 25.2387 24.4871C25.2128 24.4871 25.1917 24.4448 25.1917 24.3931C25.1917 24.3414 25.1705 24.2991 25.1447 24.2991C25.1188 24.2991 25.0977 24.2357 25.0977 24.1581C25.0977 24.0806 25.0765 24.0171 25.0507 24.0171C25.0248 24.0171 25.0037 23.9655 25.0037 23.9024C25.0037 23.8393 24.9825 23.7746 24.9567 23.7586C24.9308 23.7426 24.9097 23.6673 24.9097 23.5913C24.9097 23.5153 24.8885 23.4531 24.8627 23.4531C24.8368 23.4531 24.8157 23.3685 24.8157 23.2651C24.8157 23.1617 24.7945 23.0771 24.7687 23.0771C24.7399 23.0771 24.7217 22.85 24.7217 22.4896C24.7217 22.1292 24.7399 21.9021 24.7687 21.9021C24.7945 21.9021 24.8157 21.8746 24.8157 21.841C24.8157 21.7545 24.9262 21.5269 24.9684 21.5265C24.9878 21.5262 25.0037 21.4916 25.0037 21.4494C25.0037 21.308 25.8549 20.5247 26.1112 20.4301C26.2388 20.383 26.3749 20.3261 26.4137 20.3035C26.5072 20.2492 26.4826 20.247 26.7497 20.3344Z" fill="#121212"/>
</g>
<defs>
<linearGradient id="paint0_linear_60_32159" x1="-32.81" y1="218.77" x2="6.01733" y2="225.263" gradientUnits="userSpaceOnUse">
<stop stop-color="#9AB0A6"/>
<stop offset="1" stop-color="#426986"/>
</linearGradient>
<clipPath id="clip0_60_32159">
<rect width="47" height="47" fill="white"/>
</clipPath>
</defs>
</svg>
